<svg width="374" height="212" viewBox="0 0 374 212" fill="none" xmlns="http://www.w3.org/2000/svg">
<mask id="mask0_411_3718" style="mask-type:alpha" maskUnits="userSpaceOnUse" x="0" y="0" width="374" height="212">
<rect width="374" height="212" fill="#D9D9D9"/>
</mask>
<g mask="url(#mask0_411_3718)">
<path d="M-0.173828 -120V161.453H34.6255L143.23 96.0611L265.983 122.447L368.087 96.0611L396.003 58.2025L518.756 89.1777L578.795 75.0285C613.211 75.5384 683.422 76.2522 688.929 75.0285C694.435 73.8048 765.666 63.3013 800.592 58.2025L1283.96 48.2598C1295.05 48.2598 1364.29 18.1192 1373.44 18.8143C1403.65 21.1087 1330.61 61.0903 1405.95 42.9061C1414.82 40.7646 1448.01 26.08 1472.49 33.7282V-120H-0.173828Z" fill="#AD94FF"/>
<path d="M475.84 50.9332C434.256 40.617 395.021 43.5614 355.883 60.8941C330.948 71.987 308.652 88.1019 283.813 99.2988C245.892 116.373 203.773 121.227 162.465 125.909C169.8 126.167 175.186 133.197 177.557 140.121C179.825 147.142 180.162 154.699 183.044 161.439C187.222 171.344 197.024 178.63 207.746 179.812C202.84 170.586 201.74 158.979 210.492 153.252C219.244 147.524 244.177 145.082 254.571 144.14C309.98 138.949 357.819 134.497 413.127 129.301C417.063 128.937 421.1 128.576 424.583 126.788C428.066 124.999 431.104 121.585 431.041 117.66C431.009 112.83 426.716 109.057 422.262 106.989C415.332 103.828 407.502 103.351 399.902 102.078C392.302 100.804 384.442 98.3146 379.62 92.4109C374.799 86.5073 371.326 73.7102 378.828 72.063C408.011 66.0488 437.881 77.6627 464.468 91.0724C491.157 104.486 513.132 114.614 542.174 121.17C562.833 125.82 586.033 124.021 612.173 110.154C628.986 101.19 659.292 74.6937 678.118 71.4332C697.144 68.1798 704.374 68.535 723.625 70.3192C742.877 72.1035 776.512 108.194 787.222 98.3102C746.199 92.0375 711.113 54.2866 670.118 61.4946C646.536 65.5935 623.802 74.1484 600.14 77.641C559.281 83.8478 516.533 78.0173 481.81 55.6701" fill="#081B6A"/>
<path d="M475.84 50.9333C434.256 40.617 395.021 43.5614 355.883 60.8941C330.948 71.987 308.652 88.1019 283.813 99.2988C245.892 116.373 203.773 121.227 162.465 125.909C169.8 126.167 175.186 133.197 177.557 140.121C179.825 147.142 180.162 154.699 183.044 161.439C187.222 171.344 197.024 178.63 207.746 179.812C202.84 170.586 201.74 158.979 210.492 153.252C219.244 147.524 244.177 145.082 254.571 144.14C309.98 138.949 357.819 134.497 413.127 129.301C417.063 128.937 421.1 128.576 424.583 126.788C428.066 124.999 431.104 121.585 431.041 117.66C431.009 112.83 426.716 109.057 422.262 106.989C415.332 103.828 407.502 103.351 399.902 102.078C392.302 100.804 384.442 98.3146 379.62 92.4109C374.799 86.5073 371.326 73.7102 378.828 72.063C408.011 66.0488 437.881 77.6627 464.468 91.0724C491.157 104.486 513.132 114.614 542.174 121.17C562.833 125.82 586.033 124.021 612.173 110.154C628.986 101.19 659.292 74.6937 678.118 71.4332C697.144 68.1798 704.374 68.535 723.625 70.3192C742.877 72.1035 776.512 108.194 787.222 98.3102C746.199 92.0375 711.113 54.2866 670.118 61.4946C646.536 65.5935 623.802 74.1484 600.14 77.641C559.281 83.8478 516.533 78.0173 481.81 55.6701" stroke="black" stroke-miterlimit="10" stroke-linecap="round" stroke-linejoin="round"/>
<path d="M412.649 31.4022C386.839 24.458 329.021 40.9319 306.104 54.7113C302.402 56.9952 298.7 59.2792 294.898 61.5596C275.668 73.4569 256.233 85.4476 233.996 88.4873C209.132 91.8369 184.179 83.4139 160.98 73.745C137.782 64.076 127.445 57.6764 102.373 55.4861C77.3017 53.2958 56.1593 65.2263 43.9206 87.1274C38.1239 97.4857 21.4008 121.04 12.0827 128.558C-52.5097 180.303 -70.0029 171.439 -80.2847 174.899C-90.4626 178.263 -102.331 181.064 -100.283 214.332C-100.283 214.332 -38.0315 180.511 -1.9318 172.326C34.1714 164.041 61.8027 162.096 81.3276 144.676C100.853 127.257 209.497 118.608 240.819 114.681" fill="#081B6A"/>
<path d="M412.649 31.4022C386.839 24.458 329.021 40.9319 306.104 54.7113C302.402 56.9952 298.7 59.2792 294.898 61.5596C275.668 73.4569 256.233 85.4476 233.996 88.4873C209.132 91.8369 184.179 83.414 160.98 73.745C137.782 64.076 127.445 57.6764 102.373 55.4861C77.3017 53.2958 56.1593 65.2263 43.9206 87.1274C38.1239 97.4857 21.4008 121.04 12.0827 128.558C-52.5097 180.303 -70.0029 171.439 -80.2847 174.899C-90.4626 178.263 -102.331 181.064 -100.283 214.332C-100.283 214.332 -38.0315 180.511 -1.93179 172.326C34.1714 164.041 61.8027 162.096 81.3276 144.676C100.853 127.257 209.497 118.608 240.819 114.681" stroke="black" stroke-miterlimit="10" stroke-linecap="round" stroke-linejoin="round"/>
<path d="M721.428 84.1221C698.708 77.9908 661.816 80.1123 645.261 87.4764C623.593 97.1754 621.908 99.3291 604.552 106.564C573.001 119.839 536.727 110.112 504.765 97.9213C472.803 85.7308 439.928 70.8926 405.81 74.2183C394.304 75.3221 380.493 81.8775 381.295 93.3735C382.17 105.677 398.028 109.555 410.257 110.79C412.56 111.072 414.961 111.458 417.455 112.049C428.425 114.749 426.751 130.886 415.474 131.193C360.888 132.993 306.407 134.697 251.821 136.497C235.808 137.04 218.574 137.942 206.05 147.963C193.525 157.984 186.678 163.879 200.364 172.308C269.415 208.237 83.0898 180.351 6.40247 184.19C-35.9221 186.322 -56.9249 211.435 -58.4587 229.287C-59.8496 245.936 -101.302 249.004 -106.725 217.327C-109.072 203.966 -97.9867 191.983 -86.4689 184.844C-51.7214 163.635 -4.88484 164.781 24.7677 136.853C46.0925 116.882 56.0041 83.9339 82.9525 72.8113C107.246 62.8024 134.379 75.0241 159.335 83.3466C196.22 95.7104 227.331 106.362 263.719 92.8557C297.556 80.3661 334.938 47.1783 369.138 35.808C445.681 10.3363 498.296 84.5157 577.763 70.3128C613.192 64.0155 618.499 56.1548 654.499 56.5168C676.419 56.7855 685.639 54.897 732.48 70.2268C775.541 84.317 794.307 105.599 814.806 120.505C814.803 120.605 787.498 101.839 721.428 84.1221Z" fill="#AD94FF" stroke="black" stroke-miterlimit="10" stroke-linecap="round" stroke-linejoin="round"/>
<path d="M140.409 160.941C129.494 159.551 120.053 159.118 110.425 164.01C108.99 164.764 107.545 165.82 107.488 167.427C107.504 169.842 109.994 170.533 111.993 170.905C135.192 174.841 158.291 178.772 181.49 182.707C183.69 183.087 185.89 183.466 187.942 182.331C188.864 181.86 189.498 180.977 189.735 179.98C190.329 177.385 187.773 175.686 185.498 174.6C182.53 173.187 179.562 171.775 176.586 170.564C165.877 166.163 154.616 163.151 143.108 161.438C142.11 161.202 141.109 161.066 140.409 160.941Z" fill="white" stroke="#000207" stroke-miterlimit="10" stroke-linecap="round" stroke-linejoin="round"/>
<path d="M90.4585 171.056C94.6747 171.305 98.7514 172.655 102.294 174.893C103.278 175.531 104.448 176.578 104.204 177.776C103.961 178.975 102.634 179.532 101.518 179.794C94.5183 181.459 86.8246 179.981 80.9379 175.75C80.0549 175.116 79.0856 174.076 79.5229 173.085C79.8526 172.292 80.8678 172.026 81.6787 171.853C84.3121 171.342 85.5177 171.385 88.241 171.179L90.4585 171.056Z" fill="white" stroke="#000207" stroke-miterlimit="10" stroke-linecap="round" stroke-linejoin="round"/>
<path d="M414.98 130.771C359.61 120.573 282.217 107.286 227.703 121.362C216.839 124.198 205.528 128.327 198.475 137.232C191.425 146.038 190.808 160.703 199.821 167.559" stroke="#000207" stroke-miterlimit="10" stroke-linecap="round" stroke-linejoin="round"/>
<path d="M266.107 90.5265C228.945 97.467 190.678 98.6347 153.223 93.8959C133.494 91.3907 110.98 87.9827 95.8411 100.829C81.7387 112.806 79.235 135.352 63.6892 145.467C55.041 151.098 44.2624 151.523 34.0513 152.974C0.382696 157.825 -31.2127 175.222 -53.2486 201.104" stroke="#000207" stroke-miterlimit="10" stroke-linecap="round" stroke-linejoin="round"/>
</g>
</svg>
