<svg width="1920" height="544" viewBox="0 0 1920 544" fill="none" xmlns="http://www.w3.org/2000/svg">
<mask id="mask0_408_3713" style="mask-type:alpha" maskUnits="userSpaceOnUse" x="0" y="0" width="1920" height="544">
<rect width="1920" height="544" fill="#D9D9D9"/>
</mask>
<g mask="url(#mask0_408_3713)">
<path d="M0 -8V360H45.5L187.5 274.5L348 309L481.5 274.5L518 225L678.5 265.5L757 247C802 247.667 893.8 248.6 901 247C908.2 245.4 1001.33 231.667 1047 225L1679 212C1693.5 212 1784.03 172.591 1796 173.5C1835.5 176.5 1740 228.776 1838.5 205C1850.1 202.2 1893.5 183 1925.5 193V-8H0Z" fill="#AD94FF"/>
<path d="M1290.69 203.243C1343.94 185.125 1332.6 185.91 1388.45 194.847C1446.65 204.13 1572.03 221.697 1628.82 207.518C1644.75 203.475 1664.08 203.63 1681.9 198.075C1695.73 193.827 1704.8 190.201 1715.04 186.879C1728.35 182.612 1748.69 165.177 1756.94 162.443C1781.81 154.506 1779.9 167.854 1781.61 175.149C1766.5 185.928 1746.23 193.895 1727.59 200.473C1685.36 215.559 1639.78 221.451 1597.4 222.195C1564.76 222.756 1531.65 218.039 1499.82 225.468C1494.25 226.719 1488.67 228.495 1484.58 232.428C1480.5 236.362 1478.56 243.001 1481.67 247.846C1485.04 253.094 1492.25 253.874 1498.56 253.964C1583.88 254.995 1669.32 241.431 1750.12 214.156C1765.42 209.302 1786.67 199.79 1797.46 192.147C1809.87 183.246 1811.55 176.729 1827.18 181.093C1835.12 183.346 1850.95 189.558 1848.95 197.643C1847.72 202.86 1840.4 205.102 1835.46 207.295C1689.01 276.189 1461.42 273.964 1291.29 302.041C1291.29 302.041 1285.17 300.115 1236.53 288.407" fill="#AD94FF"/>
<path d="M1778.43 202.128C1779.36 201.767 1736.94 218.818 1718.06 224.467C1683.23 234.947 1623.75 250.74 1573.27 253.698C1495.38 258.322 1477.59 255.46 1475.81 246.19C1474.15 237.319 1484.72 232.299 1484.72 232.299C1484.72 232.299 1466.34 257.562 1555.55 252.68C1661.11 246.926 1751.45 213.936 1778.43 202.128Z" fill="#081B6A" stroke="black" stroke-miterlimit="10" stroke-linecap="round" stroke-linejoin="round"/>
<path d="M1739.73 173.147C1739.73 173.147 1719.41 189.925 1665.65 203.947C1611.89 217.969 1510.63 209.933 1507.08 209.808C1476.2 209.115 1442.92 201.762 1442.92 201.762C1442.92 201.762 1469.02 207.679 1514.27 211.113C1545.49 213.659 1683.14 211.402 1739.73 173.147Z" fill="#081B6A" stroke="black" stroke-miterlimit="10" stroke-linecap="round" stroke-linejoin="round"/>
<path d="M1484.72 232.299C1484.72 232.299 1492.42 222.837 1525.2 221.887C1557.99 220.936 1617.9 226.465 1664.36 218.105C1710.82 209.744 1757.47 188.501 1785.27 175.932C1802.78 167.999 1824.51 182.311 1778.43 202.128" stroke="black" stroke-miterlimit="10" stroke-linecap="round" stroke-linejoin="round"/>
<path d="M1847.58 202.991C1847.58 202.991 1789.79 226.736 1760.42 235.304C1730.92 243.867 1677.66 255.013 1608.64 265.21C1539.63 275.407 1417.72 286.109 1402.28 287.538C1386.84 288.968 1357.41 291.878 1348.11 294.575" stroke="black" stroke-miterlimit="10" stroke-linecap="round" stroke-linejoin="round"/>
<path d="M853.186 245.449C1071.62 261.293 1241.56 447.993 1235.74 389.128C1234.67 378.305 1225.5 339.971 1224.57 329.021C1259.1 356.937 1293.86 389.332 1328.58 419.49C1334.96 424.976 1344.17 417.409 1339.96 410.158C1328.42 390.417 1316.77 370.147 1305.42 352.649C1301.04 346.05 1296.69 339.057 1297.04 332.756C1298.23 313.858 1338.92 327.391 1344.4 309.96C1346.17 304.498 1345.32 287.632 1346.18 281.876C1347.54 273.111 1376.15 263.859 1383.84 258.211C1410.72 238.245 1410.54 217.063 1422.98 188.959C1429.55 173.934 1431.85 153.628 1411.86 138.456C1398.92 128.662 1381.31 124.754 1365.23 121.821C1313.21 112.624 1261.82 107.789 1212.51 107.5" fill="#AD94FF"/>
<path d="M1340.65 416.499C1340.65 416.499 1345.23 406.006 1325.6 373.223C1305.97 340.571 1291.97 327.189 1307.13 322.461C1322.29 317.734 1344.2 330.737 1350.71 313.868C1357.22 296.998 1367.06 297.739 1380.36 293.604C1401.1 287.1 1473.63 281.762 1473.63 281.762C1473.63 281.762 1366.78 283.13 1354.29 286.768C1326.38 294.992 1353.11 305.403 1341.25 309.852C1329.39 314.301 1275.85 303.341 1282.15 322.239C1288.46 341.007 1344.67 395.728 1340.65 416.499Z" fill="#081B6A" stroke="black" stroke-miterlimit="10" stroke-linecap="round" stroke-linejoin="round"/>
<path d="M1258.95 357.59C1258.95 357.59 1227.25 316.49 1220.7 323.099C1214.16 329.708 1226.33 361.177 1230.57 375.268C1234.81 389.359 1230.72 400.921 1230.72 400.921C1230.72 400.921 1237.48 399.317 1236 374.144C1234.52 348.97 1223.28 339.499 1230.28 338.693C1237.28 337.887 1258.95 357.59 1258.95 357.59Z" fill="#081B6A" stroke="black" stroke-miterlimit="10" stroke-linecap="round" stroke-linejoin="round"/>
<path d="M1162.26 369.047C1162.26 369.047 1077.79 306.623 993.822 270.654C909.859 234.685 848.389 258.432 848.389 258.432C848.389 258.432 890.416 241.497 1001.97 289.617C1057.16 313.262 1162.26 369.047 1162.26 369.047Z" fill="#081B6A" stroke="black" stroke-miterlimit="10" stroke-linecap="round" stroke-linejoin="round"/>
<path d="M622.367 215.491C567.995 202.003 516.696 205.852 465.523 228.515C432.92 243.019 403.769 264.089 371.292 278.729C321.71 301.053 266.64 307.4 212.63 313.522C222.219 313.86 229.261 323.051 232.362 332.104C235.327 341.284 235.769 351.164 239.536 359.977C244.999 372.928 257.816 382.454 271.835 384C265.42 371.937 263.981 356.761 275.425 349.272C286.868 341.783 319.468 338.59 333.058 337.359C405.505 330.571 468.054 324.75 540.37 317.957C545.516 317.481 550.794 317.009 555.348 314.67C559.902 312.332 563.874 307.868 563.791 302.736C563.75 296.421 558.137 291.488 552.313 288.784C543.252 284.651 533.015 284.028 523.078 282.362C513.14 280.697 502.864 277.442 496.559 269.723C490.255 262.004 485.714 245.272 495.523 243.118C533.68 235.255 572.735 250.44 607.498 267.973C642.393 285.511 671.126 298.754 709.098 307.325C736.11 313.405 766.444 311.053 800.622 292.922C822.605 281.201 862.23 246.558 886.844 242.295C911.721 238.041 921.174 238.505 946.345 240.838C971.516 243.171 1015.49 290.359 1029.5 277.436C975.86 269.235 929.985 219.876 876.385 229.3C845.55 234.659 815.826 245.845 784.888 250.411C731.466 258.527 675.572 250.903 630.172 221.684" fill="#081B6A"/>
<path d="M622.367 215.491C567.995 202.003 516.696 205.852 465.523 228.515C432.92 243.019 403.768 264.089 371.292 278.729C321.71 301.053 266.64 307.4 212.63 313.522C222.219 313.86 229.261 323.051 232.362 332.104C235.327 341.284 235.769 351.164 239.536 359.977C244.999 372.928 257.816 382.454 271.835 384C265.42 371.937 263.981 356.761 275.425 349.272C286.868 341.783 319.468 338.59 333.058 337.359C405.505 330.571 468.054 324.75 540.37 317.957C545.516 317.481 550.794 317.009 555.348 314.67C559.902 312.332 563.874 307.868 563.791 302.736C563.75 296.421 558.137 291.488 552.313 288.784C543.252 284.651 533.015 284.028 523.078 282.362C513.14 280.697 502.864 277.442 496.559 269.723C490.255 262.004 485.714 245.272 495.523 243.118C533.68 235.255 572.735 250.44 607.498 267.973C642.393 285.511 671.126 298.754 709.098 307.325C736.11 313.405 766.444 311.053 800.622 292.922C822.605 281.201 862.23 246.558 886.844 242.295C911.721 238.041 921.174 238.505 946.345 240.838C971.516 243.171 1015.49 290.359 1029.5 277.436C975.86 269.235 929.985 219.876 876.385 229.3C845.55 234.659 815.826 245.845 784.888 250.411C731.466 258.527 675.572 250.903 630.172 221.684" stroke="black" stroke-miterlimit="10" stroke-linecap="round" stroke-linejoin="round"/>
<path d="M539.746 189.957C506 180.877 430.403 202.417 400.438 220.433C395.598 223.42 390.758 226.406 385.786 229.388C360.643 244.943 335.233 260.621 306.157 264.595C273.647 268.975 241.022 257.962 210.69 245.32C180.358 232.678 166.842 224.31 134.061 221.446C101.28 218.583 73.6365 234.182 57.6344 262.817C50.0551 276.361 28.1898 307.158 16.0063 316.988C-68.4481 384.644 -91.3203 373.054 -104.764 377.579C-118.071 381.977 -133.589 385.639 -130.911 429.137C-130.911 429.137 -49.5178 384.916 -2.31754 374.214C44.8873 363.381 81.0152 360.839 106.544 338.063C132.073 315.287 274.125 303.978 315.079 298.843" fill="#081B6A"/>
<path d="M539.746 189.957C506 180.877 430.403 202.417 400.438 220.433C395.598 223.42 390.758 226.406 385.786 229.388C360.643 244.943 335.233 260.621 306.157 264.595C273.647 268.975 241.022 257.962 210.69 245.32C180.358 232.678 166.842 224.31 134.061 221.446C101.28 218.583 73.6365 234.182 57.6344 262.817C50.0551 276.361 28.1898 307.158 16.0063 316.988C-68.4481 384.644 -91.3204 373.054 -104.764 377.579C-118.071 381.977 -133.589 385.639 -130.911 429.137C-130.911 429.137 -49.5178 384.916 -2.31754 374.214C44.8873 363.381 81.0152 360.839 106.544 338.063C132.073 315.287 274.125 303.978 315.079 298.843" stroke="black" stroke-miterlimit="10" stroke-linecap="round" stroke-linejoin="round"/>
<path d="M943.473 258.887C913.767 250.871 865.531 253.645 843.884 263.273C815.554 275.955 813.351 278.771 790.658 288.231C749.405 305.587 701.977 292.869 660.187 276.93C618.396 260.991 575.413 241.59 530.803 245.938C515.759 247.382 497.701 255.953 498.75 270.984C499.893 287.07 520.628 292.14 536.617 293.756C539.629 294.125 542.768 294.63 546.029 295.402C560.373 298.932 558.183 320.031 543.438 320.433C472.068 322.787 400.833 325.014 329.463 327.368C308.525 328.077 285.993 329.257 269.617 342.359C253.241 355.462 244.289 363.17 262.183 374.19C352.466 421.167 108.847 384.707 8.57851 389.726C-46.7607 392.513 -74.2219 425.349 -76.2273 448.69C-78.0459 470.459 -132.245 474.47 -139.336 433.053C-142.404 415.583 -127.91 399.915 -112.851 390.581C-67.4182 362.85 -6.17962 364.348 32.591 327.833C60.4732 301.721 73.4326 258.641 108.668 244.099C140.432 231.012 175.907 246.992 208.537 257.873C256.765 274.039 297.442 287.966 345.019 270.307C389.261 253.977 438.138 210.584 482.854 195.717C582.935 162.413 651.729 259.402 755.631 240.832C801.955 232.598 808.893 222.32 855.963 222.794C884.623 223.145 896.679 220.676 957.923 240.719C1014.23 259.142 1038.76 286.969 1065.56 306.458C1065.56 306.589 1029.86 282.052 943.473 258.887Z" fill="#AD94FF" stroke="black" stroke-miterlimit="10" stroke-linecap="round" stroke-linejoin="round"/>
<path d="M183.791 359.326C169.519 357.509 157.176 356.943 144.587 363.339C142.711 364.325 140.821 365.705 140.747 367.807C140.767 370.964 144.023 371.868 146.637 372.355C176.97 377.5 207.172 382.64 237.505 387.786C240.381 388.281 243.257 388.777 245.94 387.293C247.145 386.678 247.975 385.524 248.284 384.219C249.061 380.827 245.72 378.605 242.744 377.185C238.864 375.338 234.983 373.492 231.093 371.908C217.09 366.154 202.367 362.216 187.32 359.977C186.016 359.668 184.706 359.49 183.791 359.326Z" fill="white" stroke="#000207" stroke-miterlimit="10" stroke-linecap="round" stroke-linejoin="round"/>
<path d="M118.482 372.552C123.995 372.877 129.325 374.643 133.957 377.569C135.243 378.403 136.773 379.772 136.455 381.339C136.136 382.906 134.401 383.634 132.942 383.978C123.79 386.154 113.731 384.222 106.034 378.69C104.879 377.86 103.612 376.5 104.184 375.205C104.615 374.168 105.942 373.82 107.002 373.595C110.446 372.927 112.022 372.982 115.583 372.713L118.482 372.552Z" fill="white" stroke="#000207" stroke-miterlimit="10" stroke-linecap="round" stroke-linejoin="round"/>
<path d="M542.799 319.881C470.403 306.547 369.213 289.175 297.935 307.578C283.731 311.287 268.942 316.685 259.719 328.329C250.502 339.842 249.695 359.017 261.48 367.981" stroke="#000207" stroke-miterlimit="10" stroke-linecap="round" stroke-linejoin="round"/>
<path d="M348.151 267.262C299.561 276.337 249.527 277.864 200.555 271.668C174.759 268.392 145.322 263.936 125.528 280.732C107.089 296.392 103.816 325.871 83.4896 339.097C72.1822 346.459 58.0892 347.015 44.7382 348.913C0.716536 355.254 -40.5944 378.001 -69.4063 411.841" stroke="#000207" stroke-miterlimit="10" stroke-linecap="round" stroke-linejoin="round"/>
<path d="M885.786 223.711C832.045 222.213 805.382 247.317 784.855 262.509C748.256 289.63 694.821 290.643 643.579 270.425" stroke="#000207" stroke-miterlimit="10" stroke-linecap="round" stroke-linejoin="round"/>
<path d="M500.655 261.713C508.769 247.925 531.891 233.745 547.751 231.542C587.804 225.849 636.602 248.217 676.465 255.407C716.327 262.598 756.441 255.198 790.236 232.976" stroke="#000207" stroke-miterlimit="10" stroke-linecap="round" stroke-linejoin="round"/>
<path d="M1123.92 315.354C1123.92 315.354 1208.27 392.636 1219.65 390.538C1231.04 388.44 1188.45 339.197 1173.97 331.848C1159.5 324.499 1155.81 332.129 1128.99 309.614C1102.16 287.099 1112.54 306.01 1123.92 315.354Z" fill="white" stroke="black" stroke-miterlimit="10" stroke-linecap="round" stroke-linejoin="round"/>
<path d="M1189.94 371.34L1207.36 366.034C1207.36 366.034 1190.98 341.914 1178.57 335.821C1196.56 361.664 1156.3 338.28 1147.97 332.068C1139.51 325.851 1126.84 318.086 1126.84 318.086C1126.84 318.086 1172.13 361.769 1189.94 371.34Z" fill="#081B6A" stroke="black" stroke-miterlimit="10" stroke-linecap="round" stroke-linejoin="round"/>
<path d="M1340.66 416.497C1340.66 416.497 1338.87 426.298 1326.55 417.578C1314.23 408.858 1258.95 357.59 1258.95 357.59" stroke="black" stroke-miterlimit="10" stroke-linecap="round" stroke-linejoin="round"/>
<path d="M1230.86 400.794C1230.86 400.794 1230.72 408.68 1191.44 384.675C1166.07 369.314 1149.18 359.776 1149.18 359.776" stroke="black" stroke-miterlimit="10" stroke-linecap="round" stroke-linejoin="round"/>
</g>
</svg>
