<svg width="320" height="362" viewBox="0 0 320 362" fill="none" xmlns="http://www.w3.org/2000/svg">
<path d="M0.00195312 193.5L80.002 222H160.002H320.002V286H0.00195312V193.5Z" fill="#5AC7E5"/>
<path d="M221.848 242.879C180.264 253.195 141.029 250.251 101.891 232.918C76.9555 221.826 54.6598 205.711 29.8213 194.514C-8.10027 177.44 -50.2189 172.585 -91.5267 167.903C-84.1924 167.645 -78.8067 160.615 -76.435 153.691C-74.1672 146.67 -73.8297 139.114 -70.9487 132.373C-66.7705 122.468 -56.9677 115.182 -46.2457 114C-51.1518 123.226 -52.2521 134.833 -43.5 140.561C-34.7478 146.289 -9.81506 148.73 0.579241 149.672C55.9882 154.864 103.827 159.316 159.135 164.511C163.071 164.875 167.108 165.236 170.591 167.025C174.074 168.814 177.111 172.228 177.048 176.153C177.017 180.983 172.724 184.755 168.27 186.823C161.34 189.984 153.51 190.461 145.91 191.735C138.309 193.008 130.45 195.498 125.628 201.402C120.806 207.305 117.334 220.102 124.836 221.749C154.018 227.764 183.888 216.15 210.476 202.74C237.164 189.327 259.14 179.198 288.182 172.643C308.841 167.993 332.041 169.791 358.181 183.658C374.994 192.623 405.3 219.119 424.125 222.379C443.152 225.633 450.382 225.278 469.633 223.493C488.885 221.709 522.52 185.619 533.229 195.502C492.207 201.775 457.12 239.526 416.126 232.318C392.543 228.219 369.81 219.664 346.148 216.172C305.289 209.965 262.541 215.795 227.818 238.142" fill="#081B6A"/>
<path d="M221.848 242.879C180.264 253.195 141.029 250.251 101.891 232.918C76.9555 221.826 54.6598 205.711 29.8213 194.514C-8.10025 177.44 -50.2189 172.585 -91.5267 167.903C-84.1924 167.645 -78.8066 160.615 -76.4349 153.691C-74.1673 146.67 -73.8298 139.114 -70.9486 132.373C-66.7706 122.468 -56.9677 115.182 -46.2457 114C-51.1518 123.226 -52.2521 134.833 -43.5 140.561C-34.7478 146.289 -9.81509 148.73 0.579262 149.672C55.9882 154.864 103.827 159.316 159.135 164.511C163.071 164.875 167.108 165.236 170.591 167.025C174.074 168.814 177.111 172.228 177.048 176.153C177.017 180.983 172.724 184.755 168.27 186.823C161.34 189.984 153.51 190.461 145.91 191.735C138.309 193.008 130.45 195.498 125.628 201.402C120.806 207.305 117.334 220.102 124.836 221.749C154.018 227.764 183.888 216.15 210.476 202.74C237.164 189.327 259.14 179.198 288.182 172.643C308.841 167.993 332.041 169.791 358.181 183.658C374.994 192.623 405.3 219.119 424.125 222.379C443.152 225.633 450.382 225.278 469.633 223.493C488.885 221.709 522.52 185.619 533.229 195.502C492.207 201.775 457.12 239.526 416.126 232.318C392.543 228.219 369.81 219.664 346.148 216.172C305.289 209.965 262.541 215.795 227.818 238.142" stroke="black" stroke-miterlimit="10" stroke-linecap="round" stroke-linejoin="round"/>
<path d="M158.657 262.41C132.847 269.355 75.0291 252.881 52.1115 239.101C48.4097 236.817 44.7079 234.533 40.9056 232.253C21.6757 220.356 2.24128 208.365 -19.9964 205.325C-44.8605 201.976 -69.8131 210.399 -93.0118 220.068C-116.21 229.736 -126.548 236.136 -151.619 238.326C-176.69 240.517 -197.833 228.586 -210.072 206.685C-215.868 196.327 -232.591 172.773 -241.909 165.255C-306.502 113.509 -323.995 122.374 -334.277 118.913C-344.455 115.55 -356.323 112.748 -354.275 79.4803C-354.275 79.4803 -292.024 113.301 -255.924 121.486C-219.821 129.772 -192.189 131.716 -172.665 149.136C-153.14 166.556 -44.4952 175.205 -13.1727 179.132" fill="#081B6A"/>
<path d="M158.657 262.41C132.847 269.355 75.0291 252.881 52.1115 239.101C48.4097 236.817 44.7079 234.533 40.9056 232.253C21.6757 220.356 2.24129 208.365 -19.9964 205.325C-44.8605 201.976 -69.8131 210.399 -93.0118 220.068C-116.21 229.736 -126.548 236.136 -151.619 238.326C-176.69 240.517 -197.833 228.586 -210.072 206.685C-215.868 196.327 -232.591 172.773 -241.91 165.255C-306.502 113.509 -323.995 122.374 -334.277 118.913C-344.455 115.55 -356.323 112.748 -354.275 79.4803C-354.275 79.4803 -292.024 113.301 -255.924 121.486C-219.821 129.772 -192.189 131.716 -172.665 149.136C-153.14 166.556 -44.4952 175.205 -13.1727 179.132" stroke="black" stroke-miterlimit="10" stroke-linecap="round" stroke-linejoin="round"/>
<path d="M467.436 209.69C444.716 215.822 407.824 213.7 391.269 206.336C369.601 196.637 367.916 194.483 350.56 187.248C319.009 173.974 282.735 183.701 250.773 195.891C218.811 208.082 185.936 222.92 151.818 219.594C140.312 218.49 126.5 211.935 127.303 200.439C128.178 188.136 144.035 184.258 156.265 183.023C158.568 182.74 160.969 182.354 163.463 181.763C174.433 179.063 172.759 162.927 161.481 162.619C106.896 160.819 52.4145 159.116 -2.17098 157.315C-18.1846 156.773 -35.4179 155.87 -47.9426 145.849C-60.4672 135.829 -67.314 129.933 -53.6281 121.505C15.4224 85.5759 -170.902 113.461 -247.59 109.622C-289.914 107.491 -310.917 82.3775 -312.451 64.5258C-313.842 47.8761 -355.294 44.8086 -360.717 76.4855C-363.064 89.8466 -351.979 101.829 -340.461 108.969C-305.714 130.178 -258.877 129.032 -229.225 156.959C-207.9 176.931 -197.988 209.879 -171.04 221.001C-146.746 231.01 -119.613 218.788 -94.6572 210.466C-57.7721 198.102 -26.661 187.45 9.72663 200.957C43.5636 213.446 80.9457 246.634 115.146 258.004C191.689 283.476 244.304 209.297 323.77 223.5C359.2 229.797 364.507 237.658 400.507 237.296C422.427 237.027 431.647 238.915 478.487 223.586C521.549 209.496 540.315 188.213 560.814 173.308C560.811 173.207 533.506 191.974 467.436 209.69Z" fill="#5AC7E5" stroke="black" stroke-miterlimit="10" stroke-linecap="round" stroke-linejoin="round"/>
<path d="M160.988 163.041C105.617 173.239 28.2252 186.526 -26.2894 172.451C-37.1528 169.614 -48.4641 165.486 -55.5174 156.58C-62.5672 147.775 -63.1841 133.11 -54.1708 126.254" stroke="#000207" stroke-miterlimit="10" stroke-linecap="round" stroke-linejoin="round"/>
<path d="M12.1152 203.286C-25.0472 196.345 -63.314 195.178 -100.769 199.917C-120.498 202.422 -143.012 205.83 -158.151 192.984C-172.253 181.007 -174.757 158.461 -190.303 148.345C-198.951 142.715 -209.73 142.289 -219.941 140.838C-253.609 135.988 -285.205 118.591 -307.241 92.709" stroke="#000207" stroke-miterlimit="10" stroke-linecap="round" stroke-linejoin="round"/>
<path d="M423.312 236.593C382.209 237.739 361.816 218.539 346.117 206.92C318.126 186.177 277.257 185.402 238.067 200.865" stroke="#000207" stroke-miterlimit="10" stroke-linecap="round" stroke-linejoin="round"/>
<path d="M128.753 207.533C134.959 218.079 152.643 228.924 164.773 230.609C195.407 234.963 232.729 217.856 263.216 212.356C293.704 206.857 324.383 212.517 350.231 229.512" stroke="#000207" stroke-miterlimit="10" stroke-linecap="round" stroke-linejoin="round"/>
</svg>
