<svg width="548" height="539" viewBox="0 0 548 539" fill="none" xmlns="http://www.w3.org/2000/svg">
<path d="M402.715 424.748C438.294 429.139 475.419 406.302 487.604 372.652C491.156 362.724 492.741 351.522 488.922 341.675C485.103 331.828 474.796 324.04 464.367 325.686C486.375 319.343 503.289 298.237 504.668 275.371C506.046 252.505 491.821 229.513 470.734 220.556C449.647 211.598 423.221 217.333 407.731 234.207C412.101 215.281 392.889 197.249 373.497 196.275C354.104 195.301 336.168 206.412 321.355 218.974C326.701 210.295 324.343 197.747 316.208 191.614C308.073 185.48 295.346 186.664 288.489 194.186C302.382 163.546 283.98 123.96 252.98 111.043C221.981 98.126 183.725 110.095 162.018 135.758C162.807 112.895 138.336 88.9109 115.474 89.0942C92.6127 89.2774 74.2797 96.0843 60.2381 114.154C61.6271 117.561 46.5777 288.117 46.5777 288.117C46.5777 288.117 51.3627 288.357 57.342 303.061C64.4396 320.508 87.8903 332.994 103.848 322.693C100.134 328.994 98.3998 336.266 98.8689 343.565C99.3381 350.864 101.989 357.854 106.479 363.629C110.968 369.403 117.089 373.695 124.048 375.949C131.006 378.202 138.481 378.313 145.503 376.267C129.883 393.083 130.592 420.763 142.677 440.29C154.763 459.818 175.834 472.154 197.539 479.632C258.296 500.56 329.821 486.488 378.095 444.099" fill="#F3BEDA"/>
<path d="M46.0631 288.245C46.0394 288.193 46.0245 288.138 46.0191 288.081C51.1835 229.539 60.6955 117.986 59.7224 114.354C59.6892 114.275 59.678 114.188 59.6898 114.103C59.7016 114.018 59.736 113.938 59.7894 113.871C73.0232 96.8039 90.7177 88.8119 115.447 88.6045C126.686 88.5125 139.086 94.3002 148.585 104.096C157.392 113.124 162.416 124.108 162.504 134.406C185.492 108.151 223.342 98.1442 253.138 110.586C268.974 117.182 282.405 131.297 289.098 148.356C294.978 163.345 295.232 178.744 289.905 192.129C297.203 185.981 308.815 185.426 316.514 191.211C324.214 196.995 326.834 208.281 322.983 216.974C341.252 201.933 357.8 194.994 373.52 195.782C379.208 196.158 384.75 197.746 389.774 200.438C394.799 203.131 399.19 206.866 402.653 211.394C407.613 217.964 409.674 225.425 408.54 232.593C424.278 216.563 450.214 211.28 470.925 220.07C492.171 229.119 506.571 252.374 505.173 275.401C503.853 297.174 488.485 317.442 468.083 324.99C476.966 325.415 485.69 331.971 489.382 341.5C493.668 352.547 491.035 364.63 488.073 372.816C475.843 406.613 438.322 429.628 402.653 425.251C402.52 425.234 402.399 425.165 402.317 425.059C402.234 424.953 402.197 424.819 402.212 424.686C402.23 424.555 402.298 424.437 402.403 424.357C402.507 424.276 402.639 424.24 402.77 424.257C438.004 428.596 475.052 405.862 487.133 372.478C490.035 364.453 492.624 352.63 488.452 341.853C484.999 332.829 475.015 324.51 464.438 326.184C464.376 326.196 464.312 326.195 464.25 326.181C464.188 326.168 464.13 326.143 464.078 326.106C464.026 326.07 463.981 326.024 463.947 325.971C463.913 325.918 463.89 325.858 463.879 325.796C463.851 325.671 463.871 325.541 463.936 325.431C464.001 325.321 464.105 325.241 464.228 325.205C485.997 318.937 502.801 297.963 504.175 275.347C505.548 252.731 491.4 229.874 470.538 221.022C449.676 212.17 423.421 217.849 408.091 234.546C408.016 234.627 407.916 234.681 407.808 234.701C407.699 234.72 407.587 234.704 407.488 234.655C407.389 234.603 407.31 234.52 407.264 234.418C407.217 234.315 407.207 234.201 407.234 234.092C408.934 226.721 407.029 218.876 401.851 212.033C398.479 207.614 394.2 203.968 389.303 201.338C384.406 198.707 379.003 197.154 373.457 196.783C357.453 195.977 340.517 203.362 321.677 219.364C321.584 219.438 321.469 219.479 321.35 219.478C321.232 219.478 321.116 219.437 321.024 219.363C320.933 219.285 320.872 219.177 320.854 219.058C320.835 218.94 320.86 218.818 320.924 218.717C326.149 210.246 323.855 198.013 315.902 192.017C307.949 186.021 295.55 187.117 288.849 194.524C288.766 194.61 288.657 194.665 288.538 194.68C288.419 194.695 288.299 194.668 288.198 194.605C288.101 194.536 288.032 194.436 288.001 194.321C287.97 194.207 287.98 194.085 288.03 193.977C294.231 180.338 294.283 164.266 288.171 148.719C281.596 131.908 268.345 118.003 252.782 111.5C222.986 99.0574 184.926 109.4 162.394 136.081C162.328 136.162 162.238 136.219 162.138 136.246C162.038 136.273 161.931 136.268 161.834 136.231C161.738 136.192 161.657 136.125 161.6 136.038C161.544 135.952 161.515 135.85 161.518 135.747C161.827 125.311 156.915 114.049 147.901 104.786C138.558 95.1872 126.426 89.5138 115.448 89.5772C91.1317 89.7777 73.7457 97.6456 60.7253 114.272C61.5741 122.772 48.7483 268.632 47.0803 287.714C48.5192 288.177 52.7781 290.587 57.7753 302.862C61.7557 312.655 71.1377 321.126 81.6575 324.415C89.6731 326.936 97.4317 326.141 103.529 322.199C103.621 322.134 103.734 322.103 103.846 322.113C103.958 322.123 104.064 322.172 104.144 322.251C104.225 322.329 104.279 322.432 104.295 322.544C104.312 322.656 104.292 322.77 104.237 322.868C100.576 329.083 98.8658 336.253 99.3285 343.451C99.7913 350.649 102.405 357.541 106.832 363.236C111.259 368.93 117.294 373.163 124.155 375.387C131.016 377.611 138.387 377.723 145.312 375.708C145.416 375.675 145.528 375.678 145.63 375.716C145.732 375.755 145.819 375.826 145.876 375.919C145.936 376.011 145.963 376.121 145.953 376.231C145.943 376.341 145.896 376.444 145.821 376.524C131.437 392.004 130.253 419.269 143.05 439.942C153.502 456.811 172.399 470.383 197.651 479.084C227.383 489.317 260.123 491.384 292.339 485.04C324.555 478.695 354.089 464.353 377.716 443.652C377.765 443.607 377.821 443.573 377.883 443.55C377.945 443.528 378.011 443.518 378.077 443.522C378.142 443.526 378.207 443.543 378.266 443.572C378.325 443.601 378.377 443.641 378.42 443.691C378.464 443.741 378.497 443.798 378.518 443.861C378.539 443.923 378.547 443.989 378.543 444.055C378.538 444.12 378.521 444.184 378.491 444.243C378.462 444.302 378.421 444.355 378.372 444.398C354.611 465.258 324.925 479.652 292.542 486.031C260.16 492.409 227.22 490.334 197.328 480.04C171.848 471.266 152.788 457.583 142.21 440.477C129.521 419.973 130.368 393.077 143.987 377.098C137.081 378.764 129.843 378.408 123.135 376.071C116.427 373.734 110.533 369.515 106.158 363.919C101.783 358.323 99.1116 351.585 98.4624 344.512C97.8133 337.438 99.214 330.327 102.497 324.028C96.4179 327.303 89.0159 327.806 81.3855 325.409C70.5777 322.011 60.9416 313.287 56.8166 303.263C51.1184 289.261 46.528 288.628 46.4868 288.628C46.3869 288.612 46.294 288.567 46.2189 288.499C46.1438 288.431 46.0898 288.343 46.0631 288.245Z" fill="#000207"/>
<path d="M417.91 291.248C437.584 282.879 459.624 281.924 479.948 288.559C497.909 294.503 514.436 307.271 520.745 325.137C527.054 343.003 520.59 365.627 503.765 374.276" fill="#F3BEDA"/>
<path d="M417.427 291.378C417.398 291.263 417.41 291.14 417.463 291.033C417.516 290.925 417.606 290.841 417.716 290.794C437.511 282.373 459.687 281.407 480.139 288.075C500.015 294.676 515.376 308.46 521.218 324.97C527.979 344.061 520.241 366.374 503.998 374.722C503.94 374.753 503.876 374.772 503.81 374.778C503.744 374.784 503.678 374.777 503.615 374.758C503.552 374.738 503.493 374.706 503.443 374.663C503.392 374.621 503.351 374.569 503.32 374.51C503.26 374.391 503.25 374.252 503.291 374.125C503.333 373.997 503.423 373.892 503.542 373.83C519.356 365.7 526.856 343.927 520.273 325.306C514.54 309.087 499.403 295.523 479.797 289.078C459.589 282.491 437.68 283.442 418.118 291.753C417.994 291.803 417.856 291.804 417.732 291.754C417.608 291.704 417.509 291.607 417.456 291.485L417.427 291.378Z" fill="#000207"/>
<path d="M290.188 222.358C295.334 219 301.411 217.359 307.548 217.672C313.685 217.984 319.564 220.234 324.342 224.098C333.705 231.993 336.872 246.363 331.722 257.475" fill="#F3BEDA"/>
<path d="M289.705 222.482C289.68 222.383 289.685 222.278 289.721 222.182C289.756 222.086 289.819 222.002 289.902 221.943C295.137 218.52 301.323 216.847 307.57 217.163C313.816 217.48 319.801 219.771 324.663 223.706C334.181 231.757 337.413 246.368 332.182 257.678C332.126 257.798 332.025 257.892 331.9 257.938C331.776 257.984 331.638 257.978 331.518 257.923C331.458 257.895 331.404 257.856 331.36 257.808C331.315 257.76 331.28 257.703 331.257 257.641C331.211 257.517 331.217 257.379 331.272 257.259C333.793 251.756 334.443 245.579 333.123 239.672C331.803 233.765 328.584 228.453 323.96 224.547C319.336 220.642 313.561 218.358 307.516 218.044C301.471 217.731 295.49 219.405 290.487 222.811C290.378 222.887 290.244 222.916 290.113 222.893C289.983 222.87 289.867 222.795 289.791 222.687C289.748 222.626 289.718 222.556 289.705 222.482Z" fill="#000207"/>
<path d="M141.23 123.974C159.374 129.289 172.906 147.373 172.957 166.305C173.009 185.236 159.53 203.28 141.411 208.683" fill="#F3BEDA"/>
<path d="M140.928 208.812C140.894 208.687 140.91 208.555 140.973 208.441C141.035 208.328 141.139 208.243 141.262 208.205C159.084 202.891 172.493 184.856 172.469 166.259C172.445 147.661 158.944 129.693 141.11 124.451C141.046 124.432 140.987 124.402 140.935 124.36C140.884 124.319 140.841 124.268 140.809 124.21C140.777 124.153 140.757 124.089 140.75 124.024C140.743 123.958 140.748 123.892 140.767 123.828C140.785 123.765 140.816 123.706 140.857 123.654C140.898 123.603 140.949 123.56 141.007 123.528C141.065 123.496 141.128 123.476 141.194 123.469C141.259 123.461 141.326 123.467 141.389 123.485C159.638 128.845 173.427 147.233 173.473 166.259C173.519 185.285 159.794 203.726 141.569 209.158C141.507 209.178 141.441 209.184 141.376 209.178C141.311 209.172 141.248 209.153 141.191 209.122C141.133 209.091 141.083 209.049 141.042 208.998C141.001 208.948 140.97 208.889 140.952 208.826L140.928 208.812Z" fill="#000207"/>
<path d="M82.9485 227.692C111.739 217.141 147.295 230.876 161.528 258.028C175.76 285.18 166.807 322.24 141.763 339.934" fill="#F3BEDA"/>
<path d="M82.4655 227.824C82.4325 227.703 82.4467 227.573 82.5051 227.461C82.5634 227.35 82.6618 227.264 82.7805 227.222C96.8189 222.084 112.83 222.452 127.875 228.256C142.919 234.06 155.021 244.566 161.972 257.798C168.924 271.029 170.647 286.966 166.855 302.642C163.063 318.317 154.258 331.703 142.049 340.347C141.94 340.418 141.808 340.444 141.68 340.42C141.552 340.395 141.439 340.322 141.364 340.215C141.29 340.108 141.26 339.976 141.281 339.848C141.302 339.72 141.373 339.604 141.477 339.527C153.492 331.048 162.171 317.884 165.889 302.435C169.607 286.986 167.905 271.323 161.09 258.293C154.276 245.262 142.347 234.938 127.522 229.22C112.697 223.502 96.9045 223.137 83.134 228.194C83.0719 228.216 83.0061 228.226 82.9402 228.222C82.8744 228.219 82.8098 228.203 82.7503 228.175C82.6907 228.146 82.6374 228.107 82.5933 228.058C82.5492 228.009 82.5152 227.951 82.4933 227.889L82.4655 227.824Z" fill="#000207"/>
<path d="M184.883 206.915C178.952 224.302 185.466 245.178 200.236 256.097C215.005 267.016 236.873 267.141 251.762 256.37" fill="#F3BEDA"/>
<path d="M183.748 232.276C181.434 223.881 181.664 214.988 184.407 206.724C184.45 206.599 184.54 206.496 184.658 206.438C184.776 206.379 184.912 206.369 185.037 206.41C185.163 206.454 185.267 206.546 185.326 206.666C185.385 206.785 185.395 206.923 185.354 207.05C179.45 224.348 185.829 244.794 200.525 255.671C215.221 266.548 236.611 266.707 251.462 255.946C251.515 255.907 251.576 255.879 251.64 255.863C251.704 255.848 251.771 255.845 251.836 255.855C251.902 255.866 251.965 255.889 252.021 255.924C252.077 255.959 252.126 256.005 252.165 256.058C252.24 256.166 252.271 256.299 252.25 256.428C252.228 256.558 252.156 256.674 252.05 256.752C236.892 267.718 214.974 267.597 199.932 256.471C191.972 250.453 186.272 241.93 183.748 232.276Z" fill="#000207"/>
<path d="M165.57 310.328C172.953 313.206 179.569 317.753 184.901 323.614C190.232 329.475 194.135 336.491 196.304 344.112C198.472 351.733 198.847 359.752 197.399 367.542C195.952 375.332 192.72 382.682 187.959 389.015" fill="#F3BEDA"/>
<path d="M165.087 310.459C165.059 310.358 165.066 310.25 165.109 310.153C165.133 310.092 165.168 310.036 165.213 309.988C165.259 309.94 165.313 309.902 165.373 309.875C165.433 309.848 165.498 309.834 165.564 309.832C165.63 309.831 165.695 309.842 165.757 309.866C173.204 312.774 179.878 317.366 185.257 323.282C190.635 329.198 194.572 336.278 196.76 343.968C198.948 351.659 199.327 359.751 197.869 367.612C196.41 375.473 193.153 382.891 188.351 389.284C188.269 389.378 188.154 389.437 188.029 389.451C187.904 389.464 187.779 389.43 187.679 389.355C187.578 389.281 187.509 389.171 187.485 389.048C187.462 388.925 187.485 388.798 187.551 388.691C192.266 382.42 195.466 375.143 196.9 367.43C198.334 359.716 197.963 351.775 195.817 344.229C193.67 336.682 189.806 329.735 184.528 323.931C179.249 318.127 172.698 313.623 165.389 310.772C165.318 310.747 165.254 310.705 165.201 310.651C165.149 310.597 165.11 310.531 165.087 310.459Z" fill="#000207"/>
<path d="M212.771 262.079C212.898 274.685 215.177 287.44 220.899 298.672C226.621 309.903 236.019 319.519 247.75 324.119C259.48 328.72 273.59 327.828 283.876 320.547" fill="#F3BEDA"/>
<path d="M215.248 285.194C213.29 277.644 212.29 269.877 212.273 262.076C212.272 262.009 212.284 261.941 212.309 261.878C212.334 261.815 212.371 261.758 212.418 261.709C212.465 261.661 212.521 261.622 212.583 261.595C212.645 261.568 212.712 261.553 212.78 261.552C212.848 261.551 212.915 261.563 212.978 261.588C213.041 261.613 213.098 261.65 213.147 261.697C213.196 261.744 213.234 261.8 213.261 261.862C213.288 261.925 213.303 261.991 213.304 262.059C213.433 275.949 216.169 288.208 221.372 298.43C227.367 310.179 237.055 319.364 247.965 323.647C260.135 328.419 273.803 327.076 283.61 320.131C283.721 320.057 283.855 320.029 283.987 320.051C284.118 320.074 284.236 320.146 284.315 320.253C284.391 320.362 284.42 320.496 284.397 320.626C284.374 320.757 284.3 320.873 284.191 320.949C274.104 328.083 260.087 329.478 247.585 324.546C236.458 320.187 226.575 310.815 220.472 298.858C218.258 294.498 216.507 289.919 215.248 285.194Z" fill="#000207"/>
<path d="M334.486 243.252C347.23 244.642 358.169 255.987 359.085 268.755C359.592 275.866 357.357 282.863 355.147 289.646" fill="#F3BEDA"/>
<path d="M334.003 243.379C333.978 243.324 333.963 243.265 333.956 243.205C333.963 243.139 333.982 243.075 334.014 243.017C334.045 242.958 334.088 242.907 334.139 242.865C334.191 242.824 334.25 242.792 334.313 242.774C334.377 242.755 334.443 242.749 334.509 242.757C347.391 244.16 358.632 255.818 359.56 268.749C360.081 276.063 357.7 283.368 355.599 289.822C355.583 289.89 355.553 289.953 355.512 290.009C355.47 290.064 355.417 290.11 355.356 290.144C355.295 290.178 355.228 290.199 355.159 290.205C355.089 290.212 355.02 290.204 354.954 290.182C354.888 290.16 354.827 290.124 354.776 290.077C354.724 290.03 354.683 289.973 354.655 289.909C354.627 289.846 354.612 289.777 354.612 289.707C354.612 289.638 354.627 289.569 354.655 289.505C356.722 283.154 359.064 275.901 358.556 268.79C357.66 256.327 346.82 245.08 334.394 243.719C334.303 243.706 334.218 243.667 334.149 243.606C334.079 243.546 334.029 243.467 334.003 243.379Z" fill="#000207"/>
<path d="M392.202 296.417C397.041 292.902 402.757 290.794 408.718 290.324C414.664 290.026 420.843 291.993 424.961 296.273C429.079 300.553 430.81 307.243 428.547 312.746" fill="#F3BEDA"/>
<path d="M391.717 296.535C391.69 296.435 391.695 296.33 391.73 296.234C391.765 296.137 391.83 296.054 391.914 295.995C396.837 292.437 402.643 290.301 408.698 289.821C411.742 289.614 414.797 290.05 417.661 291.102C420.526 292.154 423.137 293.797 425.324 295.925C429.729 300.501 431.251 307.496 429.011 312.931C428.961 313.054 428.863 313.152 428.74 313.204C428.617 313.255 428.478 313.256 428.355 313.205C428.231 313.154 428.133 313.057 428.082 312.934C428.03 312.81 428.03 312.672 428.081 312.549C430.176 307.463 428.741 300.911 424.608 296.614C420.809 292.673 414.878 290.515 408.749 290.822C402.878 291.284 397.25 293.361 392.488 296.825C392.377 296.898 392.242 296.925 392.112 296.9C391.981 296.875 391.866 296.8 391.79 296.691C391.756 296.644 391.731 296.591 391.717 296.535Z" fill="#000207"/>
<path d="M392.727 237.216C395.482 236.181 398.441 235.803 401.368 236.111C404.295 236.418 407.11 237.404 409.589 238.989C412.069 240.575 414.145 242.716 415.653 245.244C417.161 247.771 418.058 250.615 418.275 253.55" fill="#F3BEDA"/>
<path d="M392.273 237.335C392.245 237.213 392.261 237.086 392.319 236.975C392.377 236.865 392.472 236.778 392.588 236.733C395.418 235.667 398.457 235.277 401.465 235.592C404.472 235.908 407.364 236.92 409.911 238.549C412.459 240.179 414.591 242.38 416.138 244.977C417.686 247.575 418.606 250.498 418.826 253.514C418.836 253.648 418.792 253.781 418.703 253.884C418.615 253.986 418.49 254.049 418.356 254.059C418.221 254.069 418.088 254.025 417.986 253.937C417.883 253.849 417.82 253.724 417.81 253.589C417.601 250.73 416.728 247.96 415.261 245.498C413.794 243.036 411.772 240.95 409.358 239.406C406.943 237.862 404.201 236.902 401.351 236.604C398.5 236.305 395.619 236.675 392.937 237.685C392.875 237.708 392.81 237.719 392.745 237.717C392.679 237.715 392.615 237.7 392.555 237.672C392.496 237.645 392.442 237.606 392.398 237.557C392.354 237.509 392.32 237.452 392.299 237.39L392.273 237.335Z" fill="#000207"/>
<path d="M277.463 185.028C279.978 185.267 282.36 186.268 284.291 187.897C286.222 189.526 287.61 191.706 288.269 194.145C288.928 196.584 288.827 199.166 287.98 201.545C287.132 203.925 285.579 205.99 283.526 207.463" fill="#F3BEDA"/>
<path d="M276.98 185.158L276.934 184.984C276.94 184.918 276.96 184.854 276.991 184.795C277.022 184.737 277.065 184.686 277.116 184.644C277.168 184.602 277.227 184.571 277.29 184.552C277.354 184.534 277.421 184.528 277.486 184.535C280.085 184.836 282.536 185.896 284.535 187.583C286.534 189.27 287.991 191.509 288.724 194.02C289.348 196.557 289.212 199.221 288.335 201.681C287.457 204.141 285.876 206.29 283.788 207.859C283.679 207.936 283.545 207.967 283.414 207.946C283.282 207.925 283.164 207.854 283.085 207.747C283.011 207.638 282.981 207.504 283.002 207.374C283.022 207.243 283.092 207.125 283.197 207.044C285.126 205.599 286.587 203.618 287.399 201.348C288.21 199.078 288.335 196.619 287.758 194.279C287.081 191.964 285.737 189.899 283.893 188.344C282.049 186.788 279.788 185.811 277.392 185.534C277.294 185.517 277.204 185.472 277.131 185.405C277.058 185.339 277.006 185.253 276.98 185.158Z" fill="#000207"/>
<path d="M246.269 323.769C243.515 328.394 241.972 333.639 241.784 339.019C241.595 344.399 242.767 349.739 245.19 354.546C247.614 359.352 251.21 363.47 255.648 366.518C260.085 369.565 265.219 371.444 270.575 371.981" fill="#F3BEDA"/>
<path d="M242.454 348.864C241.319 344.624 241.033 340.202 241.614 335.851C242.195 331.501 243.63 327.308 245.838 323.515C245.871 323.457 245.914 323.407 245.967 323.367C246.019 323.326 246.079 323.297 246.142 323.28C246.206 323.263 246.273 323.258 246.338 323.267C246.404 323.276 246.467 323.298 246.524 323.331C246.637 323.399 246.72 323.508 246.754 323.637C246.789 323.765 246.772 323.901 246.707 324.017C243.99 328.564 242.465 333.725 242.274 339.02C242.084 344.314 243.234 349.571 245.618 354.302C248.002 359.033 251.543 363.086 255.912 366.083C260.28 369.08 265.335 370.925 270.608 371.447C270.741 371.46 270.864 371.525 270.949 371.628C271.035 371.731 271.077 371.864 271.066 371.997C271.048 372.128 270.981 372.247 270.878 372.331C270.775 372.414 270.645 372.455 270.513 372.445C265.087 371.848 259.893 369.921 255.39 366.835C250.888 363.748 247.217 359.598 244.704 354.752C243.757 352.871 243.003 350.898 242.454 348.864Z" fill="#000207"/>
<path d="M228.328 265.933C229.077 268.395 230.435 270.628 232.277 272.425C234.119 274.221 236.385 275.523 238.865 276.21C241.345 276.896 243.958 276.945 246.462 276.351C248.965 275.758 251.279 274.541 253.186 272.814" fill="#F3BEDA"/>
<path d="M227.845 266.058C227.811 265.93 227.829 265.794 227.895 265.679C227.962 265.564 228.071 265.48 228.199 265.446C228.327 265.411 228.464 265.429 228.578 265.496C228.693 265.562 228.777 265.671 228.811 265.799C229.535 268.18 230.849 270.339 232.631 272.077C234.412 273.814 236.604 275.073 239.002 275.737C241.401 276.401 243.928 276.448 246.349 275.874C248.771 275.3 251.008 274.123 252.853 272.454C252.951 272.364 253.081 272.317 253.213 272.324C253.346 272.33 253.471 272.388 253.56 272.487C253.65 272.585 253.697 272.715 253.691 272.847C253.684 272.98 253.626 273.105 253.527 273.194C251.559 274.987 249.168 276.252 246.579 276.871C243.99 277.491 241.286 277.445 238.719 276.737C236.152 276.03 233.806 274.684 231.9 272.825C229.994 270.966 228.589 268.655 227.817 266.107L227.845 266.058Z" fill="#000207"/>
<path d="M157.875 249.538C161.157 248.933 164.542 249.217 167.678 250.361C170.814 251.504 173.588 253.465 175.711 256.041C177.834 258.617 179.23 261.714 179.753 265.01C180.277 268.307 179.91 271.684 178.69 274.791" fill="#F3BEDA"/>
<path d="M157.392 249.664C157.37 249.533 157.4 249.399 157.475 249.29C157.55 249.181 157.664 249.106 157.794 249.08C161.165 248.459 164.641 248.751 167.861 249.925C171.082 251.099 173.929 253.114 176.109 255.759C178.289 258.404 179.722 261.584 180.259 264.97C180.796 268.355 180.418 271.822 179.164 275.013C179.14 275.073 179.104 275.129 179.058 275.176C179.012 275.223 178.957 275.26 178.897 275.286C178.836 275.312 178.771 275.325 178.706 275.326C178.64 275.327 178.575 275.315 178.514 275.29C178.453 275.268 178.397 275.233 178.349 275.188C178.302 275.143 178.264 275.089 178.239 275.029C178.213 274.969 178.2 274.905 178.2 274.839C178.2 274.774 178.213 274.71 178.239 274.65C179.427 271.624 179.784 268.336 179.275 265.126C178.765 261.916 177.406 258.901 175.339 256.393C173.272 253.885 170.572 251.975 167.519 250.86C164.465 249.746 161.17 249.469 157.973 250.057C157.844 250.081 157.711 250.053 157.602 249.98C157.493 249.906 157.418 249.793 157.392 249.664Z" fill="#000207"/>
<path d="M160.948 135.745C163.459 134.506 166.298 134.091 169.059 134.56C171.82 135.028 174.363 136.357 176.324 138.355C178.286 140.354 179.567 142.921 179.984 145.69C180.401 148.46 179.934 151.29 178.648 153.778" fill="#F3BEDA"/>
<path d="M160.465 135.874C160.437 135.761 160.448 135.642 160.497 135.537C160.546 135.432 160.63 135.346 160.734 135.295C163.338 134.016 166.279 133.591 169.138 134.08C171.997 134.568 174.63 135.945 176.662 138.015C178.695 140.085 180.023 142.743 180.458 145.611C180.894 148.479 180.414 151.411 179.088 153.991C179.056 154.048 179.013 154.098 178.962 154.138C178.91 154.178 178.851 154.207 178.788 154.224C178.725 154.241 178.66 154.245 178.595 154.236C178.53 154.227 178.468 154.206 178.412 154.172C178.355 154.14 178.305 154.096 178.264 154.044C178.224 153.991 178.195 153.932 178.177 153.868C178.16 153.804 178.156 153.738 178.165 153.672C178.174 153.607 178.195 153.544 178.228 153.487C179.465 151.09 179.913 148.363 179.508 145.696C179.103 143.03 177.866 140.559 175.974 138.637C174.081 136.715 171.63 135.44 168.97 134.994C166.31 134.548 163.577 134.954 161.161 136.153C161.102 136.183 161.038 136.2 160.972 136.205C160.907 136.21 160.841 136.201 160.779 136.18C160.717 136.16 160.659 136.127 160.609 136.084C160.56 136.041 160.519 135.988 160.49 135.929L160.465 135.874Z" fill="#000207"/>
<path d="M452.463 284.233C453.463 281.436 455.084 278.902 457.204 276.821C459.324 274.74 461.888 273.166 464.703 272.218C467.518 271.269 470.511 270.97 473.458 271.344C476.405 271.718 479.229 272.754 481.718 274.375" fill="#F3BEDA"/>
<path d="M452.028 284.353C452.002 284.252 452.006 284.147 452.04 284.049C453.093 281.197 454.764 278.613 456.934 276.483C459.104 274.353 461.718 272.731 464.59 271.731C467.485 270.793 470.552 270.509 473.57 270.897C476.589 271.286 479.483 272.339 482.046 273.98C482.104 274.013 482.154 274.056 482.194 274.109C482.234 274.161 482.264 274.221 482.281 274.284C482.298 274.348 482.302 274.415 482.294 274.48C482.285 274.546 482.263 274.609 482.23 274.666C482.197 274.723 482.154 274.773 482.101 274.813C482.049 274.854 481.989 274.883 481.925 274.9C481.862 274.917 481.795 274.922 481.73 274.913C481.664 274.904 481.601 274.883 481.544 274.849C479.103 273.279 476.343 272.27 473.464 271.895C470.585 271.521 467.659 271.79 464.897 272.684C462.168 273.635 459.684 275.177 457.622 277.201C455.56 279.225 453.971 281.68 452.97 284.39C452.934 284.49 452.867 284.575 452.779 284.634C452.692 284.694 452.587 284.723 452.481 284.72C452.376 284.716 452.274 284.678 452.191 284.613C452.107 284.547 452.047 284.457 452.018 284.355L452.028 284.353Z" fill="#000207"/>
<path d="M306.651 325.982C307.272 334.098 309.415 342.251 313.788 349.144C318.161 356.037 324.935 361.572 332.861 363.528C340.787 365.483 349.785 363.517 355.521 357.725" fill="#F3BEDA"/>
<path d="M307.964 336.873C307.027 333.32 306.421 329.687 306.154 326.022C306.144 325.891 306.186 325.76 306.272 325.66C306.357 325.559 306.479 325.497 306.611 325.486C306.744 325.478 306.874 325.522 306.975 325.609C307.076 325.696 307.139 325.819 307.15 325.952C307.843 334.877 310.222 342.594 314.221 348.904C318.795 356.085 325.626 361.253 332.987 363.07C341.064 365.047 349.781 362.845 355.174 357.394C355.219 357.347 355.274 357.309 355.334 357.283C355.395 357.257 355.459 357.244 355.525 357.244C355.591 357.244 355.656 357.257 355.716 357.282C355.777 357.307 355.831 357.345 355.877 357.392C355.971 357.486 356.024 357.614 356.025 357.747C356.026 357.881 355.974 358.009 355.882 358.105C350.243 363.757 341.167 366.127 332.741 364.046C325.144 362.158 318.085 356.834 313.381 349.44C310.943 345.553 309.116 341.314 307.964 336.873Z" fill="#000207"/>
<path d="M344.637 332.023C345.237 340.445 350.951 348.169 358.617 351.706C362.499 353.395 366.714 354.178 370.943 353.995C375.172 353.813 379.305 352.669 383.026 350.652C390.481 346.483 396.029 339.586 398.503 331.411" fill="#F3BEDA"/>
<path d="M344.817 336.092C344.462 334.77 344.234 333.416 344.137 332.05C344.127 331.916 344.171 331.783 344.259 331.68C344.348 331.578 344.473 331.515 344.607 331.505C344.742 331.495 344.875 331.539 344.977 331.627C345.079 331.715 345.143 331.84 345.153 331.975C345.726 339.99 351.227 347.73 358.845 351.238C362.653 352.898 366.788 353.673 370.939 353.504C375.09 353.335 379.148 352.227 382.809 350.262C390.159 346.164 395.622 339.364 398.041 331.304C398.058 331.238 398.089 331.177 398.13 331.123C398.172 331.069 398.224 331.025 398.284 330.992C398.343 330.96 398.409 330.939 398.476 330.933C398.544 330.926 398.612 330.934 398.677 330.954C398.741 330.975 398.801 331.009 398.852 331.053C398.904 331.098 398.945 331.152 398.975 331.213C399.004 331.274 399.021 331.341 399.024 331.409C399.027 331.477 399.016 331.544 398.992 331.608C396.498 339.916 390.862 346.923 383.282 351.139C379.488 353.185 375.279 354.343 370.972 354.527C366.666 354.711 362.374 353.915 358.419 352.201C355.126 350.653 352.205 348.413 349.858 345.633C347.51 342.853 345.791 339.598 344.817 336.092Z" fill="#000207"/>
<path d="M77.7908 117.919C86.1087 116.777 94.759 119.967 100.923 125.624C107.029 131.495 110.976 139.254 112.124 147.646C113.075 153.975 112.57 160.705 109.486 166.315C106.403 171.924 100.449 176.169 94.0513 176.093" fill="#F3BEDA"/>
<path d="M77.3078 118.052L77.2923 117.995C77.2824 117.929 77.2858 117.863 77.3022 117.799C77.3186 117.735 77.3478 117.675 77.3879 117.623C77.428 117.571 77.4782 117.527 77.5356 117.495C77.593 117.462 77.6564 117.442 77.7219 117.434C85.911 116.275 94.7079 119.239 101.249 125.262C107.449 131.2 111.451 139.066 112.601 147.574C113.363 152.619 113.518 160 109.915 166.566C106.526 172.733 100.295 176.681 94.0429 176.606C93.9748 176.606 93.9075 176.593 93.8447 176.566C93.782 176.54 93.7249 176.502 93.6769 176.454C93.6289 176.406 93.5909 176.349 93.565 176.286C93.5391 176.223 93.5258 176.155 93.526 176.087C93.5261 176.019 93.5396 175.952 93.5658 175.889C93.5919 175.826 93.6302 175.769 93.6783 175.721C93.7265 175.673 93.7837 175.635 93.8466 175.61C93.9095 175.584 93.9768 175.57 94.0449 175.57C99.9358 175.648 105.818 171.909 109.033 166.057C112.514 159.73 112.348 152.58 111.609 147.695C110.495 139.411 106.599 131.752 100.56 125.974C97.5533 123.129 93.9598 120.976 90.0322 119.668C86.1045 118.36 81.9381 117.927 77.8254 118.4C77.7128 118.408 77.6009 118.378 77.5072 118.315C77.4136 118.252 77.3434 118.16 77.3078 118.052Z" fill="#000207"/>
<path d="M117.681 225.871C120.711 223.49 122.982 220.276 124.213 216.624C125.445 212.972 125.584 209.04 124.614 205.309C123.644 201.579 121.607 198.213 118.753 195.623C115.898 193.033 112.35 191.332 108.544 190.729" fill="#F3BEDA"/>
<path d="M117.198 226.006C117.173 225.911 117.176 225.81 117.208 225.716C117.24 225.623 117.3 225.541 117.378 225.481C120.281 223.119 122.457 219.983 123.653 216.436C124.85 212.89 125.019 209.077 124.141 205.438L124.099 205.284C123.077 201.705 121.068 198.487 118.303 195.997C115.537 193.507 112.127 191.845 108.462 191.201C108.332 191.177 108.217 191.104 108.141 190.998C108.064 190.891 108.031 190.759 108.049 190.628C108.059 190.563 108.081 190.5 108.115 190.444C108.149 190.387 108.194 190.338 108.247 190.299C108.3 190.259 108.36 190.231 108.424 190.215C108.488 190.199 108.554 190.196 108.62 190.206C112.475 190.885 116.061 192.635 118.969 195.255C121.877 197.876 123.99 201.261 125.065 205.025L125.102 205.16C126.026 208.987 125.848 212.998 124.588 216.728C123.329 220.458 121.04 223.756 117.985 226.24C117.933 226.281 117.873 226.312 117.809 226.329C117.745 226.347 117.678 226.352 117.612 226.343C117.547 226.335 117.483 226.314 117.426 226.281C117.368 226.247 117.318 226.203 117.278 226.15C117.242 226.108 117.215 226.059 117.198 226.006Z" fill="#000207"/>
<g style="mix-blend-mode:multiply">
<g style="mix-blend-mode:multiply">
<path d="M86.2177 226.645C85.2542 242.391 87.8045 258.153 93.6839 272.791C99.5632 287.429 108.624 300.577 120.211 311.281C126.018 316.568 132.696 321.322 140.394 322.852C148.092 324.381 156.988 321.998 161.359 315.474C158.038 330.32 159.651 346.887 168.69 359.062C177.729 371.237 195.182 377.762 209.067 371.547C222.951 365.332 229.322 345.176 219.499 333.552C225.172 336.256 231.816 329.952 231.851 323.669C231.886 317.385 227.753 311.929 223.616 307.189C219.478 302.448 214.965 297.508 213.975 291.302C220.111 305.445 231.394 316.726 245.538 322.859C241.952 326.853 239.809 331.934 239.451 337.29C239.093 342.646 240.541 347.968 243.564 352.404C246.586 356.84 251.008 360.135 256.124 361.762C261.239 363.389 266.752 363.254 271.782 361.379C286.052 356.178 292.053 339.124 292.814 323.96C295.116 329.151 303.523 329.963 306.78 325.312C306.165 334.608 313.273 343.749 322.4 345.548C331.526 347.348 341.537 341.549 344.53 332.744C358.114 349.903 384.067 355.849 403.771 346.314C406.312 374.807 407.414 404.887 394.728 430.524C382.309 455.655 357.482 473.426 330.431 480.809C303.38 488.192 274.353 485.917 247.409 478.208C228.658 472.828 210.261 464.599 196.193 451.079C188.059 443.321 181.829 433.786 177.992 423.221C174.387 412.974 166.335 405.1 156.492 400.511C154.132 399.433 152.07 397.797 150.483 395.744C149.513 394.458 148.749 393.028 148.219 391.506C144.956 382.224 136.525 375.911 126.848 374.145C120.806 373.112 115.273 370.115 111.105 365.62C99.5857 353.539 95.9351 326.43 109.68 316.991C96.4439 328.561 73.8966 322.77 63.6046 308.507C53.3126 294.245 53.1051 274.848 57.5514 257.827C61.3935 243.111 67.3354 232.523 81.9749 228.507" fill="#F3BEDA"/>
</g>
</g>
<g style="mix-blend-mode:multiply">
<g style="mix-blend-mode:multiply">
<path d="M178.36 154.404C183.784 153.312 189.416 154.012 194.407 156.401C199.398 158.789 203.477 162.735 206.03 167.644C208.354 172.668 208.981 178.312 207.816 183.724C206.652 189.136 203.76 194.022 199.575 197.647C202.244 200.385 203.864 203.975 204.152 207.788C204.44 211.601 203.378 215.394 201.151 218.502C198.924 221.611 195.675 223.837 191.972 224.791C188.269 225.744 184.348 225.365 180.897 223.719C182.079 227.386 182.129 231.324 181.042 235.02C179.955 238.716 177.781 241.999 174.802 244.442C171.824 246.886 168.179 248.376 164.342 248.719C160.504 249.062 156.653 248.243 153.288 246.367C159.321 243.963 161.654 236.133 159.945 229.872C158.237 223.611 153.559 218.632 148.86 214.155C169.308 196.387 177.492 165.807 168.676 140.207C173.275 143.32 177.115 147.429 179.91 152.229" fill="#F3BEDA"/>
</g>
</g>
<g style="mix-blend-mode:multiply">
<g style="mix-blend-mode:multiply">
<path d="M320.159 220.54C324.216 222.895 327.603 226.248 329.997 230.282C332.392 234.316 333.714 238.895 333.839 243.584C339.09 244.698 343.968 247.137 348.01 250.669C352.052 254.201 355.122 258.709 356.929 263.764C358.735 268.818 359.218 274.251 358.332 279.545C357.445 284.838 355.219 289.817 351.864 294.007C360.321 293.077 368.561 301.149 367.808 309.623C373.661 303.261 379.705 296.569 382.022 288.214C384.339 279.86 381.67 269.477 373.816 265.856C378.207 257.671 382.649 249.327 384.334 240.2C386.019 231.073 384.484 220.862 378.16 214.068C371.204 206.614 359.806 204.761 349.817 206.816C339.829 208.871 330.896 214.246 322.165 219.526" fill="#F3BEDA"/>
</g>
</g>
<g style="mix-blend-mode:multiply">
<g style="mix-blend-mode:multiply">
<path d="M418.494 289.175C421.342 279.788 423.489 270.879 431.89 265.76C434.877 263.925 438.256 262.471 441.751 262.611C445.246 262.751 448.852 264.849 449.841 268.228C454.918 257.851 469.104 253.149 479.318 258.466C489.533 263.784 493.967 278.052 488.454 288.195C490.312 282.686 487.687 276.174 482.801 273.01C477.916 269.847 471.274 269.981 466.182 272.805C463.674 274.29 461.502 276.28 459.802 278.647C458.102 281.015 456.911 283.709 456.305 286.56C442.265 283.499 432.408 285.851 418.781 290.403" fill="#F3BEDA"/>
</g>
</g>
<g style="mix-blend-mode:multiply">
<g style="mix-blend-mode:multiply">
<path d="M244.429 206.164C247.747 205.237 251.273 205.365 254.515 206.532C257.757 207.699 260.555 209.847 262.521 212.677C264.487 215.506 265.523 218.878 265.485 222.324C265.447 225.769 264.338 229.117 262.31 231.904C269.321 233.224 273.536 241.267 272.646 248.338C271.756 255.41 267.003 261.435 261.637 266.134C262.594 263.532 262.881 260.73 262.47 257.988C262.06 255.246 260.966 252.651 259.29 250.442C257.613 248.234 255.407 246.483 252.876 245.351C250.345 244.219 247.569 243.742 244.805 243.965C246.992 242.226 248.525 239.797 249.155 237.075C249.785 234.353 249.475 231.498 248.276 228.975C247.076 226.451 245.058 224.408 242.549 223.178C240.04 221.949 237.189 221.604 234.46 222.201C237.15 220.923 239.306 218.742 240.552 216.037C241.799 213.333 242.057 210.276 241.282 207.401" fill="#F3BEDA"/>
</g>
</g>
<g style="mix-blend-mode:multiply">
<g style="mix-blend-mode:multiply">
<path d="M93.1571 100.159C99.1541 101.627 104.693 104.561 109.276 108.698C113.859 112.835 117.343 118.045 119.416 123.861C121.373 129.717 121.845 135.968 120.788 142.052C119.731 148.136 117.179 153.862 113.361 158.716C118.322 162.2 123.382 165.783 126.923 170.694C130.465 175.604 132.385 182.15 130.273 187.831C127.906 194.221 121.011 198.046 114.235 198.722C107.46 199.399 100.713 197.48 94.2116 195.433C99.8715 201.101 99.3199 211.136 94.3068 217.386C89.2938 223.637 80.9579 226.45 72.9628 226.594C64.9677 226.738 58.0022 259.394 50.2884 257.227C51.0084 256.05 63.1141 118.862 62.5857 114.418C71.6425 106.297 70.849 103.683 82.4202 97.9532" fill="#F3BEDA"/>
</g>
</g>
<path d="M193.238 123.725C192.776 122.813 197.375 119.614 204.389 117.237C219.74 112.224 236.362 112.744 251.37 118.708C258.229 121.508 262.638 124.944 262.094 125.887C261.549 126.83 256.576 124.922 249.871 123.158C235.42 119.211 220.242 118.737 205.574 121.775C198.807 123.143 193.741 124.791 193.238 123.725Z" fill="#FFD6E5"/>
<path d="M269.069 134.459C269.854 133.72 273.038 135.983 275.998 140.19C279.142 144.794 281.295 150.001 282.322 155.48C283.348 160.96 283.225 166.593 281.96 172.022C280.712 177.025 278.553 180.285 277.541 179.873C276.53 179.461 277.079 175.908 277.315 171.3C277.958 161.411 276.112 151.52 271.945 142.529C270.063 138.323 268.191 135.242 269.069 134.459Z" fill="#FFD6E5"/>
<path d="M369.845 202.587C369.836 202.051 370.657 201.521 372.116 201.285C374.072 201.026 376.061 201.166 377.961 201.696C380.436 202.355 382.782 203.428 384.899 204.869C387.014 206.294 388.912 208.017 390.535 209.984C392.117 211.933 393.457 214.066 394.525 216.338C395.571 218.568 396.358 220.91 396.872 223.318C397.795 227.73 397.498 231.102 396.397 231.283C395.296 231.464 394.079 228.467 392.392 224.757C391.555 222.911 390.565 220.877 389.463 218.968C388.415 217.151 387.225 215.421 385.903 213.793C384.593 212.212 383.133 210.763 381.544 209.464C379.93 208.167 378.188 207.038 376.345 206.094C372.946 204.344 369.897 203.784 369.845 202.587Z" fill="#FFD6E5"/>
<path d="M418.01 238.649C417.82 238.441 417.917 238.032 418.245 237.437C418.725 236.629 419.31 235.888 419.983 235.232C422.224 232.978 424.786 231.067 427.584 229.561C431.242 227.576 435.171 226.136 439.246 225.288C447.475 223.534 456.038 224.247 463.865 227.336C467.748 228.851 471.386 230.932 474.661 233.512C477.182 235.444 479.399 237.743 481.24 240.331C481.792 241.092 482.244 241.921 482.584 242.797C482.818 243.439 482.866 243.85 482.608 244.044C481.676 244.78 477.931 240.887 471.98 237.377C468.807 235.465 465.434 233.904 461.922 232.722C454.953 230.364 447.512 229.749 440.25 230.93C436.589 231.513 433.001 232.492 429.551 233.848C423.143 236.321 418.806 239.533 418.01 238.649Z" fill="#FFD6E5"/>
<path d="M395.944 301.259C395.65 300.779 396.037 299.981 396.972 299.027C398.251 297.784 399.725 296.76 401.335 295.994C403.51 294.895 405.877 294.229 408.305 294.033C410.886 293.824 413.48 294.233 415.872 295.226C417.074 295.736 418.195 296.419 419.2 297.253C420.24 298.128 421.151 299.146 421.905 300.276C422.587 301.321 423.174 302.425 423.658 303.575C423.888 304.124 424.088 304.64 424.272 305.17C424.452 305.726 424.603 306.29 424.725 306.861C424.996 307.93 425.11 309.033 425.064 310.135C425.029 311.095 424.775 312.035 424.319 312.881C424.024 313.48 423.546 313.971 422.955 314.282C422.492 314.406 422.193 314.413 421.986 314.22C421.574 313.803 421.75 313.031 421.59 312.121C421.364 310.835 420.927 309.595 420.296 308.451C420.103 308.079 419.885 307.692 419.655 307.298L418.892 306.032C418.391 305.216 417.836 304.434 417.229 303.693C416.224 302.41 414.91 301.401 413.411 300.761C411.832 300.111 410.145 299.766 408.438 299.744C406.575 299.733 404.718 299.956 402.911 300.407C399.412 301.22 396.541 302.248 395.944 301.259Z" fill="#FFD6E5"/>
<path d="M430.931 296.991C430.35 296.06 432.198 293.991 435.315 292.255C438.755 290.435 442.524 289.319 446.401 288.974C450.278 288.628 454.185 289.06 457.893 290.243C461.309 291.398 463.448 293.124 463.077 294.134C462.706 295.145 460.197 294.978 457.051 294.827C453.707 294.626 450.354 294.66 447.015 294.928C443.678 295.246 440.367 295.804 437.11 296.599C433.979 297.355 431.547 298.017 430.931 296.991Z" fill="#FFD6E5"/>
<path d="M282.258 231.973C282.133 230.889 286.973 229.519 293.623 229.881C297.322 230.039 300.968 230.812 304.412 232.166C306.267 232.916 308.015 233.906 309.612 235.111C311.986 236.905 313.932 239.206 315.307 241.846C316.682 244.486 317.453 247.398 317.563 250.373C317.609 252.466 317.277 254.551 316.582 256.526C315.926 258.363 314.949 260.069 313.698 261.564C311.795 263.926 309.185 265.616 306.252 266.386C304.053 266.872 302.714 266.475 302.645 265.944C302.575 265.414 303.652 264.795 305.162 263.748C307.08 262.437 308.705 260.743 309.937 258.773C310.668 257.581 311.214 256.287 311.558 254.932C311.901 253.532 312.013 252.086 311.891 250.65C311.682 248.542 311.055 246.497 310.045 244.634C309.036 242.771 307.665 241.128 306.013 239.802C304.816 238.852 303.515 238.041 302.135 237.383C299.249 236.065 296.211 235.109 293.09 234.537C287.098 233.306 282.369 233.124 282.258 231.973Z" fill="#FFD6E5"/>
<path d="M297.229 266.02C297.176 265.876 297.159 265.722 297.18 265.57C297.2 265.418 297.258 265.274 297.348 265.15C297.614 264.739 297.973 264.398 298.396 264.154C299.778 263.351 301.36 262.956 302.957 263.015C305.116 263.054 307.228 263.651 309.086 264.75C310.945 265.849 312.487 267.411 313.561 269.284C314.583 271.186 315.096 273.319 315.05 275.477C315.004 277.635 314.401 279.745 313.3 281.602C312.504 282.989 311.333 284.124 309.923 284.877C309.493 285.115 309.013 285.244 308.522 285.253C308.368 285.259 308.215 285.229 308.074 285.166C307.933 285.104 307.809 285.009 307.711 284.89C307.375 284.411 307.596 283.73 307.921 282.856C308.362 281.82 308.726 280.754 309.013 279.665C309.357 278.382 309.483 277.05 309.385 275.724C309.281 274.506 308.932 273.322 308.359 272.241C307.738 271.183 306.917 270.257 305.941 269.514C304.853 268.718 303.64 268.108 302.352 267.712C301.269 267.387 300.165 267.14 299.048 266.972C298.153 266.725 297.457 266.559 297.229 266.02Z" fill="#FFD6E5"/>
<path d="M187.885 148.997C187.88 148.709 188.145 148.462 188.643 148.235C189.336 147.945 190.071 147.765 190.82 147.703C193.34 147.476 195.88 147.718 198.31 148.419C201.514 149.299 204.536 150.739 207.236 152.674C209.971 154.618 212.344 157.027 214.247 159.792C216.179 162.591 217.529 165.75 218.216 169.081C218.944 172.554 218.629 176.165 217.312 179.459C216.315 181.982 214.551 184.128 212.267 185.594C210.536 186.627 209.25 186.619 209.019 186.143C208.788 185.667 209.477 184.799 210.374 183.471C211.54 181.797 212.386 179.921 212.866 177.938C213.424 175.421 213.352 172.805 212.658 170.322C211.945 167.752 210.803 165.321 209.282 163.131C207.747 160.891 205.898 158.883 203.792 157.169C201.642 155.429 199.276 153.975 196.752 152.843C192.009 150.636 187.912 150.181 187.885 148.997Z" fill="#FFD6E5"/>
<path d="M106.476 232.782C106.452 232.499 106.852 232.215 107.616 231.938C108.693 231.568 109.807 231.321 110.939 231.203C114.787 230.791 118.674 230.924 122.485 231.598C127.48 232.419 132.327 233.966 136.874 236.191C146.088 240.627 153.775 247.702 158.957 256.518C161.568 260.866 163.527 265.573 164.772 270.489C165.738 274.232 166.17 278.093 166.054 281.958C166.028 283.097 165.873 284.229 165.591 285.332C165.376 286.115 165.116 286.495 164.884 286.557C163.681 286.548 163.266 279.899 160.317 271.869C158.759 267.541 156.707 263.408 154.201 259.552C149.252 251.873 142.425 245.585 134.367 241.283C130.326 239.108 126.049 237.405 121.619 236.209C113.245 233.857 106.584 233.995 106.476 232.782Z" fill="#FFD6E5"/>
<path d="M169.059 319.753C169.604 318.81 172.241 319.418 175.178 321.374C178.311 323.552 180.957 326.358 182.945 329.615C184.934 332.872 186.222 336.508 186.727 340.29C187.118 343.798 186.464 346.417 185.351 346.477C184.239 346.537 183.354 344.237 182.166 341.429C180.938 338.427 179.485 335.522 177.819 332.738C176.111 329.981 174.194 327.358 172.084 324.895C170.13 322.551 168.472 320.728 169.059 319.753Z" fill="#FFD6E5"/>
</svg>
