<svg width="1920" height="474" viewBox="0 0 1920 474" fill="none" xmlns="http://www.w3.org/2000/svg">
<path d="M-5.00195 384.5V172.5H40.498L182.498 258L342.998 223.5L476.498 258L512.998 307.5L673.498 267L751.998 285.5C796.998 284.833 888.798 283.9 895.998 285.5C903.198 287.1 996.331 300.833 1042 307.5L1674 320.5C1688.5 320.5 1779.03 359.909 1791 359C1830.5 356 1735 303.724 1833.5 327.5C1845.1 330.3 1888.5 349.5 1920.5 339.5V384.5H-5.00195Z" fill="#5AC7E5"/>
<path d="M1285.69 329.812C1338.94 347.929 1327.6 347.145 1383.45 338.208C1441.65 328.925 1567.03 311.358 1623.82 325.537C1639.75 329.579 1659.08 329.425 1676.9 334.979C1690.73 339.228 1699.8 342.854 1710.04 346.176C1723.35 350.443 1743.69 367.877 1751.94 370.612C1776.81 378.549 1774.9 365.2 1776.61 357.906C1761.5 347.127 1741.23 339.16 1722.59 332.582C1680.36 317.496 1634.78 311.604 1592.4 310.86C1559.76 310.299 1526.65 315.016 1494.82 307.587C1489.25 306.336 1483.67 304.56 1479.58 300.626C1475.5 296.693 1473.56 290.053 1476.67 285.209C1480.04 279.961 1487.25 279.181 1493.56 279.09C1578.88 278.059 1664.32 291.624 1745.12 318.899C1760.42 323.753 1781.67 333.264 1792.46 340.907C1804.87 349.809 1806.55 356.326 1822.18 351.962C1830.12 349.709 1845.95 343.496 1843.95 335.412C1842.72 330.194 1835.4 327.953 1830.46 325.759C1684.01 256.865 1456.42 259.09 1286.29 231.014C1286.29 231.014 1280.17 232.939 1231.53 244.648" fill="#5AC7E5"/>
<path d="M1773.43 330.926C1774.36 331.288 1731.94 314.236 1713.06 308.588C1678.23 298.108 1618.75 282.314 1568.27 279.356C1490.38 274.733 1472.59 277.595 1470.81 286.865C1469.15 295.735 1479.72 300.756 1479.72 300.756C1479.72 300.756 1461.34 275.492 1550.55 280.375C1656.11 286.129 1746.45 319.118 1773.43 330.926Z" fill="#081B6A" stroke="black" stroke-miterlimit="10" stroke-linecap="round" stroke-linejoin="round"/>
<path d="M1734.73 359.907C1734.73 359.907 1714.41 343.13 1660.65 329.108C1606.89 315.085 1505.63 323.122 1502.08 323.247C1471.2 323.939 1437.92 331.293 1437.92 331.293C1437.92 331.293 1464.02 325.376 1509.27 321.942C1540.49 319.396 1678.14 321.652 1734.73 359.907Z" fill="#081B6A" stroke="black" stroke-miterlimit="10" stroke-linecap="round" stroke-linejoin="round"/>
<path d="M1479.72 300.756C1479.72 300.756 1487.42 310.218 1520.2 311.168C1552.99 312.118 1612.9 306.59 1659.36 314.95C1705.82 323.311 1752.47 344.554 1780.27 357.122C1797.78 365.055 1819.51 350.743 1773.43 330.926" stroke="black" stroke-miterlimit="10" stroke-linecap="round" stroke-linejoin="round"/>
<path d="M1842.58 330.063C1842.58 330.063 1784.79 306.318 1755.42 297.751C1725.92 289.188 1672.66 278.042 1603.64 267.845C1534.63 257.648 1412.72 246.946 1397.28 245.516C1381.84 244.087 1352.41 241.177 1343.11 238.48" stroke="black" stroke-miterlimit="10" stroke-linecap="round" stroke-linejoin="round"/>
<path d="M848.186 287.606C1066.62 271.761 1236.56 85.0614 1230.74 143.927C1229.67 154.75 1220.5 193.084 1219.57 204.033C1254.1 176.118 1288.86 143.722 1323.58 113.564C1329.96 108.079 1339.17 115.646 1334.96 122.897C1323.42 142.637 1311.77 162.908 1300.42 180.406C1296.04 187.005 1291.69 193.998 1292.04 200.298C1293.23 219.196 1333.92 205.663 1339.4 223.095C1341.17 228.557 1340.32 245.422 1341.18 251.179C1342.54 259.944 1371.15 269.196 1378.84 274.843C1405.72 294.81 1405.54 315.992 1417.98 344.096C1424.55 359.121 1426.85 379.427 1406.86 394.598C1393.92 404.392 1376.31 408.301 1360.23 411.234C1308.21 420.431 1256.82 425.265 1207.51 425.554" fill="#5AC7E5"/>
<path d="M1335.65 116.556C1335.65 116.556 1340.23 127.048 1320.6 159.832C1300.97 192.484 1286.97 205.866 1302.13 210.594C1317.29 215.321 1339.2 202.318 1345.71 219.187C1352.22 236.056 1362.06 235.315 1375.36 239.451C1396.1 245.954 1468.63 251.293 1468.63 251.293C1468.63 251.293 1361.78 249.924 1349.29 246.287C1321.38 238.063 1348.11 227.652 1336.25 223.203C1324.39 218.754 1270.85 229.714 1277.15 210.815C1283.46 192.048 1339.67 137.327 1335.65 116.556Z" fill="#081B6A" stroke="black" stroke-miterlimit="10" stroke-linecap="round" stroke-linejoin="round"/>
<path d="M1253.95 175.465C1253.95 175.465 1222.25 216.565 1215.7 209.956C1209.16 203.347 1221.33 171.878 1225.57 157.787C1229.81 143.696 1225.72 132.134 1225.72 132.134C1225.72 132.134 1232.48 133.737 1231 158.911C1229.52 184.085 1218.28 193.556 1225.28 194.362C1232.28 195.168 1253.95 175.465 1253.95 175.465Z" fill="#081B6A" stroke="black" stroke-miterlimit="10" stroke-linecap="round" stroke-linejoin="round"/>
<path d="M1157.26 164.008C1157.26 164.008 1072.79 226.432 988.822 262.401C904.859 298.37 843.389 274.623 843.389 274.623C843.389 274.623 885.416 291.557 996.967 243.437C1052.16 219.792 1157.26 164.008 1157.26 164.008Z" fill="#081B6A" stroke="black" stroke-miterlimit="10" stroke-linecap="round" stroke-linejoin="round"/>
<path d="M617.367 317.564C562.995 331.052 511.696 327.202 460.523 304.54C427.92 290.036 398.769 268.966 366.292 254.326C316.71 232.002 261.64 225.654 207.63 219.533C217.219 219.195 224.261 210.003 227.362 200.95C230.327 191.771 230.769 181.891 234.536 173.077C239.999 160.127 252.816 150.6 266.835 149.055C260.42 161.118 258.981 176.294 270.425 183.783C281.868 191.272 314.468 194.464 328.058 195.696C400.505 202.484 463.054 208.305 535.37 215.097C540.516 215.574 545.794 216.046 550.348 218.384C554.902 220.723 558.874 225.187 558.791 230.319C558.75 236.634 553.137 241.566 547.313 244.27C538.252 248.404 528.015 249.027 518.078 250.692C508.14 252.357 497.864 255.613 491.559 263.332C485.255 271.051 480.714 287.783 490.523 289.937C528.68 297.8 567.735 282.615 602.498 265.082C637.393 247.544 666.126 234.301 704.098 225.73C731.11 219.649 761.444 222.001 795.622 240.133C817.605 251.854 857.23 286.497 881.844 290.76C906.721 295.014 916.174 294.549 941.345 292.217C966.516 289.884 1010.49 242.696 1024.5 255.618C970.86 263.82 924.985 313.179 871.385 303.755C840.55 298.395 810.826 287.21 779.888 282.643C726.466 274.528 670.572 282.151 625.172 311.37" fill="#081B6A"/>
<path d="M617.367 317.564C562.995 331.052 511.696 327.202 460.523 304.54C427.92 290.036 398.768 268.966 366.292 254.326C316.71 232.002 261.64 225.654 207.63 219.533C217.219 219.195 224.261 210.003 227.362 200.95C230.327 191.771 230.769 181.891 234.536 173.077C239.999 160.127 252.816 150.6 266.835 149.055C260.42 161.118 258.981 176.294 270.425 183.783C281.868 191.272 314.468 194.464 328.058 195.696C400.505 202.484 463.054 208.305 535.37 215.097C540.516 215.574 545.794 216.046 550.348 218.384C554.902 220.723 558.874 225.187 558.791 230.319C558.75 236.634 553.137 241.566 547.313 244.27C538.252 248.404 528.015 249.027 518.078 250.692C508.14 252.357 497.864 255.613 491.559 263.332C485.255 271.051 480.714 287.783 490.523 289.937C528.68 297.8 567.735 282.615 602.498 265.082C637.393 247.544 666.126 234.301 704.098 225.73C731.11 219.649 761.444 222.001 795.622 240.133C817.605 251.854 857.23 286.497 881.844 290.76C906.721 295.014 916.174 294.549 941.345 292.217C966.516 289.884 1010.49 242.696 1024.5 255.618C970.86 263.82 924.985 313.179 871.385 303.755C840.55 298.395 810.826 287.21 779.888 282.643C726.466 274.528 670.572 282.151 625.172 311.37" stroke="black" stroke-miterlimit="10" stroke-linecap="round" stroke-linejoin="round"/>
<path d="M534.746 343.098C501 352.177 425.403 330.638 395.438 312.621C390.598 309.635 385.758 306.649 380.786 303.667C355.643 288.111 330.233 272.434 301.157 268.459C268.647 264.08 236.022 275.093 205.69 287.735C175.358 300.377 161.842 308.744 129.061 311.608C96.2801 314.472 68.6365 298.873 52.6344 270.237C45.0551 256.694 23.1898 225.897 11.0063 216.067C-73.4481 148.41 -96.3203 160.001 -109.764 155.476C-123.071 151.078 -138.589 147.415 -135.911 103.917C-135.911 103.917 -54.5178 148.138 -7.31754 158.84C39.8873 169.674 76.0152 172.216 101.544 194.992C127.073 217.768 269.125 229.077 310.079 234.211" fill="#081B6A"/>
<path d="M534.746 343.098C501 352.177 425.403 330.638 395.438 312.621C390.598 309.635 385.758 306.649 380.786 303.667C355.643 288.111 330.233 272.434 301.157 268.459C268.647 264.08 236.022 275.093 205.69 287.735C175.358 300.377 161.842 308.744 129.061 311.608C96.2801 314.472 68.6365 298.873 52.6344 270.237C45.0551 256.694 23.1898 225.897 11.0063 216.067C-73.4481 148.41 -96.3204 160.001 -109.764 155.476C-123.071 151.078 -138.589 147.415 -135.911 103.917C-135.911 103.917 -54.5178 148.138 -7.31754 158.84C39.8873 169.674 76.0152 172.216 101.544 194.992C127.073 217.768 269.125 229.077 310.079 234.211" stroke="black" stroke-miterlimit="10" stroke-linecap="round" stroke-linejoin="round"/>
<path d="M938.473 274.167C908.767 282.184 860.531 279.41 838.884 269.782C810.554 257.1 808.351 254.284 785.658 244.824C744.405 227.468 696.977 240.186 655.187 256.125C613.396 272.064 570.413 291.465 525.803 287.116C510.759 285.673 492.701 277.102 493.75 262.071C494.893 245.985 515.628 240.914 531.617 239.299C534.629 238.93 537.768 238.425 541.029 237.653C555.373 234.122 553.183 213.024 538.438 212.622C467.068 210.268 395.833 208.041 324.463 205.687C303.525 204.977 280.993 203.798 264.617 190.695C248.241 177.593 239.289 169.885 257.183 158.864C347.466 111.888 103.847 148.348 3.57851 143.328C-51.7607 140.542 -79.2219 107.706 -81.2273 84.3648C-83.0459 62.5954 -137.245 58.5847 -144.336 100.002C-147.404 117.472 -132.91 133.139 -117.851 142.474C-72.4182 170.205 -11.1796 168.706 27.591 205.221C55.4732 231.334 68.4326 274.413 103.668 288.956C135.432 302.043 170.907 286.063 203.537 275.181C251.765 259.015 292.442 245.088 340.019 262.748C384.261 279.078 433.138 322.471 477.854 337.338C577.935 370.642 646.729 273.653 750.631 292.223C796.955 300.457 803.893 310.734 850.963 310.261C879.623 309.91 891.679 312.379 952.923 292.335C1009.23 273.912 1033.76 246.086 1060.56 226.597C1060.56 226.465 1024.86 251.002 938.473 274.167Z" fill="#5AC7E5" stroke="black" stroke-miterlimit="10" stroke-linecap="round" stroke-linejoin="round"/>
<path d="M178.791 173.728C164.519 175.546 152.176 176.112 139.587 169.716C137.711 168.73 135.821 167.349 135.747 165.248C135.767 162.09 139.023 161.186 141.637 160.7C171.97 155.555 202.172 150.414 232.505 145.269C235.381 144.773 238.257 144.277 240.94 145.761C242.145 146.376 242.975 147.531 243.284 148.835C244.061 152.228 240.72 154.45 237.744 155.87C233.864 157.716 229.983 159.563 226.093 161.146C212.09 166.9 197.367 170.838 182.32 173.078C181.016 173.387 179.706 173.565 178.791 173.728Z" fill="white" stroke="#000207" stroke-miterlimit="10" stroke-linecap="round" stroke-linejoin="round"/>
<path d="M113.482 160.503C118.995 160.177 124.325 158.411 128.957 155.486C130.243 154.652 131.773 153.283 131.455 151.715C131.136 150.148 129.401 149.42 127.942 149.077C118.79 146.9 108.731 148.833 101.034 154.365C99.8793 155.195 98.6119 156.554 99.1836 157.85C99.6147 158.887 100.942 159.234 102.002 159.46C105.446 160.128 107.022 160.073 110.583 160.342L113.482 160.503Z" fill="white" stroke="#000207" stroke-miterlimit="10" stroke-linecap="round" stroke-linejoin="round"/>
<path d="M537.799 213.174C465.403 226.507 364.213 243.88 292.935 225.477C278.731 221.768 263.942 216.37 254.719 204.725C245.502 193.213 244.695 174.038 256.48 165.074" stroke="#000207" stroke-miterlimit="10" stroke-linecap="round" stroke-linejoin="round"/>
<path d="M343.151 265.793C294.561 256.718 244.527 255.191 195.555 261.387C169.759 264.663 140.322 269.119 120.528 252.322C102.089 236.662 98.8158 207.184 78.4896 193.958C67.1822 186.596 53.0892 186.04 39.7382 184.142C-4.28346 177.8 -45.5944 155.054 -74.4063 121.213" stroke="#000207" stroke-miterlimit="10" stroke-linecap="round" stroke-linejoin="round"/>
<path d="M880.786 309.344C827.045 310.841 800.382 285.738 779.855 270.546C743.256 243.424 689.821 242.412 638.579 262.629" stroke="#000207" stroke-miterlimit="10" stroke-linecap="round" stroke-linejoin="round"/>
<path d="M495.655 271.341C503.769 285.129 526.891 299.309 542.751 301.513C582.804 307.205 631.602 284.838 671.465 277.647C711.327 270.457 751.441 277.857 785.236 300.079" stroke="#000207" stroke-miterlimit="10" stroke-linecap="round" stroke-linejoin="round"/>
<path d="M1118.92 217.7C1118.92 217.7 1203.27 140.418 1214.65 142.516C1226.04 144.615 1183.45 193.858 1168.97 201.207C1154.5 208.556 1150.81 200.926 1123.99 223.44C1097.16 245.955 1107.54 227.045 1118.92 217.7Z" fill="white" stroke="black" stroke-miterlimit="10" stroke-linecap="round" stroke-linejoin="round"/>
<path d="M1184.94 161.715L1202.36 167.021C1202.36 167.021 1185.98 191.141 1173.57 197.233C1191.56 171.391 1151.3 194.775 1142.97 200.987C1134.51 207.204 1121.84 214.969 1121.84 214.969C1121.84 214.969 1167.13 171.286 1184.94 161.715Z" fill="#081B6A" stroke="black" stroke-miterlimit="10" stroke-linecap="round" stroke-linejoin="round"/>
<path d="M1335.66 116.558C1335.66 116.558 1333.87 106.757 1321.55 115.476C1309.23 124.196 1253.95 175.465 1253.95 175.465" stroke="black" stroke-miterlimit="10" stroke-linecap="round" stroke-linejoin="round"/>
<path d="M1225.86 132.261C1225.86 132.261 1225.72 124.374 1186.44 148.379C1161.07 163.74 1144.18 173.279 1144.18 173.279" stroke="black" stroke-miterlimit="10" stroke-linecap="round" stroke-linejoin="round"/>
</svg>
