<svg width="34" height="140" viewBox="0 0 34 140" fill="none" xmlns="http://www.w3.org/2000/svg">
<g filter="url(#filter0_d_279_4573)">
<path d="M1.75309 15.4804C1.34365 7.60775 7.61668 1 15.5 1C23.3833 1 29.6563 7.60774 29.2469 15.4804L25.6687 84.2816C25.3873 89.6924 20.9181 93.9352 15.5 93.9352C10.0819 93.9352 5.61267 89.6924 5.33127 84.2816L1.75309 15.4804ZM15.5 136C11.3469 136 7.94568 134.57 5.2963 131.711C2.64691 128.852 1.32222 125.38 1.32222 121.296C1.32222 117.13 2.64691 113.699 5.2963 111.003C7.94568 108.225 11.3469 106.837 15.5 106.837C19.6531 106.837 23.0543 108.225 25.7037 111.003C28.3531 113.699 29.6778 117.13 29.6778 121.296C29.6778 125.38 28.3531 128.852 25.7037 131.711C23.0543 134.57 19.6531 136 15.5 136Z" fill="white"/>
<path d="M15.5 0.5C7.33033 0.5 0.829456 7.34776 1.25377 15.5064L4.83195 84.3076C5.12717 89.984 9.81585 94.4352 15.5 94.4352C21.1841 94.4352 25.8728 89.984 26.1681 84.3076L29.7462 15.5064C30.1705 7.34776 23.6697 0.5 15.5 0.5ZM4.92954 132.051C7.68028 135.02 11.2179 136.5 15.5 136.5C19.7821 136.5 23.3197 135.02 26.0705 132.051C28.8099 129.095 30.1778 125.5 30.1778 121.296C30.1778 117.015 28.8123 113.454 26.063 110.655C23.3114 107.772 19.776 106.337 15.5 106.337C11.224 106.337 7.68863 107.772 4.93698 110.655C2.18771 113.454 0.822222 117.015 0.822222 121.296C0.822222 125.5 2.1901 129.095 4.92954 132.051Z" stroke="#1B1B1F"/>
</g>
<defs>
<filter id="filter0_d_279_4573" x="0.322266" y="0" width="33.3555" height="140" filterUnits="userSpaceOnUse" color-interpolation-filters="sRGB">
<feFlood flood-opacity="0" result="BackgroundImageFix"/>
<feColorMatrix in="SourceAlpha" type="matrix" values="0 0 0 0 0 0 0 0 0 0 0 0 0 0 0 0 0 0 127 0" result="hardAlpha"/>
<feOffset dx="3" dy="3"/>
<feComposite in2="hardAlpha" operator="out"/>
<feColorMatrix type="matrix" values="0 0 0 0 0.105882 0 0 0 0 0.105882 0 0 0 0 0.121569 0 0 0 1 0"/>
<feBlend mode="normal" in2="BackgroundImageFix" result="effect1_dropShadow_279_4573"/>
<feBlend mode="normal" in="SourceGraphic" in2="effect1_dropShadow_279_4573" result="shape"/>
</filter>
</defs>
</svg>
