<svg width="529" height="528" viewBox="0 0 529 528" fill="none" xmlns="http://www.w3.org/2000/svg">
<path d="M422.322 325.427C450.295 314.12 468.28 282.148 463.497 252.409C462.054 243.653 458.643 234.764 451.809 229.078C444.976 223.393 434.21 221.874 427.209 227.346C440.811 213.687 444.632 191.246 436.303 173.858C427.975 156.47 408.114 145.365 388.938 147.39C369.762 149.415 352.661 164.432 348.158 183.178C343.641 167.466 322.137 162.048 307.469 169.255C292.802 176.462 284.145 191.966 278.378 207.262C278.765 198.691 271.904 190.422 263.412 189.233C254.92 188.044 246.039 194.115 244.067 202.451C241.77 174.23 212.055 152.621 183.968 155.783C155.881 158.945 132.623 183.383 127.136 211.136C118.375 193.99 90.5693 186.342 73.8226 195.818C57.0759 205.294 46.3678 217.793 43.4193 236.826C45.8332 238.766 104.449 370.41 104.449 370.41C104.449 370.41 108.067 368.632 118.475 377.007C130.826 386.945 153.183 386.551 160.715 372.451C160.558 378.605 162.253 384.664 165.58 389.843C168.908 395.022 173.715 399.082 179.377 401.496C185.04 403.91 191.298 404.568 197.339 403.383C203.379 402.198 208.925 399.225 213.256 394.851C208.633 413.606 220.464 433.683 237.336 443.113C254.208 452.543 274.752 453.011 293.778 449.644C347.034 440.218 393.913 400.64 412.113 349.726" fill="#F3BEDA"/>
<path d="M104.122 370.716C104.083 370.687 104.05 370.652 104.023 370.613C83.9028 325.428 45.3217 239.46 43.1217 237.186C43.0649 237.141 43.0212 237.082 42.9951 237.014C42.969 236.947 42.9615 236.874 42.9733 236.802C45.7373 218.837 55.4915 205.727 73.6023 195.47C81.8345 190.81 93.3236 190.002 104.315 193.328C114.484 196.373 122.669 202.402 126.942 209.943C133.129 181.232 156.89 158.404 183.897 155.384C198.245 153.767 213.895 158.665 225.79 168.482C236.241 177.108 242.72 188.335 244.269 200.36C247.126 192.855 255.444 187.702 263.473 188.812C271.501 189.923 278.041 197.156 278.759 205.126C286.056 186.594 295.397 174.727 307.285 168.884C311.624 166.837 316.351 165.74 321.148 165.668C325.945 165.596 330.702 166.551 335.1 168.467C341.434 171.275 345.999 175.923 348.094 181.66C353.124 163.435 370.05 148.95 388.88 146.955C408.21 144.933 428.308 156.161 436.687 173.675C444.613 190.235 441.587 211.427 429.659 225.317C436.369 222 445.466 223.259 452.077 228.762C459.744 235.14 462.744 245.106 463.909 252.34C468.72 282.204 450.515 314.47 422.482 325.823C422.377 325.865 422.26 325.864 422.156 325.82C422.052 325.776 421.969 325.692 421.926 325.588C421.886 325.485 421.888 325.369 421.932 325.268C421.976 325.166 422.058 325.086 422.161 325.044C449.859 313.84 467.831 281.975 463.079 252.475C461.936 245.384 459.009 235.628 451.536 229.402C445.308 224.173 434.563 222.131 427.465 227.685C427.424 227.719 427.376 227.744 427.325 227.76C427.274 227.775 427.221 227.78 427.168 227.775C427.115 227.77 427.063 227.754 427.016 227.729C426.969 227.703 426.928 227.669 426.894 227.628C426.823 227.548 426.785 227.443 426.788 227.336C426.791 227.229 426.834 227.127 426.91 227.051C440.367 213.544 444.162 191.245 435.931 174.043C427.701 156.841 407.952 145.803 388.984 147.814C370.017 149.825 353.019 164.731 348.561 183.281C348.539 183.371 348.488 183.451 348.416 183.51C348.344 183.569 348.255 183.603 348.163 183.607C348.068 183.61 347.976 183.581 347.9 183.524C347.824 183.468 347.77 183.388 347.745 183.297C345.984 177.178 341.377 172.185 334.772 169.265C330.485 167.392 325.847 166.457 321.168 166.523C316.49 166.588 311.88 167.653 307.648 169.646C295.543 175.592 286.099 187.946 278.774 207.418C278.737 207.511 278.668 207.587 278.581 207.636C278.493 207.684 278.392 207.701 278.294 207.684C278.195 207.664 278.106 207.609 278.044 207.53C277.982 207.45 277.951 207.351 277.956 207.25C278.339 198.882 271.653 190.818 263.351 189.656C255.05 188.493 246.375 194.366 244.47 202.554C244.445 202.651 244.386 202.737 244.305 202.796C244.224 202.856 244.125 202.885 244.024 202.88C243.925 202.869 243.833 202.824 243.763 202.752C243.694 202.68 243.652 202.586 243.644 202.487C242.634 189.917 236.105 178.07 225.255 169.128C213.548 159.445 198.118 154.628 184.009 156.202C157.001 159.221 133.223 182.383 127.545 211.221C127.529 211.307 127.487 211.386 127.424 211.447C127.361 211.508 127.281 211.547 127.194 211.56C127.108 211.571 127.021 211.554 126.944 211.514C126.867 211.473 126.804 211.41 126.764 211.333C122.727 203.528 114.511 197.248 104.094 194.116C93.2972 190.871 82.0525 191.653 74.0011 196.185C56.1907 206.268 46.6129 219.161 43.8259 236.715C47.9236 242.623 98.084 355.187 104.653 369.909C105.902 369.662 110.02 369.695 118.712 376.685C125.643 382.265 136.007 384.664 145.091 382.786C152.019 381.366 157.403 377.611 160.279 372.218C160.32 372.133 160.391 372.065 160.477 372.026C160.564 371.987 160.661 371.98 160.753 372.006C160.845 372.03 160.926 372.084 160.984 372.159C161.042 372.235 161.073 372.327 161.073 372.422C160.919 378.49 162.59 384.465 165.872 389.572C169.153 394.679 173.893 398.683 179.477 401.064C185.061 403.445 191.231 404.094 197.188 402.927C203.145 401.76 208.614 398.83 212.886 394.518C212.95 394.451 213.033 394.408 213.124 394.394C213.215 394.381 213.308 394.398 213.388 394.443C213.47 394.486 213.535 394.556 213.572 394.641C213.61 394.726 213.617 394.821 213.594 394.911C209.336 412.178 219.606 432.724 237.468 442.706C252.051 450.848 271.501 453.113 293.637 449.197C319.695 444.578 344.63 432.721 365.742 414.89C386.854 397.059 402.725 374.438 411.652 349.552C411.669 349.5 411.696 349.451 411.733 349.409C411.769 349.367 411.814 349.333 411.864 349.309C411.914 349.285 411.968 349.271 412.023 349.269C412.078 349.266 412.134 349.274 412.186 349.293C412.238 349.312 412.286 349.341 412.327 349.378C412.368 349.416 412.401 349.461 412.424 349.511C412.448 349.561 412.461 349.615 412.464 349.671C412.466 349.726 412.457 349.781 412.439 349.833C403.479 374.891 387.517 397.611 366.296 415.536C345.076 433.461 319.991 445.393 293.789 450.033C271.457 453.987 251.841 451.707 237.069 443.443C219.354 433.541 208.988 413.404 212.479 396.083C208.079 400.13 202.607 402.825 196.717 403.847C190.826 404.868 184.766 404.172 179.26 401.842C173.754 399.512 169.036 395.646 165.668 390.706C162.3 385.767 160.425 379.962 160.267 373.986C157.132 378.88 151.891 382.274 145.298 383.628C135.956 385.544 125.302 383.063 118.171 377.372C108.257 369.398 104.621 370.807 104.591 370.825C104.51 370.853 104.423 370.858 104.34 370.839C104.257 370.819 104.182 370.777 104.122 370.716Z" fill="#000207"/>
<path d="M378.954 220.983C390.01 206.787 405.837 197.078 423.503 193.657C439.147 190.692 456.525 193.333 468.467 203.901C480.409 214.469 484.896 233.757 476.051 246.995" fill="#F3BEDA"/>
<path d="M378.651 221.28C378.582 221.207 378.541 221.111 378.536 221.011C378.532 220.91 378.563 220.811 378.625 220.732C389.75 206.447 405.672 196.676 423.445 193.225C440.766 189.961 457.701 193.827 468.746 203.588C481.521 214.872 484.944 234.452 476.404 247.232C476.374 247.278 476.334 247.318 476.289 247.35C476.243 247.381 476.191 247.403 476.137 247.414C476.082 247.425 476.026 247.426 475.972 247.415C475.917 247.405 475.865 247.383 475.819 247.353C475.726 247.289 475.662 247.191 475.64 247.081C475.619 246.97 475.641 246.856 475.704 246.762C484.018 234.318 480.64 215.232 468.188 204.221C457.342 194.63 440.663 190.834 423.603 194.103C406.043 197.514 390.31 207.165 379.312 221.273C379.242 221.361 379.14 221.418 379.029 221.431C378.917 221.445 378.805 221.414 378.716 221.346L378.651 221.28Z" fill="#000207"/>
<path d="M256.827 222.481C259.241 217.907 263.043 214.217 267.686 211.939C272.329 209.662 277.574 208.915 282.669 209.805C292.784 211.79 300.986 221.069 301.737 231.349" fill="#F3BEDA"/>
<path d="M256.525 222.778C256.466 222.715 256.427 222.636 256.414 222.551C256.4 222.465 256.413 222.378 256.45 222.3C258.903 217.643 262.771 213.884 267.497 211.565C272.222 209.246 277.562 208.486 282.747 209.395C293.04 211.429 301.388 220.86 302.16 231.319C302.168 231.43 302.132 231.54 302.059 231.625C301.986 231.71 301.883 231.762 301.771 231.771C301.716 231.775 301.661 231.768 301.608 231.751C301.556 231.734 301.507 231.706 301.465 231.67C301.38 231.597 301.328 231.494 301.32 231.382C300.926 226.303 298.881 221.493 295.496 217.686C292.111 213.879 287.572 211.285 282.574 210.301C277.576 209.317 272.393 209.996 267.817 212.235C263.241 214.474 259.524 218.15 257.234 222.7C257.185 222.8 257.099 222.877 256.993 222.913C256.888 222.949 256.772 222.942 256.672 222.893C256.615 222.866 256.565 222.827 256.525 222.778Z" fill="#000207"/>
<path d="M107.027 210.962C122.549 207.459 139.894 215.237 147.668 229.146C155.441 243.054 152.896 261.838 141.772 273.218" fill="#F3BEDA"/>
<path d="M141.469 273.51C141.393 273.431 141.351 273.327 141.35 273.218C141.35 273.11 141.392 273.005 141.467 272.926C152.409 261.734 154.907 242.985 147.29 229.311C139.673 215.637 122.398 207.932 107.133 211.362C107.079 211.374 107.023 211.376 106.968 211.367C106.913 211.357 106.861 211.337 106.814 211.308C106.767 211.278 106.726 211.24 106.694 211.195C106.662 211.149 106.639 211.098 106.626 211.044C106.614 210.99 106.612 210.934 106.622 210.879C106.631 210.824 106.651 210.772 106.681 210.725C106.71 210.678 106.749 210.637 106.794 210.605C106.839 210.573 106.89 210.55 106.944 210.537C122.562 207.024 140.221 214.92 148.029 228.901C155.837 242.882 153.273 262.058 142.082 273.502C142.044 273.542 141.999 273.573 141.949 273.595C141.898 273.617 141.844 273.629 141.789 273.63C141.734 273.631 141.68 273.62 141.629 273.6C141.578 273.579 141.532 273.549 141.493 273.51L141.469 273.51Z" fill="#000207"/>
<path d="M106.522 311.09C123.395 291.563 155.169 287.141 176.736 301.304C198.302 315.467 206.857 346.394 195.659 369.647" fill="#F3BEDA"/>
<path d="M106.219 311.381C106.145 311.305 106.103 311.204 106.1 311.098C106.098 310.992 106.135 310.889 106.205 310.809C114.435 301.292 126.367 295.022 139.808 293.145C153.249 291.268 166.446 294.054 176.968 300.949C187.489 307.845 195.269 318.867 198.884 331.951C202.498 345.034 201.488 358.481 196.037 369.83C195.986 369.927 195.9 370 195.796 370.034C195.691 370.068 195.578 370.06 195.48 370.012C195.381 369.964 195.306 369.88 195.269 369.776C195.232 369.673 195.236 369.56 195.282 369.46C200.658 358.312 201.664 345.08 198.088 332.193C194.512 319.307 186.859 308.477 176.521 301.674C166.183 294.871 153.187 292.148 139.943 293.998C126.698 295.849 114.929 302.033 106.862 311.38C106.826 311.422 106.781 311.456 106.731 311.48C106.682 311.505 106.628 311.519 106.572 311.523C106.517 311.526 106.461 311.519 106.409 311.501C106.356 311.483 106.308 311.454 106.266 311.417L106.219 311.381Z" fill="#000207"/>
<path d="M173.035 254.145C175.775 269.362 189.098 282.06 204.427 284.06C219.756 286.06 235.897 277.217 242.452 263.208" fill="#F3BEDA"/>
<path d="M182.56 273.273C177.428 268.041 173.964 261.404 172.605 254.203C172.586 254.094 172.61 253.981 172.673 253.889C172.735 253.798 172.832 253.735 172.941 253.714C173.052 253.695 173.165 253.72 173.258 253.784C173.35 253.848 173.414 253.946 173.435 254.056C176.158 269.196 189.206 281.633 204.464 283.632C219.721 285.631 235.525 277.008 242.056 263.022C242.079 262.972 242.112 262.926 242.153 262.888C242.194 262.851 242.242 262.821 242.295 262.802C242.347 262.783 242.403 262.775 242.458 262.777C242.514 262.78 242.569 262.794 242.619 262.817C242.719 262.865 242.796 262.951 242.833 263.055C242.87 263.159 242.865 263.274 242.818 263.374C236.146 277.637 219.969 286.504 204.355 284.463C196.039 283.287 188.362 279.345 182.56 273.273Z" fill="#000207"/>
<path d="M201.078 338.132C207.686 337.233 214.412 337.876 220.73 340.01C227.048 342.144 232.786 345.711 237.496 350.433C242.205 355.154 245.758 360.902 247.875 367.225C249.993 373.549 250.618 380.276 249.703 386.882" fill="#F3BEDA"/>
<path d="M200.776 338.427C200.713 338.364 200.674 338.281 200.666 338.193C200.659 338.138 200.662 338.082 200.676 338.029C200.689 337.975 200.714 337.924 200.747 337.88C200.78 337.836 200.822 337.799 200.87 337.771C200.918 337.743 200.971 337.724 201.026 337.717C207.694 336.814 214.481 337.465 220.856 339.621C227.23 341.776 233.02 345.377 237.772 350.142C242.524 354.906 246.11 360.705 248.249 367.086C250.387 373.466 251.021 380.255 250.101 386.921C250.078 387.024 250.018 387.114 249.932 387.175C249.845 387.236 249.739 387.262 249.635 387.248C249.53 387.234 249.435 387.182 249.367 387.101C249.299 387.02 249.265 386.917 249.269 386.811C250.176 380.271 249.558 373.609 247.461 367.347C245.364 361.086 241.847 355.394 237.184 350.719C232.522 346.043 226.84 342.51 220.584 340.396C214.328 338.282 207.668 337.645 201.125 338.534C201.062 338.544 200.998 338.54 200.938 338.521C200.877 338.503 200.822 338.47 200.776 338.427Z" fill="#000207"/>
<path d="M216.093 283.341C221.338 292.565 228.226 301.018 237.026 306.945C245.825 312.871 256.669 316.106 267.18 314.698C277.692 313.29 287.709 306.868 292.303 297.308" fill="#F3BEDA"/>
<path d="M227.361 299.337C222.835 294.582 218.926 289.275 215.727 283.543C215.698 283.493 215.68 283.439 215.672 283.382C215.665 283.326 215.669 283.268 215.683 283.213C215.698 283.158 215.723 283.107 215.758 283.062C215.793 283.016 215.836 282.979 215.885 282.95C215.935 282.922 215.989 282.903 216.046 282.896C216.102 282.888 216.16 282.892 216.215 282.907C216.27 282.921 216.321 282.947 216.366 282.981C216.412 283.016 216.449 283.059 216.478 283.109C222.248 293.276 229.271 301.179 237.276 306.574C246.487 312.769 257.369 315.57 267.146 314.263C278.051 312.802 287.559 306.229 291.937 297.112C291.988 297.012 292.076 296.936 292.182 296.899C292.288 296.862 292.404 296.867 292.506 296.913C292.606 296.962 292.683 297.049 292.719 297.154C292.755 297.26 292.748 297.375 292.699 297.476C288.192 306.846 278.448 313.6 267.234 315.079C257.265 316.419 246.165 313.561 236.788 307.256C233.378 304.953 230.218 302.299 227.361 299.337Z" fill="#000207"/>
<path d="M297.96 219.763C307.905 215.578 320.589 219.457 326.48 228.477C329.759 233.502 330.973 239.564 332.119 245.457" fill="#F3BEDA"/>
<path d="M297.658 220.052C297.617 220.022 297.581 219.985 297.552 219.944C297.53 219.892 297.518 219.837 297.518 219.782C297.517 219.726 297.527 219.671 297.548 219.619C297.569 219.567 297.6 219.52 297.639 219.48C297.678 219.441 297.725 219.409 297.776 219.388C307.828 215.157 320.862 219.142 326.829 228.277C330.2 233.446 331.434 239.794 332.525 245.401C332.541 245.457 332.545 245.516 332.537 245.574C332.528 245.632 332.508 245.688 332.477 245.738C332.446 245.788 332.406 245.83 332.357 245.863C332.309 245.896 332.254 245.919 332.197 245.93C332.139 245.94 332.08 245.939 332.023 245.925C331.966 245.912 331.912 245.887 331.866 245.851C331.819 245.816 331.78 245.771 331.752 245.72C331.723 245.669 331.706 245.612 331.701 245.554C330.626 240.036 329.386 233.742 326.107 228.717C320.355 219.913 307.783 216.067 298.085 220.143C298.012 220.17 297.934 220.176 297.858 220.16C297.782 220.144 297.713 220.107 297.658 220.052Z" fill="#000207"/>
<path d="M362.15 235.291C364.274 230.728 367.619 226.841 371.813 224.06C376.066 221.411 381.417 220.333 386.196 221.8C390.975 223.267 394.981 227.482 395.565 232.456" fill="#F3BEDA"/>
<path d="M361.842 235.579C361.782 235.516 361.742 235.437 361.729 235.352C361.715 235.266 361.729 235.179 361.767 235.101C363.935 230.472 367.334 226.528 371.593 223.7C373.749 222.304 376.175 221.377 378.712 220.981C381.25 220.584 383.843 220.727 386.321 221.399C391.432 222.966 395.41 227.491 395.983 232.405C395.996 232.516 395.964 232.628 395.894 232.716C395.825 232.805 395.723 232.861 395.612 232.875C395.5 232.888 395.388 232.856 395.3 232.786C395.212 232.717 395.155 232.615 395.142 232.504C394.605 227.906 390.873 223.671 386.076 222.198C381.67 220.851 376.424 221.686 372.04 224.416C367.909 227.155 364.617 230.983 362.528 235.477C362.476 235.576 362.388 235.651 362.282 235.686C362.176 235.721 362.06 235.713 361.959 235.664C361.915 235.643 361.875 235.614 361.842 235.579Z" fill="#000207"/>
<path d="M338.346 191.52C339.951 189.633 341.973 188.145 344.252 187.176C346.532 186.207 349.006 185.782 351.478 185.935C353.95 186.088 356.353 186.816 358.495 188.059C360.637 189.303 362.46 191.029 363.819 193.1" fill="#F3BEDA"/>
<path d="M338.062 191.798C337.992 191.72 337.951 191.62 337.949 191.515C337.946 191.41 337.981 191.308 338.048 191.226C339.695 189.286 341.772 187.757 344.113 186.761C346.455 185.764 348.997 185.327 351.537 185.485C354.077 185.643 356.545 186.391 358.745 187.671C360.945 188.95 362.816 190.724 364.21 192.854C364.272 192.949 364.294 193.064 364.271 193.176C364.248 193.287 364.182 193.384 364.087 193.447C363.992 193.509 363.876 193.531 363.765 193.508C363.654 193.485 363.556 193.419 363.494 193.324C362.172 191.306 360.398 189.624 358.312 188.412C356.226 187.2 353.887 186.491 351.479 186.342C349.071 186.192 346.662 186.606 344.442 187.551C342.223 188.496 340.254 189.946 338.693 191.785C338.658 191.827 338.614 191.862 338.565 191.887C338.516 191.912 338.463 191.927 338.407 191.931C338.352 191.935 338.297 191.928 338.245 191.911C338.193 191.893 338.145 191.865 338.103 191.829L338.062 191.798Z" fill="#000207"/>
<path d="M232.212 200.219C234.16 199.367 236.322 199.13 238.408 199.54C240.495 199.95 242.406 200.986 243.888 202.512C245.369 204.037 246.35 205.978 246.699 208.075C247.048 210.173 246.748 212.327 245.84 214.249" fill="#F3BEDA"/>
<path d="M231.91 200.507L231.804 200.398C231.782 200.347 231.77 200.292 231.769 200.236C231.769 200.18 231.779 200.125 231.8 200.073C231.821 200.021 231.851 199.974 231.891 199.935C231.93 199.895 231.976 199.863 232.028 199.842C234.062 199.002 236.3 198.78 238.46 199.204C240.62 199.629 242.607 200.681 244.172 202.229C245.667 203.841 246.656 205.856 247.016 208.025C247.375 210.194 247.09 212.421 246.194 214.429C246.146 214.53 246.06 214.608 245.955 214.646C245.849 214.684 245.733 214.68 245.631 214.634C245.532 214.584 245.456 214.497 245.418 214.393C245.38 214.288 245.383 214.173 245.427 214.071C246.256 212.219 246.521 210.164 246.191 208.163C245.86 206.161 244.948 204.301 243.567 202.814C242.123 201.387 240.29 200.418 238.298 200.027C236.306 199.635 234.242 199.84 232.366 200.615C232.287 200.642 232.203 200.647 232.122 200.627C232.041 200.608 231.967 200.566 231.91 200.507Z" fill="#000207"/>
<path d="M265.948 315.046C265.812 319.574 266.82 324.064 268.879 328.099C270.939 332.135 273.983 335.585 277.73 338.132C281.477 340.679 285.806 342.239 290.316 342.668C294.826 343.098 299.372 342.382 303.532 340.588" fill="#F3BEDA"/>
<path d="M273.394 335.074C270.826 332.418 268.809 329.28 267.459 325.842C266.109 322.404 265.452 318.732 265.526 315.039C265.527 314.983 265.539 314.928 265.561 314.877C265.583 314.826 265.614 314.78 265.654 314.742C265.694 314.703 265.741 314.673 265.793 314.652C265.845 314.632 265.9 314.622 265.956 314.623C266.067 314.627 266.173 314.674 266.25 314.754C266.328 314.834 266.371 314.941 266.371 315.053C266.23 319.51 267.216 323.93 269.239 327.903C271.263 331.877 274.257 335.275 277.944 337.782C281.632 340.289 285.893 341.824 290.332 342.244C294.771 342.665 299.244 341.957 303.337 340.187C303.44 340.142 303.557 340.14 303.662 340.18C303.767 340.221 303.852 340.302 303.899 340.404C303.939 340.508 303.938 340.623 303.897 340.726C303.855 340.83 303.776 340.913 303.675 340.96C299.439 342.738 294.829 343.442 290.255 343.011C285.681 342.579 281.285 341.025 277.456 338.487C275.99 337.49 274.629 336.346 273.394 335.074Z" fill="#000207"/>
<path d="M229.116 279.82C230.672 281.325 232.584 282.413 234.673 282.983C236.763 283.552 238.962 283.584 241.067 283.076C243.173 282.568 245.115 281.536 246.715 280.076C248.315 278.616 249.519 276.776 250.217 274.726" fill="#F3BEDA"/>
<path d="M228.813 280.114C228.735 280.034 228.693 279.926 228.695 279.814C228.697 279.703 228.743 279.596 228.823 279.519C228.903 279.441 229.011 279.399 229.123 279.401C229.234 279.402 229.34 279.449 229.418 279.529C230.924 280.985 232.773 282.037 234.793 282.587C236.814 283.138 238.941 283.168 240.977 282.677C243.013 282.185 244.892 281.187 246.439 279.776C247.986 278.364 249.151 276.584 249.827 274.602C249.862 274.496 249.939 274.408 250.039 274.359C250.139 274.309 250.255 274.301 250.361 274.337C250.467 274.373 250.554 274.449 250.604 274.549C250.654 274.649 250.661 274.765 250.626 274.871C249.91 276.995 248.668 278.902 247.016 280.416C245.363 281.93 243.355 283.001 241.177 283.529C238.999 284.057 236.724 284.025 234.561 283.436C232.399 282.848 230.421 281.721 228.812 280.162L228.813 280.114Z" fill="#000207"/>
<path d="M170.577 296.543C172.746 294.756 175.352 293.582 178.127 293.142C180.902 292.702 183.744 293.012 186.358 294.04C188.973 295.068 191.265 296.776 192.998 298.988C194.73 301.199 195.84 303.834 196.211 306.619" fill="#F3BEDA"/>
<path d="M170.275 296.837C170.205 296.75 170.172 296.639 170.183 296.528C170.194 296.417 170.247 296.315 170.332 296.243C172.559 294.408 175.236 293.203 178.085 292.751C180.934 292.299 183.852 292.618 186.537 293.674C189.222 294.729 191.576 296.484 193.354 298.755C195.133 301.027 196.271 303.733 196.652 306.592C196.659 306.647 196.655 306.703 196.641 306.756C196.626 306.809 196.601 306.859 196.567 306.903C196.533 306.946 196.491 306.983 196.443 307.01C196.395 307.038 196.342 307.055 196.287 307.062C196.233 307.071 196.178 307.068 196.124 307.054C196.071 307.041 196.021 307.016 195.978 306.983C195.935 306.949 195.898 306.907 195.872 306.859C195.845 306.811 195.829 306.758 195.823 306.703C195.461 303.992 194.381 301.427 192.694 299.273C191.007 297.119 188.776 295.456 186.23 294.455C183.684 293.454 180.917 293.152 178.215 293.579C175.513 294.007 172.975 295.15 170.863 296.888C170.778 296.959 170.668 296.993 170.558 296.983C170.448 296.974 170.346 296.921 170.275 296.837Z" fill="#000207"/>
<path d="M126.343 211.558C127.685 209.62 129.604 208.155 131.827 207.372C134.05 206.589 136.464 206.527 138.724 207.196C140.984 207.865 142.975 209.231 144.414 211.098C145.852 212.965 146.665 215.239 146.735 217.595" fill="#F3BEDA"/>
<path d="M126.041 211.852C125.974 211.781 125.934 211.689 125.927 211.591C125.92 211.494 125.946 211.397 126.002 211.316C127.396 209.312 129.386 207.797 131.689 206.988C133.993 206.179 136.493 206.117 138.834 206.81C141.175 207.502 143.238 208.915 144.73 210.848C146.223 212.78 147.068 215.133 147.146 217.574C147.146 217.628 147.135 217.683 147.113 217.733C147.092 217.784 147.06 217.829 147.021 217.867C146.981 217.905 146.935 217.935 146.884 217.955C146.832 217.975 146.778 217.985 146.723 217.983C146.667 217.982 146.613 217.971 146.562 217.949C146.511 217.927 146.464 217.895 146.426 217.855C146.387 217.815 146.357 217.768 146.337 217.716C146.316 217.664 146.306 217.609 146.308 217.554C146.238 215.285 145.454 213.095 144.066 211.299C142.678 209.502 140.759 208.19 138.581 207.549C136.403 206.908 134.079 206.971 131.939 207.73C129.8 208.489 127.954 209.904 126.667 211.774C126.636 211.819 126.596 211.858 126.549 211.888C126.503 211.919 126.451 211.939 126.397 211.949C126.343 211.96 126.287 211.959 126.233 211.948C126.179 211.936 126.127 211.914 126.082 211.883L126.041 211.852Z" fill="#000207"/>
<path d="M401.513 201.711C401.106 199.244 401.263 196.717 401.973 194.32C402.682 191.922 403.926 189.717 405.609 187.868C407.293 186.02 409.374 184.578 411.695 183.648C414.016 182.719 416.517 182.328 419.011 182.504" fill="#F3BEDA"/>
<path d="M401.24 201.97C401.18 201.907 401.14 201.828 401.125 201.742C400.734 199.213 400.908 196.629 401.635 194.175C402.361 191.721 403.622 189.459 405.326 187.551C407.073 185.677 409.214 184.215 411.593 183.267C413.973 182.32 416.533 181.912 419.09 182.072C419.145 182.073 419.2 182.085 419.251 182.107C419.302 182.129 419.348 182.161 419.387 182.2C419.425 182.24 419.456 182.288 419.476 182.339C419.496 182.391 419.506 182.446 419.505 182.502C419.504 182.557 419.493 182.612 419.471 182.663C419.449 182.714 419.417 182.76 419.377 182.799C419.337 182.838 419.29 182.868 419.238 182.888C419.186 182.909 419.131 182.918 419.075 182.917C416.637 182.759 414.194 183.144 411.923 184.045C409.652 184.946 407.609 186.34 405.942 188.126C404.322 189.94 403.124 192.09 402.434 194.422C401.744 196.754 401.578 199.209 401.949 201.613C401.963 201.701 401.949 201.791 401.908 201.87C401.868 201.95 401.803 202.014 401.724 202.055C401.644 202.095 401.554 202.109 401.466 202.095C401.378 202.081 401.297 202.039 401.234 201.976L401.24 201.97Z" fill="#000207"/>
<path d="M311.283 292.009C315.057 297.726 319.965 302.85 325.999 306.135C332.033 309.42 339.279 310.725 345.91 308.925C352.541 307.125 358.358 302.003 360.213 295.397" fill="#F3BEDA"/>
<path d="M316.7 299.484C314.559 297.252 312.628 294.827 310.934 292.239C310.873 292.147 310.851 292.034 310.873 291.925C310.895 291.816 310.959 291.72 311.051 291.658C311.146 291.598 311.26 291.577 311.37 291.6C311.479 291.623 311.576 291.688 311.638 291.781C315.795 298.064 320.698 302.771 326.219 305.78C332.519 309.194 339.657 310.206 345.815 308.535C352.566 306.69 358.081 301.508 359.821 295.293C359.836 295.24 359.86 295.19 359.894 295.147C359.928 295.103 359.97 295.067 360.019 295.04C360.067 295.013 360.12 294.996 360.175 294.99C360.23 294.984 360.285 294.989 360.338 295.004C360.446 295.036 360.537 295.108 360.592 295.206C360.647 295.303 360.662 295.419 360.633 295.527C358.793 301.99 353.083 307.442 346.034 309.354C339.672 311.069 332.303 310.036 325.82 306.517C322.438 304.653 319.362 302.281 316.7 299.484Z" fill="#000207"/>
<path d="M341.699 280.928C345.582 286.879 352.942 290.228 360.028 289.697C363.574 289.354 366.996 288.208 370.033 286.346C373.07 284.483 375.644 281.954 377.558 278.949C381.34 272.835 382.604 265.493 381.084 258.467" fill="#F3BEDA"/>
<path d="M343.495 283.853C342.694 283.025 341.973 282.122 341.344 281.156C341.282 281.061 341.26 280.946 341.283 280.834C341.306 280.723 341.372 280.626 341.467 280.563C341.562 280.501 341.678 280.479 341.789 280.502C341.9 280.525 341.998 280.591 342.06 280.686C345.757 286.349 352.967 289.796 360.005 289.265C363.486 288.931 366.845 287.812 369.831 285.991C372.816 284.171 375.349 281.697 377.24 278.756C380.973 272.737 382.215 265.501 380.701 258.582C380.687 258.527 380.684 258.469 380.693 258.413C380.702 258.356 380.722 258.302 380.753 258.254C380.783 258.206 380.823 258.164 380.87 258.131C380.917 258.099 380.97 258.077 381.026 258.065C381.082 258.054 381.14 258.054 381.196 258.066C381.252 258.078 381.305 258.101 381.352 258.134C381.398 258.167 381.438 258.209 381.468 258.258C381.497 258.307 381.517 258.361 381.525 258.417C383.085 265.549 381.801 273.008 377.946 279.208C375.99 282.263 373.367 284.835 370.273 286.73C367.18 288.625 363.696 289.793 360.086 290.147C357.03 290.355 353.966 289.899 351.103 288.813C348.24 287.727 345.645 286.035 343.495 283.853Z" fill="#000207"/>
<path d="M57.873 232.428C63.5269 228.189 71.1951 227.002 78.0424 228.646C84.9337 230.471 91.0078 234.567 95.282 240.273C98.5678 244.541 100.946 249.7 100.969 255.087C100.992 260.474 98.346 266.031 93.6071 268.588" fill="#F3BEDA"/>
<path d="M57.5705 232.714L57.5353 232.678C57.5015 232.634 57.4768 232.583 57.4628 232.53C57.4488 232.476 57.4458 232.42 57.4539 232.365C57.462 232.31 57.4812 232.258 57.5101 232.21C57.5391 232.163 57.5774 232.122 57.6225 232.09C63.1745 227.891 70.8584 226.478 78.1323 228.236C85.1207 230.072 91.2793 234.225 95.6016 240.015C98.2233 243.416 101.354 248.783 101.385 255.087C101.412 261.01 98.4398 266.46 93.809 268.96C93.7589 268.988 93.7038 269.005 93.6469 269.012C93.5901 269.018 93.5325 269.013 93.4775 268.997C93.4225 268.982 93.3711 268.955 93.3264 268.919C93.2816 268.884 93.2443 268.839 93.2166 268.789C93.1889 268.739 93.1714 268.684 93.165 268.627C93.1585 268.57 93.1634 268.513 93.1792 268.458C93.1951 268.403 93.2216 268.352 93.2573 268.307C93.293 268.262 93.3371 268.225 93.3872 268.197C97.7536 265.847 100.554 260.692 100.529 255.073C100.505 248.995 97.4609 243.802 94.9207 240.51C90.7167 234.87 84.7208 230.826 77.9165 229.042C74.5413 228.177 71.0177 228.061 67.5932 228.704C64.1686 229.346 60.9261 230.73 58.0935 232.758C58.0137 232.81 57.919 232.833 57.8244 232.825C57.7297 232.817 57.6404 232.778 57.5705 232.714Z" fill="#000207"/>
<path d="M131.334 295.554C132.591 292.564 132.948 289.272 132.362 286.081C131.776 282.891 130.272 279.94 128.034 277.592C125.796 275.243 122.922 273.599 119.763 272.859C116.605 272.12 113.299 272.318 110.252 273.43" fill="#F3BEDA"/>
<path d="M131.031 295.85C130.974 295.79 130.935 295.714 130.921 295.633C130.906 295.551 130.916 295.467 130.949 295.39C132.12 292.466 132.44 289.269 131.871 286.171C131.303 283.072 129.869 280.198 127.736 277.879L127.642 277.783C125.428 275.567 122.635 274.02 119.583 273.318C116.53 272.615 113.342 272.786 110.382 273.81C110.277 273.845 110.163 273.839 110.063 273.792C109.962 273.744 109.884 273.66 109.845 273.557C109.825 273.505 109.816 273.45 109.818 273.394C109.819 273.339 109.832 273.284 109.855 273.234C109.878 273.183 109.911 273.138 109.951 273.1C109.992 273.062 110.04 273.033 110.092 273.014C113.206 271.938 116.56 271.76 119.77 272.5C122.98 273.24 125.918 274.868 128.247 277.197L128.329 277.282C130.573 279.721 132.081 282.744 132.678 286.004C133.276 289.263 132.939 292.625 131.706 295.701C131.685 295.752 131.653 295.799 131.613 295.838C131.573 295.877 131.526 295.908 131.474 295.929C131.422 295.95 131.367 295.96 131.311 295.959C131.255 295.958 131.2 295.946 131.149 295.924C131.105 295.907 131.065 295.882 131.031 295.85Z" fill="#000207"/>
<g style="mix-blend-mode:multiply">
<g style="mix-blend-mode:multiply">
<path d="M108.498 308.983C114.222 320.962 122.539 331.518 132.846 339.887C143.153 348.255 155.192 354.227 168.092 357.369C174.525 358.887 181.38 359.656 187.67 357.636C193.959 355.616 199.531 350.227 200.081 343.642C203.704 355.922 211.66 367.453 223.285 372.718C234.911 377.983 250.42 375.653 258.096 365.407C265.773 355.16 262.225 337.727 250.248 333.188C255.527 332.859 257.84 325.505 255.298 320.868C252.757 316.23 247.486 313.904 242.505 312.107C237.523 310.31 232.184 308.518 228.92 304.357C239.214 312.256 252.125 315.946 265.038 314.68C264.032 319.084 264.531 323.698 266.456 327.786C268.381 331.873 271.621 335.197 275.657 337.226C279.694 339.255 284.294 339.872 288.723 338.979C293.151 338.086 297.153 335.734 300.088 332.299C308.463 322.642 305.91 307.642 300.274 296.173C304.089 299.052 310.606 296.215 311.102 291.461C314.448 298.553 323.413 302.375 330.864 299.969C338.314 297.564 343.311 289.208 341.916 281.506C358.922 288.581 380.447 282.352 391.05 267.285C404.562 287.212 417.663 308.894 418.803 332.942C419.934 356.507 408.928 379.727 392.04 396.212C375.153 412.698 352.865 422.885 329.89 428.221C313.894 431.924 296.996 433.386 281.12 429.187C271.965 426.802 263.486 422.331 256.345 416.125C249.506 410.059 240.364 407.555 231.246 408.2C229.069 408.371 226.884 408.01 224.877 407.148C223.638 406.598 222.491 405.858 221.48 404.954C215.286 399.458 206.503 398.258 198.661 400.913C193.793 402.621 188.497 402.677 183.594 401.072C170.182 396.89 156.419 378.435 162.676 365.873C157.664 379.795 138.708 384.746 125.307 378.457C111.907 372.168 103.829 357.981 100.146 343.64C96.9599 331.242 97.0054 321.023 106.136 312.087" fill="#F3BEDA"/>
</g>
</g>
<g style="mix-blend-mode:multiply">
<g style="mix-blend-mode:multiply">
<path d="M146.779 218.18C150.324 215.16 154.754 213.375 159.403 213.093C164.051 212.811 168.664 214.047 172.548 216.616C176.311 219.364 179.078 223.26 180.433 227.718C181.788 232.176 181.656 236.953 180.058 241.33C183.141 242.255 185.8 244.234 187.57 246.922C189.34 249.61 190.108 252.835 189.739 256.032C189.371 259.229 187.889 262.195 185.554 264.409C183.219 266.624 180.18 267.947 176.968 268.146C179.335 270.361 180.982 273.238 181.692 276.402C182.402 279.565 182.144 282.87 180.951 285.884C179.757 288.899 177.684 291.485 175.001 293.306C172.318 295.126 169.149 296.097 165.907 296.091C169.364 291.857 167.881 285.143 164.065 281.234C160.25 277.325 154.773 275.573 149.487 274.199C157.273 252.771 150.8 226.926 133.853 211.691C138.509 212.102 143.013 213.557 147.031 215.947" fill="#F3BEDA"/>
</g>
</g>
<g style="mix-blend-mode:multiply">
<g style="mix-blend-mode:multiply">
<path d="M278.136 208.9C282.084 208.975 285.946 210.059 289.356 212.048C292.766 214.038 295.611 216.867 297.618 220.266C301.937 218.94 306.523 218.741 310.94 219.689C315.357 220.637 319.458 222.699 322.853 225.68C326.248 228.661 328.823 232.461 330.334 236.718C331.844 240.976 332.24 245.549 331.484 250.003C337.326 245.862 346.688 248.435 349.596 254.977C351.303 247.905 353.016 240.511 351.307 233.418C349.598 226.324 343.392 219.774 336.134 220.32C336.02 212.503 335.879 204.548 333.39 197.144C330.9 189.74 325.599 182.854 318.169 180.438C310.005 177.796 300.862 181.09 294.352 186.683C287.842 192.277 283.465 199.882 279.198 207.334" fill="#F3BEDA"/>
</g>
</g>
<g style="mix-blend-mode:multiply">
<g style="mix-blend-mode:multiply">
<path d="M378.537 219.23C376.797 211.16 374.736 203.727 378.827 196.528C380.274 193.957 382.166 191.506 384.795 190.181C387.424 188.856 390.935 188.926 393.043 191.009C392.538 181.299 401.056 172.043 410.744 171.782C420.433 171.521 429.525 180.208 429.613 189.923C428.729 185.111 424.137 181.392 419.25 181.06C414.362 180.729 409.53 183.541 406.937 187.7C405.699 189.817 404.913 192.169 404.63 194.605C404.346 197.042 404.571 199.511 405.29 201.856C393.709 205.341 387.416 211.099 379.25 220.016" fill="#F3BEDA"/>
</g>
</g>
<g style="mix-blend-mode:multiply">
<g style="mix-blend-mode:multiply">
<path d="M216.543 229.267C218.606 227.228 221.252 225.882 224.115 225.416C226.977 224.95 229.913 225.387 232.516 226.666C235.119 227.945 237.259 230.003 238.639 232.553C240.019 235.104 240.571 238.021 240.217 240.899C245.915 239.006 252.303 243.202 254.537 248.769C256.772 254.336 255.737 260.711 253.708 266.361C253.349 264.056 252.415 261.877 250.993 260.027C249.571 258.177 247.706 256.714 245.569 255.774C243.433 254.834 241.095 254.447 238.77 254.649C236.445 254.85 234.208 255.633 232.265 256.927C233.163 254.753 233.299 252.34 232.65 250.08C232.002 247.82 230.607 245.845 228.694 244.479C226.78 243.112 224.46 242.434 222.112 242.554C219.763 242.674 217.525 243.585 215.761 245.14C217.217 243.1 217.912 240.614 217.725 238.115C217.537 235.616 216.478 233.261 214.733 231.463" fill="#F3BEDA"/>
</g>
</g>
<g style="mix-blend-mode:multiply">
<g style="mix-blend-mode:multiply">
<path d="M61.922 213.075C66.9344 211.705 72.2085 211.6 77.2711 212.772C82.3337 213.943 87.0263 216.353 90.9277 219.785C94.7607 223.295 97.6617 227.702 99.3699 232.61C101.078 237.518 101.54 242.774 100.714 247.905C105.788 248.442 110.975 249.011 115.587 251.177C120.2 253.343 124.287 257.376 125.054 262.418C125.923 268.087 122.413 273.719 117.704 276.985C112.995 280.252 107.246 281.596 101.626 282.746C108.107 284.604 111.801 292.213 110.666 298.861C109.532 305.508 104.548 310.984 98.7237 314.357C92.8998 317.73 101.118 344.604 94.5561 346.161C94.6053 345.001 47.4583 239.112 45.2534 236.057C48.5993 226.382 46.9475 224.783 53.1203 215.838" fill="#F3BEDA"/>
</g>
</g>
<path d="M145.192 189.523C144.48 189.041 146.556 184.808 150.746 180.193C159.994 170.232 172.437 163.823 185.916 162.079C192.107 161.337 196.755 162.063 196.74 162.98C196.725 163.896 192.286 164.524 186.631 165.966C174.386 168.966 163.024 174.82 153.472 183.048C149.053 186.82 145.998 190.102 145.192 189.523Z" fill="#FFD6E5"/>
<path d="M205.372 166.433C205.649 165.569 208.916 165.933 212.813 167.819C217.008 169.922 220.719 172.873 223.713 176.486C226.707 180.098 228.918 184.293 230.206 188.805C231.333 192.996 231.075 196.278 230.163 196.388C229.25 196.497 228.203 193.658 226.493 190.172C222.926 182.633 217.526 176.109 210.787 171.196C207.683 168.871 205.047 167.368 205.372 166.433Z" fill="#FFD6E5"/>
<path d="M307.361 175.386C307.136 174.995 307.523 174.27 308.5 173.5C309.833 172.51 311.354 171.801 312.969 171.414C315.059 170.888 317.223 170.719 319.37 170.914C321.508 171.099 323.609 171.591 325.607 172.375C327.568 173.162 329.425 174.185 331.139 175.42C332.82 176.633 334.356 178.035 335.718 179.597C338.2 182.466 339.359 185.068 338.623 185.651C337.887 186.234 335.767 184.526 333.009 182.486C331.639 181.47 330.08 180.378 328.489 179.423C326.976 178.515 325.393 177.728 323.755 177.07C322.145 176.443 320.479 175.972 318.779 175.666C317.061 175.371 315.318 175.252 313.576 175.311C310.361 175.412 307.888 176.246 307.361 175.386Z" fill="#FFD6E5"/>
<path d="M357.536 182.247C357.311 182.172 357.216 181.831 357.213 181.26C357.237 180.469 357.364 179.685 357.591 178.927C358.32 176.353 359.424 173.901 360.868 171.649C362.748 168.693 365.05 166.029 367.702 163.739C373.04 159.087 379.632 156.112 386.653 155.187C390.13 154.715 393.657 154.76 397.121 155.32C399.765 155.712 402.336 156.497 404.748 157.65C405.465 157.984 406.136 158.409 406.745 158.915C407.179 159.291 407.382 159.575 407.271 159.823C406.887 160.745 402.54 159.41 396.727 159.26C393.611 159.149 390.492 159.379 387.425 159.944C381.333 161.057 375.607 163.644 370.746 167.481C368.29 169.406 366.051 171.591 364.066 174C360.361 178.438 358.483 182.573 357.536 182.247Z" fill="#FFD6E5"/>
<path d="M366.884 237.334C366.471 237.101 366.43 236.356 366.728 235.272C367.162 233.835 367.828 232.479 368.7 231.257C369.851 229.56 371.32 228.103 373.027 226.966C374.841 225.758 376.916 224.999 379.081 224.752C380.175 224.637 381.279 224.681 382.359 224.884C383.482 225.103 384.568 225.479 385.584 226.004C386.513 226.493 387.396 227.065 388.222 227.714C388.616 228.024 388.974 228.322 389.326 228.637C389.685 228.972 390.027 229.326 390.35 229.696C390.986 230.372 391.52 231.137 391.937 231.966C392.304 232.687 392.5 233.483 392.511 234.291C392.539 234.853 392.388 235.409 392.08 235.879C391.789 236.16 391.573 236.288 391.342 236.23C390.868 236.091 390.682 235.451 390.192 234.848C389.5 233.994 388.672 233.26 387.741 232.676C387.446 232.481 387.128 232.285 386.798 232.089L385.719 231.47C385.017 231.074 384.289 230.725 383.54 230.428C382.276 229.894 380.897 229.689 379.532 229.831C378.105 229.997 376.723 230.433 375.458 231.114C374.083 231.868 372.808 232.79 371.662 233.86C369.42 235.888 367.727 237.818 366.884 237.334Z" fill="#FFD6E5"/>
<path d="M390.882 219.892C390.074 219.444 390.588 217.167 392.173 214.616C393.96 211.871 396.278 209.51 398.989 207.671C401.701 205.833 404.752 204.554 407.964 203.91C410.949 203.364 413.228 203.759 413.368 204.655C413.507 205.55 411.594 206.452 409.217 207.627C406.675 208.845 404.221 210.24 401.874 211.802C399.548 213.399 397.34 215.163 395.268 217.078C393.273 218.914 391.755 220.394 390.882 219.892Z" fill="#FFD6E5"/>
<path d="M254.923 232.803C254.388 232.056 257.39 229.07 262.431 226.619C265.217 225.225 268.215 224.303 271.303 223.892C272.974 223.686 274.665 223.7 276.332 223.934C278.813 224.285 281.184 225.183 283.275 226.563C285.365 227.943 287.122 229.772 288.418 231.916C289.308 233.437 289.915 235.107 290.211 236.844C290.479 238.464 290.457 240.118 290.147 241.73C289.712 244.245 288.483 246.554 286.639 248.32C285.219 249.576 284.072 249.83 283.804 249.469C283.536 249.107 284.075 248.211 284.759 246.824C285.634 245.075 286.138 243.165 286.24 241.212C286.29 240.037 286.163 238.861 285.863 237.724C285.543 236.554 285.035 235.444 284.359 234.437C283.343 232.971 282.046 231.723 280.542 230.764C279.038 229.806 277.359 229.158 275.601 228.857C274.332 228.647 273.043 228.582 271.759 228.661C269.097 228.871 266.471 229.409 263.941 230.263C259.029 231.806 255.475 233.604 254.923 232.803Z" fill="#FFD6E5"/>
<path d="M279.85 251.735C279.752 251.652 279.676 251.545 279.629 251.425C279.583 251.304 279.566 251.175 279.582 251.047C279.609 250.636 279.734 250.238 279.946 249.886C280.635 248.73 281.637 247.793 282.836 247.184C284.441 246.331 286.239 245.907 288.055 245.957C289.872 246.006 291.645 246.525 293.2 247.464C294.729 248.446 295.978 249.806 296.827 251.413C297.675 253.019 298.093 254.818 298.041 256.634C298.022 257.98 297.625 259.294 296.895 260.424C296.676 260.775 296.375 261.066 296.017 261.273C295.907 261.34 295.782 261.381 295.652 261.393C295.523 261.404 295.393 261.385 295.272 261.338C294.829 261.122 294.714 260.531 294.596 259.755C294.497 258.813 294.33 257.879 294.095 256.961C293.825 255.876 293.373 254.844 292.759 253.909C292.185 253.056 291.444 252.327 290.581 251.766C289.692 251.241 288.709 250.895 287.687 250.747C286.562 250.605 285.42 250.653 284.31 250.887C283.381 251.091 282.468 251.36 281.577 251.693C280.818 251.877 280.238 252.04 279.85 251.735Z" fill="#FFD6E5"/>
<path d="M151.577 210.305C151.456 210.095 151.55 209.805 151.824 209.434C152.215 208.937 152.682 208.505 153.208 208.154C154.969 206.957 156.937 206.097 159.012 205.62C161.729 204.958 164.541 204.783 167.318 205.104C170.125 205.417 172.856 206.22 175.385 207.476C177.951 208.746 180.235 210.519 182.101 212.689C184.056 214.947 185.3 217.733 185.676 220.695C185.974 222.959 185.552 225.259 184.471 227.27C183.619 228.738 182.67 229.258 182.305 229.002C181.941 228.746 182.093 227.826 182.21 226.482C182.385 224.774 182.24 223.048 181.784 221.392C181.165 219.312 180.044 217.417 178.519 215.874C176.944 214.274 175.111 212.952 173.096 211.962C171.051 210.941 168.87 210.219 166.62 209.818C164.328 209.416 161.993 209.313 159.673 209.512C155.281 209.825 152.081 211.165 151.577 210.305Z" fill="#FFD6E5"/>
<path d="M125.911 305.217C125.777 305.018 125.956 304.646 126.405 304.13C127.046 303.418 127.765 302.781 128.55 302.231C131.213 300.356 134.127 298.866 137.207 297.805C141.217 296.368 145.416 295.525 149.67 295.305C158.262 294.804 166.809 296.869 174.225 301.238C177.922 303.371 181.287 306.034 184.212 309.142C186.452 311.502 188.348 314.166 189.841 317.057C190.288 317.906 190.636 318.802 190.88 319.729C191.041 320.393 191.005 320.779 190.86 320.92C189.971 321.405 186.949 316.682 181.498 311.978C178.583 309.43 175.385 307.228 171.965 305.414C165.186 301.786 157.594 299.949 149.906 300.076C146.045 300.126 142.202 300.622 138.453 301.552C131.33 303.242 126.486 306.066 125.911 305.217Z" fill="#FFD6E5"/>
<path d="M207.498 343.643C207.513 342.727 209.702 342.097 212.662 342.337C215.858 342.658 218.951 343.643 221.745 345.226C224.539 346.81 226.972 348.959 228.889 351.536C230.61 353.957 231.199 356.151 230.405 356.65C229.611 357.149 228.02 355.819 225.999 354.237C223.868 352.53 221.612 350.986 219.249 349.619C216.865 348.288 214.383 347.142 211.824 346.192C209.429 345.265 207.464 344.601 207.498 343.643Z" fill="#FFD6E5"/>
</svg>
