<svg width="1920" height="114" viewBox="0 0 1920 114" fill="none" xmlns="http://www.w3.org/2000/svg">
<path fill-rule="evenodd" clip-rule="evenodd" d="M287.68 55.3564C298.169 69.9453 343.766 109.931 429.394 104.53C460.224 102.586 499.5 92.2903 542.825 80.9332C640.792 55.253 759.462 24.1455 848 71.8889C882.382 90.4293 914.566 85.9523 960.662 79.5399C993.547 74.9654 1033.51 69.4059 1086.41 70.5153C1205.38 75.525 1274.38 86.8279 1332.89 96.4126C1375.36 103.371 1412.31 109.424 1458.84 111.505C1544.29 115.328 1572.6 96.2069 1594.73 81.2643C1613.22 68.7766 1627.38 59.2072 1666.97 68.3861C1691.67 74.1136 1709.69 79.9838 1723.88 84.611C1764.7 97.9141 1774 100.944 1820.12 60.7768C1845.58 38.6098 1858.44 40.1715 1887.33 43.6765C1908.02 46.1874 1936.92 49.6955 1984.56 46.1923C2075.87 39.4774 2084 13.3357 2084 -2H991.353H990.981H-122C-122 13.3357 -118.011 63.5735 -25 70.2884C24.2087 73.841 81.2053 62.5724 133.363 52.2604C204.436 38.2087 266.525 25.9334 287.68 55.3564Z" fill="white"/>
<path d="M429.394 104.53L429.3 103.033L429.3 103.033L429.394 104.53ZM287.68 55.3564L288.898 54.4807L288.898 54.4807L287.68 55.3564ZM542.825 80.9332L543.206 82.3842L543.206 82.3842L542.825 80.9332ZM848 71.8889L847.288 73.2092L847.288 73.2092L848 71.8889ZM960.662 79.5399L960.456 78.0542L960.456 78.0542L960.662 79.5399ZM1086.41 70.5153L1086.47 69.0166L1086.46 69.016L1086.44 69.0156L1086.41 70.5153ZM1332.89 96.4126L1332.64 97.8928L1332.64 97.8928L1332.89 96.4126ZM1458.84 111.505L1458.78 113.004L1458.78 113.004L1458.84 111.505ZM1594.73 81.2643L1595.57 82.5074L1595.57 82.5074L1594.73 81.2643ZM1666.97 68.3861L1666.63 69.8473L1666.63 69.8473L1666.97 68.3861ZM1723.88 84.611L1724.35 83.1849L1724.35 83.1849L1723.88 84.611ZM1820.12 60.7768L1821.11 61.9079L1821.11 61.9079L1820.12 60.7768ZM1887.33 43.6765L1887.51 42.1874L1887.51 42.1874L1887.33 43.6765ZM1984.56 46.1923L1984.67 47.6882L1984.56 46.1923ZM2084 -2H2085.5V-3.5H2084V-2ZM-122 -2V-3.5H-123.5V-2H-122ZM-25 70.2884L-25.108 71.7845L-25.108 71.7845L-25 70.2884ZM133.363 52.2604L133.072 50.7889L133.072 50.7889L133.363 52.2604ZM429.3 103.033C344.192 108.401 299.089 68.6543 288.898 54.4807L286.462 56.232C297.25 71.2364 343.341 111.461 429.488 106.027L429.3 103.033ZM542.445 79.4823C499.064 90.8537 459.951 101.1 429.3 103.033L429.488 106.027C460.497 104.072 499.935 93.7268 543.206 82.3842L542.445 79.4823ZM848.712 70.5686C804.074 46.4981 751.932 42.3512 698.807 47.3839C645.684 52.4163 591.406 66.6478 542.445 79.4823L543.206 82.3842C592.21 69.5384 646.251 55.376 699.09 50.3705C751.926 45.3652 803.388 49.5362 847.288 73.2092L848.712 70.5686ZM960.456 78.0542C914.273 84.4785 882.594 88.8393 848.712 70.5686L847.288 73.2092C882.17 92.0192 914.858 87.426 960.869 81.0256L960.456 78.0542ZM1086.44 69.0156C1033.42 67.9036 993.351 73.4783 960.456 78.0542L960.869 81.0256C993.743 76.4525 1033.61 70.9082 1086.38 72.015L1086.44 69.0156ZM1086.34 72.014C1205.23 77.0201 1274.16 88.3124 1332.64 97.8928L1333.13 94.9323C1274.59 85.3435 1205.53 74.03 1086.47 69.0166L1086.34 72.014ZM1332.64 97.8928C1375.12 104.851 1412.15 110.918 1458.78 113.004L1458.91 110.007C1412.48 107.93 1375.61 101.891 1333.13 94.9323L1332.64 97.8928ZM1458.78 113.004C1501.62 114.92 1530.23 111.09 1550.96 104.858C1571.72 98.6192 1584.48 89.9943 1595.57 82.5074L1593.89 80.0213C1582.85 87.4769 1570.4 95.8837 1550.1 101.985C1529.78 108.093 1501.52 111.913 1458.91 110.007L1458.78 113.004ZM1595.57 82.5074C1604.84 76.2465 1612.8 70.8838 1623.31 68.152C1633.81 65.4263 1646.99 65.292 1666.63 69.8473L1667.31 66.9248C1647.37 62.3012 1633.67 62.3622 1622.56 65.2484C1611.47 68.1285 1603.11 73.7945 1593.89 80.0213L1595.57 82.5074ZM1666.63 69.8473C1691.27 75.5593 1709.23 81.4123 1723.42 86.0372L1724.35 83.1849C1710.14 78.5553 1692.08 72.6679 1667.31 66.9248L1666.63 69.8473ZM1723.42 86.0372C1743.71 92.6497 1756.65 96.9087 1770.3 94.2169C1783.94 91.5291 1798.07 81.9699 1821.11 61.9079L1819.14 59.6456C1796.05 79.7509 1782.47 88.7603 1769.72 91.2736C1756.99 93.7829 1744.88 89.8755 1724.35 83.1849L1723.42 86.0372ZM1821.11 61.9079C1833.73 50.917 1843.07 45.9451 1852.72 44.0722C1862.45 42.1839 1872.64 43.4048 1887.15 45.1656L1887.51 42.1874C1873.13 40.4432 1862.44 39.1307 1852.15 41.1271C1841.79 43.1389 1831.97 48.4695 1819.14 59.6456L1821.11 61.9079ZM1887.15 45.1656C1907.88 47.6816 1936.89 51.2017 1984.67 47.6882L1984.45 44.6963C1936.95 48.1893 1908.15 44.6931 1887.51 42.1874L1887.15 45.1656ZM1984.67 47.6882C2030.41 44.3247 2055.6 36.0852 2069.38 26.5629C2076.29 21.7823 2080.35 16.668 2082.66 11.6873C2084.97 6.71419 2085.5 1.97016 2085.5 -2H2082.5C2082.5 1.69767 2082.01 5.97223 2079.94 10.4237C2077.88 14.8675 2074.2 19.5838 2067.67 24.0949C2054.56 33.1561 2030.03 41.3449 1984.45 44.6963L1984.67 47.6882ZM2084 -3.5H991.353V-0.5H2084V-3.5ZM991.353 -3.5H990.981V-0.5H991.353V-3.5ZM-122 -0.5H990.981V-3.5H-122V-0.5ZM-24.892 68.7923C-71.137 65.4536 -94.9406 51.3229 -107.222 36.4229C-119.519 21.5026 -120.5 5.53021 -120.5 -2H-123.5C-123.5 5.80544 -122.486 22.6198 -109.537 38.331C-96.5702 54.0626 -71.8738 68.4082 -25.108 71.7845L-24.892 68.7923ZM133.072 50.7889C80.8601 61.1116 24.0758 72.3275 -24.892 68.7923L-25.108 71.7845C24.3417 75.3545 81.5505 64.0332 133.654 53.7319L133.072 50.7889ZM288.898 54.4807C277.827 39.0837 256.258 34.8581 229.177 36.0067C201.987 37.1601 168.57 43.7708 133.072 50.7889L133.654 53.7319C169.23 46.6983 202.394 40.1455 229.304 39.0041C256.325 37.8579 276.377 42.2061 286.462 56.232L288.898 54.4807Z" fill="#161566"/>
</svg>
