<svg width="868" height="172" viewBox="0 0 868 172" fill="none" xmlns="http://www.w3.org/2000/svg">
<mask id="mask0_279_4289" style="mask-type:alpha" maskUnits="userSpaceOnUse" x="0" y="0" width="868" height="172">
<rect width="868" height="172" fill="#D9D9D9"/>
</mask>
<g mask="url(#mask0_279_4289)">
<path d="M883.033 179.329L883.033 31.7578L862.167 31.7578L797.046 66.044L723.442 52.2092L662.219 66.044L645.48 85.8939L571.875 69.6531L535.875 77.0717C515.239 76.8044 473.139 76.4301 469.837 77.0717C466.536 77.7133 423.825 83.2205 402.882 85.8939L113.049 91.1069C106.4 91.1069 64.8807 106.91 59.3933 106.546C41.2787 105.343 85.0748 84.3797 39.9029 93.914C34.5832 95.0368 17.7269 99.0039 0.0050575 116.004L0.00505116 179.329L883.033 179.329Z" fill="#F757B2"/>
<path d="M291.129 94.619C266.71 101.884 271.91 101.57 246.298 97.9858C219.607 94.2633 162.106 87.2189 136.061 92.9046C128.758 94.5258 119.894 94.4639 111.721 96.6912C105.38 98.3948 101.219 99.849 96.5214 101.181C90.4207 102.892 81.0916 109.884 77.3078 110.98C65.9002 114.163 66.7792 108.81 65.9922 105.885C72.9218 101.562 82.2187 98.3675 90.7694 95.7298C110.134 89.6803 131.038 87.3174 150.473 87.019C165.441 86.7941 180.625 88.6856 195.221 85.7066C197.775 85.205 200.337 84.4928 202.21 82.9154C204.083 81.338 204.974 78.6755 203.544 76.7328C202 74.6283 198.696 74.3155 195.802 74.2792C156.672 73.8658 117.488 79.3053 80.4347 90.2429C73.4198 92.1894 63.6757 96.0034 58.7269 99.0684C53.034 102.638 52.2653 105.251 45.0976 103.501C41.4546 102.598 34.1961 100.107 35.1108 96.8646C35.6776 94.7723 39.0312 93.8734 41.2984 92.9939C108.459 65.3668 212.833 66.2591 290.854 55.0003C290.854 55.0003 293.658 55.7723 315.968 60.4675" fill="#F757B2"/>
<path d="M67.4567 95.067C67.0286 95.2121 86.4849 88.3742 95.1412 86.109C111.114 81.9065 138.391 75.5731 161.54 74.387C197.263 72.533 205.42 73.6807 206.235 77.3979C206.997 80.9551 202.151 82.9684 202.151 82.9684C202.151 82.9684 210.581 72.8375 169.667 74.7954C121.259 77.1027 79.8315 90.3319 67.4567 95.067Z" fill="#081B6A" stroke="black" stroke-width="0.401008" stroke-miterlimit="10" stroke-linecap="round" stroke-linejoin="round"/>
<path d="M85.1985 106.695C85.1985 106.695 94.517 99.9673 119.172 94.3443C143.827 88.7213 190.263 91.944 191.889 91.9941C206.053 92.2718 221.315 95.2206 221.315 95.2206C221.315 95.2206 209.347 92.848 188.593 91.4707C174.278 90.4498 111.15 91.3547 85.1985 106.695Z" fill="#081B6A" stroke="black" stroke-width="0.401008" stroke-miterlimit="10" stroke-linecap="round" stroke-linejoin="round"/>
<path d="M202.144 82.9574C202.144 82.9574 198.614 86.7518 183.579 87.1328C168.545 87.5139 141.069 85.2968 119.762 88.6494C98.4557 92.002 77.0619 100.521 64.3129 105.561C56.2832 108.742 46.3206 103.003 67.4501 95.0561" stroke="black" stroke-width="0.401008" stroke-miterlimit="10" stroke-linecap="round" stroke-linejoin="round"/>
<path d="M35.7436 94.7149C35.7436 94.7149 62.2446 85.193 75.7131 81.7574C89.2419 78.3236 113.67 73.8539 145.32 69.7649C176.97 65.6758 232.877 61.3841 239.957 60.8109C247.037 60.2377 260.535 59.0709 264.801 57.9891" stroke="black" stroke-width="0.401008" stroke-miterlimit="10" stroke-linecap="round" stroke-linejoin="round"/>
<path d="M491.762 77.6727C391.589 71.319 313.657 -3.54924 316.325 20.0564C316.814 24.3964 321.021 39.7687 321.447 44.1595C305.612 32.9652 289.668 19.9742 273.749 7.88065C270.821 5.68081 266.598 8.71538 268.531 11.623C273.822 19.5392 279.165 27.6679 284.371 34.6848C286.376 37.3309 288.374 40.135 288.212 42.6617C287.666 50.2399 269.005 44.8131 266.492 51.8033C265.68 53.9936 266.071 60.7568 265.676 63.0653C265.052 66.5799 251.935 70.2901 248.405 72.5549C236.08 80.5616 236.16 89.0558 230.459 100.326C227.441 106.351 226.39 114.494 235.554 120.578C241.488 124.505 249.568 126.072 256.94 127.249C280.798 130.937 304.364 132.875 326.979 132.991" fill="#F757B2"/>
<path d="M268.214 9.08936C268.214 9.08936 266.114 13.2969 275.115 26.4434C284.118 39.5371 290.537 44.9035 283.584 46.7993C276.632 48.695 266.588 43.4807 263.601 50.2453C260.614 57.01 256.103 56.7129 250.004 58.3712C240.489 60.9792 207.229 63.1199 207.229 63.1199C207.229 63.1199 256.229 62.5713 261.957 61.1126C274.757 57.8146 262.499 53.6397 267.939 51.8557C273.38 50.0717 297.933 54.4668 295.041 46.8882C292.147 39.3623 266.37 17.4188 268.214 9.08936Z" fill="#081B6A" stroke="black" stroke-width="0.401008" stroke-miterlimit="10" stroke-linecap="round" stroke-linejoin="round"/>
<path d="M305.68 32.7056C305.68 32.7056 320.216 49.187 323.218 46.5368C326.22 43.8866 320.636 31.2672 318.692 25.6166C316.748 19.966 318.624 15.3296 318.624 15.3296C318.624 15.3296 315.522 15.9725 316.201 26.0674C316.88 36.1622 322.035 39.9602 318.826 40.2834C315.616 40.6065 305.68 32.7056 305.68 32.7056Z" fill="#081B6A" stroke="black" stroke-width="0.401008" stroke-miterlimit="10" stroke-linecap="round" stroke-linejoin="round"/>
<path d="M350.02 28.1172C350.02 28.1172 388.761 53.1497 427.266 67.5736C465.771 81.9975 493.961 72.4748 493.961 72.4748C493.961 72.4748 474.688 79.2656 423.531 59.9691C398.218 50.4872 350.02 28.1172 350.02 28.1172Z" fill="#081B6A" stroke="black" stroke-width="0.401008" stroke-miterlimit="10" stroke-linecap="round" stroke-linejoin="round"/>
<path d="M597.611 89.6955C622.546 95.1045 646.072 93.5607 669.539 84.4729C684.491 78.6567 697.86 70.2074 712.753 64.3367C735.491 55.3846 760.746 52.8392 785.515 50.3843C781.117 50.2489 777.888 46.563 776.466 42.9327C775.106 39.2515 774.904 35.2895 773.176 31.7553C770.671 26.5621 764.793 22.7419 758.364 22.122C761.306 26.9595 761.966 33.0453 756.718 36.0483C751.47 39.0513 736.52 40.3317 730.287 40.8255C697.063 43.5475 668.378 45.8818 635.215 48.6057C632.855 48.7968 630.434 48.986 628.346 49.9238C626.257 50.8617 624.436 52.6516 624.474 54.7098C624.492 57.242 627.067 59.22 629.737 60.3044C633.893 61.9618 638.588 62.2118 643.145 62.8795C647.702 63.5473 652.415 64.8527 655.306 67.9481C658.197 71.0434 660.279 77.7532 655.781 78.6168C638.283 81.7702 620.372 75.6808 604.43 68.6499C588.427 61.6171 575.25 56.3064 557.836 52.8694C545.449 50.4311 531.538 51.3742 515.864 58.645C505.783 63.3453 487.611 77.2375 476.323 78.947C464.914 80.6528 460.579 80.4666 449.036 79.5311C437.492 78.5956 417.324 59.6728 410.902 64.855C435.5 68.1439 456.538 87.9373 481.119 84.158C495.26 82.0089 508.891 77.5234 523.079 75.6922C547.579 72.4379 573.211 75.4949 594.032 87.2119" fill="#081B6A"/>
<path d="M597.611 89.6955C622.546 95.1045 646.072 93.5607 669.539 84.4729C684.491 78.6567 697.86 70.2074 712.753 64.3367C735.491 55.3846 760.746 52.8392 785.515 50.3843C781.117 50.2489 777.888 46.563 776.466 42.9327C775.106 39.2515 774.904 35.2895 773.176 31.7553C770.671 26.5621 764.793 22.7419 758.364 22.122C761.306 26.9595 761.966 33.0453 756.718 36.0483C751.47 39.0513 736.52 40.3317 730.287 40.8255C697.063 43.5475 668.379 45.8818 635.215 48.6057C632.855 48.7968 630.434 48.986 628.346 49.9238C626.257 50.8617 624.436 52.6516 624.474 54.7098C624.492 57.242 627.067 59.22 629.737 60.3044C633.893 61.9618 638.588 62.2118 643.145 62.8795C647.702 63.5473 652.415 64.8527 655.306 67.9481C658.197 71.0434 660.279 77.7532 655.781 78.6168C638.283 81.7702 620.372 75.6808 604.43 68.6499C588.427 61.6171 575.25 56.3064 557.836 52.8694C545.449 50.4311 531.538 51.3742 515.864 58.645C505.783 63.3453 487.611 77.2375 476.323 78.947C464.914 80.6528 460.579 80.4666 449.036 79.5311C437.492 78.5956 417.324 59.6728 410.902 64.855C435.5 68.1439 456.538 87.9373 481.119 84.158C495.26 82.0089 508.891 77.5234 523.079 75.6922C547.579 72.4379 573.211 75.4949 594.032 87.2119" stroke="black" stroke-width="0.401008" stroke-miterlimit="10" stroke-linecap="round" stroke-linejoin="round"/>
<path d="M635.503 99.9303C650.979 103.571 685.647 94.9337 699.389 87.7089C701.608 86.5114 703.828 85.3139 706.108 84.1183C717.639 77.8803 729.292 71.5934 742.626 69.9996C757.535 68.2433 772.497 72.6596 786.407 77.7292C800.317 82.7989 806.515 86.1543 821.549 87.3027C836.582 88.4511 849.259 82.1957 856.598 70.7126C860.073 65.2816 870.101 52.9319 875.688 48.9899C914.419 21.859 924.908 26.5068 931.073 24.6924C937.176 22.9287 944.292 21.46 943.064 4.01695C943.064 4.01695 905.737 21.75 884.091 26.0415C862.443 30.3857 845.875 31.4053 834.168 40.5387C822.46 49.6721 757.316 54.2069 738.534 56.2659" fill="#081B6A"/>
<path d="M635.503 99.9303C650.979 103.571 685.647 94.9337 699.389 87.7089C701.608 86.5114 703.828 85.3139 706.108 84.1183C717.639 77.8803 729.292 71.5934 742.626 69.9996C757.535 68.2433 772.497 72.6596 786.407 77.7292C800.317 82.7989 806.515 86.1543 821.549 87.3027C836.582 88.4511 849.259 82.1957 856.598 70.7126C860.073 65.2816 870.101 52.9319 875.688 48.9899C914.419 21.859 924.908 26.5068 931.073 24.6924C937.176 22.9287 944.292 21.46 943.064 4.01695C943.064 4.01695 905.737 21.75 884.091 26.0415C862.443 30.3857 845.875 31.4053 834.168 40.5387C822.46 49.6721 757.316 54.2069 738.534 56.2659" stroke="black" stroke-width="0.401008" stroke-miterlimit="10" stroke-linecap="round" stroke-linejoin="round"/>
<path d="M450.353 72.2938C463.976 75.5085 486.097 74.3962 496.024 70.5351C509.016 65.4497 510.027 64.3205 520.434 60.5268C539.352 53.5669 561.103 58.6669 580.268 65.0586C599.432 71.4503 619.145 79.2302 639.602 77.4865C646.502 76.9078 654.783 73.4706 654.302 67.4431C653.778 60.9923 644.269 58.9591 636.936 58.3114C635.555 58.1634 634.115 57.9608 632.62 57.6511C626.042 56.2355 627.046 47.7747 633.808 47.6137C666.538 46.6697 699.206 45.7766 731.936 44.8326C741.538 44.548 751.872 44.075 759.382 38.8209C766.892 33.5667 770.997 30.4758 762.791 26.0564C721.387 7.21841 833.11 21.8392 879.093 19.8263C904.471 18.7088 917.065 5.54147 917.985 -3.81852C918.819 -12.5482 943.674 -14.1565 946.926 2.4522C948.333 9.45762 941.686 15.7404 934.78 19.4836C913.945 30.604 885.861 30.0032 868.081 44.6459C855.294 55.1174 849.351 72.3925 833.193 78.2242C818.626 83.4721 802.357 77.064 787.393 72.7004C765.276 66.2178 746.621 60.633 724.802 67.7146C704.513 74.2631 682.098 91.664 661.592 97.6257C615.695 110.981 584.146 72.0874 536.497 79.5342C515.253 82.836 512.071 86.9575 490.485 86.7677C477.342 86.6268 471.813 87.617 443.727 79.5793C417.907 72.1916 406.654 61.0328 394.362 53.2176C394.365 53.165 410.737 63.0045 450.353 72.2938Z" fill="#F757B2" stroke="black" stroke-width="0.401008" stroke-miterlimit="10" stroke-linecap="round" stroke-linejoin="round"/>
<path d="M798.74 32.0176C805.285 32.7466 810.946 32.9735 816.719 30.4086C817.579 30.0132 818.446 29.4597 818.48 28.6168C818.47 27.3507 816.977 26.9883 815.779 26.7931C801.868 24.7299 788.018 22.6685 774.107 20.6052C772.788 20.4064 771.469 20.2076 770.239 20.8026C769.686 21.0493 769.305 21.5123 769.164 22.0353C768.807 23.3957 770.34 24.2868 771.704 24.8562C773.484 25.5966 775.263 26.3371 777.047 26.9722C783.469 29.2796 790.221 30.8588 797.122 31.7569C797.72 31.8808 798.32 31.952 798.74 32.0176Z" fill="white" stroke="#000207" stroke-width="0.401008" stroke-miterlimit="10" stroke-linecap="round" stroke-linejoin="round"/>
<path d="M828.694 26.7124C826.166 26.5818 823.722 25.8736 821.597 24.7006C821.008 24.366 820.306 23.817 820.452 23.1886C820.598 22.5601 821.394 22.2682 822.063 22.1305C826.26 21.2576 830.873 22.0326 834.403 24.2509C834.932 24.5837 835.514 25.129 835.251 25.6484C835.054 26.0642 834.445 26.2037 833.959 26.2943C832.38 26.5621 831.657 26.5399 830.024 26.6478L828.694 26.7124Z" fill="white" stroke="#000207" stroke-width="0.401008" stroke-miterlimit="10" stroke-linecap="round" stroke-linejoin="round"/>
<path d="M634.106 47.8404C667.306 53.1873 713.712 60.1539 746.4 52.7739C752.914 51.2867 759.696 49.122 763.925 44.4526C768.152 39.8358 768.522 32.1467 763.118 28.552" stroke="#000207" stroke-width="0.401008" stroke-miterlimit="10" stroke-linecap="round" stroke-linejoin="round"/>
<path d="M723.371 68.9336C745.654 65.2946 768.6 64.6824 791.058 67.167C802.888 68.4805 816.388 70.2674 825.465 63.532C833.921 57.2522 835.423 45.4311 844.744 40.1273C849.93 37.1751 856.393 36.9521 862.515 36.1912C882.704 33.648 901.649 24.5265 914.862 10.9562" stroke="#000207" stroke-width="0.401008" stroke-miterlimit="10" stroke-linecap="round" stroke-linejoin="round"/>
<path d="M476.813 86.4018C501.458 87.0023 513.686 76.9355 523.099 70.8433C539.883 59.9675 564.389 59.5615 587.888 67.6689" stroke="#000207" stroke-width="0.401008" stroke-miterlimit="10" stroke-linecap="round" stroke-linejoin="round"/>
<path d="M653.431 71.1625C649.71 76.6914 639.106 82.3778 631.833 83.2615C613.465 85.5442 591.086 76.5746 572.805 73.6911C554.524 70.8077 536.129 73.7752 520.63 82.6864" stroke="#000207" stroke-width="0.401008" stroke-miterlimit="10" stroke-linecap="round" stroke-linejoin="round"/>
<path d="M367.611 49.6451C367.611 49.6451 328.928 18.6544 323.707 19.4958C318.486 20.3372 338.018 40.0842 344.655 43.0312C351.292 45.9781 352.983 42.9183 365.286 51.947C377.589 60.9756 372.828 53.3922 367.611 49.6451Z" fill="white" stroke="black" stroke-width="0.401008" stroke-miterlimit="10" stroke-linecap="round" stroke-linejoin="round"/>
<path d="M337.333 27.1882L329.346 29.3158C329.346 29.3158 336.858 38.9881 342.55 41.4313C334.298 31.0683 352.762 40.4455 356.582 42.9365C360.462 45.4295 366.27 48.5434 366.27 48.5434C366.27 48.5434 345.503 31.0263 337.333 27.1882Z" fill="#081B6A" stroke="black" stroke-width="0.401008" stroke-miterlimit="10" stroke-linecap="round" stroke-linejoin="round"/>
<path d="M268.212 9.08436C268.212 9.08436 269.034 5.15391 274.684 8.65065C280.333 12.1474 305.684 32.7065 305.684 32.7065" stroke="black" stroke-width="0.401008" stroke-miterlimit="10" stroke-linecap="round" stroke-linejoin="round"/>
<path d="M318.566 15.3775C318.566 15.3775 318.633 12.215 336.643 21.8412C348.277 28.0011 356.025 31.8262 356.025 31.8262" stroke="black" stroke-width="0.401008" stroke-miterlimit="10" stroke-linecap="round" stroke-linejoin="round"/>
</g>
</svg>
