<svg width="24" height="179" viewBox="0 0 24 179" fill="none" xmlns="http://www.w3.org/2000/svg">
<g filter="url(#filter0_d_279_4509)">
<path d="M6.99464 0.199998H15.0186L15.0186 24H6.99464L6.99464 0.199998ZM13.6835 56.062C15.9728 56.062 17.8088 56.7533 19.1915 58.136C20.5968 59.5187 21.2995 61.604 21.2995 64.392L21.2995 75H13.6155L13.6155 65.718C13.6155 63.5873 12.8561 62.522 11.3375 62.522C10.4761 62.522 9.77348 62.828 9.22948 63.44C8.70814 64.0293 8.44748 64.97 8.44748 66.262L8.44748 75H0.763477L0.763477 56.402H8.07348L8.07348 58.238C8.79881 57.5127 9.63748 56.9687 10.5895 56.606C11.5415 56.2433 12.5728 56.062 13.6835 56.062ZM13.7577 108.422H17.8037L17.8037 114.032H13.9957L13.9957 126H6.31172L6.31172 114.032H3.76172L3.76172 108.422H6.31172L6.31172 108.32C6.31172 105.895 7.03705 103.979 8.48772 102.574C9.93839 101.146 11.9784 100.432 14.6077 100.432C15.4691 100.432 16.3077 100.511 17.1237 100.67C17.9397 100.829 18.6197 101.055 19.1637 101.35L17.3277 106.688C16.6931 106.393 16.1151 106.246 15.5937 106.246C15.0271 106.246 14.5737 106.427 14.2337 106.79C13.9164 107.13 13.7577 107.663 13.7577 108.388V108.422ZM11.0045 177.34C8.94185 177.34 7.08318 176.932 5.42852 176.116C3.79652 175.277 2.51585 174.133 1.58652 172.682C0.657182 171.209 0.192516 169.543 0.192516 167.684C0.192516 165.825 0.657182 164.171 1.58652 162.72C2.51585 161.247 3.79652 160.102 5.42852 159.286C7.08318 158.47 8.94185 158.062 11.0045 158.062C13.0898 158.062 14.9485 158.47 16.5805 159.286C18.2352 160.102 19.5159 161.247 20.4225 162.72C21.3518 164.171 21.8165 165.825 21.8165 167.684C21.8165 169.543 21.3518 171.209 20.4225 172.682C19.5159 174.133 18.2352 175.277 16.5805 176.116C14.9485 176.932 13.0898 177.34 11.0045 177.34ZM11.0045 171.356C11.8885 171.356 12.6138 171.039 13.1805 170.404C13.7472 169.747 14.0305 168.84 14.0305 167.684C14.0305 166.528 13.7472 165.633 13.1805 164.998C12.6138 164.363 11.8885 164.046 11.0045 164.046C10.1205 164.046 9.39518 164.363 8.82852 164.998C8.26185 165.633 7.97852 166.528 7.97852 167.684C7.97852 168.84 8.26185 169.747 8.82852 170.404C9.39518 171.039 10.1205 171.356 11.0045 171.356Z" fill="white"/>
<path d="M6.99464 0.199999L6.99464 -0.800001H5.99464L5.99464 0.199999H6.99464ZM15.0186 0.199999L16.0186 0.199999L16.0186 -0.800001L15.0186 -0.800001L15.0186 0.199999ZM15.0186 24L15.0186 25H16.0186L16.0186 24H15.0186ZM6.99464 24H5.99464L5.99464 25H6.99464L6.99464 24ZM6.99464 1.2H15.0186L15.0186 -0.800001H6.99464L6.99464 1.2ZM14.0186 0.199999L14.0186 24H16.0186L16.0186 0.199999L14.0186 0.199999ZM15.0186 23H6.99464L6.99464 25H15.0186L15.0186 23ZM7.99464 24L7.99464 0.199999H5.99464L5.99464 24H7.99464ZM19.1915 58.136L18.4843 58.8431L18.4901 58.8488L19.1915 58.136ZM21.2995 75L21.2995 76H22.2995L22.2995 75H21.2995ZM13.6155 75H12.6155L12.6155 76H13.6155L13.6155 75ZM9.22948 63.44L8.48207 62.7756L8.48048 62.7774L9.22948 63.44ZM8.44748 75L8.44748 76H9.44748L9.44748 75H8.44748ZM0.763477 75H-0.236523L-0.236523 76H0.763477L0.763477 75ZM0.763477 56.402L0.763477 55.402H-0.236523L-0.236523 56.402H0.763477ZM8.07348 56.402H9.07348L9.07348 55.402H8.07348L8.07348 56.402ZM8.07348 58.238H7.07348L7.07348 60.6522L8.78058 58.9451L8.07348 58.238ZM10.5895 56.606L10.9455 57.5405H10.9455L10.5895 56.606ZM13.6835 57.062C15.7564 57.062 17.3212 57.6799 18.4844 58.8431L19.8986 57.4289C18.2964 55.8268 16.1892 55.062 13.6835 55.062L13.6835 57.062ZM18.4901 58.8488C19.6369 59.9771 20.2995 61.7595 20.2995 64.392H22.2995C22.2995 61.4485 21.5568 59.0603 19.8928 57.4232L18.4901 58.8488ZM20.2995 64.392L20.2995 75H22.2995L22.2995 64.392H20.2995ZM21.2995 74H13.6155L13.6155 76H21.2995L21.2995 74ZM14.6155 75L14.6155 65.718H12.6155L12.6155 75H14.6155ZM14.6155 65.718C14.6155 64.5641 14.4153 63.5193 13.8603 62.7406C13.2609 61.8996 12.3605 61.522 11.3375 61.522L11.3375 63.522C11.8331 63.522 12.0718 63.6771 12.2317 63.9014C12.436 64.1881 12.6155 64.7412 12.6155 65.718H14.6155ZM11.3375 61.522C10.2073 61.522 9.22673 61.9379 8.48207 62.7756L9.97689 64.1044C10.3202 63.7181 10.745 63.522 11.3375 63.522L11.3375 61.522ZM8.48048 62.7774C7.72132 63.6356 7.44748 64.8725 7.44748 66.262H9.44748C9.44748 65.0675 9.69497 64.4231 9.97847 64.1026L8.48048 62.7774ZM7.44748 66.262L7.44748 75H9.44748L9.44748 66.262H7.44748ZM8.44748 74H0.763477L0.763477 76H8.44748L8.44748 74ZM1.76348 75L1.76348 56.402H-0.236523L-0.236523 75H1.76348ZM0.763477 57.402H8.07348L8.07348 55.402H0.763477L0.763477 57.402ZM7.07348 56.402L7.07348 58.238H9.07348L9.07348 56.402H7.07348ZM8.78058 58.9451C9.40693 58.3188 10.1262 57.8526 10.9455 57.5405L10.2335 55.6715C9.14879 56.0847 8.19069 56.7066 7.36637 57.5309L8.78058 58.9451ZM10.9455 57.5405C11.7739 57.2249 12.6835 57.062 13.6835 57.062L13.6835 55.062C12.4622 55.062 11.309 55.2618 10.2335 55.6715L10.9455 57.5405ZM13.7577 108.422H12.7577L12.7577 109.422H13.7577L13.7577 108.422ZM17.8037 108.422H18.8037L18.8037 107.422H17.8037L17.8037 108.422ZM17.8037 114.032L17.8037 115.032H18.8037L18.8037 114.032H17.8037ZM13.9957 114.032L13.9957 113.032H12.9957L12.9957 114.032H13.9957ZM13.9957 126L13.9957 127H14.9957L14.9957 126H13.9957ZM6.31172 126H5.31172L5.31172 127H6.31172L6.31172 126ZM6.31172 114.032H7.31172L7.31172 113.032H6.31172L6.31172 114.032ZM3.76172 114.032H2.76172L2.76172 115.032H3.76172L3.76172 114.032ZM3.76172 108.422L3.76172 107.422H2.76172L2.76172 108.422H3.76172ZM6.31172 108.422L6.31172 109.422H7.31172L7.31172 108.422H6.31172ZM8.48772 102.574L9.18354 103.292L9.18924 103.287L8.48772 102.574ZM17.1237 100.67L17.3146 99.6884L17.1237 100.67ZM19.1637 101.35L20.1093 101.675L20.3849 100.874L19.64 100.471L19.1637 101.35ZM17.3277 106.688L16.9066 107.595L17.9126 108.062L18.2733 107.013L17.3277 106.688ZM14.2337 106.79L13.5042 106.106L13.5027 106.108L14.2337 106.79ZM13.7577 109.422H17.8037L17.8037 107.422H13.7577L13.7577 109.422ZM16.8037 108.422L16.8037 114.032H18.8037L18.8037 108.422H16.8037ZM17.8037 113.032H13.9957L13.9957 115.032H17.8037L17.8037 113.032ZM12.9957 114.032L12.9957 126H14.9957L14.9957 114.032H12.9957ZM13.9957 125H6.31172L6.31172 127H13.9957L13.9957 125ZM7.31172 126L7.31172 114.032H5.31172L5.31172 126H7.31172ZM6.31172 113.032H3.76172L3.76172 115.032H6.31172L6.31172 113.032ZM4.76172 114.032L4.76172 108.422H2.76172L2.76172 114.032H4.76172ZM3.76172 109.422H6.31172L6.31172 107.422H3.76172L3.76172 109.422ZM7.31172 108.422V108.32H5.31172L5.31172 108.422H7.31172ZM7.31172 108.32C7.31172 106.107 7.96562 104.472 9.18351 103.292L7.79192 101.856C6.10848 103.487 5.31172 105.682 5.31172 108.32H7.31172ZM9.18924 103.287C10.4028 102.092 12.1611 101.432 14.6077 101.432L14.6077 99.432C11.7957 99.432 9.47399 100.2 7.7862 101.861L9.18924 103.287ZM14.6077 101.432C15.4073 101.432 16.182 101.506 16.9328 101.652L17.3146 99.6884C16.4335 99.5171 15.5308 99.432 14.6077 99.432L14.6077 101.432ZM16.9328 101.652C17.681 101.797 18.2575 101.996 18.6874 102.229L19.64 100.471C18.9819 100.114 18.1984 99.8602 17.3146 99.6884L16.9328 101.652ZM18.2181 101.025L16.3821 106.363L18.2733 107.013L20.1093 101.675L18.2181 101.025ZM17.7488 105.781C17.0251 105.445 16.3013 105.246 15.5937 105.246L15.5937 107.246C15.9288 107.246 16.361 107.342 16.9066 107.595L17.7488 105.781ZM15.5937 105.246C14.7931 105.246 14.0604 105.513 13.5042 106.106L14.9633 107.474C15.087 107.342 15.261 107.246 15.5937 107.246L15.5937 105.246ZM13.5027 106.108C12.9377 106.713 12.7577 107.546 12.7577 108.388H14.7577C14.7577 107.779 14.8951 107.547 14.9648 107.472L13.5027 106.108ZM12.7577 108.388V108.422H14.7577V108.388H12.7577ZM5.42852 176.116L4.97145 177.005L4.9788 177.009L4.98622 177.013L5.42852 176.116ZM1.58652 172.682L0.740697 173.216L0.744483 173.221L1.58652 172.682ZM1.58652 162.72L2.42857 163.259L2.43231 163.254L1.58652 162.72ZM5.42852 159.286L4.98622 158.389L4.9813 158.392L5.42852 159.286ZM16.5805 159.286L16.1333 160.18L16.1382 160.183L16.5805 159.286ZM20.4225 162.72L19.5709 163.244L19.5756 163.252L19.5805 163.259L20.4225 162.72ZM20.4225 172.682L19.5767 172.148L19.5745 172.152L20.4225 172.682ZM16.5805 176.116L17.0277 177.01L17.0326 177.008L16.5805 176.116ZM13.1805 170.404L13.9265 171.07L13.9322 171.064L13.9379 171.057L13.1805 170.404ZM8.82852 170.404L8.07111 171.057L8.07679 171.064L8.08258 171.07L8.82852 170.404ZM11.0045 176.34C9.07696 176.34 7.3724 175.96 5.87081 175.219L4.98622 177.013C6.79397 177.904 8.80674 178.34 11.0045 178.34L11.0045 176.34ZM5.88558 175.227C4.39995 174.463 3.25647 173.435 2.42855 172.143L0.744483 173.221C1.77523 174.83 3.19308 176.092 4.97145 177.005L5.88558 175.227ZM2.43231 172.148C1.61055 170.846 1.19252 169.367 1.19252 167.684H-0.807484C-0.807484 169.718 -0.29618 171.572 0.740718 173.215L2.43231 172.148ZM1.19252 167.684C1.19252 166.001 1.61053 164.536 2.42855 163.259L0.744483 162.181C-0.296162 163.805 -0.807484 165.65 -0.807484 167.684H1.19252ZM2.43231 163.254C3.25951 161.942 4.39895 160.919 5.87573 160.18L4.9813 158.392C3.19409 159.285 1.77219 160.551 0.740718 162.186L2.43231 163.254ZM5.87081 160.183C7.3724 159.442 9.07696 159.062 11.0045 159.062L11.0045 157.062C8.80674 157.062 6.79397 157.498 4.98622 158.389L5.87081 160.183ZM11.0045 159.062C12.9569 159.062 14.6588 159.443 16.1333 160.18L17.0277 158.392C15.2382 157.497 13.2228 157.062 11.0045 157.062L11.0045 159.062ZM16.1382 160.183C17.6358 160.921 18.7695 161.942 19.5709 163.244L21.2742 162.196C20.2622 160.551 18.8346 159.283 17.0228 158.389L16.1382 160.183ZM19.5805 163.259C20.3985 164.536 20.8165 166.001 20.8165 167.684H22.8165C22.8165 165.65 22.3052 163.805 21.2646 162.181L19.5805 163.259ZM20.8165 167.684C20.8165 169.367 20.3985 170.846 19.5767 172.148L21.2683 173.215C22.3052 171.572 22.8165 169.718 22.8165 167.684H20.8165ZM19.5745 172.152C18.7725 173.435 17.6348 174.461 16.1284 175.224L17.0326 177.008C18.8356 176.094 20.2592 174.83 21.2705 173.212L19.5745 172.152ZM16.1333 175.222C14.6588 175.959 12.9569 176.34 11.0045 176.34L11.0045 178.34C13.2228 178.34 15.2382 177.905 17.0277 177.01L16.1333 175.222ZM11.0045 172.356C12.1608 172.356 13.1618 171.926 13.9265 171.07L12.4346 169.738C12.0659 170.151 11.6163 170.356 11.0045 170.356L11.0045 172.356ZM13.9379 171.057C14.7067 170.165 15.0305 168.999 15.0305 167.684H13.0305C13.0305 168.681 12.7877 169.328 12.4231 169.751L13.9379 171.057ZM15.0305 167.684C15.0305 166.371 14.7076 165.207 13.9265 164.332L12.4346 165.664C12.7868 166.058 13.0305 166.685 13.0305 167.684H15.0305ZM13.9265 164.332C13.1618 163.476 12.1608 163.046 11.0045 163.046L11.0045 165.046C11.6163 165.046 12.0659 165.251 12.4346 165.664L13.9265 164.332ZM11.0045 163.046C9.84827 163.046 8.84722 163.476 8.08258 164.332L9.57445 165.664C9.94315 165.251 10.3928 165.046 11.0045 165.046L11.0045 163.046ZM8.08258 164.332C7.30143 165.207 6.97852 166.371 6.97852 167.684H8.97852C8.97852 166.685 9.22227 166.058 9.57445 165.664L8.08258 164.332ZM6.97852 167.684C6.97852 168.999 7.30237 170.165 8.07111 171.057L9.58593 169.751C9.22133 169.328 8.97852 168.681 8.97852 167.684H6.97852ZM8.08258 171.07C8.84722 171.926 9.84827 172.356 11.0045 172.356L11.0045 170.356C10.3928 170.356 9.94315 170.151 9.57445 169.738L8.08258 171.07Z" fill="black"/>
</g>
<defs>
<filter id="filter0_d_279_4509" x="0.193359" y="0.203125" width="23.623" height="178.141" filterUnits="userSpaceOnUse" color-interpolation-filters="sRGB">
<feFlood flood-opacity="0" result="BackgroundImageFix"/>
<feColorMatrix in="SourceAlpha" type="matrix" values="0 0 0 0 0 0 0 0 0 0 0 0 0 0 0 0 0 0 127 0" result="hardAlpha"/>
<feOffset dx="2" dy="1"/>
<feComposite in2="hardAlpha" operator="out"/>
<feColorMatrix type="matrix" values="0 0 0 0 0.105882 0 0 0 0 0.105882 0 0 0 0 0.121569 0 0 0 1 0"/>
<feBlend mode="normal" in2="BackgroundImageFix" result="effect1_dropShadow_279_4509"/>
<feBlend mode="normal" in="SourceGraphic" in2="effect1_dropShadow_279_4509" result="shape"/>
</filter>
</defs>
</svg>
