<svg width="868" height="172" viewBox="0 0 868 172" fill="none" xmlns="http://www.w3.org/2000/svg">
<mask id="mask0_279_4433" style="mask-type:alpha" maskUnits="userSpaceOnUse" x="0" y="0" width="868" height="172">
<rect x="868" y="172" width="868" height="172" transform="rotate(-180 868 172)" fill="#D9D9D9"/>
</mask>
<g mask="url(#mask0_279_4433)">
<path d="M-15.0332 -7.32878L-15.0332 140.242L5.83295 140.242L70.9537 105.956L144.558 119.791L205.781 105.956L222.52 86.1061L296.125 102.347L332.125 94.9283C352.761 95.1956 394.861 95.5699 398.163 94.9283C401.464 94.2867 444.175 88.7795 465.118 86.1061L754.951 80.8931C761.6 80.8931 803.119 65.0898 808.607 65.4542C826.721 66.6573 782.925 87.6203 828.097 78.086C833.417 76.9632 850.273 72.9961 867.995 55.9961L867.995 -7.32871L-15.0332 -7.32878Z" fill="#2194FF"/>
<path d="M576.875 77.381C601.294 70.1158 596.094 70.4304 621.706 74.0142C648.397 77.7367 705.898 84.7811 731.943 79.0954C739.246 77.4742 748.11 77.5361 756.283 75.3088C762.624 73.6052 766.784 72.151 771.483 70.8188C777.583 69.1078 786.912 62.1164 790.696 61.0198C802.104 57.8372 801.225 63.1899 802.012 66.115C795.082 70.4376 785.785 73.6325 777.235 76.2702C757.87 82.3197 736.965 84.6826 717.531 84.981C702.563 85.2059 687.379 83.3144 672.783 86.2934C670.229 86.795 667.667 87.5072 665.794 89.0846C663.921 90.662 663.03 93.3245 664.46 95.2672C666.004 97.3718 669.308 97.6845 672.202 97.7208C711.332 98.1342 750.516 92.6947 787.569 81.7572C794.584 79.8106 804.328 75.9966 809.277 72.9316C814.97 69.3621 815.739 66.7486 822.906 68.4988C826.549 69.4021 833.808 71.8935 832.893 75.1354C832.326 77.2277 828.973 78.1266 826.706 79.0061C759.545 106.633 655.171 105.741 577.149 117C577.149 117 574.346 116.228 552.036 111.532" fill="#2194FF"/>
<path d="M800.549 76.933C800.977 76.7879 781.521 83.6258 772.865 85.891C756.892 90.0935 729.615 96.4269 706.465 97.613C670.743 99.467 662.586 98.3193 661.771 94.6021C661.009 91.0449 665.855 89.0316 665.855 89.0316C665.855 89.0316 657.425 99.1625 698.339 97.2046C746.746 94.8973 788.174 81.6681 800.549 76.933Z" fill="#081B6A" stroke="black" stroke-width="0.401008" stroke-miterlimit="10" stroke-linecap="round" stroke-linejoin="round"/>
<path d="M782.805 65.3047C782.805 65.3047 773.487 72.0327 748.832 77.6557C724.177 83.2787 677.741 80.056 676.115 80.0059C661.951 79.7282 646.689 76.7794 646.689 76.7794C646.689 76.7794 658.657 79.1521 679.411 80.5293C693.726 81.5502 756.854 80.6453 782.805 65.3047Z" fill="#081B6A" stroke="black" stroke-width="0.401008" stroke-miterlimit="10" stroke-linecap="round" stroke-linejoin="round"/>
<path d="M665.856 89.0426C665.856 89.0426 669.386 85.2482 684.421 84.8672C699.455 84.4861 726.931 86.7032 748.238 83.3506C769.544 79.998 790.938 71.4792 803.687 66.4391C811.717 63.258 821.679 68.9972 800.55 76.9439" stroke="black" stroke-width="0.401008" stroke-miterlimit="10" stroke-linecap="round" stroke-linejoin="round"/>
<path d="M832.256 77.2851C832.256 77.2851 805.755 86.807 792.287 90.2426C778.758 93.6764 754.33 98.1461 722.68 102.235C691.03 106.324 635.123 110.616 628.043 111.189C620.963 111.762 607.465 112.929 603.199 114.011" stroke="black" stroke-width="0.401008" stroke-miterlimit="10" stroke-linecap="round" stroke-linejoin="round"/>
<path d="M376.234 94.3273C476.407 100.681 554.339 175.549 551.671 151.944C551.182 147.604 546.975 132.231 546.549 127.84C562.384 139.035 578.328 152.026 594.247 164.119C597.175 166.319 601.398 163.285 599.465 160.377C594.174 152.461 588.831 144.332 583.625 137.315C581.62 134.669 579.622 131.865 579.784 129.338C580.33 121.76 598.991 127.187 601.505 120.197C602.317 118.006 601.925 111.243 602.32 108.935C602.944 105.42 616.062 101.71 619.591 99.4451C631.916 91.4384 631.836 82.9442 637.538 71.6745C640.555 65.6491 641.606 57.5063 632.442 51.4224C626.508 47.495 618.428 45.9277 611.056 44.7514C587.198 41.0633 563.632 39.1248 541.017 39.0088" fill="#2194FF"/>
<path d="M599.783 162.911C599.783 162.911 601.882 158.703 592.881 145.557C583.878 132.463 577.459 127.096 584.412 125.201C591.364 123.305 601.408 128.519 604.395 121.755C607.382 114.99 611.894 115.287 617.992 113.629C627.507 111.021 660.768 108.88 660.768 108.88C660.768 108.88 611.767 109.429 606.039 110.887C593.239 114.185 605.497 118.36 600.057 120.144C594.617 121.928 570.063 117.533 572.955 125.112C575.849 132.638 601.626 154.581 599.783 162.911Z" fill="#081B6A" stroke="black" stroke-width="0.401008" stroke-miterlimit="10" stroke-linecap="round" stroke-linejoin="round"/>
<path d="M562.314 139.294C562.314 139.294 547.778 122.813 544.776 125.463C541.774 128.113 547.358 140.733 549.302 146.383C551.246 152.034 549.37 156.67 549.37 156.67C549.37 156.67 552.472 156.028 551.793 145.933C551.114 135.838 545.959 132.04 549.169 131.717C552.378 131.394 562.314 139.294 562.314 139.294Z" fill="#081B6A" stroke="black" stroke-width="0.401008" stroke-miterlimit="10" stroke-linecap="round" stroke-linejoin="round"/>
<path d="M517.977 143.883C517.977 143.883 479.235 118.85 440.73 104.426C402.225 90.0025 374.035 99.5252 374.035 99.5252C374.035 99.5252 393.308 92.7344 444.465 112.031C469.779 121.513 517.977 143.883 517.977 143.883Z" fill="#081B6A" stroke="black" stroke-width="0.401008" stroke-miterlimit="10" stroke-linecap="round" stroke-linejoin="round"/>
<path d="M270.385 82.3045C245.45 76.8955 221.925 78.4393 198.457 87.5271C183.505 93.3433 170.136 101.793 155.243 107.663C132.505 116.615 107.25 119.161 82.4809 121.616C86.8787 121.751 90.1081 125.437 91.5302 129.067C92.8899 132.748 93.0923 136.71 94.8199 140.245C97.3251 145.438 103.203 149.258 109.632 149.878C106.69 145.041 106.031 138.955 111.278 135.952C116.526 132.949 131.476 131.668 137.709 131.175C170.933 128.452 199.618 126.118 232.781 123.394C235.141 123.203 237.562 123.014 239.65 122.076C241.739 121.138 243.56 119.348 243.522 117.29C243.504 114.758 240.929 112.78 238.259 111.696C234.103 110.038 229.408 109.788 224.851 109.12C220.294 108.453 215.581 107.147 212.69 104.052C209.799 100.957 207.717 94.2468 212.215 93.3832C229.713 90.2298 247.624 96.3192 263.566 103.35C279.569 110.383 292.746 115.694 310.16 119.131C322.547 121.569 336.458 120.626 352.132 113.355C362.213 108.655 380.385 94.7625 391.673 93.053C403.082 91.3472 407.417 91.5334 418.961 92.4689C430.504 93.4044 450.672 112.327 457.094 107.145C432.496 103.856 411.458 84.0627 386.877 87.842C372.736 89.9911 359.105 94.4766 344.917 96.3078C320.417 99.5621 294.785 96.5051 273.964 84.7881" fill="#081B6A"/>
<path d="M270.385 82.3045C245.45 76.8955 221.925 78.4393 198.457 87.5271C183.505 93.3433 170.136 101.793 155.243 107.663C132.505 116.615 107.25 119.161 82.4809 121.616C86.8787 121.751 90.1081 125.437 91.5302 129.067C92.8899 132.748 93.0923 136.71 94.8199 140.245C97.3251 145.438 103.203 149.258 109.632 149.878C106.69 145.041 106.031 138.955 111.278 135.952C116.526 132.949 131.476 131.668 137.709 131.175C170.933 128.452 199.618 126.118 232.781 123.394C235.141 123.203 237.562 123.014 239.65 122.076C241.739 121.138 243.56 119.348 243.522 117.29C243.504 114.758 240.929 112.78 238.259 111.696C234.103 110.038 229.408 109.788 224.851 109.12C220.294 108.453 215.581 107.147 212.69 104.052C209.799 100.957 207.717 94.2468 212.215 93.3832C229.713 90.2298 247.624 96.3192 263.566 103.35C279.569 110.383 292.746 115.694 310.16 119.131C322.547 121.569 336.458 120.626 352.132 113.355C362.213 108.655 380.385 94.7625 391.673 93.053C403.082 91.3472 407.417 91.5334 418.961 92.4689C430.504 93.4044 450.672 112.327 457.094 107.145C432.496 103.856 411.458 84.0627 386.877 87.842C372.736 89.9911 359.105 94.4766 344.917 96.3078C320.417 99.5621 294.785 96.5051 273.964 84.7881" stroke="black" stroke-width="0.401008" stroke-miterlimit="10" stroke-linecap="round" stroke-linejoin="round"/>
<path d="M232.495 72.0619C217.019 68.4209 182.351 77.0585 168.609 84.2832C166.39 85.4808 164.17 86.6783 161.89 87.8739C150.359 94.1119 138.706 100.399 125.372 101.993C110.463 103.749 95.5014 99.3325 81.5912 94.2629C67.681 89.1933 61.4827 85.8379 46.4495 84.6895C31.4163 83.5411 18.739 89.7965 11.4005 101.28C7.92465 106.711 -2.1027 119.06 -7.69001 123.002C-46.4205 150.133 -56.9097 145.485 -63.0748 147.3C-69.1776 149.063 -76.2939 150.532 -75.066 167.975C-75.066 167.975 -37.7392 150.242 -16.0933 145.951C5.55471 141.606 22.1228 140.587 33.8303 131.454C45.5377 122.32 110.682 117.785 129.464 115.726" fill="#081B6A"/>
<path d="M232.495 72.0619C217.019 68.4209 182.351 77.0585 168.609 84.2832C166.39 85.4808 164.17 86.6783 161.89 87.8739C150.359 94.1119 138.706 100.399 125.372 101.993C110.463 103.749 95.5014 99.3325 81.5912 94.2629C67.681 89.1933 61.4827 85.8379 46.4495 84.6895C31.4163 83.5411 18.739 89.7965 11.4005 101.28C7.92466 106.711 -2.10271 119.06 -7.69001 123.002C-46.4205 150.133 -56.9097 145.485 -63.0748 147.3C-69.1776 149.063 -76.2939 150.532 -75.066 167.975C-75.066 167.975 -37.7392 150.242 -16.0933 145.951C5.55472 141.606 22.1228 140.587 33.8303 131.454C45.5377 122.32 110.682 117.785 129.464 115.726" stroke="black" stroke-width="0.401008" stroke-miterlimit="10" stroke-linecap="round" stroke-linejoin="round"/>
<path d="M417.645 99.7062C404.022 96.4915 381.901 97.6038 371.974 101.465C358.982 106.55 357.971 107.68 347.564 111.473C328.646 118.433 306.896 113.333 287.731 106.941C268.566 100.55 248.853 92.7698 228.396 94.5135C221.496 95.0922 213.215 98.5294 213.696 104.557C214.221 111.008 223.729 113.041 231.062 113.689C232.443 113.837 233.883 114.039 235.378 114.349C241.956 115.765 240.952 124.225 234.19 124.386C201.46 125.33 168.792 126.223 136.062 127.167C126.46 127.452 116.126 127.925 108.616 133.179C101.106 138.433 97.001 141.524 105.207 145.944C146.611 164.782 34.8879 150.161 -11.0949 152.174C-36.4733 153.291 -49.067 166.459 -49.9866 175.819C-50.8206 184.548 -75.676 186.157 -78.928 169.548C-80.3348 162.542 -73.6882 156.26 -66.7819 152.516C-45.9469 141.396 -17.8629 141.997 -0.0828924 127.354C12.7038 116.883 18.6469 99.6075 34.8056 93.7758C49.3725 88.5279 65.6415 94.936 80.6056 99.2996C102.722 105.782 121.377 111.367 143.196 104.285C163.485 97.7369 185.9 80.336 206.406 74.3743C252.303 61.0191 283.852 99.9126 331.501 92.4658C352.745 89.164 355.927 85.0425 377.513 85.2323C390.656 85.3732 396.185 84.383 424.271 92.4207C450.091 99.8084 461.344 110.967 473.636 118.782C473.633 118.835 457.261 108.995 417.645 99.7062Z" fill="#2194FF" stroke="black" stroke-width="0.401008" stroke-miterlimit="10" stroke-linecap="round" stroke-linejoin="round"/>
<path d="M69.2564 139.982C62.7112 139.253 57.0505 139.026 51.2773 141.591C50.417 141.987 49.5502 142.54 49.5163 143.383C49.5256 144.649 51.019 145.012 52.2175 145.207C66.1281 147.27 79.9785 149.332 93.8891 151.395C95.2081 151.594 96.5271 151.792 97.7574 151.197C98.3102 150.951 98.6908 150.488 98.8325 149.965C99.1889 148.604 97.6565 147.713 96.2921 147.144C94.5124 146.403 92.7326 145.663 90.9487 145.028C84.5273 142.72 77.7749 141.141 70.8746 140.243C70.2764 140.119 69.676 140.048 69.2564 139.982Z" fill="white" stroke="#000207" stroke-width="0.401008" stroke-miterlimit="10" stroke-linecap="round" stroke-linejoin="round"/>
<path d="M39.3038 145.288C41.8319 145.418 44.2764 146.126 46.4006 147.299C46.9903 147.634 47.692 148.183 47.5461 148.811C47.4001 149.44 46.6043 149.732 45.9352 149.869C41.7381 150.742 37.1249 149.967 33.5951 147.749C33.0657 147.416 32.4845 146.871 32.7466 146.352C32.9443 145.936 33.5531 145.796 34.0393 145.706C35.6183 145.438 36.3413 145.46 37.9742 145.352L39.3038 145.288Z" fill="white" stroke="#000207" stroke-width="0.401008" stroke-miterlimit="10" stroke-linecap="round" stroke-linejoin="round"/>
<path d="M233.894 124.16C200.694 118.813 154.288 111.846 121.6 119.226C115.086 120.713 108.304 122.878 104.075 127.547C99.8476 132.164 99.4778 139.853 104.882 143.448" stroke="#000207" stroke-width="0.401008" stroke-miterlimit="10" stroke-linecap="round" stroke-linejoin="round"/>
<path d="M144.629 103.059C122.346 106.698 99.4004 107.31 76.9416 104.825C65.1118 103.512 51.6123 101.725 42.5347 108.46C34.0787 114.74 32.5774 126.561 23.2559 131.865C18.0704 134.817 11.6074 135.04 5.48464 135.801C-14.7035 138.344 -33.6486 147.466 -46.8617 161.036" stroke="#000207" stroke-width="0.401008" stroke-miterlimit="10" stroke-linecap="round" stroke-linejoin="round"/>
<path d="M391.185 85.5982C366.54 84.9977 354.312 95.0645 344.899 101.157C328.115 112.033 303.609 112.439 280.11 104.331" stroke="#000207" stroke-width="0.401008" stroke-miterlimit="10" stroke-linecap="round" stroke-linejoin="round"/>
<path d="M214.567 100.838C218.288 95.3086 228.892 89.6222 236.165 88.7385C254.533 86.4558 276.912 95.4254 295.193 98.3089C313.474 101.192 331.869 98.2248 347.368 89.3136" stroke="#000207" stroke-width="0.401008" stroke-miterlimit="10" stroke-linecap="round" stroke-linejoin="round"/>
<path d="M500.389 122.363C500.389 122.363 539.072 153.353 544.293 152.512C549.514 151.671 529.982 131.924 523.345 128.977C516.708 126.03 515.017 129.089 502.714 120.061C490.411 111.032 495.172 118.616 500.389 122.363Z" fill="white" stroke="black" stroke-width="0.401008" stroke-miterlimit="10" stroke-linecap="round" stroke-linejoin="round"/>
<path d="M530.669 144.82L538.656 142.692C538.656 142.692 531.144 133.02 525.452 130.577C533.703 140.939 515.24 131.562 511.42 129.071C507.539 126.578 501.732 123.464 501.732 123.464C501.732 123.464 522.499 140.982 530.669 144.82Z" fill="#081B6A" stroke="black" stroke-width="0.401008" stroke-miterlimit="10" stroke-linecap="round" stroke-linejoin="round"/>
<path d="M599.788 162.916C599.788 162.916 598.966 166.846 593.316 163.349C587.667 159.853 562.316 139.294 562.316 139.294" stroke="black" stroke-width="0.401008" stroke-miterlimit="10" stroke-linecap="round" stroke-linejoin="round"/>
<path d="M549.434 156.622C549.434 156.622 549.367 159.785 531.357 150.159C519.723 143.999 511.975 140.174 511.975 140.174" stroke="black" stroke-width="0.401008" stroke-miterlimit="10" stroke-linecap="round" stroke-linejoin="round"/>
</g>
</svg>
