<svg width="868" height="172" viewBox="0 0 868 172" fill="none" xmlns="http://www.w3.org/2000/svg">
<mask id="mask0_279_4325" style="mask-type:alpha" maskUnits="userSpaceOnUse" x="0" y="0" width="868" height="172">
<rect width="868" height="172" fill="#D9D9D9"/>
</mask>
<g mask="url(#mask0_279_4325)">
<path d="M883.037 179.329L883.037 31.7578L862.171 31.7578L797.05 66.044L723.445 52.2092L662.223 66.044L645.484 85.8939L571.879 69.6531L535.879 77.0717C515.242 76.8044 473.143 76.4301 469.841 77.0717C466.539 77.7133 423.829 83.2205 402.886 85.8939L113.053 91.1069C106.403 91.1069 64.8846 106.91 59.3972 106.546C41.2826 105.343 85.0787 84.3797 39.9069 93.914C34.5872 95.0368 17.7308 99.0039 0.00896375 116.004L0.00895741 179.329L883.037 179.329Z" fill="#2194FF"/>
<path d="M291.133 94.619C266.714 101.884 271.914 101.57 246.302 97.9858C219.611 94.2633 162.11 87.2189 136.065 92.9046C128.762 94.5258 119.897 94.4639 111.725 96.6912C105.384 98.3948 101.223 99.849 96.5253 101.181C90.4246 102.892 81.0955 109.884 77.3117 110.98C65.9041 114.163 66.7831 108.81 65.9961 105.885C72.9257 101.562 82.2226 98.3675 90.7733 95.7298C110.138 89.6803 131.042 87.3174 150.477 87.019C165.444 86.7941 180.629 88.6856 195.225 85.7066C197.778 85.205 200.34 84.4928 202.214 82.9154C204.087 81.338 204.978 78.6755 203.548 76.7328C202.004 74.6282 198.699 74.3155 195.806 74.2792C156.676 73.8658 117.492 79.3053 80.4386 90.2429C73.4237 92.1894 63.6796 96.0034 58.7308 99.0684C53.0379 102.638 52.2692 105.251 45.1015 103.501C41.4585 102.598 34.2 100.107 35.1147 96.8646C35.6815 94.7723 39.0351 93.8734 41.3023 92.9939C108.462 65.3668 212.836 66.2591 290.858 55.0003C290.858 55.0003 293.662 55.7723 315.972 60.4675" fill="#2194FF"/>
<path d="M67.4586 95.067C67.0306 95.2121 86.4869 88.3742 95.1432 86.109C111.116 81.9065 138.393 75.5731 161.542 74.387C197.265 72.533 205.422 73.6807 206.237 77.3979C206.999 80.9551 202.153 82.9684 202.153 82.9684C202.153 82.9684 210.583 72.8375 169.669 74.7954C121.261 77.1027 79.8334 90.3319 67.4586 95.067Z" fill="#081B6A" stroke="black" stroke-width="0.401008" stroke-miterlimit="10" stroke-linecap="round" stroke-linejoin="round"/>
<path d="M85.2044 106.695C85.2044 106.695 94.5229 99.9673 119.178 94.3443C143.833 88.7213 190.269 91.944 191.895 91.9941C206.059 92.2718 221.321 95.2206 221.321 95.2206C221.321 95.2206 209.353 92.848 188.599 91.4707C174.284 90.4498 111.155 91.3547 85.2044 106.695Z" fill="#081B6A" stroke="black" stroke-width="0.401008" stroke-miterlimit="10" stroke-linecap="round" stroke-linejoin="round"/>
<path d="M202.15 82.9574C202.15 82.9574 198.619 86.7518 183.585 87.1328C168.551 87.5139 141.075 85.2968 119.768 88.6494C98.4616 92.002 77.0678 100.521 64.3188 105.561C56.2891 108.742 46.3264 103.003 67.456 95.0561" stroke="black" stroke-width="0.401008" stroke-miterlimit="10" stroke-linecap="round" stroke-linejoin="round"/>
<path d="M35.7515 94.7149C35.7515 94.7149 62.2524 85.193 75.7209 81.7574C89.2497 78.3236 113.677 73.8539 145.328 69.7649C176.978 65.6758 232.885 61.3841 239.965 60.8109C247.045 60.2377 260.543 59.0709 264.809 57.9891" stroke="black" stroke-width="0.401008" stroke-miterlimit="10" stroke-linecap="round" stroke-linejoin="round"/>
<path d="M491.772 77.6727C391.599 71.319 313.666 -3.54924 316.335 20.0564C316.824 24.3964 321.031 39.7687 321.457 44.1595C305.622 32.9652 289.678 19.9742 273.759 7.88065C270.831 5.68081 266.607 8.71538 268.541 11.623C273.832 19.5392 279.175 27.6679 284.381 34.6848C286.386 37.3309 288.384 40.135 288.222 42.6617C287.675 50.2399 269.015 44.8131 266.501 51.8033C265.689 53.9936 266.081 60.7568 265.686 63.0653C265.062 66.5799 251.944 70.2901 248.415 72.5549C236.089 80.5616 236.17 89.0558 230.468 100.326C227.451 106.351 226.4 114.494 235.564 120.578C241.498 124.505 249.578 126.072 256.95 127.249C280.808 130.937 304.374 132.875 326.989 132.991" fill="#2194FF"/>
<path d="M268.223 9.08936C268.223 9.08936 266.124 13.2969 275.125 26.4434C284.128 39.5371 290.547 44.9035 283.594 46.7993C276.642 48.695 266.597 43.4807 263.611 50.2453C260.624 57.01 256.112 56.7129 250.014 58.3712C240.499 60.9792 207.238 63.1199 207.238 63.1199C207.238 63.1199 256.238 62.5713 261.967 61.1126C274.766 57.8146 262.509 53.6397 267.949 51.8557C273.389 50.0717 297.943 54.4668 295.051 46.8882C292.157 39.3623 266.38 17.4188 268.223 9.08936Z" fill="#081B6A" stroke="black" stroke-width="0.401008" stroke-miterlimit="10" stroke-linecap="round" stroke-linejoin="round"/>
<path d="M305.69 32.7056C305.69 32.7056 320.226 49.187 323.228 46.5368C326.23 43.8866 320.646 31.2672 318.702 25.6166C316.758 19.966 318.634 15.3296 318.634 15.3296C318.634 15.3296 315.532 15.9725 316.211 26.0674C316.89 36.1622 322.045 39.9602 318.835 40.2834C315.626 40.6065 305.69 32.7056 305.69 32.7056Z" fill="#081B6A" stroke="black" stroke-width="0.401008" stroke-miterlimit="10" stroke-linecap="round" stroke-linejoin="round"/>
<path d="M350.029 28.1172C350.029 28.1172 388.771 53.1497 427.276 67.5736C465.781 81.9975 493.971 72.4748 493.971 72.4748C493.971 72.4748 474.698 79.2656 423.541 59.9691C398.227 50.4872 350.029 28.1172 350.029 28.1172Z" fill="#081B6A" stroke="black" stroke-width="0.401008" stroke-miterlimit="10" stroke-linecap="round" stroke-linejoin="round"/>
<path d="M597.619 89.6955C622.554 95.1045 646.079 93.5607 669.547 84.4729C684.499 78.6567 697.867 70.2074 712.761 64.3367C735.499 55.3846 760.754 52.8392 785.523 50.3843C781.125 50.2489 777.896 46.563 776.474 42.9327C775.114 39.2515 774.912 35.2895 773.184 31.7553C770.679 26.5621 764.801 22.7419 758.372 22.122C761.314 26.9595 761.973 33.0453 756.725 36.0483C751.478 39.0513 736.528 40.3317 730.295 40.8255C697.071 43.5475 668.386 45.8818 635.223 48.6057C632.862 48.7968 630.442 48.986 628.354 49.9238C626.265 50.8617 624.444 52.6516 624.481 54.7098C624.5 57.242 627.075 59.22 629.745 60.3044C633.901 61.9618 638.595 62.2118 643.153 62.8795C647.71 63.5473 652.422 64.8527 655.314 67.9481C658.205 71.0434 660.287 77.7532 655.789 78.6168C638.291 81.7702 620.38 75.6808 604.438 68.6499C588.435 61.6171 575.258 56.3064 557.844 52.8694C545.457 50.4311 531.546 51.3742 515.872 58.645C505.79 63.3453 487.618 77.2375 476.33 78.947C464.922 80.6528 460.587 80.4666 449.043 79.5311C437.5 78.5956 417.332 59.6728 410.91 64.855C435.508 68.1439 456.546 87.9373 481.127 84.158C495.268 82.0089 508.899 77.5234 523.087 75.6922C547.586 72.4379 573.219 75.4949 594.04 87.2119" fill="#081B6A"/>
<path d="M597.619 89.6955C622.554 95.1045 646.079 93.5607 669.547 84.4729C684.499 78.6567 697.867 70.2074 712.761 64.3367C735.499 55.3846 760.754 52.8392 785.523 50.3843C781.125 50.2489 777.896 46.563 776.474 42.9327C775.114 39.2515 774.912 35.2895 773.184 31.7553C770.679 26.5621 764.801 22.7419 758.372 22.122C761.314 26.9595 761.973 33.0453 756.725 36.0483C751.478 39.0513 736.528 40.3317 730.295 40.8255C697.071 43.5475 668.386 45.8818 635.223 48.6057C632.862 48.7968 630.442 48.986 628.354 49.9238C626.265 50.8617 624.444 52.6516 624.482 54.7098C624.5 57.242 627.075 59.22 629.745 60.3044C633.901 61.9618 638.595 62.2118 643.153 62.8795C647.71 63.5473 652.422 64.8527 655.314 67.9481C658.205 71.0434 660.287 77.7532 655.789 78.6168C638.291 81.7702 620.38 75.6808 604.438 68.6499C588.435 61.6171 575.258 56.3064 557.844 52.8694C545.457 50.4311 531.546 51.3742 515.872 58.645C505.79 63.3453 487.618 77.2375 476.33 78.947C464.922 80.6528 460.587 80.4666 449.043 79.5311C437.5 78.5956 417.332 59.6728 410.91 64.855C435.508 68.1439 456.546 87.9373 481.127 84.158C495.268 82.0089 508.899 77.5234 523.087 75.6922C547.586 72.4379 573.219 75.4949 594.04 87.2119" stroke="black" stroke-width="0.401008" stroke-miterlimit="10" stroke-linecap="round" stroke-linejoin="round"/>
<path d="M635.511 99.9303C650.986 103.571 685.655 94.9337 699.397 87.7089C701.616 86.5114 703.836 85.3139 706.116 84.1183C717.646 77.8803 729.3 71.5934 742.634 69.9996C757.542 68.2433 772.504 72.6596 786.415 77.7292C800.325 82.7989 806.523 86.1543 821.556 87.3027C836.59 88.4511 849.267 82.1957 856.605 70.7126C860.081 65.2816 870.109 52.9319 875.696 48.9899C914.426 21.859 924.916 26.5068 931.081 24.6924C937.183 22.9287 944.3 21.46 943.072 4.01695C943.072 4.01695 905.745 21.75 884.099 26.0415C862.451 30.3858 845.883 31.4053 834.176 40.5387C822.468 49.6721 757.323 54.2069 738.542 56.2659" fill="#081B6A"/>
<path d="M635.511 99.9303C650.986 103.571 685.655 94.9337 699.397 87.7089C701.616 86.5114 703.836 85.3139 706.116 84.1183C717.646 77.8803 729.3 71.5934 742.634 69.9996C757.542 68.2433 772.504 72.6596 786.415 77.7292C800.325 82.7989 806.523 86.1543 821.556 87.3027C836.59 88.4511 849.267 82.1957 856.605 70.7126C860.081 65.2816 870.109 52.9319 875.696 48.9899C914.426 21.859 924.916 26.5068 931.081 24.6924C937.183 22.9287 944.3 21.46 943.072 4.01695C943.072 4.01695 905.745 21.75 884.099 26.0415C862.451 30.3858 845.883 31.4053 834.176 40.5387C822.468 49.6721 757.323 54.2069 738.542 56.2659" stroke="black" stroke-width="0.401008" stroke-miterlimit="10" stroke-linecap="round" stroke-linejoin="round"/>
<path d="M450.361 72.2938C463.984 75.5085 486.105 74.3962 496.032 70.5351C509.024 65.4497 510.035 64.3205 520.442 60.5268C539.36 53.5669 561.11 58.6669 580.275 65.0586C599.44 71.4503 619.153 79.2302 639.61 77.4865C646.51 76.9078 654.791 73.4706 654.31 67.4431C653.785 60.9923 644.277 58.9591 636.944 58.3114C635.563 58.1634 634.123 57.9608 632.628 57.6511C626.05 56.2355 627.054 47.7747 633.816 47.6137C666.546 46.6697 699.214 45.7766 731.944 44.8326C741.546 44.548 751.88 44.075 759.389 38.8209C766.899 33.5667 771.005 30.4758 762.799 26.0564C721.395 7.2184 833.118 21.8392 879.101 19.8263C904.479 18.7088 917.073 5.54147 917.992 -3.81852C918.826 -12.5482 943.682 -14.1565 946.934 2.4522C948.341 9.45762 941.694 15.7404 934.788 19.4836C913.953 30.604 885.869 30.0032 868.089 44.6459C855.302 55.1174 849.359 72.3925 833.2 78.2242C818.633 83.4721 802.364 77.064 787.4 72.7004C765.283 66.2178 746.629 60.633 724.81 67.7146C704.521 74.2631 682.106 91.664 661.599 97.6257C615.703 110.981 584.154 72.0874 536.505 79.5342C515.261 82.836 512.079 86.9575 490.493 86.7677C477.349 86.6268 471.821 87.617 443.735 79.5793C417.914 72.1916 406.662 61.0328 394.37 53.2176C394.372 53.165 410.745 63.0045 450.361 72.2938Z" fill="#2194FF" stroke="black" stroke-width="0.401008" stroke-miterlimit="10" stroke-linecap="round" stroke-linejoin="round"/>
<path d="M798.749 32.0176C805.295 32.7466 810.955 32.9735 816.729 30.4086C817.589 30.0131 818.456 29.4597 818.49 28.6168C818.48 27.3507 816.987 26.9883 815.788 26.7931C801.878 24.7299 788.027 22.6685 774.117 20.6052C772.798 20.4064 771.479 20.2076 770.248 20.8026C769.696 21.0493 769.315 21.5123 769.173 22.0353C768.817 23.3957 770.349 24.2868 771.714 24.8562C773.494 25.5966 775.273 26.3371 777.057 26.9722C783.479 29.2796 790.231 30.8588 797.131 31.7568C797.729 31.8807 798.33 31.952 798.749 32.0176Z" fill="white" stroke="#000207" stroke-width="0.401008" stroke-miterlimit="10" stroke-linecap="round" stroke-linejoin="round"/>
<path d="M828.702 26.7124C826.174 26.5818 823.729 25.8736 821.605 24.7006C821.016 24.366 820.314 23.817 820.46 23.1886C820.606 22.5601 821.402 22.2682 822.071 22.1305C826.268 21.2576 830.881 22.0326 834.411 24.2509C834.94 24.5837 835.521 25.129 835.259 25.6484C835.062 26.0642 834.453 26.2037 833.967 26.2943C832.388 26.5621 831.665 26.5399 830.032 26.6478L828.702 26.7124Z" fill="white" stroke="#000207" stroke-width="0.401008" stroke-miterlimit="10" stroke-linecap="round" stroke-linejoin="round"/>
<path d="M634.112 47.8404C667.312 53.1873 713.718 60.1539 746.406 52.7739C752.919 51.2867 759.702 49.122 763.931 44.4526C768.158 39.8358 768.528 32.1467 763.124 28.552" stroke="#000207" stroke-width="0.401008" stroke-miterlimit="10" stroke-linecap="round" stroke-linejoin="round"/>
<path d="M723.377 68.9336C745.66 65.2946 768.606 64.6824 791.064 67.167C802.894 68.4805 816.394 70.2674 825.471 63.532C833.927 57.2522 835.428 45.4311 844.75 40.1273C849.935 37.1751 856.398 36.9521 862.521 36.1912C882.709 33.648 901.654 24.5265 914.868 10.9562" stroke="#000207" stroke-width="0.401008" stroke-miterlimit="10" stroke-linecap="round" stroke-linejoin="round"/>
<path d="M476.818 86.4018C501.464 87.0023 513.692 76.9355 523.105 70.8433C539.889 59.9675 564.395 59.5615 587.894 67.6689" stroke="#000207" stroke-width="0.401008" stroke-miterlimit="10" stroke-linecap="round" stroke-linejoin="round"/>
<path d="M653.437 71.1625C649.716 76.6914 639.112 82.3778 631.839 83.2615C613.47 85.5442 591.092 76.5746 572.811 73.6911C554.53 70.8077 536.134 73.7752 520.636 82.6864" stroke="#000207" stroke-width="0.401008" stroke-miterlimit="10" stroke-linecap="round" stroke-linejoin="round"/>
<path d="M367.617 49.6451C367.617 49.6451 328.934 18.6544 323.713 19.4958C318.491 20.3372 338.024 40.0842 344.66 43.0312C351.297 45.9781 352.989 42.9183 365.292 51.947C377.595 60.9756 372.834 53.3922 367.617 49.6451Z" fill="white" stroke="black" stroke-width="0.401008" stroke-miterlimit="10" stroke-linecap="round" stroke-linejoin="round"/>
<path d="M337.337 27.1882L329.35 29.3158C329.35 29.3158 336.862 38.9881 342.554 41.4313C334.302 31.0683 352.765 40.4455 356.586 42.9365C360.466 45.4295 366.274 48.5434 366.274 48.5434C366.274 48.5434 345.506 31.0263 337.337 27.1882Z" fill="#081B6A" stroke="black" stroke-width="0.401008" stroke-miterlimit="10" stroke-linecap="round" stroke-linejoin="round"/>
<path d="M268.218 9.08436C268.218 9.08436 269.04 5.15391 274.689 8.65065C280.339 12.1474 305.689 32.7065 305.689 32.7065" stroke="black" stroke-width="0.401008" stroke-miterlimit="10" stroke-linecap="round" stroke-linejoin="round"/>
<path d="M318.572 15.3775C318.572 15.3775 318.639 12.215 336.649 21.8412C348.283 28.0011 356.031 31.8262 356.031 31.8262" stroke="black" stroke-width="0.401008" stroke-miterlimit="10" stroke-linecap="round" stroke-linejoin="round"/>
</g>
</svg>
