<svg width="104" height="28" viewBox="0 0 104 28" fill="none" xmlns="http://www.w3.org/2000/svg">
<g filter="url(#filter0_d_282_6911)">
<path d="M0.0813603 2.2L8.10536 2.2L8.10536 26H0.0813603L0.0813603 2.2ZM34.8501 7.062C37.1394 7.062 38.9754 7.75333 40.3581 9.136C41.7634 10.5187 42.4661 12.604 42.4661 15.392L42.4661 26H34.7821L34.7821 16.718C34.7821 14.5873 34.0227 13.522 32.5041 13.522C31.6427 13.522 30.9401 13.828 30.3961 14.44C29.8747 15.0293 29.6141 15.97 29.6141 17.262L29.6141 26H21.9301L21.9301 7.402H29.2401L29.2401 9.238C29.9654 8.51267 30.8041 7.96867 31.7561 7.606C32.7081 7.24333 33.7394 7.062 34.8501 7.062ZM64.2991 8.422H68.3451L68.3451 14.032H64.5371L64.5371 26L56.8531 26L56.8531 14.032H54.3031L54.3031 8.422H56.8531V8.32C56.8531 5.89467 57.5785 3.97933 59.0291 2.574C60.4798 1.146 62.5198 0.431999 65.1491 0.431999C66.0105 0.431999 66.8491 0.511332 67.6651 0.669998C68.4811 0.828665 69.1611 1.05533 69.7051 1.35L67.8691 6.688C67.2345 6.39333 66.6565 6.246 66.1351 6.246C65.5685 6.246 65.1151 6.42733 64.7751 6.79C64.4578 7.13 64.2991 7.66267 64.2991 8.388V8.422ZM90.3397 26.34C88.277 26.34 86.4183 25.932 84.7637 25.116C83.1317 24.2773 81.851 23.1327 80.9217 21.682C79.9923 20.2087 79.5277 18.5427 79.5277 16.684C79.5277 14.8253 79.9923 13.1707 80.9217 11.72C81.851 10.2467 83.1317 9.102 84.7637 8.286C86.4183 7.47 88.277 7.062 90.3397 7.062C92.425 7.062 94.2837 7.47 95.9157 8.286C97.5703 9.102 98.851 10.2467 99.7577 11.72C100.687 13.1707 101.152 14.8253 101.152 16.684C101.152 18.5427 100.687 20.2087 99.7577 21.682C98.851 23.1327 97.5703 24.2773 95.9157 25.116C94.2837 25.932 92.425 26.34 90.3397 26.34ZM90.3397 20.356C91.2237 20.356 91.949 20.0387 92.5157 19.404C93.0823 18.7467 93.3657 17.84 93.3657 16.684C93.3657 15.528 93.0823 14.6327 92.5157 13.998C91.949 13.3633 91.2237 13.046 90.3397 13.046C89.4557 13.046 88.7303 13.3633 88.1637 13.998C87.597 14.6327 87.3137 15.528 87.3137 16.684C87.3137 17.84 87.597 18.7467 88.1637 19.404C88.7303 20.0387 89.4557 20.356 90.3397 20.356Z" fill="white"/>
<path d="M0.0813603 2.2L0.0813603 1.2H-0.91864L-0.91864 2.2H0.0813603ZM8.10536 2.2H9.10536L9.10536 1.2H8.10536L8.10536 2.2ZM8.10536 26L8.10536 27H9.10536L9.10536 26H8.10536ZM0.0813603 26H-0.91864L-0.91864 27H0.0813603L0.0813603 26ZM0.0813603 3.2L8.10536 3.2L8.10536 1.2L0.0813603 1.2L0.0813603 3.2ZM7.10536 2.2L7.10536 26H9.10536L9.10536 2.2H7.10536ZM8.10536 25H0.0813603L0.0813603 27H8.10536L8.10536 25ZM1.08136 26L1.08136 2.2H-0.91864L-0.91864 26H1.08136ZM40.3581 9.136L39.651 9.84313L39.6567 9.84883L40.3581 9.136ZM42.4661 26L42.4661 27H43.4661L43.4661 26H42.4661ZM34.7821 26H33.7821L33.7821 27H34.7821L34.7821 26ZM30.3961 14.44L29.6487 13.7756L29.6471 13.7774L30.3961 14.44ZM29.6141 26L29.6141 27H30.6141L30.6141 26H29.6141ZM21.9301 26H20.9301L20.9301 27H21.9301L21.9301 26ZM21.9301 7.402L21.9301 6.402H20.9301L20.9301 7.402H21.9301ZM29.2401 7.402H30.2401V6.402H29.2401L29.2401 7.402ZM29.2401 9.238H28.2401L28.2401 11.6522L29.9472 9.94511L29.2401 9.238ZM31.7561 7.606L32.1121 8.54049L31.7561 7.606ZM34.8501 8.062C36.923 8.062 38.4878 8.6799 39.651 9.84311L41.0652 8.42889C39.4631 6.82676 37.3558 6.062 34.8501 6.062L34.8501 8.062ZM39.6567 9.84883C40.8035 10.9771 41.4661 12.7595 41.4661 15.392H43.4661C43.4661 12.4485 42.7234 10.0603 41.0594 8.42317L39.6567 9.84883ZM41.4661 15.392L41.4661 26H43.4661L43.4661 15.392H41.4661ZM42.4661 25H34.7821L34.7821 27H42.4661L42.4661 25ZM35.7821 26L35.7821 16.718H33.7821L33.7821 26H35.7821ZM35.7821 16.718C35.7821 15.5641 35.5819 14.5193 35.0269 13.7406C34.4275 12.8996 33.5271 12.522 32.5041 12.522L32.5041 14.522C32.9997 14.522 33.2384 14.6771 33.3983 14.9014C33.6026 15.1881 33.7821 15.7412 33.7821 16.718H35.7821ZM32.5041 12.522C31.3739 12.522 30.3933 12.9379 29.6487 13.7756L31.1435 15.1044C31.4868 14.7181 31.9116 14.522 32.5041 14.522L32.5041 12.522ZM29.6471 13.7774C28.8879 14.6356 28.6141 15.8725 28.6141 17.262H30.6141C30.6141 16.0675 30.8616 15.4231 31.1451 15.1026L29.6471 13.7774ZM28.6141 17.262L28.6141 26H30.6141L30.6141 17.262H28.6141ZM29.6141 25H21.9301L21.9301 27H29.6141L29.6141 25ZM22.9301 26L22.9301 7.402H20.9301L20.9301 26H22.9301ZM21.9301 8.402H29.2401L29.2401 6.402H21.9301L21.9301 8.402ZM28.2401 7.402L28.2401 9.238H30.2401L30.2401 7.402H28.2401ZM29.9472 9.94511C30.5735 9.31876 31.2928 8.8526 32.1121 8.54049L31.4001 6.67151C30.3154 7.08473 29.3573 7.70657 28.533 8.53089L29.9472 9.94511ZM32.1121 8.54049C32.9405 8.22488 33.8501 8.062 34.8501 8.062L34.8501 6.062C33.6288 6.062 32.4756 6.26178 31.4001 6.67151L32.1121 8.54049ZM64.2991 8.422H63.2991L63.2991 9.422H64.2991L64.2991 8.422ZM68.3451 8.422H69.3451V7.422H68.3451V8.422ZM68.3451 14.032V15.032H69.3451V14.032H68.3451ZM64.5371 14.032L64.5371 13.032H63.5371L63.5371 14.032H64.5371ZM64.5371 26V27H65.5371V26H64.5371ZM56.8531 26H55.8531L55.8531 27H56.8531L56.8531 26ZM56.8531 14.032H57.8531V13.032H56.8531V14.032ZM54.3031 14.032H53.3031L53.3031 15.032H54.3031L54.3031 14.032ZM54.3031 8.422L54.3031 7.422H53.3031L53.3031 8.422H54.3031ZM56.8531 8.422V9.422H57.8531V8.422H56.8531ZM59.0291 2.574L59.7249 3.29226L59.7306 3.28665L59.0291 2.574ZM67.6651 0.669998L67.856 -0.311618L67.6651 0.669998ZM69.7051 1.35L70.6508 1.67525L70.9263 0.87418L70.1814 0.470708L69.7051 1.35ZM67.8691 6.688L67.448 7.59501L68.454 8.06208L68.8148 7.01325L67.8691 6.688ZM64.7751 6.79L64.0456 6.10606L64.0441 6.10768L64.7751 6.79ZM64.2991 9.422H68.3451L68.3451 7.422H64.2991L64.2991 9.422ZM67.3451 8.422L67.3451 14.032H69.3451L69.3451 8.422H67.3451ZM68.3451 13.032H64.5371L64.5371 15.032H68.3451L68.3451 13.032ZM63.5371 14.032L63.5371 26L65.5371 26L65.5371 14.032H63.5371ZM64.5371 25L56.8531 25L56.8531 27L64.5371 27L64.5371 25ZM57.8531 26L57.8531 14.032H55.8531L55.8531 26H57.8531ZM56.8531 13.032H54.3031L54.3031 15.032H56.8531L56.8531 13.032ZM55.3031 14.032L55.3031 8.422H53.3031L53.3031 14.032H55.3031ZM54.3031 9.422H56.8531L56.8531 7.422H54.3031L54.3031 9.422ZM57.8531 8.422V8.32H55.8531V8.422H57.8531ZM57.8531 8.32C57.8531 6.10692 58.507 4.47207 59.7249 3.29224L58.3333 1.85576C56.6499 3.48659 55.8531 5.68241 55.8531 8.32H57.8531ZM59.7306 3.28665C60.9442 2.09207 62.7025 1.432 65.1491 1.432L65.1491 -0.568001C62.3371 -0.568001 60.0154 0.199927 58.3276 1.86135L59.7306 3.28665ZM65.1491 1.432C65.9487 1.432 66.7234 1.50561 67.4743 1.65161L67.856 -0.311618C66.9749 -0.482945 66.0722 -0.568001 65.1491 -0.568001L65.1491 1.432ZM67.4743 1.65161C68.2224 1.79709 68.7989 1.99643 69.2288 2.22929L70.1814 0.470708C69.5233 0.114239 68.7398 -0.13976 67.856 -0.311618L67.4743 1.65161ZM68.7595 1.02475L66.9235 6.36275L68.8148 7.01325L70.6508 1.67525L68.7595 1.02475ZM68.2902 5.78099C67.5665 5.44496 66.8427 5.246 66.1351 5.246V7.246C66.4702 7.246 66.9024 7.3417 67.448 7.59501L68.2902 5.78099ZM66.1351 5.246C65.3345 5.246 64.6019 5.51271 64.0456 6.10606L65.5047 7.47394C65.6284 7.34196 65.8024 7.246 66.1351 7.246V5.246ZM64.0441 6.10768C63.4791 6.71299 63.2991 7.54585 63.2991 8.388H65.2991C65.2991 7.77949 65.4365 7.54701 65.5062 7.47232L64.0441 6.10768ZM63.2991 8.388V8.422H65.2991V8.388H63.2991ZM84.7637 25.116L84.3066 26.0054L84.314 26.0092L84.3214 26.0129L84.7637 25.116ZM80.9217 21.682L80.0759 22.2155L80.0796 22.2214L80.9217 21.682ZM80.9217 11.72L81.7637 12.2594L81.7675 12.2535L80.9217 11.72ZM84.7637 8.286L84.3214 7.38911L84.3165 7.39157L84.7637 8.286ZM95.9157 8.286L95.4685 9.18044L95.4734 9.18287L95.9157 8.286ZM99.7577 11.72L98.906 12.2441L98.9108 12.2518L98.9156 12.2594L99.7577 11.72ZM99.7577 21.682L98.9119 21.1485L98.9097 21.152L99.7577 21.682ZM95.9157 25.116L96.3629 26.0104L96.3678 26.008L95.9157 25.116ZM92.5157 19.404L93.2616 20.07L93.2674 20.0635L93.2731 20.0569L92.5157 19.404ZM88.1637 19.404L87.4063 20.0569L87.4119 20.0635L87.4177 20.07L88.1637 19.404ZM90.3397 25.34C88.4121 25.34 86.7076 24.9596 85.206 24.2191L84.3214 26.0129C86.1291 26.9044 88.1419 27.34 90.3397 27.34L90.3397 25.34ZM85.2207 24.2266C83.7351 23.4631 82.5916 22.4349 81.7637 21.1426L80.0796 22.2214C81.1104 23.8304 82.5282 25.0915 84.3066 26.0054L85.2207 24.2266ZM81.7675 21.1485C80.9457 19.8457 80.5277 18.3671 80.5277 16.684H78.5277C78.5277 18.7183 79.039 20.5716 80.0759 22.2155L81.7675 21.1485ZM80.5277 16.684C80.5277 15.0008 80.9457 13.5363 81.7637 12.2594L80.0796 11.1806C79.039 12.805 78.5277 14.6498 78.5277 16.684H80.5277ZM81.7675 12.2535C82.5947 10.9421 83.7341 9.91882 85.2109 9.18043L84.3165 7.39157C82.5292 8.28518 81.1074 9.55123 80.0759 11.1865L81.7675 12.2535ZM85.206 9.18287C86.7076 8.44236 88.4121 8.062 90.3397 8.062V6.062C88.1419 6.062 86.1291 6.49764 84.3214 7.38913L85.206 9.18287ZM90.3397 8.062C92.292 8.062 93.994 8.44317 95.4685 9.18043L96.3629 7.39157C94.5734 6.49682 92.558 6.062 90.3397 6.062V8.062ZM95.4734 9.18287C96.9709 9.92139 98.1046 10.9418 98.906 12.2441L100.609 11.1959C99.5974 9.55149 98.1697 8.2826 96.358 7.38913L95.4734 9.18287ZM98.9156 12.2594C99.7337 13.5363 100.152 15.0008 100.152 16.684H102.152C102.152 14.6498 101.64 12.805 100.6 11.1806L98.9156 12.2594ZM100.152 16.684C100.152 18.3671 99.7336 19.8457 98.9119 21.1485L100.603 22.2155C101.64 20.5716 102.152 18.7183 102.152 16.684H100.152ZM98.9097 21.152C98.1077 22.4352 96.97 23.4605 95.4636 24.224L96.3678 26.008C98.1707 25.0942 99.5944 23.8301 100.606 22.212L98.9097 21.152ZM95.4685 24.2216C93.994 24.9588 92.292 25.34 90.3397 25.34L90.3397 27.34C92.558 27.34 94.5734 26.9052 96.3629 26.0104L95.4685 24.2216ZM90.3397 21.356C91.4959 21.356 92.497 20.9264 93.2616 20.07L91.7697 18.738C91.401 19.1509 90.9514 19.356 90.3397 19.356V21.356ZM93.2731 20.0569C94.0418 19.1652 94.3657 17.9992 94.3657 16.684H92.3657C92.3657 17.6808 92.1229 18.3281 91.7583 18.7511L93.2731 20.0569ZM94.3657 16.684C94.3657 15.3712 94.0428 14.2069 93.2616 13.332L91.7697 14.664C92.1219 15.0585 92.3657 15.6848 92.3657 16.684H94.3657ZM93.2616 13.332C92.497 12.4756 91.4959 12.046 90.3397 12.046L90.3397 14.046C90.9514 14.046 91.401 14.2511 91.7697 14.664L93.2616 13.332ZM90.3397 12.046C89.1834 12.046 88.1824 12.4756 87.4177 13.332L88.9096 14.664C89.2783 14.2511 89.7279 14.046 90.3397 14.046L90.3397 12.046ZM87.4177 13.332C86.6366 14.2069 86.3137 15.3712 86.3137 16.684H88.3137C88.3137 15.6848 88.5574 15.0585 88.9096 14.664L87.4177 13.332ZM86.3137 16.684C86.3137 17.9992 86.6375 19.1652 87.4063 20.0569L88.9211 18.7511C88.5565 18.3281 88.3137 17.6808 88.3137 16.684H86.3137ZM87.4177 20.07C88.1824 20.9264 89.1834 21.356 90.3397 21.356V19.356C89.7279 19.356 89.2783 19.1509 88.9096 18.738L87.4177 20.07Z" fill="black"/>
</g>
<defs>
<filter id="filter0_d_282_6911" x="0.0820312" y="0.429688" width="103.07" height="26.9141" filterUnits="userSpaceOnUse" color-interpolation-filters="sRGB">
<feFlood flood-opacity="0" result="BackgroundImageFix"/>
<feColorMatrix in="SourceAlpha" type="matrix" values="0 0 0 0 0 0 0 0 0 0 0 0 0 0 0 0 0 0 127 0" result="hardAlpha"/>
<feOffset dx="2" dy="1"/>
<feComposite in2="hardAlpha" operator="out"/>
<feColorMatrix type="matrix" values="0 0 0 0 0.105882 0 0 0 0 0.105882 0 0 0 0 0.121569 0 0 0 1 0"/>
<feBlend mode="normal" in2="BackgroundImageFix" result="effect1_dropShadow_282_6911"/>
<feBlend mode="normal" in="SourceGraphic" in2="effect1_dropShadow_282_6911" result="shape"/>
</filter>
</defs>
</svg>
