<svg width="287" height="172" viewBox="0 0 287 172" fill="none" xmlns="http://www.w3.org/2000/svg">
<mask id="mask0_282_6874" style="mask-type:alpha" maskUnits="userSpaceOnUse" x="0" y="0" width="287" height="172">
<rect x="287" y="172" width="287" height="172" transform="rotate(-180 287 172)" fill="#D9D9D9"/>
</mask>
<g mask="url(#mask0_282_6874)">
<path d="M-18.043 -7.32878L-18.043 140.242L5.17904 140.242L77.6521 105.956L159.567 119.791L227.702 105.956L246.331 86.1061L328.246 102.347L368.31 94.9283C391.277 95.1956 438.129 95.5699 441.804 94.9283C445.479 94.2867 493.011 88.7795 516.318 86.1061L838.875 80.8931C846.275 80.8931 892.482 65.0898 898.589 65.4542C918.748 66.6573 870.008 87.6203 920.279 78.086C926.2 76.9632 944.959 72.9961 964.682 55.9961L964.682 -7.32871L-18.043 -7.32878Z" fill="#2194FF"/>
<path d="M299.604 82.3045C271.854 76.8955 245.672 78.4393 219.555 87.5271C202.916 93.3433 188.037 101.793 171.462 107.663C146.157 116.615 118.05 119.161 90.4852 121.616C95.3794 121.751 98.9734 125.437 100.556 129.067C102.069 132.748 102.295 136.71 104.217 140.245C107.005 145.438 113.547 149.258 120.702 149.878C117.428 145.041 116.694 138.955 122.534 135.952C128.374 132.949 145.012 131.668 151.949 131.175C188.924 128.452 220.847 126.118 257.755 123.394C260.382 123.203 263.075 123.014 265.4 122.076C267.724 121.138 269.751 119.348 269.709 117.29C269.688 114.758 266.823 112.78 263.851 111.696C259.226 110.038 254.001 109.788 248.93 109.12C243.858 108.453 238.613 107.147 235.395 104.052C232.178 100.957 229.86 94.2468 234.867 93.3832C254.341 90.2298 274.273 96.3192 292.016 103.35C309.825 110.383 324.489 115.694 343.87 119.131C357.656 121.569 373.137 120.626 390.581 113.355C401.8 108.655 422.024 94.7625 434.586 93.053C447.283 91.3472 452.108 91.5334 464.954 92.4689C477.801 93.4044 500.247 112.327 507.393 107.145C480.018 103.856 456.604 84.0627 429.248 87.842C413.511 89.9911 398.341 94.4766 382.551 96.3078C355.285 99.5621 326.759 96.5051 303.588 84.7881" fill="#081B6A"/>
<path d="M299.604 82.3045C271.854 76.8955 245.672 78.4393 219.555 87.5271C202.916 93.3433 188.037 101.793 171.462 107.663C146.157 116.615 118.05 119.161 90.4852 121.616C95.3794 121.751 98.9734 125.437 100.556 129.067C102.069 132.748 102.295 136.71 104.217 140.245C107.005 145.438 113.547 149.258 120.702 149.878C117.428 145.041 116.694 138.955 122.534 135.952C128.374 132.949 145.012 131.668 151.949 131.175C188.924 128.452 220.847 126.118 257.755 123.394C260.382 123.203 263.075 123.014 265.4 122.076C267.724 121.138 269.751 119.348 269.709 117.29C269.688 114.758 266.823 112.78 263.851 111.696C259.226 110.038 254.001 109.788 248.93 109.12C243.858 108.453 238.613 107.147 235.395 104.052C232.178 100.957 229.86 94.2468 234.867 93.3832C254.341 90.2298 274.273 96.3192 292.016 103.35C309.825 110.383 324.489 115.694 343.87 119.131C357.656 121.569 373.137 120.626 390.581 113.355C401.8 108.655 422.024 94.7625 434.586 93.053C447.283 91.3472 452.108 91.5334 464.954 92.4689C477.801 93.4044 500.247 112.327 507.393 107.145C480.018 103.856 456.604 84.0627 429.248 87.842C413.511 89.9911 398.341 94.4766 382.551 96.3078C355.285 99.5621 326.759 96.5051 303.588 84.7881" stroke="black" stroke-width="0.401008" stroke-miterlimit="10" stroke-linecap="round" stroke-linejoin="round"/>
<path d="M257.435 72.0697C240.212 68.4287 201.629 77.0663 186.336 84.2911C183.865 85.4886 181.395 86.6861 178.858 87.8817C166.025 94.1197 153.057 100.407 138.217 102C121.625 103.757 104.974 99.3404 89.493 94.2708C74.0123 89.2011 67.1142 85.8457 50.3837 84.6973C33.6532 83.5489 19.5446 89.8043 11.3775 101.287C7.50927 106.718 -3.65021 119.068 -9.86834 123.01C-52.9717 150.141 -64.6451 145.493 -71.5063 147.308C-78.2981 149.071 -86.2178 150.54 -84.8513 167.983C-84.8513 167.983 -43.3101 150.25 -19.2204 145.958C4.87176 141.614 23.3105 140.595 36.3397 131.461C49.369 122.328 121.869 117.793 142.771 115.734" fill="#081B6A"/>
<path d="M257.435 72.0697C240.212 68.4287 201.629 77.0663 186.336 84.2911C183.865 85.4886 181.395 86.6861 178.858 87.8817C166.025 94.1197 153.057 100.407 138.217 102C121.625 103.757 104.974 99.3404 89.493 94.2708C74.0123 89.2011 67.1142 85.8457 50.3837 84.6973C33.6532 83.5489 19.5446 89.8043 11.3775 101.287C7.50928 106.718 -3.65021 119.068 -9.86833 123.01C-52.9717 150.141 -64.6451 145.493 -71.5063 147.308C-78.2981 149.071 -86.2178 150.54 -84.8513 167.983C-84.8513 167.983 -43.3101 150.25 -19.2204 145.958C4.87176 141.614 23.3105 140.595 36.3397 131.461C49.369 122.328 121.869 117.793 142.771 115.734" stroke="black" stroke-width="0.401008" stroke-miterlimit="10" stroke-linecap="round" stroke-linejoin="round"/>
<path d="M463.489 99.7062C448.328 96.4915 423.709 97.6038 412.661 101.465C398.203 106.55 397.078 107.68 385.496 111.473C364.442 118.433 340.236 113.333 318.907 106.941C297.578 100.55 275.64 92.7698 252.873 94.5135C245.195 95.0922 235.978 98.5294 236.514 104.557C237.097 111.008 247.68 113.041 255.84 113.689C257.378 113.837 258.98 114.039 260.644 114.349C267.965 115.765 266.847 124.225 259.322 124.386C222.896 125.33 186.54 126.223 150.114 127.167C139.428 127.452 127.928 127.925 119.57 133.179C111.212 138.433 106.643 141.524 115.776 145.944C161.855 164.782 37.5176 150.161 -13.6568 152.174C-41.9005 153.291 -55.916 166.459 -56.9395 175.819C-57.8676 184.548 -85.5292 186.157 -89.1484 169.548C-90.7141 162.542 -83.3171 156.26 -75.631 152.516C-52.4436 141.396 -21.1889 141.997 -1.40146 127.354C12.8289 116.883 19.443 99.6075 37.426 93.7758C53.6376 88.5279 71.7434 94.936 88.397 99.2996C113.011 105.782 133.772 111.367 158.054 104.285C180.634 97.7369 205.579 80.336 228.401 74.3743C279.48 61.0191 314.59 99.9126 367.619 92.4658C391.262 89.164 394.803 85.0425 418.826 85.2323C433.454 85.3732 439.607 84.383 470.864 92.4207C499.599 99.8084 512.122 110.967 525.801 118.782C525.799 118.835 507.578 108.995 463.489 99.7062Z" fill="#2194FF" stroke="black" stroke-width="0.401008" stroke-miterlimit="10" stroke-linecap="round" stroke-linejoin="round"/>
<path d="M75.7684 139.982C68.4842 139.253 62.1844 139.026 55.7594 141.591C54.8019 141.987 53.8373 142.54 53.7995 143.383C53.8099 144.649 55.4719 145.012 56.8057 145.207C72.2869 147.27 87.701 149.332 103.182 151.395C104.65 151.594 106.118 151.792 107.487 151.197C108.102 150.951 108.526 150.488 108.684 149.965C109.08 148.604 107.375 147.713 105.856 147.144C103.876 146.403 101.895 145.663 99.9098 145.028C92.7634 142.72 85.2487 141.141 77.5693 140.243C76.9035 140.119 76.2354 140.048 75.7684 139.982Z" fill="white" stroke="#000207" stroke-width="0.401008" stroke-miterlimit="10" stroke-linecap="round" stroke-linejoin="round"/>
<path d="M42.4336 145.288C45.2471 145.418 47.9675 146.126 50.3316 147.299C50.9879 147.634 51.7688 148.183 51.6064 148.811C51.444 149.44 50.5582 149.732 49.8137 149.869C45.1427 150.742 40.0086 149.967 36.0804 147.749C35.4911 147.416 34.8443 146.871 35.1361 146.352C35.3561 145.936 36.0336 145.796 36.5747 145.706C38.332 145.438 39.1365 145.46 40.9538 145.352L42.4336 145.288Z" fill="white" stroke="#000207" stroke-width="0.401008" stroke-miterlimit="10" stroke-linecap="round" stroke-linejoin="round"/>
<path d="M258.988 124.16C222.039 118.813 170.394 111.846 134.016 119.226C126.767 120.713 119.218 122.878 114.512 127.547C109.807 132.164 109.396 139.853 115.41 143.448" stroke="#000207" stroke-width="0.401008" stroke-miterlimit="10" stroke-linecap="round" stroke-linejoin="round"/>
<path d="M159.645 103.066C134.846 106.705 109.31 107.318 84.316 104.833C71.1506 103.519 56.1269 101.733 46.0245 108.468C36.6137 114.748 34.943 126.569 24.5691 131.873C18.7981 134.825 11.6053 135.048 4.79134 135.809C-17.6762 138.352 -38.7602 147.474 -53.465 161.044" stroke="#000207" stroke-width="0.401008" stroke-miterlimit="10" stroke-linecap="round" stroke-linejoin="round"/>
<path d="M237.48 100.838C241.621 95.3086 253.422 89.6222 261.517 88.7385C281.959 86.4558 306.864 95.4254 327.209 98.3089C347.554 101.192 368.026 98.2248 385.275 89.3136" stroke="#000207" stroke-width="0.401008" stroke-miterlimit="10" stroke-linecap="round" stroke-linejoin="round"/>
</g>
</svg>
