<svg width="287" height="172" viewBox="0 0 287 172" fill="none" xmlns="http://www.w3.org/2000/svg">
<mask id="mask0_282_6836" style="mask-type:alpha" maskUnits="userSpaceOnUse" x="0" y="0" width="287" height="172">
<rect width="287" height="172" fill="#D9D9D9"/>
</mask>
<g mask="url(#mask0_282_6836)">
<path d="M464.727 179.329L464.727 31.7578L441.505 31.7578L369.031 66.044L287.116 52.2092L218.982 66.044L200.353 85.8939L118.438 69.6531L78.3736 77.0717C55.4067 76.8044 8.55438 76.4301 4.87969 77.0717C1.20501 77.7133 -46.3278 83.2205 -69.6348 85.8939L-392.191 91.1069C-399.592 91.1069 -445.798 106.91 -451.905 106.546C-472.065 105.343 -423.324 84.3797 -473.596 93.914C-479.516 95.0368 -498.276 99.0039 -517.998 116.004L-517.998 179.329L464.727 179.329Z" fill="#2194FF"/>
<path d="M29.2821 77.6727C-82.201 71.319 -168.932 -3.54923 -165.962 20.0564C-165.418 24.3964 -160.737 39.7687 -160.262 44.1595C-177.885 32.9652 -195.629 19.9742 -213.346 7.88065C-216.604 5.68081 -221.304 8.71538 -219.152 11.623C-213.264 19.5392 -207.318 27.6679 -201.524 34.6848C-199.293 37.3309 -197.069 40.135 -197.249 42.6617C-197.857 50.2399 -218.625 44.8131 -221.422 51.8033C-222.326 53.9936 -221.891 60.7568 -222.33 63.0653C-223.024 66.5799 -237.623 70.2901 -241.551 72.5549C-255.268 80.5616 -255.178 89.0558 -261.524 100.326C-264.881 106.351 -266.052 114.494 -255.852 120.578C-249.248 124.505 -240.256 126.072 -232.052 127.249C-205.501 130.937 -179.274 132.875 -154.106 132.991" fill="#2194FF"/>
<path d="M-128.463 28.1172C-128.463 28.1172 -85.3473 53.1497 -42.4947 67.5736C0.357805 81.9975 31.7304 72.4748 31.7304 72.4748C31.7304 72.4748 10.2809 79.2656 -46.6516 59.9691C-74.8232 50.4872 -128.463 28.1172 -128.463 28.1172Z" fill="#081B6A" stroke="black" stroke-width="0.401008" stroke-miterlimit="10" stroke-linecap="round" stroke-linejoin="round"/>
<path d="M147.079 89.6955C174.829 95.1045 201.011 93.5607 227.128 84.4729C243.768 78.6567 258.646 70.2074 275.221 64.3367C300.527 55.3846 328.633 52.8392 356.198 50.3843C351.304 50.2489 347.71 46.563 346.127 42.9327C344.614 39.2515 344.389 35.2895 342.466 31.7553C339.678 26.5621 333.137 22.7419 325.982 22.122C329.256 26.9595 329.99 33.0453 324.15 36.0483C318.309 39.0513 301.671 40.3317 294.735 40.8255C257.76 43.5475 225.837 45.8818 188.929 48.6057C186.302 48.7968 183.608 48.986 181.284 49.9238C178.96 50.8617 176.933 52.6516 176.975 54.7098C176.996 57.242 179.861 59.22 182.833 60.3044C187.457 61.9618 192.682 62.2118 197.754 62.8795C202.826 63.5473 208.07 64.8527 211.288 67.9481C214.506 71.0434 216.823 77.7532 211.817 78.6168C192.343 81.7702 172.41 75.6808 154.668 68.6499C136.859 61.6171 122.194 56.3064 102.814 52.8694C89.0278 50.4311 73.5462 51.3742 56.1028 58.645C44.8833 63.3453 24.6595 77.2375 12.0971 78.947C-0.599317 80.6528 -5.42418 80.4666 -18.2708 79.5311C-31.1174 78.5956 -53.5629 59.6728 -60.7093 64.855C-33.3342 68.1439 -9.92083 87.9373 17.4353 84.158C33.1723 82.0089 48.3428 77.5234 64.1327 75.6922C91.3982 72.4379 119.925 75.4949 143.096 87.2119" fill="#081B6A"/>
<path d="M147.079 89.6955C174.829 95.1045 201.011 93.5607 227.128 84.4729C243.768 78.6567 258.646 70.2074 275.221 64.3367C300.527 55.3846 328.633 52.8392 356.198 50.3843C351.304 50.2489 347.71 46.563 346.127 42.9327C344.614 39.2515 344.389 35.2895 342.466 31.7553C339.678 26.5621 333.137 22.7419 325.982 22.122C329.256 26.9595 329.99 33.0453 324.15 36.0483C318.309 39.0513 301.671 40.3317 294.735 40.8255C257.76 43.5475 225.837 45.8818 188.929 48.6057C186.302 48.7968 183.608 48.986 181.284 49.9238C178.96 50.8617 176.933 52.6516 176.975 54.7098C176.996 57.242 179.861 59.22 182.833 60.3044C187.457 61.9618 192.682 62.2118 197.754 62.8795C202.826 63.5473 208.07 64.8527 211.288 67.9481C214.506 71.0434 216.823 77.7532 211.817 78.6168C192.343 81.7702 172.41 75.6808 154.668 68.6499C136.859 61.6171 122.194 56.3064 102.814 52.8694C89.0278 50.4311 73.5462 51.3742 56.1028 58.645C44.8833 63.3453 24.6595 77.2375 12.0971 78.947C-0.599316 80.6528 -5.42418 80.4666 -18.2708 79.5311C-31.1174 78.5956 -53.5629 59.6728 -60.7093 64.855C-33.3342 68.1439 -9.92083 87.9373 17.4353 84.158C33.1723 82.0089 48.3428 77.5234 64.1327 75.6922C91.3982 72.4379 119.925 75.4949 143.096 87.2119" stroke="black" stroke-width="0.401008" stroke-miterlimit="10" stroke-linecap="round" stroke-linejoin="round"/>
<path d="M189.249 99.9303C206.472 103.571 245.055 94.9337 260.348 87.7089C262.818 86.5114 265.289 85.3139 267.826 84.1183C280.658 77.8803 293.627 71.5934 308.467 69.9996C325.059 68.2433 341.71 72.6596 357.191 77.7292C372.671 82.7989 379.569 86.1543 396.3 87.3027C413.03 88.4511 427.139 82.1957 435.306 70.7126C439.174 65.2816 450.334 52.9319 456.552 48.9899C499.655 21.859 511.329 26.5068 518.19 24.6924C524.982 22.9287 532.901 21.46 531.535 4.01695C531.535 4.01695 489.994 21.75 465.904 26.0415C441.812 30.3857 423.373 31.4053 410.344 40.5387C397.315 49.6721 324.815 54.2069 303.913 56.2659" fill="#081B6A"/>
<path d="M189.249 99.9303C206.472 103.571 245.055 94.9337 260.348 87.7089C262.818 86.5114 265.289 85.3139 267.826 84.1183C280.658 77.8803 293.627 71.5934 308.467 69.9996C325.059 68.2433 341.71 72.6596 357.191 77.7292C372.671 82.7989 379.569 86.1543 396.3 87.3027C413.03 88.4511 427.139 82.1957 435.306 70.7126C439.174 65.2816 450.334 52.9319 456.552 48.9899C499.655 21.859 511.329 26.5068 518.19 24.6924C524.982 22.9287 532.901 21.46 531.535 4.01695C531.535 4.01695 489.994 21.75 465.904 26.0415C441.812 30.3857 423.373 31.4053 410.344 40.5387C397.315 49.6721 324.815 54.2069 303.913 56.2659" stroke="black" stroke-width="0.401008" stroke-miterlimit="10" stroke-linecap="round" stroke-linejoin="round"/>
<path d="M-16.8053 72.2938C-1.64419 75.5085 22.9744 74.3962 34.0221 70.5351C48.481 65.4497 49.6057 64.3205 61.1874 60.5268C82.2417 53.5669 106.448 58.6669 127.777 65.0586C149.105 71.4503 171.043 79.2302 193.81 77.4865C201.489 76.9078 210.705 73.4706 210.17 67.4431C209.586 60.9923 199.004 58.9591 190.843 58.3114C189.306 58.1634 187.704 57.9608 186.04 57.6511C178.719 56.2355 179.837 47.7747 187.362 47.6137C223.788 46.6697 260.144 45.7766 296.569 44.8326C307.255 44.548 318.755 44.075 327.113 38.8209C335.471 33.5667 340.04 30.4758 330.907 26.0564C284.829 7.2184 409.166 21.8392 460.34 19.8263C488.584 18.7088 502.6 5.54147 503.623 -3.81852C504.551 -12.5482 532.213 -14.1565 535.832 2.4522C537.398 9.45762 530.001 15.7404 522.315 19.4836C499.127 30.604 467.873 30.0032 448.085 44.6459C433.855 55.1174 427.241 72.3925 409.258 78.2242C393.046 83.4721 374.94 77.064 358.287 72.7004C333.673 66.2178 312.912 60.633 288.63 67.7146C266.05 74.2631 241.104 91.664 218.282 97.6257C167.204 110.981 132.093 72.0874 79.0644 79.5342C55.4218 82.836 51.8807 86.9575 27.8575 86.7677C13.2299 86.6268 7.07693 87.617 -24.1801 79.5793C-52.9155 72.1916 -65.4383 61.0328 -79.1178 53.2176C-79.1155 53.165 -60.8948 63.0045 -16.8053 72.2938Z" fill="#2194FF" stroke="black" stroke-width="0.401008" stroke-miterlimit="10" stroke-linecap="round" stroke-linejoin="round"/>
<path d="M187.695 47.8404C224.645 53.1873 276.289 60.1539 312.668 52.7739C319.917 51.2867 327.465 49.122 332.172 44.4526C336.876 39.8358 337.288 32.1467 331.273 28.552" stroke="#000207" stroke-width="0.401008" stroke-miterlimit="10" stroke-linecap="round" stroke-linejoin="round"/>
<path d="M287.038 68.9336C311.837 65.2946 337.373 64.6824 362.368 67.167C375.533 68.4805 390.557 70.2674 400.659 63.532C410.07 57.2522 411.741 45.4311 422.115 40.1273C427.886 37.1751 435.078 36.9521 441.892 36.1912C464.36 33.648 485.444 24.5265 500.149 10.9562" stroke="#000207" stroke-width="0.401008" stroke-miterlimit="10" stroke-linecap="round" stroke-linejoin="round"/>
<path d="M12.644 86.4018C40.0724 87.0023 53.6805 76.9355 64.1568 70.8433C82.8358 59.9675 110.108 59.5615 136.26 67.6689" stroke="#000207" stroke-width="0.401008" stroke-miterlimit="10" stroke-linecap="round" stroke-linejoin="round"/>
<path d="M209.203 71.1625C205.062 76.6914 193.262 82.3778 185.167 83.2615C164.725 85.5442 139.819 76.5746 119.475 73.6911C99.1298 70.8077 78.6571 73.7752 61.4088 82.6864" stroke="#000207" stroke-width="0.401008" stroke-miterlimit="10" stroke-linecap="round" stroke-linejoin="round"/>
</g>
</svg>
