<svg width="868" height="172" viewBox="0 0 868 172" fill="none" xmlns="http://www.w3.org/2000/svg">
<mask id="mask0_279_4361" style="mask-type:alpha" maskUnits="userSpaceOnUse" x="0" y="0" width="868" height="172">
<rect width="868.001" height="172" fill="#D9D9D9"/>
</mask>
<g mask="url(#mask0_279_4361)">
<path d="M883.033 179.329L883.033 31.7578L862.167 31.7578L797.046 66.044L723.441 52.2092L662.219 66.044L645.48 85.8939L571.875 69.6531L535.875 77.0717C515.238 76.8044 473.139 76.4301 469.837 77.0717C466.535 77.7133 423.824 83.2205 402.882 85.8939L113.048 91.1069C106.399 91.1069 64.8798 106.91 59.3924 106.546C41.2779 105.343 85.0739 84.3797 39.9021 93.914C34.5823 95.0368 17.7261 99.0039 0.00414197 116.004L0.00413564 179.329L883.033 179.329Z" fill="#C1ABFF"/>
<path d="M291.13 94.619C266.71 101.884 271.91 101.57 246.299 97.9858C219.607 94.2633 162.106 87.2189 136.061 92.9046C128.758 94.5258 119.894 94.4639 111.721 96.6912C105.38 98.3948 101.22 99.849 96.5215 101.181C90.4208 102.892 81.0917 109.884 77.3078 110.98C65.9002 114.163 66.7792 108.81 65.9922 105.885C72.9219 101.562 82.2188 98.3675 90.7695 95.7298C110.134 89.6803 131.039 87.3174 150.473 87.019C165.441 86.7941 180.625 88.6856 195.221 85.7066C197.775 85.205 200.337 84.4928 202.21 82.9154C204.083 81.338 204.974 78.6755 203.544 76.7328C202.001 74.6283 198.696 74.3155 195.802 74.2792C156.672 73.8658 117.488 79.3053 80.4348 90.2429C73.4198 92.1894 63.6758 96.0034 58.7269 99.0684C53.034 102.638 52.2653 105.251 45.0976 103.501C41.4546 102.598 34.1961 100.107 35.1108 96.8646C35.6776 94.7723 39.0312 93.8734 41.2984 92.9939C108.459 65.3668 212.833 66.2591 290.855 55.0003C290.855 55.0003 293.659 55.7723 315.968 60.4675" fill="#C1ABFF"/>
<path d="M67.4547 95.067C67.0267 95.2121 86.483 88.3742 95.1393 86.109C111.112 81.9065 138.389 75.5731 161.539 74.387C197.261 72.533 205.418 73.6807 206.233 77.3979C206.995 80.9551 202.149 82.9684 202.149 82.9684C202.149 82.9684 210.579 72.8375 169.665 74.7954C121.258 77.1027 79.8295 90.3319 67.4547 95.067Z" fill="#081B6A" stroke="black" stroke-width="0.401008" stroke-miterlimit="10" stroke-linecap="round" stroke-linejoin="round"/>
<path d="M85.1985 106.695C85.1985 106.695 94.517 99.9673 119.172 94.3443C143.827 88.7213 190.263 91.944 191.889 91.9941C206.053 92.2718 221.315 95.2206 221.315 95.2206C221.315 95.2206 209.347 92.848 188.593 91.4707C174.278 90.4498 111.15 91.3547 85.1985 106.695Z" fill="#081B6A" stroke="black" stroke-width="0.401008" stroke-miterlimit="10" stroke-linecap="round" stroke-linejoin="round"/>
<path d="M202.142 82.9574C202.142 82.9574 198.612 86.7518 183.577 87.1328C168.543 87.5139 141.067 85.2968 119.76 88.6494C98.4538 92.002 77.06 100.521 64.311 105.561C56.2813 108.742 46.3186 103.003 67.4482 95.0561" stroke="black" stroke-width="0.401008" stroke-miterlimit="10" stroke-linecap="round" stroke-linejoin="round"/>
<path d="M35.7436 94.7149C35.7436 94.7149 62.2446 85.193 75.7131 81.7574C89.2419 78.3236 113.67 73.8539 145.32 69.7649C176.971 65.6758 232.877 61.3841 239.957 60.8109C247.038 60.2377 260.535 59.0709 264.801 57.9891" stroke="black" stroke-width="0.401008" stroke-miterlimit="10" stroke-linecap="round" stroke-linejoin="round"/>
<path d="M491.762 77.6727C391.589 71.319 313.657 -3.54924 316.326 20.0564C316.814 24.3964 321.021 39.7687 321.447 44.1595C305.612 32.9652 289.668 19.9742 273.749 7.88065C270.822 5.68081 266.598 8.71538 268.531 11.623C273.822 19.5392 279.165 27.6679 284.371 34.6848C286.376 37.3309 288.374 40.135 288.212 42.6617C287.666 50.2399 269.005 44.8131 266.492 51.8033C265.68 53.9936 266.071 60.7568 265.676 63.0653C265.052 66.5799 251.935 70.2901 248.405 72.5549C236.08 80.5616 236.16 89.0558 230.459 100.326C227.441 106.351 226.39 114.494 235.554 120.578C241.488 124.505 249.568 126.072 256.94 127.249C280.798 130.937 304.364 132.875 326.979 132.991" fill="#C1ABFF"/>
<path d="M268.214 9.08936C268.214 9.08936 266.114 13.2969 275.115 26.4434C284.118 39.5371 290.537 44.9035 283.584 46.7993C276.632 48.695 266.588 43.4807 263.601 50.2453C260.614 57.01 256.103 56.7129 250.004 58.3712C240.489 60.9792 207.229 63.1199 207.229 63.1199C207.229 63.1199 256.229 62.5713 261.957 61.1126C274.757 57.8146 262.499 53.6397 267.939 51.8557C273.38 50.0717 297.933 54.4668 295.041 46.8882C292.147 39.3623 266.37 17.4188 268.214 9.08936Z" fill="#081B6A" stroke="black" stroke-width="0.401008" stroke-miterlimit="10" stroke-linecap="round" stroke-linejoin="round"/>
<path d="M305.68 32.7056C305.68 32.7056 320.216 49.187 323.218 46.5368C326.22 43.8866 320.636 31.2672 318.692 25.6166C316.748 19.966 318.624 15.3296 318.624 15.3296C318.624 15.3296 315.522 15.9725 316.201 26.0674C316.88 36.1622 322.035 39.9602 318.826 40.2834C315.616 40.6065 305.68 32.7056 305.68 32.7056Z" fill="#081B6A" stroke="black" stroke-width="0.401008" stroke-miterlimit="10" stroke-linecap="round" stroke-linejoin="round"/>
<path d="M350.02 28.1172C350.02 28.1172 388.761 53.1497 427.266 67.5736C465.772 81.9975 493.961 72.4748 493.961 72.4748C493.961 72.4748 474.688 79.2656 423.531 59.9691C398.218 50.4872 350.02 28.1172 350.02 28.1172Z" fill="#081B6A" stroke="black" stroke-width="0.401008" stroke-miterlimit="10" stroke-linecap="round" stroke-linejoin="round"/>
<path d="M597.607 89.6955C622.542 95.1045 646.068 93.5607 669.535 84.4729C684.487 78.6567 697.856 70.2074 712.75 64.3367C735.488 55.3846 760.743 52.8392 785.512 50.3843C781.114 50.2489 777.884 46.563 776.462 42.9327C775.103 39.2515 774.9 35.2895 773.173 31.7553C770.667 26.5621 764.79 22.7419 758.36 22.122C761.302 26.9595 761.962 33.0453 756.714 36.0483C751.466 39.0513 736.516 40.3317 730.284 40.8255C697.059 43.5475 668.375 45.8818 635.211 48.6057C632.851 48.7968 630.431 48.986 628.342 49.9238C626.253 50.8617 624.432 52.6516 624.47 54.7098C624.489 57.242 627.063 59.22 629.734 60.3044C633.889 61.9618 638.584 62.2118 643.141 62.8795C647.698 63.5473 652.411 64.8527 655.302 67.9481C658.194 71.0434 660.276 77.7532 655.778 78.6168C638.279 81.7702 620.369 75.6808 604.426 68.6499C588.423 61.6171 575.247 56.3064 557.833 52.8694C545.445 50.4311 531.534 51.3742 515.86 58.645C505.779 63.3453 487.607 77.2375 476.319 78.947C464.91 80.6528 460.575 80.4666 449.032 79.5311C437.488 78.5956 417.32 59.6728 410.899 64.855C435.496 68.1439 456.535 87.9373 481.115 84.158C495.256 82.0089 508.887 77.5234 523.076 75.6922C547.575 72.4379 573.208 75.4949 594.028 87.2119" fill="#081B6A"/>
<path d="M597.607 89.6955C622.542 95.1045 646.068 93.5607 669.535 84.4729C684.487 78.6567 697.856 70.2074 712.75 64.3367C735.488 55.3846 760.743 52.8392 785.512 50.3843C781.114 50.2489 777.884 46.563 776.462 42.9327C775.103 39.2515 774.9 35.2895 773.173 31.7553C770.667 26.5621 764.79 22.7419 758.36 22.122C761.302 26.9595 761.962 33.0453 756.714 36.0483C751.466 39.0513 736.516 40.3317 730.283 40.8255C697.059 43.5475 668.375 45.8818 635.211 48.6057C632.851 48.7968 630.431 48.986 628.342 49.9238C626.253 50.8617 624.432 52.6516 624.47 54.7098C624.489 57.242 627.063 59.22 629.734 60.3044C633.889 61.9618 638.584 62.2118 643.141 62.8795C647.698 63.5473 652.411 64.8527 655.302 67.9481C658.194 71.0434 660.276 77.7532 655.778 78.6168C638.279 81.7702 620.369 75.6808 604.426 68.6499C588.423 61.6171 575.247 56.3064 557.833 52.8694C545.445 50.4311 531.534 51.3742 515.86 58.645C505.779 63.3453 487.607 77.2375 476.319 78.947C464.91 80.6528 460.575 80.4666 449.032 79.5311C437.488 78.5956 417.32 59.6728 410.899 64.855C435.496 68.1439 456.535 87.9373 481.115 84.158C495.256 82.0089 508.887 77.5234 523.076 75.6922C547.575 72.4379 573.208 75.4949 594.028 87.2119" stroke="black" stroke-width="0.401008" stroke-miterlimit="10" stroke-linecap="round" stroke-linejoin="round"/>
<path d="M635.499 99.9303C650.975 103.571 685.643 94.9337 699.385 87.7089C701.605 86.5114 703.824 85.3139 706.104 84.1183C717.635 77.8803 729.288 71.5934 742.622 69.9996C757.531 68.2433 772.493 72.6596 786.403 77.7292C800.313 82.7989 806.512 86.1543 821.545 87.3027C836.578 88.4511 849.255 82.1957 856.594 70.7126C860.07 65.2816 870.097 52.9319 875.684 48.9899C914.415 21.859 924.904 26.5068 931.069 24.6924C937.172 22.9287 944.288 21.46 943.06 4.01695C943.06 4.01695 905.734 21.75 884.088 26.0415C862.44 30.3857 845.872 31.4053 834.164 40.5387C822.457 49.6721 757.312 54.2069 738.53 56.2659" fill="#081B6A"/>
<path d="M635.499 99.9303C650.975 103.571 685.643 94.9337 699.385 87.7089C701.605 86.5114 703.824 85.3139 706.104 84.1183C717.635 77.8803 729.288 71.5934 742.622 69.9996C757.531 68.2433 772.493 72.6596 786.403 77.7292C800.313 82.7989 806.512 86.1543 821.545 87.3027C836.578 88.4511 849.255 82.1957 856.594 70.7126C860.07 65.2816 870.097 52.9319 875.684 48.9899C914.415 21.859 924.904 26.5068 931.069 24.6924C937.172 22.9287 944.288 21.46 943.06 4.01695C943.06 4.01695 905.734 21.75 884.088 26.0415C862.44 30.3857 845.872 31.4053 834.164 40.5387C822.457 49.6721 757.312 54.2069 738.53 56.2659" stroke="black" stroke-width="0.401008" stroke-miterlimit="10" stroke-linecap="round" stroke-linejoin="round"/>
<path d="M450.348 72.2938C463.971 75.5085 486.092 74.3962 496.019 70.5351C509.011 65.4497 510.021 64.3205 520.428 60.5268C539.346 53.5669 561.097 58.6669 580.262 65.0586C599.427 71.4503 619.139 79.2302 639.597 77.4865C646.496 76.9078 654.778 73.4706 654.296 67.4431C653.772 60.9923 644.263 58.9591 636.931 58.3114C635.549 58.1634 634.11 57.9608 632.614 57.6511C626.036 56.2355 627.04 47.7747 633.803 47.6137C666.533 46.6697 699.201 45.7766 731.931 44.8326C741.533 44.548 751.866 44.075 759.376 38.8209C766.886 33.5667 770.992 30.4758 762.785 26.0564C721.382 7.2184 833.105 21.8392 879.088 19.8263C904.466 18.7088 917.06 5.54147 917.979 -3.81852C918.813 -12.5482 943.669 -14.1565 946.921 2.4522C948.328 9.45762 941.681 15.7404 934.775 19.4836C913.94 30.604 885.856 30.0032 868.076 44.6459C855.289 55.1174 849.346 72.3925 833.187 78.2242C818.62 83.4721 802.351 77.064 787.387 72.7004C765.27 66.2178 746.615 60.633 724.797 67.7146C704.508 74.2631 682.093 91.664 661.586 97.6257C615.689 110.981 584.141 72.0874 536.491 79.5342C515.247 82.836 512.066 86.9575 490.479 86.7677C477.336 86.6268 471.807 87.617 443.721 79.5793C417.901 72.1916 406.648 61.0328 394.357 53.2176C394.359 53.165 410.731 63.0045 450.348 72.2938Z" fill="#C1ABFF" stroke="black" stroke-width="0.401008" stroke-miterlimit="10" stroke-linecap="round" stroke-linejoin="round"/>
<path d="M798.736 32.0176C805.281 32.7466 810.942 32.9735 816.715 30.4086C817.575 30.0132 818.442 29.4597 818.476 28.6168C818.467 27.3507 816.973 26.9883 815.775 26.7931C801.864 24.7299 788.014 22.6685 774.103 20.6052C772.784 20.4064 771.465 20.2076 770.235 20.8026C769.682 21.0493 769.301 21.5123 769.16 22.0353C768.803 23.3957 770.336 24.2868 771.7 24.8562C773.48 25.5966 775.26 26.3371 777.044 26.9722C783.465 29.2796 790.217 30.8588 797.118 31.7569C797.716 31.8808 798.316 31.952 798.736 32.0176Z" fill="white" stroke="#000207" stroke-width="0.401008" stroke-miterlimit="10" stroke-linecap="round" stroke-linejoin="round"/>
<path d="M828.688 26.7124C826.16 26.5818 823.716 25.8736 821.592 24.7006C821.002 24.366 820.3 23.817 820.446 23.1886C820.592 22.5601 821.388 22.2682 822.057 22.1305C826.254 21.2576 830.867 22.0326 834.397 24.2509C834.927 24.5837 835.508 25.129 835.246 25.6484C835.048 26.0642 834.439 26.2037 833.953 26.2943C832.374 26.5621 831.651 26.5399 830.018 26.6478L828.688 26.7124Z" fill="white" stroke="#000207" stroke-width="0.401008" stroke-miterlimit="10" stroke-linecap="round" stroke-linejoin="round"/>
<path d="M634.104 47.8404C667.305 53.1873 713.71 60.1539 746.398 52.7739C752.912 51.2867 759.694 49.122 763.923 44.4526C768.151 39.8358 768.52 32.1467 763.116 28.552" stroke="#000207" stroke-width="0.401008" stroke-miterlimit="10" stroke-linecap="round" stroke-linejoin="round"/>
<path d="M723.369 68.9336C745.652 65.2946 768.598 64.6824 791.057 67.167C802.886 68.4805 816.386 70.2674 825.463 63.532C833.919 57.2522 835.421 45.4311 844.742 40.1273C849.928 37.1751 856.391 36.9521 862.514 36.1912C882.702 33.648 901.647 24.5265 914.86 10.9562" stroke="#000207" stroke-width="0.401008" stroke-miterlimit="10" stroke-linecap="round" stroke-linejoin="round"/>
<path d="M476.813 86.4018C501.458 87.0023 513.686 76.9355 523.1 70.8433C539.884 59.9675 564.389 59.5615 587.888 67.6689" stroke="#000207" stroke-width="0.401008" stroke-miterlimit="10" stroke-linecap="round" stroke-linejoin="round"/>
<path d="M653.431 71.1625C649.71 76.6914 639.107 82.3778 631.833 83.2615C613.465 85.5442 591.086 76.5746 572.805 73.6911C554.524 70.8077 536.129 73.7752 520.63 82.6864" stroke="#000207" stroke-width="0.401008" stroke-miterlimit="10" stroke-linecap="round" stroke-linejoin="round"/>
<path d="M367.609 49.6451C367.609 49.6451 328.926 18.6544 323.705 19.4958C318.484 20.3372 338.016 40.0842 344.653 43.0312C351.29 45.9781 352.981 42.9183 365.284 51.947C377.588 60.9756 372.826 53.3922 367.609 49.6451Z" fill="white" stroke="black" stroke-width="0.401008" stroke-miterlimit="10" stroke-linecap="round" stroke-linejoin="round"/>
<path d="M337.331 27.1882L329.344 29.3158C329.344 29.3158 336.856 38.9881 342.548 41.4313C334.297 31.0683 352.76 40.4455 356.58 42.9365C360.461 45.4295 366.269 48.5434 366.269 48.5434C366.269 48.5434 345.501 31.0263 337.331 27.1882Z" fill="#081B6A" stroke="black" stroke-width="0.401008" stroke-miterlimit="10" stroke-linecap="round" stroke-linejoin="round"/>
<path d="M268.21 9.08436C268.21 9.08436 269.032 5.15391 274.682 8.65065C280.331 12.1474 305.682 32.7065 305.682 32.7065" stroke="black" stroke-width="0.401008" stroke-miterlimit="10" stroke-linecap="round" stroke-linejoin="round"/>
<path d="M318.564 15.3775C318.564 15.3775 318.631 12.215 336.641 21.8412C348.275 28.0011 356.023 31.8262 356.023 31.8262" stroke="black" stroke-width="0.401008" stroke-miterlimit="10" stroke-linecap="round" stroke-linejoin="round"/>
<path d="M425.611 105.035C428.106 105.26 429.997 106.012 431.282 107.289C432.568 108.566 433.211 110.746 433.211 113.827V115.517C433.211 117.321 433.135 118.673 432.984 119.575C432.908 120.477 432.568 121.529 431.963 122.731C430.829 124.91 427.955 126 423.343 126C418.73 126 415.667 125.249 414.155 123.746C412.718 122.243 412 119.387 412 115.179C412 113.301 412.076 111.91 412.227 111.009C412.756 104.396 414.722 98.7601 418.125 94.1012C421.528 89.3671 425.838 87 431.056 87C431.585 87 432.039 87.4133 432.417 88.2399C432.87 88.9913 433.097 90.0058 433.097 91.2832C433.097 92.4855 432.908 93.4624 432.53 94.2139C432.228 94.9653 431.85 95.4162 431.396 95.5665C431.018 95.6416 430.715 95.7168 430.488 95.7919C430.262 95.7919 429.846 95.9798 429.241 96.3555C428.711 96.6561 428.22 97.1069 427.766 97.7081C426.481 99.211 425.762 101.653 425.611 105.035ZM453.287 105.035C455.782 105.26 457.673 106.049 458.958 107.402C460.319 108.679 461 111.384 461 115.517C461 119.951 460.206 122.769 458.618 123.971C456.728 125.324 453.816 126 449.884 126C446.028 126 443.343 125.249 441.831 123.746C440.394 122.243 439.676 119.387 439.676 115.179C439.676 113.301 439.752 111.91 439.903 111.009C440.432 104.396 442.398 98.7601 445.801 94.1012C449.279 89.3671 453.627 87 458.845 87C459.374 87 459.828 87.4133 460.206 88.2399C460.66 88.9913 460.887 90.0058 460.887 91.2832C460.887 92.4855 460.698 93.4624 460.319 94.2139C460.017 94.9653 459.639 95.4162 459.185 95.5665C458.807 95.6416 458.505 95.7168 458.278 95.7919C458.051 95.7919 457.635 95.9798 457.03 96.3555C456.425 96.6561 455.896 97.1069 455.442 97.7081C454.157 99.211 453.438 101.653 453.287 105.035Z" fill="#24194B" fill-opacity="0.17"/>
</g>
</svg>
