<svg width="155" height="33" viewBox="0 0 155 33" fill="none" xmlns="http://www.w3.org/2000/svg">
<g filter="url(#filter0_d_282_6833)">
<path d="M28.2595 27.992C27.4208 28.9893 26.4122 29.7373 25.2335 30.236C24.0548 30.7573 22.7515 31.018 21.3235 31.018C19.8955 31.018 18.6148 30.8367 17.4815 30.474C16.3481 30.134 15.2148 29.5447 14.0815 28.706C12.9482 27.89 11.6561 26.7227 10.2055 25.204C8.21082 24.796 6.45415 24.0253 4.93548 22.892C3.41682 21.736 2.22682 20.3193 1.36548 18.642C0.526816 16.9647 0.107483 15.1173 0.107483 13.1C0.107483 10.72 0.685483 8.58933 1.84148 6.708C2.99748 4.804 4.59548 3.31933 6.63548 2.254C8.67548 1.18867 10.9762 0.655999 13.5375 0.655999C16.0988 0.655999 18.3995 1.18867 20.4395 2.254C22.4795 3.31933 24.0775 4.804 25.2335 6.708C26.3895 8.58933 26.9675 10.72 26.9675 13.1C26.9675 15.7067 26.2762 18.0187 24.8935 20.036C23.5108 22.0307 21.6408 23.504 19.2835 24.456C19.6235 24.8187 19.9635 25.068 20.3035 25.204C20.6662 25.3627 21.0628 25.442 21.4935 25.442C22.6722 25.442 23.7715 24.932 24.7915 23.912L28.2595 27.992ZM13.5375 7.15C12.5402 7.15 11.6335 7.39933 10.8175 7.898C10.0241 8.374 9.38948 9.06533 8.91348 9.972C8.43748 10.856 8.19948 11.8987 8.19948 13.1C8.19948 14.3013 8.43748 15.3553 8.91348 16.262C9.38948 17.146 10.0241 17.8373 10.8175 18.336C11.6335 18.812 12.5402 19.05 13.5375 19.05C14.5348 19.05 15.4302 18.812 16.2235 18.336C17.0395 17.8373 17.6855 17.146 18.1615 16.262C18.6375 15.3553 18.8755 14.3013 18.8755 13.1C18.8755 11.8987 18.6375 10.856 18.1615 9.972C17.6855 9.06533 17.0395 8.374 16.2235 7.898C15.4302 7.39933 14.5348 7.15 13.5375 7.15ZM60.1738 6.402L60.1738 25H52.8638L52.8638 23.232C52.1838 23.9347 51.3905 24.4673 50.4838 24.83C49.5771 25.17 48.6138 25.34 47.5938 25.34C45.2365 25.34 43.3438 24.626 41.9158 23.198C40.4878 21.7473 39.7738 19.5713 39.7738 16.67L39.7738 6.402H47.4578L47.4578 15.344C47.4578 16.6133 47.6618 17.52 48.0698 18.064C48.4778 18.608 49.0785 18.88 49.8718 18.88C50.6198 18.88 51.2431 18.5853 51.7418 17.996C52.2405 17.384 52.4898 16.432 52.4898 15.14L52.4898 6.402L60.1738 6.402ZM83.608 25.34C81.5454 25.34 79.6867 24.932 78.032 24.116C76.4 23.2773 75.1194 22.1327 74.19 20.682C73.2607 19.2087 72.796 17.5427 72.796 15.684C72.796 13.8253 73.2607 12.1707 74.19 10.72C75.1194 9.24667 76.4 8.102 78.032 7.286C79.6867 6.47 81.5454 6.062 83.608 6.062C85.6934 6.062 87.552 6.47 89.184 7.286C90.8387 8.102 92.1194 9.24667 93.026 10.72C93.9554 12.1707 94.42 13.8253 94.42 15.684C94.42 17.5427 93.9554 19.2087 93.026 20.682C92.1194 22.1327 90.8387 23.2773 89.184 24.116C87.552 24.932 85.6934 25.34 83.608 25.34ZM83.608 19.356C84.492 19.356 85.2174 19.0387 85.784 18.404C86.3507 17.7467 86.634 16.84 86.634 15.684C86.634 14.528 86.3507 13.6327 85.784 12.998C85.2174 12.3633 84.492 12.046 83.608 12.046C82.724 12.046 81.9987 12.3633 81.432 12.998C80.8654 13.6327 80.582 14.528 80.582 15.684C80.582 16.84 80.8654 17.7467 81.432 18.404C81.9987 19.0387 82.724 19.356 83.608 19.356ZM120.727 24.354C119.571 25.0113 117.996 25.34 116.001 25.34C113.394 25.34 111.388 24.7167 109.983 23.47C108.578 22.2007 107.875 20.308 107.875 17.792L107.875 13.032H105.325L105.325 7.422H107.875L107.875 2.22L115.559 2.22L115.559 7.422H119.367L119.367 13.032H115.559L115.559 17.724C115.559 18.2907 115.706 18.7327 116.001 19.05C116.296 19.3673 116.681 19.526 117.157 19.526C117.814 19.526 118.392 19.356 118.891 19.016L120.727 24.354ZM152.154 15.684C152.154 15.7973 152.12 16.398 152.052 17.486L139.132 17.486C139.404 18.1887 139.857 18.7327 140.492 19.118C141.126 19.4807 141.92 19.662 142.872 19.662C143.688 19.662 144.368 19.56 144.912 19.356C145.478 19.152 146.09 18.8007 146.748 18.302L150.76 22.348C148.946 24.3427 146.238 25.34 142.634 25.34C140.39 25.34 138.418 24.932 136.718 24.116C135.018 23.2773 133.703 22.1213 132.774 20.648C131.844 19.1747 131.38 17.52 131.38 15.684C131.38 13.8253 131.833 12.1707 132.74 10.72C133.669 9.24667 134.927 8.102 136.514 7.286C138.123 6.47 139.925 6.062 141.92 6.062C143.801 6.062 145.512 6.436 147.054 7.184C148.618 7.932 149.853 9.03133 150.76 10.482C151.689 11.9327 152.154 13.6667 152.154 15.684ZM141.988 11.298C141.194 11.298 140.537 11.5133 140.016 11.944C139.494 12.3747 139.154 12.9867 138.996 13.78L144.98 13.78C144.821 13.0093 144.481 12.4087 143.96 11.978C143.438 11.5247 142.781 11.298 141.988 11.298Z" fill="white"/>
<path d="M28.2595 27.992L29.0248 28.6356L29.569 27.9885L29.0214 27.3444L28.2595 27.992ZM25.2335 30.236L24.8438 29.315L24.8364 29.3182L24.829 29.3215L25.2335 30.236ZM17.4815 30.474L17.7863 29.5216L17.7776 29.5188L17.7688 29.5162L17.4815 30.474ZM14.0815 28.706L14.6764 27.9021L14.6658 27.8945L14.0815 28.706ZM10.2055 25.204L10.9286 24.5133L10.7125 24.287L10.4059 24.2243L10.2055 25.204ZM4.93548 22.892L4.32977 23.6877L4.3374 23.6934L4.93548 22.892ZM1.36548 18.642L0.471004 19.0892L0.475916 19.0988L1.36548 18.642ZM1.84148 6.708L2.69351 7.23153L2.69627 7.22698L1.84148 6.708ZM20.4395 2.254L20.9024 1.36759L20.4395 2.254ZM25.2335 6.708L24.3787 7.22698L24.3815 7.23152L25.2335 6.708ZM24.8935 20.036L25.7154 20.6057L25.7183 20.6013L24.8935 20.036ZM19.2835 24.456L18.909 23.5288L17.5558 24.0753L18.5539 25.1399L19.2835 24.456ZM20.3035 25.204L20.7043 24.2878L20.6897 24.2814L20.6749 24.2755L20.3035 25.204ZM24.7915 23.912L25.5534 23.2644L24.8511 22.4381L24.0844 23.2049L24.7915 23.912ZM10.8175 7.898L11.332 8.75552L11.3389 8.75128L10.8175 7.898ZM8.91348 9.972L9.794 10.4461L9.79888 10.4368L8.91348 9.972ZM8.91348 16.262L8.02804 16.7269L8.03301 16.7361L8.91348 16.262ZM10.8175 18.336L10.2853 19.1826L10.2993 19.1914L10.3136 19.1998L10.8175 18.336ZM16.2235 18.336L16.738 19.1935L16.7449 19.1893L16.2235 18.336ZM18.1615 16.262L19.042 16.7361L19.0469 16.7268L18.1615 16.262ZM18.1615 9.972L17.276 10.4369L17.281 10.4461L18.1615 9.972ZM16.2235 7.898L15.6913 8.74464L15.7053 8.75344L15.7196 8.76178L16.2235 7.898ZM27.4941 27.3484C26.7551 28.2272 25.8744 28.879 24.8438 29.315L25.6231 31.157C26.9499 30.5956 28.0865 29.7515 29.0248 28.6356L27.4941 27.3484ZM24.829 29.3215C23.7909 29.7806 22.6273 30.018 21.3235 30.018L21.3235 32.018C22.8757 32.018 24.3188 31.734 25.638 31.1505L24.829 29.3215ZM21.3235 30.018C19.9789 30.018 18.8037 29.8471 17.7863 29.5216L17.1767 31.4264C18.426 31.8262 19.8121 32.018 21.3235 32.018L21.3235 30.018ZM17.7688 29.5162C16.765 29.215 15.7341 28.6849 14.6763 27.9022L13.4866 29.5098C14.6955 30.4044 15.9313 31.053 17.1941 31.4318L17.7688 29.5162ZM14.6658 27.8945C13.6005 27.1275 12.3557 26.0073 10.9286 24.5133L9.48237 25.8947C10.9566 27.438 12.2958 28.6525 13.4972 29.5175L14.6658 27.8945ZM10.4059 24.2243C8.54436 23.8435 6.92578 23.1295 5.53357 22.0906L4.3374 23.6934C5.98252 24.9211 7.87728 25.7485 10.0051 26.1837L10.4059 24.2243ZM5.54117 22.0963C4.13973 21.0295 3.04737 19.7281 2.25505 18.1852L0.475916 19.0988C1.40626 20.9105 2.69391 22.4425 4.3298 23.6877L5.54117 22.0963ZM2.25991 18.1948C1.49585 16.6667 1.10748 14.9741 1.10748 13.1H-0.892517C-0.892517 15.2606 -0.442219 17.2627 0.471056 19.0892L2.25991 18.1948ZM1.10748 13.1C1.10748 10.8899 1.64179 8.94311 2.69349 7.23152L0.989472 6.18447C-0.270829 8.23555 -0.892517 10.5501 -0.892517 13.1H1.10748ZM2.69627 7.22698C3.75436 5.48425 5.21445 4.12424 7.09839 3.14041L6.17258 1.36759C3.97652 2.51442 2.24061 4.12375 0.986696 6.18902L2.69627 7.22698ZM7.09839 3.14041C8.97996 2.15781 11.1189 1.656 13.5375 1.656L13.5375 -0.344001C10.8334 -0.344001 8.371 0.219524 6.17258 1.36759L7.09839 3.14041ZM13.5375 1.656C15.9561 1.656 18.095 2.15781 19.9766 3.14041L20.9024 1.36759C18.704 0.219524 16.2415 -0.344001 13.5375 -0.344001L13.5375 1.656ZM19.9766 3.14041C21.8605 4.12424 23.3206 5.48425 24.3787 7.22698L26.0883 6.18902C24.8344 4.12375 23.0984 2.51442 20.9024 1.36759L19.9766 3.14041ZM24.3815 7.23152C25.4332 8.94311 25.9675 10.8899 25.9675 13.1H27.9675C27.9675 10.5501 27.3458 8.23555 26.0855 6.18447L24.3815 7.23152ZM25.9675 13.1C25.9675 15.5189 25.3295 17.631 24.0686 19.4707L25.7183 20.6013C27.2228 18.4064 27.9675 15.8945 27.9675 13.1H25.9675ZM24.0716 19.4663C22.8055 21.2929 21.0946 22.6461 18.909 23.5288L19.6579 25.3832C22.187 24.3619 24.2162 22.7685 25.7153 20.6057L24.0716 19.4663ZM18.5539 25.1399C18.9602 25.5732 19.4168 25.9264 19.9321 26.1325L20.6749 24.2755C20.5102 24.2096 20.2868 24.0641 20.013 23.7721L18.5539 25.1399ZM19.9027 26.1202C20.4025 26.3388 20.9371 26.442 21.4935 26.442L21.4935 24.442C21.1885 24.442 20.9298 24.3865 20.7043 24.2878L19.9027 26.1202ZM21.4935 26.442C22.9945 26.442 24.3357 25.782 25.4986 24.6191L24.0844 23.2049C23.2073 24.082 22.3498 24.442 21.4935 24.442L21.4935 26.442ZM24.0295 24.5596L27.4975 28.6396L29.0214 27.3444L25.5534 23.2644L24.0295 24.5596ZM13.5375 6.15C12.3644 6.15 11.276 6.44588 10.296 7.04472L11.3389 8.75128C11.991 8.35279 12.7159 8.15 13.5375 8.15L13.5375 6.15ZM10.303 7.04051C9.33588 7.62077 8.57997 8.45595 8.02809 9.50717L9.79888 10.4368C10.199 9.67472 10.7124 9.12723 11.332 8.75549L10.303 7.04051ZM8.03301 9.4979C7.46451 10.5537 7.19948 11.7656 7.19948 13.1H9.19948C9.19948 12.0318 9.41046 11.1583 9.79395 10.4461L8.03301 9.4979ZM7.19948 13.1C7.19948 14.4352 7.46477 15.6539 8.02809 16.7268L9.79888 15.7972C9.41019 15.0568 9.19948 14.1674 9.19948 13.1H7.19948ZM8.03301 16.7361C8.58491 17.7611 9.33519 18.5854 10.2853 19.1826L11.3497 17.4894C10.7131 17.0892 10.1941 16.5309 9.79395 15.7879L8.03301 16.7361ZM10.3136 19.1998C11.2912 19.77 12.3734 20.05 13.5375 20.05L13.5375 18.05C12.7069 18.05 11.9758 17.854 11.3214 17.4722L10.3136 19.1998ZM13.5375 20.05C14.7014 20.05 15.7771 19.77 16.738 19.1935L15.709 17.4785C15.0832 17.854 14.3682 18.05 13.5375 18.05L13.5375 20.05ZM16.7449 19.1893C17.7197 18.5936 18.4863 17.768 19.042 16.7361L17.281 15.7879C16.8846 16.524 16.3592 17.0811 15.702 17.4827L16.7449 19.1893ZM19.0469 16.7268C19.6102 15.6539 19.8755 14.4352 19.8755 13.1H17.8755C17.8755 14.1674 17.6648 15.0568 17.2761 15.7972L19.0469 16.7268ZM19.8755 13.1C19.8755 11.7656 19.6105 10.5537 19.042 9.4979L17.281 10.4461C17.6645 11.1583 17.8755 12.0318 17.8755 13.1H19.8755ZM19.0469 9.50717C18.4913 8.44885 17.719 7.6127 16.7274 7.03422L15.7196 8.76178C16.3599 9.1353 16.8797 9.68181 17.2761 10.4368L19.0469 9.50717ZM16.7557 7.05136C15.7925 6.44596 14.7105 6.15 13.5375 6.15L13.5375 8.15C14.3592 8.15 15.0678 8.3527 15.6913 8.74464L16.7557 7.05136ZM60.1738 6.402H61.1738V5.402H60.1738V6.402ZM60.1738 25L60.1738 26H61.1738L61.1738 25H60.1738ZM52.8638 25H51.8638L51.8638 26H52.8638L52.8638 25ZM52.8638 23.232H53.8638L53.8638 20.7607L52.1452 22.5366L52.8638 23.232ZM50.4838 24.83L50.8349 25.7663L50.8451 25.7625L50.8552 25.7585L50.4838 24.83ZM41.9158 23.198L41.2031 23.8995L41.2087 23.9051L41.9158 23.198ZM39.7738 6.402V5.402H38.7738V6.402H39.7738ZM47.4578 6.402H48.4578V5.402H47.4578V6.402ZM48.0698 18.064L48.8698 17.464V17.464L48.0698 18.064ZM51.7418 17.996L52.5052 18.6419L52.5112 18.6349L52.517 18.6277L51.7418 17.996ZM52.4898 6.402V5.402H51.4898V6.402H52.4898ZM59.1738 6.402L59.1738 25H61.1738L61.1738 6.402H59.1738ZM60.1738 24H52.8638L52.8638 26H60.1738L60.1738 24ZM53.8638 25L53.8638 23.232H51.8638L51.8638 25H53.8638ZM52.1452 22.5366C51.5631 23.1381 50.888 23.5913 50.1124 23.9015L50.8552 25.7585C51.8929 25.3434 52.8045 24.7312 53.5824 23.9274L52.1452 22.5366ZM50.1327 23.8937C49.3442 24.1894 48.5004 24.34 47.5938 24.34L47.5938 26.34C48.7272 26.34 49.8101 26.1506 50.8349 25.7663L50.1327 23.8937ZM47.5938 24.34C45.4538 24.34 43.832 23.7 42.6229 22.4909L41.2087 23.9051C42.8556 25.552 45.0191 26.34 47.5938 26.34L47.5938 24.34ZM42.6284 22.4965C41.4507 21.3 40.7738 19.4211 40.7738 16.67H38.7738C38.7738 19.7216 39.5249 22.1947 41.2031 23.8995L42.6284 22.4965ZM40.7738 16.67L40.7738 6.402H38.7738L38.7738 16.67H40.7738ZM39.7738 7.402H47.4578L47.4578 5.402H39.7738L39.7738 7.402ZM46.4578 6.402L46.4578 15.344H48.4578L48.4578 6.402H46.4578ZM46.4578 15.344C46.4578 16.6675 46.6602 17.8512 47.2698 18.664L48.8698 17.464C48.6634 17.1888 48.4578 16.5591 48.4578 15.344H46.4578ZM47.2698 18.664C47.8997 19.5039 48.8232 19.88 49.8718 19.88L49.8718 17.88C49.3337 17.88 49.0559 17.7121 48.8698 17.464L47.2698 18.664ZM49.8718 19.88C50.9246 19.88 51.8235 19.4475 52.5052 18.6419L50.9784 17.3501C50.6627 17.7231 50.315 17.88 49.8718 17.88L49.8718 19.88ZM52.517 18.6277C53.2284 17.7547 53.4898 16.5264 53.4898 15.14H51.4898C51.4898 16.3376 51.2525 17.0133 50.9666 17.3643L52.517 18.6277ZM53.4898 15.14L53.4898 6.402H51.4898L51.4898 15.14H53.4898ZM52.4898 7.402L60.1738 7.402L60.1738 5.402L52.4898 5.402L52.4898 7.402ZM78.032 24.116L77.575 25.0054L77.5823 25.0092L77.5897 25.0129L78.032 24.116ZM74.19 20.682L73.3442 21.2155L73.348 21.2214L74.19 20.682ZM74.19 10.72L75.0321 11.2594L75.0358 11.2535L74.19 10.72ZM78.032 7.286L77.5897 6.38911L77.5848 6.39157L78.032 7.286ZM89.184 7.286L88.7368 8.18044L88.7417 8.18287L89.184 7.286ZM93.026 10.72L92.1744 11.2441L92.1791 11.2518L92.184 11.2594L93.026 10.72ZM93.026 20.682L92.1802 20.1485L92.178 20.152L93.026 20.682ZM89.184 24.116L89.6312 25.0104L89.6361 25.008L89.184 24.116ZM85.784 18.404L86.53 19.07L86.5358 19.0635L86.5414 19.0569L85.784 18.404ZM81.432 18.404L80.6746 19.0569L80.6803 19.0635L80.6861 19.07L81.432 18.404ZM83.608 24.34C81.6805 24.34 79.9759 23.9596 78.4743 23.2191L77.5897 25.0129C79.3975 25.9044 81.4103 26.34 83.608 26.34L83.608 24.34ZM78.4891 23.2266C77.0035 22.4631 75.86 21.4349 75.0321 20.1426L73.348 21.2214C74.3787 22.8304 75.7966 24.0915 77.575 25.0054L78.4891 23.2266ZM75.0358 20.1485C74.2141 18.8457 73.796 17.3671 73.796 15.684H71.796C71.796 17.7183 72.3073 19.5716 73.3442 21.2155L75.0358 20.1485ZM73.796 15.684C73.796 14.0008 74.214 12.5363 75.0321 11.2594L73.348 10.1806C72.3074 11.805 71.796 13.6498 71.796 15.684H73.796ZM75.0358 11.2535C75.863 9.9421 77.0025 8.91882 78.4792 8.18043L77.5848 6.39157C75.7976 7.28518 74.3757 8.55123 73.3442 10.1865L75.0358 11.2535ZM78.4743 8.18287C79.9759 7.44236 81.6805 7.062 83.608 7.062V5.062C81.4103 5.062 79.3975 5.49764 77.5897 6.38913L78.4743 8.18287ZM83.608 7.062C85.5604 7.062 87.2623 7.44317 88.7368 8.18043L89.6312 6.39157C87.8418 5.49682 85.8263 5.062 83.608 5.062V7.062ZM88.7417 8.18287C90.2393 8.92139 91.373 9.94184 92.1744 11.2441L93.8777 10.1959C92.8657 8.55149 91.4381 7.2826 89.6263 6.38913L88.7417 8.18287ZM92.184 11.2594C93.002 12.5363 93.42 14.0008 93.42 15.684H95.42C95.42 13.6498 94.9087 11.805 93.8681 10.1806L92.184 11.2594ZM93.42 15.684C93.42 17.3671 93.002 18.8457 92.1802 20.1485L93.8718 21.2155C94.9087 19.5716 95.42 17.7183 95.42 15.684H93.42ZM92.178 20.152C91.376 21.4352 90.2383 22.4605 88.7319 23.224L89.6361 25.008C91.4391 24.0942 92.8627 22.8301 93.874 21.212L92.178 20.152ZM88.7368 23.2216C87.2623 23.9588 85.5604 24.34 83.608 24.34L83.608 26.34C85.8263 26.34 87.8418 25.9052 89.6312 25.0104L88.7368 23.2216ZM83.608 20.356C84.7643 20.356 85.7653 19.9264 86.53 19.07L85.0381 17.738C84.6694 18.1509 84.2198 18.356 83.608 18.356V20.356ZM86.5414 19.0569C87.3102 18.1652 87.634 16.9992 87.634 15.684H85.634C85.634 16.6808 85.3912 17.3281 85.0266 17.7511L86.5414 19.0569ZM87.634 15.684C87.634 14.3712 87.3111 13.2069 86.53 12.332L85.0381 13.664C85.3903 14.0585 85.634 14.6848 85.634 15.684H87.634ZM86.53 12.332C85.7653 11.4756 84.7643 11.046 83.608 11.046L83.608 13.046C84.2198 13.046 84.6694 13.2511 85.0381 13.664L86.53 12.332ZM83.608 11.046C82.4518 11.046 81.4507 11.4756 80.6861 12.332L82.178 13.664C82.5467 13.2511 82.9963 13.046 83.608 13.046L83.608 11.046ZM80.6861 12.332C79.9049 13.2069 79.582 14.3712 79.582 15.684H81.582C81.582 14.6848 81.8258 14.0585 82.178 13.664L80.6861 12.332ZM79.582 15.684C79.582 16.9992 79.9059 18.1652 80.6746 19.0569L82.1894 17.7511C81.8248 17.3281 81.582 16.6808 81.582 15.684H79.582ZM80.6861 19.07C81.4507 19.9264 82.4518 20.356 83.608 20.356V18.356C82.9963 18.356 82.5467 18.1509 82.178 17.738L80.6861 19.07ZM120.727 24.354L121.221 25.2233L121.942 24.8132L121.673 24.0288L120.727 24.354ZM109.983 23.47L109.313 24.2121L109.319 24.2181L109.983 23.47ZM107.875 13.032H108.875L108.875 12.032H107.875L107.875 13.032ZM105.325 13.032H104.325V14.032H105.325V13.032ZM105.325 7.422V6.422H104.325V7.422H105.325ZM107.875 7.422L107.875 8.422H108.875L108.875 7.422H107.875ZM107.875 2.22V1.22H106.875V2.22H107.875ZM115.559 2.22H116.559V1.22H115.559V2.22ZM115.559 7.422H114.559L114.559 8.422H115.559L115.559 7.422ZM119.367 7.422H120.367V6.422H119.367V7.422ZM119.367 13.032V14.032H120.367V13.032H119.367ZM115.559 13.032L115.559 12.032H114.559L114.559 13.032H115.559ZM116.001 19.05L115.268 19.7304V19.7305L116.001 19.05ZM118.891 19.016L119.837 18.6908L119.41 17.4515L118.328 18.1898L118.891 19.016ZM120.233 23.4847C119.284 24.024 117.902 24.34 116.001 24.34L116.001 26.34C118.089 26.34 119.858 25.9987 121.221 25.2233L120.233 23.4847ZM116.001 24.34C113.544 24.34 111.809 23.7528 110.647 22.7219L109.319 24.2181C110.968 25.6805 113.245 26.34 116.001 26.34L116.001 24.34ZM110.653 22.7279C109.521 21.705 108.875 20.1229 108.875 17.792H106.875C106.875 20.4931 107.634 22.6963 109.313 24.2121L110.653 22.7279ZM108.875 17.792L108.875 13.032H106.875L106.875 17.792H108.875ZM107.875 12.032H105.325L105.325 14.032H107.875L107.875 12.032ZM106.325 13.032L106.325 7.422H104.325L104.325 13.032H106.325ZM105.325 8.422H107.875L107.875 6.422H105.325L105.325 8.422ZM108.875 7.422L108.875 2.22H106.875L106.875 7.422H108.875ZM107.875 3.22L115.559 3.22V1.22L107.875 1.22V3.22ZM114.559 2.22L114.559 7.422H116.559L116.559 2.22L114.559 2.22ZM115.559 8.422H119.367L119.367 6.422H115.559L115.559 8.422ZM118.367 7.422L118.367 13.032H120.367L120.367 7.422H118.367ZM119.367 12.032H115.559L115.559 14.032H119.367L119.367 12.032ZM114.559 13.032L114.559 17.724H116.559L116.559 13.032H114.559ZM114.559 17.724C114.559 18.463 114.754 19.1768 115.268 19.7304L116.734 18.3695C116.659 18.2885 116.559 18.1184 116.559 17.724H114.559ZM115.268 19.7305C115.772 20.273 116.434 20.526 117.157 20.526L117.157 18.526C116.928 18.526 116.819 18.4617 116.734 18.3695L115.268 19.7305ZM117.157 20.526C117.997 20.526 118.775 20.3056 119.454 19.8422L118.328 18.1898C118.01 18.4064 117.632 18.526 117.157 18.526L117.157 20.526ZM117.945 19.3412L119.781 24.6792L121.673 24.0288L119.837 18.6908L117.945 19.3412ZM152.052 17.486L152.052 18.486H152.991L153.05 17.5484L152.052 17.486ZM139.132 17.486V16.486H137.672L138.199 17.847L139.132 17.486ZM140.492 19.118L139.973 19.9728L139.984 19.9797L139.995 19.9862L140.492 19.118ZM144.912 19.356L144.573 18.415L144.561 18.4197L144.912 19.356ZM146.748 18.302L147.458 17.5979L146.841 16.976L146.143 17.5053L146.748 18.302ZM150.76 22.348L151.5 23.0207L152.138 22.3181L151.47 21.6439L150.76 22.348ZM136.718 24.116L136.275 25.0129L136.285 25.0175L136.718 24.116ZM132.774 20.648L133.619 20.1145L132.774 20.648ZM132.74 10.72L131.894 10.1865L131.892 10.19L132.74 10.72ZM136.514 7.286L136.061 6.39408L136.056 6.39671L136.514 7.286ZM147.054 7.184L146.617 8.08367L146.622 8.08613L147.054 7.184ZM150.76 10.482L149.912 11.012L149.918 11.0214L150.76 10.482ZM140.016 11.944L140.652 12.715L140.016 11.944ZM138.996 13.78L138.015 13.5839L137.776 14.78H138.996V13.78ZM144.98 13.78V14.78H146.206L145.959 13.5783L144.98 13.78ZM143.96 11.978L143.303 12.7326L143.313 12.7409L143.323 12.749L143.96 11.978ZM151.154 15.684C151.154 15.6792 151.154 15.686 151.153 15.7132C151.152 15.7374 151.15 15.7703 151.148 15.8128C151.144 15.8977 151.138 16.0141 151.13 16.163C151.113 16.4604 151.088 16.8803 151.054 17.4236L153.05 17.5484C153.116 16.487 153.154 15.8382 153.154 15.684H151.154ZM152.052 16.486L139.132 16.486L139.132 18.486L152.052 18.486L152.052 16.486ZM138.199 17.847C138.549 18.7521 139.146 19.4712 139.973 19.9728L141.011 18.2632C140.567 17.9942 140.258 17.6253 140.064 17.125L138.199 17.847ZM139.995 19.9862C140.82 20.4575 141.797 20.662 142.872 20.662V18.662C142.042 18.662 141.432 18.5038 140.988 18.2498L139.995 19.9862ZM142.872 20.662C143.763 20.662 144.571 20.5517 145.263 20.2923L144.561 18.4197C144.164 18.5683 143.613 18.662 142.872 18.662V20.662ZM145.25 20.2969C145.94 20.0485 146.642 19.6376 147.352 19.0987L146.143 17.5053C145.539 17.9637 145.016 18.2555 144.573 18.4151L145.25 20.2969ZM146.038 19.0061L150.05 23.0521L151.47 21.6439L147.458 17.5979L146.038 19.0061ZM150.02 21.6753C148.454 23.3978 146.055 24.34 142.634 24.34V26.34C146.42 26.34 149.439 25.2875 151.5 23.0207L150.02 21.6753ZM142.634 24.34C140.511 24.34 138.692 23.9545 137.15 23.2145L136.285 25.0175C138.143 25.9095 140.268 26.34 142.634 26.34V24.34ZM137.16 23.2192C135.61 22.4547 134.442 21.4182 133.619 20.1145L131.928 21.1815C132.964 22.8245 134.425 24.1 136.275 25.0128L137.16 23.2192ZM133.619 20.1145C132.796 18.8097 132.38 17.3419 132.38 15.684H130.38C130.38 17.6981 130.892 19.5397 131.928 21.1815L133.619 20.1145ZM132.38 15.684C132.38 13.9959 132.789 12.528 133.588 11.25L131.892 10.19C130.877 11.8133 130.38 13.6547 130.38 15.684H132.38ZM133.585 11.2535C134.417 9.93515 135.539 8.91162 136.971 8.17529L136.056 6.39671C134.315 7.29238 132.921 8.55818 131.894 10.1865L133.585 11.2535ZM136.966 8.1779C138.421 7.4402 140.065 7.062 141.92 7.062V5.062C139.785 5.062 137.825 5.4998 136.061 6.3941L136.966 8.1779ZM141.92 7.062C143.665 7.062 145.225 7.40796 146.617 8.08365L147.49 6.28434C145.8 5.46404 143.937 5.062 141.92 5.062V7.062ZM146.622 8.08613C148.017 8.75334 149.107 9.7247 149.912 11.012L151.608 9.952C150.599 8.33797 149.218 7.11066 147.485 6.28186L146.622 8.08613ZM149.918 11.0214C150.727 12.2852 151.154 13.8246 151.154 15.684H153.154C153.154 13.5087 152.651 11.5802 151.602 9.94257L149.918 11.0214ZM141.988 10.298C141.004 10.298 140.109 10.5695 139.379 11.173L140.652 12.715C140.965 12.4572 141.385 12.298 141.988 12.298V10.298ZM139.379 11.173C138.647 11.7775 138.21 12.6112 138.015 13.5839L139.976 13.9761C140.099 13.3622 140.342 12.9719 140.652 12.715L139.379 11.173ZM138.996 14.78L144.98 14.78V12.78L138.996 12.78V14.78ZM145.959 13.5783C145.762 12.6227 145.321 11.8059 144.596 11.207L143.323 12.749C143.64 13.0114 143.88 13.396 144 13.9817L145.959 13.5783ZM144.616 11.2234C143.886 10.5885 142.984 10.298 141.988 10.298V12.298C142.578 12.298 142.991 12.4608 143.303 12.7326L144.616 11.2234Z" fill="black"/>
</g>
<defs>
<filter id="filter0_d_282_6833" x="0.107422" y="0.65625" width="154.047" height="31.3594" filterUnits="userSpaceOnUse" color-interpolation-filters="sRGB">
<feFlood flood-opacity="0" result="BackgroundImageFix"/>
<feColorMatrix in="SourceAlpha" type="matrix" values="0 0 0 0 0 0 0 0 0 0 0 0 0 0 0 0 0 0 127 0" result="hardAlpha"/>
<feOffset dx="2" dy="1"/>
<feComposite in2="hardAlpha" operator="out"/>
<feColorMatrix type="matrix" values="0 0 0 0 0.105882 0 0 0 0 0.105882 0 0 0 0 0.121569 0 0 0 1 0"/>
<feBlend mode="normal" in2="BackgroundImageFix" result="effect1_dropShadow_282_6833"/>
<feBlend mode="normal" in="SourceGraphic" in2="effect1_dropShadow_282_6833" result="shape"/>
</filter>
</defs>
</svg>
