<svg width="31" height="215" viewBox="0 0 31 215" fill="none" xmlns="http://www.w3.org/2000/svg">
<g filter="url(#filter0_d_279_4510)">
<path d="M28.2278 27.992C27.3892 28.9893 26.3805 29.7373 25.2018 30.236C24.0232 30.7573 22.7198 31.018 21.2918 31.018C19.8638 31.018 18.5832 30.8367 17.4498 30.474C16.3165 30.134 15.1832 29.5447 14.0498 28.706C12.9165 27.89 11.6245 26.7227 10.1738 25.204C8.17918 24.796 6.42251 24.0253 4.90384 22.892C3.38518 21.736 2.19518 20.3193 1.33384 18.642C0.495177 16.9647 0.0758438 15.1173 0.0758438 13.1C0.0758438 10.72 0.653844 8.58933 1.80984 6.708C2.96584 4.804 4.56384 3.31933 6.60384 2.254C8.64384 1.18867 10.9445 0.655999 13.5058 0.655999C16.0672 0.655999 18.3678 1.18867 20.4078 2.254C22.4478 3.31933 24.0458 4.804 25.2018 6.708C26.3578 8.58933 26.9358 10.72 26.9358 13.1C26.9358 15.7067 26.2445 18.0187 24.8618 20.036C23.4792 22.0307 21.6092 23.504 19.2518 24.456C19.5918 24.8187 19.9318 25.068 20.2718 25.204C20.6345 25.3627 21.0312 25.442 21.4618 25.442C22.6405 25.442 23.7398 24.932 24.7598 23.912L28.2278 27.992ZM13.5058 7.15C12.5085 7.15 11.6018 7.39933 10.7858 7.898C9.99251 8.374 9.35784 9.06533 8.88184 9.972C8.40584 10.856 8.16784 11.8987 8.16784 13.1C8.16784 14.3013 8.40584 15.3553 8.88184 16.262C9.35784 17.146 9.99251 17.8373 10.7858 18.336C11.6018 18.812 12.5085 19.05 13.5058 19.05C14.5032 19.05 15.3985 18.812 16.1918 18.336C17.0078 17.8373 17.6538 17.146 18.1298 16.262C18.6058 15.3553 18.8438 14.3013 18.8438 13.1C18.8438 11.8987 18.6058 10.856 18.1298 9.972C17.6538 9.06533 17.0078 8.374 16.1918 7.898C15.3985 7.39933 14.5032 7.15 13.5058 7.15ZM23.6619 53.402L23.6619 72H16.3519L16.3519 70.232C15.6719 70.9347 14.8786 71.4673 13.9719 71.83C13.0652 72.17 12.1019 72.34 11.0819 72.34C8.72455 72.34 6.83188 71.626 5.40388 70.198C3.97588 68.7473 3.26188 66.5713 3.26188 63.67L3.26188 53.402H10.9459L10.9459 62.344C10.9459 63.6133 11.1499 64.52 11.5579 65.064C11.9659 65.608 12.5665 65.88 13.3599 65.88C14.1079 65.88 14.7312 65.5853 15.2299 64.996C15.7286 64.384 15.9779 63.432 15.9779 62.14L15.9779 53.402H23.6619ZM13.5045 119.34C11.4418 119.34 9.58318 118.932 7.92852 118.116C6.29652 117.277 5.01585 116.133 4.08652 114.682C3.15718 113.209 2.69252 111.543 2.69252 109.684C2.69252 107.825 3.15718 106.171 4.08652 104.72C5.01585 103.247 6.29652 102.102 7.92852 101.286C9.58318 100.47 11.4418 100.062 13.5045 100.062C15.5898 100.062 17.4485 100.47 19.0805 101.286C20.7352 102.102 22.0159 103.247 22.9225 104.72C23.8518 106.171 24.3165 107.825 24.3165 109.684C24.3165 111.543 23.8518 113.209 22.9225 114.682C22.0159 116.133 20.7352 117.277 19.0805 118.116C17.4485 118.932 15.5898 119.34 13.5045 119.34ZM13.5045 113.356C14.3885 113.356 15.1138 113.039 15.6805 112.404C16.2472 111.747 16.5305 110.84 16.5305 109.684C16.5305 108.528 16.2472 107.633 15.6805 106.998C15.1138 106.363 14.3885 106.046 13.5045 106.046C12.6205 106.046 11.8952 106.363 11.3285 106.998C10.7618 107.633 10.4785 108.528 10.4785 109.684C10.4785 110.84 10.7618 111.747 11.3285 112.404C11.8952 113.039 12.6205 113.356 13.5045 113.356ZM21.0827 165.354C19.9267 166.011 18.3513 166.34 16.3567 166.34C13.75 166.34 11.744 165.717 10.3387 164.47C8.93333 163.201 8.23066 161.308 8.23066 158.792L8.23066 154.032H5.68066L5.68066 148.422H8.23066L8.23066 143.22H15.9147L15.9147 148.422H19.7227L19.7227 154.032H15.9147L15.9147 158.724C15.9147 159.291 16.062 159.733 16.3567 160.05C16.6513 160.367 17.0367 160.526 17.5127 160.526C18.17 160.526 18.748 160.356 19.2467 160.016L21.0827 165.354ZM23.8816 203.684C23.8816 203.797 23.8476 204.398 23.7796 205.486H10.8596C11.1316 206.189 11.5849 206.733 12.2196 207.118C12.8542 207.481 13.6476 207.662 14.5996 207.662C15.4156 207.662 16.0956 207.56 16.6396 207.356C17.2062 207.152 17.8182 206.801 18.4756 206.302L22.4876 210.348C20.6742 212.343 17.9656 213.34 14.3616 213.34C12.1176 213.34 10.1456 212.932 8.44555 212.116C6.74555 211.277 5.43089 210.121 4.50155 208.648C3.57222 207.175 3.10755 205.52 3.10755 203.684C3.10755 201.825 3.56089 200.171 4.46755 198.72C5.39689 197.247 6.65489 196.102 8.24155 195.286C9.85089 194.47 11.6529 194.062 13.6476 194.062C15.5289 194.062 17.2402 194.436 18.7816 195.184C20.3456 195.932 21.5809 197.031 22.4876 198.482C23.4169 199.933 23.8816 201.667 23.8816 203.684ZM13.7156 199.298C12.9222 199.298 12.2649 199.513 11.7436 199.944C11.2222 200.375 10.8822 200.987 10.7236 201.78H16.7076C16.5489 201.009 16.2089 200.409 15.6876 199.978C15.1662 199.525 14.5089 199.298 13.7156 199.298Z" fill="white"/>
<path d="M28.2278 27.992L28.9932 28.6356L29.5373 27.9885L28.9898 27.3444L28.2278 27.992ZM25.2018 30.236L24.8122 29.315L24.8047 29.3182L24.7973 29.3215L25.2018 30.236ZM17.4498 30.474L17.7546 29.5216L17.7459 29.5188L17.7372 29.5162L17.4498 30.474ZM14.0498 28.706L14.6447 27.9021L14.6341 27.8945L14.0498 28.706ZM10.1738 25.204L10.897 24.5133L10.6808 24.287L10.3742 24.2243L10.1738 25.204ZM4.90384 22.892L4.29813 23.6877L4.30576 23.6934L4.90384 22.892ZM1.33384 18.642L0.439365 19.0892L0.444277 19.0988L1.33384 18.642ZM1.80984 6.708L2.66187 7.23153L2.66463 7.22698L1.80984 6.708ZM20.4078 2.254L20.8707 1.36759L20.4078 2.254ZM25.2018 6.708L24.347 7.22698L24.3498 7.23152L25.2018 6.708ZM24.8618 20.036L25.6837 20.6057L25.6867 20.6013L24.8618 20.036ZM19.2518 24.456L18.8774 23.5288L17.5242 24.0753L18.5223 25.1399L19.2518 24.456ZM20.2718 25.204L20.6727 24.2878L20.658 24.2814L20.6432 24.2755L20.2718 25.204ZM24.7598 23.912L25.5218 23.2644L24.8195 22.4381L24.0527 23.2049L24.7598 23.912ZM10.7858 7.898L11.3004 8.75552L11.3073 8.75128L10.7858 7.898ZM8.88184 9.972L9.76236 10.4461L9.76724 10.4368L8.88184 9.972ZM8.88184 16.262L7.9964 16.7269L8.00137 16.7361L8.88184 16.262ZM10.7858 18.336L10.2537 19.1826L10.2677 19.1914L10.282 19.1998L10.7858 18.336ZM16.1918 18.336L16.7064 19.1935L16.7133 19.1893L16.1918 18.336ZM18.1298 16.262L19.0104 16.7361L19.0152 16.7268L18.1298 16.262ZM18.1298 9.972L17.2444 10.4369L17.2494 10.4461L18.1298 9.972ZM16.1918 7.898L15.6597 8.74464L15.6737 8.75344L15.688 8.76178L16.1918 7.898ZM27.4625 27.3484C26.7235 28.2272 25.8428 28.879 24.8122 29.315L25.5915 31.157C26.9182 30.5956 28.0549 29.7515 28.9932 28.6356L27.4625 27.3484ZM24.7973 29.3215C23.7592 29.7806 22.5957 30.018 21.2918 30.018L21.2918 32.018C22.844 32.018 24.2871 31.734 25.6063 31.1505L24.7973 29.3215ZM21.2918 30.018C19.9473 30.018 18.772 29.8471 17.7546 29.5216L17.1451 31.4264C18.3943 31.8262 19.7804 32.018 21.2918 32.018L21.2918 30.018ZM17.7372 29.5162C16.7334 29.215 15.7025 28.6849 14.6447 27.9022L13.455 29.5098C14.6638 30.4044 15.8996 31.053 17.1625 31.4318L17.7372 29.5162ZM14.6341 27.8945C13.5689 27.1275 12.3241 26.0073 10.897 24.5133L9.45073 25.8947C10.9249 27.438 12.2642 28.6525 13.4655 29.5175L14.6341 27.8945ZM10.3742 24.2243C8.51272 23.8435 6.89414 23.1295 5.50193 22.0906L4.30576 23.6934C5.95088 24.9211 7.84564 25.7485 9.97345 26.1837L10.3742 24.2243ZM5.50953 22.0963C4.10809 21.0295 3.01573 19.7281 2.22341 18.1852L0.444277 19.0988C1.37463 20.9105 2.66227 22.4425 4.29816 23.6877L5.50953 22.0963ZM2.22827 18.1948C1.46421 16.6667 1.07584 14.9741 1.07584 13.1H-0.924156C-0.924156 15.2606 -0.473858 17.2627 0.439417 19.0892L2.22827 18.1948ZM1.07584 13.1C1.07584 10.8899 1.61016 8.94311 2.66185 7.23152L0.957833 6.18447C-0.302468 8.23555 -0.924156 10.5501 -0.924156 13.1H1.07584ZM2.66463 7.22698C3.72272 5.48425 5.18281 4.12424 7.06675 3.14041L6.14094 1.36759C3.94488 2.51442 2.20897 4.12375 0.955056 6.18902L2.66463 7.22698ZM7.06675 3.14041C8.94832 2.15781 11.0872 1.656 13.5058 1.656L13.5058 -0.344001C10.8018 -0.344001 8.33937 0.219524 6.14094 1.36759L7.06675 3.14041ZM13.5058 1.656C15.9245 1.656 18.0634 2.15781 19.9449 3.14041L20.8707 1.36759C18.6723 0.219524 16.2099 -0.344001 13.5058 -0.344001L13.5058 1.656ZM19.9449 3.14041C21.8289 4.12424 23.289 5.48425 24.3471 7.22698L26.0566 6.18902C24.8027 4.12375 23.0668 2.51442 20.8707 1.36759L19.9449 3.14041ZM24.3498 7.23152C25.4015 8.94311 25.9358 10.8899 25.9358 13.1H27.9358C27.9358 10.5501 27.3142 8.23555 26.0539 6.18447L24.3498 7.23152ZM25.9358 13.1C25.9358 15.5189 25.2979 17.631 24.037 19.4707L25.6867 20.6013C27.1911 18.4064 27.9358 15.8945 27.9358 13.1H25.9358ZM24.04 19.4663C22.7738 21.2929 21.063 22.6461 18.8774 23.5288L19.6263 25.3832C22.1554 24.3619 24.1845 22.7685 25.6837 20.6057L24.04 19.4663ZM18.5223 25.1399C18.9285 25.5732 19.3852 25.9264 19.9005 26.1325L20.6432 24.2755C20.4785 24.2096 20.2552 24.0641 19.9814 23.7721L18.5223 25.1399ZM19.871 26.1202C20.3708 26.3388 20.9055 26.442 21.4618 26.442L21.4618 24.442C21.1569 24.442 20.8982 24.3865 20.6727 24.2878L19.871 26.1202ZM21.4618 26.442C22.9628 26.442 24.3041 25.782 25.467 24.6191L24.0527 23.2049C23.1756 24.082 22.3182 24.442 21.4618 24.442L21.4618 26.442ZM23.9979 24.5596L27.4659 28.6396L28.9898 27.3444L25.5218 23.2644L23.9979 24.5596ZM13.5058 6.15C12.3328 6.15 11.2443 6.44588 10.2644 7.04472L11.3073 8.75128C11.9594 8.35279 12.6842 8.15 13.5058 8.15L13.5058 6.15ZM10.2713 7.04051C9.30424 7.62077 8.54834 8.45595 7.99645 9.50717L9.76724 10.4368C10.1674 9.67472 10.6808 9.12723 11.3003 8.75549L10.2713 7.04051ZM8.00137 9.4979C7.43287 10.5537 7.16784 11.7656 7.16784 13.1H9.16784C9.16784 12.0318 9.37882 11.1583 9.76232 10.4461L8.00137 9.4979ZM7.16784 13.1C7.16784 14.4352 7.43313 15.6539 7.99645 16.7268L9.76724 15.7972C9.37855 15.0568 9.16784 14.1674 9.16784 13.1H7.16784ZM8.00137 16.7361C8.55327 17.7611 9.30356 18.5854 10.2537 19.1826L11.318 17.4894C10.6815 17.0892 10.1624 16.5309 9.76232 15.7879L8.00137 16.7361ZM10.282 19.1998C11.2595 19.77 12.3417 20.05 13.5058 20.05L13.5058 18.05C12.6753 18.05 11.9442 17.854 11.2897 17.4722L10.282 19.1998ZM13.5058 20.05C14.6698 20.05 15.7455 19.77 16.7063 19.1935L15.6773 17.4785C15.0515 17.854 14.3366 18.05 13.5058 18.05L13.5058 20.05ZM16.7133 19.1893C17.6881 18.5936 18.4547 17.768 19.0103 16.7361L17.2494 15.7879C16.853 16.524 16.3276 17.0811 15.6704 17.4827L16.7133 19.1893ZM19.0152 16.7268C19.5786 15.6539 19.8438 14.4352 19.8438 13.1H17.8438C17.8438 14.1674 17.6331 15.0568 17.2444 15.7972L19.0152 16.7268ZM19.8438 13.1C19.8438 11.7656 19.5788 10.5537 19.0103 9.4979L17.2494 10.4461C17.6329 11.1583 17.8438 12.0318 17.8438 13.1H19.8438ZM19.0152 9.50717C18.4596 8.44885 17.6874 7.6127 16.6957 7.03422L15.688 8.76178C16.3283 9.1353 16.8481 9.68181 17.2444 10.4368L19.0152 9.50717ZM16.724 7.05136C15.7609 6.44596 14.6788 6.15 13.5058 6.15L13.5058 8.15C14.3275 8.15 15.0361 8.3527 15.6597 8.74464L16.724 7.05136ZM23.6619 53.402H24.6619V52.402H23.6619V53.402ZM23.6619 72L23.6619 73H24.6619L24.6619 72H23.6619ZM16.3519 72H15.3519L15.3519 73H16.3519L16.3519 72ZM16.3519 70.232H17.3519L17.3519 67.7607L15.6333 69.5366L16.3519 70.232ZM13.9719 71.83L14.323 72.7663L14.3332 72.7625L14.3433 72.7585L13.9719 71.83ZM5.40388 70.198L4.69121 70.8995L4.69678 70.9051L5.40388 70.198ZM3.26188 53.402L3.26188 52.402H2.26188L2.26188 53.402H3.26188ZM10.9459 53.402H11.9459L11.9459 52.402H10.9459L10.9459 53.402ZM11.5579 65.064L12.3579 64.464H12.3579L11.5579 65.064ZM15.2299 64.996L15.9933 65.6419L15.9993 65.6349L16.0051 65.6277L15.2299 64.996ZM15.9779 53.402V52.402H14.9779L14.9779 53.402H15.9779ZM22.6619 53.402L22.6619 72H24.6619L24.6619 53.402H22.6619ZM23.6619 71H16.3519L16.3519 73H23.6619L23.6619 71ZM17.3519 72L17.3519 70.232H15.3519L15.3519 72H17.3519ZM15.6333 69.5366C15.0512 70.1381 14.3761 70.5913 13.6005 70.9015L14.3433 72.7585C15.381 72.3434 16.2926 71.7312 17.0705 70.9274L15.6333 69.5366ZM13.6208 70.8937C12.8323 71.1894 11.9884 71.34 11.0819 71.34L11.0819 73.34C12.2153 73.34 13.2982 73.1507 14.323 72.7663L13.6208 70.8937ZM11.0819 71.34C8.94187 71.34 7.3201 70.7 6.11099 69.4909L4.69678 70.9051C6.34367 72.552 8.50723 73.34 11.0819 73.34L11.0819 71.34ZM6.11654 69.4965C4.93875 68.3 4.26188 66.4211 4.26188 63.67H2.26188C2.26188 66.7215 3.01301 69.1947 4.69123 70.8995L6.11654 69.4965ZM4.26188 63.67L4.26188 53.402H2.26188L2.26188 63.67H4.26188ZM3.26188 54.402H10.9459L10.9459 52.402H3.26188L3.26188 54.402ZM9.94588 53.402L9.94588 62.344H11.9459L11.9459 53.402H9.94588ZM9.94588 62.344C9.94588 63.6675 10.1483 64.8512 10.7579 65.664L12.3579 64.464C12.1515 64.1888 11.9459 63.5591 11.9459 62.344H9.94588ZM10.7579 65.664C11.3878 66.5039 12.3113 66.88 13.3599 66.88L13.3599 64.88C12.8218 64.88 12.544 64.7121 12.3579 64.464L10.7579 65.664ZM13.3599 66.88C14.4127 66.88 15.3116 66.4475 15.9933 65.6419L14.4665 64.3501C14.1508 64.7231 13.8031 64.88 13.3599 64.88L13.3599 66.88ZM16.0051 65.6277C16.7165 64.7547 16.9779 63.5264 16.9779 62.14H14.9779C14.9779 63.3376 14.7406 64.0133 14.4546 64.3643L16.0051 65.6277ZM16.9779 62.14L16.9779 53.402H14.9779L14.9779 62.14H16.9779ZM15.9779 54.402H23.6619L23.6619 52.402L15.9779 52.402L15.9779 54.402ZM7.92852 118.116L7.47145 119.005L7.4788 119.009L7.48622 119.013L7.92852 118.116ZM4.08652 114.682L3.2407 115.216L3.24448 115.221L4.08652 114.682ZM4.08652 104.72L4.92857 105.259L4.93231 105.254L4.08652 104.72ZM7.92852 101.286L7.48622 100.389L7.4813 100.392L7.92852 101.286ZM19.0805 101.286L18.6333 102.18L18.6382 102.183L19.0805 101.286ZM22.9225 104.72L22.0709 105.244L22.0756 105.252L22.0805 105.259L22.9225 104.72ZM22.9225 114.682L22.0767 114.148L22.0745 114.152L22.9225 114.682ZM19.0805 118.116L19.5277 119.01L19.5326 119.008L19.0805 118.116ZM15.6805 112.404L16.4265 113.07L16.4322 113.064L16.4379 113.057L15.6805 112.404ZM11.3285 112.404L10.5711 113.057L10.5768 113.064L10.5826 113.07L11.3285 112.404ZM13.5045 118.34C11.577 118.34 9.8724 117.96 8.37081 117.219L7.48622 119.013C9.29397 119.904 11.3067 120.34 13.5045 120.34L13.5045 118.34ZM8.38558 117.227C6.89995 116.463 5.75647 115.435 4.92855 114.143L3.24448 115.221C4.27523 116.83 5.69308 118.092 7.47145 119.005L8.38558 117.227ZM4.93231 114.148C4.11055 112.846 3.69252 111.367 3.69252 109.684H1.69252C1.69252 111.718 2.20382 113.572 3.24072 115.215L4.93231 114.148ZM3.69252 109.684C3.69252 108.001 4.11053 106.536 4.92855 105.259L3.24448 104.181C2.20384 105.805 1.69252 107.65 1.69252 109.684H3.69252ZM4.93231 105.254C5.75951 103.942 6.89895 102.919 8.37573 102.18L7.4813 100.392C5.69409 101.285 4.27219 102.551 3.24072 104.186L4.93231 105.254ZM8.37081 102.183C9.8724 101.442 11.577 101.062 13.5045 101.062L13.5045 99.062C11.3067 99.062 9.29397 99.4976 7.48622 100.389L8.37081 102.183ZM13.5045 101.062C15.4569 101.062 17.1588 101.443 18.6333 102.18L19.5277 100.392C17.7382 99.4968 15.7228 99.062 13.5045 99.062L13.5045 101.062ZM18.6382 102.183C20.1358 102.921 21.2695 103.942 22.0709 105.244L23.7742 104.196C22.7622 102.551 21.3346 101.283 19.5228 100.389L18.6382 102.183ZM22.0805 105.259C22.8985 106.536 23.3165 108.001 23.3165 109.684H25.3165C25.3165 107.65 24.8052 105.805 23.7646 104.181L22.0805 105.259ZM23.3165 109.684C23.3165 111.367 22.8985 112.846 22.0767 114.148L23.7683 115.215C24.8052 113.572 25.3165 111.718 25.3165 109.684H23.3165ZM22.0745 114.152C21.2725 115.435 20.1348 116.461 18.6284 117.224L19.5326 119.008C21.3356 118.094 22.7592 116.83 23.7705 115.212L22.0745 114.152ZM18.6333 117.222C17.1588 117.959 15.4569 118.34 13.5045 118.34L13.5045 120.34C15.7228 120.34 17.7382 119.905 19.5277 119.01L18.6333 117.222ZM13.5045 114.356C14.6608 114.356 15.6618 113.926 16.4265 113.07L14.9346 111.738C14.5659 112.151 14.1163 112.356 13.5045 112.356L13.5045 114.356ZM16.4379 113.057C17.2067 112.165 17.5305 110.999 17.5305 109.684H15.5305C15.5305 110.681 15.2877 111.328 14.9231 111.751L16.4379 113.057ZM17.5305 109.684C17.5305 108.371 17.2076 107.207 16.4265 106.332L14.9346 107.664C15.2868 108.058 15.5305 108.685 15.5305 109.684H17.5305ZM16.4265 106.332C15.6618 105.476 14.6608 105.046 13.5045 105.046L13.5045 107.046C14.1163 107.046 14.5659 107.251 14.9346 107.664L16.4265 106.332ZM13.5045 105.046C12.3483 105.046 11.3472 105.476 10.5826 106.332L12.0745 107.664C12.4431 107.251 12.8928 107.046 13.5045 107.046L13.5045 105.046ZM10.5826 106.332C9.80143 107.207 9.47852 108.371 9.47852 109.684H11.4785C11.4785 108.685 11.7223 108.058 12.0745 107.664L10.5826 106.332ZM9.47852 109.684C9.47852 110.999 9.80237 112.165 10.5711 113.057L12.0859 111.751C11.7213 111.328 11.4785 110.681 11.4785 109.684H9.47852ZM10.5826 113.07C11.3472 113.926 12.3483 114.356 13.5045 114.356L13.5045 112.356C12.8928 112.356 12.4431 112.151 12.0745 111.738L10.5826 113.07ZM21.0827 165.354L21.577 166.223L22.2981 165.813L22.0283 165.029L21.0827 165.354ZM10.3387 164.47L9.66835 165.212L9.67505 165.218L10.3387 164.47ZM8.23066 154.032H9.23066L9.23066 153.032H8.23066L8.23066 154.032ZM5.68066 154.032H4.68066L4.68066 155.032H5.68066L5.68066 154.032ZM5.68066 148.422L5.68066 147.422H4.68066L4.68066 148.422H5.68066ZM8.23066 148.422L8.23066 149.422H9.23066L9.23066 148.422H8.23066ZM8.23066 143.22L8.23066 142.22H7.23066L7.23066 143.22H8.23066ZM15.9147 143.22H16.9147L16.9147 142.22H15.9147L15.9147 143.22ZM15.9147 148.422H14.9147L14.9147 149.422H15.9147L15.9147 148.422ZM19.7227 148.422H20.7227L20.7227 147.422H19.7227L19.7227 148.422ZM19.7227 154.032L19.7227 155.032H20.7227L20.7227 154.032H19.7227ZM15.9147 154.032L15.9147 153.032H14.9147L14.9147 154.032H15.9147ZM16.3567 160.05L15.6239 160.73L16.3567 160.05ZM19.2467 160.016L20.1923 159.691L19.7661 158.452L18.6833 159.19L19.2467 160.016ZM20.5884 164.485C19.64 165.024 18.2581 165.34 16.3567 165.34L16.3567 167.34C18.4445 167.34 20.2133 166.999 21.577 166.223L20.5884 164.485ZM16.3567 165.34C13.8997 165.34 12.1644 164.753 11.0023 163.722L9.67505 165.218C11.3236 166.681 13.6003 167.34 16.3567 167.34L16.3567 165.34ZM11.009 163.728C9.87651 162.705 9.23066 161.123 9.23066 158.792H7.23066C7.23066 161.493 7.99015 163.696 9.66838 165.212L11.009 163.728ZM9.23066 158.792L9.23066 154.032H7.23066L7.23066 158.792H9.23066ZM8.23066 153.032H5.68066L5.68066 155.032H8.23066L8.23066 153.032ZM6.68066 154.032L6.68066 148.422H4.68066L4.68066 154.032H6.68066ZM5.68066 149.422H8.23066L8.23066 147.422H5.68066L5.68066 149.422ZM9.23066 148.422L9.23066 143.22H7.23066L7.23066 148.422H9.23066ZM8.23066 144.22H15.9147L15.9147 142.22H8.23066L8.23066 144.22ZM14.9147 143.22L14.9147 148.422H16.9147L16.9147 143.22H14.9147ZM15.9147 149.422H19.7227L19.7227 147.422H15.9147L15.9147 149.422ZM18.7227 148.422L18.7227 154.032H20.7227L20.7227 148.422H18.7227ZM19.7227 153.032H15.9147L15.9147 155.032H19.7227L19.7227 153.032ZM14.9147 154.032L14.9147 158.724H16.9147L16.9147 154.032H14.9147ZM14.9147 158.724C14.9147 159.463 15.1098 160.177 15.6239 160.73L17.0895 159.37C17.0142 159.289 16.9147 159.118 16.9147 158.724H14.9147ZM15.6239 160.73C16.1277 161.273 16.7893 161.526 17.5127 161.526L17.5127 159.526C17.2841 159.526 17.175 159.462 17.0895 159.37L15.6239 160.73ZM17.5127 161.526C18.3522 161.526 19.1304 161.306 19.81 160.842L18.6833 159.19C18.3656 159.406 17.9878 159.526 17.5127 159.526L17.5127 161.526ZM18.301 160.341L20.137 165.679L22.0283 165.029L20.1923 159.691L18.301 160.341ZM23.7796 205.486L23.7796 206.486H24.719L24.7776 205.548L23.7796 205.486ZM10.8596 205.486L10.8596 204.486H9.40015L9.92699 205.847L10.8596 205.486ZM12.2196 207.118L11.7006 207.973L11.7119 207.98L11.7234 207.986L12.2196 207.118ZM16.6396 207.356L16.3008 206.415L16.2884 206.42L16.6396 207.356ZM18.4756 206.302L19.1856 205.598L18.5689 204.976L17.8712 205.505L18.4756 206.302ZM22.4876 210.348L23.2275 211.021L23.8662 210.318L23.1976 209.644L22.4876 210.348ZM8.44555 212.116L8.00311 213.013L8.01282 213.018L8.44555 212.116ZM4.50155 208.648L5.34735 208.115L4.50155 208.648ZM4.46756 198.72L3.62175 198.186L3.61956 198.19L4.46756 198.72ZM8.24156 195.286L7.78932 194.394L7.78421 194.397L8.24156 195.286ZM18.7816 195.184L18.3449 196.084L18.3501 196.086L18.7816 195.184ZM22.4876 198.482L21.6395 199.012L21.6455 199.021L22.4876 198.482ZM11.7436 199.944L12.3804 200.715H12.3804L11.7436 199.944ZM10.7236 201.78L9.74297 201.584L9.50375 202.78H10.7236L10.7236 201.78ZM16.7076 201.78L16.7076 202.78H17.9344L17.687 201.578L16.7076 201.78ZM15.6876 199.978L15.0314 200.733L15.0409 200.741L15.0507 200.749L15.6876 199.978ZM22.8816 203.684C22.8816 203.679 22.8816 203.686 22.8806 203.713C22.8797 203.737 22.8783 203.77 22.8763 203.813C22.8723 203.898 22.8661 204.014 22.8577 204.163C22.8408 204.46 22.8155 204.88 22.7815 205.424L24.7776 205.548C24.8439 204.487 24.8816 203.838 24.8816 203.684H22.8816ZM23.7796 204.486H10.8596L10.8596 206.486H23.7796L23.7796 204.486ZM9.92699 205.847C10.2773 206.752 10.8744 207.471 11.7006 207.973L12.7385 206.263C12.2954 205.994 11.9858 205.625 11.7921 205.125L9.92699 205.847ZM11.7234 207.986C12.5482 208.458 13.5248 208.662 14.5996 208.662L14.5996 206.662C13.7703 206.662 13.1603 206.504 12.7157 206.25L11.7234 207.986ZM14.5996 208.662C15.4907 208.662 16.299 208.552 16.9907 208.292L16.2884 206.42C15.8921 206.568 15.3404 206.662 14.5996 206.662L14.5996 208.662ZM16.9783 208.297C17.6682 208.049 18.3695 207.638 19.0799 207.099L17.8712 205.505C17.2669 205.964 16.7442 206.255 16.3008 206.415L16.9783 208.297ZM17.7655 207.006L21.7775 211.052L23.1976 209.644L19.1856 205.598L17.7655 207.006ZM21.7476 209.675C20.1817 211.398 17.7833 212.34 14.3616 212.34L14.3616 214.34C18.1478 214.34 21.1667 213.288 23.2275 211.021L21.7476 209.675ZM14.3616 212.34C12.2392 212.34 10.42 211.954 8.87829 211.214L8.01282 213.018C9.87115 213.91 11.9959 214.34 14.3616 214.34L14.3616 212.34ZM8.88798 211.219C7.33825 210.455 6.16968 209.418 5.34735 208.115L3.65576 209.182C4.6921 210.824 6.15286 212.1 8.00313 213.013L8.88798 211.219ZM5.34735 208.115C4.52431 206.81 4.10755 205.342 4.10755 203.684H2.10755C2.10755 205.698 2.62013 207.54 3.65576 209.182L5.34735 208.115ZM4.10755 203.684C4.10755 201.996 4.51678 200.528 5.31555 199.25L3.61956 198.19C2.605 199.813 2.10755 201.655 2.10755 203.684H4.10755ZM5.31335 199.254C6.14493 197.935 7.26714 196.912 8.6989 196.175L7.78421 194.397C6.04263 195.292 4.64885 196.558 3.62176 198.186L5.31335 199.254ZM8.69379 196.178C10.1487 195.44 11.7932 195.062 13.6476 195.062L13.6476 193.062C11.5126 193.062 9.55308 193.5 7.78932 194.394L8.69379 196.178ZM13.6476 195.062C15.3927 195.062 16.9526 195.408 18.345 196.084L19.2182 194.284C17.5278 193.464 15.6651 193.062 13.6476 193.062L13.6476 195.062ZM18.3501 196.086C19.7452 196.753 20.835 197.725 21.6396 199.012L23.3356 197.952C22.3268 196.338 20.9459 195.111 19.213 194.282L18.3501 196.086ZM21.6455 199.021C22.4551 200.285 22.8816 201.825 22.8816 203.684H24.8816C24.8816 201.509 24.3787 199.58 23.3296 197.943L21.6455 199.021ZM13.7156 198.298C12.732 198.298 11.8373 198.569 11.1067 199.173L12.3804 200.715C12.6925 200.457 13.1125 200.298 13.7156 200.298L13.7156 198.298ZM11.1067 199.173C10.375 199.777 9.93752 200.611 9.74297 201.584L11.7041 201.976C11.8269 201.362 12.0694 200.972 12.3804 200.715L11.1067 199.173ZM10.7236 202.78H16.7076L16.7076 200.78H10.7236L10.7236 202.78ZM17.687 201.578C17.4903 200.623 17.0494 199.806 16.3244 199.207L15.0507 200.749C15.3683 201.011 15.6075 201.396 15.7281 201.982L17.687 201.578ZM16.3437 199.223C15.6137 198.589 14.712 198.298 13.7156 198.298L13.7156 200.298C14.3057 200.298 14.7188 200.461 15.0314 200.733L16.3437 199.223Z" fill="black"/>
</g>
<defs>
<filter id="filter0_d_279_4510" x="0.0761719" y="0.65625" width="30.1523" height="213.688" filterUnits="userSpaceOnUse" color-interpolation-filters="sRGB">
<feFlood flood-opacity="0" result="BackgroundImageFix"/>
<feColorMatrix in="SourceAlpha" type="matrix" values="0 0 0 0 0 0 0 0 0 0 0 0 0 0 0 0 0 0 127 0" result="hardAlpha"/>
<feOffset dx="2" dy="1"/>
<feComposite in2="hardAlpha" operator="out"/>
<feColorMatrix type="matrix" values="0 0 0 0 0.105882 0 0 0 0 0.105882 0 0 0 0 0.121569 0 0 0 1 0"/>
<feBlend mode="normal" in2="BackgroundImageFix" result="effect1_dropShadow_279_4510"/>
<feBlend mode="normal" in="SourceGraphic" in2="effect1_dropShadow_279_4510" result="shape"/>
</filter>
</defs>
</svg>
