<svg width="868" height="172" viewBox="0 0 868 172" fill="none" xmlns="http://www.w3.org/2000/svg">
<mask id="mask0_279_4469" style="mask-type:alpha" maskUnits="userSpaceOnUse" x="0" y="0" width="868" height="172">
<rect x="868" y="172" width="868.001" height="172" transform="rotate(-180 868 172)" fill="#D9D9D9"/>
</mask>
<g mask="url(#mask0_279_4469)">
<path d="M-15.0293 -7.32878L-15.0293 140.242L5.83688 140.242L70.9577 105.956L144.563 119.791L205.785 105.956L222.524 86.1061L296.129 102.347L332.129 94.9283C352.766 95.1956 394.865 95.5699 398.167 94.9283C401.469 94.2867 444.179 88.7795 465.122 86.1061L754.956 80.8931C761.605 80.8931 803.124 65.0898 808.611 65.4542C826.726 66.6573 782.93 87.6203 828.102 78.086C833.422 76.9632 850.278 72.9961 868 55.9961L868 -7.32871L-15.0293 -7.32878Z" fill="#C1ABFF"/>
<path d="M576.874 77.381C601.294 70.1158 596.094 70.4304 621.705 74.0142C648.397 77.7367 705.898 84.7811 731.943 79.0954C739.246 77.4742 748.11 77.5361 756.283 75.3088C762.624 73.6052 766.784 72.151 771.482 70.8188C777.583 69.1078 786.912 62.1164 790.696 61.0198C802.104 57.8372 801.225 63.1899 802.012 66.115C795.082 70.4376 785.785 73.6325 777.234 76.2702C757.87 82.3197 736.965 84.6826 717.531 84.981C702.563 85.2059 687.379 83.3144 672.783 86.2934C670.229 86.795 667.667 87.5072 665.794 89.0846C663.921 90.662 663.03 93.3245 664.459 95.2672C666.003 97.3717 669.308 97.6845 672.202 97.7208C711.332 98.1342 750.516 92.6947 787.569 81.7571C794.584 79.8106 804.328 75.9966 809.277 72.9316C814.97 69.3621 815.739 66.7486 822.906 68.4988C826.549 69.4021 833.808 71.8935 832.893 75.1354C832.326 77.2277 828.973 78.1266 826.706 79.0061C759.545 106.633 655.171 105.741 577.149 117C577.149 117 574.345 116.228 552.036 111.532" fill="#C1ABFF"/>
<path d="M800.549 76.933C800.977 76.7879 781.521 83.6258 772.865 85.891C756.892 90.0935 729.615 96.4269 706.465 97.613C670.743 99.467 662.586 98.3193 661.77 94.6021C661.009 91.0449 665.855 89.0316 665.855 89.0316C665.855 89.0316 657.425 99.1625 698.339 97.2046C746.746 94.8973 788.174 81.6681 800.549 76.933Z" fill="#081B6A" stroke="black" stroke-width="0.401008" stroke-miterlimit="10" stroke-linecap="round" stroke-linejoin="round"/>
<path d="M782.805 65.3047C782.805 65.3047 773.487 72.0327 748.832 77.6557C724.177 83.2787 677.741 80.056 676.115 80.0059C661.951 79.7282 646.689 76.7794 646.689 76.7794C646.689 76.7794 658.657 79.152 679.411 80.5293C693.726 81.5502 756.854 80.6453 782.805 65.3047Z" fill="#081B6A" stroke="black" stroke-width="0.401008" stroke-miterlimit="10" stroke-linecap="round" stroke-linejoin="round"/>
<path d="M665.856 89.0426C665.856 89.0426 669.386 85.2482 684.421 84.8672C699.455 84.4861 726.931 86.7032 748.238 83.3506C769.544 79.998 790.938 71.4792 803.687 66.4391C811.717 63.258 821.679 68.9972 800.55 76.9439" stroke="black" stroke-width="0.401008" stroke-miterlimit="10" stroke-linecap="round" stroke-linejoin="round"/>
<path d="M832.258 77.2851C832.258 77.2851 805.757 86.807 792.289 90.2426C778.76 93.6764 754.332 98.1461 722.682 102.235C691.031 106.324 635.125 110.616 628.045 111.189C620.964 111.762 607.467 112.929 603.201 114.011" stroke="black" stroke-width="0.401008" stroke-miterlimit="10" stroke-linecap="round" stroke-linejoin="round"/>
<path d="M376.234 94.3273C476.407 100.681 554.339 175.549 551.671 151.944C551.182 147.604 546.975 132.231 546.549 127.84C562.384 139.035 578.328 152.026 594.247 164.119C597.175 166.319 601.398 163.285 599.465 160.377C594.174 152.461 588.831 144.332 583.625 137.315C581.62 134.669 579.622 131.865 579.784 129.338C580.33 121.76 598.991 127.187 601.504 120.197C602.316 118.006 601.925 111.243 602.32 108.935C602.944 105.42 616.062 101.71 619.591 99.4451C631.916 91.4384 631.836 82.9442 637.538 71.6745C640.555 65.6491 641.606 57.5063 632.442 51.4224C626.508 47.495 618.428 45.9277 611.056 44.7514C587.198 41.0633 563.632 39.1248 541.017 39.0088" fill="#C1ABFF"/>
<path d="M599.782 162.911C599.782 162.911 601.882 158.703 592.881 145.557C583.878 132.463 577.459 127.096 584.412 125.201C591.364 123.305 601.408 128.519 604.395 121.755C607.382 114.99 611.893 115.287 617.992 113.629C627.507 111.021 660.768 108.88 660.768 108.88C660.768 108.88 611.767 109.429 606.039 110.887C593.239 114.185 605.497 118.36 600.057 120.144C594.616 121.928 570.063 117.533 572.955 125.112C575.849 132.638 601.626 154.581 599.782 162.911Z" fill="#081B6A" stroke="black" stroke-width="0.401008" stroke-miterlimit="10" stroke-linecap="round" stroke-linejoin="round"/>
<path d="M562.314 139.294C562.314 139.294 547.778 122.813 544.776 125.463C541.774 128.113 547.358 140.733 549.302 146.383C551.246 152.034 549.37 156.67 549.37 156.67C549.37 156.67 552.472 156.028 551.793 145.933C551.114 135.838 545.959 132.04 549.169 131.717C552.378 131.394 562.314 139.294 562.314 139.294Z" fill="#081B6A" stroke="black" stroke-width="0.401008" stroke-miterlimit="10" stroke-linecap="round" stroke-linejoin="round"/>
<path d="M517.977 143.883C517.977 143.883 479.235 118.85 440.73 104.426C402.224 90.0025 374.035 99.5252 374.035 99.5252C374.035 99.5252 393.308 92.7344 444.465 112.031C469.778 121.513 517.977 143.883 517.977 143.883Z" fill="#081B6A" stroke="black" stroke-width="0.401008" stroke-miterlimit="10" stroke-linecap="round" stroke-linejoin="round"/>
<path d="M270.381 82.3045C245.446 76.8955 221.92 78.4393 198.453 87.5271C183.501 93.3433 170.132 101.793 155.239 107.663C132.5 116.615 107.245 119.161 82.4766 121.616C86.8744 121.751 90.1038 125.437 91.5259 129.067C92.8857 132.748 93.088 136.71 94.8156 140.245C97.3208 145.438 103.199 149.258 109.628 149.878C106.686 145.041 106.026 138.955 111.274 135.952C116.522 132.949 131.472 131.668 137.705 131.175C170.929 128.452 199.613 126.118 232.777 123.394C235.137 123.203 237.558 123.014 239.646 122.076C241.735 121.138 243.556 119.348 243.518 117.29C243.5 114.758 240.925 112.78 238.255 111.696C234.099 110.038 229.404 109.788 224.847 109.12C220.29 108.453 215.577 107.147 212.686 104.052C209.795 100.957 207.712 94.2468 212.211 93.3832C229.709 90.2298 247.62 96.3192 263.562 103.35C279.565 110.383 292.742 115.694 310.156 119.131C322.543 121.569 336.454 120.626 352.128 113.355C362.209 108.655 380.382 94.7625 391.669 93.053C403.078 91.3472 407.413 91.5334 418.957 92.4689C430.5 93.4044 450.668 112.327 457.09 107.145C432.492 103.856 411.454 84.0627 386.873 87.842C372.732 89.9911 359.101 94.4766 344.913 96.3078C320.413 99.5621 294.781 96.5051 273.96 84.7881" fill="#081B6A"/>
<path d="M270.381 82.3045C245.446 76.8955 221.92 78.4393 198.453 87.5271C183.501 93.3433 170.132 101.793 155.239 107.663C132.5 116.615 107.245 119.161 82.4767 121.616C86.8744 121.751 90.1038 125.437 91.5259 129.067C92.8857 132.748 93.088 136.71 94.8156 140.245C97.3208 145.438 103.199 149.258 109.628 149.878C106.686 145.041 106.026 138.955 111.274 135.952C116.522 132.949 131.472 131.668 137.705 131.175C170.929 128.452 199.613 126.118 232.777 123.394C235.137 123.203 237.558 123.014 239.646 122.076C241.735 121.138 243.556 119.348 243.518 117.29C243.5 114.758 240.925 112.78 238.255 111.696C234.099 110.038 229.404 109.788 224.847 109.12C220.29 108.453 215.577 107.147 212.686 104.052C209.795 100.957 207.712 94.2468 212.211 93.3832C229.709 90.2298 247.62 96.3192 263.562 103.35C279.565 110.383 292.742 115.694 310.156 119.131C322.543 121.569 336.454 120.626 352.128 113.355C362.209 108.655 380.382 94.7625 391.669 93.053C403.078 91.3472 407.413 91.5334 418.957 92.4689C430.5 93.4044 450.668 112.327 457.09 107.145C432.492 103.856 411.454 84.0627 386.873 87.842C372.732 89.9911 359.101 94.4766 344.913 96.3078C320.413 99.5621 294.781 96.5051 273.96 84.7881" stroke="black" stroke-width="0.401008" stroke-miterlimit="10" stroke-linecap="round" stroke-linejoin="round"/>
<path d="M232.491 72.0619C217.016 68.4209 182.347 77.0585 168.605 84.2833C166.386 85.4808 164.166 86.6783 161.886 87.8739C150.355 94.1119 138.702 100.399 125.368 101.993C110.459 103.749 95.4974 99.3325 81.5871 94.2629C67.6769 89.1933 61.4786 85.8379 46.4454 84.6895C31.4122 83.5411 18.7349 89.7965 11.3963 101.28C7.92053 106.711 -2.10684 119.06 -7.69414 123.002C-46.4247 150.133 -56.9139 145.485 -63.079 147.3C-69.1818 149.063 -76.2981 150.532 -75.0702 167.975C-75.0702 167.975 -37.7433 150.242 -16.0974 145.951C5.55059 141.606 22.1187 140.587 33.8262 131.454C45.5336 122.32 110.678 117.785 129.46 115.726" fill="#081B6A"/>
<path d="M232.491 72.0619C217.016 68.4209 182.347 77.0585 168.605 84.2833C166.386 85.4808 164.166 86.6783 161.886 87.8739C150.355 94.1119 138.702 100.399 125.368 101.993C110.459 103.749 95.4974 99.3326 81.5871 94.2629C67.6769 89.1933 61.4786 85.8379 46.4454 84.6895C31.4122 83.5411 18.7349 89.7965 11.3963 101.28C7.92054 106.711 -2.10684 119.06 -7.69414 123.002C-46.4247 150.133 -56.9139 145.485 -63.079 147.3C-69.1818 149.063 -76.2981 150.532 -75.0702 167.975C-75.0702 167.975 -37.7433 150.242 -16.0974 145.951C5.55059 141.606 22.1187 140.587 33.8262 131.454C45.5336 122.32 110.678 117.785 129.46 115.726" stroke="black" stroke-width="0.401008" stroke-miterlimit="10" stroke-linecap="round" stroke-linejoin="round"/>
<path d="M417.643 99.7062C404.02 96.4915 381.899 97.6038 371.972 101.465C358.979 106.55 357.969 107.68 347.562 111.473C328.644 118.433 306.893 113.333 287.728 106.941C268.563 100.55 248.851 92.7698 228.394 94.5135C221.494 95.0922 213.213 98.5294 213.694 104.557C214.218 111.008 223.727 113.041 231.06 113.689C232.441 113.837 233.88 114.039 235.376 114.349C241.954 115.764 240.95 124.225 234.188 124.386C201.457 125.33 168.79 126.223 136.059 127.167C126.457 127.452 116.124 127.925 108.614 133.179C101.104 138.433 96.9986 141.524 105.205 145.944C146.609 164.782 34.8854 150.161 -11.0974 152.174C-36.4759 153.291 -49.0695 166.459 -49.9892 175.819C-50.8232 184.548 -75.6786 186.157 -78.9306 169.548C-80.3375 162.542 -73.6908 156.26 -66.7845 152.516C-45.9494 141.396 -17.8655 141.997 -0.0854226 127.354C12.7013 116.883 18.6444 99.6075 34.8031 93.7758C49.37 88.5279 65.6391 94.936 80.6032 99.2996C102.72 105.782 121.375 111.367 143.193 104.285C163.482 97.7369 185.897 80.336 206.404 74.3743C252.301 61.019 283.849 99.9126 331.499 92.4658C352.743 89.164 355.925 85.0425 377.511 85.2323C390.654 85.3732 396.183 84.383 424.269 92.4207C450.089 99.8084 461.342 110.967 473.634 118.782C473.632 118.835 457.259 108.995 417.643 99.7062Z" fill="#C1ABFF" stroke="black" stroke-width="0.401008" stroke-miterlimit="10" stroke-linecap="round" stroke-linejoin="round"/>
<path d="M69.2545 139.982C62.7092 139.253 57.0485 139.026 51.2753 141.591C50.415 141.987 49.5482 142.54 49.5143 143.383C49.5236 144.649 51.0169 145.012 52.2154 145.207C66.1261 147.27 79.9765 149.332 93.8872 151.395C95.2062 151.594 96.5252 151.792 97.7555 151.197C98.3083 150.951 98.6889 150.488 98.8306 149.965C99.1869 148.604 97.6545 147.713 96.2901 147.144C94.5104 146.403 92.7307 145.663 90.9467 145.028C84.5253 142.72 77.773 141.141 70.8726 140.243C70.2744 140.119 69.674 140.048 69.2545 139.982Z" fill="white" stroke="#000207" stroke-width="0.401008" stroke-miterlimit="10" stroke-linecap="round" stroke-linejoin="round"/>
<path d="M39.2999 145.288C41.828 145.418 44.2725 146.126 46.3967 147.299C46.9864 147.634 47.6881 148.183 47.5422 148.811C47.3962 149.44 46.6003 149.732 45.9313 149.869C41.7342 150.742 37.121 149.967 33.5912 147.749C33.0618 147.416 32.4805 146.871 32.7427 146.352C32.9404 145.936 33.5492 145.796 34.0354 145.706C35.6144 145.438 36.3373 145.46 37.9703 145.352L39.2999 145.288Z" fill="white" stroke="#000207" stroke-width="0.401008" stroke-miterlimit="10" stroke-linecap="round" stroke-linejoin="round"/>
<path d="M233.89 124.16C200.69 118.813 154.284 111.846 121.596 119.226C115.082 120.713 108.3 122.878 104.071 127.547C99.8436 132.164 99.4737 139.853 104.878 143.448" stroke="#000207" stroke-width="0.401008" stroke-miterlimit="10" stroke-linecap="round" stroke-linejoin="round"/>
<path d="M144.627 103.059C122.344 106.698 99.3983 107.31 76.9395 104.825C65.1098 103.512 51.6102 101.725 42.5326 108.46C34.0766 114.74 32.5753 126.561 23.2538 131.865C18.0683 134.817 11.6053 135.04 5.48253 135.801C-14.7057 138.344 -33.6508 147.466 -46.8638 161.036" stroke="#000207" stroke-width="0.401008" stroke-miterlimit="10" stroke-linecap="round" stroke-linejoin="round"/>
<path d="M391.182 85.5982C366.536 84.9977 354.308 95.0645 344.895 101.157C328.111 112.033 303.605 112.439 280.106 104.331" stroke="#000207" stroke-width="0.401008" stroke-miterlimit="10" stroke-linecap="round" stroke-linejoin="round"/>
<path d="M214.565 100.838C218.286 95.3086 228.89 89.6222 236.163 88.7385C254.531 86.4558 276.91 95.4254 295.191 98.3089C313.472 101.192 331.868 98.2248 347.366 89.3136" stroke="#000207" stroke-width="0.401008" stroke-miterlimit="10" stroke-linecap="round" stroke-linejoin="round"/>
<path d="M500.391 122.363C500.391 122.363 539.074 153.353 544.295 152.512C549.516 151.671 529.984 131.924 523.347 128.977C516.71 126.03 515.019 129.089 502.716 120.061C490.412 111.032 495.174 118.616 500.391 122.363Z" fill="white" stroke="black" stroke-width="0.401008" stroke-miterlimit="10" stroke-linecap="round" stroke-linejoin="round"/>
<path d="M530.669 144.82L538.656 142.692C538.656 142.692 531.144 133.02 525.452 130.577C533.703 140.939 515.24 131.562 511.42 129.071C507.539 126.578 501.731 123.464 501.731 123.464C501.731 123.464 522.499 140.982 530.669 144.82Z" fill="#081B6A" stroke="black" stroke-width="0.401008" stroke-miterlimit="10" stroke-linecap="round" stroke-linejoin="round"/>
<path d="M599.79 162.916C599.79 162.916 598.968 166.846 593.318 163.349C587.669 159.853 562.318 139.294 562.318 139.294" stroke="black" stroke-width="0.401008" stroke-miterlimit="10" stroke-linecap="round" stroke-linejoin="round"/>
<path d="M549.436 156.622C549.436 156.622 549.369 159.785 531.359 150.159C519.725 143.999 511.977 140.174 511.977 140.174" stroke="black" stroke-width="0.401008" stroke-miterlimit="10" stroke-linecap="round" stroke-linejoin="round"/>
</g>
</svg>
