<svg width="320" height="219" viewBox="0 0 320 219" fill="none" xmlns="http://www.w3.org/2000/svg">
<path d="M-18.1592 -0.00276184V148.336H0.18161L57.421 113.871L122.118 127.778L175.931 113.871L190.644 93.9182L255.34 110.244L286.983 102.786C305.122 103.055 342.126 103.431 345.029 102.786C347.931 102.141 385.473 96.6055 403.881 93.9182L658.636 88.678C664.481 88.678 700.975 72.7925 705.798 73.1589C721.72 74.3681 683.225 95.4402 722.93 85.8563C727.606 84.7277 745.1 76.9883 757.999 81.0192V-0.00276184H-18.1592Z" fill="#5AC7E5"/>
<path d="M231.133 90.0851C209.216 84.648 188.537 86.1998 167.91 95.335C154.768 101.181 143.017 109.675 129.926 115.576C109.94 124.575 87.7413 127.133 65.9703 129.601C69.8358 129.737 72.6743 133.442 73.9243 137.091C75.1195 140.792 75.2974 144.774 76.8158 148.327C79.0179 153.547 84.1844 157.387 89.8354 158.01C87.2496 153.148 86.6698 147.03 91.2825 144.011C95.8953 140.993 109.036 139.706 114.514 139.209C143.717 136.473 168.93 134.127 198.08 131.389C200.155 131.197 202.282 131.006 204.118 130.064C205.954 129.121 207.555 127.322 207.521 125.253C207.505 122.707 205.242 120.719 202.895 119.629C199.242 117.963 195.116 117.712 191.11 117.041C187.104 116.369 182.962 115.057 180.421 111.946C177.879 108.834 176.049 102.09 180.003 101.221C195.384 98.0517 211.126 104.173 225.139 111.24C239.205 118.31 250.787 123.648 266.094 127.103C276.982 129.554 289.21 128.606 302.986 121.297C311.848 116.572 327.82 102.608 337.742 100.89C347.77 99.1749 351.581 99.362 361.727 100.302C371.873 101.243 389.601 120.264 395.245 115.055C373.624 111.749 355.132 91.8525 333.526 95.6514C321.097 97.8117 309.115 102.321 296.644 104.161C275.11 107.433 252.58 104.36 234.279 92.5817" fill="#081B6A"/>
<path d="M231.133 90.0851C209.216 84.648 188.537 86.1998 167.91 95.335C154.768 101.181 143.017 109.675 129.926 115.576C109.94 124.575 87.7414 127.133 65.9703 129.601C69.8358 129.737 72.6743 133.442 73.9243 137.091C75.1195 140.792 75.2974 144.774 76.8158 148.327C79.0179 153.547 84.1844 157.387 89.8354 158.01C87.2496 153.148 86.6698 147.03 91.2825 144.011C95.8953 140.993 109.036 139.706 114.514 139.209C143.717 136.473 168.93 134.127 198.08 131.389C200.155 131.197 202.282 131.006 204.118 130.064C205.954 129.121 207.555 127.322 207.521 125.253C207.505 122.707 205.242 120.719 202.895 119.629C199.242 117.963 195.116 117.712 191.11 117.041C187.104 116.369 182.962 115.057 180.421 111.946C177.879 108.834 176.049 102.09 180.003 101.221C195.384 98.0517 211.126 104.173 225.139 111.24C239.205 118.31 250.787 123.648 266.094 127.103C276.982 129.554 289.21 128.606 302.986 121.297C311.848 116.572 327.82 102.608 337.742 100.89C347.77 99.1749 351.581 99.362 361.727 100.302C371.873 101.243 389.601 120.264 395.245 115.055C373.624 111.749 355.132 91.8525 333.526 95.6514C321.097 97.8118 309.115 102.321 296.644 104.161C275.11 107.433 252.58 104.36 234.279 92.5817" stroke="black" stroke-width="0.266634" stroke-miterlimit="10" stroke-linecap="round" stroke-linejoin="round"/>
<path d="M199.406 79.7956C185.803 76.1357 155.331 84.8182 143.252 92.0805C141.301 93.2843 139.35 94.488 137.346 95.6899C127.211 101.96 116.968 108.28 105.248 109.882C92.1435 111.647 78.9923 107.208 66.7656 102.112C54.5389 97.0162 49.0907 93.6433 35.877 92.4889C22.6632 91.3345 11.5202 97.6224 5.06981 109.165C2.01468 114.625 -6.79911 127.039 -11.7102 131.001C-45.7533 158.273 -54.973 153.601 -60.392 155.425C-65.7561 157.198 -72.0112 158.674 -70.9318 176.208C-70.9318 176.208 -38.1226 158.383 -19.0964 154.069C-0.068438 149.702 14.4945 148.677 24.785 139.496C35.0755 130.315 92.336 125.757 108.844 123.687" fill="#081B6A"/>
<path d="M199.406 79.7956C185.803 76.1357 155.331 84.8182 143.252 92.0805C141.301 93.2843 139.35 94.488 137.346 95.6899C127.211 101.96 116.968 108.28 105.248 109.882C92.1435 111.647 78.9923 107.208 66.7656 102.112C54.5389 97.0162 49.0907 93.6433 35.877 92.4889C22.6632 91.3345 11.5202 97.6224 5.06982 109.165C2.01468 114.625 -6.79911 127.039 -11.7102 131.001C-45.7533 158.273 -54.973 153.601 -60.392 155.425C-65.7561 157.198 -72.0112 158.674 -70.9319 176.208C-70.9319 176.208 -38.1226 158.383 -19.0964 154.069C-0.0684321 149.702 14.4945 148.677 24.785 139.496C35.0755 130.315 92.336 125.757 108.844 123.687" stroke="black" stroke-width="0.266634" stroke-miterlimit="10" stroke-linecap="round" stroke-linejoin="round"/>
<path d="M362.146 107.59C350.172 104.358 330.728 105.477 322.003 109.358C310.583 114.47 309.695 115.605 300.547 119.418C283.919 126.414 264.801 121.288 247.955 114.863C231.11 108.438 213.783 100.617 195.801 102.37C189.737 102.952 182.458 106.407 182.881 112.466C183.342 118.95 191.7 120.994 198.145 121.645C199.359 121.794 200.624 121.997 201.939 122.309C207.721 123.732 206.838 132.237 200.894 132.398C172.125 133.347 143.411 134.245 114.642 135.194C106.202 135.48 97.1197 135.956 90.5186 141.237C83.9175 146.518 80.309 149.625 87.522 154.068C123.915 173.004 25.7133 158.307 -14.7044 160.33C-37.0113 161.454 -48.0808 174.69 -48.8891 184.098C-49.6222 192.873 -71.4694 194.49 -74.3278 177.795C-75.5644 170.753 -69.7222 164.437 -63.6518 160.675C-45.3383 149.497 -20.6533 150.101 -5.02512 135.382C6.21404 124.856 11.4379 107.491 25.6409 101.629C38.4448 96.3534 52.7449 102.795 65.8979 107.181C85.338 113.697 101.735 119.311 120.913 112.193C138.746 105.61 158.449 88.1189 176.473 82.1262C216.815 68.7015 244.546 107.797 286.428 100.312C305.101 96.9929 307.898 92.8499 326.871 93.0407C338.424 93.1823 343.284 92.187 367.971 100.266C390.666 107.693 400.557 118.909 411.361 126.765C411.359 126.818 396.968 116.927 362.146 107.59Z" fill="#5AC7E5" stroke="black" stroke-width="0.266634" stroke-miterlimit="10" stroke-linecap="round" stroke-linejoin="round"/>
<path d="M55.9249 148.07C50.1717 147.337 45.1961 147.109 40.1217 149.687C39.3655 150.085 38.6036 150.641 38.5738 151.488C38.582 152.761 39.8946 153.125 40.9481 153.322C53.1751 155.396 65.3493 157.468 77.5764 159.542C78.7357 159.742 79.8951 159.941 80.9765 159.343C81.4624 159.095 81.7969 158.63 81.9214 158.104C82.2347 156.737 80.8877 155.841 79.6885 155.269C78.1241 154.524 76.5598 153.78 74.9918 153.142C69.3475 150.822 63.4124 149.235 57.3472 148.332C56.8214 148.208 56.2937 148.136 55.9249 148.07Z" fill="white" stroke="#000207" stroke-width="0.266634" stroke-miterlimit="10" stroke-linecap="round" stroke-linejoin="round"/>
<path d="M29.5951 153.41C31.8172 153.541 33.9658 154.253 35.833 155.432C36.3513 155.768 36.9681 156.32 36.8398 156.952C36.7115 157.583 36.012 157.877 35.4239 158.015C31.7348 158.893 27.6799 158.114 24.5773 155.884C24.112 155.549 23.6011 155.001 23.8315 154.479C24.0053 154.061 24.5404 153.921 24.9677 153.83C26.3557 153.561 26.9911 153.583 28.4264 153.474L29.5951 153.41Z" fill="white" stroke="#000207" stroke-width="0.266634" stroke-miterlimit="10" stroke-linecap="round" stroke-linejoin="round"/>
<path d="M200.64 132.172C171.458 126.797 130.669 119.794 101.937 127.212C96.2116 128.707 90.25 130.883 86.5326 135.577C82.817 140.218 82.4919 147.947 87.2423 151.56" stroke="#000207" stroke-width="0.266634" stroke-miterlimit="10" stroke-linecap="round" stroke-linejoin="round"/>
<path d="M122.18 110.953C102.594 114.611 82.4257 115.227 62.685 112.729C52.287 111.409 40.4212 109.613 32.4423 116.383C25.0097 122.695 23.6901 134.578 15.4968 139.909C10.9388 142.877 5.25801 143.101 -0.123703 143.866C-17.8686 146.422 -34.5208 155.591 -46.1347 169.232" stroke="#000207" stroke-width="0.266634" stroke-miterlimit="10" stroke-linecap="round" stroke-linejoin="round"/>
<path d="M338.896 93.3886C317.233 92.785 306.485 102.904 298.211 109.028C283.458 119.96 261.919 120.369 241.264 112.219" stroke="#000207" stroke-width="0.266634" stroke-miterlimit="10" stroke-linecap="round" stroke-linejoin="round"/>
<path d="M183.654 108.723C186.925 103.165 196.245 97.449 202.639 96.5607C218.784 94.2661 238.454 103.282 254.522 106.181C270.591 109.079 286.76 106.096 300.383 97.1387" stroke="#000207" stroke-width="0.266634" stroke-miterlimit="10" stroke-linecap="round" stroke-linejoin="round"/>
</svg>
