<svg width="439" height="447" viewBox="0 0 439 447" fill="none" xmlns="http://www.w3.org/2000/svg">
<path d="M403.095 140.095C416.545 107.109 404.095 65.6455 374.745 45.3158C366.075 39.3598 355.665 34.9624 345.165 36.094C334.665 37.2256 324.475 45.1073 323.365 55.5303C322.935 32.7983 306.925 11.1583 285.195 3.96154C263.465 -3.23526 237.575 4.49758 223.465 22.4151C209.355 40.3326 208.055 67.1444 220.345 86.3326C203.195 77.2795 180.805 91.0676 174.845 109.412C168.885 127.756 174.975 147.808 183.275 165.239C176.275 157.884 163.545 156.921 155.515 163.145C147.485 169.369 145.335 181.876 150.825 190.383C124.825 169.19 81.8249 176.665 61.3249 203.07C40.8249 229.474 42.4849 269.23 61.6549 296.638C39.7749 290.007 10.2749 307.309 4.53486 329.277C-1.20514 351.244 0.624864 370.571 14.4449 388.677C18.0949 388.221 178.945 446.47 178.945 446.47C178.945 446.47 180.415 441.944 196.165 439.988C214.855 437.665 232.985 418.388 227.165 400.44C232.29 405.62 238.865 409.151 246.037 410.577C253.209 412.002 260.647 411.256 267.387 408.435C274.126 405.614 279.856 400.847 283.834 394.754C287.812 388.661 289.854 381.523 289.695 374.264C301.895 393.561 328.815 399.994 350.805 393.422C372.795 386.851 390.165 369.817 403.005 350.926C438.945 298.047 443.865 225.851 415.415 168.674" fill="#F3BEDA"/>
<path d="M178.934 446.99C178.878 446.999 178.82 446.999 178.764 446.99C123.554 426.997 18.2641 389.217 14.5041 389.217C14.419 389.228 14.3323 389.217 14.2531 389.184C14.174 389.15 14.1053 389.097 14.0541 389.028C0.99412 371.954 -2.14588 352.935 4.05412 329.171C6.87412 318.37 15.6741 307.967 27.5941 301.376C38.5941 295.251 50.5041 293.256 60.4741 295.817C41.0641 267.03 41.1941 228.167 60.9241 202.795C71.3941 189.305 88.5041 180.053 106.714 178.018C122.714 176.231 137.654 179.944 149.204 188.491C145.154 179.914 147.624 168.637 155.204 162.741C162.784 156.845 174.364 157.232 181.764 163.158C171.964 141.776 169.544 124.126 174.374 109.256C176.21 103.899 179.177 98.9931 183.078 94.8671C186.98 90.7412 191.724 87.4906 196.994 85.3333C204.624 82.266 212.364 82.2064 218.994 85.1347C207.584 65.9267 209.194 39.7006 223.044 22.1007C237.284 4.05416 263.474 -3.77794 285.354 3.47841C306.044 10.3377 321.644 30.2803 323.654 51.7813C326.364 43.3735 334.954 36.6929 345.114 35.6009C356.894 34.3303 367.884 39.9587 375.024 44.9022C404.504 65.3113 417.024 107.202 403.564 140.277C403.513 140.4 403.415 140.499 403.292 140.551C403.168 140.603 403.029 140.604 402.904 140.555C402.783 140.505 402.686 140.408 402.635 140.288C402.585 140.167 402.584 140.031 402.634 139.91C415.944 107.241 403.574 65.8771 374.454 45.7162C367.454 40.872 356.704 35.3528 345.214 36.5837C335.604 37.5763 324.984 45.0114 323.864 55.5832C323.859 55.6459 323.842 55.7069 323.813 55.7628C323.784 55.8187 323.744 55.8684 323.696 55.909C323.647 55.9496 323.591 55.9803 323.531 55.9994C323.471 56.0184 323.407 56.0254 323.344 56.02C323.217 56.0149 323.096 55.9618 323.007 55.8714C322.918 55.781 322.867 55.6601 322.864 55.5336C322.444 33.0498 306.534 11.5488 285.044 4.42144C263.554 -2.70587 237.814 4.98726 223.864 22.7162C209.914 40.4451 208.604 67.0782 220.764 86.0678C220.823 86.1606 220.85 86.2697 220.841 86.3789C220.832 86.4881 220.787 86.5914 220.714 86.6734C220.638 86.7554 220.537 86.8098 220.426 86.8278C220.316 86.8458 220.202 86.8264 220.104 86.7726C213.424 83.2487 205.354 83.0601 197.404 86.2664C192.263 88.3649 187.633 91.5302 183.825 95.5501C180.017 99.5699 177.119 104.351 175.324 109.574C170.404 124.712 173.154 142.848 183.734 165.024C183.782 165.132 183.791 165.253 183.76 165.367C183.729 165.48 183.66 165.58 183.564 165.65C183.465 165.717 183.345 165.748 183.226 165.735C183.107 165.722 182.996 165.667 182.914 165.58C176.084 158.393 163.674 157.45 155.824 163.535C147.974 169.62 145.824 181.79 151.244 190.119C151.306 190.22 151.331 190.34 151.315 190.457C151.298 190.575 151.242 190.683 151.154 190.764C151.063 190.839 150.948 190.88 150.829 190.88C150.71 190.88 150.596 190.839 150.504 190.764C138.934 181.314 123.424 177.135 106.824 179.001C88.8841 180.986 72.0241 190.119 61.7141 203.371C41.9841 228.743 42.1241 267.894 62.0641 296.353C62.1244 296.437 62.1568 296.538 62.1568 296.641C62.1568 296.744 62.1244 296.845 62.0641 296.929C62.0015 297.011 61.9153 297.071 61.8171 297.103C61.7189 297.135 61.6132 297.137 61.5141 297.108C51.5141 294.13 39.3641 295.946 28.0841 302.21C16.3941 308.702 7.77412 318.877 4.99412 329.419C-1.10588 352.786 1.99412 371.478 14.6841 388.234C23.1141 389.604 160.684 439.376 178.684 445.878C179.504 444.617 182.934 441.153 196.084 439.515C206.574 438.214 217.184 431.395 223.084 422.153C227.594 415.115 228.834 407.472 226.604 400.612C226.565 400.507 226.565 400.392 226.604 400.287C226.642 400.181 226.717 400.093 226.814 400.037C226.911 399.979 227.024 399.954 227.136 399.966C227.248 399.979 227.353 400.028 227.434 400.106C232.489 405.213 238.973 408.695 246.045 410.1C253.117 411.506 260.452 410.77 267.098 407.989C273.744 405.207 279.395 400.509 283.319 394.501C287.243 388.494 289.258 381.455 289.104 374.297C289.1 374.189 289.132 374.082 289.195 373.994C289.258 373.906 289.35 373.841 289.454 373.811C289.559 373.777 289.672 373.779 289.776 373.817C289.879 373.854 289.967 373.926 290.024 374.019C301.254 391.788 327.284 399.928 350.564 392.969C369.564 387.281 387.564 372.649 402.504 350.672C420.084 324.793 430.554 293.931 432.764 261.412C434.974 228.892 428.764 196.889 414.884 168.915C414.853 168.858 414.835 168.794 414.829 168.729C414.824 168.664 414.831 168.599 414.852 168.536C414.872 168.474 414.905 168.417 414.949 168.368C414.992 168.319 415.045 168.279 415.104 168.25C415.163 168.221 415.227 168.205 415.293 168.2C415.359 168.196 415.425 168.205 415.487 168.226C415.549 168.248 415.607 168.281 415.656 168.324C415.705 168.367 415.745 168.42 415.774 168.479C429.774 196.621 435.994 228.783 433.774 261.471C431.554 294.159 421.024 325.21 403.344 351.228C388.274 373.404 370.124 388.164 350.864 393.912C327.774 400.811 302.014 393.088 290.104 375.925C289.926 382.974 287.708 389.823 283.715 395.655C279.721 401.486 274.121 406.053 267.583 408.81C261.045 411.568 253.846 412.398 246.846 411.203C239.845 410.008 233.339 406.838 228.104 402.072C229.694 408.742 228.264 415.969 223.974 422.669C217.894 432.159 206.974 439.158 196.224 440.537C181.224 442.404 179.424 446.642 179.414 446.682C179.372 446.773 179.305 446.851 179.219 446.905C179.134 446.96 179.035 446.989 178.934 446.99Z" fill="#000207"/>
<path d="M278.075 91.2261C275.083 70.2119 279.865 48.8336 291.535 31.0509C301.925 15.357 318.535 2.78986 337.425 1.33065C356.315 -0.128563 376.495 11.8826 380.495 30.2369" fill="#F3BEDA"/>
<path d="M278.075 91.7196C277.955 91.7184 277.84 91.6747 277.75 91.5964C277.66 91.5181 277.602 91.4104 277.585 91.2928C274.575 70.1488 279.381 48.6381 291.115 30.7404C302.635 13.3788 319.925 2.19151 337.385 0.831563C357.575 -0.746769 377.125 12.406 380.985 30.125C381 30.1889 381.002 30.255 380.99 30.3197C380.979 30.3843 380.955 30.446 380.92 30.5014C380.885 30.5568 380.839 30.6047 380.785 30.6423C380.73 30.6799 380.669 30.7065 380.605 30.7206C380.474 30.7472 380.337 30.7215 380.225 30.649C380.113 30.5766 380.034 30.4633 380.005 30.3335C376.245 13.081 357.155 0.295526 337.465 1.82422C320.315 3.15439 303.295 14.1829 291.995 31.3261C280.403 49.0103 275.65 70.2617 278.615 91.1538C278.632 91.2852 278.597 91.4181 278.516 91.5239C278.436 91.6297 278.317 91.7 278.185 91.7196H278.075Z" fill="#000207"/>
<path d="M178.474 195.992C176.562 190.195 176.55 183.946 178.44 178.143C180.331 172.339 184.025 167.279 188.994 163.691C199.044 156.742 213.744 157.397 223.144 165.19" fill="#F3BEDA"/>
<path d="M178.474 196.483C178.371 196.481 178.272 196.449 178.188 196.391C178.104 196.332 178.04 196.25 178.004 196.155C176.053 190.256 176.038 183.895 177.96 177.987C179.883 172.079 183.645 166.929 188.704 163.278C198.944 156.22 213.894 156.875 223.464 164.797C223.566 164.881 223.63 165.002 223.642 165.133C223.655 165.265 223.614 165.395 223.529 165.497C223.487 165.547 223.435 165.588 223.377 165.619C223.319 165.649 223.255 165.668 223.19 165.674C223.058 165.686 222.926 165.645 222.824 165.561C218.161 161.73 212.363 159.52 206.316 159.268C200.268 159.017 194.304 160.738 189.335 164.168C184.365 167.598 180.664 172.549 178.797 178.265C176.93 183.98 176.999 190.145 178.994 195.817C179.039 195.941 179.033 196.078 178.976 196.197C178.92 196.316 178.819 196.408 178.694 196.453C178.624 196.479 178.549 196.489 178.474 196.483Z" fill="#000207"/>
<path d="M44.8945 313.536C54.7245 297.505 75.6945 289.177 93.9945 293.991C112.295 298.805 126.235 316.366 126.765 335.127" fill="#F3BEDA"/>
<path d="M126.765 335.627C126.636 335.627 126.512 335.577 126.418 335.489C126.325 335.4 126.27 335.279 126.265 335.15C125.745 316.697 111.795 299.206 93.8251 294.451C75.8551 289.696 55.0051 298.025 45.3251 313.778C45.2909 313.834 45.246 313.883 45.1928 313.922C45.1397 313.961 45.0794 313.989 45.0153 314.005C44.9512 314.02 44.8847 314.023 44.8194 314.013C44.7542 314.004 44.6915 313.981 44.6351 313.947C44.5786 313.913 44.5294 313.869 44.4903 313.816C44.4512 313.763 44.423 313.703 44.4072 313.64C44.3914 313.576 44.3884 313.51 44.3983 313.445C44.4082 313.38 44.4309 313.318 44.4651 313.262C54.3651 297.141 75.6951 288.644 94.0851 293.488C112.475 298.333 126.735 316.23 127.265 335.101C127.268 335.165 127.257 335.23 127.235 335.291C127.212 335.351 127.177 335.407 127.132 335.454C127.088 335.501 127.034 335.539 126.974 335.565C126.915 335.592 126.85 335.606 126.785 335.607L126.765 335.627Z" fill="#000207"/>
<path d="M129.994 396.068C127.254 365.752 149.724 335.188 179.634 328.517C209.544 321.846 243.024 339.952 253.634 368.511" fill="#F3BEDA"/>
<path d="M129.994 396.564C129.868 396.564 129.747 396.517 129.654 396.433C129.562 396.348 129.505 396.232 129.494 396.107C128.164 381.326 132.664 366.069 142.164 353.135C151.664 340.2 164.944 331.296 179.524 328.03C194.104 324.764 209.944 327.206 224.104 334.87C238.264 342.533 248.914 354.415 254.104 368.342C254.145 368.465 254.136 368.599 254.079 368.715C254.022 368.831 253.922 368.921 253.8 368.965C253.677 369.008 253.542 369.003 253.424 368.95C253.305 368.897 253.212 368.8 253.164 368.68C248.084 354.981 237.614 343.278 223.654 335.743C209.694 328.209 194.124 325.817 179.774 329.003C165.424 332.19 152.364 340.975 143.004 353.72C133.644 366.466 129.204 381.515 130.524 396.018C130.53 396.083 130.522 396.149 130.502 396.211C130.482 396.273 130.45 396.331 130.407 396.381C130.364 396.43 130.312 396.471 130.253 396.501C130.194 396.531 130.13 396.549 130.064 396.554L129.994 396.564Z" fill="#000207"/>
<path d="M136.305 292.99C151.565 303.145 173.415 302.262 187.785 290.906C202.155 279.55 207.935 258.614 201.385 241.57" fill="#F3BEDA"/>
<path d="M160.504 300.599C151.796 300.66 143.266 298.156 135.994 293.402C135.884 293.329 135.808 293.217 135.781 293.088C135.755 292.96 135.781 292.827 135.854 292.717C135.929 292.608 136.044 292.532 136.175 292.506C136.306 292.48 136.442 292.506 136.554 292.578C151.734 302.684 173.134 301.82 187.444 290.524C201.754 279.227 207.444 258.758 200.894 241.754C200.869 241.693 200.858 241.627 200.859 241.562C200.861 241.496 200.876 241.431 200.903 241.371C200.93 241.311 200.968 241.257 201.017 241.212C201.065 241.167 201.122 241.132 201.184 241.109C201.307 241.064 201.443 241.068 201.563 241.122C201.683 241.176 201.776 241.275 201.824 241.397C208.494 258.748 202.704 279.733 188.064 291.298C180.19 297.383 170.482 300.659 160.504 300.599Z" fill="#000207"/>
<path d="M231.193 338.076C235.884 331.737 241.989 326.561 249.03 322.955C256.071 319.348 263.858 317.408 271.781 317.287C279.703 317.166 287.546 318.867 294.696 322.256C301.846 325.646 308.108 330.632 312.993 336.825" fill="#F3BEDA"/>
<path d="M231.194 338.578C231.088 338.58 230.986 338.545 230.904 338.479C230.85 338.441 230.805 338.392 230.771 338.337C230.737 338.281 230.714 338.219 230.703 338.154C230.693 338.09 230.696 338.024 230.711 337.96C230.727 337.897 230.755 337.837 230.794 337.784C235.531 331.39 241.693 326.171 248.8 322.534C255.906 318.897 263.764 316.941 271.759 316.819C279.753 316.697 287.668 318.412 294.884 321.83C302.099 325.248 308.421 330.277 313.354 336.524C313.423 336.627 313.451 336.753 313.431 336.876C313.412 336.998 313.347 337.109 313.248 337.187C313.15 337.264 313.027 337.302 312.902 337.293C312.777 337.285 312.66 337.229 312.574 337.139C307.737 331.007 301.536 326.069 294.456 322.712C287.377 319.356 279.611 317.671 271.766 317.79C263.921 317.909 256.21 319.829 249.238 323.4C242.265 326.97 236.219 332.094 231.574 338.37C231.531 338.431 231.474 338.482 231.408 338.518C231.342 338.554 231.269 338.575 231.194 338.578Z" fill="#000207"/>
<path d="M196.805 280.423C209.015 283.54 221.925 284.632 234.255 282.031C246.585 279.43 258.305 272.888 265.785 262.823C273.265 252.757 276.055 238.999 271.685 227.266" fill="#F3BEDA"/>
<path d="M219.774 283.989C211.974 283.927 204.212 282.889 196.674 280.902C196.608 280.885 196.546 280.856 196.492 280.816C196.437 280.776 196.391 280.726 196.357 280.668C196.322 280.611 196.299 280.547 196.289 280.481C196.279 280.414 196.282 280.346 196.299 280.281C196.315 280.216 196.344 280.155 196.384 280.101C196.425 280.047 196.475 280.001 196.533 279.967C196.591 279.932 196.656 279.909 196.723 279.899C196.79 279.889 196.858 279.893 196.924 279.909C210.374 283.353 222.924 283.88 234.144 281.517C247.044 278.787 258.424 271.858 265.384 262.498C273.144 252.055 275.384 238.604 271.214 227.417C271.171 227.292 271.178 227.155 271.234 227.035C271.29 226.915 271.39 226.821 271.514 226.772C271.638 226.727 271.776 226.733 271.896 226.789C272.016 226.845 272.108 226.946 272.154 227.07C276.434 238.574 274.154 252.372 266.154 263.093C259.064 272.643 247.454 279.71 234.324 282.49C229.54 283.493 224.663 283.995 219.774 283.989Z" fill="#000207"/>
<path d="M210.125 158.885C214.765 147.022 228.555 139.448 241.125 141.851C248.125 143.191 254.305 147.132 260.285 150.993" fill="#F3BEDA"/>
<path d="M210.123 159.377C210.064 159.387 210.003 159.387 209.943 159.377C209.881 159.354 209.825 159.319 209.776 159.274C209.728 159.229 209.69 159.175 209.663 159.115C209.636 159.055 209.621 158.99 209.619 158.924C209.618 158.859 209.629 158.793 209.653 158.732C214.343 146.741 228.513 138.958 241.243 141.39C248.443 142.77 254.883 146.929 260.573 150.602C260.635 150.635 260.688 150.68 260.731 150.734C260.774 150.789 260.805 150.851 260.822 150.918C260.839 150.985 260.842 151.055 260.83 151.123C260.818 151.191 260.792 151.256 260.754 151.314C260.715 151.371 260.665 151.42 260.607 151.458C260.548 151.495 260.482 151.519 260.414 151.53C260.345 151.541 260.275 151.537 260.207 151.519C260.14 151.501 260.078 151.469 260.023 151.426C254.423 147.813 248.023 143.703 241.023 142.363C228.753 140.02 215.083 147.525 210.553 159.089C210.517 159.173 210.457 159.245 210.381 159.296C210.305 159.347 210.215 159.375 210.123 159.377Z" fill="#000207"/>
<path d="M276.415 117.2C274.272 111.658 273.715 105.635 274.805 99.7985C276.055 94.0212 279.555 88.6012 284.755 85.7523C289.955 82.9034 296.865 82.9629 301.595 86.5464" fill="#F3BEDA"/>
<path d="M276.405 117.697C276.302 117.697 276.202 117.666 276.118 117.607C276.033 117.548 275.97 117.465 275.935 117.37C273.772 111.735 273.211 105.619 274.315 99.6902C274.903 96.7177 276.115 93.9015 277.872 91.4249C279.63 88.9484 281.893 86.8671 284.515 85.3165C290.075 82.269 297.225 82.6065 301.895 86.1503C302.001 86.2306 302.07 86.3495 302.088 86.4807C302.106 86.612 302.071 86.7449 301.99 86.8502C301.909 86.9555 301.789 87.0246 301.657 87.0422C301.525 87.0599 301.391 87.0248 301.285 86.9445C296.915 83.629 290.215 83.3212 284.995 86.1801C280.205 88.8107 276.585 93.9427 275.295 99.8987C274.221 105.646 274.772 111.576 276.885 117.032C276.927 117.157 276.917 117.294 276.86 117.412C276.802 117.531 276.699 117.622 276.575 117.667C276.52 117.688 276.463 117.698 276.405 117.697Z" fill="#000207"/>
<path d="M219.363 101.491C219.077 98.583 219.477 95.6491 220.532 92.9217C221.587 90.1943 223.267 87.7485 225.44 85.7783C227.613 83.808 230.219 82.3676 233.051 81.5713C235.883 80.775 238.862 80.6446 241.753 81.1907" fill="#F3BEDA"/>
<path d="M219.363 101.951C219.239 101.947 219.12 101.899 219.028 101.815C218.936 101.731 218.878 101.617 218.863 101.494C218.567 98.5074 218.976 95.4929 220.059 92.6905C221.142 89.8881 222.869 87.3751 225.102 85.3512C227.335 83.3274 230.012 81.8485 232.922 81.0321C235.832 80.2158 238.893 80.0845 241.863 80.6486C241.996 80.6736 242.113 80.7499 242.189 80.8606C242.265 80.9714 242.293 81.1076 242.268 81.2392C242.243 81.3709 242.166 81.4872 242.055 81.5626C241.943 81.638 241.806 81.6663 241.673 81.6412C238.858 81.1073 235.956 81.2325 233.198 82.0069C230.44 82.7813 227.902 84.1836 225.786 86.1023C223.669 88.021 222.033 90.4032 221.007 93.0597C219.98 95.7162 219.592 98.5737 219.873 101.405C219.88 101.47 219.874 101.535 219.855 101.598C219.836 101.66 219.804 101.718 219.762 101.768C219.72 101.818 219.669 101.859 219.611 101.888C219.552 101.918 219.489 101.936 219.423 101.941L219.363 101.951Z" fill="#000207"/>
<path d="M139.125 198.597C140.007 196.247 141.59 194.22 143.664 192.787C145.737 191.354 148.201 190.584 150.728 190.578C153.254 190.573 155.722 191.333 157.801 192.757C159.881 194.181 161.473 196.201 162.365 198.547" fill="#F3BEDA"/>
<path d="M139.123 199.093H138.943C138.881 199.07 138.825 199.035 138.776 198.99C138.728 198.945 138.69 198.891 138.663 198.831C138.636 198.771 138.621 198.706 138.619 198.64C138.618 198.574 138.629 198.509 138.653 198.448C139.616 196.034 141.275 193.955 143.422 192.472C145.569 190.989 148.108 190.167 150.723 190.109C153.335 190.163 155.873 190.977 158.023 192.451C160.172 193.925 161.838 195.993 162.813 198.398C162.859 198.522 162.855 198.659 162.801 198.779C162.746 198.9 162.647 198.995 162.523 199.043C162.398 199.086 162.262 199.081 162.141 199.027C162.02 198.974 161.925 198.876 161.873 198.755C160.977 196.534 159.441 194.624 157.459 193.263C155.476 191.902 153.133 191.151 150.723 191.102C148.312 191.156 145.97 191.915 143.99 193.283C142.011 194.652 140.481 196.569 139.593 198.795C139.552 198.884 139.485 198.959 139.402 199.012C139.319 199.065 139.222 199.093 139.123 199.093Z" fill="#000207"/>
<path d="M265.064 264.154C268.819 267.983 273.487 270.809 278.634 272.372C283.782 273.935 289.243 274.184 294.513 273.095C299.784 272.007 304.692 269.616 308.784 266.144C312.876 262.673 316.02 258.232 317.924 253.234" fill="#F3BEDA"/>
<path d="M288.315 274.263C283.925 274.262 279.58 273.399 275.528 271.725C271.476 270.05 267.798 267.597 264.705 264.505C264.658 264.459 264.62 264.404 264.595 264.344C264.57 264.283 264.557 264.218 264.557 264.153C264.557 264.087 264.57 264.023 264.595 263.962C264.62 263.902 264.658 263.847 264.705 263.801C264.8 263.709 264.927 263.658 265.06 263.658C265.192 263.658 265.319 263.709 265.415 263.801C269.104 267.575 273.694 270.363 278.759 271.906C283.824 273.448 289.199 273.696 294.386 272.626C299.573 271.555 304.404 269.202 308.43 265.783C312.456 262.364 315.546 257.991 317.415 253.07C317.462 252.945 317.556 252.845 317.678 252.789C317.8 252.733 317.939 252.727 318.065 252.772C318.186 252.823 318.284 252.918 318.338 253.038C318.392 253.158 318.398 253.293 318.355 253.417C316.373 258.466 313.167 262.952 309.021 266.476C304.874 270 299.915 272.453 294.585 273.618C292.522 274.043 290.421 274.259 288.315 274.263Z" fill="#000207"/>
<path d="M204.555 266.497C207.126 266.412 209.635 265.683 211.847 264.378C214.059 263.074 215.903 261.235 217.208 259.034C218.513 256.832 219.236 254.339 219.311 251.786C219.386 249.233 218.809 246.702 217.635 244.43" fill="#F3BEDA"/>
<path d="M204.555 266.99C204.422 266.99 204.295 266.938 204.201 266.845C204.107 266.752 204.055 266.625 204.055 266.494C204.055 266.362 204.107 266.236 204.201 266.143C204.295 266.05 204.422 265.997 204.555 265.997C207.042 265.915 209.468 265.21 211.607 263.948C213.746 262.686 215.529 260.908 216.791 258.779C218.053 256.65 218.753 254.239 218.825 251.77C218.897 249.301 218.34 246.853 217.205 244.655C217.144 244.538 217.132 244.402 217.172 244.276C217.213 244.15 217.302 244.046 217.42 243.985C217.538 243.925 217.675 243.913 217.802 243.953C217.928 243.993 218.034 244.081 218.095 244.199C219.317 246.547 219.92 249.164 219.848 251.806C219.776 254.448 219.032 257.029 217.684 259.308C216.337 261.587 214.429 263.491 212.141 264.841C209.852 266.191 207.256 266.944 204.595 267.03L204.555 266.99Z" fill="#000207"/>
<path d="M170.484 329.838C170.75 326.535 171.901 323.363 173.817 320.65C175.733 317.936 178.345 315.781 181.383 314.407C184.42 313.033 187.773 312.491 191.092 312.835C194.412 313.18 197.579 314.4 200.264 316.368" fill="#F3BEDA"/>
<path d="M170.484 330.332C170.353 330.319 170.231 330.256 170.145 330.156C170.059 330.056 170.016 329.927 170.024 329.796C170.297 326.404 171.479 323.146 173.446 320.36C175.414 317.574 178.097 315.361 181.216 313.951C184.335 312.54 187.778 311.984 191.187 312.338C194.596 312.693 197.848 313.946 200.604 315.968C200.657 316.007 200.701 316.056 200.735 316.112C200.768 316.168 200.79 316.23 200.799 316.295C200.809 316.359 200.805 316.425 200.789 316.488C200.773 316.551 200.744 316.611 200.704 316.663C200.667 316.716 200.619 316.761 200.563 316.795C200.508 316.828 200.446 316.851 200.381 316.86C200.316 316.869 200.251 316.865 200.188 316.849C200.125 316.832 200.066 316.802 200.014 316.762C197.4 314.846 194.316 313.658 191.084 313.322C187.851 312.987 184.587 313.515 181.629 314.852C178.671 316.19 176.128 318.288 174.261 320.929C172.395 323.57 171.274 326.659 171.014 329.875C171.004 330.005 170.943 330.126 170.844 330.211C170.745 330.297 170.616 330.34 170.484 330.332Z" fill="#000207"/>
<path d="M61.3635 297.656C60.8166 294.929 61.1506 292.101 62.318 289.574C63.4855 287.047 65.4267 284.95 67.865 283.583C70.3033 282.215 73.1143 281.647 75.8972 281.958C78.6802 282.27 81.2931 283.445 83.3635 285.317" fill="#F3BEDA"/>
<path d="M61.3635 298.152C61.2474 298.15 61.1355 298.108 61.0464 298.034C60.9573 297.96 60.8963 297.858 60.8735 297.745C60.3128 294.92 60.6633 291.991 61.8751 289.375C63.0869 286.758 65.0984 284.588 67.6239 283.171C70.1494 281.754 73.0604 281.164 75.9434 281.483C78.8264 281.802 81.5347 283.015 83.6835 284.95C83.7301 284.995 83.7671 285.049 83.7923 285.109C83.8176 285.168 83.8306 285.232 83.8306 285.297C83.8306 285.362 83.8176 285.426 83.7923 285.485C83.7671 285.545 83.7301 285.599 83.6835 285.644C83.637 285.691 83.5817 285.728 83.5208 285.753C83.4599 285.778 83.3945 285.791 83.3285 285.791C83.2625 285.791 83.1972 285.778 83.1362 285.753C83.0753 285.728 83.02 285.691 82.9735 285.644C80.9782 283.843 78.4606 282.713 75.7799 282.416C73.0993 282.119 70.3927 282.671 68.0465 283.991C65.7003 285.312 63.8343 287.335 62.715 289.771C61.5957 292.207 61.2802 294.932 61.8135 297.556C61.8267 297.62 61.827 297.686 61.8145 297.75C61.802 297.814 61.777 297.875 61.7408 297.929C61.7045 297.984 61.6579 298.031 61.6034 298.067C61.549 298.103 61.4879 298.129 61.4235 298.142L61.3635 298.152Z" fill="#000207"/>
<path d="M280.245 56.2948C277.802 54.6169 275.774 52.4116 274.313 49.8444C272.851 47.2771 271.994 44.4146 271.807 41.4718C271.619 38.5289 272.105 35.582 273.229 32.8524C274.353 30.1227 276.085 27.6812 278.295 25.7109" fill="#F3BEDA"/>
<path d="M280.245 56.735C280.141 56.7345 280.04 56.7034 279.955 56.6456C277.472 54.9035 275.409 52.6372 273.913 50.0095C272.417 47.3818 271.527 44.458 271.305 41.448C271.148 38.431 271.667 35.417 272.823 32.6227C273.98 29.8285 275.746 27.3233 277.995 25.2874C278.041 25.2409 278.096 25.204 278.157 25.1788C278.218 25.1536 278.284 25.1406 278.35 25.1406C278.416 25.1406 278.481 25.1536 278.542 25.1788C278.603 25.204 278.658 25.2409 278.705 25.2874C278.752 25.3336 278.789 25.3885 278.814 25.449C278.84 25.5094 278.853 25.5743 278.853 25.6398C278.853 25.7054 278.84 25.7702 278.814 25.8307C278.789 25.8912 278.752 25.9461 278.705 25.9922C276.556 27.9298 274.867 30.3168 273.76 32.9811C272.653 35.6453 272.156 38.5202 272.305 41.3983C272.516 44.2587 273.363 47.0371 274.784 49.5342C276.206 52.0313 278.166 54.1853 280.525 55.8416C280.611 55.9017 280.677 55.9877 280.711 56.087C280.746 56.1864 280.748 56.2941 280.716 56.3946C280.685 56.495 280.623 56.5831 280.538 56.646C280.453 56.709 280.351 56.7436 280.245 56.7449V56.735Z" fill="#000207"/>
<path d="M282.834 206.829C290.834 208.318 299.264 208.358 307.054 205.935C314.844 203.513 321.944 198.441 325.884 191.343C329.824 184.246 330.254 175.113 326.144 168.125" fill="#F3BEDA"/>
<path d="M293.694 208.369C290.019 208.354 286.353 208.002 282.744 207.317C282.614 207.292 282.499 207.218 282.424 207.111C282.349 207.003 282.32 206.87 282.344 206.741C282.37 206.611 282.447 206.497 282.557 206.423C282.668 206.349 282.803 206.32 282.934 206.344C291.734 207.972 299.804 207.674 306.934 205.46C315.054 202.919 321.814 197.698 325.474 191.106C329.474 183.87 329.604 174.946 325.734 168.374C325.7 168.319 325.678 168.257 325.669 168.192C325.659 168.128 325.663 168.062 325.68 167.999C325.697 167.936 325.726 167.877 325.766 167.826C325.806 167.774 325.857 167.731 325.914 167.699C326.03 167.634 326.167 167.616 326.296 167.649C326.424 167.683 326.535 167.765 326.604 167.878C330.604 174.737 330.544 184.049 326.354 191.593C322.564 198.393 315.594 203.793 307.234 206.403C302.848 207.742 298.282 208.405 293.694 208.369Z" fill="#000207"/>
<path d="M298.494 171.955C306.784 173.544 315.724 170.05 321.124 163.607C323.76 160.319 325.607 156.479 326.526 152.377C327.444 148.275 327.409 144.019 326.424 139.932C324.327 131.713 319.1 124.621 311.844 120.148" fill="#F3BEDA"/>
<path d="M302.474 172.832C301.105 172.832 299.739 172.703 298.394 172.445C298.262 172.42 298.145 172.343 298.069 172.233C297.993 172.122 297.964 171.986 297.989 171.854C298.015 171.722 298.091 171.606 298.203 171.531C298.315 171.455 298.452 171.427 298.584 171.452C306.474 172.961 315.374 169.675 320.734 163.272C323.324 160.048 325.143 156.282 326.054 152.258C326.965 148.235 326.945 144.059 325.994 140.044C323.939 131.944 318.784 124.958 311.624 120.568C311.565 120.535 311.514 120.49 311.473 120.436C311.432 120.382 311.403 120.321 311.387 120.255C311.37 120.19 311.368 120.122 311.379 120.055C311.39 119.989 311.415 119.925 311.452 119.869C311.488 119.812 311.536 119.763 311.593 119.726C311.649 119.688 311.712 119.662 311.779 119.649C311.846 119.637 311.914 119.638 311.98 119.652C312.047 119.667 312.109 119.695 312.164 119.734C319.544 124.26 324.853 131.464 326.964 139.816C327.958 143.979 327.988 148.312 327.051 152.489C326.114 156.665 324.234 160.576 321.554 163.928C319.207 166.688 316.288 168.912 312.995 170.449C309.702 171.986 306.113 172.799 302.474 172.832Z" fill="#000207"/>
<path d="M22.625 372.812C23.675 364.544 28.995 357.069 36.055 352.612C43.3058 348.266 51.8217 346.475 60.225 347.529C66.585 348.244 72.955 350.458 77.575 354.855C82.195 359.253 84.755 366.052 83.025 372.167" fill="#F3BEDA"/>
<path d="M22.6244 373.311H22.5644C22.4989 373.304 22.4355 373.284 22.3781 373.252C22.3207 373.22 22.2704 373.176 22.2303 373.124C22.1901 373.072 22.1609 373.013 22.1445 372.95C22.128 372.886 22.1246 372.82 22.1344 372.756C23.1344 364.606 28.2744 356.933 35.7844 352.207C43.1251 347.788 51.7589 345.972 60.2744 347.056C65.3444 347.621 72.5144 349.368 77.9244 354.51C83.0044 359.345 85.2044 366.333 83.5144 372.309C83.4967 372.374 83.4662 372.435 83.4247 372.489C83.3831 372.542 83.3314 372.587 83.2725 372.621C83.2135 372.654 83.1484 372.676 83.081 372.685C83.0135 372.693 82.945 372.689 82.8794 372.671C82.8137 372.654 82.7522 372.623 82.6983 372.582C82.6444 372.541 82.5993 372.49 82.5654 372.431C82.5315 372.372 82.5095 372.308 82.5008 372.241C82.492 372.174 82.4967 372.106 82.5144 372.041C84.1144 366.412 82.0244 359.811 77.2044 355.225C71.9944 350.262 65.0444 348.584 60.1344 348.038C51.845 346.978 43.4387 348.746 36.2944 353.051C32.7678 355.204 29.7586 358.096 27.4782 361.526C25.1978 364.956 23.7015 368.839 23.0944 372.904C23.0725 373.014 23.0144 373.114 22.9294 373.188C22.8443 373.261 22.737 373.305 22.6244 373.311Z" fill="#000207"/>
<path d="M137.224 362.299C135.708 358.781 133.192 355.778 129.983 353.659C126.774 351.54 123.012 350.396 119.157 350.368C115.303 350.339 111.524 351.428 108.284 353.499C105.044 355.571 102.482 358.536 100.914 362.031" fill="#F3BEDA"/>
<path d="M137.225 362.794C137.126 362.793 137.03 362.764 136.948 362.709C136.866 362.654 136.802 362.577 136.765 362.486C135.234 359.095 132.768 356.204 129.652 354.145C126.536 352.086 122.897 350.945 119.155 350.852H118.995C115.274 350.913 111.646 352.012 108.524 354.024C105.403 356.036 102.915 358.879 101.345 362.228C101.288 362.346 101.188 362.437 101.065 362.484C100.942 362.53 100.806 362.527 100.685 362.476C100.624 362.45 100.57 362.413 100.524 362.366C100.478 362.319 100.442 362.263 100.418 362.202C100.393 362.141 100.382 362.076 100.383 362.011C100.384 361.945 100.398 361.881 100.425 361.821C102.079 358.299 104.697 355.31 107.981 353.195C111.264 351.08 115.081 349.924 118.995 349.859H119.135C123.071 349.957 126.899 351.158 130.176 353.324C133.453 355.489 136.046 358.532 137.655 362.099C137.681 362.159 137.695 362.225 137.695 362.29C137.696 362.356 137.683 362.422 137.658 362.483C137.633 362.544 137.596 362.599 137.549 362.646C137.502 362.692 137.446 362.729 137.385 362.754C137.335 362.777 137.28 362.791 137.225 362.794Z" fill="#000207"/>
<g style="mix-blend-mode:multiply">
<g style="mix-blend-mode:multiply">
<path d="M129.824 392.666C144.784 397.635 160.669 399.239 176.33 397.363C191.991 395.486 207.036 390.176 220.374 381.816C226.984 377.607 233.304 372.426 236.774 365.437C240.244 358.449 240.244 349.307 235.074 343.44C248.554 350.438 264.974 353.148 279.074 347.609C293.174 342.07 303.994 327.011 301.584 312.102C299.174 297.192 281.354 285.905 267.584 292.338C271.664 287.593 267.294 279.602 261.234 277.954C255.174 276.306 248.834 278.867 243.184 281.617C237.534 284.367 231.594 287.424 225.344 286.779C240.593 284.529 254.41 276.608 263.994 264.623C266.925 269.087 271.278 272.448 276.359 274.167C281.44 275.886 286.955 275.865 292.022 274.107C297.089 272.348 301.416 268.955 304.312 264.468C307.207 259.981 308.504 254.66 307.994 249.355C306.664 234.337 291.744 224.201 277.294 219.576C282.904 218.702 285.864 210.85 282.214 206.532C291.034 209.51 301.704 205.043 305.804 196.754C309.904 188.466 306.894 177.378 299.164 172.246C319.254 163.629 331.714 140.272 327.604 118.93C355.784 123.814 385.124 130.484 406.604 149.236C427.664 167.6 438.404 195.97 438.534 223.804C438.664 251.639 428.954 278.887 414.534 302.741C404.484 319.338 391.774 334.863 375.074 344.879C365.475 350.685 354.653 354.208 343.454 355.173C332.624 355.997 322.934 361.695 315.954 369.954C314.302 371.939 312.188 373.496 309.794 374.49C308.3 375.09 306.721 375.456 305.114 375.572C295.304 376.317 287.024 382.779 282.814 391.604C280.252 397.132 275.925 401.667 270.504 404.508C255.854 412.45 228.724 408.985 223.164 393.381C230.914 409.045 219.484 429.176 203.044 435.38C186.604 441.584 167.814 436.8 152.524 428.164C139.304 420.699 130.614 412.281 130.524 397.212" fill="#F3BEDA"/>
</g>
</g>
<g style="mix-blend-mode:multiply">
<g style="mix-blend-mode:multiply">
<path d="M83.8938 285.758C84.2426 280.277 86.3772 275.057 89.9757 270.885C93.5742 266.713 98.4415 263.815 103.844 262.629C109.298 261.692 114.912 262.541 119.838 265.047C124.765 267.554 128.736 271.583 131.154 276.526C134.49 274.671 138.377 274.04 142.134 274.743C145.892 275.447 149.281 277.44 151.707 280.374C154.133 283.307 155.442 286.995 155.405 290.791C155.368 294.586 153.987 298.248 151.504 301.134C155.352 300.943 159.168 301.906 162.457 303.898C165.746 305.89 168.354 308.818 169.943 312.302C171.533 315.786 172.029 319.664 171.367 323.431C170.705 327.199 168.917 330.681 166.234 333.426C165.474 327.023 158.514 322.774 152.024 322.804C145.534 322.834 139.514 326.04 133.974 329.395C122.104 305.224 94.6838 289.52 67.6738 291.396C71.8715 287.786 76.8342 285.16 82.1938 283.713" fill="#F3BEDA"/>
</g>
</g>
<g style="mix-blend-mode:multiply">
<g style="mix-blend-mode:multiply">
<path d="M184.474 166.784C187.799 163.499 191.915 161.113 196.431 159.854C200.947 158.594 205.713 158.502 210.274 159.587C212.709 154.839 216.328 150.788 220.786 147.82C225.244 144.852 230.392 143.067 235.742 142.633C241.092 142.199 246.465 143.131 251.349 145.342C256.233 147.552 260.466 150.966 263.644 155.259C264.934 146.911 274.864 141.084 282.854 143.983C278.224 136.736 273.324 129.222 265.854 124.854C258.384 120.486 247.664 120.377 242.134 126.978C235.364 120.665 228.454 114.262 220.074 110.302C211.694 106.341 201.434 105.19 193.234 109.508C184.234 114.262 179.494 124.715 178.894 134.821C178.294 144.926 181.174 154.872 184.014 164.6" fill="#F3BEDA"/>
</g>
</g>
<g style="mix-blend-mode:multiply">
<g style="mix-blend-mode:multiply">
<path d="M276.223 90.1344C267.893 84.9924 259.843 80.6446 257.073 71.2739C256.073 67.9385 255.543 64.3252 256.583 61.0097C257.623 57.6942 260.583 54.7758 264.103 54.6964C255.393 47.1621 254.523 32.3516 262.303 23.9239C270.083 15.4962 285.013 14.9105 293.383 22.8022C288.543 19.6058 281.573 20.4496 277.253 24.321C272.933 28.1924 271.343 34.595 272.753 40.2036C273.539 42.9897 274.898 45.5838 276.745 47.822C278.592 50.0603 280.886 51.894 283.483 53.2074C276.893 65.8837 276.613 75.9394 277.483 90.1741" fill="#F3BEDA"/>
</g>
</g>
<g style="mix-blend-mode:multiply">
<g style="mix-blend-mode:multiply">
<path d="M150.993 235.705C150.956 232.285 151.992 228.938 153.959 226.129C155.925 223.32 158.724 221.189 161.966 220.031C165.208 218.873 168.733 218.746 172.051 219.667C175.37 220.589 178.317 222.513 180.483 225.173C183.573 218.79 192.433 216.815 199.033 219.485C205.633 222.155 210.223 228.26 213.373 234.613C211.107 233.027 208.475 232.032 205.72 231.721C202.965 231.41 200.176 231.792 197.608 232.832C195.041 233.872 192.779 235.537 191.031 237.674C189.282 239.81 188.103 242.349 187.603 245.056C186.489 242.513 184.54 240.419 182.074 239.115C179.608 237.812 176.77 237.376 174.022 237.877C171.274 238.379 168.778 239.79 166.941 241.879C165.103 243.968 164.033 246.614 163.903 249.384C163.365 246.477 161.816 243.849 159.526 241.959C157.236 240.069 154.351 239.036 151.373 239.04" fill="#F3BEDA"/>
</g>
</g>
<g style="mix-blend-mode:multiply">
<g style="mix-blend-mode:multiply">
<path d="M9.4432 353.516C12.4133 348.143 16.6809 343.587 21.8629 340.255C27.0449 336.923 32.9792 334.921 39.1332 334.428C45.2968 334.056 51.4569 335.21 57.06 337.786C62.663 340.363 67.5333 344.281 71.2332 349.188C75.8832 345.327 80.6532 341.396 86.3132 339.262C91.9732 337.128 98.7932 336.969 103.733 340.453C109.293 344.364 111.203 351.958 110.103 358.629C109.003 365.299 105.403 371.275 101.743 376.983C108.683 373.012 118.233 376.119 122.973 382.532C127.713 388.944 128.273 397.66 126.343 405.363C124.413 413.066 154.153 428.135 150.063 434.974C149.113 433.982 19.7332 387.128 15.3032 386.493C9.8032 375.722 7.0732 375.812 4.5332 363.244" fill="#F3BEDA"/>
</g>
</g>
<path d="M58.115 263.605C57.115 263.814 55.215 258.582 54.735 251.247C53.8658 235.239 58.6704 219.435 68.315 206.577C72.795 200.72 77.255 197.375 78.025 198.139C78.795 198.904 75.665 203.182 72.225 209.158C64.6729 221.999 60.2869 236.431 59.425 251.276C58.995 258.116 59.275 263.397 58.115 263.605Z" fill="#FFD6E5"/>
<path d="M88.1049 193.658C87.5949 192.715 90.6049 190.244 95.4349 188.487C100.695 186.655 106.282 185.928 111.84 186.352C117.399 186.775 122.808 188.341 127.725 190.949C132.235 193.43 134.825 196.339 134.165 197.202C133.505 198.066 130.215 196.627 125.825 195.217C116.44 192.059 106.408 191.288 96.6449 192.974C92.0949 193.698 88.6349 194.701 88.1049 193.658Z" fill="#FFD6E5"/>
<path d="M179.994 114.529C179.474 114.4 179.174 113.477 179.324 112.018C179.58 110.075 180.23 108.204 181.234 106.518C182.511 104.315 184.154 102.341 186.094 100.681C188.018 99.0196 190.173 97.6421 192.494 96.5916C194.786 95.5749 197.193 94.8382 199.664 94.3978C202.088 93.9683 204.554 93.8151 207.014 93.9412C211.514 94.1893 214.694 95.3408 214.584 96.4427C214.474 97.5445 211.264 97.9416 207.244 98.6067C205.244 98.9343 203.024 99.3611 200.894 99.9269C198.868 100.465 196.889 101.162 194.974 102.012C193.108 102.861 191.33 103.889 189.664 105.079C187.993 106.293 186.452 107.674 185.064 109.198C182.494 112.008 181.164 114.787 179.994 114.529Z" fill="#FFD6E5"/>
<path d="M227.295 77.6131C227.045 77.7421 226.675 77.5436 226.185 77.0771C225.529 76.4086 224.964 75.6577 224.504 74.8436C222.908 72.1157 221.725 69.1688 220.994 66.0982C220.023 62.0807 219.65 57.9439 219.884 53.819C220.321 45.4782 223.225 37.4503 228.235 30.7396C230.703 27.4054 233.655 24.4517 236.994 21.9744C239.514 20.0538 242.308 18.518 245.284 17.4181C246.162 17.0842 247.08 16.864 248.015 16.7629C248.695 16.7034 249.104 16.7629 249.224 17.0607C249.694 18.1427 244.964 20.7336 240.034 25.5381C237.366 28.0895 234.985 30.9221 232.935 33.9856C228.853 40.0625 226.333 47.0389 225.595 54.3054C225.21 57.9659 225.227 61.6571 225.644 65.314C226.374 72.0939 228.355 77.0771 227.295 77.6131Z" fill="#FFD6E5"/>
<path d="M282.065 114.859C281.525 115.017 280.855 114.442 280.175 113.3C279.306 111.754 278.698 110.078 278.375 108.337C277.876 105.969 277.846 103.529 278.285 101.15C278.751 98.6213 279.817 96.2393 281.395 94.2012C282.199 93.1799 283.149 92.2803 284.215 91.531C285.329 90.7582 286.547 90.1466 287.835 89.7144C289.02 89.3279 290.238 89.0488 291.475 88.8806C292.065 88.8012 292.615 88.7416 293.175 88.7019C293.758 88.6723 294.342 88.6723 294.925 88.7019C296.027 88.717 297.122 88.8909 298.175 89.2181C299.093 89.4978 299.935 89.9835 300.635 90.6376C301.137 91.0746 301.487 91.6584 301.635 92.3052C301.635 92.7817 301.565 93.0696 301.325 93.2185C300.815 93.5064 300.115 93.1391 299.195 93.0597C297.894 92.9456 296.583 93.0463 295.315 93.3575C294.905 93.4468 294.475 93.556 294.035 93.6751L292.615 94.0821C291.696 94.3522 290.798 94.6839 289.925 95.0748C288.425 95.7095 287.111 96.7099 286.105 97.9833C285.068 99.3296 284.298 100.859 283.835 102.49C283.343 104.273 283.077 106.111 283.045 107.96C282.925 111.523 283.175 114.541 282.065 114.859Z" fill="#FFD6E5"/>
<path d="M286.995 80.2181C285.945 80.5357 284.425 78.2327 283.555 74.7981C282.687 71.0316 282.585 67.1311 283.255 63.325C283.924 59.5188 285.352 55.8835 287.455 52.632C289.455 49.654 291.675 48.0459 292.555 48.6614C293.435 49.2768 292.625 51.6394 291.665 54.6173C290.605 57.7715 289.77 60.9957 289.165 64.266C288.608 67.5479 288.291 70.8654 288.215 74.1926C288.135 77.389 288.145 79.8905 286.995 80.2181Z" fill="#FFD6E5"/>
<path d="M185.714 206.063C184.634 205.905 184.564 200.911 186.634 194.628C187.744 191.123 189.434 187.825 191.634 184.87C192.838 183.284 194.247 181.863 195.824 180.641C198.172 178.826 200.898 177.551 203.804 176.911C206.709 176.27 209.722 176.28 212.624 176.939C214.658 177.432 216.586 178.286 218.314 179.46C219.918 180.561 221.313 181.936 222.434 183.52C224.222 185.951 225.179 188.888 225.164 191.898C225.064 194.132 224.334 195.313 223.804 195.243C223.274 195.174 222.954 193.983 222.334 192.265C221.563 190.09 220.348 188.096 218.764 186.409C217.802 185.402 216.693 184.545 215.474 183.867C214.21 183.179 212.842 182.7 211.424 182.448C209.333 182.107 207.195 182.183 205.135 182.672C203.074 183.162 201.133 184.054 199.424 185.297C198.197 186.201 197.076 187.24 196.084 188.394C194.064 190.823 192.354 193.49 190.994 196.335C188.254 201.765 186.854 206.252 185.714 206.063Z" fill="#FFD6E5"/>
<path d="M222.474 200.456C222.322 200.471 222.168 200.447 222.027 200.389C221.885 200.33 221.761 200.237 221.664 200.119C221.337 199.759 221.1 199.327 220.974 198.858C220.556 197.327 220.584 195.709 221.054 194.193C221.65 192.133 222.774 190.261 224.317 188.761C225.859 187.262 227.767 186.185 229.854 185.636C231.955 185.145 234.149 185.201 236.222 185.799C238.295 186.397 240.176 187.517 241.684 189.051C242.818 190.17 243.612 191.584 243.974 193.131C244.093 193.603 244.093 194.097 243.974 194.57C243.94 194.719 243.872 194.859 243.775 194.978C243.678 195.096 243.555 195.191 243.414 195.255C242.864 195.453 242.264 195.066 241.504 194.53C240.618 193.842 239.682 193.218 238.704 192.664C237.554 192.004 236.3 191.541 234.994 191.294C233.791 191.082 232.556 191.112 231.364 191.383C230.182 191.707 229.074 192.256 228.104 193.002C227.053 193.839 226.151 194.846 225.434 195.98C224.84 196.934 224.316 197.929 223.864 198.958C223.394 199.752 223.054 200.377 222.474 200.456Z" fill="#FFD6E5"/>
<path d="M81.1344 275.232C80.8544 275.162 80.6844 274.845 80.5944 274.309C80.4932 273.569 80.5101 272.819 80.6444 272.085C81.0763 269.611 81.9681 267.237 83.2744 265.087C84.9529 262.241 87.1266 259.714 89.6944 257.622C92.2803 255.498 95.2216 253.842 98.3844 252.728C101.588 251.594 104.989 251.112 108.384 251.309C111.927 251.503 115.333 252.732 118.174 254.842C120.354 256.446 121.97 258.689 122.794 261.255C123.344 263.181 123.004 264.412 122.484 264.511C121.964 264.61 121.304 263.727 120.254 262.526C118.939 260.977 117.346 259.684 115.554 258.714C113.267 257.533 110.722 256.929 108.144 256.957C105.478 256.981 102.834 257.451 100.324 258.346C97.7633 259.243 95.3452 260.5 93.1444 262.079C90.9073 263.693 88.8905 265.588 87.1444 267.717C83.7844 271.698 82.2844 275.51 81.1344 275.232Z" fill="#FFD6E5"/>
<path d="M140.994 374.815C140.714 374.765 140.544 374.309 140.474 373.505C140.395 372.378 140.445 371.245 140.624 370.129C141.222 366.334 142.356 362.641 143.994 359.161C146.079 354.582 148.828 350.332 152.154 346.544C158.824 338.849 167.647 333.297 177.504 330.592C182.379 329.206 187.433 328.537 192.504 328.606C196.37 328.641 200.211 329.219 203.914 330.324C205.007 330.641 206.061 331.08 207.054 331.634C207.754 332.041 208.054 332.388 208.054 332.627C207.734 333.778 201.204 332.468 192.684 333.232C188.101 333.614 183.577 334.52 179.204 335.932C170.506 338.704 162.665 343.635 156.424 350.256C153.277 353.571 150.526 357.235 148.224 361.176C143.784 368.601 142.194 375.023 140.994 374.815Z" fill="#FFD6E5"/>
<path d="M241.205 337.156C240.435 336.392 241.705 334.019 244.355 331.706C247.269 329.261 250.665 327.446 254.325 326.376C257.986 325.306 261.831 325.005 265.615 325.492C269.105 326.018 271.465 327.319 271.235 328.401C271.005 329.483 268.555 329.741 265.535 330.158C262.317 330.564 259.135 331.211 256.015 332.093C252.909 333.022 249.88 334.187 246.955 335.578C244.185 336.848 241.995 337.97 241.205 337.156Z" fill="#FFD6E5"/>
</svg>
