<svg width="628" height="628" viewBox="0 0 628 628" fill="none" xmlns="http://www.w3.org/2000/svg">
<path d="M383.624 124.352C369.637 91.3439 331.298 70.6115 296.063 76.8835C285.689 78.7715 275.196 83 268.577 91.2307C261.959 99.4614 260.368 112.281 267.008 120.491C250.511 104.602 223.775 100.508 203.283 110.747C182.791 120.986 169.993 144.801 172.779 167.542C175.565 190.282 193.744 210.3 216.103 215.278C197.527 220.957 191.517 246.61 200.37 263.892C209.223 281.174 227.813 291.151 246.098 297.699C235.909 297.409 226.222 305.725 224.977 315.836C223.733 325.948 231.122 336.378 241.064 338.555C207.582 341.844 182.501 377.574 186.815 410.878C191.128 444.183 220.621 471.329 253.7 477.297C233.505 488.045 224.97 521.229 236.56 540.936C248.149 560.644 263.21 573.117 285.88 576.242C288.136 573.336 443.367 501.091 443.367 501.091C443.367 501.091 441.182 496.827 450.926 484.297C462.487 469.427 461.575 442.875 444.675 434.206C451.989 434.271 459.154 432.137 465.241 428.082C471.327 424.026 476.055 418.235 478.811 411.459C481.567 404.684 482.224 397.237 480.696 390.084C479.168 382.932 475.527 376.403 470.244 371.344C492.617 376.463 516.234 362.01 527.103 341.78C537.971 321.55 538.119 297.133 533.742 274.598C521.488 211.517 473.539 156.61 412.693 135.998" fill="#F3BEDA"/>
<path d="M443.735 501.47C443.702 501.517 443.661 501.558 443.615 501.591C390.334 526.389 288.971 573.928 286.312 576.586C286.26 576.655 286.19 576.708 286.111 576.74C286.031 576.772 285.944 576.783 285.859 576.77C264.462 573.843 248.694 562.515 236.15 541.203C230.45 531.515 229.263 517.882 232.996 504.758C236.411 492.617 243.412 482.774 252.286 477.549C218.055 470.768 190.464 442.993 186.341 410.968C184.135 393.955 189.643 375.266 201.07 360.94C211.111 348.353 224.32 340.434 238.575 338.355C229.602 335.109 223.316 325.33 224.475 315.77C225.635 306.21 234.099 298.297 243.553 297.286C221.392 288.985 207.109 278.124 199.932 264.116C197.413 259.002 196.017 253.409 195.837 247.711C195.656 242.013 196.696 236.343 198.885 231.08C202.096 223.5 207.526 217.984 214.3 215.382C192.55 209.768 175.006 189.947 172.263 167.617C169.477 144.693 182.417 120.594 203.057 110.292C222.573 100.548 247.81 103.723 264.547 117.617C260.474 109.712 261.789 98.8791 268.196 90.9171C275.62 81.6823 287.401 77.9205 295.971 76.3931C331.355 70.0857 370.048 91.0727 384.091 124.151C384.142 124.275 384.143 124.414 384.093 124.539C384.043 124.663 383.945 124.763 383.822 124.816C383.7 124.866 383.563 124.866 383.441 124.815C383.32 124.765 383.223 124.669 383.171 124.547C369.312 91.8646 331.1 71.1464 296.148 77.376C287.747 78.8751 276.214 82.545 268.967 91.5464C262.878 99.0488 260.665 111.855 267.404 120.177C267.445 120.225 267.476 120.281 267.495 120.342C267.515 120.402 267.522 120.465 267.517 120.528C267.512 120.591 267.494 120.653 267.465 120.709C267.436 120.765 267.396 120.815 267.347 120.856C267.254 120.943 267.13 120.99 267.003 120.989C266.875 120.987 266.753 120.937 266.661 120.849C250.348 105.13 223.782 101.064 203.51 111.183C183.237 121.301 170.516 144.982 173.281 167.476C176.046 189.969 194.091 209.867 216.216 214.795C216.324 214.82 216.421 214.878 216.492 214.962C216.564 215.047 216.606 215.152 216.612 215.262C216.617 215.374 216.584 215.484 216.519 215.575C216.454 215.666 216.359 215.733 216.252 215.764C209.018 217.977 203.177 223.549 199.84 231.455C197.699 236.585 196.68 242.113 196.851 247.67C197.022 253.226 198.378 258.681 200.83 263.67C208.134 277.933 222.998 288.907 246.276 297.223C246.386 297.266 246.479 297.345 246.538 297.448C246.597 297.551 246.619 297.671 246.601 297.788C246.579 297.906 246.516 298.013 246.423 298.088C246.329 298.163 246.212 298.203 246.092 298.198C236.143 297.908 226.696 306.012 225.48 315.897C224.263 325.783 231.412 335.972 241.177 338.072C241.293 338.101 241.396 338.168 241.468 338.263C241.54 338.359 241.577 338.476 241.573 338.595C241.562 338.714 241.51 338.824 241.426 338.908C241.342 338.992 241.232 339.044 241.114 339.055C226.201 340.505 212.257 348.495 201.848 361.562C190.577 375.662 185.16 394.089 187.31 410.819C191.432 442.844 219.42 470.633 253.792 476.806C253.895 476.824 253.989 476.873 254.063 476.946C254.136 477.02 254.185 477.114 254.202 477.217C254.216 477.319 254.198 477.423 254.152 477.515C254.105 477.608 254.031 477.683 253.941 477.733C244.748 482.683 237.451 492.568 233.937 505.006C230.295 517.896 231.448 531.24 236.991 540.715C249.323 561.673 264.83 572.796 285.739 575.759C292.676 570.774 425.407 508.952 442.766 500.855C442.448 499.377 442.406 494.484 450.537 484.019C457.029 475.675 459.673 463.315 457.262 452.56C455.438 444.357 450.87 438.036 444.407 434.727C444.305 434.679 444.222 434.597 444.174 434.495C444.127 434.393 444.116 434.277 444.145 434.168C444.172 434.058 444.234 433.961 444.323 433.89C444.411 433.82 444.52 433.781 444.633 433.779C451.845 433.842 458.91 431.738 464.912 427.738C470.914 423.739 475.576 418.028 478.295 411.348C481.013 404.667 481.662 397.324 480.157 390.27C478.652 383.216 475.063 376.777 469.856 371.787C469.775 371.713 469.722 371.615 469.704 371.507C469.686 371.399 469.705 371.289 469.757 371.193C469.807 371.095 469.888 371.016 469.988 370.97C470.088 370.924 470.201 370.913 470.308 370.938C490.906 375.655 515.11 363.047 526.615 341.629C535.998 324.142 538.304 300.991 533.212 274.772C527.209 243.907 512.629 214.519 491.026 189.792C469.424 165.064 442.236 146.658 412.495 136.547C412.432 136.527 412.374 136.495 412.324 136.453C412.273 136.411 412.232 136.358 412.202 136.3C412.173 136.241 412.155 136.177 412.151 136.111C412.146 136.045 412.155 135.98 412.177 135.917C412.198 135.855 412.232 135.798 412.275 135.748C412.319 135.699 412.371 135.659 412.431 135.63C412.49 135.601 412.554 135.584 412.62 135.58C412.685 135.576 412.751 135.585 412.813 135.606C442.759 145.753 470.068 164.265 491.783 189.12C513.498 213.975 528.171 243.539 534.202 274.574C539.343 301.027 537.024 324.375 527.499 342.089C516.086 363.33 492.37 376.044 471.722 372.24C476.618 377.387 479.929 383.834 481.259 390.812C482.589 397.789 481.882 405.003 479.223 411.59C476.564 418.177 472.065 423.859 466.264 427.958C460.462 432.057 453.604 434.399 446.507 434.705C452.383 438.333 456.52 444.492 458.259 452.298C460.72 463.357 457.983 476.064 451.365 484.648C442.088 496.584 443.834 500.876 443.855 500.912C443.891 501.007 443.898 501.11 443.877 501.209C443.856 501.308 443.806 501.398 443.735 501.47Z" fill="#000207"/>
<path d="M260.41 177.943C243.325 165.09 231.478 146.48 227.063 125.561C223.23 107.035 226.023 86.3376 238.341 71.9409C250.659 57.5442 273.484 51.8308 289.387 62.0768" fill="#F3BEDA"/>
<path d="M260.763 178.298C260.677 178.382 260.565 178.432 260.446 178.44C260.326 178.448 260.208 178.412 260.112 178.34C242.922 165.407 230.998 146.686 226.546 125.64C222.325 105.127 226.581 84.9316 237.959 71.6168C251.111 56.216 274.304 51.7613 289.655 61.6537C289.711 61.6888 289.76 61.7346 289.798 61.7885C289.836 61.8424 289.863 61.9033 289.878 61.9677C289.892 62.0322 289.894 62.0988 289.882 62.1639C289.871 62.2289 289.846 62.291 289.811 62.3467C289.737 62.4583 289.622 62.5365 289.491 62.5643C289.36 62.5921 289.224 62.5672 289.111 62.4951C274.163 52.8643 251.556 57.2555 238.722 72.2674C227.543 85.3418 223.364 105.233 227.585 125.435C231.986 146.229 243.763 164.727 260.742 177.513C260.847 177.595 260.917 177.714 260.936 177.846C260.954 177.979 260.92 178.113 260.841 178.22L260.763 178.298Z" fill="#000207"/>
<path d="M264.61 323C259.129 320.223 254.67 315.78 251.872 310.309C249.074 304.838 248.083 298.622 249.04 292.552C251.197 280.496 262.058 270.568 274.255 269.472" fill="#F3BEDA"/>
<path d="M264.964 323.353C264.891 323.424 264.798 323.472 264.697 323.49C264.596 323.507 264.492 323.494 264.399 323.452C258.817 320.63 254.275 316.109 251.426 310.541C248.577 304.973 247.568 298.644 248.545 292.466C250.759 280.198 261.796 270.094 274.206 268.969C274.338 268.957 274.47 268.998 274.572 269.083C274.674 269.168 274.738 269.29 274.751 269.422C274.757 269.487 274.75 269.553 274.73 269.616C274.711 269.679 274.679 269.737 274.637 269.788C274.552 269.89 274.43 269.954 274.298 269.966C268.272 270.534 262.598 273.06 258.142 277.157C253.687 281.254 250.696 286.697 249.625 292.654C248.555 298.612 249.465 304.756 252.216 310.147C254.966 315.539 259.407 319.881 264.858 322.511C264.978 322.568 265.071 322.669 265.116 322.794C265.161 322.919 265.155 323.056 265.099 323.176C265.067 323.244 265.022 323.305 264.964 323.353Z" fill="#000207"/>
<path d="M253.89 501.187C249.421 482.817 258.317 462.056 274.686 452.545C291.056 443.035 313.422 445.686 327.161 458.676" fill="#F3BEDA"/>
<path d="M327.514 459.033C327.422 459.124 327.299 459.177 327.17 459.18C327.041 459.182 326.916 459.135 326.821 459.047C313.308 446.27 290.984 443.675 274.891 452.994C258.797 462.314 249.986 482.99 254.363 501.056C254.379 501.12 254.382 501.187 254.372 501.252C254.362 501.317 254.34 501.38 254.305 501.437C254.271 501.493 254.226 501.542 254.173 501.581C254.12 501.62 254.06 501.649 253.996 501.664C253.932 501.68 253.865 501.683 253.8 501.673C253.735 501.663 253.672 501.641 253.615 501.607C253.559 501.572 253.51 501.528 253.471 501.474C253.432 501.421 253.403 501.361 253.388 501.297C248.905 482.813 257.934 461.678 274.389 452.125C290.843 442.572 313.676 445.237 327.492 458.305C327.54 458.349 327.579 458.402 327.606 458.462C327.633 458.521 327.648 458.585 327.65 458.65C327.652 458.715 327.641 458.78 327.618 458.841C327.594 458.902 327.559 458.958 327.514 459.005L327.514 459.033Z" fill="#000207"/>
<path d="M372.854 499.804C349.322 480.146 343.439 442.486 359.837 416.585C376.234 390.683 412.806 379.907 440.652 392.748" fill="#F3BEDA"/>
<path d="M373.208 500.154C373.119 500.243 373 500.296 372.874 500.301C372.748 500.306 372.625 500.264 372.529 500.182C361.06 490.594 353.373 476.543 350.877 460.612C348.381 444.681 351.429 428.948 359.412 416.312C367.395 403.676 380.335 394.215 395.807 389.661C411.278 385.107 427.273 386.041 440.864 392.292C440.98 392.35 441.069 392.452 441.111 392.575C441.154 392.698 441.147 392.832 441.092 392.95C441.036 393.068 440.937 393.16 440.816 393.206C440.694 393.252 440.559 393.249 440.439 393.197C427.089 387.031 411.349 386.097 396.111 390.602C380.873 395.106 368.159 404.411 360.282 416.828C352.405 429.245 349.428 444.738 351.888 460.435C354.349 476.133 361.929 489.993 373.194 499.39C373.244 499.433 373.285 499.485 373.315 499.543C373.346 499.602 373.364 499.666 373.369 499.732C373.374 499.797 373.366 499.864 373.346 499.926C373.326 499.989 373.293 500.047 373.25 500.097L373.208 500.154Z" fill="#000207"/>
<path d="M303.89 421.917C321.914 418.36 336.735 402.281 338.807 384.03C340.879 365.78 330.053 346.78 313.28 339.271" fill="#F3BEDA"/>
<path d="M326.418 410.223C320.305 416.424 312.489 420.671 303.96 422.428C303.831 422.453 303.697 422.427 303.587 422.354C303.477 422.281 303.4 422.168 303.374 422.039C303.349 421.908 303.376 421.772 303.45 421.661C303.524 421.55 303.639 421.472 303.77 421.445C321.702 417.909 336.219 402.162 338.291 383.997C340.362 365.831 329.805 347.227 313.061 339.746C313 339.719 312.946 339.681 312.9 339.633C312.854 339.585 312.818 339.528 312.795 339.467C312.771 339.405 312.76 339.339 312.762 339.273C312.764 339.207 312.779 339.141 312.806 339.081C312.861 338.962 312.961 338.869 313.084 338.822C313.208 338.776 313.344 338.78 313.464 338.834C330.541 346.477 341.395 365.52 339.28 384.11C338.048 394.012 333.517 403.21 326.418 410.223Z" fill="#000207"/>
<path d="M403.104 386.938C401.905 379.105 402.535 371.102 404.945 363.554C407.355 356.006 411.479 349.118 416.995 343.43C422.51 337.742 429.268 333.407 436.738 330.766C444.208 328.125 452.189 327.248 460.054 328.205" fill="#F3BEDA"/>
<path d="M403.457 387.286C403.384 387.362 403.286 387.41 403.181 387.421C403.116 387.431 403.05 387.428 402.986 387.413C402.922 387.398 402.862 387.37 402.808 387.331C402.755 387.292 402.71 387.243 402.676 387.187C402.642 387.131 402.619 387.069 402.609 387.003C401.404 379.099 402.043 371.024 404.478 363.408C406.912 355.792 411.075 348.842 416.641 343.102C422.207 337.362 429.025 332.988 436.562 330.32C444.1 327.653 452.152 326.765 460.089 327.727C460.212 327.751 460.321 327.821 460.395 327.923C460.469 328.024 460.502 328.149 460.487 328.274C460.473 328.398 460.413 328.513 460.318 328.595C460.223 328.677 460.101 328.72 459.976 328.717C452.188 327.769 444.286 328.636 436.889 331.251C429.492 333.866 422.8 338.157 417.338 343.789C411.876 349.421 407.791 356.241 405.404 363.715C403.017 371.189 402.391 379.114 403.577 386.869C403.591 386.943 403.587 387.019 403.566 387.092C403.545 387.164 403.508 387.231 403.457 387.286Z" fill="#000207"/>
<path d="M337.717 370.186C348.571 363.772 358.478 355.421 365.344 344.85C372.21 334.279 375.837 321.332 373.956 308.873C372.075 296.413 364.248 284.64 352.8 279.372" fill="#F3BEDA"/>
<path d="M356.498 356.481C350.939 361.952 344.712 366.701 337.965 370.616C337.907 370.651 337.843 370.674 337.776 370.684C337.709 370.694 337.64 370.69 337.575 370.674C337.509 370.658 337.447 370.628 337.393 370.588C337.339 370.548 337.293 370.497 337.258 370.439C337.223 370.381 337.2 370.317 337.19 370.25C337.18 370.183 337.183 370.115 337.2 370.049C337.216 369.983 337.245 369.922 337.286 369.867C337.326 369.813 337.377 369.767 337.435 369.732C349.399 362.675 358.648 354.176 364.899 344.559C372.076 333.493 375.187 320.51 373.441 308.921C371.489 295.995 363.492 284.83 352.574 279.809C352.454 279.75 352.362 279.648 352.316 279.523C352.27 279.398 352.274 279.26 352.326 279.138C352.383 279.018 352.484 278.925 352.609 278.88C352.734 278.835 352.871 278.841 352.991 278.897C364.213 284.066 372.429 295.507 374.409 308.801C376.198 320.616 373.023 333.861 365.719 345.125C363.051 349.222 359.96 353.028 356.498 356.481Z" fill="#000207"/>
<path d="M260.558 274.185C255.389 262.454 259.745 247.308 270.344 240.131C276.249 236.135 283.426 234.573 290.405 233.095" fill="#F3BEDA"/>
<path d="M260.912 274.539C260.877 274.588 260.834 274.631 260.785 274.666C260.725 274.693 260.659 274.709 260.593 274.711C260.527 274.713 260.461 274.701 260.399 274.678C260.337 274.654 260.281 274.618 260.233 274.573C260.185 274.527 260.147 274.472 260.12 274.412C254.895 262.553 259.371 246.99 270.104 239.721C276.179 235.613 283.695 234.022 290.335 232.614C290.401 232.594 290.471 232.588 290.541 232.597C290.61 232.605 290.676 232.628 290.736 232.664C290.796 232.7 290.847 232.747 290.887 232.804C290.928 232.861 290.955 232.926 290.969 232.994C290.983 233.062 290.983 233.132 290.968 233.2C290.953 233.268 290.924 233.332 290.883 233.388C290.842 233.445 290.789 233.492 290.729 233.526C290.669 233.561 290.602 233.583 290.533 233.59C283.999 234.976 276.546 236.574 270.642 240.569C260.297 247.577 255.976 262.589 261.011 274.03C261.045 274.115 261.054 274.209 261.036 274.299C261.019 274.389 260.976 274.472 260.912 274.539Z" fill="#000207"/>
<path d="M277.742 197.619C272.279 195.186 267.595 191.29 264.208 186.361C260.976 181.362 259.59 175.026 261.238 169.32C262.885 163.614 267.814 158.77 273.711 157.978" fill="#F3BEDA"/>
<path d="M278.087 197.981C278.014 198.053 277.921 198.102 277.819 198.119C277.718 198.137 277.614 198.123 277.521 198.08C271.978 195.596 267.225 191.635 263.782 186.632C262.08 184.098 260.931 181.235 260.41 178.228C259.889 175.221 260.006 172.138 260.755 169.18C262.516 163.078 267.812 158.262 273.639 157.485C273.771 157.467 273.905 157.502 274.011 157.583C274.117 157.664 274.187 157.784 274.205 157.916C274.222 158.048 274.187 158.182 274.106 158.288C274.025 158.394 273.906 158.464 273.773 158.482C268.322 159.21 263.365 163.728 261.71 169.456C260.197 174.717 261.293 180.932 264.623 186.087C267.959 190.94 272.572 194.775 277.952 197.167C278.071 197.227 278.162 197.331 278.205 197.456C278.249 197.581 278.242 197.719 278.186 197.839C278.162 197.892 278.128 197.94 278.087 197.981Z" fill="#000207"/>
<path d="M226.207 226.766C223.933 224.897 222.126 222.524 220.929 219.835C219.733 217.147 219.179 214.216 219.312 211.276C219.445 208.336 220.261 205.467 221.697 202.898C223.132 200.328 225.146 198.129 227.579 196.473" fill="#F3BEDA"/>
<path d="M226.54 227.101C226.45 227.187 226.331 227.236 226.206 227.242C226.082 227.247 225.959 227.207 225.862 227.13C223.524 225.211 221.666 222.774 220.436 220.012C219.205 217.25 218.636 214.239 218.774 211.219C218.911 208.198 219.751 205.251 221.227 202.612C222.703 199.973 224.774 197.715 227.276 196.017C227.387 195.941 227.525 195.912 227.657 195.938C227.79 195.963 227.907 196.04 227.983 196.151C228.059 196.263 228.087 196.4 228.062 196.533C228.037 196.665 227.96 196.782 227.849 196.858C225.478 198.469 223.515 200.61 222.116 203.112C220.718 205.613 219.922 208.407 219.792 211.27C219.662 214.133 220.202 216.988 221.369 219.606C222.535 222.224 224.296 224.534 226.512 226.352C226.563 226.393 226.605 226.444 226.636 226.502C226.667 226.56 226.686 226.623 226.692 226.688C226.698 226.754 226.691 226.819 226.671 226.882C226.651 226.944 226.619 227.002 226.576 227.052L226.54 227.101Z" fill="#000207"/>
<path d="M238.646 352.681C237.595 350.383 237.271 347.82 237.716 345.333C238.162 342.846 239.355 340.555 241.138 338.764C242.92 336.974 245.207 335.771 247.692 335.315C250.177 334.859 252.741 335.172 255.043 336.212" fill="#F3BEDA"/>
<path d="M238.998 353.035L238.871 353.162C238.81 353.19 238.745 353.205 238.679 353.207C238.613 353.209 238.547 353.198 238.485 353.174C238.423 353.15 238.367 353.114 238.319 353.069C238.271 353.023 238.233 352.968 238.206 352.908C237.167 350.507 236.86 347.854 237.321 345.279C237.783 342.705 238.993 340.323 240.801 338.433C242.686 336.625 245.061 335.41 247.631 334.94C250.2 334.47 252.851 334.765 255.254 335.789C255.375 335.844 255.469 335.945 255.517 336.069C255.564 336.193 255.562 336.331 255.509 336.453C255.451 336.572 255.351 336.665 255.227 336.712C255.104 336.759 254.967 336.758 254.844 336.708C252.628 335.76 250.182 335.485 247.81 335.917C245.439 336.35 243.247 337.471 241.508 339.14C239.842 340.884 238.726 343.081 238.301 345.455C237.876 347.83 238.16 350.277 239.118 352.49C239.152 352.583 239.159 352.684 239.137 352.78C239.116 352.877 239.068 352.965 238.998 353.035Z" fill="#000207"/>
<path d="M374.395 310.325C379.778 310.397 385.092 309.111 389.845 306.584C394.598 304.058 398.637 300.373 401.588 295.871C404.539 291.369 406.307 286.195 406.728 280.829C407.148 275.462 406.208 270.076 403.995 265.169" fill="#F3BEDA"/>
<path d="M398.034 301.085C394.929 304.188 391.242 306.646 387.184 308.319C383.126 309.991 378.777 310.844 374.388 310.829C374.322 310.83 374.257 310.817 374.196 310.792C374.135 310.767 374.079 310.73 374.033 310.683C373.986 310.636 373.949 310.581 373.924 310.52C373.899 310.459 373.886 310.393 373.886 310.327C373.888 310.195 373.942 310.068 374.035 309.975C374.129 309.881 374.256 309.827 374.388 309.825C379.686 309.905 384.917 308.645 389.598 306.163C394.278 303.68 398.255 300.056 401.161 295.626C404.066 291.195 405.805 286.103 406.217 280.821C406.628 275.539 405.698 270.239 403.514 265.412C403.459 265.29 403.454 265.151 403.5 265.025C403.546 264.9 403.64 264.797 403.761 264.74C403.884 264.69 404.021 264.689 404.144 264.736C404.268 264.783 404.368 264.876 404.426 264.995C406.622 269.992 407.55 275.454 407.128 280.897C406.706 286.339 404.948 291.593 402.008 296.192C400.852 297.954 399.521 299.593 398.034 301.085Z" fill="#000207"/>
<path d="M333.278 354.781C335.036 352.903 336.29 350.61 336.925 348.116C337.56 345.623 337.555 343.009 336.909 340.518C336.264 338.027 334.999 335.74 333.233 333.868C331.467 331.997 329.257 330.602 326.808 329.814" fill="#F3BEDA"/>
<path d="M333.63 355.136C333.536 355.229 333.409 355.282 333.276 355.282C333.144 355.282 333.017 355.229 332.923 355.136C332.829 355.042 332.776 354.915 332.776 354.782C332.776 354.65 332.829 354.522 332.923 354.429C334.623 352.611 335.836 350.394 336.45 347.982C337.063 345.571 337.058 343.043 336.433 340.634C335.809 338.225 334.586 336.013 332.879 334.203C331.171 332.393 329.033 331.044 326.665 330.281C326.538 330.241 326.433 330.152 326.372 330.034C326.311 329.916 326.299 329.778 326.34 329.652C326.38 329.525 326.469 329.42 326.587 329.359C326.705 329.298 326.842 329.286 326.969 329.326C329.506 330.135 331.796 331.572 333.628 333.505C335.459 335.438 336.771 337.803 337.442 340.379C338.112 342.956 338.12 345.661 337.463 348.241C336.806 350.821 335.507 353.193 333.686 355.136L333.63 355.136Z" fill="#000207"/>
<path d="M354.307 423.996C352.142 421.455 350.695 418.382 350.118 415.094C349.54 411.807 349.852 408.424 351.021 405.298C352.19 402.171 354.174 399.414 356.767 397.312C359.36 395.21 362.468 393.84 365.769 393.343" fill="#F3BEDA"/>
<path d="M354.661 424.347C354.559 424.431 354.428 424.472 354.296 424.462C354.164 424.451 354.041 424.39 353.954 424.29C351.73 421.681 350.245 418.525 349.652 415.149C349.059 411.773 349.38 408.3 350.58 405.09C351.781 401.879 353.819 399.048 356.482 396.89C359.146 394.732 362.337 393.326 365.727 392.817C365.792 392.808 365.858 392.811 365.922 392.827C365.985 392.844 366.045 392.872 366.098 392.912C366.15 392.951 366.195 393.001 366.228 393.057C366.261 393.114 366.283 393.176 366.293 393.241C366.304 393.305 366.302 393.371 366.287 393.435C366.271 393.498 366.243 393.558 366.204 393.61C366.165 393.662 366.116 393.706 366.059 393.739C366.003 393.771 365.94 393.792 365.876 393.8C362.662 394.283 359.635 395.618 357.11 397.664C354.585 399.711 352.653 402.395 351.515 405.439C350.376 408.484 350.072 411.777 350.634 414.978C351.195 418.179 352.603 421.172 354.71 423.647C354.796 423.746 354.838 423.876 354.829 424.007C354.82 424.138 354.759 424.26 354.661 424.347Z" fill="#000207"/>
<path d="M254.223 478.232C251.894 476.677 250.116 474.426 249.141 471.8C248.167 469.175 248.046 466.308 248.796 463.61C249.546 460.912 251.128 458.519 253.318 456.773C255.508 455.027 258.193 454.017 260.99 453.886" fill="#F3BEDA"/>
<path d="M254.576 478.583C254.492 478.664 254.383 478.713 254.268 478.724C254.152 478.734 254.036 478.704 253.94 478.64C251.531 477.024 249.692 474.69 248.685 471.969C247.678 469.249 247.555 466.28 248.331 463.485C249.108 460.69 250.746 458.211 253.012 456.4C255.278 454.589 258.057 453.538 260.954 453.396C261.019 453.395 261.084 453.408 261.144 453.432C261.205 453.457 261.259 453.494 261.306 453.54C261.352 453.586 261.388 453.641 261.413 453.701C261.437 453.761 261.45 453.826 261.449 453.891C261.449 453.957 261.436 454.023 261.411 454.084C261.386 454.145 261.349 454.2 261.303 454.247C261.256 454.293 261.2 454.33 261.139 454.355C261.078 454.381 261.013 454.393 260.947 454.393C258.253 454.521 255.668 455.496 253.561 457.18C251.454 458.864 249.933 461.171 249.214 463.771C248.496 466.371 248.618 469.131 249.561 471.658C250.505 474.184 252.223 476.348 254.47 477.841C254.525 477.877 254.572 477.924 254.609 477.978C254.645 478.033 254.671 478.094 254.684 478.158C254.697 478.222 254.698 478.289 254.685 478.353C254.673 478.418 254.648 478.479 254.611 478.534L254.576 478.583Z" fill="#000207"/>
<path d="M237.062 151.526C234.139 152.058 231.134 151.921 228.272 151.126C225.41 150.33 222.765 148.897 220.536 146.934C218.307 144.97 216.552 142.527 215.402 139.788C214.252 137.049 213.737 134.085 213.897 131.119" fill="#F3BEDA"/>
<path d="M237.38 151.845C237.306 151.917 237.213 151.967 237.111 151.986C234.115 152.501 231.041 152.345 228.112 151.531C225.183 150.717 222.47 149.264 220.169 147.277C217.909 145.238 216.129 142.725 214.956 139.916C213.784 137.108 213.248 134.075 213.388 131.034C213.387 130.968 213.4 130.903 213.425 130.842C213.45 130.781 213.487 130.725 213.534 130.679C213.581 130.632 213.636 130.595 213.697 130.57C213.758 130.545 213.824 130.532 213.89 130.532C213.956 130.532 214.021 130.545 214.082 130.57C214.143 130.595 214.199 130.632 214.245 130.679C214.292 130.725 214.329 130.781 214.354 130.842C214.379 130.903 214.392 130.968 214.392 131.034C214.252 133.934 214.758 136.829 215.874 139.509C216.989 142.19 218.685 144.589 220.841 146.534C223.028 148.422 225.606 149.802 228.389 150.576C231.173 151.35 234.094 151.498 236.941 151.01C237.046 150.992 237.153 151.007 237.248 151.053C237.343 151.099 237.421 151.175 237.471 151.268C237.52 151.362 237.539 151.469 237.524 151.574C237.509 151.679 237.461 151.776 237.387 151.852L237.38 151.845Z" fill="#000207"/>
<path d="M346.125 256.929C352.842 252.333 358.831 246.401 362.615 239.167C366.398 231.933 367.805 223.299 365.535 215.458C363.265 207.616 357.064 200.806 349.179 198.735" fill="#F3BEDA"/>
<path d="M354.9 250.346C352.292 252.934 349.449 255.275 346.408 257.339C346.299 257.414 346.165 257.442 346.035 257.418C345.906 257.394 345.79 257.32 345.715 257.212C345.642 257.101 345.615 256.965 345.64 256.834C345.665 256.704 345.74 256.588 345.849 256.512C353.232 251.449 358.726 245.53 362.191 238.912C366.122 231.36 367.183 222.861 365.076 215.577C362.749 207.594 356.484 201.145 349.067 199.201C349.003 199.185 348.943 199.156 348.891 199.117C348.838 199.078 348.794 199.028 348.761 198.971C348.728 198.915 348.707 198.852 348.699 198.787C348.691 198.722 348.696 198.656 348.713 198.593C348.748 198.464 348.832 198.354 348.947 198.287C349.062 198.22 349.199 198.2 349.328 198.232C357.043 200.29 363.633 206.965 366.044 215.302C368.208 222.825 367.126 231.6 363.075 239.371C360.927 243.426 358.17 247.127 354.9 250.346Z" fill="#000207"/>
<path d="M332.359 221.013C339.352 216.283 343.185 207.472 342.414 199.065C341.936 194.859 340.506 190.817 338.234 187.245C335.961 183.674 332.905 180.667 329.297 178.453C321.959 174.081 313.212 172.725 304.895 174.669" fill="#F3BEDA"/>
<path d="M335.794 218.821C334.826 219.79 333.768 220.664 332.633 221.431C332.522 221.507 332.385 221.535 332.252 221.51C332.119 221.485 332.002 221.408 331.926 221.296C331.85 221.185 331.822 221.048 331.847 220.915C331.872 220.782 331.949 220.665 332.061 220.589C338.714 216.085 342.667 207.451 341.896 199.1C341.431 194.972 340.034 191.003 337.812 187.493C335.591 183.983 332.601 181.022 329.07 178.835C321.846 174.518 313.224 173.187 305.035 175.122C304.969 175.14 304.901 175.145 304.834 175.135C304.767 175.126 304.702 175.103 304.644 175.068C304.586 175.032 304.536 174.986 304.496 174.931C304.457 174.875 304.429 174.813 304.414 174.746C304.4 174.68 304.399 174.611 304.412 174.545C304.425 174.478 304.452 174.415 304.49 174.359C304.528 174.302 304.577 174.255 304.634 174.218C304.692 174.182 304.756 174.157 304.823 174.146C313.264 172.152 322.151 173.53 329.593 177.986C333.261 180.249 336.369 183.315 338.681 186.953C340.994 190.59 342.451 194.705 342.943 198.987C343.25 202.613 342.77 206.262 341.536 209.685C340.302 213.109 338.343 216.225 335.794 218.821Z" fill="#000207"/>
<path d="M280.365 559.158C275.217 552.525 273.654 543.439 275.471 535.272C277.503 527.049 282.249 519.751 288.942 514.56C293.948 510.572 300.029 507.645 306.429 507.511C312.828 507.376 319.482 510.41 322.614 515.989" fill="#F3BEDA"/>
<path d="M280.718 559.508L280.676 559.55C280.624 559.591 280.565 559.622 280.502 559.639C280.438 559.657 280.372 559.662 280.306 559.653C280.241 559.645 280.178 559.623 280.121 559.589C280.064 559.556 280.015 559.511 279.976 559.458C274.878 552.946 273.046 543.845 274.991 535.169C277.034 526.831 281.845 519.432 288.638 514.182C292.626 511 298.94 507.175 306.429 507.012C313.464 506.864 319.998 510.286 323.06 515.738C323.094 515.797 323.116 515.862 323.124 515.929C323.133 515.997 323.129 516.065 323.111 516.131C323.093 516.197 323.063 516.258 323.021 516.312C322.98 516.366 322.928 516.411 322.869 516.445C322.81 516.479 322.745 516.501 322.677 516.51C322.61 516.518 322.541 516.514 322.476 516.496C322.41 516.478 322.349 516.448 322.295 516.406C322.241 516.365 322.196 516.313 322.162 516.254C319.284 511.113 313.104 507.889 306.429 508.03C299.209 508.179 293.1 511.898 289.239 514.981C282.622 520.087 277.937 527.291 275.952 535.41C274.992 539.436 274.925 543.625 275.755 547.68C276.586 551.736 278.294 555.561 280.761 558.886C280.823 558.979 280.853 559.091 280.846 559.204C280.838 559.316 280.793 559.423 280.718 559.508Z" fill="#000207"/>
<path d="M353.911 470.637C350.333 469.203 346.415 468.843 342.636 469.603C338.857 470.362 335.382 472.208 332.637 474.913C329.891 477.618 327.994 481.065 327.179 484.832C326.363 488.599 326.664 492.522 328.045 496.121" fill="#F3BEDA"/>
<path d="M354.265 470.99C354.195 471.06 354.106 471.107 354.009 471.126C353.912 471.145 353.812 471.135 353.72 471.096C350.223 469.764 346.419 469.447 342.749 470.184C339.079 470.921 335.693 472.681 332.981 475.261L332.868 475.374C330.28 478.049 328.498 481.398 327.724 485.038C326.95 488.678 327.216 492.462 328.491 495.958C328.535 496.082 328.529 496.218 328.475 496.338C328.421 496.458 328.323 496.553 328.201 496.602C328.14 496.626 328.074 496.638 328.008 496.637C327.942 496.636 327.877 496.622 327.817 496.596C327.756 496.569 327.702 496.531 327.656 496.484C327.61 496.436 327.574 496.38 327.55 496.319C326.211 492.641 325.933 488.66 326.748 484.832C327.564 481.003 329.439 477.481 332.161 474.667L332.26 474.568C335.112 471.855 338.674 470.003 342.535 469.229C346.395 468.454 350.395 468.788 354.074 470.191C354.136 470.216 354.192 470.253 354.239 470.299C354.286 470.346 354.324 470.401 354.35 470.462C354.375 470.524 354.389 470.589 354.389 470.656C354.389 470.722 354.375 470.788 354.35 470.849C354.331 470.901 354.302 470.949 354.265 470.99Z" fill="#000207"/>
<g style="mix-blend-mode:multiply">
<g style="mix-blend-mode:multiply">
<path d="M370.308 497.5C384.426 490.461 396.801 480.371 406.538 467.961C416.276 455.55 423.131 441.129 426.608 425.742C428.284 418.07 429.062 409.91 426.537 402.479C424.013 395.047 417.5 388.534 409.666 388.011C424.183 383.464 437.724 373.784 443.748 359.868C449.773 345.952 446.697 327.575 434.372 318.658C422.047 309.742 401.407 314.302 396.252 328.621C395.757 322.356 386.975 319.754 381.516 322.865C376.057 325.977 373.398 332.284 371.362 338.238C369.325 344.192 367.303 350.57 362.424 354.53C371.604 342.145 375.732 326.733 373.971 311.417C379.223 312.525 384.695 311.841 389.513 309.473C394.33 307.105 398.215 303.19 400.545 298.355C402.876 293.519 403.518 288.042 402.369 282.798C401.221 277.555 398.347 272.848 394.208 269.429C382.569 259.671 364.8 263.002 351.287 269.924C354.632 265.335 351.131 257.649 345.475 257.154C353.833 253.039 358.195 242.312 355.19 233.508C352.185 224.705 342.158 218.935 333.037 220.745C341.105 200.402 333.277 174.953 315.168 162.656C338.573 146.209 364.071 130.214 392.617 128.383C420.591 126.573 448.394 139.187 468.313 158.923C488.232 178.658 500.776 204.934 507.572 232.122C512.288 251.052 514.36 271.098 509.686 290.042C507.034 300.965 501.891 311.127 494.66 319.733C487.589 327.978 484.796 338.888 485.743 349.707C485.989 352.29 485.603 354.894 484.619 357.294C483.99 358.778 483.134 360.155 482.081 361.374C475.674 368.842 474.423 379.3 477.732 388.563C479.858 394.312 480.029 400.603 478.22 406.46C473.517 422.476 451.866 439.192 436.819 432.007C453.457 437.685 459.715 460.108 452.509 476.152C445.304 492.196 428.609 502.075 411.646 506.734C396.98 510.765 384.839 510.913 374.042 500.243" fill="#F3BEDA"/>
</g>
</g>
<g style="mix-blend-mode:multiply">
<g style="mix-blend-mode:multiply">
<path d="M261.676 453.818C258.018 449.666 255.809 444.439 255.382 438.922C254.954 433.406 256.332 427.9 259.307 423.235C262.497 418.711 267.071 415.346 272.34 413.648C277.609 411.95 283.287 412.012 288.518 413.824C289.555 410.143 291.854 406.945 295.012 404.789C298.17 402.633 301.986 401.657 305.792 402.031C309.597 402.405 313.15 404.106 315.827 406.836C318.505 409.566 320.136 413.151 320.437 416.963C323.021 414.106 326.406 412.094 330.15 411.187C333.895 410.28 337.825 410.522 341.431 411.88C345.036 413.238 348.149 415.649 350.365 418.801C352.581 421.952 353.797 425.698 353.855 429.55C348.756 425.526 340.808 427.421 336.241 432.032C331.673 436.642 329.7 443.183 328.172 449.49C302.561 440.665 271.986 448.868 254.223 469.303C254.62 463.763 256.258 458.383 259.017 453.563" fill="#F3BEDA"/>
</g>
</g>
<g style="mix-blend-mode:multiply">
<g style="mix-blend-mode:multiply">
<path d="M248.05 297.952C248.061 293.261 249.272 288.651 251.568 284.56C253.864 280.47 257.168 277.035 261.167 274.582C259.506 269.478 259.179 264.034 260.217 258.767C261.255 253.501 263.624 248.588 267.098 244.496C270.572 240.404 275.035 237.27 280.063 235.39C285.091 233.511 290.516 232.95 295.822 233.761C290.788 226.902 293.659 215.73 301.373 212.145C292.937 210.257 284.12 208.369 275.726 210.539C267.333 212.71 259.675 220.213 260.467 228.825C251.183 229.115 241.736 229.44 232.989 232.545C224.242 235.649 216.167 242.083 213.444 250.958C210.467 260.709 214.562 271.506 221.336 279.129C228.11 286.751 237.231 291.8 246.169 296.722" fill="#F3BEDA"/>
</g>
</g>
<g style="mix-blend-mode:multiply">
<g style="mix-blend-mode:multiply">
<path d="M258.324 178.475C248.771 180.703 239.982 183.298 231.348 178.581C228.265 176.912 225.316 174.713 223.69 171.616C222.064 168.519 222.078 164.347 224.51 161.802C212.984 162.594 201.819 152.659 201.317 141.154C200.815 129.649 210.955 118.675 222.495 118.378C216.796 119.524 212.468 125.053 212.171 130.866C211.874 136.678 215.311 142.363 220.303 145.361C222.843 146.79 225.652 147.677 228.552 147.966C231.453 148.254 234.381 147.938 237.153 147.037C241.523 160.727 248.488 168.088 259.243 177.613" fill="#F3BEDA"/>
</g>
</g>
<g style="mix-blend-mode:multiply">
<g style="mix-blend-mode:multiply">
<path d="M273.471 370.721C271.008 368.311 269.357 365.194 268.746 361.803C268.136 358.412 268.597 354.915 270.064 351.797C271.532 348.68 273.934 346.097 276.937 344.407C279.94 342.717 283.394 342.003 286.821 342.366C284.459 335.635 289.317 327.962 295.886 325.198C302.455 322.433 310.049 323.536 316.802 325.834C314.07 326.306 311.5 327.459 309.331 329.185C307.161 330.912 305.46 333.156 304.386 335.713C303.312 338.269 302.898 341.055 303.184 343.813C303.469 346.571 304.444 349.213 306.019 351.495C303.419 350.471 300.55 350.358 297.877 351.173C295.205 351.989 292.887 353.685 291.302 355.985C289.716 358.285 288.956 361.055 289.145 363.842C289.334 366.63 290.462 369.271 292.343 371.336C289.892 369.646 286.924 368.87 283.959 369.142C280.994 369.415 278.218 370.719 276.115 372.828" fill="#F3BEDA"/>
</g>
</g>
<g style="mix-blend-mode:multiply">
<g style="mix-blend-mode:multiply">
<path d="M257.298 554.729C255.571 548.801 255.342 542.538 256.633 536.5C257.924 530.463 260.694 524.84 264.694 520.137C268.788 515.514 273.966 511.98 279.763 509.854C285.56 507.727 291.795 507.074 297.907 507.954C298.444 501.915 299.017 495.742 301.499 490.22C303.981 484.697 308.69 479.762 314.665 478.75C321.383 477.605 328.143 481.664 332.117 487.193C336.091 492.723 337.802 499.525 339.28 506.179C341.359 498.443 350.325 493.904 358.244 495.12C366.164 496.336 372.768 502.149 376.891 509C381.013 515.852 412.776 505.557 414.756 513.321C413.377 513.285 288.517 571.396 284.932 574.075C273.37 570.292 271.504 572.286 260.756 565.131" fill="#F3BEDA"/>
</g>
</g>
<path d="M227.672 456.273C227.113 457.129 222.043 454.746 216.478 449.86C204.461 439.072 196.6 424.416 194.261 408.437C193.257 401.098 194.027 395.561 195.116 395.561C196.205 395.561 197.04 400.822 198.864 407.511C202.671 421.999 209.85 435.381 219.816 446.565C224.383 451.741 228.343 455.304 227.672 456.273Z" fill="#FFD6E5"/>
<path d="M199.047 385.241C198.014 384.93 198.382 381.041 200.546 376.374C202.961 371.349 206.393 366.881 210.625 363.253C214.858 359.624 219.798 356.914 225.132 355.295C230.089 353.874 233.992 354.114 234.141 355.196C234.289 356.278 230.937 357.579 226.829 359.679C217.944 364.066 210.3 370.61 204.598 378.714C201.897 382.448 200.164 385.609 199.047 385.241Z" fill="#FFD6E5"/>
<path d="M207.66 263.898C207.2 264.174 206.33 263.728 205.397 262.583C204.194 261.018 203.321 259.226 202.83 257.315C202.164 254.842 201.92 252.274 202.109 249.72C202.286 247.176 202.829 244.671 203.721 242.282C204.617 239.937 205.795 237.71 207.228 235.649C208.637 233.629 210.271 231.776 212.1 230.126C215.459 227.121 218.528 225.693 219.235 226.556C219.942 227.418 217.955 229.971 215.586 233.287C214.406 234.935 213.14 236.809 212.037 238.718C210.988 240.534 210.085 242.43 209.336 244.389C208.622 246.313 208.096 248.303 207.766 250.329C207.45 252.375 207.343 254.448 207.448 256.516C207.632 260.334 208.671 263.254 207.66 263.898Z" fill="#FFD6E5"/>
<path d="M214.808 204.151C214.724 204.419 214.32 204.54 213.642 204.554C212.702 204.541 211.767 204.406 210.863 204.151C207.79 203.337 204.855 202.074 202.151 200.403C198.603 198.228 195.392 195.546 192.619 192.441C186.987 186.191 183.322 178.419 182.083 170.096C181.454 165.976 181.438 161.784 182.034 157.658C182.447 154.509 183.329 151.439 184.65 148.551C185.033 147.692 185.525 146.887 186.114 146.154C186.552 145.631 186.885 145.383 187.182 145.51C188.285 145.949 186.786 151.139 186.722 158.047C186.652 161.752 186.987 165.453 187.719 169.085C189.162 176.3 192.35 183.051 197.003 188.75C199.339 191.629 201.98 194.247 204.881 196.556C210.226 200.87 215.176 203.019 214.808 204.151Z" fill="#FFD6E5"/>
<path d="M280.068 191.96C279.799 192.455 278.916 192.519 277.621 192.187C275.906 191.7 274.282 190.936 272.813 189.924C270.774 188.59 269.014 186.873 267.63 184.868C266.158 182.738 265.215 180.287 264.879 177.719C264.721 176.423 264.752 175.111 264.971 173.823C265.209 172.485 265.635 171.188 266.237 169.969C266.8 168.856 267.463 167.796 268.217 166.802C268.578 166.328 268.924 165.897 269.292 165.472C269.683 165.039 270.096 164.626 270.529 164.235C271.32 163.466 272.218 162.816 273.195 162.304C274.044 161.854 274.985 161.605 275.946 161.576C276.612 161.532 277.276 161.7 277.841 162.057C278.18 162.396 278.336 162.651 278.272 162.927C278.116 163.492 277.36 163.726 276.653 164.32C275.652 165.158 274.796 166.157 274.121 167.275C273.895 167.629 273.669 168.011 273.443 168.407L272.728 169.701C272.271 170.542 271.872 171.414 271.533 172.31C270.925 173.823 270.708 175.464 270.904 177.083C271.13 178.775 271.675 180.409 272.509 181.898C273.432 183.517 274.553 185.013 275.847 186.353C278.3 188.976 280.627 190.949 280.068 191.96Z" fill="#FFD6E5"/>
<path d="M258.876 163.79C258.36 164.759 255.645 164.193 252.583 162.362C249.287 160.293 246.436 157.586 244.198 154.401C241.96 151.217 240.381 147.617 239.551 143.814C238.844 140.279 239.268 137.564 240.329 137.38C241.39 137.196 242.5 139.452 243.942 142.252C245.44 145.248 247.146 148.135 249.048 150.893C250.992 153.624 253.13 156.212 255.447 158.635C257.667 160.969 259.456 162.744 258.876 163.79Z" fill="#FFD6E5"/>
<path d="M276.906 325.055C276.03 325.705 272.423 322.198 269.411 316.258C267.7 312.976 266.545 309.432 265.996 305.772C265.717 303.791 265.701 301.782 265.946 299.797C266.313 296.843 267.333 294.008 268.931 291.497C270.53 288.986 272.667 286.862 275.188 285.28C276.978 284.193 278.949 283.439 281.008 283.053C282.926 282.703 284.892 282.695 286.813 283.031C289.81 283.499 292.578 284.914 294.711 287.069C296.232 288.731 296.557 290.088 296.133 290.413C295.708 290.739 294.634 290.117 292.972 289.332C290.877 288.327 288.597 287.766 286.276 287.684C284.879 287.647 283.484 287.821 282.139 288.2C280.755 288.603 279.447 289.229 278.264 290.053C276.543 291.288 275.085 292.854 273.977 294.66C272.868 296.465 272.131 298.474 271.808 300.568C271.585 302.079 271.533 303.612 271.653 305.135C271.954 308.294 272.645 311.403 273.71 314.391C275.641 320.197 277.847 324.383 276.906 325.055Z" fill="#FFD6E5"/>
<path d="M298.904 295.071C298.806 295.189 298.681 295.281 298.539 295.339C298.397 295.397 298.243 295.419 298.091 295.403C297.603 295.378 297.128 295.238 296.705 294.993C295.318 294.198 294.185 293.026 293.438 291.613C292.392 289.724 291.854 287.597 291.876 285.438C291.898 283.279 292.48 281.162 293.565 279.295C294.701 277.46 296.292 275.949 298.184 274.909C300.076 273.87 302.204 273.337 304.363 273.363C305.962 273.359 307.53 273.805 308.888 274.65C309.309 274.903 309.661 275.255 309.914 275.675C309.996 275.805 310.047 275.953 310.063 276.106C310.079 276.26 310.059 276.414 310.005 276.559C309.758 277.089 309.058 277.238 308.139 277.393C307.021 277.53 305.915 277.747 304.829 278.044C303.546 278.387 302.329 278.944 301.23 279.691C300.228 280.391 299.376 281.286 298.727 282.322C298.121 283.388 297.729 284.563 297.575 285.78C297.428 287.12 297.507 288.475 297.808 289.789C298.068 290.889 298.406 291.969 298.819 293.02C299.052 293.918 299.257 294.604 298.904 295.071Z" fill="#FFD6E5"/>
<path d="M252.228 448.277C251.981 448.425 251.634 448.319 251.189 448.001C250.591 447.546 250.068 447 249.64 446.382C248.183 444.314 247.123 441.993 246.515 439.537C245.675 436.323 245.411 432.986 245.737 429.68C246.053 426.339 246.953 423.079 248.396 420.049C249.853 416.976 251.914 414.228 254.456 411.967C257.099 409.6 260.383 408.067 263.895 407.562C266.579 407.163 269.32 407.618 271.73 408.863C273.491 409.846 274.127 410.963 273.83 411.401C273.533 411.84 272.437 411.677 270.839 411.564C268.806 411.39 266.758 411.597 264.801 412.172C262.342 412.948 260.113 414.318 258.309 416.16C256.441 418.063 254.906 420.267 253.77 422.68C252.597 425.129 251.783 427.734 251.351 430.415C250.919 433.147 250.843 435.923 251.125 438.674C251.585 443.886 253.239 447.662 252.228 448.277Z" fill="#FFD6E5"/>
<path d="M365.492 476.885C365.259 477.048 364.814 476.843 364.191 476.32C363.333 475.573 362.562 474.731 361.893 473.809C359.612 470.683 357.784 467.25 356.463 463.613C354.676 458.877 353.592 453.905 353.245 448.856C352.48 438.658 354.764 428.463 359.807 419.567C362.268 415.133 365.365 411.083 369 407.546C371.758 404.837 374.886 402.533 378.291 400.702C379.29 400.154 380.348 399.723 381.445 399.415C382.23 399.21 382.689 399.245 382.859 399.415C383.453 400.461 377.902 404.145 372.422 410.714C369.453 414.227 366.9 418.071 364.814 422.169C360.638 430.294 358.606 439.351 358.909 448.481C359.046 453.067 359.71 457.623 360.889 462.057C363.039 470.486 366.489 476.185 365.492 476.885Z" fill="#FFD6E5"/>
<path d="M409.524 379.195C408.435 379.195 407.643 376.607 407.869 373.086C408.188 369.283 409.296 365.589 411.122 362.239C412.948 358.888 415.453 355.955 418.476 353.626C421.318 351.533 423.913 350.791 424.522 351.724C425.13 352.658 423.581 354.574 421.743 357.006C419.757 359.571 417.968 362.283 416.39 365.117C414.855 367.974 413.543 370.946 412.465 374.005C411.412 376.869 410.662 379.217 409.524 379.195Z" fill="#FFD6E5"/>
</svg>
