<svg width="1920" height="542" viewBox="0 0 1920 542" fill="none" xmlns="http://www.w3.org/2000/svg">
<path d="M-5.00098 0V368H40.499L182.499 282.5L342.999 317L476.499 282.5L512.999 233L673.499 273.5L751.999 255C796.999 255.667 888.799 256.6 895.999 255C903.199 253.4 996.332 239.667 1042 233L1674 220C1688.5 220 1779.03 180.591 1791 181.5C1830.5 184.5 1735 236.776 1833.5 213C1845.1 210.2 1888.5 191 1920.5 201V0H-5.00098Z" fill="#5AC7E5"/>
<path d="M1285.69 211.243C1338.94 193.125 1327.6 193.91 1383.45 202.847C1441.65 212.13 1567.03 229.697 1623.83 215.518C1639.75 211.475 1659.08 211.63 1676.9 206.075C1690.73 201.827 1699.8 198.201 1710.04 194.879C1723.35 190.612 1743.69 173.177 1751.94 170.443C1776.82 162.506 1774.9 175.854 1776.61 183.149C1761.5 193.928 1741.23 201.895 1722.59 208.473C1680.36 223.559 1634.78 229.451 1592.4 230.195C1559.76 230.756 1526.65 226.039 1494.82 233.468C1489.25 234.719 1483.67 236.495 1479.58 240.428C1475.5 244.362 1473.56 251.001 1476.67 255.846C1480.04 261.094 1487.25 261.874 1493.56 261.964C1578.88 262.995 1664.33 249.431 1745.12 222.156C1760.42 217.302 1781.67 207.79 1792.46 200.147C1804.87 191.246 1806.55 184.729 1822.18 189.093C1830.12 191.346 1845.95 197.558 1843.95 205.643C1842.72 210.86 1835.41 213.102 1830.46 215.295C1684.01 284.189 1456.42 281.964 1286.29 310.041C1286.29 310.041 1280.17 308.115 1231.53 296.407" fill="#5AC7E5"/>
<path d="M1773.43 210.128C1774.36 209.767 1731.94 226.818 1713.06 232.467C1678.23 242.947 1618.75 258.74 1568.27 261.698C1490.38 266.322 1472.59 263.46 1470.81 254.19C1469.15 245.319 1479.72 240.299 1479.72 240.299C1479.72 240.299 1461.34 265.562 1550.55 260.68C1656.11 254.926 1746.45 221.936 1773.43 210.128Z" fill="#081B6A" stroke="black" stroke-miterlimit="10" stroke-linecap="round" stroke-linejoin="round"/>
<path d="M1734.73 181.147C1734.73 181.147 1714.41 197.925 1660.65 211.947C1606.89 225.969 1505.63 217.933 1502.08 217.808C1471.2 217.115 1437.92 209.762 1437.92 209.762C1437.92 209.762 1464.02 215.679 1509.27 219.113C1540.49 221.659 1678.14 219.402 1734.73 181.147Z" fill="#081B6A" stroke="black" stroke-miterlimit="10" stroke-linecap="round" stroke-linejoin="round"/>
<path d="M1479.72 240.299C1479.72 240.299 1487.42 230.837 1520.2 229.887C1552.99 228.936 1612.9 234.465 1659.36 226.105C1705.82 217.744 1752.47 196.501 1780.27 183.932C1797.78 175.999 1819.51 190.311 1773.43 210.128" stroke="black" stroke-miterlimit="10" stroke-linecap="round" stroke-linejoin="round"/>
<path d="M1842.58 210.991C1842.58 210.991 1784.8 234.736 1755.43 243.304C1725.93 251.867 1672.66 263.013 1603.64 273.21C1534.63 283.407 1412.72 294.109 1397.28 295.538C1381.84 296.968 1352.41 299.878 1343.11 302.575" stroke="black" stroke-miterlimit="10" stroke-linecap="round" stroke-linejoin="round"/>
<path d="M848.188 253.449C1066.62 269.293 1236.56 455.993 1230.74 397.128C1229.67 386.305 1220.5 347.971 1219.57 337.021C1254.1 364.937 1288.87 397.332 1323.58 427.49C1329.96 432.976 1339.17 425.409 1334.96 418.158C1323.42 398.417 1311.77 378.147 1300.42 360.649C1296.05 354.05 1291.69 347.057 1292.04 340.756C1293.23 321.858 1333.93 335.391 1339.41 317.96C1341.18 312.498 1340.32 295.632 1341.18 289.876C1342.54 281.111 1371.15 271.859 1378.84 266.211C1405.72 246.245 1405.55 225.063 1417.98 196.959C1424.56 181.934 1426.85 161.628 1406.87 146.456C1393.93 136.662 1376.31 132.754 1360.23 129.821C1308.21 120.624 1256.82 115.789 1207.51 115.5" fill="#5AC7E5"/>
<path d="M1335.65 424.499C1335.65 424.499 1340.23 414.006 1320.61 381.223C1300.97 348.571 1286.98 335.189 1302.14 330.461C1317.3 325.734 1339.2 338.737 1345.71 321.868C1352.22 304.998 1362.06 305.739 1375.36 301.604C1396.11 295.1 1468.64 289.762 1468.64 289.762C1468.64 289.762 1361.79 291.13 1349.3 294.768C1321.39 302.992 1348.11 313.403 1336.25 317.852C1324.39 322.301 1270.85 311.341 1277.15 330.239C1283.47 349.007 1339.67 403.728 1335.65 424.499Z" fill="#081B6A" stroke="black" stroke-miterlimit="10" stroke-linecap="round" stroke-linejoin="round"/>
<path d="M1253.95 365.59C1253.95 365.59 1222.25 324.49 1215.7 331.099C1209.16 337.708 1221.33 369.177 1225.57 383.268C1229.81 397.359 1225.72 408.921 1225.72 408.921C1225.72 408.921 1232.49 407.317 1231.01 382.144C1229.52 356.97 1218.28 347.499 1225.28 346.693C1232.28 345.887 1253.95 365.59 1253.95 365.59Z" fill="#081B6A" stroke="black" stroke-miterlimit="10" stroke-linecap="round" stroke-linejoin="round"/>
<path d="M1157.27 377.047C1157.27 377.047 1072.79 314.623 988.824 278.654C904.861 242.685 843.391 266.432 843.391 266.432C843.391 266.432 885.418 249.497 996.969 297.617C1052.17 321.262 1157.27 377.047 1157.27 377.047Z" fill="#081B6A" stroke="black" stroke-miterlimit="10" stroke-linecap="round" stroke-linejoin="round"/>
<path d="M617.37 223.491C562.998 210.003 511.699 213.852 460.526 236.515C427.923 251.019 398.771 272.089 366.295 286.729C316.713 309.053 261.643 315.4 207.633 321.522C217.222 321.86 224.264 331.051 227.365 340.104C230.33 349.284 230.772 359.164 234.539 367.977C240.001 380.928 252.819 390.454 266.838 392C260.423 379.937 258.984 364.761 270.428 357.272C281.871 349.783 314.471 346.59 328.061 345.359C400.508 338.571 463.057 332.75 535.373 325.957C540.519 325.481 545.797 325.009 550.351 322.67C554.905 320.332 558.876 315.868 558.794 310.736C558.753 304.421 553.14 299.488 547.316 296.784C538.255 292.651 528.018 292.028 518.08 290.362C508.143 288.697 497.867 285.442 491.562 277.723C485.258 270.004 480.717 253.272 490.526 251.118C528.683 243.255 567.738 258.44 602.501 275.973C637.396 293.511 666.128 306.754 704.101 315.325C731.113 321.405 761.447 319.053 795.625 300.922C817.608 289.201 857.233 254.558 881.847 250.295C906.724 246.041 916.177 246.505 941.348 248.838C966.519 251.171 1010.5 298.359 1024.5 285.436C970.863 277.235 924.988 227.876 871.388 237.3C840.553 242.659 810.829 253.845 779.891 258.411C726.469 266.527 670.575 258.903 625.175 229.684" fill="#081B6A"/>
<path d="M617.37 223.491C562.998 210.003 511.699 213.852 460.526 236.515C427.923 251.019 398.771 272.089 366.295 286.729C316.713 309.053 261.643 315.4 207.633 321.522C217.222 321.86 224.264 331.051 227.365 340.104C230.33 349.284 230.772 359.164 234.539 367.977C240.001 380.928 252.819 390.454 266.838 392C260.423 379.937 258.984 364.761 270.428 357.272C281.871 349.783 314.471 346.59 328.061 345.359C400.508 338.571 463.057 332.75 535.373 325.957C540.519 325.481 545.797 325.009 550.351 322.67C554.905 320.332 558.877 315.868 558.794 310.736C558.753 304.421 553.14 299.488 547.316 296.784C538.255 292.651 528.018 292.028 518.08 290.362C508.143 288.697 497.867 285.442 491.562 277.723C485.258 270.004 480.717 253.272 490.526 251.118C528.683 243.255 567.738 258.44 602.501 275.973C637.396 293.511 666.128 306.754 704.101 315.325C731.113 321.405 761.447 319.053 795.625 300.922C817.608 289.201 857.233 254.558 881.847 250.295C906.724 246.041 916.177 246.505 941.348 248.838C966.519 251.171 1010.5 298.359 1024.5 285.436C970.863 277.235 924.988 227.876 871.388 237.3C840.553 242.659 810.829 253.845 779.891 258.411C726.469 266.527 670.575 258.903 625.175 229.684" stroke="black" stroke-miterlimit="10" stroke-linecap="round" stroke-linejoin="round"/>
<path d="M534.748 197.957C501.002 188.877 425.405 210.417 395.441 228.433C390.601 231.42 385.76 234.406 380.789 237.388C355.646 252.943 330.235 268.621 301.16 272.595C268.65 276.975 236.024 265.962 205.692 253.32C175.36 240.678 161.844 232.31 129.063 229.446C96.2826 226.583 68.6389 242.182 52.6368 270.817C45.0576 284.361 23.1923 315.158 11.0088 324.988C-73.4456 392.644 -96.3179 381.054 -109.761 385.579C-123.069 389.977 -138.586 393.639 -135.909 437.137C-135.909 437.137 -54.5153 392.916 -7.3151 382.214C39.8898 371.381 76.0176 368.839 101.546 346.063C127.075 323.287 269.128 311.978 310.082 306.843" fill="#081B6A"/>
<path d="M534.748 197.957C501.002 188.877 425.405 210.417 395.441 228.433C390.601 231.42 385.76 234.406 380.789 237.388C355.646 252.943 330.235 268.621 301.16 272.595C268.65 276.975 236.024 265.962 205.692 253.32C175.36 240.678 161.844 232.31 129.063 229.446C96.2826 226.583 68.6389 242.182 52.6368 270.817C45.0576 284.361 23.1922 315.158 11.0088 324.988C-73.4456 392.644 -96.3179 381.054 -109.761 385.579C-123.069 389.977 -138.586 393.639 -135.909 437.137C-135.909 437.137 -54.5153 392.916 -7.3151 382.214C39.8898 371.381 76.0176 368.839 101.546 346.063C127.075 323.287 269.128 311.978 310.082 306.843" stroke="black" stroke-miterlimit="10" stroke-linecap="round" stroke-linejoin="round"/>
<path d="M938.476 266.887C908.77 258.871 860.534 261.645 838.887 271.273C810.557 283.955 808.354 286.771 785.661 296.231C744.408 313.587 696.98 300.869 655.19 284.93C613.399 268.991 570.415 249.59 525.806 253.938C510.762 255.382 492.704 263.953 493.753 278.984C494.896 295.07 515.631 300.14 531.62 301.756C534.632 302.125 537.771 302.63 541.032 303.402C555.376 306.932 553.186 328.031 538.441 328.433C467.071 330.787 395.836 333.014 324.466 335.368C303.528 336.077 280.996 337.257 264.62 350.359C248.244 363.462 239.292 371.17 257.186 382.19C347.469 429.167 103.85 392.707 3.58144 397.726C-51.7578 400.513 -79.2189 433.349 -81.2244 456.69C-83.043 478.459 -137.242 482.47 -144.333 441.053C-147.401 423.583 -132.907 407.915 -117.848 398.581C-72.4153 370.85 -11.1767 372.348 27.5939 335.833C55.4761 309.721 68.4355 266.641 103.671 252.099C135.435 239.012 170.91 254.992 203.54 265.873C251.768 282.039 292.445 295.966 340.022 278.307C384.264 261.977 433.141 218.584 477.857 203.717C577.938 170.413 646.731 267.402 750.634 248.832C796.958 240.598 803.896 230.32 850.966 230.794C879.626 231.145 891.682 228.676 952.926 248.719C1009.23 267.142 1033.76 294.969 1060.57 314.458C1060.56 314.589 1024.86 290.052 938.476 266.887Z" fill="#5AC7E5" stroke="black" stroke-miterlimit="10" stroke-linecap="round" stroke-linejoin="round"/>
<path d="M178.794 367.326C164.522 365.509 152.179 364.943 139.59 371.339C137.714 372.325 135.824 373.705 135.75 375.807C135.77 378.964 139.026 379.868 141.64 380.355C171.973 385.5 202.175 390.64 232.508 395.786C235.384 396.281 238.26 396.777 240.943 395.293C242.148 394.678 242.978 393.524 243.287 392.219C244.064 388.827 240.723 386.605 237.747 385.185C233.867 383.338 229.986 381.492 226.096 379.908C212.093 374.154 197.37 370.216 182.323 367.977C181.018 367.668 179.709 367.49 178.794 367.326Z" fill="white" stroke="#000207" stroke-miterlimit="10" stroke-linecap="round" stroke-linejoin="round"/>
<path d="M113.486 380.552C118.998 380.877 124.329 382.643 128.961 385.569C130.247 386.403 131.777 387.772 131.459 389.339C131.14 390.906 129.405 391.634 127.946 391.978C118.794 394.154 108.735 392.222 101.038 386.69C99.8832 385.86 98.6158 384.5 99.1875 383.205C99.6186 382.168 100.946 381.82 102.006 381.595C105.449 380.927 107.026 380.982 110.586 380.713L113.486 380.552Z" fill="white" stroke="#000207" stroke-miterlimit="10" stroke-linecap="round" stroke-linejoin="round"/>
<path d="M537.802 327.881C465.405 314.547 364.215 297.175 292.937 315.578C278.734 319.287 263.944 324.685 254.722 336.329C245.504 347.842 244.698 367.017 256.483 375.981" stroke="#000207" stroke-miterlimit="10" stroke-linecap="round" stroke-linejoin="round"/>
<path d="M343.153 275.262C294.563 284.337 244.529 285.864 195.557 279.668C169.761 276.392 140.324 271.936 120.53 288.732C102.091 304.392 98.8177 333.871 78.4916 347.097C67.1842 354.459 53.0911 355.015 39.7401 356.913C-4.28151 363.254 -45.5925 386.001 -74.4044 419.841" stroke="#000207" stroke-miterlimit="10" stroke-linecap="round" stroke-linejoin="round"/>
<path d="M880.789 231.711C827.047 230.213 800.384 255.317 779.858 270.509C743.259 297.63 689.824 298.643 638.582 278.425" stroke="#000207" stroke-miterlimit="10" stroke-linecap="round" stroke-linejoin="round"/>
<path d="M495.658 269.713C503.772 255.925 526.894 241.745 542.754 239.542C582.807 233.849 631.605 256.217 671.468 263.407C711.33 270.598 751.443 263.198 785.239 240.976" stroke="#000207" stroke-miterlimit="10" stroke-linecap="round" stroke-linejoin="round"/>
<path d="M1118.92 323.354C1118.92 323.354 1203.27 400.636 1214.65 398.538C1226.04 396.44 1183.45 347.197 1168.98 339.848C1154.5 332.499 1150.81 340.129 1123.99 317.614C1097.16 295.099 1107.54 314.01 1118.92 323.354Z" fill="white" stroke="black" stroke-miterlimit="10" stroke-linecap="round" stroke-linejoin="round"/>
<path d="M1184.95 379.34L1202.36 374.034C1202.36 374.034 1185.98 349.914 1173.57 343.821C1191.56 369.664 1151.3 346.28 1142.97 340.068C1134.51 333.851 1121.85 326.086 1121.85 326.086C1121.85 326.086 1167.13 369.769 1184.95 379.34Z" fill="#081B6A" stroke="black" stroke-miterlimit="10" stroke-linecap="round" stroke-linejoin="round"/>
<path d="M1335.66 424.497C1335.66 424.497 1333.87 434.298 1321.55 425.578C1309.23 416.858 1253.95 365.59 1253.95 365.59" stroke="black" stroke-miterlimit="10" stroke-linecap="round" stroke-linejoin="round"/>
<path d="M1225.86 408.794C1225.86 408.794 1225.72 416.68 1186.45 392.675C1161.08 377.314 1144.18 367.776 1144.18 367.776" stroke="black" stroke-miterlimit="10" stroke-linecap="round" stroke-linejoin="round"/>
</svg>
