<svg width="57" height="56" viewBox="0 0 57 56" fill="none" xmlns="http://www.w3.org/2000/svg">
<path d="M30 2L38.0938 17.8598L55.6785 20.6565L43.096 33.2552L45.8702 50.8435L30 42.77L14.1298 50.8435L16.904 33.2552L4.32147 20.6565L21.9062 17.8598L30 2Z" fill="#1B1B1F"/>
<path d="M27 1.09996L34.6484 16.0871L34.7641 16.3137L35.0153 16.3536L51.6324 18.9964L39.7423 30.9018L39.5625 31.0818L39.6022 31.3331L42.2237 47.9536L27.2267 40.3244L27 40.209L26.7733 40.3244L11.7763 47.9536L14.3978 31.3331L14.4375 31.0818L14.2577 30.9018L2.3676 18.9964L18.9847 16.3536L19.2359 16.3137L19.3516 16.0871L27 1.09996Z" fill="#FEE882" stroke="#1B1B1F"/>
</svg>
