<svg width="253" height="98" viewBox="0 0 253 98" fill="none" xmlns="http://www.w3.org/2000/svg">
<path d="M48.2168 149.877C48.2168 149.877 60.2505 152.407 64.0794 143.86C67.9767 135.313 67.3614 127.724 72.0791 127.929C76.7285 128.134 75.2243 142.903 73.2415 151.45C71.327 159.996 69.9596 164.851 72.0791 165.671C74.1987 166.423 79.0532 167.449 79.0532 159.654C79.0532 151.86 78.643 143.108 85.2752 141.535C91.9074 139.963 92.8647 146.39 92.8647 146.39C92.8647 146.39 94.027 163.141 97.5141 163.894C101.001 164.646 103.736 164.509 104.488 159.449C105.24 154.39 106.608 143.723 115.018 145.638C123.359 147.552 126.299 161.022 126.299 161.022C126.299 161.022 133.684 178.525 142.641 175.449C151.597 172.372 146.948 160.065 147.495 153.638C148.11 147.21 150.982 146.663 154.674 147.826C158.366 148.988 163.631 151.108 165.956 145.911C168.281 140.647 162.811 135.04 170.605 137.57C178.4 140.1 185.374 153.911 193.921 159.723C202.467 165.535 212.108 168.064 213.817 163.21C215.527 158.355 215.116 157.193 208.894 152.338C202.672 147.484 199.938 145.159 206.57 143.176C213.202 141.262 235.15 147.826 237.475 140.852C239.799 133.878 227.971 130.938 226.603 126.835C225.236 122.733 230.911 118.494 236.722 114.801C242.534 111.109 230.09 99.8276 229.338 93.8108C228.586 87.7939 233.03 84.1017 243.765 79.2472C254.431 74.3927 251.149 62.7008 251.149 62.7008C251.149 62.7008 236.586 75.1448 231.321 71.6578C226.056 68.1707 224.894 63.1111 228.996 57.231C233.099 51.3508 230.295 46.2912 227.219 44.5819C224.142 42.8725 60.7291 122.391 60.7291 122.391L48.2168 149.877Z" fill="#081B6A"/>
<path d="M140.449 176.139C132.381 176.139 126.228 161.849 125.954 161.165C125.886 160.96 122.946 147.9 114.878 145.986C112.895 145.507 111.254 145.781 109.886 146.738C106.399 149.131 105.442 155.353 104.895 159.114L104.827 159.592C104.485 161.78 103.801 163.216 102.639 163.968C101.135 164.994 99.1517 164.72 97.4423 164.31C93.8185 163.49 92.6562 148.242 92.5195 146.465C92.5195 146.465 92.1092 143.866 90.058 142.499C88.8273 141.678 87.2547 141.473 85.3402 141.884C79.3234 143.319 79.3918 150.977 79.3918 158.43V159.661C79.3918 162.738 78.6396 164.789 77.2038 165.814C75.5628 166.977 73.4433 166.566 71.939 166.019C69.7511 165.199 70.6399 161.165 72.3493 153.781L72.8963 151.456C74.4689 144.619 75.9731 132.448 73.4433 129.098C73.033 128.619 72.6228 128.346 72.0758 128.346C72.0074 128.346 71.939 128.346 71.939 128.346C69.3409 128.346 68.5887 131.217 67.358 135.456C66.6743 138.055 65.8538 140.995 64.418 144.072C62.777 147.695 59.4267 149.883 54.7773 150.499C51.2903 150.909 48.2818 150.294 48.1451 150.294C48.0767 150.294 47.94 150.225 47.94 150.088C47.8716 150.02 47.8716 149.883 47.94 149.815L60.5207 122.192C60.5207 122.124 60.589 122.055 60.6574 122.055C61.0677 121.85 101.955 101.953 142.774 82.4671C225.369 43.0156 226.873 43.836 227.42 44.1779C229.266 45.2035 230.702 47.1864 231.249 49.3743C231.659 51.152 231.659 54.0237 229.335 57.3056C227.352 60.1089 226.6 62.7755 227.078 65.1686C227.489 67.4933 229.061 69.4761 231.591 71.1854C236.582 74.5357 250.872 62.3653 251.009 62.2285C251.078 62.1601 251.214 62.1601 251.351 62.1601C251.488 62.1601 251.556 62.2969 251.556 62.3653C251.556 62.502 254.838 74.399 243.967 79.3219C232.617 84.4499 229.061 88.0737 229.745 93.5436C230.019 95.7999 232.07 98.8767 234.053 101.885C236.582 105.782 239.249 109.816 238.634 112.62C238.428 113.577 237.881 114.329 236.993 114.876C231.318 118.432 225.711 122.671 227.01 126.568C227.489 128.004 229.472 129.371 231.591 130.807C235.283 133.337 239.454 136.209 237.95 140.79C236.377 145.439 227.42 144.482 218.737 143.593C213.814 143.114 209.165 142.636 206.772 143.319C204.515 144.003 203.353 144.687 203.216 145.507C202.943 146.943 205.883 149.268 209.233 151.866C215.455 156.721 216.07 158.02 214.293 163.148C213.882 164.378 212.994 165.199 211.694 165.609C207.934 166.84 200.755 164.515 193.917 159.866C190.088 157.268 186.533 153.028 183.114 148.926C178.875 143.866 174.909 139.08 170.67 137.713C168.688 137.097 167.525 136.961 167.047 137.303C166.636 137.644 166.705 138.738 166.91 139.901C167.115 141.61 167.388 143.73 166.431 145.849C164.106 151.046 159.115 149.405 155.491 148.242L154.739 147.969C152.688 147.353 151.252 147.353 150.227 148.037C148.996 148.858 148.244 150.635 148.039 153.507C147.902 155.216 148.107 157.336 148.312 159.592C148.928 165.678 149.748 173.199 142.911 175.592C142.022 176.002 141.201 176.139 140.449 176.139ZM113.1 145.097C113.715 145.097 114.399 145.166 115.083 145.371C123.561 147.353 126.501 160.413 126.638 161.028C126.706 161.165 133.954 178.122 142.5 175.181C148.791 172.994 148.039 166.019 147.423 159.866C147.218 157.609 146.945 155.422 147.15 153.644C147.423 150.567 148.244 148.584 149.68 147.695C150.91 146.875 152.551 146.806 154.808 147.559L155.56 147.832C159.115 148.994 163.628 150.43 165.679 145.849C166.568 143.866 166.294 141.884 166.089 140.243C165.884 138.807 165.747 137.644 166.5 137.029C167.183 136.482 168.482 136.55 170.807 137.303C175.183 138.738 179.285 143.593 183.593 148.721C187.012 152.755 190.499 156.926 194.259 159.524C200.891 164.037 207.934 166.361 211.489 165.199C212.583 164.857 213.335 164.173 213.677 163.148C215.318 158.498 215.113 157.541 208.891 152.687C204.789 149.473 202.259 147.422 202.601 145.644C202.806 144.55 204.037 143.73 206.635 142.909C209.165 142.157 213.882 142.636 218.874 143.183C226.873 144.003 235.967 144.96 237.334 140.858C238.702 136.756 234.736 134.021 231.249 131.628C229.061 130.123 226.942 128.688 226.395 127.047C224.959 122.739 230.771 118.295 236.651 114.603C237.403 114.124 237.813 113.577 237.95 112.825C238.497 110.295 235.967 106.398 233.437 102.569C231.318 99.3553 229.335 96.2785 229.061 93.9538C228.241 87.3216 233.506 83.6294 243.625 78.98C252.787 74.8092 251.488 65.6472 250.941 63.3909C248.411 65.4421 236.035 75.2878 231.112 72.0059C228.378 70.1598 226.805 68.0403 226.326 65.5104C225.848 62.9122 226.668 60.1089 228.719 57.1005C230.907 54.0237 230.907 51.3571 230.497 49.7162C230.019 47.7333 228.719 45.8873 227.01 44.93H226.942C222.087 44.93 116.519 95.6631 60.9993 122.739L48.6237 149.815C49.5809 149.952 51.974 150.294 54.5722 149.952C59.0848 149.405 62.1616 147.353 63.6659 143.935C65.0333 140.858 65.8538 137.986 66.6059 135.388C67.8366 130.875 68.7255 127.662 72.0074 127.799C72.7595 127.799 73.3749 128.209 73.9219 128.824C76.6568 132.38 75.1526 144.482 73.5116 151.729L72.9646 154.054C71.4604 160.618 70.4348 164.925 72.1442 165.541C73.5116 166.019 75.3577 166.43 76.7936 165.404C78.0927 164.515 78.708 162.601 78.708 159.797V158.567C78.708 151.251 78.6396 142.909 85.2035 141.405C87.3231 140.926 89.1008 141.131 90.4683 142.089C92.7246 143.593 93.2032 146.396 93.2032 146.533C93.5451 151.114 94.9125 163.148 97.5791 163.763C99.2201 164.105 100.998 164.378 102.297 163.49C103.254 162.806 103.869 161.507 104.211 159.524L104.28 159.045C104.895 155.216 105.852 148.789 109.544 146.26C110.638 145.439 111.801 145.097 113.1 145.097Z" fill="black"/>
<path d="M182.222 63.51L219.622 43.9552C222.084 42.6561 225.092 42.7928 227.28 44.5022C231.998 48.126 228.032 54.5531 225.297 58.1085C223.998 59.7495 223.246 61.7323 223.178 63.7835C222.973 70.5525 230.562 71.1678 234.46 68.0227C238.425 64.8091 240.818 58.4504 246.083 58.929C249.297 59.2025 251.553 62.0058 251.621 65.2193C251.69 70.826 247.177 74.3814 242.596 76.501C237.605 78.7573 231.998 79.8513 227.964 84.0221C226.391 85.663 225.366 87.7142 225.161 89.9022C224.682 96.2609 230.836 99.6796 235.895 102.62C235.964 102.62 235.964 102.688 236.032 102.688C241.639 106.038 240.271 114.312 233.981 116.021C231.793 116.568 229.742 117.593 227.964 119.234C226.05 121.012 224.956 123.542 225.229 126.14C225.776 130.926 230.22 132.636 233.707 134.96C236.921 137.148 239.724 141.524 236.716 144.601C235.622 145.763 234.049 146.31 232.408 146.379C227.622 146.447 222.836 145.763 218.323 144.259C214.016 142.823 209.777 140.704 205.059 142.413C202.871 143.233 201.23 145.216 201.162 147.541C201.025 151.37 204.922 153.49 208.204 155.199C211.349 156.84 214.905 159.643 213.947 163.13C213.469 164.976 211.828 166.275 209.913 166.686C206.768 167.301 203.897 165.865 201.23 164.293C194.119 159.985 187.829 154.31 182.838 147.609C180.239 144.122 177.846 140.225 174.222 137.832C172.035 136.396 169.231 135.576 166.633 135.918C164.308 136.191 163.146 138.926 164.445 140.84C165.197 141.934 165.744 143.165 165.881 144.601C166.018 146.105 165.402 147.609 164.103 148.43C160.821 150.549 157.197 146.379 153.437 146.037C149.54 145.627 146.326 149.524 145.642 153.421C144.959 157.318 145.916 161.284 146.053 165.181C146.189 170.036 144.617 175.642 139.079 176.531C136.138 177.01 133.198 175.779 131.147 173.591C125.882 167.985 126.293 160.395 124.105 153.626C122.395 148.43 117.951 143.233 112.481 143.849C106.533 144.533 103.524 151.302 102.704 157.182C102.294 159.985 101.815 163.335 99.0117 164.361C96.8921 165.113 94.5674 164.156 93.405 162.31C90.8068 158.344 92.3111 153.968 92.7213 149.797C93.1315 146.037 92.3111 141.524 88.4138 140.225C85.9523 139.405 83.2858 140.225 81.5081 142.071C77.6791 145.968 77.8159 151.302 77.474 156.361C77.2689 159.096 76.927 161.899 75.2861 164.087C75.2861 164.087 75.2861 164.156 75.2177 164.156C73.0981 166.959 68.6538 164.498 69.7478 161.147C72.893 151.507 74.8758 141.524 75.6279 131.405C75.9698 126.824 69.9529 124.636 67.4231 128.465L67.3547 128.533C65.577 131.337 65.1668 134.755 64.0044 137.9C62.09 143.097 57.9192 147.336 52.8596 149.387C51.1502 150.071 49.2358 150.549 47.5264 149.797C45.6804 148.977 44.7231 147.062 44.0394 145.216C39.3216 132.499 43.2189 117.046 53.4749 108.09" fill="#734EE5"/>
<path d="M137.78 176.945C135.25 176.945 132.789 175.851 130.874 173.799C127.182 169.902 126.225 164.979 125.336 160.261C124.926 158.073 124.447 155.886 123.763 153.766C122.054 148.57 117.61 143.647 112.482 144.194C106.738 144.809 103.798 151.646 103.046 157.253C102.636 160.056 102.157 163.612 99.0804 164.706C96.8925 165.458 94.3626 164.569 93.0635 162.518C90.944 159.236 91.4909 155.68 91.9696 152.33C92.1063 151.51 92.243 150.621 92.3114 149.8C92.5165 148.023 92.79 142.074 88.209 140.57C86.0211 139.818 83.4229 140.57 81.6452 142.348C78.2949 145.766 78.0897 150.416 77.8163 154.86C77.8163 155.407 77.7479 155.886 77.7479 156.364C77.5428 159.167 77.2009 162.039 75.4916 164.295L75.4232 164.364C74.1925 165.936 72.4147 165.936 71.1157 165.253C69.8166 164.569 68.7226 162.996 69.4063 161.014C72.5515 151.373 74.5343 141.39 75.2864 131.339C75.4916 128.946 73.8506 127.511 72.4148 127.032C71.0473 126.553 68.9961 126.69 67.697 128.604L67.6286 128.673C66.4663 130.451 65.9193 132.57 65.3723 134.553C65.0988 135.647 64.7569 136.809 64.3467 137.903C62.4322 143.168 58.1931 147.544 52.9967 149.595C50.7404 150.484 48.8943 150.621 47.3901 150.005C45.3389 149.117 44.3133 146.86 43.6979 145.219C38.9801 132.433 42.9458 116.708 53.2018 107.751C53.3386 107.614 53.5437 107.614 53.6804 107.751C53.8172 107.887 53.8172 108.092 53.6804 108.229C43.6295 116.981 39.6639 132.433 44.3133 144.946C44.9286 146.587 45.8858 148.57 47.6636 149.39C48.9627 149.937 50.672 149.869 52.7232 148.98C57.7145 146.929 61.8169 142.689 63.6629 137.63C64.0732 136.536 64.3467 135.442 64.6885 134.28C65.2355 132.228 65.8509 130.04 67.0132 128.194L67.0816 128.126C68.3123 126.28 70.4319 125.528 72.5515 126.28C74.3292 126.895 76.0385 128.673 75.9018 131.271C75.1497 141.39 73.1669 151.441 70.0217 161.15C69.4747 162.723 70.3635 164.022 71.3892 164.569C72.3464 165.048 73.7822 165.184 74.8078 163.817L74.8762 163.748C76.4488 161.629 76.7907 158.894 76.9958 156.227C76.9958 155.749 77.0642 155.202 77.0642 154.723C77.3376 150.142 77.5428 145.356 81.0982 141.801C83.0126 139.818 85.8843 139.066 88.3458 139.818C91.7644 140.912 93.4738 144.672 92.9268 149.732C92.8584 150.552 92.7217 151.441 92.5849 152.33C92.0379 155.749 91.5593 158.962 93.5421 162.108C94.7045 163.885 96.8925 164.706 98.7385 164.022C101.405 163.065 101.815 159.92 102.226 157.116C103.525 147.749 108.311 143.92 112.276 143.442C116.311 142.963 121.78 145.903 124.242 153.424C124.926 155.544 125.404 157.868 125.814 160.056C126.772 164.911 127.661 169.492 131.216 173.252C133.267 175.44 136.139 176.466 138.805 176.056C145.369 175.03 145.574 167.372 145.506 165.116C145.438 163.817 145.301 162.449 145.164 161.15C144.891 158.552 144.617 155.886 145.096 153.287C145.779 149.253 149.13 145.219 153.301 145.63C154.805 145.766 156.309 146.518 157.745 147.202C159.864 148.296 161.916 149.253 163.762 148.091C164.856 147.407 165.471 146.04 165.403 144.536C165.334 143.305 164.924 142.142 164.035 140.912C163.351 139.886 163.283 138.587 163.762 137.493C164.24 136.399 165.266 135.647 166.497 135.51C169.095 135.237 171.967 135.989 174.291 137.493C177.3 139.544 179.488 142.553 181.539 145.424C182.017 146.108 182.496 146.723 182.975 147.407C187.898 153.971 194.256 159.714 201.299 164.022C203.897 165.595 206.7 166.962 209.709 166.347C211.623 165.936 213.059 164.706 213.469 163.065C214.495 159.304 209.914 156.501 207.863 155.475C204.923 153.971 200.478 151.715 200.615 147.544C200.683 145.151 202.393 142.963 204.717 142.074C208.82 140.57 212.58 141.937 216.204 143.236C216.888 143.442 217.503 143.715 218.187 143.92C222.7 145.424 227.417 146.108 232.204 146.04C233.844 146.04 235.212 145.424 236.238 144.399C237.126 143.442 237.537 142.348 237.4 141.117C237.126 138.655 235.007 136.467 233.298 135.237C232.614 134.826 231.93 134.348 231.246 133.938C228.238 132.092 225.093 130.177 224.614 126.143C224.341 123.545 225.366 120.878 227.486 118.964C229.195 117.391 231.178 116.297 233.639 115.682C236.443 114.93 238.494 112.673 238.836 109.802C239.246 106.998 237.947 104.4 235.554 102.964L234.938 102.623C229.81 99.6141 223.999 96.1955 224.546 89.8367C224.751 87.6488 225.776 85.5292 227.417 83.7515C230.426 80.6747 234.255 79.2389 237.947 77.803C239.314 77.256 240.819 76.709 242.186 76.0937C246.288 74.2476 251.143 70.8289 251.006 65.1539C250.938 62.0087 248.75 59.4105 245.81 59.2054C242.46 58.9319 240.34 61.5301 238.084 64.3334C236.99 65.7009 235.827 67.1368 234.46 68.2307C231.998 70.2136 228.306 70.7605 225.708 69.4614C223.657 68.4358 222.495 66.3846 222.631 63.7181C222.7 61.6669 223.452 59.6157 224.819 57.838C226.87 55.1714 229.263 51.2741 228.853 48.0606C228.648 46.6931 228.033 45.5991 226.87 44.7103C224.819 43.1377 222.016 42.9325 219.554 44.2316L182.154 63.7865C182.017 63.8548 181.812 63.7864 181.676 63.6497C181.607 63.513 181.676 63.3078 181.812 63.1711L219.213 43.6163C221.879 42.2488 225.024 42.4539 227.212 44.1633C228.511 45.1889 229.263 46.4196 229.469 47.9922C229.947 51.4109 227.417 55.5133 225.298 58.3166C223.999 60.0259 223.315 61.872 223.247 63.7865C223.178 66.8633 224.682 68.2307 225.982 68.8461C228.306 70.0084 231.793 69.5298 233.981 67.6837C235.28 66.6581 236.374 65.2223 237.468 63.8548C239.725 61.0515 242.118 58.1115 245.81 58.4533C249.092 58.7268 251.622 61.5985 251.622 65.0856C251.69 71.1708 246.63 74.7262 242.391 76.6407C241.024 77.256 239.52 77.803 238.152 78.35C234.528 79.7175 230.768 81.1533 227.896 84.0934C226.323 85.7343 225.366 87.7855 225.161 89.7684C224.682 95.7169 230.289 98.9988 235.28 101.87L235.896 102.212C238.562 103.785 239.93 106.657 239.52 109.733C239.109 112.879 236.853 115.34 233.776 116.161C231.451 116.776 229.537 117.801 227.896 119.306C225.982 121.083 225.024 123.545 225.298 125.938C225.708 129.63 228.58 131.408 231.588 133.254C232.272 133.664 232.956 134.074 233.639 134.553C235.485 135.784 237.742 138.245 238.015 140.912C238.152 142.348 237.742 143.647 236.648 144.741C235.554 145.903 233.913 146.587 232.135 146.587C227.281 146.723 222.495 145.971 217.913 144.467C217.23 144.262 216.614 143.989 215.931 143.783C212.375 142.553 208.751 141.185 204.923 142.621C202.803 143.373 201.299 145.356 201.23 147.476C201.094 150.963 204.376 152.877 208.068 154.792C210.256 155.886 215.11 158.894 214.016 163.133C213.538 165.048 211.828 166.483 209.709 166.962C206.495 167.646 203.555 166.21 200.82 164.501C193.709 160.193 187.282 154.381 182.359 147.749C181.881 147.134 181.402 146.45 180.923 145.766C178.872 142.895 176.753 139.955 173.813 138.04C171.625 136.604 168.89 135.852 166.497 136.126C165.539 136.262 164.719 136.809 164.309 137.698C163.898 138.587 163.967 139.681 164.514 140.501C165.403 141.801 165.881 143.1 165.95 144.467C166.086 146.176 165.334 147.817 164.035 148.638C161.847 150.005 159.523 148.911 157.335 147.817C155.967 147.134 154.531 146.45 153.164 146.313C149.403 145.971 146.395 149.732 145.711 153.424C145.232 155.954 145.574 158.552 145.779 161.15C145.916 162.449 146.053 163.817 146.121 165.184C146.463 174.893 140.651 176.534 138.805 176.876C138.6 176.945 138.19 176.945 137.78 176.945Z" fill="black"/>
<path d="M63.8027 121.648C68.4521 120.076 72.8964 124.383 75.7681 128.349C78.5714 132.383 82.1268 137.101 87.0497 136.759C90.5368 136.486 94.5024 133.682 97.169 135.87C99.9723 138.126 98.81 144.28 102.981 144.143C104.417 144.143 105.716 143.254 106.399 141.955C109.339 136.964 116.108 136.144 121.031 138.673C126.159 141.34 129.373 146.947 130.74 152.417C131.151 154.057 132.245 155.493 133.886 156.109C137.988 157.681 139.971 153.511 139.834 150.16C139.697 147.494 138.808 144.69 139.697 142.16C140.518 139.562 143.116 137.716 145.851 137.579C146.808 137.511 147.765 137.648 148.723 137.99C151.731 139.015 154.603 135.87 153.372 132.93C153.03 132.11 152.62 131.289 152.005 130.605C153.03 129.101 155.355 129.375 156.859 130.4C158.363 131.426 159.526 132.93 161.235 133.545C164.38 134.776 167.799 132.451 171.149 132.315C175.799 132.11 179.491 135.802 182.773 139.084C184.414 140.725 186.328 142.366 188.379 143.46C190.909 144.827 193.849 142.981 194.123 140.109C194.259 138.126 195.08 136.28 196.379 134.845C198.704 132.315 202.669 131.357 205.883 132.52C209.985 134.024 212.583 138.4 217.438 138.81C219.626 138.947 221.745 137.579 222.087 135.46C222.839 131.152 215.797 129.033 215.455 124.657C220.378 124.93 225.438 122.674 228.446 118.777C231.454 114.879 232.412 109.41 230.908 104.692C228.036 95.8033 218.258 91.7009 210.054 87.2566C198.225 80.8979 187.832 71.9409 175.388 66.9497C159.32 60.5226 141.065 61.4114 124.382 66.0608C107.699 70.7102 92.2461 78.8467 76.9304 86.9831" fill="#4324C6"/>
<path d="M139.01 110.223C139.762 112.685 140.651 115.078 142.223 117.129C143.796 119.18 146.189 120.616 148.719 120.616C151.249 120.616 153.847 118.77 154.189 116.24C155.283 119.18 156.582 122.12 158.701 124.445C160.821 126.77 163.898 128.411 167.043 128.069C170.188 127.727 173.06 124.992 172.923 121.847C173.607 126.086 176.068 130.12 179.829 132.103C183.589 134.086 188.649 133.744 191.794 130.872C194.939 127.932 195.555 122.53 192.683 119.317C194.803 121.642 197.196 124.171 200.272 124.855C203.349 125.539 207.315 123.556 207.246 120.343C212.033 124.24 219.827 123.624 223.93 119.043C228.032 114.462 227.759 106.599 223.383 102.36C225.707 104.001 229.194 101.745 229.605 98.9416C230.015 96.1383 228.442 93.4034 226.596 91.2154C220.443 83.8311 211.075 79.2501 201.503 78.9766" fill="#081B6A"/>
<path d="M184.957 133.67C183.111 133.67 181.265 133.259 179.624 132.37C176.479 130.661 174.018 127.448 172.924 123.687C172.172 126.08 169.779 127.995 167.044 128.336C164.104 128.678 160.89 127.242 158.429 124.576C156.514 122.456 155.283 119.858 154.258 117.26C153.437 119.311 151.181 120.884 148.719 120.884C146.326 120.884 143.797 119.516 141.951 117.26C140.31 115.14 139.352 112.542 138.669 110.286C138.6 110.081 138.737 109.944 138.874 109.876C139.079 109.807 139.216 109.944 139.284 110.081C139.968 112.269 140.857 114.867 142.429 116.85C144.07 118.969 146.395 120.268 148.651 120.2C151.181 120.2 153.506 118.354 153.779 116.166C153.779 116.029 153.916 115.892 154.053 115.892C154.189 115.892 154.326 115.961 154.394 116.098C155.488 118.969 156.788 121.909 158.839 124.166C161.095 126.627 164.104 127.995 166.838 127.653C169.915 127.311 172.513 124.576 172.377 121.773C172.377 121.567 172.513 121.431 172.65 121.431C172.787 121.431 172.992 121.567 172.992 121.704C173.676 126.012 176.274 129.909 179.761 131.755C183.59 133.806 188.444 133.259 191.385 130.593C194.53 127.721 194.94 122.525 192.273 119.516C192.137 119.38 192.137 119.174 192.273 119.038C192.41 118.901 192.615 118.901 192.752 119.038C195.077 121.636 197.265 123.824 200.136 124.508C201.846 124.918 203.828 124.439 205.196 123.345C206.222 122.525 206.7 121.499 206.7 120.337C206.7 120.2 206.769 120.063 206.905 119.995C207.042 119.927 207.179 119.927 207.247 120.063C211.897 123.892 219.418 123.277 223.452 118.833C227.486 114.388 227.212 106.799 222.905 102.56C222.768 102.423 222.768 102.218 222.905 102.081C223.041 101.944 223.247 101.944 223.383 102.013C224.204 102.628 225.229 102.696 226.323 102.218C227.759 101.602 228.853 100.235 229.127 98.7991C229.469 96.5428 228.511 94.1497 226.187 91.3464C220.101 84.0304 210.803 79.5178 201.367 79.1759C201.162 79.1759 201.025 79.0392 201.025 78.8341C201.025 78.6289 201.162 78.4922 201.367 78.4922C211.076 78.7657 220.512 83.4151 226.734 90.8678C229.195 93.8078 230.152 96.406 229.81 98.8675C229.537 100.508 228.238 102.149 226.597 102.833C225.845 103.107 225.161 103.243 224.477 103.107C228.033 107.688 227.964 114.867 224.067 119.174C219.965 123.755 212.375 124.439 207.452 120.884C207.316 121.978 206.7 122.935 205.743 123.755C204.239 124.986 202.051 125.533 200.136 125.055C197.812 124.508 195.966 123.072 194.325 121.499C195.419 124.644 194.598 128.61 191.932 131.003C190.154 132.781 187.556 133.67 184.957 133.67Z" fill="black"/>
<path d="M142.092 17.6557C142.092 17.6557 149.271 21.006 159.801 18.6813C170.33 16.3566 174.638 12.1174 179.013 15.331C183.389 18.5445 178.808 25.4503 178.808 25.4503C178.808 25.4503 184.552 18.3394 180.996 13.0063C177.441 7.67316 168.826 15.5361 161.578 16.8352C154.331 18.1343 143.733 16.2882 143.733 16.2882L142.092 17.6557Z" fill="#081B6A"/>
<path d="M178.742 25.7864C178.674 25.7864 178.605 25.7864 178.537 25.7181C178.4 25.5813 178.332 25.3762 178.469 25.2394C178.537 25.1711 182.844 18.5388 178.81 15.5988C176.144 13.616 173.477 14.5732 169.101 16.2141C166.708 17.103 163.631 18.197 159.871 19.0175C149.41 21.3422 142.025 17.9919 141.957 17.9235C141.82 17.8551 141.752 17.7867 141.752 17.65C141.752 17.5132 141.752 17.4449 141.889 17.3765L143.461 16.009C143.53 15.9406 143.666 15.9406 143.735 15.9406C143.872 15.9406 154.333 17.7867 161.444 16.4876C163.973 16.0774 166.708 14.7783 169.306 13.5476C174.161 11.2913 178.742 9.17168 181.203 12.7955C184.896 18.2653 179.221 25.3078 179.016 25.6497C178.947 25.7864 178.81 25.7864 178.742 25.7864ZM175.46 13.8211C176.759 13.8211 177.922 14.1629 179.152 15.0518C180.793 16.2141 181.409 18.0602 181.067 20.3849C181.819 18.1286 182.161 15.462 180.588 13.2057C178.469 10.0605 174.298 11.975 169.512 14.1629C166.845 15.3937 164.11 16.6928 161.512 17.103C154.811 18.2653 145.102 16.7611 143.735 16.556L142.709 17.4449C144.487 18.1286 150.982 20.1798 159.666 18.2653C163.358 17.4449 166.366 16.3509 168.759 15.462C171.426 14.6416 173.614 13.8211 175.46 13.8211Z" fill="black"/>
<path d="M180.38 104.473C187.49 109.465 196.652 111.721 205.131 109.943C213.677 108.166 221.335 102.217 224.617 94.1489C227.968 86.0809 226.532 76.1667 220.72 69.7396C217.506 66.1842 212.72 63.6544 207.934 64.2697C210.874 60.9194 213.472 57.2273 214.977 53.0565C216.481 48.8857 216.686 44.0996 214.977 40.0655C213.199 35.9631 209.233 32.7496 204.789 32.5444C200.345 32.3393 195.832 35.6212 195.217 39.9972C196.174 38.0143 194.875 35.4845 192.892 34.5273C190.909 33.57 188.584 33.8435 186.396 34.3222C181.542 35.5529 177.098 38.0827 173.611 41.6381C170.055 45.3303 166.637 50.3899 161.508 50.1164C158.5 49.9797 155.902 47.7234 154.398 45.0568C152.893 42.3902 152.415 39.3818 151.868 36.3734C154.74 32.6128 154.945 27.0062 152.278 23.0405C149.612 19.0749 145.099 17.2972 140.518 18.5279C144.142 16.3399 145.646 11.2803 143.868 7.51975C142.09 3.75921 137.236 1.708 133.27 3.07547C129.305 4.44294 126.775 9.09234 127.8 13.1947C128.963 7.24626 123.493 1.02427 117.408 1.29776C111.322 1.57126 106.536 8.40861 108.246 14.2204C106.263 10.8701 101.271 10.5966 98.0579 12.7161C94.8444 14.8357 93.135 18.5963 91.9043 22.22C90.6736 25.9122 90.6052 28.9206 88.4173 32.1342C91.3573 27.0062 89.101 19.7586 84.0414 16.6134C78.9817 13.4682 72.0076 14.2887 67.3582 17.9809C62.7088 21.6731 60.3158 27.8267 60.4525 33.7068C60.8627 27.3481 56.4868 21.0577 50.47 18.8697C44.4531 16.6818 37.2739 18.6646 32.898 23.314C28.5221 27.9634 27.0179 35.0059 28.7272 41.1595C25.7872 39.1767 21.2745 40.9544 19.7703 44.1679C18.2661 47.3815 19.0182 51.3471 21.001 54.3556C22.9838 57.364 25.8555 59.6203 28.7272 61.7399C25.4453 59.8255 20.8643 61.3981 18.8131 64.5432C16.7619 67.6884 16.7619 71.9276 18.1977 75.4146C19.6335 78.9017 18.9498 81.4999 21.8215 84.0297C21.4796 84.4399 21.1378 84.9185 20.8643 85.3288C22.3685 91.0721 27.7016 94.4224 33.445 95.6532C36.5218 96.3369 39.7353 96.0634 42.8121 96.4736C45.9573 96.8839 49.1709 98.2514 50.6751 101.055C52.9314 105.294 49.9914 110.559 50.8118 115.276C51.7691 120.678 57.5808 124.165 63.0507 123.891C68.5206 123.618 73.3751 120.473 77.4091 116.781C77.5459 123.276 82.4004 129.361 88.6908 130.934C94.9811 132.506 102.16 129.293 105.169 123.55C104.485 127.72 106.741 132.096 110.502 134.011C114.262 135.925 119.185 135.105 122.125 132.165C124.86 129.43 126.843 124.712 130.672 125.054C132.792 125.259 134.364 127.105 136.005 128.541C137.646 129.977 140.176 131.002 141.817 129.635C143.048 128.609 143.116 126.763 143.048 125.122C142.911 120.473 142.706 115.892 142.569 111.242C151.321 115.071 160.278 101.533 169.303 104.747C172.653 105.909 176.482 124.028 179.559 122.25C182.499 120.473 183.388 116.644 183.593 113.225C184.208 103.037 180.858 92.6447 174.363 84.645" fill="#081B6A"/>
<path d="M114.81 135.451C113.238 135.451 111.665 135.109 110.229 134.357C106.811 132.579 104.554 128.819 104.623 124.99C101.136 130.05 94.5035 132.716 88.4866 131.28C82.2646 129.776 77.4101 123.964 76.9998 117.606C72.2821 121.845 67.6327 124.101 62.9833 124.306C57.7185 124.58 51.4282 121.229 50.4026 115.418C50.0607 113.367 50.4026 111.179 50.6761 109.127C51.0863 106.324 51.5649 103.657 50.2658 101.264C48.6249 98.1192 44.7959 97.162 42.6764 96.8885C41.3773 96.6834 40.0098 96.615 38.6423 96.615C36.8646 96.5466 35.0185 96.4783 33.2408 96.068C26.4718 94.6322 21.8225 90.8033 20.3866 85.5385C20.3866 85.4702 20.3866 85.3334 20.455 85.265L21.2755 84.1711C19.5661 82.5301 19.2243 80.8891 18.814 78.9747C18.6089 77.9491 18.3354 76.8551 17.8568 75.6244C16.2158 71.7271 16.4893 67.4196 18.4722 64.4111C20.3182 61.6078 23.7369 60.2403 26.7453 60.719C24.489 58.9412 22.3011 57.0268 20.6601 54.5653C18.8824 51.8304 17.6517 47.6596 19.4294 44.0358C20.3182 42.2581 22.0959 40.7539 24.1471 40.2069C25.583 39.7967 27.0188 39.9334 28.1812 40.4804C26.7453 34.2584 28.4547 27.5578 32.6255 23.0452C37.1381 18.259 44.5224 16.3446 50.5393 18.5325C55.3938 20.3102 59.1544 24.6178 60.3851 29.5407C61.2056 24.7545 63.5986 20.447 67.0857 17.6437C72.0086 13.7464 79.1878 13.131 84.1791 16.2762C88.0763 18.7376 90.2643 23.387 89.9908 27.6946C90.1959 26.9425 90.401 26.1904 90.6062 25.3699C90.8797 24.2759 91.1532 23.1819 91.5634 22.0196C92.6574 18.7376 94.3667 14.6352 97.8538 12.3105C99.7682 11.0798 102.298 10.6012 104.554 11.1482C105.785 11.4217 106.811 11.9687 107.631 12.7892C107.358 10.3277 108.041 7.66114 109.614 5.40482C111.528 2.73825 114.4 1.02892 117.409 0.892169C120.349 0.755422 123.425 2.12289 125.613 4.65271C126.639 5.81506 127.323 7.11415 127.801 8.41325C128.69 5.88343 130.673 3.62711 133.203 2.73825C137.305 1.30241 142.365 3.42199 144.279 7.31927C145.92 10.8063 144.895 15.2506 142.091 17.8488C146.194 17.3018 150.296 19.1479 152.758 22.7717C155.493 26.8057 155.356 32.4807 152.416 36.378C152.894 39.2497 153.441 42.2581 154.877 44.7879C156.108 47.0443 158.569 49.5057 161.715 49.6425C165.749 49.8476 168.689 46.5656 171.629 43.3521C172.244 42.6684 172.928 41.9163 173.543 41.2325C177.099 37.6087 181.543 35.0105 186.466 33.7798C189.269 33.0961 191.389 33.1644 193.166 33.9849C194.397 34.6003 195.354 35.6943 195.833 36.9934C195.833 37.0617 195.901 37.1301 195.901 37.1301C197.542 33.9849 201.234 31.7286 204.995 31.9337C209.371 32.1388 213.542 35.284 215.456 39.6599C217.097 43.5572 217.165 48.275 215.525 52.9244C214.294 56.4114 212.243 59.8301 209.029 63.5906C213.268 63.3172 217.781 65.3684 221.268 69.2656C227.08 75.7611 228.652 85.6753 225.234 94.0852C221.952 102.085 214.362 108.239 205.474 110.085C198.363 111.589 190.568 110.29 183.799 106.666C184.004 108.786 184.073 110.973 183.936 113.093C183.662 117.742 182.227 120.888 179.765 122.392C179.423 122.597 179.081 122.597 178.74 122.529C177.167 121.982 175.663 118.153 173.885 113.777C172.381 109.879 170.603 105.504 169.236 105.025C164.928 103.521 160.552 105.982 156.245 108.375C151.869 110.837 147.425 113.367 142.98 111.726L143.459 125.058C143.527 126.904 143.39 128.751 142.091 129.845C140.314 131.349 137.647 130.392 135.801 128.751C135.528 128.477 135.186 128.204 134.912 127.93C133.613 126.768 132.314 125.537 130.673 125.4C128.075 125.127 126.434 127.383 124.588 129.708C123.904 130.597 123.152 131.554 122.4 132.374C120.28 134.426 117.545 135.451 114.81 135.451ZM105.033 123.281C105.101 123.281 105.101 123.281 105.17 123.281C105.306 123.349 105.443 123.486 105.375 123.691C104.759 127.725 106.879 131.964 110.503 133.81C114.127 135.656 118.844 134.904 121.716 132.032C122.468 131.28 123.152 130.323 123.836 129.434C125.682 127.041 127.528 124.58 130.536 124.853C132.382 125.058 133.818 126.357 135.117 127.588C135.391 127.862 135.733 128.135 136.006 128.409C137.579 129.776 139.972 130.665 141.408 129.503C142.502 128.545 142.57 126.836 142.502 125.264L142.023 111.384C142.023 111.247 142.091 111.179 142.16 111.11C142.228 111.042 142.365 111.042 142.502 111.11C146.809 113.025 151.117 110.563 155.698 108.033C160.074 105.572 164.655 102.974 169.236 104.615C170.945 105.23 172.586 109.401 174.295 113.777C175.731 117.537 177.44 121.708 178.74 122.187C178.876 122.255 179.013 122.255 179.15 122.118C181.475 120.751 182.774 117.742 183.047 113.367C183.184 111.11 183.115 108.785 182.842 106.529C181.953 105.982 181.064 105.435 180.175 104.82C180.039 104.683 179.97 104.478 180.107 104.341C180.244 104.204 180.449 104.136 180.586 104.273C181.269 104.751 182.022 105.23 182.774 105.64C181.748 98.1192 178.74 90.8717 173.953 84.9915C173.817 84.8548 173.885 84.6497 174.022 84.5129C174.159 84.3762 174.364 84.4446 174.5 84.5813C179.492 90.6665 182.637 98.256 183.526 106.119C190.226 109.811 198.021 111.179 205.132 109.674C213.815 107.828 221.2 101.88 224.413 94.0852C227.763 85.9488 226.259 76.3081 220.584 70.0177C217.097 66.1205 212.311 64.0693 208.072 64.6846C207.935 64.6846 207.798 64.6162 207.73 64.4795C207.662 64.3428 207.662 64.206 207.798 64.0693C211.285 60.1036 213.473 56.5482 214.772 52.9244C216.345 48.4117 216.345 43.8991 214.772 40.1385C212.995 35.9678 209.029 33.0277 204.927 32.8226C200.961 32.6175 197.2 35.1473 196.038 38.6343C196.038 39.1813 195.901 39.6599 195.696 40.1385C195.628 40.2753 195.423 40.3437 195.286 40.3437C195.149 40.2753 195.012 40.1385 195.081 40.0018C195.149 39.5232 195.286 39.0446 195.423 38.6343C195.423 38.2241 195.354 37.8138 195.218 37.5403C194.876 36.4464 193.987 35.4891 192.961 34.9422C191.389 34.19 189.406 34.1217 186.739 34.8054C182.022 35.9678 177.509 38.5659 174.159 42.053C173.543 42.7367 172.859 43.4205 172.244 44.1042C169.236 47.4545 166.159 50.8732 161.783 50.5997C158.911 50.4629 156.108 48.4801 154.399 45.4033C152.894 42.6684 152.347 39.5916 151.869 36.5831C151.869 36.5147 151.869 36.378 151.937 36.3096C154.74 32.6175 154.877 27.216 152.347 23.387C149.749 19.5581 145.237 17.8488 140.929 19.0111C140.792 19.0795 140.587 18.9428 140.519 18.806C140.45 18.6693 140.519 18.4642 140.656 18.3958C144.143 16.3446 145.578 11.4901 143.869 7.79789C142.16 4.17409 137.442 2.19126 133.681 3.55873C130.947 4.51596 128.964 7.04578 128.348 9.84909C128.622 11.0114 128.622 12.2422 128.417 13.4045C128.417 13.5413 128.28 13.678 128.075 13.678C127.938 13.678 127.801 13.5413 127.733 13.4045C127.459 12.2422 127.459 11.0114 127.665 9.84909C127.323 8.20813 126.502 6.56717 125.272 5.1997C123.22 2.875 120.417 1.5759 117.614 1.71265C114.879 1.8494 112.144 3.42199 110.366 5.95181C108.588 8.48162 107.973 11.5584 108.725 14.225C108.794 14.3617 108.725 14.5669 108.52 14.6352C108.383 14.7036 108.178 14.6352 108.11 14.4985C107.153 12.9259 105.648 12.2422 104.554 12.037C102.503 11.5584 100.11 11.9687 98.4007 13.131C95.0504 15.319 93.4095 19.2846 92.3839 22.4982C91.9736 23.6605 91.7685 24.7545 91.495 25.7801C90.948 28.1048 90.401 30.2244 88.8968 32.4807C88.7601 32.6175 88.555 32.6858 88.4182 32.5491C88.2815 32.4807 88.2131 32.2756 88.2815 32.0705C91.0848 27.216 89.102 20.1735 84.0423 16.9599C79.3245 14.0199 72.4872 14.5669 67.7694 18.3274C63.8038 21.4726 61.274 26.8057 61.0005 32.4123C61.0005 32.891 61.0005 33.3696 61.0005 33.8482C61.0005 34.0533 60.8637 34.1217 60.6586 34.19C60.4535 34.19 60.3167 34.0533 60.3167 33.8482C60.3167 33.3696 60.3167 32.891 60.3167 32.4123C60.0432 26.7373 56.0776 21.2675 50.5393 19.353C44.7959 17.3018 37.6851 19.0795 33.3092 23.7289C29.07 28.2416 27.4974 35.0789 29.2068 41.3009C29.2752 41.4376 29.2068 41.5744 29.07 41.6428C28.9333 41.7111 28.7965 41.7111 28.6598 41.6428C27.4975 40.8223 25.9932 40.6172 24.4206 41.0274C22.5746 41.506 20.9336 42.8735 20.1131 44.4461C18.4722 47.7964 19.6345 51.762 21.3438 54.2919C23.2583 57.3003 26.1984 59.4882 29.0017 61.6078C29.1384 61.7446 29.2068 61.9497 29.07 62.0864C28.9333 62.2232 28.7965 62.2915 28.5914 62.2232C25.6514 60.5138 21.2071 61.7446 19.0875 64.8897C17.2414 67.6931 16.9679 71.7271 18.5405 75.4876C19.0875 76.7184 19.2926 77.8807 19.5661 78.9063C19.9764 80.7524 20.3182 82.3933 22.0959 83.8976C22.2327 84.0343 22.2327 84.2394 22.1643 84.3762L21.2755 85.5385C22.6429 90.4614 27.1556 94.0852 33.5827 95.4527C35.292 95.7945 37.1381 95.9313 38.8474 95.9997C40.2149 96.068 41.5824 96.1364 42.8815 96.2732C45.1378 96.615 49.1718 97.6406 51.0179 100.991C52.3854 103.521 51.9068 106.461 51.4965 109.264C51.1547 111.315 50.8812 113.367 51.223 115.349C52.1803 120.751 58.1288 123.896 63.12 123.691C67.701 123.486 72.4872 121.093 77.205 116.648C77.2733 116.58 77.4785 116.512 77.5468 116.58C77.6836 116.648 77.752 116.785 77.752 116.922C77.8203 123.281 82.6065 129.229 88.7601 130.733C94.9137 132.238 101.888 129.161 104.896 123.554C104.828 123.349 104.896 123.281 105.033 123.281Z" fill="black"/>
<path d="M185.851 97.9865C194.261 99.8326 203.491 99.901 211.081 95.7986C214.704 93.8841 217.986 90.6022 218.192 86.4998C218.397 82.3974 213.816 78.4317 210.192 80.3462C213.064 77.0643 215.935 73.6456 217.371 69.5432C218.807 65.4408 218.533 60.4495 215.525 57.3043C212.517 54.1592 206.431 54.2275 204.312 57.9881C207.32 54.2275 205.816 48.0739 201.919 45.2022C198.021 42.3305 192.62 42.1938 188.039 43.7664C183.458 45.2706 179.492 48.2107 175.595 51.1507C179.082 48.8944 180.381 43.8348 178.467 40.1426C176.552 36.4504 174.638 34.0574 170.809 35.6299C171.834 35.4248 169.92 35.8351 170.945 35.6983C172.108 33.1685 170.877 29.8182 168.347 28.6559C168.826 24.6902 164.313 21.545 160.348 21.8869C156.314 22.2287 152.963 24.8269 149.818 27.2884C149.203 21.2715 143.254 16.417 137.237 16.964C131.22 17.5793 126.298 23.5278 126.913 29.5447C125.956 24.9637 121.17 21.8185 116.452 21.8185C111.734 21.8185 107.358 24.3483 104.145 27.767C100.931 31.1857 98.6747 35.3565 96.5551 39.5272C90.9485 34.9462 82.1283 36.7239 76.7268 41.5101C71.3253 46.2962 69.5476 52.9968 66.881 59.7658C62.0949 53.2703 52.9328 50.3302 45.275 52.7917C37.5488 55.2531 31.8054 62.911 31.6687 71.0474C26.0621 68.7227 18.9512 70.5688 15.1907 75.4233C11.4985 80.2778 11.4985 87.6622 15.2591 92.4483C10.8148 90.8073 6.23377 96.0721 6.98588 100.721C7.73798 105.371 11.8404 108.79 16.0796 110.841C10.5413 111.524 7.05425 118.088 8.55847 123.49C10.0627 128.823 15.3274 132.515 20.7973 133.404C26.2672 134.224 31.8738 132.72 36.9335 130.396C38.0274 134.498 43.7024 137.37 47.7365 136.002C51.7705 134.635 54.0268 129.507 52.3859 125.609C53.9585 130.259 60.9325 131.216 64.6247 128.003C68.3169 124.789 69.0006 119.114 67.7699 114.396C71.8723 119.524 79.9404 120.892 85.4786 117.336C91.0169 113.781 93.1365 105.849 90.1964 100.038C92.3843 99.1489 94.6407 101.405 95.0509 103.662C95.4611 105.918 94.709 108.243 94.5039 110.567C94.0253 117.2 99.2217 123.832 105.786 124.926C112.418 126.02 119.392 121.37 121.033 114.875C122.195 119.524 127.392 122.669 132.178 122.054C136.964 121.439 140.998 117.541 142.365 112.96C143.733 108.379 140.177 94.7046 137.648 90.6706C149.476 92.3116 164.313 98.0549 174.433 91.6962" fill="#2194FF"/>
<path d="M45.6155 136.611C44.1113 136.611 42.5387 136.201 41.0345 135.449C38.9149 134.355 37.4107 132.646 36.7953 130.8C30.8468 133.466 25.5821 134.424 20.7959 133.671C14.7107 132.714 9.65104 128.68 8.28357 123.552C7.46309 120.612 8.07845 117.262 9.85616 114.595C11.2236 112.544 13.0697 111.245 15.1209 110.698C11.9757 108.989 7.53146 105.775 6.71098 100.784C6.30074 98.1172 7.53146 95.1088 9.78779 93.2627C11.2236 92.1003 12.933 91.5533 14.5056 91.8268C11.2236 86.904 11.3604 79.9299 14.9842 75.1437C18.6763 70.2892 25.6504 68.3064 31.3938 70.4943C31.7357 62.4263 37.479 54.9052 45.2052 52.4437C52.8631 49.9823 61.8884 52.7856 66.8113 59.076C67.2215 58.1187 67.5634 57.0931 67.9052 56.1359C69.9564 50.5976 71.9393 45.3329 76.4519 41.3672C81.7167 36.7178 90.5369 34.6666 96.3486 39.1109C98.4682 35.1452 100.656 31.0428 103.801 27.6242C107.425 23.7952 112.006 21.5389 116.314 21.5389C120.621 21.5389 124.724 24.0687 126.433 27.5558C126.98 22.1543 131.629 17.2314 137.099 16.6844C143.048 16.1374 149.065 20.7868 149.953 26.6669C152.757 24.4106 156.175 21.8808 160.209 21.5389C162.603 21.3338 165.269 22.3594 166.91 24.0687C168.141 25.3678 168.756 26.8721 168.619 28.4446C170.876 29.6754 172.106 32.547 171.491 35.0769C175.252 34.0513 177.166 36.923 178.807 40.0681C180.243 42.7347 179.969 46.1534 178.397 48.7516C181.337 46.632 184.414 44.7175 187.901 43.5552C193.165 41.7775 198.43 42.3928 202.054 45.0594C204.242 46.7004 205.746 49.2985 206.088 52.1019C206.293 53.4693 206.156 54.8368 205.746 55.9991C206.567 55.4522 207.592 55.0419 208.755 54.9052C211.353 54.5633 213.951 55.4522 215.66 57.1615C218.532 60.1016 219.284 65.0244 217.643 69.7422C216.276 73.5028 213.677 76.7163 211.216 79.6564C212.447 79.3829 213.746 79.6564 215.045 80.4769C217.165 81.8443 218.532 84.2374 218.464 86.5621C218.19 91.7585 213.267 94.972 211.148 96.1344C202.601 100.715 192.618 99.8949 185.713 98.3223C185.508 98.2539 185.439 98.1172 185.439 97.9121C185.439 97.707 185.644 97.6386 185.85 97.6386C192.618 99.1428 202.464 99.9633 210.806 95.519C214.977 93.2627 217.575 89.9124 217.78 86.5621C217.848 84.5109 216.618 82.2546 214.703 81.0922C213.199 80.2034 211.626 80.0666 210.327 80.7503C210.19 80.8187 209.985 80.8187 209.917 80.682C209.78 80.5452 209.849 80.3401 209.917 80.2717C212.584 77.1949 215.592 73.7079 217.028 69.6055C218.6 65.1612 217.917 60.5118 215.25 57.7085C213.678 56.1359 211.284 55.3154 208.891 55.6573C207.319 55.8624 205.951 56.5461 205.062 57.5717C204.926 57.8452 204.721 58.1187 204.515 58.3922C204.379 58.529 204.174 58.529 204.037 58.4606C203.9 58.3922 203.832 58.1871 203.9 57.982C204.037 57.7085 204.242 57.435 204.447 57.1615C205.268 55.7257 205.609 54.0163 205.336 52.2386C204.994 49.6404 203.627 47.179 201.575 45.6748C198.157 43.0766 193.097 42.5979 188.037 44.2389C183.73 45.6748 180.038 48.3413 176.482 51.0079C176.209 51.213 176.004 51.4181 175.73 51.5549C175.593 51.6232 175.388 51.6232 175.252 51.4865C175.115 51.3498 175.183 51.1446 175.32 51.0079C175.593 50.8028 175.799 50.666 176.072 50.4609C178.875 48.0678 179.833 43.6919 178.123 40.41C176.209 36.6495 174.499 34.8034 171.354 35.829C171.286 35.8973 171.218 35.9657 171.081 35.9657C171.012 36.0341 170.944 36.0341 170.876 36.0341C170.534 36.1025 170.26 36.1708 170.192 35.829C170.124 35.5555 170.26 35.4871 170.465 35.4187C170.465 35.4187 170.534 35.3504 170.602 35.3504C171.491 33.0257 170.329 30.0172 168.072 28.9916C167.936 28.9233 167.867 28.7865 167.867 28.6498C168.072 27.2139 167.525 25.7781 166.363 24.6157C164.79 22.9748 162.397 22.0859 160.209 22.291C156.175 22.6329 152.688 25.4362 149.885 27.6242C149.817 27.6925 149.68 27.6925 149.543 27.6925C149.406 27.6242 149.338 27.5558 149.338 27.419C148.791 21.5389 142.979 16.8212 137.168 17.3681C131.356 17.9151 126.57 23.7269 127.117 29.5386C127.117 29.7437 126.98 29.8805 126.843 29.8805C126.638 29.8805 126.501 29.8121 126.433 29.607C125.544 25.4362 121.1 22.1543 116.314 22.1543C112.211 22.1543 107.835 24.2739 104.28 28.0344C101.066 31.4531 98.8784 35.6239 96.6905 39.7263C96.6221 39.7946 96.5537 39.863 96.4854 39.9314C96.417 39.9314 96.2802 39.9314 96.2119 39.863C90.6736 35.282 81.9902 37.3332 76.8622 41.8458C72.4863 45.7431 70.5718 50.8711 68.5206 56.341C68.1104 57.5034 67.6318 58.6657 67.1531 59.8281C67.0848 59.9648 67.0164 60.0332 66.8796 60.0332C66.7429 60.0332 66.6061 59.9648 66.5378 59.8964C61.82 53.4693 52.8631 50.5976 45.2736 52.9907C37.6842 55.3838 32.0775 62.9732 31.9408 70.9046C31.9408 71.0413 31.8724 71.1097 31.804 71.1781C31.7357 71.2464 31.5989 71.2464 31.4622 71.1781C25.9239 68.8534 19.0182 70.6994 15.3944 75.4856C11.7706 80.2717 11.7706 87.3826 15.4628 92.1003C15.5312 92.2371 15.5312 92.3738 15.4628 92.5106C15.3944 92.6473 15.1893 92.6473 15.0525 92.6473C13.4116 92.032 11.6339 92.3738 10.0613 93.6729C8.01007 95.3823 6.84773 98.1172 7.25797 100.579C8.07845 105.775 13.2065 108.989 16.2149 110.424C16.3516 110.493 16.42 110.63 16.42 110.766C16.42 110.903 16.2833 111.04 16.1465 111.04C13.8902 111.313 11.839 112.681 10.4031 114.869C8.76218 117.399 8.21519 120.544 8.9673 123.279C10.3348 128.133 15.1209 132.03 20.9327 132.919C25.6504 133.671 30.8468 132.646 36.8637 129.911C36.9321 129.842 37.0688 129.842 37.1372 129.911C37.2055 129.979 37.2739 130.048 37.3423 130.116C37.8209 131.962 39.3251 133.603 41.3763 134.697C43.4959 135.791 45.889 136.133 47.7351 135.449C49.5811 134.834 51.0854 133.33 51.9742 131.347C52.7947 129.569 52.8631 127.586 52.3161 125.945C52.2477 125.808 52.1793 125.603 52.111 125.467C52.0426 125.261 52.111 125.125 52.3161 125.056C52.4528 124.988 52.658 125.056 52.7263 125.261C52.7947 125.398 52.8631 125.603 52.9314 125.74C53.6152 127.313 55.1194 128.543 57.0339 129.022C59.6321 129.774 62.5721 129.159 64.4866 127.518C68.4522 124.099 68.589 118.219 67.495 114.253C67.4266 114.117 67.495 113.911 67.7001 113.843C67.8369 113.775 68.042 113.775 68.1104 113.911C72.076 118.903 80.0073 120.202 85.3405 116.783C90.742 113.296 92.7932 105.57 89.9215 99.8949C89.8531 99.8265 89.8531 99.6898 89.9215 99.6214C89.9215 99.553 90.0582 99.4847 90.1266 99.4163C91.0155 99.0744 91.9727 99.1428 92.9299 99.6898C94.229 100.374 95.1863 101.809 95.4598 103.382C95.7332 104.955 95.4597 106.527 95.2546 108.031C95.1179 108.783 94.9811 109.604 94.9128 110.356C94.4342 116.92 99.4254 123.279 105.921 124.304C112.416 125.33 119.185 120.886 120.758 114.527C120.826 114.39 120.963 114.253 121.1 114.253C121.237 114.253 121.373 114.39 121.442 114.527C122.536 118.903 127.459 122.048 132.176 121.433C136.621 120.886 140.723 117.193 142.09 112.544C143.458 108.1 139.903 94.4934 137.373 90.5277C137.304 90.391 137.304 90.2543 137.373 90.1859C137.441 90.1175 137.578 90.0491 137.715 90.0491C140.586 90.4594 143.526 91.0747 146.671 91.6901C156.517 93.7413 166.705 95.8609 174.294 91.0747C174.431 91.0064 174.636 91.0064 174.773 91.2115C174.841 91.3482 174.841 91.5534 174.636 91.6901C166.842 96.613 156.517 94.425 146.535 92.3738C143.663 91.7585 140.928 91.2115 138.33 90.8012C140.928 95.5874 144.073 108.236 142.774 112.749C141.338 117.672 137.031 121.501 132.313 122.116C127.595 122.732 122.809 119.928 121.168 115.758C119.049 121.843 112.28 126.014 105.853 124.988C99.0152 123.894 93.7504 117.125 94.2974 110.288C94.3658 109.467 94.5025 108.715 94.6393 107.895C94.9128 106.322 95.1179 104.886 94.8444 103.45C94.6393 102.151 93.7504 100.852 92.6564 100.305C92.2462 100.032 91.5625 99.8265 90.8104 99.9633C93.6137 105.912 91.3573 113.775 85.8191 117.399C80.5543 120.817 72.9649 119.792 68.589 115.416C69.3411 119.518 68.8625 124.783 65.1019 128.065C63.0507 129.842 59.9055 130.458 57.0339 129.706C55.598 129.296 54.3673 128.543 53.4784 127.586C53.6152 128.954 53.3417 130.389 52.7263 131.689C51.7691 133.808 50.0598 135.449 48.0769 136.133C47.1881 136.475 46.436 136.611 45.6155 136.611Z" fill="black"/>
<path d="M198.429 27.2139C197.472 26.5985 196.309 26.325 195.489 25.5045C194.19 24.1371 194.532 21.8124 195.421 20.1714C196.309 18.4621 197.677 17.0262 198.224 15.1801C199.386 11.2145 196.241 7.04368 192.344 5.60784C188.447 4.172 184.207 4.85573 180.173 5.67621C168.14 8.00091 164.789 17.7783 143.73 15.2485C143.32 15.3169 142.91 17.2313 142.021 17.6416C150.636 20.103 160.687 18.4621 168.823 14.7699C171.832 13.4024 175.045 11.6247 178.191 13.0605C181.131 14.3596 182.361 17.8467 181.472 20.9235C179.9 26.1883 174.43 28.3078 169.439 28.6497C165.336 28.9232 160.55 28.513 157.952 31.6581C156.926 32.8889 156.448 34.4614 155.559 35.8289C153.303 39.3843 148.79 40.7518 144.688 41.5039C141.406 42.1193 138.807 41.7774 136.004 42.1876C133.611 42.5295 131.902 44.9226 132.654 47.2473C132.654 47.2473 132.654 47.2473 132.654 47.3157C132.996 48.478 134.09 49.2301 135.115 49.9138C136.551 50.8711 138.055 52.0334 137.44 54.153C137.166 55.247 136.414 56.1358 135.457 56.6828C111.116 71.4515 80.4848 73.5027 57.1695 89.6388C53.6824 92.0319 50.3321 94.8352 48.1442 98.5274C46.0246 102.22 45.2041 106.869 47.0502 110.766C48.486 113.843 51.4261 116.236 51.9731 119.586C52.3833 122.116 49.6484 132.236 40.6915 134.902C32.2132 137.432 27.0851 135.996 19.6324 133.261L14.8463 131.347C14.7779 137.09 20.7264 149.124 26.2647 150.628C42.3324 154.867 52.3833 136.406 54.708 130.526C57.7848 122.8 55.255 112.886 60.93 106.869C64.6222 102.972 70.4339 102.288 75.7671 101.399C86.8436 99.553 96.621 95.2455 107.15 91.3482C116.107 88.0662 125.201 84.6476 132.996 79.1093C140.79 73.5711 135.936 57.8452 148.995 52.9907C159.456 48.6831 166.294 49.025 168.345 47.7943C171.353 46.0849 174.02 43.6919 177.302 42.4611C180.789 41.162 184.686 41.2988 188.447 41.0253C192.207 40.7518 196.173 39.9313 198.771 37.1964C201.369 34.4614 201.643 29.1967 198.429 27.2139ZM167.729 39.1108C165.747 41.2304 154.807 50.4608 150.226 48.2729C147.696 47.0422 153.781 44.0337 156.038 42.3928C158.636 40.4783 161.234 38.6322 163.832 36.7178C164.858 35.9657 165.952 35.2136 167.251 35.4187C167.866 35.487 168.481 35.8973 168.687 36.4443C169.165 37.4699 168.413 38.3587 167.729 39.1108Z" fill="#FF69C6"/>
<path d="M30.9155 151.515C29.4113 151.515 27.8387 151.31 26.1977 150.9C20.4544 149.396 14.5059 137.089 14.5059 131.277C14.5059 131.14 14.5742 131.072 14.6426 131.003C14.711 130.935 14.8477 130.935 14.9845 131.003L19.7706 132.918C27.155 135.584 32.2146 137.089 40.6245 134.559C49.4447 131.892 51.9745 121.91 51.6327 119.585C51.2908 117.602 50.1284 116.03 48.8977 114.32C48.0772 113.226 47.2568 112.132 46.7098 110.902C45.0004 107.278 45.4107 102.492 47.8037 98.3892C50.1284 94.3551 53.889 91.4835 56.8974 89.3639C69.273 80.8172 83.9049 76.0994 98.0583 71.5868C110.707 67.5527 123.767 63.3136 135.253 56.4079C136.142 55.8609 136.826 55.0404 137.099 54.0832C137.578 52.2371 136.347 51.2115 134.912 50.2542C133.954 49.5705 132.724 48.8184 132.313 47.4509C131.971 46.2202 132.108 44.9895 132.792 43.8955C133.476 42.8015 134.638 42.0494 135.937 41.8443C137.236 41.6392 138.399 41.6392 139.629 41.5708C141.202 41.5024 142.774 41.5024 144.621 41.1606C148.381 40.4768 153.031 39.1777 155.287 35.6223C155.629 35.0753 155.902 34.46 156.176 33.913C156.586 33.0925 156.996 32.2036 157.68 31.4515C160.005 28.7166 163.765 28.5115 167.457 28.3747C168.141 28.3747 168.756 28.3064 169.44 28.3064C172.38 28.1012 179.354 27.0073 181.2 20.8536C182.089 17.8452 180.79 14.6317 178.124 13.4009C175.389 12.1702 172.585 13.4693 169.85 14.7684C169.577 14.9052 169.303 15.0419 169.03 15.1786C160.073 19.2811 149.954 20.375 141.954 18.0503C141.817 17.982 141.749 17.9136 141.681 17.7768C141.681 17.6401 141.749 17.5033 141.886 17.435C142.296 17.2299 142.638 16.4777 142.911 15.9991C143.185 15.4521 143.321 15.1103 143.663 15.0419C143.732 15.0419 143.732 15.0419 143.8 15.0419C157.27 16.6829 163.423 13.2642 169.303 9.98226C172.654 8.13618 175.799 6.35847 180.175 5.53799C184.277 4.7175 188.585 4.10214 192.55 5.46961C196.516 6.90546 199.866 11.213 198.636 15.4521C198.294 16.6829 197.542 17.7085 196.858 18.7341C196.448 19.2811 196.106 19.8964 195.764 20.5118C194.943 22.0844 194.602 24.2723 195.764 25.503C196.243 25.9817 196.79 26.2552 197.473 26.5286C197.884 26.7338 198.225 26.8705 198.636 27.144C200.003 27.9645 200.824 29.4003 201.097 31.178C201.371 33.4344 200.55 35.8958 199.046 37.4684C196.174 40.5452 191.662 41.1606 188.516 41.3657C187.696 41.4341 186.875 41.4341 186.055 41.5024C183.183 41.6392 180.175 41.7759 177.508 42.8015C175.457 43.5536 173.611 44.8527 171.833 46.0835C170.808 46.7672 169.714 47.5193 168.62 48.1347C167.799 48.6133 166.432 48.8184 164.381 49.1603C160.962 49.7073 155.834 50.5961 149.202 53.331C141.817 56.066 140.313 62.288 138.809 68.3048C137.715 72.7491 136.621 76.9883 133.271 79.4497C125.408 85.0563 116.177 88.475 107.289 91.7569C105.169 92.5091 103.118 93.3295 101.135 94.0816C92.7251 97.2952 84.7938 100.304 75.8369 101.808L74.7429 102.013C69.7516 102.833 64.5552 103.654 61.2049 107.209C57.8546 110.696 57.4444 115.551 56.9658 120.679C56.6239 124.098 56.3504 127.653 55.0513 130.798C51.9745 138.319 43.2911 151.515 30.9155 151.515ZM15.1896 131.824C15.4631 137.567 21.2065 148.917 26.3345 150.216C44.3851 154.934 54.2992 130.525 54.3676 130.32C55.5983 127.243 55.8718 123.756 56.2137 120.405C56.6923 115.414 57.1709 110.218 60.658 106.526C64.145 102.833 69.4781 101.945 74.5378 101.124L75.6317 100.919C84.4519 99.4148 92.3833 96.4063 100.793 93.1928C102.844 92.4407 104.896 91.6202 107.015 90.8681C115.835 87.5862 124.997 84.2359 132.792 78.6976C136.006 76.4413 137.031 72.3389 138.057 67.963C139.493 62.0829 141.134 55.3823 148.86 52.5106C155.56 49.7756 160.688 48.8868 164.175 48.3398C166.09 47.9979 167.457 47.7928 168.209 47.3826C169.303 46.7672 170.329 46.0151 171.355 45.3314C173.201 44.1006 175.047 42.8015 177.166 41.9811C179.97 40.9554 183.046 40.7503 185.987 40.6136C186.807 40.5452 187.628 40.5452 188.448 40.4768C193.234 40.135 196.448 38.9726 198.567 36.7847C199.935 35.3488 200.687 33.0925 200.413 31.0413C200.208 29.4687 199.456 28.238 198.294 27.4859C197.952 27.2808 197.61 27.0756 197.2 26.9389C196.516 26.597 195.832 26.3235 195.285 25.7765C193.781 24.2039 194.26 21.6741 195.149 20.0332C195.49 19.4178 195.901 18.8024 196.243 18.2555C196.926 17.2299 197.61 16.2726 197.884 15.1103C199.046 11.2814 195.901 7.3157 192.277 6.0166C188.516 4.64913 184.277 5.26449 180.243 6.08497C176.004 6.90546 172.927 8.61479 169.577 10.4609C163.56 13.8112 157.338 17.2299 143.8 15.6573C143.732 15.794 143.595 16.0675 143.458 16.2726C143.253 16.6829 142.98 17.2299 142.706 17.5717C150.432 19.5545 160.073 18.4606 168.688 14.5633C168.962 14.4265 169.235 14.2898 169.509 14.153C172.243 12.8539 175.32 11.4181 178.329 12.7856C181.337 14.153 182.773 17.7085 181.816 21.0588C179.833 27.6226 172.517 28.785 169.44 28.9901C168.825 29.0585 168.141 29.0585 167.457 29.0585C163.902 29.1952 160.278 29.332 158.159 31.8618C157.612 32.5455 157.201 33.366 156.791 34.1865C156.518 34.8018 156.176 35.4172 155.834 35.9642C153.441 39.7247 148.655 41.0238 144.689 41.7759C142.775 42.1178 141.202 42.1862 139.629 42.2545C138.399 42.3229 137.236 42.3229 136.006 42.528C134.912 42.6648 133.954 43.2801 133.339 44.2374C132.792 45.1262 132.587 46.1518 132.929 47.1774C133.271 48.2714 134.365 49.0235 135.253 49.6389C136.416 50.4594 138.399 51.7585 137.783 54.2199C137.51 55.3139 136.689 56.2711 135.664 56.9548C124.109 63.9289 111.049 68.1681 98.3317 72.2021C84.2468 76.7148 69.6833 81.3642 57.376 89.9109C54.436 91.9621 50.7438 94.8337 48.4875 98.731C46.2312 102.628 45.7525 107.209 47.3935 110.628C47.9405 111.79 48.761 112.884 49.5131 113.978C50.7438 115.688 52.0429 117.397 52.3848 119.517C52.8634 122.525 49.6498 132.644 40.898 135.242C32.283 137.841 27.0866 136.336 19.6339 133.602L15.1896 131.824ZM151.868 48.8868C151.184 48.8868 150.569 48.75 150.09 48.4765C149.612 48.203 149.338 47.9295 149.27 47.4509C149.202 46.2886 151.184 44.9211 153.919 43.2118C154.671 42.7332 155.355 42.3229 155.834 41.9811L163.628 36.3061C164.586 35.6223 165.816 34.7335 167.321 34.9386C168.073 35.0753 168.756 35.4856 169.03 36.1693C169.645 37.5368 168.551 38.6307 167.936 39.2461C166.705 40.682 157.406 48.8868 151.868 48.8868ZM166.842 35.6907C165.748 35.6907 164.859 36.3744 164.039 36.9898L156.244 42.6648C155.765 43.0067 155.013 43.4853 154.33 43.9639C152.552 45.0579 149.954 46.6988 149.954 47.5877C149.954 47.7244 150.09 47.8612 150.364 47.9979C154.671 50.1175 165.133 41.3657 167.457 38.9042C168.278 38.0154 168.756 37.3317 168.415 36.5795C168.209 36.1693 167.799 35.8274 167.252 35.7591C167.115 35.6907 166.979 35.6907 166.842 35.6907Z" fill="#000207"/>
<path d="M137.505 77.6685C137.505 77.6685 140.172 71.7884 141.745 64.5408C143.317 57.2933 149.334 52.7122 156.035 51.0713C162.735 49.4303 169.367 49.2252 169.367 49.2252L171.214 46.4219C171.214 46.4219 151.659 49.0884 145.437 52.849C139.215 56.6095 139.215 63.1734 137.369 69.327C135.523 75.549 130.121 78.4207 130.121 78.4207L137.505 77.6685Z" fill="#081B6A"/>
<path d="M130.187 78.8368C130.05 78.8368 129.914 78.7685 129.845 78.6317C129.777 78.495 129.845 78.2898 129.982 78.2215C130.05 78.2215 135.247 75.2814 137.093 69.2645C137.503 67.8971 137.845 66.5296 138.118 65.1621C139.281 60.2392 140.375 55.5899 145.298 52.5814C151.52 48.8209 170.391 46.2227 171.143 46.0859C171.28 46.0859 171.416 46.1543 171.485 46.2227C171.553 46.3594 171.553 46.4962 171.485 46.5645L169.639 49.3679C169.57 49.4362 169.502 49.5046 169.365 49.5046C169.297 49.5046 162.664 49.7781 156.101 51.3507C148.648 53.1968 143.451 58.1197 142.084 64.5468C140.58 71.726 137.845 77.6745 137.845 77.7429C137.777 77.8796 137.708 77.948 137.571 77.948L130.187 78.8368ZM170.527 46.9064C166.904 47.4534 151.041 49.9149 145.639 53.1968C140.922 56.0685 139.896 60.5811 138.802 65.3673C138.46 66.7347 138.187 68.1706 137.708 69.538C136.341 74.0507 133.264 76.7856 131.486 78.0847L137.23 77.4694C137.708 76.4438 139.964 71.0423 141.332 64.6151C142.768 57.9145 148.169 52.7865 155.895 50.8721C161.912 49.3679 167.998 49.026 169.16 49.026L170.527 46.9064Z" fill="black"/>
<path d="M151.589 48.0743C151.589 48.0743 148.786 48.8947 156.991 42.8095C165.195 36.7243 166.495 35.6303 167.999 36.5191C169.093 37.1345 167.794 39.1173 167.794 39.1173C167.794 39.1173 172.717 34.0577 168.341 32.7586C164.785 31.733 162.119 37.2029 155.76 41.0318C149.401 44.9291 145.709 48.211 151.589 48.0743Z" fill="#081B6A"/>
<path d="M151.319 48.4933C151.251 48.4933 151.182 48.4933 151.114 48.425C149.473 48.425 148.584 48.0831 148.379 47.331C148.174 46.5105 148.653 45.0063 155.558 40.7671C158.088 39.1946 160.003 37.4168 161.712 35.8443C164.173 33.5879 166.088 31.7418 168.413 32.4256C169.507 32.7674 170.19 33.3144 170.395 34.1349C170.942 36.2545 168.139 39.1946 168.002 39.3313C167.866 39.468 167.66 39.468 167.524 39.3313C167.387 39.1946 167.387 38.9894 167.455 38.8527C167.66 38.5108 168.207 37.622 168.071 37.075C168.071 36.9382 167.934 36.8015 167.797 36.7331C166.635 36.0494 165.472 36.8699 158.704 41.8611L157.131 43.0235C153.097 46.0319 151.935 47.1943 151.593 47.6729C151.729 47.6729 151.866 47.8096 151.935 47.9464C151.935 48.0831 151.866 48.2882 151.661 48.3566C151.524 48.4933 151.456 48.4933 151.319 48.4933ZM167.387 32.9726C165.746 32.9726 164.173 34.4084 162.122 36.3229C160.413 37.8955 158.498 39.7415 155.9 41.3141C149.131 45.4849 148.926 46.784 148.994 47.1259C149.063 47.2626 149.268 47.6045 150.772 47.6729C150.977 47.1259 152.208 45.8268 156.721 42.4765L158.293 41.3141C165.267 36.1177 166.498 35.2289 168.071 36.1177C168.344 36.2545 168.549 36.528 168.618 36.8699C168.618 37.0066 168.686 37.075 168.686 37.2117C169.301 36.2545 169.917 35.0921 169.643 34.2717C169.507 33.7247 168.96 33.3144 168.139 33.0409C167.934 33.0409 167.66 32.9726 167.387 32.9726Z" fill="black"/>
<path d="M13.1367 95.6755C12.453 94.0345 12.6581 92.1201 13.6837 90.6158C14.7093 89.18 16.487 88.2911 18.1964 88.4279" fill="#2194FF"/>
<path d="M13.137 96.0087C13.0002 96.0087 12.8635 95.9403 12.7951 95.8036C12.043 94.0943 12.2481 91.9747 13.3421 90.4705C14.4361 88.9662 16.2821 88.009 18.1966 88.1458C18.4017 88.1458 18.5385 88.3509 18.5385 88.4876C18.5385 88.6928 18.4017 88.8295 18.1966 88.8295C16.5556 88.7611 14.9147 89.5132 13.9574 90.8807C13.0002 92.2482 12.7951 94.0943 13.4788 95.5985C13.5472 95.8036 13.4788 95.9403 13.2737 96.0771C13.2053 96.0087 13.2053 96.0087 13.137 96.0087Z" fill="black"/>
<path d="M28.7323 80.953C27.5699 78.7651 26.8862 76.3036 27.1597 73.8422C27.5016 71.3807 29.0742 68.9877 31.3988 68.2355C33.7235 67.4834 36.732 68.7142 37.3473 71.1072" fill="#2194FF"/>
<path d="M28.7304 81.3038C28.5936 81.3038 28.4569 81.2355 28.4569 81.0987C27.0894 78.5005 26.5424 76.0391 26.8843 73.7828C27.2261 71.0478 29.0722 68.6547 31.3969 67.9026C32.696 67.4924 34.2686 67.6291 35.5677 68.3129C36.73 68.9282 37.4822 69.8855 37.7556 71.0478C37.824 71.2529 37.6873 71.3897 37.4822 71.4581C37.277 71.5264 37.1403 71.3897 37.0719 71.1846C36.7984 70.2273 36.1831 69.4069 35.1575 68.9282C34.0635 68.3129 32.696 68.1761 31.5337 68.518C29.4825 69.2017 27.8415 71.3213 27.4996 73.8511C27.2261 75.9707 27.7047 78.2954 29.0038 80.7568C29.0722 80.8936 29.0038 81.0987 28.8671 81.2355C28.7987 81.2355 28.7987 81.3038 28.7304 81.3038Z" fill="black"/>
<path d="M120.754 29.5506C121.301 27.0891 124.104 25.4482 126.566 25.9268C129.095 26.337 131.078 28.525 131.762 30.918" fill="#2194FF"/>
<path d="M131.832 31.2666C131.696 31.2666 131.559 31.1983 131.491 30.9931C130.738 28.5317 128.756 26.6172 126.568 26.207C124.106 25.7968 121.576 27.3693 121.098 29.5573C121.029 29.7624 120.893 29.8308 120.688 29.8308C120.482 29.7624 120.414 29.6257 120.414 29.4205C120.961 26.8224 123.833 25.0446 126.636 25.5233C129.097 25.9335 131.285 28.0531 132.106 30.788C132.174 30.9931 132.038 31.1299 131.901 31.1983C131.901 31.2666 131.832 31.2666 131.832 31.2666Z" fill="black"/>
<path d="M143.598 28.7073C144.35 26.7245 146.538 25.357 148.657 25.4938C150.777 25.6989 152.691 27.4082 153.102 29.4594" fill="#2194FF"/>
<path d="M153.1 29.8712C152.963 29.8712 152.826 29.7345 152.758 29.5977C152.348 27.6149 150.57 26.0423 148.656 25.9056C146.673 25.7688 144.622 26.9995 143.938 28.8456C143.869 29.0507 143.664 29.1191 143.528 29.0507C143.323 28.9824 143.254 28.7772 143.323 28.6405C144.143 26.5209 146.468 25.0167 148.724 25.2218C150.98 25.4269 153.032 27.273 153.442 29.461C153.51 29.6661 153.373 29.8029 153.1 29.8712C153.168 29.8712 153.1 29.8712 153.1 29.8712Z" fill="black"/>
<path d="M195.217 59.0639C196.106 57.1494 197.473 55.3717 199.319 54.4145C201.165 53.3889 203.558 53.1838 205.404 54.141C207.182 55.0982 208.276 56.9443 208.755 58.8588C209.165 60.7732 209.028 62.8244 208.755 64.8073" fill="#2194FF"/>
<path d="M208.686 65.1578C208.481 65.1578 208.345 64.9527 208.345 64.7476C208.618 62.9699 208.823 60.8503 208.345 58.9358C207.866 56.8846 206.704 55.2437 205.199 54.4232C203.49 53.5343 201.302 53.6027 199.456 54.6283C197.405 55.7907 196.174 57.7051 195.49 59.141C195.422 59.2777 195.217 59.4145 195.012 59.2777C194.875 59.2093 194.738 59.0042 194.875 58.7991C195.559 57.2949 196.926 55.1753 199.114 53.9446C201.165 52.7822 203.627 52.7139 205.541 53.6711C207.251 54.5599 208.55 56.406 209.028 58.6623C209.507 60.7136 209.302 62.9015 209.028 64.7476C209.028 65.0211 208.892 65.1578 208.686 65.1578Z" fill="black"/>
<path d="M130.811 22.2776C129.102 22.2093 128.076 19.9529 128.828 18.4487C129.58 16.9445 131.768 16.4659 133.273 17.218C134.777 18.0385 135.597 19.8162 135.392 21.5255" fill="#2194FF"/>
<path d="M130.81 22.6223C129.922 22.554 129.17 22.0754 128.691 21.1865C128.144 20.2293 128.144 19.1353 128.554 18.3148C128.964 17.5627 129.648 17.0157 130.537 16.7422C131.494 16.4687 132.588 16.5371 133.409 16.9473C134.913 17.7678 135.87 19.6823 135.733 21.5967C135.733 21.8019 135.528 21.9386 135.391 21.9386C135.186 21.9386 135.05 21.7335 135.05 21.5967C135.186 19.9558 134.366 18.3148 133.067 17.6311C132.383 17.2892 131.494 17.2208 130.674 17.426C129.99 17.6311 129.375 18.1097 129.101 18.6567C128.759 19.272 128.828 20.1609 129.238 20.913C129.58 21.5284 130.195 21.9386 130.81 22.007C131.016 22.007 131.152 22.2121 131.152 22.3488C131.152 22.4856 131.016 22.6223 130.81 22.6223Z" fill="black"/>
<path d="M120.822 13.9546C120.959 10.1257 124.378 6.707 128.207 6.50188C132.036 6.29676 135.796 9.37357 136.343 13.1341" fill="#081B6A"/>
<path d="M120.824 14.3022C120.619 14.3022 120.482 14.1654 120.482 13.9603C120.688 9.92628 124.175 6.37086 128.209 6.16574C132.243 5.96062 136.072 9.1058 136.687 13.0715C136.687 13.2766 136.619 13.4133 136.413 13.4817C136.208 13.4817 136.072 13.4133 136.003 13.2082C135.456 9.58442 131.901 6.64436 128.209 6.84948C124.516 7.0546 121.303 10.3365 121.166 13.9603C121.166 14.1654 121.029 14.3022 120.824 14.3022Z" fill="black"/>
<path d="M103.186 18.4456C103.391 16.2576 104.895 14.2748 106.878 13.5227C108.929 12.7706 111.322 13.2492 112.895 14.7534" fill="#081B6A"/>
<path d="M103.188 18.798C102.982 18.798 102.846 18.5929 102.846 18.4562C103.051 16.1315 104.623 14.0802 106.743 13.2598C108.931 12.4393 111.461 12.9863 113.102 14.6272C113.238 14.764 113.238 14.9691 113.102 15.1059C112.965 15.2426 112.76 15.2426 112.623 15.1059C111.187 13.67 108.863 13.1914 106.948 13.9435C105.034 14.6272 103.598 16.5417 103.461 18.5929C103.529 18.6613 103.393 18.798 103.188 18.798Z" fill="black"/>
<path d="M31.9364 32.0142C29.8852 31.6723 28.7228 29.416 28.4493 27.3648C28.2442 25.7922 28.3809 24.0145 29.6117 22.9889C30.8424 21.8949 32.8252 22.0317 34.2611 22.9205C35.6969 23.8094 36.6541 25.1769 37.6114 26.5443" fill="#081B6A"/>
<path d="M31.9375 32.3553C29.5444 32.0135 28.3821 29.4837 28.1086 27.3641C27.9719 26.1334 27.9035 23.9454 29.3393 22.6463C30.8435 21.3472 33.0315 21.6891 34.399 22.5096C35.9032 23.3984 36.9288 24.9026 37.886 26.2701C38.0228 26.4069 37.9544 26.612 37.8176 26.7487C37.6809 26.8855 37.4758 26.8171 37.339 26.6803C36.4502 25.3812 35.4929 23.9454 34.0571 23.1249C32.8264 22.3728 30.9803 22.1677 29.8179 23.1933C28.5872 24.2873 28.6556 26.2017 28.7923 27.2957C29.0658 29.2785 30.1598 31.3981 32.0059 31.6716C32.211 31.6716 32.3478 31.8767 32.2794 32.0819C32.2794 32.2186 32.1426 32.3553 31.9375 32.3553Z" fill="black"/>
<path d="M54.2307 25.8527C53.0684 24.9638 53.4786 22.9126 54.7777 22.2972C56.0768 21.6819 57.7178 22.434 58.4015 23.6647C59.0852 24.8954 58.8801 26.5364 58.1964 27.7671" fill="#081B6A"/>
<path d="M58.1949 28.1649C58.1265 28.1649 58.0581 28.1649 58.0581 28.0965C57.9214 28.0282 57.853 27.823 57.9214 27.6179C58.6051 26.3188 58.6735 24.883 58.1265 23.789C57.5111 22.6267 56.0069 22.0113 54.913 22.5583C54.366 22.8318 53.9557 23.4471 53.8874 24.1309C53.819 24.7462 54.0241 25.2249 54.4343 25.5667C54.5711 25.7035 54.6395 25.9086 54.5027 26.0453C54.366 26.1821 54.1608 26.2505 54.0241 26.1137C53.4087 25.7035 53.1352 24.883 53.2036 24.0625C53.272 23.1053 53.819 22.3532 54.5711 21.9429C56.0069 21.2592 57.853 22.0113 58.6735 23.4471C59.3572 24.7462 59.2889 26.3872 58.4684 27.8914C58.4684 28.0965 58.3316 28.1649 58.1949 28.1649Z" fill="black"/>
<path d="M127.322 32.5444C128.69 28.9206 132.997 26.6643 136.758 27.5531C140.518 28.442 143.322 32.3393 142.98 36.1682" fill="#2194FF"/>
<path d="M142.978 36.5057C142.978 36.5057 142.91 36.5057 142.978 36.5057C142.773 36.5057 142.636 36.3006 142.636 36.1639C142.978 32.4717 140.312 28.7112 136.688 27.8907C133.064 27.0702 129.03 29.1898 127.662 32.6768C127.594 32.8819 127.389 32.9503 127.252 32.8819C127.047 32.8136 126.979 32.6085 127.047 32.4717C128.483 28.7112 132.927 26.3865 136.825 27.2753C140.79 28.2326 143.662 32.2666 143.32 36.3006C143.252 36.369 143.115 36.5057 142.978 36.5057Z" fill="black"/>
<path d="M186.939 54.9696C190.905 53.1919 195.965 54.2859 198.836 57.6362C201.64 60.9181 201.982 66.1145 199.589 69.7383" fill="#2194FF"/>
<path d="M199.588 70.0927C199.52 70.0927 199.451 70.0927 199.383 70.0243C199.246 69.8875 199.178 69.6824 199.315 69.5457C201.639 66.0586 201.297 60.999 198.562 57.8538C195.828 54.6403 190.905 53.5463 187.076 55.324C186.871 55.3924 186.734 55.324 186.597 55.1873C186.529 54.9821 186.597 54.8454 186.734 54.7086C190.836 52.8626 196.101 54.0249 198.973 57.4436C201.913 60.8622 202.255 66.2638 199.793 69.9559C199.862 70.0927 199.725 70.0927 199.588 70.0927Z" fill="black"/>
<path d="M190.906 49.039C192.069 47.7399 194.257 47.7399 195.556 48.9023C196.855 49.9962 197.333 51.9107 196.991 53.5517" fill="#2194FF"/>
<path d="M196.993 53.8284C196.719 53.76 196.651 53.6233 196.651 53.4181C196.993 51.7088 196.446 49.9995 195.352 49.0422C194.121 48.0166 192.138 48.085 191.181 49.179C191.044 49.3157 190.839 49.3157 190.702 49.179C190.565 49.0422 190.565 48.8371 190.702 48.7004C191.933 47.3329 194.326 47.1962 195.83 48.4953C197.129 49.5892 197.745 51.5721 197.403 53.4865C197.334 53.76 197.198 53.8284 196.993 53.8284Z" fill="black"/>
<path d="M212.651 70.6875C215.044 72.1917 216.343 75.2685 215.728 78.0035C215.112 80.7384 212.719 82.9947 209.916 83.405" fill="#2194FF"/>
<path d="M209.848 83.8265C209.711 83.8265 209.506 83.6897 209.506 83.553C209.506 83.3479 209.643 83.2111 209.779 83.1427C212.446 82.8009 214.771 80.6129 215.318 78.0147C215.865 75.4165 214.634 72.4765 212.378 71.0406C212.241 70.9722 212.172 70.6988 212.241 70.562C212.309 70.4253 212.583 70.3569 212.719 70.4253C215.181 71.9979 216.548 75.2114 215.933 78.1515C215.386 81.0232 212.856 83.4162 209.848 83.8265C209.916 83.8265 209.916 83.8265 209.848 83.8265Z" fill="black"/>
<path d="M34.0588 127.165C35.9733 126.823 37.4091 124.703 37.0672 122.789C36.7254 120.874 34.6058 119.438 32.6913 119.78C35.7681 118.823 37.4775 116.225 37.8193 113.08C38.1612 109.934 36.7938 106.653 34.5374 104.396C32.2811 102.14 29.2727 100.704 26.1275 100.02C27.0163 99.1315 27.2898 97.6956 26.6745 96.5333C26.0591 95.4393 24.76 94.7556 23.5293 95.0291" fill="#2194FF"/>
<path d="M34.0591 127.514C33.9224 127.514 33.7856 127.377 33.7172 127.241C33.7172 127.035 33.7856 126.899 33.9907 126.83C35.7685 126.488 37.0676 124.642 36.7257 122.865C36.3838 121.087 34.5377 119.788 32.76 120.13C32.5549 120.13 32.4182 120.061 32.3498 119.856C32.2814 119.651 32.4182 119.514 32.5549 119.446C35.3582 118.557 37.1359 116.232 37.4094 113.019C37.6829 110.079 36.5206 106.934 34.1959 104.609C32.1447 102.558 29.3414 101.053 25.9911 100.37C25.8543 100.37 25.7859 100.233 25.7176 100.096C25.6492 99.9595 25.7176 99.8228 25.7859 99.7544C26.6064 99.0023 26.8115 97.7032 26.2645 96.6776C25.7176 95.7204 24.5552 95.105 23.4612 95.3101C23.2561 95.3785 23.1194 95.2417 23.051 95.0366C22.9826 94.8315 23.1194 94.6948 23.3245 94.6264C24.692 94.3529 26.1962 95.105 26.8799 96.3357C27.4269 97.3613 27.2901 98.7972 26.6748 99.7544C29.8883 100.507 32.6916 102.011 34.6745 104.062C37.1359 106.523 38.3666 109.874 38.0248 113.019C37.7513 115.959 36.3154 118.215 34.0591 119.446C35.6317 119.856 36.9308 121.087 37.2727 122.728C37.7513 124.847 36.1787 127.104 34.0591 127.514Z" fill="black"/>
<path d="M33.1699 93.2681C36.5202 94.0202 40.3491 92.2425 41.8534 89.1657C43.4259 86.0889 42.6055 81.9865 39.9389 79.7302C41.785 80.1404 43.5627 78.9781 44.0413 77.132C44.4515 75.2859 43.9729 73.4398 43.4259 71.5938" fill="#2194FF"/>
<path d="M34.8129 93.8177C34.2659 93.8177 33.6506 93.7494 33.1036 93.6126C32.8985 93.5443 32.8301 93.4075 32.8301 93.2024C32.8985 92.9973 33.0352 92.9289 33.2403 92.9289C36.4539 93.681 40.0777 91.9717 41.5819 89.0316C43.0861 86.0915 42.2656 82.1259 39.7358 80.0063C39.5991 79.9379 39.5991 79.7328 39.6674 79.5961C39.7358 79.4593 39.8725 79.3909 40.0093 79.3909C41.6503 79.7328 43.2912 78.7072 43.7015 77.0662C44.1117 75.2885 43.5647 73.3741 43.0861 71.7331C43.0177 71.528 43.1545 71.3912 43.2912 71.3229C43.4963 71.2545 43.6331 71.3912 43.7015 71.528C44.1801 73.169 44.7954 75.2885 44.3168 77.203C43.9066 78.9123 42.4707 80.0063 40.8298 80.1431C43.0177 82.6045 43.6331 86.365 42.1289 89.3051C40.8298 92.1084 37.8213 93.8177 34.8129 93.8177Z" fill="black"/>
<path d="M117.272 61.1282C116.041 58.3249 116.588 54.8378 118.639 52.5131C120.691 50.2568 124.109 49.2996 126.981 50.1884" fill="#2194FF"/>
<path d="M117.272 61.4714C117.135 61.4714 116.998 61.4031 116.93 61.2663C115.631 58.3263 116.246 54.7025 118.366 52.3094C120.485 49.9163 124.041 48.8907 127.118 49.848C127.323 49.9163 127.391 50.1214 127.323 50.2582C127.254 50.3949 127.049 50.5317 126.913 50.4633C124.109 49.6428 120.827 50.5317 118.913 52.7196C116.998 54.9076 116.451 58.2579 117.614 60.9245C117.682 61.1296 117.614 61.2663 117.409 61.4031C117.409 61.4031 117.34 61.4714 117.272 61.4714Z" fill="black"/>
<path d="M127.322 52.7822C126.022 51.6882 125.681 49.5686 126.569 48.1328C127.458 46.6285 129.441 45.9448 131.014 46.4918" fill="#2194FF"/>
<path d="M127.323 53.1251C127.255 53.1251 127.186 53.1251 127.118 53.0567C125.682 51.826 125.34 49.5697 126.298 47.9287C127.255 46.2877 129.374 45.5356 131.152 46.151C131.357 46.2194 131.426 46.4245 131.357 46.5612C131.289 46.7663 131.084 46.8347 130.947 46.7663C129.511 46.2194 127.665 46.9031 126.913 48.2022C126.161 49.5013 126.434 51.4157 127.597 52.4413C127.733 52.5781 127.733 52.7832 127.665 52.92C127.528 53.0567 127.46 53.1251 127.323 53.1251Z" fill="black"/>
<path d="M161.168 59.0103C163.425 58.9419 165.613 60.3094 166.638 62.3606C167.595 64.4118 167.322 66.9416 165.954 68.7193C164.519 70.497 162.057 71.3175 159.869 70.7705" fill="#2194FF"/>
<path d="M161.239 71.253C160.76 71.253 160.281 71.1846 159.803 71.0479C159.598 70.9795 159.529 70.8428 159.529 70.6376C159.598 70.4325 159.734 70.3641 159.94 70.3641C161.991 70.8428 164.315 70.0906 165.683 68.4497C166.982 66.8087 167.255 64.3473 166.367 62.4328C165.409 60.5184 163.29 59.2193 161.239 59.2876C161.034 59.2876 160.897 59.1509 160.897 58.9458C160.897 58.7406 161.034 58.6039 161.239 58.6039C163.632 58.5355 165.956 59.9714 166.982 62.1593C168.008 64.3473 167.734 67.0138 166.23 68.8599C164.999 70.3641 163.085 71.253 161.239 71.253Z" fill="black"/>
<path d="M155.148 63.2399C157.131 63.5818 159.319 62.7613 160.55 61.1887C161.781 59.6161 162.054 57.2914 161.234 55.4453" fill="#2194FF"/>
<path d="M156.036 63.6504C155.694 63.6504 155.352 63.6505 155.01 63.5821C154.805 63.5821 154.668 63.377 154.737 63.1718C154.737 62.9667 154.942 62.8983 155.147 62.8983C156.993 63.2402 159.044 62.4881 160.275 60.9839C161.437 59.4797 161.711 57.2917 160.959 55.5824C160.89 55.3773 160.959 55.2405 161.164 55.1038C161.3 55.0354 161.505 55.1038 161.642 55.3089C162.531 57.2917 162.189 59.7532 160.89 61.3941C159.728 62.83 157.882 63.6504 156.036 63.6504Z" fill="black"/>
<path d="M87.6641 69.1408C89.5101 70.9869 92.1767 71.9442 94.7749 71.739C97.3731 71.5339 99.9029 70.1665 101.407 68.0469" fill="#2194FF"/>
<path d="M94.0903 72.1477C91.6288 72.1477 89.1674 71.1221 87.3897 69.4128C87.2529 69.276 87.2529 69.0709 87.3897 68.9341C87.5264 68.7974 87.7315 68.7974 87.8683 68.9341C89.646 70.7118 92.2442 71.6691 94.7056 71.464C97.2354 71.2588 99.6285 69.9597 101.133 67.9085C101.269 67.7718 101.475 67.7034 101.611 67.8402C101.748 67.9769 101.816 68.182 101.68 68.3188C100.039 70.5067 97.5089 71.9426 94.774 72.1477C94.5689 72.1477 94.3638 72.1477 94.0903 72.1477Z" fill="black"/>
<path d="M96.8965 65.631C98.6742 67.1353 100.725 68.5711 102.982 68.6395C105.306 68.7762 107.836 66.9985 107.768 64.7422" fill="#2194FF"/>
<path d="M103.255 68.9853C103.187 68.9853 103.119 68.9853 103.05 68.9853C100.52 68.8486 98.3324 67.276 96.7598 65.8402C96.623 65.7034 96.623 65.4983 96.6914 65.3615C96.8281 65.2248 97.0333 65.2248 97.17 65.2932C98.7426 66.5923 100.794 68.1649 103.05 68.2332C104.281 68.3016 105.58 67.823 106.469 66.9341C106.947 66.4555 107.494 65.7034 107.494 64.6778C107.494 64.4727 107.631 64.3359 107.836 64.3359C108.041 64.3359 108.178 64.4727 108.178 64.6778C108.178 65.7034 107.768 66.6606 106.947 67.4811C105.99 68.4383 104.623 68.9853 103.255 68.9853Z" fill="black"/>
<path d="M17.7865 102.024C15.0516 101.477 12.932 98.6733 13.0688 95.87C13.2739 93.0667 15.7353 90.6052 18.5386 90.4001C15.1883 87.5284 14.026 82.4004 15.8721 78.3664C17.7182 74.3323 22.3676 71.8025 26.6751 72.4863C25.7179 76.0417 27.3588 80.2125 30.504 82.1269C28.1793 82.7423 26.3332 84.6567 25.8546 86.9814C25.376 89.3061 26.3332 91.836 28.1793 93.3402C26.1965 92.7932 23.8034 93.3402 22.4359 94.8444C21.0685 96.417 20.9317 99.0152 22.3676 100.519C20.248 100.314 18.1284 101.408 16.966 103.118" fill="#0D98FF"/>
<path d="M120.414 29.4126C121.371 27.7716 123.081 26.6093 124.995 26.4042C126.91 26.199 128.824 26.9512 130.123 28.3186C130.191 25.7204 131.217 23.0539 133.268 21.4129C135.319 19.7719 138.396 19.2933 140.516 20.7975C142.635 22.3018 143.388 25.6521 141.678 27.6349C142.635 26.8828 143.593 26.1307 144.755 25.9255C145.917 25.7204 147.285 26.3358 147.558 27.4981C150.02 26.746 152.891 27.9084 154.259 30.0963C155.558 32.2843 155.216 35.3611 153.37 37.2072C151.797 36.0448 149.61 35.703 147.695 36.3867C145.849 37.0704 144.345 38.7114 143.866 40.6258C142.567 37.1388 139.148 34.2671 135.456 34.5406C134.362 34.609 133.2 35.0192 132.106 34.8141C131.422 34.7457 130.807 34.4722 130.191 34.1987C126.978 32.8996 123.696 31.5322 120.482 30.2331" fill="#0D98FF"/>
<path d="M147.971 69.267C147.356 66.9423 148.245 64.3441 150.091 62.7715C151.937 61.1989 154.672 60.9254 156.86 61.951C158.296 60.857 160.483 61.4724 161.714 62.8399C162.945 64.2073 163.287 66.0534 163.492 67.8995C161.919 67.3525 160.278 66.7372 158.637 67.0107C156.996 67.2841 155.424 68.6516 155.492 70.2926C155.561 70.9763 155.697 71.9335 155.082 72.1387C154.672 72.2754 154.261 71.9335 153.92 71.66C152.279 70.4977 149.749 70.9763 148.655 72.5489" fill="#0D98FF"/>
<path d="M189.061 53.2584C190.702 50.455 194.394 49.0876 197.47 50.1132C200.547 51.1388 202.667 54.4891 202.325 57.7026C204.786 57.2924 207.385 58.4547 208.684 60.5059C210.051 62.5571 210.051 65.4288 208.752 67.48C207.453 69.5312 204.855 70.762 202.393 70.4201C203.692 69.2577 203.761 67.2749 203.419 65.5656C202.052 59.1385 195.83 54.0105 189.266 54.0105" fill="#0D98FF"/>
<path d="M85.1367 63.5913C85.1367 63.5913 92.3843 64.2066 101.888 61.335C111.461 58.4633 116.52 56.6172 116.52 56.6172V58.9419C116.589 58.9419 100.179 64.8904 85.1367 63.5913Z" fill="#081B6A"/>
<path d="M89.4463 64.1413C88.0104 64.1413 86.5746 64.0729 85.1387 63.9361C84.9336 63.9361 84.7969 63.731 84.7969 63.5943C84.7969 63.3892 85.002 63.2524 85.1387 63.2524C85.2071 63.2524 92.3863 63.7994 101.822 60.9961C111.257 58.1928 116.385 56.2783 116.454 56.2783C116.591 56.2099 116.659 56.2783 116.796 56.3467C116.864 56.4151 116.932 56.4834 116.932 56.6202V58.9449C116.932 59.0816 116.864 59.2184 116.727 59.2868C116.522 59.2868 103.053 64.1413 89.4463 64.1413ZM116.249 57.0988C114.813 57.6458 109.958 59.2868 102.095 61.6798C100.113 62.2952 98.1981 62.7054 96.4204 63.0473C106.266 62.0217 114.813 59.2184 116.317 58.6714V57.0988H116.249Z" fill="black"/>
<path d="M165.68 44.166C168.073 42.5934 170.534 41.0209 172.107 38.6278C173.679 36.2347 174.09 32.816 172.244 30.6281C175.047 30.1495 177.85 29.6709 180.448 28.5769C183.047 27.4829 185.44 25.6368 186.67 23.107C187.901 20.5772 187.833 17.2953 185.987 15.1757C184.756 13.8082 182.91 12.851 182.363 11.0733C181.747 9.02207 183.799 6.76575 185.918 6.69737C188.106 6.629 190.021 8.26996 190.841 10.3212C191.662 12.3724 191.456 14.6287 190.909 16.6799C192.619 16.4748 193.713 18.5944 193.439 20.2353C193.097 21.8763 191.935 23.2438 191.183 24.748C190.431 26.2522 190.157 28.3718 191.456 29.4657C192.756 30.5597 195.08 30.1495 196.038 31.5853C196.926 32.9528 195.764 34.7989 194.465 35.7561C191.73 37.8073 188.175 38.6962 184.756 38.1492C183.115 37.8757 181.474 37.3287 179.833 37.3971C174.568 37.7389 171.491 44.5763 166.227 44.713" fill="#FF64C4"/>
<path d="M64.0757 28.7174C63.5971 28.7174 63.2552 27.3499 63.6655 25.5722C63.8706 24.6834 64.2124 23.7261 64.6911 22.8373C65.1697 21.9484 65.8534 21.1279 66.4688 20.4442C67.0841 19.8288 67.9046 19.1451 68.7935 18.6665C69.6823 18.1879 70.6396 17.7776 71.5284 17.5725C73.3061 17.1623 74.6736 17.4358 74.6736 17.9828C74.742 18.5298 73.5796 18.94 72.2121 19.6237C70.8447 20.3075 69.3405 21.3331 68.3149 22.3587C67.2893 23.3843 66.2637 24.8885 65.5799 26.256C64.9646 27.6234 64.5543 28.7858 64.0757 28.7174Z" fill="#025190"/>
<path d="M79.6611 17.9334C79.7295 17.4547 80.2081 17.1129 80.8235 17.0445C81.5072 16.9761 82.2593 17.1812 82.8747 17.4547C83.4216 17.7282 84.1054 18.2752 84.4472 18.8222C84.7891 19.3692 84.8575 19.9846 84.4472 20.3264C84.037 20.6683 83.5584 20.5999 83.0798 20.4632C82.6012 20.3264 82.0542 20.1213 81.6439 19.9162C81.2337 19.7111 80.7551 19.4376 80.3448 19.1641C79.9346 18.8222 79.5927 18.4803 79.6611 17.9334Z" fill="#025190"/>
<path d="M110.021 11.6195C109.816 11.7563 109.474 11.6879 109.201 11.2777C108.927 10.9358 108.722 10.3204 108.791 9.63671C108.859 8.26925 109.748 6.97015 110.363 6.14967C111.047 5.32919 112.073 4.44033 113.098 3.89334C114.055 3.41473 114.944 3.27798 115.218 3.68822C115.491 4.09846 115.081 4.7822 114.466 5.53431C113.85 6.28642 113.098 7.17527 112.483 7.85901C112.346 8.06413 112.209 8.20087 112.004 8.40599C111.867 8.61111 111.731 8.74786 111.594 8.95298C111.32 9.29485 111.047 9.70509 110.91 10.047C110.705 10.3888 110.568 10.6623 110.5 10.9358C110.363 11.2777 110.295 11.4828 110.021 11.6195Z" fill="#025190"/>
<path d="M95.3243 24.5531C95.1192 24.6215 94.7773 24.4848 94.5722 24.0062C94.2987 23.5959 94.1619 22.8438 94.2303 22.0917C94.2987 21.3396 94.5038 20.5191 94.7773 19.767C95.0508 19.0149 95.3927 18.3312 95.8029 17.7842C96.4866 16.6218 97.5806 15.186 98.8113 14.3655C100.042 13.4766 101.136 13.3399 101.41 13.8185C101.615 14.2971 100.999 14.9809 100.316 15.9381C99.6318 16.8953 98.8113 18.126 98.196 19.22C97.5806 20.314 96.7601 21.6131 96.3499 22.5703C96.1448 23.0489 96.008 23.5275 95.8713 23.8694C95.7345 24.1429 95.5978 24.4164 95.3243 24.5531Z" fill="#025190"/>
<path d="M125.271 12.6667C124.997 12.6667 124.792 12.4616 124.724 11.983C124.656 11.5728 124.861 10.9574 125.271 10.4104C126.023 9.31643 127.596 8.70107 128.826 8.70107C130.057 8.6327 131.561 9.17968 132.382 10.0002C133.271 10.8206 133.407 11.7779 132.997 12.0514C132.587 12.3249 131.971 11.983 131.219 11.7779C130.467 11.5044 129.578 11.3676 128.895 11.436C128.211 11.436 127.322 11.6411 126.775 11.9146C126.502 12.0514 126.228 12.1881 126.023 12.3249C125.749 12.53 125.544 12.6667 125.271 12.6667Z" fill="#025190"/>
<path d="M38.1662 21.8826C37.9611 21.404 38.7132 20.6518 40.0807 20.0365C41.3798 19.4211 43.1575 19.0109 44.6617 18.9425C46.0975 18.8741 47.9436 19.0793 49.3111 19.5579C50.6786 20.0365 51.5674 20.7886 51.3623 21.2672C51.1572 21.7458 50.1316 21.7458 48.9009 21.6774C47.6018 21.6091 46.0292 21.6091 44.7984 21.6774C43.5677 21.7458 41.9951 21.8826 40.7644 22.0877C39.4653 22.2244 38.4397 22.3612 38.1662 21.8826Z" fill="#025190"/>
<path d="M33.0984 27.0933C33.6454 27.0933 33.9189 27.3668 34.1924 27.7087C34.4659 27.9822 34.671 28.324 34.8078 28.5975C34.9445 28.871 35.1496 29.2129 35.2864 29.6231C35.4231 30.0334 35.4915 30.4436 35.218 30.9222C34.9445 31.4008 34.4659 31.4692 33.8505 31.2641C33.3035 31.059 32.7566 30.512 32.4147 30.0334C32.1412 29.5548 31.9361 28.8026 32.0728 28.1873C32.2096 27.4352 32.5514 27.0249 33.0984 27.0933Z" fill="#025190"/>
<path d="M201.024 36.3693C200.887 35.8907 201.913 35.207 203.554 35.0018C204.374 34.9335 205.263 34.9335 206.152 35.1386C207.041 35.3437 207.93 35.6856 208.682 36.0958C209.434 36.506 210.186 37.053 210.801 37.7368C211.417 38.4205 211.964 39.1726 212.306 39.9247C212.989 41.4289 212.989 42.6597 212.511 42.7964C212.032 42.9332 211.417 42.0443 210.528 41.0871C209.639 40.1298 208.477 39.1042 207.383 38.5573C206.289 37.9419 204.853 37.4633 203.554 37.2582C202.255 36.9163 201.161 36.9163 201.024 36.3693Z" fill="#025190"/>
<path d="M213.055 48.7683C213.534 48.6999 213.944 48.9734 214.149 49.3836C214.354 49.7939 214.422 50.3409 214.354 50.7511C214.286 51.1614 214.149 51.7083 213.807 52.0502C213.465 52.3921 213.055 52.5972 212.576 52.3921C212.098 52.187 211.893 51.8451 211.756 51.5032C211.619 51.1614 211.619 50.7511 211.687 50.4776C211.756 50.2041 211.824 49.7939 212.029 49.452C212.234 49.1785 212.576 48.8367 213.055 48.7683Z" fill="#025190"/>
<path d="M219.554 72.4063C219.964 72.0644 220.717 72.4063 221.469 73.1584C222.221 73.8421 222.905 75.0045 223.315 75.8933C223.725 76.8505 224.067 78.0813 224.135 79.1069C224.135 80.1325 223.93 80.953 223.383 81.0213C222.836 81.0897 222.426 80.4743 222.016 79.6539C221.605 78.8334 221.195 77.8078 220.785 77.0557C220.443 76.2352 219.964 75.278 219.623 74.3891C219.349 73.5002 219.144 72.7481 219.554 72.4063Z" fill="#025190"/>
<path d="M19.8356 68.5039C19.5621 68.5039 19.3569 68.2988 19.2202 67.8202C19.0835 67.3416 19.0835 66.6578 19.4253 65.9057C19.6988 65.222 20.2458 64.4699 20.8612 63.9229C21.4765 63.3759 22.2286 63.034 22.844 62.7605C23.4594 62.4871 24.1431 62.2819 24.8952 62.1452C25.6473 62.0084 26.3994 61.8717 27.0831 61.9401C27.7669 62.0084 28.3822 62.1452 28.7925 62.4187C29.2027 62.6238 29.3395 62.9657 29.2711 63.1708C29.1343 63.6494 28.2455 63.7861 27.2883 64.0596C26.2627 64.3331 24.9636 64.8801 23.938 65.2904C23.4594 65.4955 22.9124 65.769 22.5021 66.0425C22.0235 66.316 21.6816 66.6578 21.3398 66.9997C20.9979 67.3416 20.7928 67.6834 20.5877 67.9569C20.2458 68.2304 20.1091 68.5039 19.8356 68.5039Z" fill="#025190"/>
<path d="M20.1765 34.9273C22.1779 34.9273 23.8003 33.3049 23.8003 31.3035C23.8003 29.3021 22.1779 27.6797 20.1765 27.6797C18.1752 27.6797 16.5527 29.3021 16.5527 31.3035C16.5527 33.3049 18.1752 34.9273 20.1765 34.9273Z" fill="#081B6A"/>
<path d="M20.1786 35.2751C17.9906 35.2751 16.2129 33.4974 16.2129 31.3094C16.2129 29.1215 17.9906 27.3438 20.1786 27.3438C22.3665 27.3438 24.1442 29.1215 24.1442 31.3094C24.1442 33.4974 22.3665 35.2751 20.1786 35.2751ZM20.1786 28.0275C18.4008 28.0275 16.8966 29.5317 16.8966 31.3094C16.8966 33.0871 18.4008 34.5913 20.1786 34.5913C21.9563 34.5913 23.4605 33.0871 23.4605 31.3094C23.4605 29.5317 21.9563 28.0275 20.1786 28.0275Z" fill="black"/>
<path d="M8.69052 75.76C11.5604 75.76 13.8869 73.4335 13.8869 70.5636C13.8869 67.6937 11.5604 65.3672 8.69052 65.3672C5.82064 65.3672 3.49414 67.6937 3.49414 70.5636C3.49414 73.4335 5.82064 75.76 8.69052 75.76Z" fill="#2194FF"/>
<path d="M8.69255 76.0374C5.61574 76.0374 3.1543 73.576 3.1543 70.4992C3.1543 67.4224 5.61574 64.9609 8.69255 64.9609C11.7694 64.9609 14.2308 67.4224 14.2308 70.4992C14.2308 73.576 11.701 76.0374 8.69255 76.0374ZM8.69255 65.713C6.02598 65.713 3.83803 67.901 3.83803 70.5676C3.83803 73.2341 6.02598 75.4221 8.69255 75.4221C11.3591 75.4221 13.5471 73.2341 13.5471 70.5676C13.4787 67.901 11.3591 65.713 8.69255 65.713Z" fill="black"/>
<path d="M3.0825 84.7861C4.32863 84.7861 5.33882 83.7759 5.33882 82.5298C5.33882 81.2836 4.32863 80.2734 3.0825 80.2734C1.83636 80.2734 0.826172 81.2836 0.826172 82.5298C0.826172 83.7759 1.83636 84.7861 3.0825 84.7861Z" fill="#2194FF"/>
<path d="M3.08452 85.1886C1.64868 85.1886 0.486328 84.0262 0.486328 82.5904C0.486328 81.1545 1.64868 79.9922 3.08452 79.9922C4.52037 79.9922 5.68271 81.1545 5.68271 82.5904C5.68271 84.0262 4.52037 85.1886 3.08452 85.1886ZM3.08452 80.6075C1.99055 80.6075 1.17006 81.4964 1.17006 82.522C1.17006 83.5476 2.05892 84.4365 3.08452 84.4365C4.11012 84.4365 4.99898 83.5476 4.99898 82.522C4.99898 81.4964 4.1785 80.6075 3.08452 80.6075Z" fill="black"/>
<path d="M211.964 31.0605C214.494 31.0605 216.545 29.0095 216.545 26.4795C216.545 23.9494 214.494 21.8984 211.964 21.8984C209.434 21.8984 207.383 23.9494 207.383 26.4795C207.383 29.0095 209.434 31.0605 211.964 31.0605Z" fill="#2194FF"/>
<path d="M211.966 31.338C209.299 31.338 207.043 29.15 207.043 26.4151C207.043 23.6801 209.231 21.4922 211.966 21.4922C214.701 21.4922 216.889 23.6801 216.889 26.4151C216.889 29.15 214.701 31.338 211.966 31.338ZM211.966 22.2443C209.641 22.2443 207.727 24.1588 207.727 26.4835C207.727 28.8081 209.641 30.7226 211.966 30.7226C214.291 30.7226 216.205 28.8081 216.205 26.4835C216.205 24.1588 214.291 22.2443 211.966 22.2443Z" fill="black"/>
<path d="M221.122 76.9976C223.199 76.9976 224.882 75.314 224.882 73.2371C224.882 71.1602 223.199 69.4766 221.122 69.4766C219.045 69.4766 217.361 71.1602 217.361 73.2371C217.361 75.314 219.045 76.9976 221.122 76.9976Z" fill="#2194FF"/>
<path d="M221.124 77.3454C218.868 77.3454 217.021 75.4994 217.021 73.243C217.021 70.9867 218.868 69.1406 221.124 69.1406C223.38 69.1406 225.226 70.9867 225.226 73.243C225.226 75.4994 223.312 77.3454 221.124 77.3454ZM221.124 69.8927C219.278 69.8927 217.705 71.397 217.705 73.3114C217.705 75.2259 219.209 76.7301 221.124 76.7301C222.97 76.7301 224.543 75.2259 224.543 73.3114C224.543 71.397 222.97 69.8927 221.124 69.8927Z" fill="black"/>
<path d="M32.4219 91.3294C32.4902 91.0559 33.2424 91.0559 34.1312 90.7824C35.0201 90.5773 36.114 90.0303 36.7294 89.4149C37.4131 88.7995 38.0285 87.8423 38.3704 86.9535C38.7122 86.0646 38.849 85.3125 39.1225 85.3125C39.396 85.3125 39.6011 86.133 39.4643 87.227C39.3276 88.3209 38.5755 89.62 37.6866 90.4405C36.8661 91.1926 35.4303 91.808 34.3363 91.8764C33.174 91.8764 32.4219 91.5345 32.4219 91.3294Z" fill="#63DBFF"/>
<path d="M38.6382 83.064C38.3647 83.1323 38.1596 82.8588 37.9545 82.5854C37.7493 82.3119 37.5442 81.97 37.4075 81.6281C37.2707 81.3546 36.9972 81.0128 36.8605 80.6709C36.7237 80.329 36.587 80.0555 36.7921 79.8504C36.9288 79.6453 37.2707 79.7137 37.681 79.9188C38.0228 80.1239 38.4331 80.5341 38.6382 80.9444C38.8433 81.2863 39.0484 81.8332 39.0484 82.2435C38.9801 82.7221 38.9117 83.064 38.6382 83.064Z" fill="#63DBFF"/>
<path d="M39.9375 77.3279C40.0059 77.0544 40.6896 76.9861 41.2366 76.3023C41.852 75.687 42.1938 74.6614 42.1254 73.7725C42.1254 72.8837 41.7836 71.8581 41.2366 71.1059C40.6896 70.3538 40.0742 69.9436 40.211 69.7385C40.2794 69.5334 41.1682 69.6017 42.0571 70.4222C42.9459 71.1743 43.5613 72.6102 43.5613 73.7725C43.5613 74.3879 43.4929 75.0032 43.2194 75.6186C42.9459 76.234 42.5357 76.7809 42.0571 77.1228C41.5785 77.4647 41.0315 77.6014 40.6212 77.6014C40.0742 77.6014 39.9375 77.4647 39.9375 77.3279Z" fill="#63DBFF"/>
<path d="M28.6583 75.0772C28.3848 75.0772 28.1797 74.5986 28.1797 73.8465C28.1797 73.0944 28.5216 72.2739 28.8634 71.6586C29.2737 71.0432 29.889 70.4278 30.5728 70.086C31.1881 69.7441 31.8035 69.7441 31.8719 70.0176C31.9402 70.2911 31.5984 70.5646 31.1881 70.9748C30.7779 71.3851 30.3676 71.9321 30.0258 72.4107C29.7523 72.8893 29.4104 73.5046 29.2053 74.0516C29.0685 74.5303 28.9318 75.0089 28.6583 75.0772Z" fill="#63DBFF"/>
<path d="M119.867 58.1876C119.32 58.256 119.047 57.0253 119.183 56.1364C119.252 55.2476 119.73 54.0852 120.209 54.222C120.688 54.3587 120.551 55.5211 120.482 56.2048C120.482 57.0253 120.414 58.1193 119.867 58.1876Z" fill="#63DBFF"/>
<path d="M122.666 52.401C122.461 51.9224 122.94 51.5121 123.35 51.4438C123.76 51.3754 124.376 51.4438 124.376 51.9907C124.376 52.4694 123.965 52.6745 123.692 52.7428C123.35 52.8796 122.94 52.8796 122.666 52.401Z" fill="#63DBFF"/>
<path d="M129.296 47.7965C129.501 47.9333 129.433 48.4803 129.433 49.164C129.433 49.8477 129.569 50.6682 129.843 51.2152C130.116 51.7622 130.595 52.4459 131.142 52.8562C131.62 53.2664 132.099 53.5399 132.099 53.8134C132.031 54.0869 131.415 54.0869 130.595 53.745C129.774 53.4031 129.022 52.5827 128.612 51.7622C128.202 50.9417 128.133 49.8477 128.339 49.0272C128.612 48.1384 129.022 47.6598 129.296 47.7965Z" fill="#63DBFF"/>
<path d="M156.034 60.2509C156.17 60.0458 156.717 60.1825 157.401 60.0458C158.085 59.909 158.769 59.4304 159.179 58.9518C159.589 58.4048 159.862 57.5843 159.931 56.8322C159.999 56.0801 159.999 55.4647 160.273 55.3964C160.478 55.328 160.888 55.875 161.025 56.8322C161.162 57.7211 160.956 58.9518 160.341 59.7723C160.068 60.1825 159.589 60.5927 159.11 60.7979C158.632 61.0714 158.085 61.1397 157.538 61.1397C157.059 61.1397 156.649 60.9346 156.375 60.7295C156.034 60.5244 155.965 60.3192 156.034 60.2509Z" fill="#63DBFF"/>
<path d="M192.343 45.4893C192.275 45.2158 192.89 44.9423 193.779 44.874C194.668 44.7372 195.762 44.874 196.582 45.1475C197.403 45.4209 198.428 45.8996 199.112 46.4466C199.796 46.9935 200.138 47.5405 200.001 47.7456C199.796 47.9508 199.249 47.6773 198.565 47.3354C197.881 46.9935 196.924 46.6517 196.24 46.4466C195.488 46.2414 194.599 46.0363 193.779 45.9679C193.027 45.8312 192.411 45.7628 192.343 45.4893Z" fill="#63DBFF"/>
<path d="M201.921 50.5188C202.331 50.1769 202.673 50.382 202.81 50.5872C202.947 50.7923 203.083 51.1341 202.673 51.476C202.263 51.8179 201.921 51.6128 201.784 51.4076C201.579 51.2025 201.511 50.7923 201.921 50.5188Z" fill="#63DBFF"/>
<path d="M212.58 58.7452C212.717 58.5401 213.537 58.8819 214.426 59.7708C215.315 60.5913 215.998 61.9587 216.272 63.1211C216.545 64.2834 216.614 65.7877 216.272 66.95C215.93 68.1124 215.383 68.8645 215.178 68.7277C214.904 68.591 215.178 67.8389 215.246 66.7449C215.315 65.7193 215.246 64.4202 214.973 63.3946C214.699 62.4374 214.221 61.2066 213.605 60.3862C212.99 59.5657 212.443 59.0187 212.58 58.7452Z" fill="#63DBFF"/>
<path d="M212.037 74.4671C212.516 74.262 212.926 74.9457 213.131 75.4243C213.336 75.9029 213.473 76.7234 212.926 76.8602C212.447 77.0653 212.037 76.3815 211.832 75.9029C211.695 75.4243 211.559 74.6722 212.037 74.4671Z" fill="#63DBFF"/>
<path d="M131.149 74.1726C130.944 73.9675 131.696 73.147 132.585 71.9846C133.474 70.8223 134.363 69.3181 135.047 68.019C135.662 66.7199 136.346 65.0789 136.688 63.7114C137.098 62.344 137.303 61.25 137.576 61.25C137.85 61.25 137.918 62.4124 137.713 63.9166C137.508 65.4208 136.893 67.2669 136.209 68.6343C135.525 70.0018 134.431 71.5744 133.337 72.6684C132.312 73.7623 131.286 74.3777 131.149 74.1726Z" fill="#FFD6E5"/>
<path d="M139.08 58.1836C138.875 58.1153 138.943 57.3631 139.217 56.3375C139.49 55.3803 140.037 54.1496 140.653 53.2607C141.268 52.3719 142.362 51.483 143.388 51.0728C144.413 50.6625 145.302 50.8677 145.302 51.0728C145.302 51.3463 144.618 51.5514 143.866 52.03C143.114 52.5086 142.294 53.3291 141.747 54.0128C140.653 55.5171 139.627 58.3204 139.08 58.1836Z" fill="#FFD6E5"/>
<path d="M148.998 41.9768C148.929 41.7033 149.886 41.2931 151.117 40.541C152.348 39.7889 153.715 38.7633 154.741 37.806C155.767 36.8488 156.861 35.4813 157.749 34.319C158.57 33.1566 159.254 32.2678 159.459 32.4045C159.664 32.5413 159.39 33.5669 158.638 34.9344C157.955 36.2334 156.792 37.7377 155.698 38.8316C154.604 39.9256 153.032 40.9512 151.664 41.5666C150.16 42.0452 149.066 42.1819 148.998 41.9768Z" fill="#FFD6E5"/>
<path d="M163.151 30.8914C163.083 30.8231 163.356 30.4812 163.903 30.071C164.45 29.6607 165.339 29.3189 166.433 29.0454C168.552 28.4984 171.151 28.4984 173.065 28.1565C174.022 27.9514 175.048 27.6779 176.074 27.1993C177.099 26.7207 178.056 26.1737 178.877 25.5583C180.518 24.396 181.475 23.2336 181.68 23.3704C181.885 23.5071 181.133 24.943 179.492 26.3788C178.672 27.1309 177.715 27.8146 176.621 28.2933C175.527 28.8402 174.364 29.1821 173.27 29.4556C171.151 29.8658 168.552 29.7975 166.57 30.071C165.612 30.2077 164.724 30.4128 164.177 30.618C163.63 30.8915 163.219 31.0282 163.151 30.8914Z" fill="#FFD6E5"/>
<path d="M237.606 97.0361C239.381 97.0361 240.82 95.9647 240.82 94.6431C240.82 93.3214 239.381 92.25 237.606 92.25C235.831 92.25 234.393 93.3214 234.393 94.6431C234.393 95.9647 235.831 97.0361 237.606 97.0361Z" fill="#734EE5"/>
<path d="M237.608 97.3839C235.625 97.3839 234.053 96.1532 234.053 94.649C234.053 93.1448 235.625 91.9141 237.608 91.9141C239.591 91.9141 241.164 93.1448 241.164 94.649C241.164 96.1532 239.591 97.3839 237.608 97.3839ZM237.608 92.5978C236.036 92.5978 234.736 93.4867 234.736 94.649C234.736 95.8114 236.036 96.7002 237.608 96.7002C239.181 96.7002 240.48 95.8114 240.48 94.649C240.48 93.4867 239.181 92.5978 237.608 92.5978Z" fill="black"/>
</svg>
