<svg width="1920" height="263" viewBox="0 0 1920 263" fill="none" xmlns="http://www.w3.org/2000/svg">
<g clip-path="url(#clip0_180_31166)">
<rect width="1920" height="10720" transform="translate(0 -2139)" fill="white"/>
<path d="M-3.00012 277.5V65.5H42.4999L184.5 151L345 116.5L478.5 151L515 200.5L675.5 160L754 178.5C799 177.833 890.8 176.9 898 178.5C905.2 180.1 998.333 193.833 1044 200.5L1676 213.5C1690.5 213.5 1781.03 252.909 1793 252C1832.5 249 1737 196.724 1835.5 220.5C1847.1 223.3 1890.5 242.5 1922.5 232.5V277.5H-3.00012Z" fill="#5AC7E5"/>
<path d="M1287.69 222.812C1340.94 240.929 1329.6 240.145 1385.45 231.208C1443.65 221.925 1569.03 204.358 1625.83 218.537C1641.75 222.579 1661.08 222.425 1678.9 227.979C1692.73 232.228 1701.8 235.854 1712.04 239.176C1725.35 243.443 1745.69 260.877 1753.94 263.612C1778.82 271.549 1776.9 258.2 1778.62 250.906C1763.51 240.127 1743.23 232.16 1724.59 225.582C1682.36 210.496 1636.78 204.604 1594.4 203.86C1561.76 203.299 1528.65 208.016 1496.82 200.587C1491.26 199.336 1485.67 197.56 1481.58 193.626C1477.5 189.693 1475.56 183.053 1478.67 178.209C1482.04 172.961 1489.25 172.181 1495.56 172.09C1580.88 171.059 1666.33 184.624 1747.12 211.899C1762.42 216.753 1783.67 226.264 1794.46 233.907C1806.87 242.809 1808.55 249.326 1824.18 244.962C1832.12 242.709 1847.95 236.496 1845.95 228.412C1844.72 223.194 1837.41 220.953 1832.46 218.759C1686.02 149.865 1458.42 152.09 1288.29 124.014C1288.29 124.014 1282.17 125.939 1233.53 137.648" fill="#5AC7E5"/>
<path d="M1775.43 223.926C1776.36 224.288 1733.94 207.236 1715.06 201.588C1680.23 191.108 1620.75 175.314 1570.28 172.356C1492.38 167.733 1474.59 170.595 1472.82 179.865C1471.15 188.735 1481.72 193.756 1481.72 193.756C1481.72 193.756 1463.34 168.492 1552.56 173.375C1658.11 179.129 1748.45 212.118 1775.43 223.926Z" fill="#081B6A" stroke="black" stroke-miterlimit="10" stroke-linecap="round" stroke-linejoin="round"/>
<path d="M1736.73 252.907C1736.73 252.907 1716.41 236.13 1662.65 222.108C1608.89 208.085 1507.63 216.122 1504.09 216.247C1473.2 216.939 1439.92 224.293 1439.92 224.293C1439.92 224.293 1466.02 218.376 1511.27 214.942C1542.49 212.396 1680.14 214.652 1736.73 252.907Z" fill="#081B6A" stroke="black" stroke-miterlimit="10" stroke-linecap="round" stroke-linejoin="round"/>
<path d="M1481.72 193.756C1481.72 193.756 1489.42 203.218 1522.21 204.168C1554.99 205.118 1614.9 199.59 1661.36 207.95C1707.82 216.311 1754.47 237.554 1782.27 250.122C1799.78 258.055 1821.51 243.743 1775.43 223.926" stroke="black" stroke-miterlimit="10" stroke-linecap="round" stroke-linejoin="round"/>
<path d="M1844.58 223.063C1844.58 223.063 1786.8 199.318 1757.43 190.751C1727.93 182.188 1674.66 171.042 1605.64 160.845C1536.63 150.648 1414.72 139.946 1399.28 138.516C1383.84 137.087 1354.41 134.177 1345.11 131.48" stroke="black" stroke-miterlimit="10" stroke-linecap="round" stroke-linejoin="round"/>
<path d="M850.189 180.606C1068.62 164.761 1238.56 -21.9386 1232.74 36.9272C1231.67 47.7499 1222.5 86.084 1221.57 97.0334C1256.1 69.118 1290.87 36.7222 1325.58 6.56431C1331.96 1.07853 1341.17 8.64589 1336.96 15.8968C1325.42 35.6373 1313.77 55.908 1302.42 73.4061C1298.05 80.0048 1293.69 86.9976 1294.04 93.2984C1295.23 112.196 1335.93 98.6634 1341.41 116.095C1343.18 121.557 1342.32 138.422 1343.18 144.179C1344.54 152.944 1373.15 162.196 1380.84 167.843C1407.72 187.81 1407.55 208.992 1419.98 237.096C1426.56 252.121 1428.85 272.427 1408.87 287.598C1395.93 297.392 1378.31 301.301 1362.23 304.234C1310.21 313.431 1258.82 318.265 1209.51 318.554" fill="#5AC7E5"/>
<path d="M1337.65 9.55577C1337.65 9.55577 1342.23 20.0483 1322.61 52.8317C1302.97 85.4838 1288.98 98.8662 1304.14 103.594C1319.3 108.321 1341.2 95.3179 1347.71 112.187C1354.22 129.056 1364.06 128.315 1377.36 132.451C1398.11 138.954 1470.64 144.293 1470.64 144.293C1470.64 144.293 1363.79 142.924 1351.3 139.287C1323.39 131.063 1350.11 120.652 1338.25 116.203C1326.39 111.754 1272.85 122.714 1279.16 103.815C1285.47 85.048 1341.67 30.327 1337.65 9.55577Z" fill="#081B6A" stroke="black" stroke-miterlimit="10" stroke-linecap="round" stroke-linejoin="round"/>
<path d="M1255.95 68.4649C1255.95 68.4649 1224.25 109.565 1217.7 102.956C1211.16 96.3471 1223.34 64.8781 1227.57 50.787C1231.81 36.696 1227.72 25.1341 1227.72 25.1341C1227.72 25.1341 1234.49 26.7373 1233.01 51.9111C1231.53 77.0848 1220.28 86.5559 1227.28 87.3617C1234.28 88.1675 1255.95 68.4649 1255.95 68.4649Z" fill="#081B6A" stroke="black" stroke-miterlimit="10" stroke-linecap="round" stroke-linejoin="round"/>
<path d="M1159.27 57.0078C1159.27 57.0078 1074.79 119.432 990.825 155.401C906.862 191.37 845.392 167.623 845.392 167.623C845.392 167.623 887.419 184.557 998.969 136.437C1054.17 112.792 1159.27 57.0078 1159.27 57.0078Z" fill="#081B6A" stroke="black" stroke-miterlimit="10" stroke-linecap="round" stroke-linejoin="round"/>
<path d="M619.37 210.564C564.998 224.052 513.699 220.202 462.527 197.54C429.924 183.036 400.772 161.966 368.296 147.326C318.713 125.002 263.643 118.654 209.633 112.533C219.223 112.195 226.265 103.003 229.366 93.9504C232.331 84.7707 232.772 74.8906 236.539 66.0773C242.002 53.1269 254.819 43.6003 268.838 42.0546C262.423 54.1178 260.985 69.294 272.428 76.7828C283.872 84.2715 316.471 87.4643 330.062 88.6957C402.509 95.4836 465.057 101.305 537.373 108.097C542.519 108.574 547.797 109.046 552.351 111.384C556.906 113.723 560.877 118.187 560.795 123.319C560.754 129.634 555.14 134.566 549.317 137.27C540.256 141.404 530.018 142.027 520.081 143.692C510.144 145.357 499.868 148.613 493.563 156.332C487.258 164.051 482.718 180.783 492.527 182.937C530.683 190.8 569.738 175.615 604.502 158.082C639.396 140.544 668.129 127.301 706.102 118.73C733.114 112.649 763.447 115.001 797.625 133.133C819.608 144.854 859.233 179.497 883.847 183.76C908.724 188.014 918.178 187.549 943.349 185.217C968.52 182.884 1012.5 135.696 1026.5 148.618C972.863 156.82 926.988 206.179 873.388 196.755C842.554 191.395 812.83 180.21 781.892 175.643C728.469 167.528 672.576 175.151 627.175 204.37" fill="#081B6A"/>
<path d="M619.37 210.564C564.998 224.052 513.699 220.202 462.527 197.54C429.924 183.036 400.772 161.966 368.296 147.326C318.713 125.002 263.643 118.654 209.633 112.533C219.223 112.195 226.265 103.003 229.366 93.9504C232.331 84.7707 232.772 74.8906 236.539 66.0773C242.002 53.1269 254.819 43.6003 268.838 42.0546C262.423 54.1178 260.985 69.294 272.428 76.7828C283.872 84.2715 316.471 87.4643 330.062 88.6957C402.509 95.4836 465.057 101.305 537.373 108.097C542.519 108.574 547.797 109.046 552.351 111.384C556.906 113.723 560.877 118.187 560.795 123.319C560.754 129.634 555.14 134.566 549.317 137.27C540.256 141.404 530.018 142.027 520.081 143.692C510.144 145.357 499.868 148.613 493.563 156.332C487.258 164.051 482.718 180.783 492.527 182.937C530.683 190.8 569.738 175.615 604.502 158.082C639.396 140.544 668.129 127.301 706.102 118.73C733.114 112.649 763.447 115.001 797.625 133.133C819.608 144.854 859.233 179.497 883.847 183.76C908.724 188.014 918.178 187.549 943.349 185.217C968.52 182.884 1012.5 135.696 1026.5 148.618C972.863 156.82 926.988 206.179 873.388 196.755C842.554 191.395 812.83 180.21 781.892 175.643C728.469 167.528 672.576 175.151 627.175 204.37" stroke="black" stroke-miterlimit="10" stroke-linecap="round" stroke-linejoin="round"/>
<path d="M536.749 236.098C503.003 245.177 427.406 223.638 397.441 205.621C392.601 202.635 387.761 199.649 382.79 196.667C357.646 181.111 332.236 165.434 303.16 161.459C270.65 157.08 238.025 168.093 207.693 180.735C177.361 193.377 163.845 201.744 131.064 204.608C98.2832 207.472 70.6395 191.873 54.6374 163.237C47.0582 149.694 25.1929 118.897 13.0094 109.067C-71.445 41.4102 -94.3173 53.0006 -107.761 48.4759C-121.068 44.0779 -136.586 40.4153 -133.908 -3.08277C-133.908 -3.08277 -52.5148 41.1384 -5.31452 51.8403C41.8903 62.6735 78.0182 65.216 103.547 87.9921C129.076 110.768 271.128 122.077 312.082 127.211" fill="#081B6A"/>
<path d="M536.749 236.098C503.003 245.177 427.406 223.638 397.441 205.621C392.601 202.635 387.761 199.649 382.79 196.667C357.646 181.111 332.236 165.434 303.16 161.459C270.65 157.08 238.025 168.093 207.693 180.735C177.361 193.377 163.845 201.744 131.064 204.608C98.2832 207.472 70.6395 191.873 54.6374 163.237C47.0582 149.694 25.1929 118.897 13.0094 109.067C-71.445 41.4102 -94.3173 53.0006 -107.761 48.4759C-121.068 44.0779 -136.586 40.4153 -133.908 -3.08277C-133.908 -3.08277 -52.5148 41.1384 -5.31452 51.8403C41.8903 62.6735 78.0182 65.216 103.547 87.9921C129.076 110.768 271.128 122.077 312.082 127.211" stroke="black" stroke-miterlimit="10" stroke-linecap="round" stroke-linejoin="round"/>
<path d="M940.476 167.167C910.77 175.184 862.534 172.41 840.888 162.782C812.558 150.1 810.354 147.284 787.661 137.824C746.409 120.468 698.981 133.186 657.19 149.125C615.4 165.064 572.416 184.465 527.807 180.116C512.762 178.673 494.704 170.102 495.753 155.071C496.897 138.985 517.631 133.914 533.62 132.299C536.633 131.93 539.771 131.425 543.032 130.653C557.376 127.122 555.187 106.024 540.441 105.622C469.071 103.268 397.837 101.041 326.466 98.6869C305.529 97.9772 282.996 96.7975 266.62 83.6953C250.244 70.593 241.292 62.885 259.186 51.8645C349.47 4.88775 105.85 41.3477 5.58197 36.3283C-49.7573 33.5415 -77.2185 0.705915 -79.2239 -22.6352C-81.0425 -44.4046 -135.241 -48.4153 -142.332 -6.99785C-145.4 10.4717 -130.907 26.1392 -115.847 35.4736C-70.4149 63.2046 -9.17617 61.7064 29.5944 98.2212C57.4766 124.334 70.436 167.413 105.671 181.956C137.435 195.043 172.911 179.063 205.541 168.181C253.768 152.015 294.446 138.088 342.023 155.748C386.264 172.078 435.141 215.471 479.858 230.338C579.938 263.642 648.732 166.653 752.634 185.223C798.958 193.457 805.896 203.734 852.966 203.261C881.627 202.91 893.683 205.379 954.926 185.335C1011.23 166.912 1035.77 139.086 1062.57 119.597C1062.56 119.465 1026.86 144.002 940.476 167.167Z" fill="#5AC7E5" stroke="black" stroke-miterlimit="10" stroke-linecap="round" stroke-linejoin="round"/>
<path d="M180.795 66.7283C166.523 68.546 154.179 69.1121 141.59 62.7159C139.714 61.7297 137.824 60.3495 137.75 58.2476C137.771 55.0903 141.027 54.1865 143.64 53.6999C173.973 48.5547 204.175 43.4142 234.508 38.269C237.384 37.7732 240.261 37.2774 242.943 38.7612C244.149 39.3764 244.979 40.531 245.288 41.8354C246.065 45.2277 242.723 47.4498 239.748 48.8698C235.867 50.7162 231.986 52.5627 228.096 54.1464C214.094 59.9004 199.37 63.8385 184.323 66.078C183.019 66.387 181.71 66.5646 180.795 66.7283Z" fill="white" stroke="#000207" stroke-miterlimit="10" stroke-linecap="round" stroke-linejoin="round"/>
<path d="M115.486 53.5028C120.999 53.1772 126.329 51.4113 130.961 48.4861C132.247 47.6517 133.777 46.2826 133.459 44.7155C133.141 43.1483 131.405 42.4203 129.946 42.077C120.794 39.9002 110.735 41.8327 103.038 47.3647C101.884 48.1945 100.616 49.5544 101.188 50.8495C101.619 51.8866 102.946 52.2344 104.007 52.4602C107.45 53.1281 109.026 53.0726 112.587 53.3418L115.486 53.5028Z" fill="white" stroke="#000207" stroke-miterlimit="10" stroke-linecap="round" stroke-linejoin="round"/>
<path d="M539.802 106.174C467.406 119.507 366.216 136.88 294.938 118.477C280.734 114.768 265.945 109.37 256.722 97.7254C247.505 86.2125 246.698 67.038 258.483 58.0739" stroke="#000207" stroke-miterlimit="10" stroke-linecap="round" stroke-linejoin="round"/>
<path d="M345.154 158.793C296.564 149.718 246.53 148.191 197.557 154.387C171.762 157.663 142.325 162.119 122.531 145.322C104.092 129.662 100.818 100.184 80.4922 86.9577C69.1848 79.5957 55.0917 79.0396 41.7407 77.1422C-2.2809 70.8003 -43.5919 48.0537 -72.4038 14.2134" stroke="#000207" stroke-miterlimit="10" stroke-linecap="round" stroke-linejoin="round"/>
<path d="M882.79 202.344C829.048 203.841 802.385 178.738 781.858 163.546C745.26 136.424 691.824 135.412 640.583 155.629" stroke="#000207" stroke-miterlimit="10" stroke-linecap="round" stroke-linejoin="round"/>
<path d="M497.658 164.341C505.772 178.129 528.894 192.309 544.755 194.513C584.808 200.205 633.606 177.838 673.468 170.647C713.331 163.457 753.444 170.857 787.239 193.079" stroke="#000207" stroke-miterlimit="10" stroke-linecap="round" stroke-linejoin="round"/>
<path d="M310.293 192.245C310.293 192.245 352.201 213.26 393.052 226.685C433.908 240.241 376.186 255.688 330.654 240.061C285.257 224.561 271.143 182.312 310.293 192.245Z" fill="white" stroke="black" stroke-miterlimit="10" stroke-linecap="round" stroke-linejoin="round"/>
<path d="M255.369 223.769C261.126 222.909 265.965 218.398 266.55 212.59C267.035 207.707 264.613 202.399 252.354 201.647C229.156 200.228 215.995 211.213 223.034 216.884C228.324 221.433 244.381 225.471 255.369 223.769Z" fill="white" stroke="black" stroke-miterlimit="10" stroke-linecap="round" stroke-linejoin="round"/>
<path d="M1120.92 110.7C1120.92 110.7 1205.27 33.4182 1216.65 35.5164C1228.04 37.6146 1185.45 86.8582 1170.98 94.207C1156.5 101.556 1152.82 93.9257 1125.99 116.44C1099.16 138.955 1109.54 120.045 1120.92 110.7Z" fill="white" stroke="black" stroke-miterlimit="10" stroke-linecap="round" stroke-linejoin="round"/>
<path d="M1186.95 54.7152L1204.36 60.0207C1204.36 60.0207 1187.98 84.1407 1175.57 90.2333C1193.56 64.391 1153.3 87.775 1144.97 93.987C1136.51 100.204 1123.85 107.969 1123.85 107.969C1123.85 107.969 1169.13 64.2861 1186.95 54.7152Z" fill="#081B6A" stroke="black" stroke-miterlimit="10" stroke-linecap="round" stroke-linejoin="round"/>
<path d="M1337.66 9.55796C1337.66 9.55796 1335.87 -0.243468 1323.55 8.47641C1311.23 17.1963 1255.95 68.4648 1255.95 68.4648" stroke="black" stroke-miterlimit="10" stroke-linecap="round" stroke-linejoin="round"/>
<path d="M1227.86 25.2608C1227.86 25.2608 1227.72 17.3744 1188.45 41.3794C1163.08 56.7405 1146.18 66.279 1146.18 66.279" stroke="black" stroke-miterlimit="10" stroke-linecap="round" stroke-linejoin="round"/>
</g>
<defs>
<clipPath id="clip0_180_31166">
<rect width="1920" height="10720" fill="white" transform="translate(0 -2139)"/>
</clipPath>
</defs>
</svg>
