<svg width="1920" height="474" viewBox="0 0 1920 474" fill="none" xmlns="http://www.w3.org/2000/svg">
<path d="M-3.00012 384.5V172.5H42.4999L184.5 258L345 223.5L478.5 258L515 307.5L675.5 267L754 285.5C799 284.833 890.8 283.9 898 285.5C905.2 287.1 998.333 300.833 1044 307.5L1676 320.5C1690.5 320.5 1781.03 359.909 1793 359C1832.5 356 1737 303.724 1835.5 327.5C1847.1 330.3 1890.5 349.5 1922.5 339.5V384.5H-3.00012Z" fill="#5AC7E5"/>
<path d="M1287.69 329.812C1340.94 347.929 1329.6 347.145 1385.45 338.208C1443.65 328.925 1569.03 311.358 1625.83 325.537C1641.75 329.579 1661.08 329.425 1678.9 334.979C1692.73 339.228 1701.8 342.854 1712.04 346.176C1725.35 350.443 1745.69 367.877 1753.94 370.612C1778.82 378.549 1776.9 365.2 1778.62 357.906C1763.51 347.127 1743.23 339.16 1724.59 332.582C1682.36 317.496 1636.78 311.604 1594.4 310.86C1561.76 310.299 1528.65 315.016 1496.82 307.587C1491.26 306.336 1485.67 304.56 1481.58 300.626C1477.5 296.693 1475.56 290.053 1478.67 285.209C1482.04 279.961 1489.25 279.181 1495.56 279.09C1580.88 278.059 1666.33 291.624 1747.12 318.899C1762.42 323.753 1783.67 333.264 1794.46 340.907C1806.87 349.809 1808.55 356.326 1824.18 351.962C1832.12 349.709 1847.95 343.496 1845.95 335.412C1844.72 330.194 1837.41 327.953 1832.46 325.759C1686.02 256.865 1458.42 259.09 1288.29 231.014C1288.29 231.014 1282.17 232.939 1233.53 244.648" fill="#5AC7E5"/>
<path d="M1775.43 330.926C1776.36 331.288 1733.94 314.236 1715.06 308.588C1680.23 298.108 1620.75 282.314 1570.28 279.356C1492.38 274.733 1474.59 277.595 1472.82 286.865C1471.15 295.735 1481.72 300.756 1481.72 300.756C1481.72 300.756 1463.34 275.492 1552.56 280.375C1658.11 286.129 1748.45 319.118 1775.43 330.926Z" fill="#081B6A" stroke="black" stroke-miterlimit="10" stroke-linecap="round" stroke-linejoin="round"/>
<path d="M1736.73 359.907C1736.73 359.907 1716.41 343.13 1662.65 329.108C1608.89 315.085 1507.63 323.122 1504.09 323.247C1473.2 323.939 1439.92 331.293 1439.92 331.293C1439.92 331.293 1466.02 325.376 1511.27 321.942C1542.49 319.396 1680.14 321.652 1736.73 359.907Z" fill="#081B6A" stroke="black" stroke-miterlimit="10" stroke-linecap="round" stroke-linejoin="round"/>
<path d="M1481.72 300.756C1481.72 300.756 1489.42 310.218 1522.21 311.168C1554.99 312.118 1614.9 306.59 1661.36 314.95C1707.82 323.311 1754.47 344.554 1782.27 357.122C1799.78 365.055 1821.51 350.743 1775.43 330.926" stroke="black" stroke-miterlimit="10" stroke-linecap="round" stroke-linejoin="round"/>
<path d="M1844.58 330.063C1844.58 330.063 1786.8 306.318 1757.43 297.751C1727.93 289.188 1674.66 278.042 1605.64 267.845C1536.63 257.648 1414.72 246.946 1399.28 245.516C1383.84 244.087 1354.41 241.177 1345.11 238.48" stroke="black" stroke-miterlimit="10" stroke-linecap="round" stroke-linejoin="round"/>
<path d="M850.189 287.606C1068.62 271.761 1238.56 85.0614 1232.74 143.927C1231.67 154.75 1222.5 193.084 1221.57 204.033C1256.1 176.118 1290.87 143.722 1325.58 113.564C1331.96 108.079 1341.17 115.646 1336.96 122.897C1325.42 142.637 1313.77 162.908 1302.42 180.406C1298.05 187.005 1293.69 193.998 1294.04 200.298C1295.23 219.196 1335.93 205.663 1341.41 223.095C1343.18 228.557 1342.32 245.422 1343.18 251.179C1344.54 259.944 1373.15 269.196 1380.84 274.843C1407.72 294.81 1407.55 315.992 1419.98 344.096C1426.56 359.121 1428.85 379.427 1408.87 394.598C1395.93 404.392 1378.31 408.301 1362.23 411.234C1310.21 420.431 1258.82 425.265 1209.51 425.554" fill="#5AC7E5"/>
<path d="M1337.65 116.556C1337.65 116.556 1342.23 127.048 1322.61 159.832C1302.97 192.484 1288.98 205.866 1304.14 210.594C1319.3 215.321 1341.2 202.318 1347.71 219.187C1354.22 236.056 1364.06 235.315 1377.36 239.451C1398.11 245.954 1470.64 251.293 1470.64 251.293C1470.64 251.293 1363.79 249.924 1351.3 246.287C1323.39 238.063 1350.11 227.652 1338.25 223.203C1326.39 218.754 1272.85 229.714 1279.16 210.815C1285.47 192.048 1341.67 137.327 1337.65 116.556Z" fill="#081B6A" stroke="black" stroke-miterlimit="10" stroke-linecap="round" stroke-linejoin="round"/>
<path d="M1255.95 175.465C1255.95 175.465 1224.25 216.565 1217.7 209.956C1211.16 203.347 1223.34 171.878 1227.57 157.787C1231.81 143.696 1227.72 132.134 1227.72 132.134C1227.72 132.134 1234.49 133.737 1233.01 158.911C1231.53 184.085 1220.28 193.556 1227.28 194.362C1234.28 195.168 1255.95 175.465 1255.95 175.465Z" fill="#081B6A" stroke="black" stroke-miterlimit="10" stroke-linecap="round" stroke-linejoin="round"/>
<path d="M1159.27 164.008C1159.27 164.008 1074.79 226.432 990.825 262.401C906.862 298.37 845.392 274.623 845.392 274.623C845.392 274.623 887.419 291.557 998.969 243.437C1054.17 219.792 1159.27 164.008 1159.27 164.008Z" fill="#081B6A" stroke="black" stroke-miterlimit="10" stroke-linecap="round" stroke-linejoin="round"/>
<path d="M619.37 317.564C564.999 331.052 513.699 327.202 462.527 304.54C429.924 290.036 400.772 268.966 368.296 254.326C318.713 232.002 263.643 225.654 209.633 219.533C219.223 219.195 226.265 210.003 229.366 200.95C232.331 191.771 232.772 181.891 236.539 173.077C242.002 160.127 254.819 150.6 268.838 149.055C262.423 161.118 260.985 176.294 272.428 183.783C283.872 191.272 316.471 194.464 330.062 195.696C402.509 202.484 465.057 208.305 537.373 215.097C542.519 215.574 547.797 216.046 552.351 218.384C556.906 220.723 560.877 225.187 560.795 230.319C560.754 236.634 555.14 241.566 549.317 244.27C540.256 248.404 530.018 249.027 520.081 250.692C510.144 252.357 499.868 255.613 493.563 263.332C487.258 271.051 482.718 287.783 492.527 289.937C530.683 297.8 569.738 282.615 604.502 265.082C639.396 247.544 668.129 234.301 706.102 225.73C733.114 219.649 763.447 222.001 797.625 240.133C819.608 251.854 859.233 286.497 883.848 290.76C908.724 295.014 918.178 294.549 943.349 292.217C968.52 289.884 1012.5 242.696 1026.5 255.618C972.863 263.82 926.988 313.179 873.388 303.755C842.554 298.395 812.83 287.21 781.892 282.643C728.469 274.528 672.576 282.151 627.175 311.37" fill="#081B6A"/>
<path d="M619.37 317.564C564.998 331.052 513.699 327.202 462.527 304.54C429.924 290.036 400.772 268.966 368.296 254.326C318.713 232.002 263.643 225.654 209.633 219.533C219.223 219.195 226.265 210.003 229.366 200.95C232.331 191.771 232.772 181.891 236.539 173.077C242.002 160.127 254.819 150.6 268.838 149.055C262.423 161.118 260.985 176.294 272.428 183.783C283.872 191.272 316.471 194.464 330.062 195.696C402.509 202.484 465.057 208.305 537.373 215.097C542.519 215.574 547.797 216.046 552.351 218.384C556.906 220.723 560.877 225.187 560.795 230.319C560.754 236.634 555.14 241.566 549.317 244.27C540.256 248.404 530.018 249.027 520.081 250.692C510.144 252.357 499.868 255.613 493.563 263.332C487.258 271.051 482.718 287.783 492.527 289.937C530.683 297.8 569.738 282.615 604.502 265.082C639.396 247.544 668.129 234.301 706.102 225.73C733.114 219.649 763.447 222.001 797.625 240.133C819.608 251.854 859.233 286.497 883.847 290.76C908.724 295.014 918.178 294.549 943.349 292.217C968.52 289.884 1012.5 242.696 1026.5 255.618C972.863 263.82 926.988 313.179 873.388 303.755C842.554 298.395 812.83 287.21 781.892 282.643C728.469 274.528 672.576 282.151 627.175 311.37" stroke="black" stroke-miterlimit="10" stroke-linecap="round" stroke-linejoin="round"/>
<path d="M536.749 343.098C503.003 352.177 427.406 330.638 397.441 312.621C392.601 309.635 387.761 306.649 382.79 303.667C357.646 288.111 332.236 272.434 303.16 268.459C270.65 264.08 238.025 275.093 207.693 287.735C177.361 300.377 163.845 308.744 131.064 311.608C98.2832 314.472 70.6395 298.873 54.6374 270.237C47.0582 256.694 25.1929 225.897 13.0094 216.067C-71.445 148.41 -94.3173 160.001 -107.761 155.476C-121.068 151.078 -136.586 147.415 -133.908 103.917C-133.908 103.917 -52.5148 148.138 -5.31449 158.84C41.8903 169.674 78.0182 172.216 103.547 194.992C129.076 217.768 271.128 229.077 312.082 234.211" fill="#081B6A"/>
<path d="M536.749 343.098C503.003 352.177 427.406 330.638 397.441 312.621C392.601 309.635 387.761 306.649 382.79 303.667C357.646 288.111 332.236 272.434 303.16 268.459C270.65 264.08 238.025 275.093 207.693 287.735C177.361 300.377 163.845 308.744 131.064 311.608C98.2832 314.472 70.6395 298.873 54.6374 270.237C47.0582 256.694 25.1929 225.897 13.0094 216.067C-71.445 148.41 -94.3173 160.001 -107.761 155.476C-121.068 151.078 -136.586 147.415 -133.908 103.917C-133.908 103.917 -52.5148 148.138 -5.31452 158.84C41.8903 169.674 78.0182 172.216 103.547 194.992C129.076 217.768 271.128 229.077 312.082 234.211" stroke="black" stroke-miterlimit="10" stroke-linecap="round" stroke-linejoin="round"/>
<path d="M940.476 274.167C910.77 282.184 862.534 279.41 840.888 269.782C812.558 257.1 810.354 254.284 787.661 244.824C746.409 227.468 698.981 240.186 657.19 256.125C615.4 272.064 572.416 291.465 527.807 287.116C512.762 285.673 494.704 277.102 495.753 262.071C496.897 245.985 517.631 240.914 533.62 239.299C536.633 238.93 539.771 238.425 543.032 237.653C557.376 234.122 555.187 213.024 540.441 212.622C469.071 210.268 397.837 208.041 326.466 205.687C305.529 204.977 282.996 203.798 266.62 190.695C250.244 177.593 241.292 169.885 259.186 158.864C349.47 111.888 105.85 148.348 5.58192 143.328C-49.7573 140.542 -77.2185 107.706 -79.2239 84.3648C-81.0425 62.5954 -135.241 58.5847 -142.332 100.002C-145.4 117.472 -130.907 133.139 -115.847 142.474C-70.4148 170.205 -9.17621 168.706 29.5944 205.221C57.4766 231.334 70.436 274.413 105.671 288.956C137.435 302.043 172.911 286.063 205.541 275.181C253.768 259.015 294.446 245.088 342.023 262.748C386.264 279.078 435.141 322.471 479.858 337.338C579.938 370.642 648.732 273.653 752.634 292.223C798.958 300.457 805.896 310.734 852.966 310.261C881.627 309.91 893.683 312.379 954.926 292.335C1011.23 273.912 1035.77 246.086 1062.57 226.597C1062.56 226.465 1026.86 251.002 940.476 274.167Z" fill="#5AC7E5" stroke="black" stroke-miterlimit="10" stroke-linecap="round" stroke-linejoin="round"/>
<path d="M180.795 173.728C166.523 175.546 154.179 176.112 141.59 169.716C139.714 168.73 137.824 167.349 137.75 165.248C137.771 162.09 141.027 161.186 143.64 160.7C173.973 155.555 204.175 150.414 234.508 145.269C237.384 144.773 240.261 144.277 242.943 145.761C244.149 146.376 244.979 147.531 245.288 148.835C246.065 152.228 242.723 154.45 239.748 155.87C235.867 157.716 231.986 159.563 228.096 161.146C214.094 166.9 199.37 170.838 184.323 173.078C183.019 173.387 181.71 173.565 180.795 173.728Z" fill="white" stroke="#000207" stroke-miterlimit="10" stroke-linecap="round" stroke-linejoin="round"/>
<path d="M115.486 160.503C120.999 160.177 126.329 158.411 130.961 155.486C132.247 154.652 133.777 153.283 133.459 151.715C133.141 150.148 131.405 149.42 129.946 149.077C120.794 146.9 110.735 148.833 103.038 154.365C101.884 155.195 100.616 156.554 101.188 157.85C101.619 158.887 102.946 159.234 104.007 159.46C107.45 160.128 109.026 160.073 112.587 160.342L115.486 160.503Z" fill="white" stroke="#000207" stroke-miterlimit="10" stroke-linecap="round" stroke-linejoin="round"/>
<path d="M539.802 213.174C467.406 226.507 366.216 243.88 294.938 225.477C280.734 221.768 265.945 216.37 256.722 204.725C247.505 193.213 246.698 174.038 258.483 165.074" stroke="#000207" stroke-miterlimit="10" stroke-linecap="round" stroke-linejoin="round"/>
<path d="M345.154 265.793C296.564 256.718 246.53 255.191 197.557 261.387C171.762 264.663 142.325 269.119 122.531 252.322C104.092 236.662 100.818 207.184 80.4922 193.958C69.1848 186.596 55.0917 186.04 41.7407 184.142C-2.2809 177.8 -43.5919 155.054 -72.4038 121.213" stroke="#000207" stroke-miterlimit="10" stroke-linecap="round" stroke-linejoin="round"/>
<path d="M882.79 309.344C829.048 310.841 802.385 285.738 781.858 270.546C745.26 243.424 691.824 242.412 640.583 262.629" stroke="#000207" stroke-miterlimit="10" stroke-linecap="round" stroke-linejoin="round"/>
<path d="M497.658 271.341C505.772 285.129 528.894 299.309 544.755 301.513C584.808 307.205 633.606 284.838 673.468 277.647C713.331 270.457 753.444 277.857 787.239 300.079" stroke="#000207" stroke-miterlimit="10" stroke-linecap="round" stroke-linejoin="round"/>
<path d="M310.293 299.245C310.293 299.245 352.201 320.26 393.052 333.685C433.908 347.241 376.186 362.688 330.654 347.061C285.257 331.561 271.143 289.312 310.293 299.245Z" fill="white" stroke="black" stroke-miterlimit="10" stroke-linecap="round" stroke-linejoin="round"/>
<path d="M255.369 330.769C261.126 329.909 265.965 325.398 266.55 319.59C267.035 314.707 264.613 309.399 252.354 308.647C229.156 307.228 215.995 318.213 223.034 323.884C228.324 328.433 244.381 332.471 255.369 330.769Z" fill="white" stroke="black" stroke-miterlimit="10" stroke-linecap="round" stroke-linejoin="round"/>
<path d="M1120.92 217.7C1120.92 217.7 1205.27 140.418 1216.65 142.516C1228.04 144.615 1185.45 193.858 1170.98 201.207C1156.5 208.556 1152.82 200.926 1125.99 223.44C1099.16 245.955 1109.54 227.045 1120.92 217.7Z" fill="white" stroke="black" stroke-miterlimit="10" stroke-linecap="round" stroke-linejoin="round"/>
<path d="M1186.95 161.715L1204.36 167.021C1204.36 167.021 1187.98 191.141 1175.57 197.233C1193.56 171.391 1153.3 194.775 1144.97 200.987C1136.51 207.204 1123.85 214.969 1123.85 214.969C1123.85 214.969 1169.13 171.286 1186.95 161.715Z" fill="#081B6A" stroke="black" stroke-miterlimit="10" stroke-linecap="round" stroke-linejoin="round"/>
<path d="M1337.66 116.558C1337.66 116.558 1335.87 106.757 1323.55 115.476C1311.23 124.196 1255.95 175.465 1255.95 175.465" stroke="black" stroke-miterlimit="10" stroke-linecap="round" stroke-linejoin="round"/>
<path d="M1227.86 132.261C1227.86 132.261 1227.72 124.374 1188.45 148.379C1163.08 163.74 1146.18 173.279 1146.18 173.279" stroke="black" stroke-miterlimit="10" stroke-linecap="round" stroke-linejoin="round"/>
</svg>
