<svg width="320" height="362" viewBox="0 0 320 362" fill="none" xmlns="http://www.w3.org/2000/svg">
<path d="M-0.00585938 193.5L79.9941 222H159.994H319.994V286H-0.00585938V193.5Z" fill="#5AC7E5"/>
<path d="M221.839 242.879C180.255 253.195 141.02 250.251 101.882 232.918C76.9467 221.826 54.651 205.711 29.8125 194.514C-8.10906 177.44 -50.2277 172.585 -91.5355 167.903C-84.2012 167.645 -78.8154 160.615 -76.4437 153.691C-74.176 146.67 -73.8385 139.114 -70.9574 132.373C-66.7793 122.468 -56.9765 115.182 -46.2545 114C-51.1606 123.226 -52.2609 134.833 -43.5088 140.561C-34.7566 146.289 -9.82385 148.73 0.570452 149.672C55.9795 154.864 103.818 159.316 159.126 164.511C163.062 164.875 167.099 165.236 170.582 167.025C174.065 168.814 177.103 172.228 177.04 176.153C177.008 180.983 172.715 184.755 168.261 186.823C161.331 189.984 153.501 190.461 145.901 191.735C138.301 193.008 130.441 195.498 125.619 201.402C120.798 207.305 117.325 220.102 124.827 221.749C154.01 227.764 183.88 216.15 210.467 202.74C237.156 189.327 259.131 179.198 288.173 172.643C308.832 167.993 332.032 169.791 358.172 183.658C374.985 192.623 405.291 219.119 424.117 222.379C443.143 225.633 450.373 225.278 469.625 223.493C488.876 221.709 522.511 185.619 533.221 195.502C492.198 201.775 457.112 239.526 416.117 232.318C392.535 228.219 369.801 219.664 346.139 216.172C305.28 209.965 262.532 215.795 227.809 238.142" fill="#081B6A"/>
<path d="M221.839 242.879C180.255 253.195 141.02 250.251 101.882 232.918C76.9467 221.826 54.651 205.711 29.8125 194.514C-8.10904 177.44 -50.2277 172.585 -91.5355 167.903C-84.2012 167.645 -78.8154 160.615 -76.4437 153.691C-74.176 146.67 -73.8385 139.114 -70.9574 132.373C-66.7794 122.468 -56.9765 115.182 -46.2545 114C-51.1606 123.226 -52.2609 134.833 -43.5087 140.561C-34.7566 146.289 -9.82388 148.73 0.570473 149.672C55.9794 154.864 103.818 159.316 159.126 164.511C163.062 164.875 167.099 165.236 170.582 167.025C174.065 168.814 177.103 172.228 177.04 176.153C177.008 180.983 172.715 184.755 168.261 186.823C161.331 189.984 153.501 190.461 145.901 191.735C138.301 193.008 130.441 195.498 125.619 201.402C120.798 207.305 117.325 220.102 124.827 221.749C154.01 227.764 183.88 216.15 210.467 202.74C237.156 189.327 259.131 179.198 288.173 172.643C308.832 167.993 332.032 169.791 358.172 183.658C374.985 192.623 405.291 219.119 424.117 222.379C443.143 225.633 450.373 225.278 469.625 223.493C488.876 221.709 522.511 185.619 533.221 195.502C492.198 201.775 457.112 239.526 416.117 232.318C392.535 228.219 369.801 219.664 346.139 216.172C305.28 209.965 262.532 215.795 227.809 238.142" stroke="black" stroke-miterlimit="10" stroke-linecap="round" stroke-linejoin="round"/>
<path d="M158.648 262.41C132.838 269.355 75.0203 252.881 52.1027 239.101C48.4009 236.817 44.6991 234.533 40.8968 232.253C21.6669 220.356 2.23249 208.365 -20.0052 205.325C-44.8693 201.976 -69.8219 210.399 -93.0206 220.068C-116.219 229.736 -126.556 236.136 -151.628 238.326C-176.699 240.517 -197.842 228.586 -210.08 206.685C-215.877 196.327 -232.6 172.773 -241.918 165.255C-306.511 113.509 -324.004 122.374 -334.286 118.913C-344.464 115.55 -356.332 112.748 -354.284 79.4803C-354.284 79.4803 -292.032 113.301 -255.933 121.486C-219.83 129.772 -192.198 131.716 -172.673 149.136C-153.148 166.556 -44.504 175.205 -13.1815 179.132" fill="#081B6A"/>
<path d="M158.648 262.41C132.838 269.355 75.0203 252.881 52.1027 239.101C48.4009 236.817 44.6991 234.533 40.8968 232.253C21.6669 220.356 2.2325 208.365 -20.0052 205.325C-44.8693 201.976 -69.8219 210.399 -93.0206 220.068C-116.219 229.736 -126.556 236.136 -151.628 238.326C-176.699 240.517 -197.842 228.586 -210.08 206.685C-215.877 196.327 -232.6 172.773 -241.918 165.255C-306.511 113.509 -324.004 122.374 -334.286 118.913C-344.464 115.55 -356.332 112.748 -354.284 79.4803C-354.284 79.4803 -292.032 113.301 -255.933 121.486C-219.83 129.772 -192.198 131.716 -172.673 149.136C-153.148 166.556 -44.504 175.205 -13.1815 179.132" stroke="black" stroke-miterlimit="10" stroke-linecap="round" stroke-linejoin="round"/>
<path d="M467.428 209.69C444.708 215.822 407.816 213.7 391.261 206.336C369.593 196.637 367.908 194.483 350.552 187.248C319.001 173.974 282.727 183.701 250.765 195.891C218.803 208.082 185.928 222.92 151.81 219.594C140.304 218.49 126.493 211.935 127.295 200.439C128.17 188.136 144.028 184.258 156.257 183.023C158.56 182.74 160.961 182.354 163.455 181.763C174.425 179.063 172.751 162.927 161.474 162.619C106.888 160.819 52.4066 159.116 -2.1788 157.315C-18.1924 156.773 -35.4257 155.87 -47.9504 145.849C-60.475 135.829 -67.3218 129.933 -53.636 121.505C15.4145 85.5759 -170.91 113.461 -247.598 109.622C-289.922 107.491 -310.925 82.3775 -312.459 64.5258C-313.85 47.8761 -355.302 44.8086 -360.725 76.4855C-363.072 89.8466 -351.987 101.829 -340.469 108.969C-305.721 130.178 -258.885 129.032 -229.232 156.959C-207.907 176.931 -197.996 209.879 -171.047 221.001C-146.754 231.01 -119.621 218.788 -94.6651 210.466C-57.7799 198.102 -26.6688 187.45 9.71882 200.957C43.5558 213.446 80.9379 246.634 115.138 258.004C191.681 283.476 244.296 209.297 323.763 223.5C359.192 229.797 364.499 237.658 400.499 237.296C422.419 237.027 431.639 238.915 478.48 223.586C521.541 209.496 540.307 188.213 560.806 173.308C560.803 173.207 533.498 191.974 467.428 209.69Z" fill="#5AC7E5" stroke="black" stroke-miterlimit="10" stroke-linecap="round" stroke-linejoin="round"/>
<path d="M160.981 163.041C105.611 173.239 28.2184 186.526 -26.2962 172.451C-37.1597 169.614 -48.471 165.486 -55.5243 156.58C-62.5741 147.775 -63.1909 133.11 -54.1776 126.254" stroke="#000207" stroke-miterlimit="10" stroke-linecap="round" stroke-linejoin="round"/>
<path d="M12.1084 203.286C-25.054 196.345 -63.3209 195.178 -100.776 199.917C-120.505 202.422 -143.019 205.83 -158.158 192.984C-172.26 181.007 -174.764 158.461 -190.31 148.345C-198.958 142.715 -209.737 142.289 -219.948 140.838C-253.616 135.988 -285.212 118.591 -307.248 92.709" stroke="#000207" stroke-miterlimit="10" stroke-linecap="round" stroke-linejoin="round"/>
<path d="M423.304 236.593C382.201 237.739 361.809 218.539 346.109 206.92C318.118 186.177 277.25 185.402 238.059 200.865" stroke="#000207" stroke-miterlimit="10" stroke-linecap="round" stroke-linejoin="round"/>
<path d="M128.746 207.533C134.952 218.079 152.636 228.924 164.767 230.609C195.4 234.963 232.722 217.856 263.209 212.356C293.697 206.857 324.376 212.517 350.224 229.512" stroke="#000207" stroke-miterlimit="10" stroke-linecap="round" stroke-linejoin="round"/>
</svg>
