<svg width="183" height="365" viewBox="0 0 183 365" fill="none" xmlns="http://www.w3.org/2000/svg">
<path d="M99.0071 252.676C120.363 249.688 138.379 230.639 140.22 209.19C140.738 202.869 139.915 196.113 136.163 190.986C132.411 185.859 125.21 182.939 119.406 185.519C131.207 178.407 137.748 163.51 134.989 150.009C132.23 136.508 120.385 125.364 106.738 123.442C93.0913 121.521 78.6295 128.967 72.2561 141.184C71.8489 129.506 57.8788 122.02 46.4591 124.473C35.0394 126.927 26.348 136.175 19.6966 145.78C21.4514 139.905 18.1279 132.981 12.4464 130.684C6.76491 128.387 -0.445671 131.056 -3.25896 136.494C0.0432617 116.528 -16.8125 96.392 -36.8354 93.7131C-56.8584 91.0341 -77.223 103.945 -85.8406 122.235C-88.9415 108.828 -106.894 98.7025 -120.149 102.368C-133.404 106.034 -142.997 112.843 -148.342 125.529C-147.005 127.292 -129.195 228.735 -129.195 228.735C-129.195 228.735 -126.377 228.13 -120.614 235.742C-113.774 244.775 -98.204 248.378 -90.5357 239.909C-91.7124 244.148 -91.5881 248.643 -90.1791 252.811C-88.7701 256.98 -86.1414 260.628 -82.6338 263.284C-79.1262 265.94 -74.9015 267.481 -70.5075 267.707C-66.1136 267.933 -61.753 266.834 -57.9913 264.552C-64.4492 276.755 -59.7282 292.727 -49.6656 302.192C-39.6031 311.657 -25.4393 315.544 -11.6638 316.51C26.8966 319.21 66.2648 299.899 87.7145 267.753" fill="#F3BEDA"/>
<path d="M-129.476 228.888C-129.498 228.861 -129.516 228.831 -129.528 228.799C-135.641 193.98 -147.482 127.682 -148.613 125.724C-148.644 125.683 -148.664 125.634 -148.671 125.583C-148.677 125.532 -148.67 125.48 -148.649 125.432C-143.617 113.455 -134.58 106.057 -120.244 102.086C-113.728 100.283 -105.621 101.715 -98.5772 105.928C-92.0545 109.803 -87.4252 115.402 -85.7706 121.372C-76.5011 102.538 -56.0669 90.8311 -36.8174 93.4217C-26.5887 94.7886 -16.5873 100.899 -10.0424 109.769C-4.29239 117.562 -1.74724 126.47 -2.75871 135.077C0.524156 130.368 7.18499 128.238 12.5592 130.401C17.9335 132.563 21.2132 138.713 20.3289 144.363C28.6025 132.779 37.1371 126.171 46.3936 124.182C49.7571 123.515 53.2244 123.574 56.563 124.356C59.9017 125.138 63.0346 126.625 65.7518 128.717C69.6563 131.762 72.0156 135.776 72.4729 140.118C79.1214 128.354 93.369 121.246 106.771 123.129C120.525 125.079 132.512 136.349 135.285 149.946C137.908 162.803 132.134 176.972 121.455 184.534C126.683 183.398 132.772 185.849 136.401 190.811C140.611 196.563 140.963 203.993 140.516 209.211C138.672 230.752 120.453 249.967 99.0471 252.976C98.9671 252.987 98.8861 252.966 98.8216 252.917C98.7572 252.869 98.7144 252.797 98.7028 252.717C98.6927 252.638 98.7141 252.559 98.7623 252.496C98.8105 252.433 98.8816 252.391 98.9602 252.381C120.108 249.416 138.095 230.439 139.917 209.16C140.354 204.046 140.017 196.774 135.915 191.161C132.504 186.455 125.408 183.176 119.523 185.795C119.489 185.812 119.451 185.821 119.413 185.823C119.375 185.825 119.337 185.819 119.301 185.806C119.266 185.793 119.233 185.774 119.204 185.748C119.176 185.722 119.154 185.691 119.137 185.657C119.102 185.589 119.093 185.51 119.114 185.436C119.135 185.362 119.183 185.299 119.248 185.259C130.921 178.228 137.42 163.425 134.697 150.071C131.974 136.716 120.195 125.638 106.695 123.742C93.1949 121.847 78.8239 129.234 72.5155 141.322C72.4846 141.381 72.4354 141.428 72.3754 141.457C72.3153 141.485 72.2477 141.493 72.1827 141.48C72.1169 141.465 72.0579 141.429 72.0151 141.377C71.9724 141.325 71.9485 141.26 71.9471 141.192C71.7874 136.644 69.4592 132.383 65.3854 129.213C62.7378 127.171 59.6841 125.718 56.4292 124.952C53.1742 124.186 49.7931 124.125 46.5126 124.773C37.0884 126.796 28.3978 133.724 19.942 145.955C19.8998 146.012 19.8391 146.054 19.7701 146.072C19.7011 146.091 19.6279 146.085 19.5627 146.056C19.4974 146.025 19.4454 145.972 19.4162 145.906C19.387 145.84 19.3826 145.765 19.4036 145.696C21.121 139.961 17.8834 133.21 12.329 130.964C6.77454 128.718 -0.258932 131.286 -2.9995 136.633C-3.03409 136.696 -3.08934 136.745 -3.15594 136.772C-3.22255 136.799 -3.29643 136.802 -3.36518 136.781C-3.43207 136.756 -3.48818 136.709 -3.52386 136.647C-3.55955 136.585 -3.57257 136.513 -3.56068 136.443C-2.08117 127.552 -4.5529 118.206 -10.525 110.124C-16.9627 101.379 -26.8264 95.3634 -36.8819 94.0077C-56.1315 91.4171 -76.6355 103.352 -85.5737 122.363C-85.5997 122.42 -85.6428 122.467 -85.6969 122.499C-85.7511 122.53 -85.8136 122.543 -85.8759 122.537C-85.9375 122.53 -85.9953 122.503 -86.0416 122.462C-86.0879 122.42 -86.1205 122.366 -86.1351 122.305C-87.5799 116.193 -92.1876 110.414 -98.8674 106.436C-105.79 102.313 -113.723 100.905 -120.091 102.651C-134.189 106.554 -143.066 113.832 -148.043 125.52C-146.226 130.326 -130.97 217.073 -128.968 228.421C-128.06 228.466 -125.21 229.203 -120.396 235.557C-116.558 240.628 -109.788 244.089 -103.163 244.362C-98.1135 244.579 -93.7293 242.909 -90.8002 239.669C-90.7567 239.617 -90.6962 239.582 -90.6294 239.57C-90.5626 239.558 -90.4938 239.57 -90.4349 239.604C-90.3754 239.637 -90.3283 239.688 -90.3012 239.751C-90.274 239.813 -90.2683 239.882 -90.2849 239.948C-91.4446 244.129 -91.3217 248.562 -89.9322 252.672C-88.5427 256.782 -85.9507 260.38 -82.4921 262.999C-79.0336 265.619 -74.8679 267.139 -70.5351 267.363C-66.2023 267.587 -61.9021 266.504 -58.1919 264.255C-58.1365 264.22 -58.071 264.204 -58.0057 264.211C-57.9404 264.217 -57.879 264.245 -57.8314 264.29C-57.7821 264.334 -57.7491 264.394 -57.7378 264.459C-57.7266 264.525 -57.7377 264.592 -57.7694 264.65C-63.7167 275.884 -60.1594 291.911 -49.5057 301.93C-40.8061 310.104 -27.7135 315.048 -11.6863 316.172C7.18232 317.489 26.5276 313.593 44.2585 304.891C61.9894 296.189 76.9169 283.257 87.4225 267.551C87.4436 267.517 87.4712 267.488 87.5037 267.466C87.5362 267.443 87.5729 267.427 87.6117 267.419C87.6504 267.411 87.6904 267.411 87.7293 267.418C87.7681 267.426 87.805 267.441 87.8377 267.464C87.8706 267.486 87.8988 267.514 87.9207 267.547C87.9426 267.58 87.9578 267.617 87.9654 267.656C87.973 267.695 87.9728 267.735 87.965 267.773C87.9571 267.812 87.9416 267.849 87.9194 267.882C77.3614 283.702 62.3535 296.687 44.531 305.435C26.7085 314.183 7.24625 318.105 -11.7253 316.778C-27.8959 315.647 -41.1013 310.664 -49.9104 302.372C-60.4757 292.434 -64.1705 276.674 -58.7455 265.269C-62.4983 267.312 -66.7599 268.232 -71.0214 267.919C-75.2828 267.605 -79.3639 266.072 -82.7772 263.501C-86.1906 260.931 -88.7918 257.432 -90.2703 253.423C-91.7488 249.414 -92.042 245.064 -91.1149 240.893C-94.1374 243.742 -98.36 245.187 -103.167 244.982C-109.976 244.69 -116.933 241.122 -120.89 235.94C-126.381 228.691 -129.147 229.038 -129.171 229.044C-129.231 229.05 -129.292 229.039 -129.347 229.011C-129.401 228.983 -129.446 228.94 -129.476 228.888Z" fill="#000207"/>
<path d="M87.0453 172.743C97.1738 164.817 109.831 160.831 122.673 161.522C134.035 162.179 145.626 167.025 152.073 176.423C158.52 185.822 158.286 199.974 149.857 207.619" fill="#F3BEDA"/>
<path d="M86.7872 172.89C86.7518 172.828 86.7401 172.754 86.7542 172.684C86.7683 172.613 86.8071 172.55 86.8638 172.506C97.0547 164.531 109.789 160.517 122.711 161.207C135.287 161.948 146.358 167.566 152.324 176.249C159.224 186.289 158.202 200.459 150.064 207.838C150.035 207.865 150.001 207.886 149.963 207.9C149.926 207.914 149.887 207.92 149.847 207.919C149.807 207.917 149.768 207.907 149.732 207.891C149.696 207.874 149.664 207.85 149.637 207.821C149.584 207.761 149.556 207.682 149.56 207.601C149.565 207.521 149.6 207.445 149.66 207.391C157.583 200.205 158.551 186.386 151.827 176.592C145.97 168.061 135.064 162.536 122.668 161.843C109.901 161.163 97.319 165.126 87.2465 173C87.1827 173.049 87.1024 173.071 87.0227 173.061C86.943 173.051 86.8703 173.011 86.8203 172.948L86.7872 172.89Z" fill="#000207"/>
<path d="M2.10947 152.605C4.57652 149.852 7.85248 147.953 11.4667 147.179C15.081 146.405 18.8475 146.797 22.2252 148.298C28.8945 151.428 32.972 159.284 31.7098 166.542" fill="#F3BEDA"/>
<path d="M1.85311 152.75C1.82306 152.696 1.80991 152.635 1.81536 152.573C1.82081 152.512 1.84461 152.453 1.88367 152.406C4.39254 149.602 7.72634 147.667 11.4052 146.878C15.084 146.09 18.9181 146.489 22.3556 148.018C29.1394 151.214 33.2921 159.201 32.0133 166.587C31.9998 166.665 31.9556 166.736 31.8904 166.782C31.8252 166.828 31.7443 166.846 31.6656 166.833C31.6266 166.826 31.5893 166.812 31.5559 166.791C31.5224 166.769 31.4934 166.742 31.4706 166.71C31.4245 166.645 31.4062 166.564 31.4197 166.485C32.0278 162.895 31.4438 159.205 29.757 155.978C28.0701 152.752 25.3732 150.166 22.0784 148.617C18.7835 147.067 15.072 146.639 11.511 147.398C7.95 148.157 4.73543 150.061 2.35855 152.819C2.30715 152.88 2.23366 152.918 2.15422 152.925C2.07479 152.932 1.9959 152.907 1.93491 152.855C1.90022 152.827 1.87229 152.791 1.85311 152.75Z" fill="#000207"/>
<path d="M-36.6896 187.731C-34.653 195.036 -31.3431 202.093 -26.2698 207.728C-21.1964 213.363 -14.2384 217.487 -6.70624 218.333C0.8259 219.18 8.88535 216.465 13.7286 210.633" fill="#F3BEDA"/>
<path d="M-31.6398 200.778C-33.9532 196.696 -35.7432 192.338 -36.9674 187.809C-36.9786 187.769 -36.982 187.728 -36.9773 187.688C-36.9727 187.648 -36.9601 187.608 -36.9404 187.573C-36.9206 187.537 -36.894 187.506 -36.8622 187.481C-36.8303 187.455 -36.7937 187.436 -36.7546 187.425C-36.7154 187.414 -36.6745 187.411 -36.634 187.415C-36.5936 187.42 -36.5544 187.432 -36.5189 187.452C-36.4833 187.472 -36.4519 187.499 -36.4266 187.53C-36.4012 187.562 -36.3824 187.599 -36.3713 187.638C-34.1336 195.688 -30.6351 202.386 -26.0206 207.515C-20.7081 213.408 -13.6491 217.237 -6.64324 218.027C1.17108 218.905 8.90362 215.996 13.5205 210.434C13.5733 210.374 13.6473 210.337 13.7271 210.329C13.8069 210.322 13.8864 210.346 13.9493 210.395C14.0103 210.447 14.0483 210.52 14.0551 210.6C14.0619 210.679 14.0369 210.758 13.9855 210.819C9.23506 216.534 1.30816 219.527 -6.72421 218.608C-13.8682 217.808 -21.0692 213.901 -26.477 207.903C-28.4423 205.715 -30.1727 203.327 -31.6398 200.778Z" fill="#000207"/>
<path d="M31.0989 157.85C38.7197 156.674 46.8422 161.562 49.3621 168.839C50.7642 172.891 50.5548 177.305 50.3269 181.59" fill="#F3BEDA"/>
<path d="M30.8409 157.988C30.818 157.96 30.7997 157.928 30.7867 157.894C30.7802 157.855 30.7816 157.815 30.7907 157.776C30.7999 157.737 30.8166 157.701 30.84 157.668C30.8634 157.636 30.8929 157.609 30.927 157.588C30.961 157.567 30.9988 157.554 31.0381 157.548C38.7418 156.358 47.0879 161.381 49.6404 168.75C51.0818 172.919 50.836 177.534 50.6198 181.611C50.6211 181.653 50.6137 181.694 50.598 181.733C50.5823 181.772 50.5587 181.807 50.5286 181.836C50.4986 181.865 50.4628 181.888 50.4235 181.903C50.3843 181.917 50.3424 181.923 50.3007 181.921C50.2589 181.918 50.2181 181.907 50.181 181.888C50.1438 181.868 50.1111 181.842 50.0848 181.809C50.0586 181.776 50.0395 181.739 50.0286 181.698C50.0178 181.658 50.0156 181.615 50.022 181.574C50.234 177.562 50.4658 172.983 49.0637 168.93C46.6027 161.828 38.5528 156.981 31.1213 158.125C31.0664 158.131 31.0107 158.122 30.961 158.098C30.9113 158.073 30.8696 158.035 30.8409 157.988Z" fill="#000207"/>
<path d="M72.9178 179.748C75.1819 176.953 78.1748 174.838 81.5658 173.637C84.9736 172.538 88.8707 172.719 91.9298 174.565C94.9889 176.41 97.036 180.028 96.578 183.578" fill="#F3BEDA"/>
<path d="M72.6578 179.894C72.6269 179.84 72.6133 179.778 72.6187 179.717C72.6242 179.655 72.6485 179.597 72.6883 179.549C74.9946 176.716 78.0357 174.57 81.4791 173.349C83.216 172.755 85.0585 172.533 86.8868 172.698C88.7151 172.863 90.488 173.411 92.0903 174.307C95.3619 176.28 97.3352 180.107 96.88 183.614C96.8698 183.694 96.8284 183.766 96.7649 183.815C96.7013 183.864 96.6209 183.886 96.5413 183.876C96.4618 183.865 96.3895 183.824 96.3404 183.76C96.2914 183.697 96.2696 183.616 96.2798 183.537C96.7054 180.256 94.8518 176.672 91.7814 174.819C88.9602 173.121 85.1782 172.79 81.6645 173.922C78.3255 175.105 75.379 177.188 73.1512 179.942C73.0981 180.002 73.0238 180.038 72.9442 180.044C72.8645 180.05 72.7857 180.024 72.7245 179.973C72.6976 179.951 72.6749 179.924 72.6578 179.894Z" fill="#000207"/>
<path d="M64.0035 145.267C65.4433 144.236 67.1033 143.556 68.8519 143.279C70.6005 143.002 72.3895 143.137 74.0771 143.672C75.7647 144.207 77.3044 145.128 78.5739 146.362C79.8435 147.596 80.8081 149.108 81.3911 150.78" fill="#F3BEDA"/>
<path d="M63.7532 145.407C63.7177 145.341 63.7073 145.264 63.7236 145.191C63.74 145.118 63.7822 145.053 63.8424 145.008C65.3208 143.949 67.026 143.249 68.8224 142.964C70.6189 142.679 72.457 142.817 74.1907 143.367C75.9244 143.917 77.5059 144.864 78.8095 146.132C80.1131 147.401 81.1028 148.956 81.7 150.674C81.7267 150.751 81.7219 150.835 81.6866 150.908C81.6514 150.981 81.5885 151.037 81.5118 151.064C81.4351 151.091 81.351 151.086 81.2779 151.05C81.2047 151.015 81.1486 150.952 81.1219 150.876C80.5553 149.247 79.6168 147.773 78.3809 146.571C77.145 145.369 75.6457 144.472 74.0023 143.951C72.3588 143.43 70.6164 143.299 68.9136 143.569C67.2108 143.839 65.5945 144.503 64.1931 145.507C64.1612 145.53 64.125 145.547 64.0866 145.556C64.0482 145.565 64.0084 145.566 63.9695 145.559C63.9307 145.553 63.8936 145.538 63.8604 145.517C63.8272 145.496 63.7987 145.468 63.7764 145.435L63.7532 145.407Z" fill="#000207"/>
<path d="M-11.0969 132.891C-9.59837 132.638 -8.05843 132.849 -6.68287 133.495C-5.3073 134.141 -4.16163 135.191 -3.39897 136.505C-2.6363 137.82 -2.29296 139.336 -2.41483 140.85C-2.5367 142.365 -3.11799 143.807 -4.08099 144.982" fill="#F3BEDA"/>
<path d="M-11.3559 133.047L-11.41 132.953C-11.4165 132.914 -11.4152 132.874 -11.406 132.835C-11.3969 132.796 -11.3801 132.76 -11.3568 132.728C-11.3334 132.695 -11.3038 132.668 -11.2698 132.647C-11.2358 132.627 -11.198 132.613 -11.1586 132.607C-9.60212 132.377 -8.01242 132.611 -6.58838 133.28C-5.16434 133.949 -3.96918 135.023 -3.15239 136.368C-2.39505 137.745 -2.05894 139.314 -2.18581 140.88C-2.31268 142.446 -2.89694 143.941 -3.866 145.178C-3.91719 145.239 -3.99035 145.278 -4.06989 145.287C-4.14943 145.295 -4.22907 145.272 -4.29184 145.222C-4.35199 145.17 -4.39007 145.097 -4.39833 145.018C-4.40658 144.939 -4.38439 144.86 -4.33627 144.796C-3.44024 143.656 -2.89959 142.278 -2.7817 140.832C-2.66382 139.387 -2.97391 137.939 -3.67334 136.669C-4.42717 135.429 -5.52974 134.439 -6.84321 133.822C-8.15668 133.206 -9.62276 132.99 -11.0582 133.202C-11.1174 133.207 -11.1768 133.195 -11.2295 133.168C-11.2822 133.14 -11.3261 133.099 -11.3559 133.047Z" fill="#000207"/>
<path d="M-7.62396 218.363C-8.50401 221.479 -8.58373 224.767 -7.85573 227.922C-7.12774 231.078 -5.61556 233.998 -3.45915 236.414C-1.30275 238.829 1.42819 240.662 4.48088 241.742C7.53358 242.822 10.8094 243.114 14.0051 242.592" fill="#F3BEDA"/>
<path d="M-5.92883 233.538C-7.24833 231.251 -8.10259 228.726 -8.44244 226.108C-8.78229 223.489 -8.60103 220.83 -7.90909 218.282C-7.89897 218.243 -7.88134 218.207 -7.85724 218.176C-7.83313 218.144 -7.80301 218.118 -7.76863 218.098C-7.73424 218.078 -7.69626 218.065 -7.65689 218.06C-7.61751 218.055 -7.57753 218.058 -7.53922 218.068C-7.46255 218.09 -7.39736 218.141 -7.3575 218.21C-7.31764 218.279 -7.30623 218.361 -7.32567 218.438C-8.19674 221.504 -8.27925 224.74 -7.56557 227.846C-6.85188 230.952 -5.36513 233.827 -3.24328 236.205C-1.12143 238.583 1.56674 240.386 4.57173 241.447C7.57672 242.509 10.8011 242.794 13.9457 242.276C14.0252 242.263 14.1067 242.282 14.1725 242.328C14.2383 242.375 14.2832 242.445 14.2975 242.524C14.3075 242.603 14.2871 242.683 14.2404 242.747C14.1937 242.812 14.1242 242.856 14.0461 242.871C10.8005 243.369 7.48224 243.058 4.38575 241.965C1.28925 240.873 -1.48967 239.033 -3.7044 236.609C-4.54788 235.663 -5.29317 234.634 -5.92883 233.538Z" fill="#000207"/>
<path d="M106.036 163.292C106.181 161.511 106.729 159.787 107.636 158.247C108.544 156.708 109.789 155.395 111.277 154.405C112.765 153.416 114.457 152.776 116.228 152.535C117.998 152.293 119.801 152.455 121.499 153.01" fill="#F3BEDA"/>
<path d="M105.805 163.424C105.774 163.37 105.76 163.308 105.765 163.246C105.932 161.425 106.501 159.663 107.43 158.088C108.359 156.513 109.626 155.163 111.139 154.135C112.675 153.139 114.413 152.496 116.227 152.252C118.041 152.008 119.887 152.169 121.632 152.724C121.67 152.734 121.706 152.751 121.738 152.775C121.769 152.799 121.796 152.83 121.816 152.864C121.835 152.898 121.848 152.936 121.853 152.976C121.859 153.015 121.856 153.055 121.845 153.093C121.835 153.132 121.818 153.168 121.793 153.199C121.769 153.231 121.739 153.257 121.705 153.277C121.67 153.297 121.633 153.31 121.593 153.315C121.554 153.32 121.514 153.317 121.475 153.307C119.812 152.774 118.052 152.618 116.321 152.849C114.589 153.079 112.931 153.691 111.465 154.641C110.028 155.618 108.825 156.901 107.942 158.398C107.059 159.895 106.518 161.569 106.358 163.299C106.353 163.363 106.327 163.423 106.285 163.471C106.244 163.519 106.188 163.552 106.125 163.567C106.063 163.581 105.998 163.575 105.94 163.55C105.881 163.525 105.832 163.482 105.8 163.427L105.805 163.424Z" fill="#000207"/>
<path d="M27.8182 210.258C29.4429 214.877 31.9576 219.281 35.5717 222.605C39.1857 225.929 43.9832 228.091 48.893 227.993C53.8028 227.895 58.7249 225.352 61.1562 221.093" fill="#F3BEDA"/>
<path d="M30.2674 216.377C29.1698 214.458 28.2521 212.442 27.5262 210.354C27.4999 210.279 27.5042 210.196 27.5383 210.125C27.5723 210.053 27.6334 209.998 27.7081 209.971C27.7841 209.945 27.867 209.951 27.9391 209.986C28.0112 210.021 28.0668 210.082 28.0939 210.158C29.8863 215.235 32.4698 219.349 35.776 222.393C39.5518 225.853 44.3252 227.792 48.8851 227.702C53.8859 227.593 58.6083 224.957 60.893 220.95C60.9121 220.915 60.9379 220.885 60.969 220.861C61 220.836 61.0357 220.818 61.0737 220.808C61.1118 220.798 61.1516 220.795 61.1907 220.801C61.2298 220.806 61.2674 220.819 61.3014 220.839C61.3706 220.88 61.4213 220.945 61.4426 221.023C61.4638 221.1 61.454 221.183 61.4151 221.253C59.0185 225.415 54.1139 228.205 48.8945 228.308C44.1861 228.394 39.2558 226.399 35.3713 222.835C33.3497 220.956 31.6284 218.778 30.2674 216.377Z" fill="#000207"/>
<path d="M50.8235 207.846C52.4834 212.645 57.006 216.244 62.0111 217.105C64.5294 217.482 67.1005 217.281 69.5295 216.516C71.9584 215.752 74.1813 214.444 76.0297 212.693C79.7122 209.11 81.862 204.238 82.027 199.103" fill="#F3BEDA"/>
<path d="M51.5621 210.184C51.15 209.471 50.8071 208.72 50.5381 207.941C50.5114 207.865 50.5162 207.781 50.5514 207.707C50.5867 207.634 50.6496 207.578 50.7263 207.551C50.8029 207.525 50.8871 207.529 50.9602 207.565C51.0333 207.6 51.0895 207.663 51.1162 207.74C52.6974 212.307 57.0986 215.948 62.0708 216.8C64.542 217.172 67.0654 216.979 69.4509 216.234C71.8365 215.49 74.0221 214.214 75.843 212.502C79.4757 208.977 81.5916 204.175 81.7419 199.115C81.7417 199.075 81.7498 199.034 81.7658 198.996C81.7817 198.959 81.8051 198.925 81.8346 198.897C81.8641 198.868 81.899 198.846 81.9373 198.832C81.9755 198.818 82.0163 198.811 82.0571 198.813C82.0979 198.815 82.1378 198.826 82.1745 198.843C82.2112 198.861 82.2439 198.887 82.2706 198.917C82.2972 198.948 82.3173 198.984 82.3296 199.023C82.3419 199.062 82.3461 199.103 82.342 199.144C82.1863 204.359 80.0024 209.308 76.2546 212.939C74.3685 214.718 72.1034 216.046 69.6298 216.823C67.1561 217.601 64.5384 217.807 61.9736 217.426C59.8191 217.04 57.7735 216.193 55.9765 214.943C54.1796 213.693 52.6738 212.07 51.5621 210.184Z" fill="#000207"/>
<g style="mix-blend-mode:multiply">
<g style="mix-blend-mode:multiply">
<path d="M-115.736 186.846C-113.845 196.145 -109.909 204.906 -104.214 212.496C-98.5185 220.086 -91.2067 226.315 -82.8077 230.73C-78.6108 232.899 -73.9906 234.621 -69.2795 234.311C-64.5683 234.002 -59.7704 231.231 -58.2466 226.761C-57.8649 235.903 -54.3485 245.278 -47.2008 250.946C-40.0531 256.613 -28.896 257.687 -21.7962 251.914C-14.6965 246.141 -14.133 233.438 -21.6503 228.213C-17.9331 228.901 -15.0538 224.203 -16.0117 220.547C-16.9696 216.891 -20.2205 214.364 -23.3628 212.254C-26.5052 210.143 -29.8963 207.975 -31.4375 204.524C-25.6704 211.786 -17.3582 216.584 -8.18525 217.945C-9.64685 220.825 -10.101 224.111 -9.47514 227.279C-8.84925 230.446 -7.17945 233.313 -4.73265 235.42C-2.28585 237.527 0.796709 238.753 4.02227 238.902C7.24784 239.051 10.4302 238.114 13.0607 236.241C20.5426 230.998 21.374 220.154 19.4555 211.225C21.6012 213.883 26.6122 213.046 27.7805 209.836C28.8705 215.333 34.4239 219.538 40.007 219.163C45.59 218.787 50.5037 213.859 50.872 208.278C61.4363 216.133 77.4417 215.547 87.4059 206.939C93.3185 223.099 98.6423 240.405 95.2621 257.276C91.9588 273.812 80.3004 288.003 65.7322 296.504C51.164 305.005 33.9435 308.203 17.0881 307.918C5.35517 307.712 -6.61522 305.794 -16.8944 300.129C-22.8285 296.888 -27.9324 292.317 -31.8069 286.776C-35.4966 281.384 -41.4013 278.062 -47.8349 276.928C-49.374 276.669 -50.8269 276.04 -52.0684 275.094C-52.8326 274.497 -53.4991 273.785 -54.0438 272.984C-57.3851 268.099 -63.2668 265.743 -69.1642 266.224C-72.836 266.564 -76.5175 265.684 -79.639 263.721C-88.2128 258.495 -94.5546 243.312 -88.0376 235.688C-93.9271 244.471 -107.93 244.616 -116.13 237.932C-124.331 231.247 -127.471 220.009 -127.538 209.427C-127.596 200.278 -125.793 193.201 -117.912 188.588" fill="#F3BEDA"/>
</g>
</g>
<g style="mix-blend-mode:multiply">
<g style="mix-blend-mode:multiply">
<path d="M19.2378 146.87C21.9617 147.607 24.4518 149.028 26.4711 150.999C28.4905 152.97 29.9719 155.425 30.7744 158.13C33.9988 157.96 37.213 158.618 40.1113 160.041C43.0096 161.464 45.4954 163.605 47.3321 166.26C49.1689 168.916 50.2954 171.997 50.6044 175.211C50.9135 178.425 50.3948 181.665 49.0978 184.622C53.8669 182.764 59.9115 186.172 60.7935 191.212C63.2039 186.605 65.6736 181.775 65.7191 176.561C65.7645 171.346 62.5976 165.728 57.47 164.847C58.747 159.408 60.0288 153.868 59.587 148.302C59.1451 142.737 56.6635 137.043 51.9311 134.08C46.7288 130.832 39.8176 131.53 34.3339 134.279C28.8502 137.028 24.4966 141.542 20.2455 145.969" fill="#F3BEDA"/>
</g>
</g>
<g style="mix-blend-mode:multiply">
<g style="mix-blend-mode:multiply">
<path d="M87.0664 171.445C87.2595 165.547 87.12 160.036 91.2047 155.754C92.6543 154.223 94.3911 152.852 96.4439 152.389C98.4966 151.926 100.918 152.584 102.019 154.393C103.353 147.573 110.864 142.633 117.627 144.132C124.39 145.631 129.187 153.232 127.563 159.983C127.785 156.493 125.246 153.118 121.915 152.04C118.584 150.963 114.746 152.075 112.226 154.508C111 155.762 110.048 157.256 109.429 158.896C108.81 160.537 108.537 162.287 108.629 164.038C99.9946 164.446 94.6332 167.347 87.4245 172.113" fill="#F3BEDA"/>
</g>
</g>
<g style="mix-blend-mode:multiply">
<g style="mix-blend-mode:multiply">
<path d="M-27.0019 150.32C-25.2182 149.265 -23.15 148.79 -21.0845 148.964C-19.019 149.137 -17.0588 149.949 -15.4759 151.287C-13.893 152.625 -12.7661 154.423 -12.2517 156.431C-11.7372 158.439 -11.8607 160.557 -12.605 162.492C-8.32593 162.168 -4.62443 166.185 -4.04071 170.432C-3.45698 174.679 -5.28027 178.92 -7.66691 182.486C-7.51593 180.825 -7.7855 179.153 -8.45078 177.623C-9.11606 176.093 -10.1556 174.756 -11.4737 173.734C-12.7918 172.712 -14.3459 172.038 -15.9929 171.774C-17.6399 171.51 -19.3268 171.666 -20.8981 172.225C-19.8986 170.874 -19.3859 169.225 -19.4436 167.545C-19.5012 165.865 -20.1258 164.255 -21.2156 162.975C-22.3054 161.696 -23.7962 160.823 -25.4453 160.499C-27.0944 160.175 -28.8047 160.418 -30.2976 161.19C-28.9338 160.029 -28.0207 158.426 -27.7174 156.66C-27.4141 154.895 -27.7399 153.079 -28.638 151.529" fill="#F3BEDA"/>
</g>
</g>
<path d="M45.3267 128.706C45.238 128.396 45.6323 127.96 46.4432 127.596C47.5395 127.141 48.7167 126.913 49.9037 126.925C51.4442 126.922 52.9741 127.18 54.4286 127.688C55.8794 128.187 57.2506 128.892 58.4998 129.783C59.7227 130.669 60.8334 131.7 61.8076 132.853C62.7622 133.986 63.5843 135.225 64.2579 136.544C65.4811 138.963 65.8333 140.969 65.2219 141.246C64.6106 141.522 63.4368 139.97 61.8786 138.077C61.1052 137.135 60.2135 136.108 59.2759 135.169C58.384 134.277 57.4229 133.457 56.4014 132.717C55.3942 132.003 54.3203 131.388 53.1946 130.88C52.0548 130.378 50.8669 129.993 49.6491 129.732C47.4018 129.244 45.5432 129.394 45.3267 128.706Z" fill="#FFD6E5"/>
<path d="M78.9224 142.167C78.7795 142.076 78.7724 141.823 78.8699 141.427C79.0234 140.882 79.2476 140.361 79.5367 139.875C80.488 138.216 81.6788 136.707 83.0706 135.396C84.8869 133.673 86.9454 132.225 89.1808 131.098C93.6893 128.798 98.7759 127.878 103.804 128.455C106.297 128.731 108.735 129.373 111.039 130.362C112.805 131.093 114.451 132.083 115.923 133.3C116.363 133.657 116.754 134.068 117.088 134.524C117.324 134.86 117.416 135.092 117.296 135.245C116.87 135.817 114.087 134.138 110.083 133.026C107.941 132.409 105.739 132.027 103.514 131.887C99.0978 131.602 94.6786 132.403 90.643 134.22C88.6063 135.128 86.6742 136.256 84.8807 137.581C81.5422 140.016 79.5226 142.557 78.9224 142.167Z" fill="#FFD6E5"/>
<path d="M75.8455 181.984C75.5997 181.75 75.7003 181.227 76.0949 180.527C76.6448 179.606 77.3418 178.781 78.1583 178.085C79.2506 177.108 80.5224 176.353 81.9028 175.861C83.37 175.337 84.9407 175.171 86.4849 175.376C87.2628 175.485 88.0206 175.707 88.7344 176.036C89.4749 176.382 90.1625 176.831 90.7765 177.371C91.3359 177.871 91.8488 178.421 92.3089 179.015C92.528 179.298 92.7247 179.566 92.9139 179.846C93.1048 180.141 93.2805 180.445 93.4403 180.758C93.7641 181.337 94.0021 181.96 94.1469 182.607C94.2764 183.171 94.2747 183.756 94.1418 184.319C94.0637 184.713 93.8626 185.072 93.5674 185.345C93.3174 185.489 93.1452 185.54 92.9949 185.46C92.6904 185.282 92.6727 184.806 92.4376 184.302C92.1062 183.59 91.659 182.938 91.1144 182.371C90.9442 182.185 90.7575 181.994 90.5627 181.801L89.922 181.184C89.504 180.788 89.0597 180.42 88.592 180.084C87.8078 179.495 86.8876 179.113 85.9167 178.975C84.8983 178.843 83.8641 178.905 82.8688 179.158C81.785 179.442 80.7409 179.861 79.7608 180.404C77.8545 181.421 76.346 182.466 75.8455 181.984Z" fill="#FFD6E5"/>
<path d="M95.5108 174.05C95.0283 173.599 95.7797 172.11 97.3205 170.616C99.0362 169.022 101.052 167.787 103.251 166.983C105.45 166.179 107.787 165.821 110.126 165.931C112.291 166.071 113.802 166.74 113.744 167.385C113.686 168.03 112.202 168.324 110.351 168.726C108.377 169.13 106.433 169.671 104.535 170.347C102.645 171.052 100.809 171.891 99.0399 172.86C97.3384 173.787 96.0286 174.55 95.5108 174.05Z" fill="#FFD6E5"/>
<path d="M-0.999881 159.426C-1.24136 158.815 1.35795 157.266 5.27813 156.44C7.45164 155.957 9.69039 155.838 11.9029 156.089C13.0972 156.235 14.267 156.538 15.3823 156.99C17.0415 157.663 18.5301 158.697 19.7401 160.017C20.9502 161.337 21.8514 162.909 22.3784 164.62C22.7312 165.829 22.8627 167.092 22.7665 168.348C22.6711 169.518 22.3693 170.661 21.875 171.725C21.137 173.393 19.8839 174.781 18.2993 175.685C17.0971 176.31 16.2577 176.288 16.1347 175.99C16.0118 175.693 16.5407 175.166 17.2554 174.322C18.1655 173.262 18.8463 172.024 19.2553 170.688C19.4943 169.882 19.6103 169.045 19.5993 168.204C19.5805 167.338 19.4207 166.48 19.1262 165.664C18.6764 164.472 17.9933 163.381 17.1169 162.456C16.2404 161.531 15.1882 160.79 14.0218 160.276C13.1781 159.911 12.2959 159.642 11.3919 159.475C9.50983 159.158 7.5958 159.076 5.69345 159.229C2.01977 159.447 -0.755985 160.077 -0.999881 159.426Z" fill="#FFD6E5"/>
<path d="M12.9974 176.87C12.9439 176.794 12.9099 176.707 12.8983 176.616C12.8867 176.524 12.8979 176.431 12.9308 176.345C13.0213 176.066 13.1769 175.811 13.3849 175.604C14.0627 174.922 14.9201 174.446 15.8574 174.232C17.1178 173.918 18.4379 173.937 19.6889 174.286C20.94 174.635 22.079 175.303 22.9947 176.224C23.8846 177.169 24.5149 178.329 24.8243 179.59C25.1338 180.851 25.1119 182.171 24.7608 183.421C24.5143 184.351 24.011 185.193 23.3085 185.85C23.0961 186.055 22.8367 186.205 22.5531 186.286C22.4646 186.314 22.3709 186.321 22.2793 186.306C22.1877 186.291 22.1007 186.256 22.0252 186.202C21.7556 185.976 21.7783 185.546 21.831 184.988C21.9256 184.317 21.9715 183.641 21.9683 182.963C21.9687 182.164 21.8345 181.37 21.5713 180.616C21.3208 179.924 20.9336 179.29 20.4326 178.752C19.9074 178.234 19.2858 177.823 18.603 177.544C17.8471 177.25 17.0475 177.085 16.2371 177.055C15.5576 177.035 14.8775 177.063 14.202 177.139C13.6439 177.135 13.2135 177.148 12.9974 176.87Z" fill="#FFD6E5"/>
</svg>
