<svg width="1920" height="277" viewBox="0 0 1920 277" fill="none" xmlns="http://www.w3.org/2000/svg">
<g clip-path="url(#clip0_282_7002)">
<rect width="1920" height="12200" transform="translate(0 -4927)" fill="white"/>
<rect y="-3748" width="1920" height="10225" fill="#00B2FF" fill-opacity="0.04"/>
<rect y="260" width="1920" height="969" fill="#5AC7E5"/>
<path d="M-5.00098 277.5V65.5H40.499L182.499 151L342.999 116.5L476.499 151L512.999 200.5L673.499 160L751.999 178.5C796.999 177.833 888.799 176.9 895.999 178.5C903.199 180.1 996.332 193.833 1042 200.5L1674 213.5C1688.5 213.5 1779.03 252.909 1791 252C1830.5 249 1735 196.724 1833.5 220.5C1845.1 223.3 1888.5 242.5 1920.5 232.5V277.5H-5.00098Z" fill="#5AC7E5"/>
<path d="M1285.69 222.812C1338.94 240.929 1327.6 240.145 1383.45 231.208C1441.65 221.925 1567.03 204.358 1623.82 218.537C1639.75 222.579 1659.08 222.425 1676.9 227.979C1690.73 232.228 1699.8 235.854 1710.04 239.176C1723.35 243.443 1743.69 260.877 1751.94 263.612C1776.81 271.549 1774.9 258.2 1776.61 250.906C1761.5 240.127 1741.23 232.16 1722.59 225.582C1680.36 210.496 1634.78 204.604 1592.4 203.86C1559.76 203.299 1526.65 208.016 1494.82 200.587C1489.25 199.336 1483.67 197.56 1479.58 193.626C1475.5 189.693 1473.56 183.053 1476.67 178.209C1480.04 172.961 1487.25 172.181 1493.56 172.09C1578.88 171.059 1664.32 184.624 1745.12 211.899C1760.42 216.753 1781.67 226.264 1792.46 233.907C1804.87 242.809 1806.55 249.326 1822.18 244.962C1830.12 242.709 1845.95 236.496 1843.95 228.412C1842.72 223.194 1835.4 220.953 1830.46 218.759C1684.01 149.865 1456.42 152.09 1286.29 124.014C1286.29 124.014 1280.17 125.939 1231.53 137.648" fill="#5AC7E5"/>
<path d="M1773.43 223.926C1774.36 224.288 1731.94 207.236 1713.06 201.588C1678.23 191.108 1618.75 175.314 1568.27 172.356C1490.38 167.733 1472.59 170.595 1470.81 179.865C1469.15 188.735 1479.72 193.756 1479.72 193.756C1479.72 193.756 1461.34 168.492 1550.55 173.375C1656.11 179.129 1746.45 212.118 1773.43 223.926Z" fill="#081B6A" stroke="black" stroke-miterlimit="10" stroke-linecap="round" stroke-linejoin="round"/>
<path d="M1734.73 252.907C1734.73 252.907 1714.41 236.13 1660.65 222.108C1606.89 208.085 1505.63 216.122 1502.08 216.247C1471.2 216.939 1437.92 224.293 1437.92 224.293C1437.92 224.293 1464.02 218.376 1509.27 214.942C1540.49 212.396 1678.14 214.652 1734.73 252.907Z" fill="#081B6A" stroke="black" stroke-miterlimit="10" stroke-linecap="round" stroke-linejoin="round"/>
<path d="M1479.72 193.756C1479.72 193.756 1487.42 203.218 1520.2 204.168C1552.99 205.118 1612.9 199.59 1659.36 207.95C1705.82 216.311 1752.47 237.554 1780.27 250.122C1797.78 258.055 1819.51 243.743 1773.43 223.926" stroke="black" stroke-miterlimit="10" stroke-linecap="round" stroke-linejoin="round"/>
<path d="M1842.58 223.063C1842.58 223.063 1784.8 199.318 1755.43 190.751C1725.93 182.188 1672.66 171.042 1603.64 160.845C1534.63 150.648 1412.72 139.946 1397.28 138.516C1381.84 137.087 1352.41 134.177 1343.11 131.48" stroke="black" stroke-miterlimit="10" stroke-linecap="round" stroke-linejoin="round"/>
<path d="M848.187 180.606C1066.62 164.761 1236.56 -21.9386 1230.74 36.9272C1229.67 47.7499 1220.5 86.084 1219.57 97.0334C1254.1 69.118 1288.87 36.7222 1323.58 6.56431C1329.96 1.07853 1339.17 8.64589 1334.96 15.8968C1323.42 35.6373 1311.77 55.908 1300.42 73.4061C1296.05 80.0048 1291.69 86.9976 1292.04 93.2984C1293.23 112.196 1333.92 98.6634 1339.4 116.095C1341.17 121.557 1340.32 138.422 1341.18 144.179C1342.54 152.944 1371.15 162.196 1378.84 167.843C1405.72 187.81 1405.54 208.992 1417.98 237.096C1424.56 252.121 1426.85 272.427 1406.86 287.598C1393.93 297.392 1376.31 301.301 1360.23 304.234C1308.21 313.431 1256.82 318.265 1207.51 318.554" fill="#5AC7E5"/>
<path d="M1335.65 9.55577C1335.65 9.55577 1340.23 20.0483 1320.6 52.8317C1300.97 85.4838 1286.98 98.8662 1302.14 103.594C1317.3 108.321 1339.2 95.3179 1345.71 112.187C1352.22 129.056 1362.06 128.315 1375.36 132.451C1396.11 138.954 1468.64 144.293 1468.64 144.293C1468.64 144.293 1361.79 142.924 1349.3 139.287C1321.39 131.063 1348.11 120.652 1336.25 116.203C1324.39 111.754 1270.85 122.714 1277.15 103.815C1283.46 85.048 1339.67 30.327 1335.65 9.55577Z" fill="#081B6A" stroke="black" stroke-miterlimit="10" stroke-linecap="round" stroke-linejoin="round"/>
<path d="M1253.95 68.4649C1253.95 68.4649 1222.25 109.565 1215.7 102.956C1209.16 96.3471 1221.33 64.8781 1225.57 50.787C1229.81 36.696 1225.72 25.1341 1225.72 25.1341C1225.72 25.1341 1232.49 26.7373 1231.01 51.9111C1229.52 77.0848 1218.28 86.5559 1225.28 87.3617C1232.28 88.1675 1253.95 68.4649 1253.95 68.4649Z" fill="#081B6A" stroke="black" stroke-miterlimit="10" stroke-linecap="round" stroke-linejoin="round"/>
<path d="M1157.27 57.0078C1157.27 57.0078 1072.79 119.432 988.824 155.401C904.861 191.37 843.391 167.623 843.391 167.623C843.391 167.623 885.418 184.557 996.969 136.437C1052.17 112.792 1157.27 57.0078 1157.27 57.0078Z" fill="#081B6A" stroke="black" stroke-miterlimit="10" stroke-linecap="round" stroke-linejoin="round"/>
<path d="M617.37 210.564C562.998 224.052 511.699 220.202 460.526 197.54C427.923 183.036 398.771 161.966 366.295 147.326C316.713 125.002 261.643 118.654 207.633 112.533C217.222 112.195 224.264 103.003 227.365 93.9504C230.33 84.7707 230.772 74.8906 234.539 66.0773C240.001 53.1269 252.819 43.6003 266.838 42.0546C260.423 54.1178 258.984 69.294 270.428 76.7828C281.871 84.2715 314.471 87.4643 328.061 88.6957C400.508 95.4836 463.057 101.305 535.373 108.097C540.519 108.574 545.797 109.046 550.351 111.384C554.905 113.723 558.876 118.187 558.794 123.319C558.753 129.634 553.14 134.566 547.316 137.27C538.255 141.404 528.018 142.027 518.08 143.692C508.143 145.357 497.867 148.613 491.562 156.332C485.258 164.051 480.717 180.783 490.526 182.937C528.683 190.8 567.738 175.615 602.501 158.082C637.396 140.544 666.128 127.301 704.101 118.73C731.113 112.649 761.447 115.001 795.625 133.133C817.608 144.854 857.233 179.497 881.847 183.76C906.724 188.014 916.177 187.549 941.348 185.217C966.519 182.884 1010.5 135.696 1024.5 148.618C970.863 156.82 924.988 206.179 871.388 196.755C840.553 191.395 810.829 180.21 779.891 175.643C726.469 167.528 670.575 175.151 625.175 204.37" fill="#081B6A"/>
<path d="M617.37 210.564C562.998 224.052 511.699 220.202 460.526 197.54C427.923 183.036 398.771 161.966 366.295 147.326C316.713 125.002 261.643 118.654 207.633 112.533C217.222 112.195 224.264 103.003 227.365 93.9504C230.33 84.7707 230.772 74.8906 234.539 66.0773C240.001 53.1269 252.819 43.6003 266.838 42.0546C260.423 54.1178 258.984 69.294 270.428 76.7828C281.871 84.2715 314.471 87.4643 328.061 88.6957C400.508 95.4836 463.057 101.305 535.373 108.097C540.519 108.574 545.797 109.046 550.351 111.384C554.905 113.723 558.877 118.187 558.794 123.319C558.753 129.634 553.14 134.566 547.316 137.27C538.255 141.404 528.018 142.027 518.08 143.692C508.143 145.357 497.867 148.613 491.562 156.332C485.258 164.051 480.717 180.783 490.526 182.937C528.683 190.8 567.738 175.615 602.501 158.082C637.396 140.544 666.128 127.301 704.101 118.73C731.113 112.649 761.447 115.001 795.625 133.133C817.608 144.854 857.233 179.497 881.847 183.76C906.724 188.014 916.177 187.549 941.348 185.217C966.519 182.884 1010.5 135.696 1024.5 148.618C970.863 156.82 924.988 206.179 871.388 196.755C840.553 191.395 810.829 180.21 779.891 175.643C726.469 167.528 670.575 175.151 625.175 204.37" stroke="black" stroke-miterlimit="10" stroke-linecap="round" stroke-linejoin="round"/>
<path d="M534.749 236.098C501.003 245.177 425.406 223.638 395.441 205.621C390.601 202.635 385.761 199.649 380.789 196.667C355.646 181.111 330.236 165.434 301.16 161.459C268.65 157.08 236.025 168.093 205.693 180.735C175.361 193.377 161.845 201.744 129.064 204.608C96.2831 207.472 68.6394 191.873 52.6373 163.237C45.058 149.694 23.1927 118.897 11.0093 109.067C-73.4452 41.4102 -96.3174 53.0006 -109.761 48.4759C-123.068 44.0779 -138.586 40.4153 -135.908 -3.08277C-135.908 -3.08277 -54.5148 41.1384 -7.31461 51.8403C39.8902 62.6735 76.0181 65.216 101.547 87.9921C127.076 110.768 269.128 122.077 310.082 127.211" fill="#081B6A"/>
<path d="M534.749 236.098C501.003 245.177 425.406 223.638 395.441 205.621C390.601 202.635 385.761 199.649 380.789 196.667C355.646 181.111 330.236 165.434 301.16 161.459C268.65 157.08 236.025 168.093 205.693 180.735C175.361 193.377 161.845 201.744 129.064 204.608C96.2831 207.472 68.6394 191.873 52.6373 163.237C45.0581 149.694 23.1927 118.897 11.0093 109.067C-73.4451 41.4102 -96.3174 53.0006 -109.761 48.4759C-123.068 44.0779 -138.586 40.4153 -135.908 -3.08277C-135.908 -3.08277 -54.5149 41.1384 -7.31461 51.8403C39.8903 62.6735 76.0181 65.216 101.547 87.9921C127.076 110.768 269.128 122.077 310.082 127.211" stroke="black" stroke-miterlimit="10" stroke-linecap="round" stroke-linejoin="round"/>
<path d="M938.476 167.167C908.77 175.184 860.534 172.41 838.887 162.782C810.557 150.1 808.354 147.284 785.661 137.824C744.408 120.468 696.98 133.186 655.19 149.125C613.399 165.064 570.415 184.465 525.806 180.116C510.762 178.673 492.704 170.102 493.753 155.071C494.896 138.985 515.631 133.914 531.62 132.299C534.632 131.93 537.771 131.425 541.032 130.653C555.376 127.122 553.186 106.024 538.441 105.622C467.071 103.268 395.836 101.041 324.466 98.6869C303.528 97.9772 280.996 96.7975 264.62 83.6953C248.244 70.593 239.292 62.885 257.186 51.8645C347.469 4.88775 103.85 41.3477 3.58144 36.3283C-51.7578 33.5415 -79.2189 0.705915 -81.2244 -22.6352C-83.043 -44.4046 -137.242 -48.4153 -144.333 -6.99785C-147.401 10.4717 -132.907 26.1392 -117.848 35.4736C-72.4153 63.2046 -11.1767 61.7064 27.5939 98.2212C55.4761 124.334 68.4355 167.413 103.671 181.956C135.435 195.043 170.91 179.063 203.54 168.181C251.768 152.015 292.445 138.088 340.022 155.748C384.264 172.078 433.141 215.471 477.857 230.338C577.938 263.642 646.731 166.653 750.634 185.223C796.958 193.457 803.896 203.734 850.966 203.261C879.626 202.91 891.682 205.379 952.926 185.335C1009.23 166.912 1033.76 139.086 1060.57 119.597C1060.56 119.465 1024.86 144.002 938.476 167.167Z" fill="#5AC7E5" stroke="black" stroke-miterlimit="10" stroke-linecap="round" stroke-linejoin="round"/>
<path d="M178.794 66.7283C164.522 68.546 152.179 69.1121 139.59 62.7159C137.714 61.7297 135.824 60.3495 135.75 58.2476C135.77 55.0903 139.026 54.1865 141.64 53.6999C171.973 48.5547 202.175 43.4142 232.508 38.269C235.384 37.7732 238.26 37.2774 240.943 38.7612C242.148 39.3764 242.978 40.531 243.287 41.8354C244.064 45.2277 240.723 47.4498 237.747 48.8698C233.867 50.7162 229.986 52.5627 226.096 54.1464C212.093 59.9004 197.37 63.8385 182.323 66.078C181.018 66.387 179.709 66.5646 178.794 66.7283Z" fill="white" stroke="#000207" stroke-miterlimit="10" stroke-linecap="round" stroke-linejoin="round"/>
<path d="M113.486 53.5028C118.998 53.1772 124.329 51.4113 128.961 48.4861C130.247 47.6517 131.777 46.2826 131.459 44.7155C131.14 43.1483 129.405 42.4203 127.946 42.077C118.794 39.9002 108.735 41.8327 101.038 47.3647C99.8832 48.1945 98.6158 49.5544 99.1875 50.8495C99.6186 51.8866 100.946 52.2344 102.006 52.4602C105.449 53.1281 107.026 53.0726 110.586 53.3418L113.486 53.5028Z" fill="white" stroke="#000207" stroke-miterlimit="10" stroke-linecap="round" stroke-linejoin="round"/>
<path d="M537.802 106.174C465.406 119.507 364.216 136.88 292.938 118.477C278.734 114.768 263.945 109.37 254.722 97.7254C245.505 86.2125 244.698 67.038 256.483 58.0739" stroke="#000207" stroke-miterlimit="10" stroke-linecap="round" stroke-linejoin="round"/>
<path d="M343.153 158.793C294.563 149.718 244.529 148.191 195.557 154.387C169.761 157.663 140.324 162.119 120.53 145.322C102.091 129.662 98.8177 100.184 78.4916 86.9577C67.1842 79.5957 53.0911 79.0396 39.7401 77.1422C-4.28151 70.8003 -45.5925 48.0537 -74.4044 14.2134" stroke="#000207" stroke-miterlimit="10" stroke-linecap="round" stroke-linejoin="round"/>
<path d="M880.789 202.344C827.047 203.841 800.384 178.738 779.858 163.546C743.259 136.424 689.824 135.412 638.582 155.629" stroke="#000207" stroke-miterlimit="10" stroke-linecap="round" stroke-linejoin="round"/>
<path d="M495.658 164.341C503.772 178.129 526.894 192.309 542.754 194.513C582.807 200.205 631.605 177.838 671.468 170.647C711.33 163.457 751.443 170.857 785.239 193.079" stroke="#000207" stroke-miterlimit="10" stroke-linecap="round" stroke-linejoin="round"/>
<path d="M1118.92 110.7C1118.92 110.7 1203.27 33.4182 1214.65 35.5164C1226.04 37.6146 1183.45 86.8582 1168.98 94.207C1154.5 101.556 1150.81 93.9257 1123.99 116.44C1097.16 138.955 1107.54 120.045 1118.92 110.7Z" fill="white" stroke="black" stroke-miterlimit="10" stroke-linecap="round" stroke-linejoin="round"/>
<path d="M1184.95 54.7152L1202.36 60.0207C1202.36 60.0207 1185.98 84.1407 1173.57 90.2333C1191.56 64.391 1151.3 87.775 1142.97 93.987C1134.51 100.204 1121.85 107.969 1121.85 107.969C1121.85 107.969 1167.13 64.2861 1184.95 54.7152Z" fill="#081B6A" stroke="black" stroke-miterlimit="10" stroke-linecap="round" stroke-linejoin="round"/>
<path d="M1335.66 9.55796C1335.66 9.55796 1333.87 -0.243468 1321.55 8.47641C1309.23 17.1963 1253.95 68.4648 1253.95 68.4648" stroke="black" stroke-miterlimit="10" stroke-linecap="round" stroke-linejoin="round"/>
<path d="M1225.86 25.2608C1225.86 25.2608 1225.72 17.3744 1186.45 41.3794C1161.08 56.7405 1144.18 66.279 1144.18 66.279" stroke="black" stroke-miterlimit="10" stroke-linecap="round" stroke-linejoin="round"/>
</g>
<defs>
<clipPath id="clip0_282_7002">
<rect width="1920" height="12200" fill="white" transform="translate(0 -4927)"/>
</clipPath>
</defs>
</svg>
