<svg width="1920" height="298" viewBox="0 0 1920 298" fill="none" xmlns="http://www.w3.org/2000/svg">
<g clip-path="url(#clip0_282_7002)">
<rect width="1920" height="12200" transform="translate(0 -6138)" fill="white"/>
<rect y="-4959" width="1920" height="10225" fill="#00B2FF" fill-opacity="0.04"/>
<rect y="-951" width="1920" height="969" fill="#5AC7E5"/>
<path d="M-82.7529 7.47266V228.859H-35.2383L113.049 139.574L280.655 175.601L420.066 139.574L458.182 87.882L625.789 130.175L707.765 110.856C754.757 111.552 850.622 112.527 858.141 110.856C865.659 109.185 962.916 94.8438 1010.6 87.882L1670.59 74.3064C1685.73 74.3064 1780.27 33.1527 1792.77 34.1017C1834.02 37.2346 1734.29 91.825 1837.15 66.9964C1849.26 64.0725 1894.59 44.0224 1928 54.4651V7.47266H-82.7529Z" fill="#5AC7E5"/>
<path d="M1265.08 64.5839C1320.69 45.6642 1308.85 46.4836 1367.17 55.8162C1427.95 65.5101 1558.89 83.8546 1618.19 69.0484C1634.82 64.8266 1655.01 64.9878 1673.62 59.1874C1688.06 54.7512 1697.53 50.9641 1708.23 47.495C1722.12 43.0394 1743.36 24.8329 1751.98 21.9772C1777.96 13.6892 1775.95 27.6284 1777.75 35.2458C1761.97 46.5024 1740.8 54.8223 1721.33 61.6911C1677.23 77.4449 1629.63 83.5981 1585.38 84.3751C1551.29 84.9608 1516.72 80.0351 1483.48 87.7928C1477.66 89.099 1471.83 90.9539 1467.56 95.0616C1463.3 99.1693 1461.27 106.103 1464.53 111.162C1468.04 116.642 1475.57 117.457 1482.16 117.551C1571.26 118.628 1660.49 104.463 1744.86 75.9799C1760.83 70.9108 1783.02 60.9786 1794.29 52.997C1807.25 43.7015 1809 36.8956 1825.33 41.4533C1833.62 43.8056 1850.15 50.2935 1848.07 58.7359C1846.78 64.1845 1839.14 66.5253 1833.98 68.8159C1681.05 140.76 1443.37 138.437 1265.71 167.756C1265.71 167.756 1259.33 165.746 1208.52 153.519" fill="#5AC7E5"/>
<path d="M1774.42 63.4275C1775.4 63.0498 1731.09 80.8565 1711.38 86.7554C1675.01 97.6991 1612.9 114.192 1560.18 117.281C1478.84 122.109 1460.26 119.12 1458.41 109.44C1456.67 100.177 1467.71 94.9339 1467.71 94.9339C1467.71 94.9339 1448.51 121.316 1541.68 116.218C1651.91 110.209 1746.24 75.7585 1774.42 63.4275Z" fill="#081B6A" stroke="black" stroke-miterlimit="10" stroke-linecap="round" stroke-linejoin="round"/>
<path d="M1734.01 33.1568C1734.01 33.1568 1712.79 50.6773 1656.65 65.3203C1600.5 79.9632 1494.76 71.5709 1491.06 71.4405C1458.81 70.7172 1424.05 63.0383 1424.05 63.0383C1424.05 63.0383 1451.31 69.217 1498.57 72.8036C1531.16 75.4619 1674.91 73.1056 1734.01 33.1568Z" fill="#081B6A" stroke="black" stroke-miterlimit="10" stroke-linecap="round" stroke-linejoin="round"/>
<path d="M1467.71 94.9265C1467.71 94.9265 1475.75 85.0456 1509.98 84.0532C1544.22 83.0608 1606.79 88.8344 1655.3 80.1038C1703.82 71.3732 1752.54 49.1892 1781.57 36.0642C1799.85 27.7801 1822.54 42.7258 1774.42 63.4201" stroke="black" stroke-miterlimit="10" stroke-linecap="round" stroke-linejoin="round"/>
<path d="M1846.63 64.3201C1846.63 64.3201 1786.29 89.1163 1755.62 98.0632C1724.81 107.005 1669.19 118.645 1597.12 129.293C1525.04 139.942 1397.74 151.118 1381.62 152.611C1365.49 154.103 1334.76 157.142 1325.04 159.959" stroke="black" stroke-miterlimit="10" stroke-linecap="round" stroke-linejoin="round"/>
<path d="M808.212 108.652C1036.32 125.197 1213.78 320.164 1207.7 258.692C1206.59 247.39 1197.01 207.359 1196.04 195.924C1232.1 225.076 1268.4 258.906 1304.65 290.399C1311.32 296.128 1320.94 288.225 1316.53 280.653C1304.49 260.039 1292.32 238.871 1280.46 220.598C1275.9 213.707 1271.35 206.404 1271.72 199.825C1272.96 180.09 1315.46 194.222 1321.18 176.019C1323.03 170.315 1322.14 152.703 1323.04 146.691C1324.46 137.539 1354.33 127.877 1362.36 121.979C1390.43 101.128 1390.25 79.0086 1403.23 49.6606C1410.1 33.9699 1412.5 12.7649 1391.63 -3.07833C1378.11 -13.3059 1359.72 -17.3873 1342.93 -20.4506C1288.6 -30.0547 1234.94 -35.1029 1183.44 -35.4049" fill="#5AC7E5"/>
<path d="M1317.26 287.276C1317.26 287.276 1322.04 276.319 1301.54 242.084C1281.04 207.986 1266.43 194.011 1282.26 189.074C1298.09 184.138 1320.96 197.716 1327.76 180.1C1334.56 162.484 1344.84 163.258 1358.73 158.94C1380.39 152.148 1456.13 146.573 1456.13 146.573C1456.13 146.573 1344.55 148.002 1331.51 151.801C1302.36 160.389 1330.27 171.261 1317.88 175.907C1305.5 180.553 1249.59 169.107 1256.17 188.843C1262.76 208.441 1321.46 265.585 1317.26 287.276Z" fill="#081B6A" stroke="black" stroke-miterlimit="10" stroke-linecap="round" stroke-linejoin="round"/>
<path d="M1231.94 225.755C1231.94 225.755 1198.84 182.835 1192 189.736C1185.16 196.638 1197.88 229.5 1202.31 244.215C1206.73 258.93 1202.46 271.004 1202.46 271.004C1202.46 271.004 1209.53 269.33 1207.98 243.041C1206.43 216.753 1194.69 206.863 1202 206.021C1209.31 205.18 1231.94 225.755 1231.94 225.755Z" fill="#081B6A" stroke="black" stroke-miterlimit="10" stroke-linecap="round" stroke-linejoin="round"/>
<path d="M1130.97 237.727C1130.97 237.727 1042.76 172.539 955.075 134.977C867.394 97.4154 803.203 122.214 803.203 122.214C803.203 122.214 847.091 104.53 963.58 154.78C1021.22 179.472 1130.97 237.727 1130.97 237.727Z" fill="#081B6A" stroke="black" stroke-miterlimit="10" stroke-linecap="round" stroke-linejoin="round"/>
<path d="M567.17 77.3719C510.391 63.2862 456.82 67.3064 403.382 90.9723C369.335 106.118 338.893 128.122 304.978 143.41C253.201 166.722 195.692 173.351 139.291 179.743C149.305 180.096 156.659 189.695 159.897 199.148C162.993 208.735 163.454 219.052 167.388 228.256C173.093 241.78 186.478 251.728 201.117 253.342C194.418 240.745 192.916 224.897 204.866 217.076C216.816 209.256 250.859 205.922 265.052 204.636C340.706 197.547 406.024 191.468 481.542 184.375C486.916 183.877 492.428 183.385 497.184 180.943C501.939 178.5 506.087 173.839 506.001 168.479C505.958 161.885 500.096 156.734 494.015 153.91C484.552 149.594 473.862 148.943 463.484 147.204C453.107 145.465 442.376 142.066 435.792 134.005C429.208 125.944 424.467 108.471 434.71 106.222C474.556 98.0105 515.34 113.868 551.643 132.177C588.083 150.492 618.087 164.322 657.741 173.272C685.949 179.621 717.626 177.166 753.317 158.231C776.274 145.991 817.653 109.814 843.357 105.362C869.336 100.92 879.208 101.405 905.493 103.841C931.779 106.278 977.704 155.555 992.327 142.06C936.315 133.495 888.408 81.9506 832.435 91.7922C800.235 97.3888 769.195 109.07 736.887 113.838C681.099 122.313 622.731 114.352 575.32 83.8396" fill="#081B6A"/>
<path d="M567.17 77.3719C510.391 63.2862 456.82 67.3064 403.382 90.9723C369.335 106.118 338.893 128.122 304.978 143.41C253.201 166.722 195.692 173.351 139.291 179.743C149.305 180.096 156.659 189.695 159.897 199.148C162.993 208.735 163.454 219.052 167.388 228.256C173.093 241.78 186.478 251.728 201.117 253.342C194.418 240.745 192.916 224.897 204.866 217.076C216.816 209.256 250.859 205.922 265.052 204.636C340.706 197.547 406.024 191.468 481.542 184.375C486.916 183.877 492.428 183.385 497.184 180.943C501.939 178.5 506.087 173.839 506.001 168.479C505.958 161.885 500.096 156.734 494.015 153.91C484.552 149.594 473.862 148.943 463.484 147.204C453.107 145.465 442.376 142.066 435.792 134.005C429.208 125.944 424.467 108.471 434.71 106.222C474.556 98.0105 515.34 113.868 551.643 132.177C588.083 150.492 618.087 164.322 657.741 173.272C685.949 179.621 717.626 177.166 753.317 158.231C776.274 145.991 817.653 109.814 843.357 105.362C869.336 100.92 879.208 101.405 905.493 103.841C931.779 106.277 977.704 155.555 992.327 142.06C936.315 133.495 888.408 81.9506 832.435 91.7922C800.235 97.3888 769.195 109.07 736.887 113.838C681.099 122.313 622.731 114.352 575.32 83.8396" stroke="black" stroke-miterlimit="10" stroke-linecap="round" stroke-linejoin="round"/>
<path d="M480.891 50.7107C445.651 41.2291 366.707 63.7224 335.415 82.5367C330.361 85.6552 325.307 88.7736 320.115 91.8872C293.859 108.132 267.323 124.504 236.96 128.654C203.011 133.228 168.941 121.727 137.266 108.525C105.59 95.3232 91.4762 86.5853 57.2439 83.5946C23.0116 80.6039 -5.85599 96.8938 -22.5666 126.797C-30.4814 140.94 -53.3149 173.101 -66.0378 183.366C-154.232 254.018 -178.117 241.915 -192.155 246.64C-206.052 251.233 -222.257 255.057 -219.46 300.481C-219.46 300.481 -134.463 254.302 -85.173 243.127C-35.878 231.814 1.84941 229.159 28.5086 205.374C55.1677 181.59 203.51 169.78 246.277 164.418" fill="#081B6A"/>
<path d="M480.891 50.7107C445.651 41.2291 366.707 63.7225 335.415 82.5367C330.361 85.6551 325.307 88.7736 320.115 91.8872C293.859 108.132 267.323 124.504 236.96 128.654C203.011 133.228 168.941 121.727 137.266 108.525C105.59 95.3232 91.4762 86.5853 57.2439 83.5946C23.0116 80.604 -5.85598 96.8938 -22.5666 126.797C-30.4814 140.94 -53.3149 173.101 -66.0378 183.366C-154.232 254.018 -178.117 241.915 -192.155 246.64C-206.052 251.233 -222.257 255.057 -219.461 300.481C-219.461 300.481 -134.463 254.302 -85.173 243.127C-35.8781 231.814 1.84942 229.159 28.5086 205.374C55.1677 181.59 203.51 169.78 246.277 164.418" stroke="black" stroke-miterlimit="10" stroke-linecap="round" stroke-linejoin="round"/>
<path d="M902.493 122.689C871.472 114.317 821.099 117.214 798.495 127.268C768.91 140.511 766.609 143.452 742.912 153.331C699.832 171.456 650.304 158.175 606.664 141.53C563.023 124.885 518.136 104.625 471.552 109.166C455.841 110.673 436.983 119.624 438.079 135.32C439.273 152.119 460.925 157.414 477.623 159.101C480.768 159.486 484.046 160.013 487.451 160.82C502.43 164.506 500.143 186.539 484.745 186.959C410.215 189.417 335.827 191.743 261.296 194.201C239.432 194.942 215.901 196.174 198.8 209.856C181.699 223.539 172.351 231.588 191.037 243.097C285.318 292.153 30.9122 254.079 -73.7959 259.321C-131.585 262.231 -160.262 296.52 -162.357 320.895C-164.256 343.628 -220.854 347.816 -228.259 304.565C-231.463 286.322 -216.328 269.961 -200.602 260.213C-153.158 231.254 -89.2075 232.819 -48.7202 194.687C-19.6035 167.418 -6.07031 122.432 30.7247 107.245C63.8952 93.5788 100.942 110.266 135.016 121.63C185.379 138.511 227.858 153.055 277.541 134.613C323.742 117.56 374.783 72.2459 421.479 56.721C525.991 21.9422 597.831 123.226 706.334 103.834C754.709 95.2353 761.954 84.5023 811.108 84.9966C841.038 85.3634 853.627 82.7849 917.582 103.716C976.378 122.955 1002 152.013 1029.99 172.365C1029.99 172.502 992.704 146.879 902.493 122.689Z" fill="#5AC7E5" stroke="black" stroke-miterlimit="10" stroke-linecap="round" stroke-linejoin="round"/>
<path d="M109.175 227.581C94.271 225.683 81.3809 225.092 68.2349 231.771C66.2757 232.801 64.302 234.242 64.2247 236.437C64.246 239.734 67.6465 240.678 70.3756 241.186C102.052 246.559 133.591 251.927 165.267 257.3C168.27 257.818 171.274 258.336 174.075 256.786C175.334 256.144 176.201 254.938 176.523 253.576C177.335 250.033 173.845 247.713 170.739 246.23C166.686 244.302 162.633 242.374 158.571 240.72C143.949 234.711 128.573 230.599 112.86 228.26C111.498 227.937 110.131 227.752 109.175 227.581Z" fill="white" stroke="#000207" stroke-miterlimit="10" stroke-linecap="round" stroke-linejoin="round"/>
<path d="M40.9742 241.388C46.7309 241.728 52.2972 243.572 57.1343 246.627C58.4771 247.498 60.075 248.928 59.7427 250.564C59.4104 252.201 57.5981 252.961 56.0746 253.319C46.5174 255.593 36.0125 253.575 27.9749 247.798C26.7692 246.931 25.4457 245.511 26.0427 244.158C26.4929 243.076 27.8792 242.712 28.9863 242.477C32.5819 241.779 34.2281 241.837 37.9464 241.556L40.9742 241.388Z" fill="white" stroke="#000207" stroke-miterlimit="10" stroke-linecap="round" stroke-linejoin="round"/>
<path d="M484.081 186.386C408.479 172.462 302.809 154.32 228.375 173.539C213.542 177.412 198.098 183.049 188.467 195.209C178.842 207.231 177.999 227.255 190.306 236.616" stroke="#000207" stroke-miterlimit="10" stroke-linecap="round" stroke-linejoin="round"/>
<path d="M280.815 131.429C230.074 140.906 177.825 142.5 126.683 136.03C99.7459 132.609 69.0058 127.956 48.3352 145.496C29.0799 161.85 25.6614 192.633 4.43523 206.445C-7.37284 214.133 -22.0899 214.714 -36.032 216.695C-82.0028 223.318 -125.143 247.071 -155.23 282.41" stroke="#000207" stroke-miterlimit="10" stroke-linecap="round" stroke-linejoin="round"/>
<path d="M842.255 85.9494C786.133 84.3857 758.29 110.601 736.854 126.466C698.635 154.788 642.834 155.845 589.324 134.732" stroke="#000207" stroke-miterlimit="10" stroke-linecap="round" stroke-linejoin="round"/>
<path d="M440.071 125.639C448.544 111.241 472.689 96.4329 489.252 94.1316C531.079 88.1871 582.037 111.545 623.665 119.054C665.292 126.563 707.182 118.835 742.473 95.629" stroke="#000207" stroke-miterlimit="10" stroke-linecap="round" stroke-linejoin="round"/>
<path d="M1090.93 181.645C1090.93 181.645 1179.01 262.349 1190.9 260.158C1202.79 257.967 1158.32 206.543 1143.2 198.868C1128.09 191.194 1124.24 199.162 1096.22 175.651C1068.21 152.139 1079.05 171.887 1090.93 181.645Z" fill="white" stroke="black" stroke-miterlimit="10" stroke-linecap="round" stroke-linejoin="round"/>
<path d="M1159.88 240.11L1178.07 234.569C1178.07 234.569 1160.96 209.381 1148 203.019C1166.79 230.005 1124.75 205.586 1116.05 199.099C1107.21 192.607 1093.99 184.498 1093.99 184.498C1093.99 184.498 1141.28 230.115 1159.88 240.11Z" fill="#081B6A" stroke="black" stroke-miterlimit="10" stroke-linecap="round" stroke-linejoin="round"/>
<path d="M1317.27 287.273C1317.27 287.273 1315.4 297.508 1302.53 288.402C1289.67 279.296 1231.94 225.758 1231.94 225.758" stroke="black" stroke-miterlimit="10" stroke-linecap="round" stroke-linejoin="round"/>
<path d="M1202.61 270.876C1202.61 270.876 1202.46 279.111 1161.45 254.043C1134.95 238.002 1117.31 228.041 1117.31 228.041" stroke="black" stroke-miterlimit="10" stroke-linecap="round" stroke-linejoin="round"/>
<path d="M2667.87 -96.6504V95.2422H2626.69L2498.16 17.8516L2352.88 49.0794L2232.04 17.8516L2199 -26.9535L2053.73 9.70518L1982.67 -7.04017C1941.94 -6.43673 1858.85 -5.59192 1852.33 -7.04017C1845.81 -8.48841 1761.51 -20.9192 1720.18 -26.9535L1148.12 -38.7205C1135 -38.7205 1053.05 -74.3915 1042.22 -73.569C1006.46 -70.8535 1092.91 -23.5358 1003.75 -45.0566C993.248 -47.591 953.965 -64.97 925 -55.9185V-96.6504H2667.87Z" fill="#5AC7E5"/>
<path d="M1563.83 -216.444C1597.88 -227.664 1621.7 -264.166 1618.35 -299.798C1617.32 -310.292 1613.97 -321.098 1606.32 -328.372C1598.66 -335.645 1586.01 -338.287 1577.29 -332.346C1594.48 -347.478 1600.76 -373.786 1592.24 -395.051C1583.73 -416.317 1561.05 -431.033 1538.15 -430.13C1515.26 -429.226 1493.81 -412.757 1487.01 -390.884C1482.88 -409.864 1457.81 -417.967 1439.86 -410.567C1421.91 -403.167 1410.43 -385.462 1402.4 -367.778C1403.53 -377.909 1396.04 -388.248 1386.06 -390.321C1376.09 -392.394 1365.09 -385.889 1362.1 -376.16C1361.58 -409.799 1328.04 -437.737 1294.49 -436.181C1260.94 -434.626 1231.46 -407.468 1222.79 -374.993C1213.74 -396.005 1181.37 -407.244 1160.78 -397.316C1140.18 -387.389 1126.51 -373.406 1121.53 -351.071C1124.24 -348.584 1183.45 -187.93 1183.45 -187.93C1183.45 -187.93 1187.88 -189.756 1199.57 -179.014C1213.44 -166.267 1239.97 -164.989 1250 -181.118C1249.34 -173.834 1250.87 -166.518 1254.41 -160.118C1257.95 -153.718 1263.34 -148.529 1269.86 -145.225C1276.39 -141.92 1283.75 -140.653 1291.01 -141.586C1298.26 -142.519 1305.07 -145.61 1310.55 -150.459C1303.6 -128.583 1316.06 -103.856 1335.33 -91.3586C1354.59 -78.8612 1378.92 -76.7024 1401.73 -79.2086C1465.61 -86.2261 1524.28 -129.49 1549.83 -188.433" fill="#F3BEDA"/>
<path d="M1183.04 -187.595C1183 -187.632 1182.96 -187.676 1182.93 -187.725C1162.61 -242.867 1123.58 -347.801 1121.15 -350.67C1121.08 -350.728 1121.04 -350.801 1121.01 -350.883C1120.99 -350.965 1120.98 -351.053 1121 -351.136C1125.68 -372.22 1138.27 -387.002 1160.54 -397.748C1170.67 -402.63 1184.35 -402.691 1197.12 -397.889C1208.94 -393.486 1218.17 -385.699 1222.65 -376.424C1232.23 -409.981 1262.18 -435.191 1294.44 -436.662C1311.57 -437.459 1329.75 -430.43 1343.08 -417.863C1354.8 -406.819 1361.6 -393.003 1362.5 -378.625C1366.47 -387.3 1376.74 -392.76 1386.17 -390.817C1395.6 -388.874 1402.79 -379.787 1403.02 -370.282C1413.12 -391.683 1425.12 -405.024 1439.67 -411.023C1444.97 -413.112 1450.66 -414.043 1456.36 -413.753C1462.05 -413.464 1467.62 -411.961 1472.68 -409.345C1479.97 -405.522 1485.02 -399.655 1487.06 -392.69C1494.44 -413.904 1515.64 -429.756 1538.12 -430.651C1561.2 -431.54 1584.15 -416.659 1592.71 -395.24C1600.82 -374.988 1595.58 -350.098 1580.35 -334.562C1588.56 -337.97 1599.25 -335.767 1606.66 -328.727C1615.25 -320.567 1618.03 -308.517 1618.85 -299.85C1622.22 -264.067 1598.12 -227.234 1563.99 -215.963C1563.87 -215.922 1563.73 -215.932 1563.61 -215.993C1563.49 -216.053 1563.4 -216.158 1563.35 -216.286C1563.31 -216.411 1563.32 -216.547 1563.38 -216.665C1563.44 -216.782 1563.55 -216.871 1563.67 -216.912C1597.39 -228.032 1621.18 -264.408 1617.85 -299.755C1617.05 -308.25 1614.34 -320.046 1605.97 -328.011C1598.99 -334.696 1586.41 -337.957 1577.56 -331.926C1577.51 -331.889 1577.45 -331.863 1577.39 -331.848C1577.33 -331.834 1577.27 -331.832 1577.2 -331.842C1577.14 -331.853 1577.08 -331.876 1577.03 -331.909C1576.97 -331.943 1576.93 -331.987 1576.89 -332.038C1576.81 -332.139 1576.78 -332.266 1576.79 -332.392C1576.8 -332.519 1576.86 -332.637 1576.95 -332.721C1593.96 -347.684 1600.2 -373.825 1591.79 -394.862C1583.37 -415.9 1560.82 -430.528 1538.18 -429.625C1515.53 -428.722 1494.22 -412.376 1487.48 -390.732C1487.45 -390.627 1487.38 -390.535 1487.29 -390.471C1487.2 -390.407 1487.09 -390.373 1486.98 -390.376C1486.87 -390.38 1486.77 -390.422 1486.68 -390.495C1486.59 -390.567 1486.54 -390.667 1486.51 -390.777C1484.9 -398.168 1479.83 -404.448 1472.23 -408.425C1467.29 -410.981 1461.87 -412.451 1456.31 -412.739C1450.76 -413.026 1445.21 -412.124 1440.04 -410.091C1425.22 -403.986 1413.06 -390.077 1402.86 -367.563C1402.81 -367.457 1402.72 -367.371 1402.61 -367.32C1402.51 -367.27 1402.38 -367.258 1402.27 -367.286C1402.15 -367.317 1402.05 -367.389 1401.98 -367.488C1401.92 -367.587 1401.89 -367.708 1401.9 -367.827C1403.01 -377.718 1395.71 -387.8 1385.96 -389.827C1376.21 -391.853 1365.47 -385.567 1362.57 -376.008C1362.53 -375.895 1362.45 -375.798 1362.35 -375.734C1362.25 -375.67 1362.13 -375.643 1362.01 -375.657C1361.9 -375.678 1361.79 -375.739 1361.72 -375.829C1361.64 -375.92 1361.6 -376.034 1361.59 -376.153C1361.38 -391.134 1354.56 -405.689 1342.4 -417.139C1329.27 -429.533 1311.36 -436.448 1294.5 -435.684C1262.25 -434.213 1232.25 -408.609 1223.27 -374.862C1223.24 -374.761 1223.18 -374.671 1223.11 -374.604C1223.03 -374.537 1222.93 -374.496 1222.82 -374.487C1222.72 -374.482 1222.62 -374.508 1222.53 -374.562C1222.44 -374.616 1222.37 -374.696 1222.33 -374.79C1218.16 -384.359 1208.9 -392.446 1196.8 -396.973C1184.25 -401.663 1170.86 -401.614 1160.96 -396.869C1139.06 -386.305 1126.69 -371.767 1122.02 -351.173C1126.42 -343.849 1177.1 -206.478 1183.74 -188.51C1185.24 -188.706 1190.12 -188.345 1199.88 -179.379C1207.66 -172.223 1219.76 -168.569 1230.67 -170.086C1239 -171.229 1245.67 -175.261 1249.51 -181.429C1249.56 -181.527 1249.65 -181.603 1249.76 -181.642C1249.86 -181.681 1249.98 -181.682 1250.08 -181.644C1250.19 -181.608 1250.28 -181.538 1250.35 -181.444C1250.41 -181.35 1250.44 -181.238 1250.43 -181.126C1249.77 -173.943 1251.29 -166.729 1254.78 -160.418C1258.27 -154.107 1263.58 -148.99 1270.01 -145.731C1276.45 -142.472 1283.71 -141.221 1290.87 -142.14C1298.02 -143.058 1304.73 -146.104 1310.14 -150.884C1310.22 -150.957 1310.32 -151.002 1310.43 -151.011C1310.54 -151.021 1310.64 -150.993 1310.74 -150.933C1310.83 -150.875 1310.9 -150.788 1310.94 -150.684C1310.98 -150.581 1310.98 -150.467 1310.94 -150.363C1304.55 -130.223 1315.12 -105.063 1335.52 -91.8332C1352.17 -81.0416 1375.05 -76.8377 1401.6 -79.7523C1432.86 -83.1933 1463.35 -95.3041 1489.77 -114.796C1516.19 -134.289 1536.77 -159.869 1549.3 -188.676C1549.32 -188.737 1549.36 -188.792 1549.41 -188.839C1549.45 -188.886 1549.51 -188.922 1549.57 -188.947C1549.63 -188.972 1549.7 -188.984 1549.76 -188.983C1549.83 -188.982 1549.89 -188.968 1549.95 -188.941C1550.01 -188.915 1550.07 -188.877 1550.11 -188.829C1550.16 -188.782 1550.2 -188.726 1550.22 -188.665C1550.24 -188.603 1550.26 -188.538 1550.25 -188.472C1550.25 -188.406 1550.24 -188.341 1550.21 -188.281C1537.63 -159.273 1516.93 -133.582 1490.38 -113.987C1463.82 -94.3925 1433.14 -82.2046 1401.72 -78.7494C1374.93 -75.8047 1351.85 -80.0391 1334.99 -90.9902C1314.76 -104.113 1304.04 -128.796 1309.53 -149.06C1304 -144.605 1297.3 -141.837 1290.24 -141.086C1283.17 -140.335 1276.04 -141.633 1269.7 -144.826C1263.35 -148.018 1258.06 -152.97 1254.45 -159.089C1250.84 -165.208 1249.07 -172.237 1249.35 -179.335C1245.25 -173.777 1238.78 -170.162 1230.85 -169.071C1219.63 -167.53 1207.19 -171.303 1199.18 -178.606C1188.05 -188.835 1183.63 -187.448 1183.59 -187.43C1183.49 -187.402 1183.39 -187.403 1183.29 -187.433C1183.2 -187.462 1183.11 -187.519 1183.04 -187.595Z" fill="#000207"/>
<g style="mix-blend-mode:multiply">
<g style="mix-blend-mode:multiply">
<path d="M1193.05 -260.44C1198.9 -245.791 1207.94 -232.627 1219.51 -221.9C1231.07 -211.174 1244.88 -203.154 1259.93 -198.422C1267.44 -196.12 1275.5 -194.673 1283.12 -196.577C1290.73 -198.48 1297.76 -204.434 1298.93 -212.199C1302.26 -197.357 1310.79 -183.065 1324.17 -175.915C1337.54 -168.765 1356.11 -170.317 1366.01 -181.865C1375.91 -193.414 1373.06 -214.36 1359.22 -220.677C1365.5 -220.654 1368.82 -229.192 1366.17 -234.889C1363.52 -240.585 1357.45 -243.754 1351.68 -246.274C1345.92 -248.794 1339.73 -251.335 1336.18 -256.523C1347.77 -246.355 1362.79 -240.972 1378.2 -241.465C1376.66 -236.322 1376.89 -230.812 1378.86 -225.816C1380.82 -220.82 1384.4 -216.626 1389.03 -213.905C1393.66 -211.184 1399.06 -210.093 1404.38 -210.806C1409.7 -211.519 1414.63 -213.995 1418.38 -217.838C1429.06 -228.634 1427.21 -246.618 1421.42 -260.655C1425.72 -256.943 1433.67 -259.799 1434.62 -265.396C1438.04 -256.727 1448.37 -251.496 1457.39 -253.766C1466.41 -256.036 1472.99 -265.553 1471.93 -274.793C1491.54 -265.077 1517.55 -270.782 1531.3 -287.817C1545.76 -263.137 1559.6 -236.408 1559.08 -207.808C1558.58 -179.781 1543.71 -153.111 1522.41 -134.884C1501.1 -116.658 1473.88 -106.321 1446.22 -101.788C1426.97 -98.6462 1406.82 -98.2324 1388.33 -104.451C1377.66 -107.993 1367.95 -113.955 1359.97 -121.871C1352.34 -129.597 1341.69 -133.279 1330.83 -133.226C1328.24 -133.193 1325.68 -133.792 1323.37 -134.971C1321.94 -135.72 1320.64 -136.687 1319.51 -137.837C1312.59 -144.836 1302.27 -146.945 1292.77 -144.41C1286.87 -142.765 1280.58 -143.112 1274.89 -145.398C1259.32 -151.403 1244.44 -174.358 1252.84 -188.762C1245.81 -172.648 1222.95 -168.258 1207.56 -176.76C1192.16 -185.262 1183.69 -202.714 1180.44 -220.004C1177.63 -234.951 1178.49 -247.063 1190.01 -256.945" fill="#F3BEDA"/>
</g>
</g>
</g>
<defs>
<clipPath id="clip0_282_7002">
<rect width="1920" height="12200" fill="white" transform="translate(0 -6138)"/>
</clipPath>
</defs>
</svg>
