<svg width="149" height="401" viewBox="0 0 149 401" fill="none" xmlns="http://www.w3.org/2000/svg">
<path d="M75.0736 230.872C95.0787 219.568 105.497 193.645 98.9437 171.661C96.9879 165.192 93.5328 158.817 87.8104 155.2C82.0879 151.582 73.808 151.5 69.0621 156.325C77.9826 144.665 78.648 127.341 70.6389 115.034C62.6299 102.728 46.5334 96.3069 32.2535 99.7329C17.9735 103.159 6.54541 116.191 4.99916 130.791C0.0338508 119.374 -16.7403 117.409 -27.1032 124.303C-37.466 131.196 -42.4697 143.76 -45.3115 155.881C-45.867 149.37 -51.8664 143.805 -58.3964 143.747C-64.9264 143.689 -71.0319 149.152 -71.6968 155.642C-76.2227 134.558 -100.799 121.18 -121.696 126.346C-142.593 131.512 -157.738 152.267 -159.136 173.766C-167.448 161.686 -189.202 158.661 -200.91 167.473C-212.619 176.285 -219.469 186.783 -219.812 201.447C-217.798 202.673 -160.513 296.284 -160.513 296.284C-160.513 296.284 -157.957 294.583 -149.269 299.878C-138.959 306.161 -122.116 303.651 -117.822 292.259C-117.333 296.922 -115.454 301.33 -112.428 304.911C-109.403 308.493 -105.372 311.083 -100.857 312.346C-96.3421 313.609 -91.5519 313.487 -87.1075 311.994C-82.6631 310.502 -78.7696 307.709 -75.9318 303.977C-77.5671 318.597 -66.6471 332.588 -52.974 338.04C-39.3009 343.492 -23.7406 341.813 -9.70675 337.389C29.5763 325.003 61.061 290.478 69.7683 250.231" fill="#F3BEDA"/>
<path d="M-160.726 296.545C-160.759 296.528 -160.787 296.505 -160.812 296.478C-180.475 264.347 -218.112 203.247 -219.998 201.747C-220.046 201.718 -220.085 201.678 -220.111 201.63C-220.137 201.581 -220.15 201.527 -220.148 201.472C-219.838 187.632 -213.769 176.767 -201.108 167.231C-195.352 162.897 -186.756 161.151 -178.127 162.575C-170.147 163.868 -163.37 167.612 -159.398 172.884C-157.566 150.591 -141.881 131.002 -121.786 126.051C-111.111 123.41 -98.809 125.56 -88.8555 131.797C-80.1105 137.277 -74.1075 145.114 -71.7481 154.042C-70.3329 148.091 -64.5616 143.378 -58.389 143.422C-52.2164 143.466 -46.5626 148.282 -45.2319 154.229C-41.5548 139.513 -35.6753 129.627 -27.2758 124.039C-24.2018 122.064 -20.7412 120.769 -17.1258 120.24C-13.5104 119.711 -9.82368 119.961 -6.3128 120.973C-1.25219 122.467 2.65477 125.525 4.80397 129.65C6.79969 115.39 18.1479 102.778 32.1698 99.4091C46.5668 95.9698 62.8536 102.46 70.914 114.857C78.537 126.578 78.3481 142.88 70.715 154.549C75.4537 151.381 82.4482 151.432 87.9841 154.933C94.4046 158.991 97.6559 166.22 99.2511 171.567C105.838 193.643 95.283 219.809 75.237 231.155C75.1618 231.197 75.0732 231.207 74.9903 231.184C74.9074 231.161 74.8369 231.106 74.7941 231.032C74.7534 230.958 74.7436 230.871 74.7668 230.789C74.79 230.708 74.8443 230.639 74.918 230.598C94.7252 219.398 105.144 193.558 98.638 171.751C97.0732 166.51 93.8983 159.432 87.6393 155.47C82.4192 152.137 74.1031 151.658 69.2923 156.554C69.2646 156.584 69.2313 156.608 69.1943 156.624C69.1573 156.641 69.1174 156.65 69.0769 156.651C69.0363 156.653 68.9959 156.646 68.958 156.631C68.92 156.617 68.8854 156.595 68.8559 156.567C68.794 156.514 68.7548 156.439 68.7464 156.358C68.738 156.276 68.7609 156.195 68.8106 156.13C77.6363 144.599 78.2961 127.385 70.3795 115.21C62.4629 103.034 46.4577 96.6528 32.3338 100.047C18.2099 103.442 6.84861 116.379 5.31693 130.828C5.30917 130.898 5.2788 130.964 5.23039 131.016C5.18198 131.067 5.11815 131.102 5.04848 131.114C4.97751 131.125 4.90483 131.112 4.8421 131.077C4.77936 131.042 4.73021 130.987 4.70256 130.921C2.76764 126.475 -1.20512 123.16 -6.48213 121.608C-9.90477 120.618 -13.4996 120.371 -17.0257 120.883C-20.5518 121.395 -23.9276 122.655 -26.9268 124.579C-35.4793 130.267 -41.3886 140.529 -44.9936 155.958C-45.013 156.032 -45.0569 156.096 -45.1182 156.141C-45.1794 156.187 -45.2543 156.209 -45.3303 156.206C-45.407 156.201 -45.4794 156.169 -45.5342 156.115C-45.5889 156.06 -45.6224 155.988 -45.6284 155.912C-46.1665 149.555 -52.0133 144.127 -58.3971 144.07C-64.7809 144.014 -70.7508 149.307 -71.379 155.678C-71.3887 155.754 -71.4242 155.825 -71.4797 155.877C-71.5351 155.93 -71.6071 155.962 -71.6835 155.968C-71.7595 155.97 -71.8336 155.945 -71.8932 155.897C-71.9527 155.85 -71.9939 155.784 -72.0096 155.709C-74.0159 146.317 -80.1173 138.017 -89.1953 132.338C-98.9934 126.184 -111.122 124.073 -121.621 126.657C-141.716 131.608 -157.381 151.45 -158.816 173.789C-158.819 173.855 -158.843 173.919 -158.885 173.971C-158.926 174.023 -158.983 174.061 -159.047 174.08C-159.111 174.096 -159.179 174.092 -159.241 174.069C-159.303 174.046 -159.357 174.005 -159.395 173.951C-163.215 168.456 -170.04 164.527 -178.217 163.192C-186.69 161.809 -195.104 163.512 -200.736 167.731C-213.188 177.107 -219.145 187.79 -219.513 201.322C-215.834 205.377 -166.822 285.417 -160.405 295.884C-159.487 295.574 -156.374 295.191 -149.118 299.61C-143.333 303.138 -135.27 303.924 -128.595 301.608C-123.504 299.85 -119.81 296.482 -118.172 292.125C-118.149 292.057 -118.103 291.998 -118.041 291.961C-117.98 291.923 -117.907 291.908 -117.835 291.918C-117.763 291.927 -117.697 291.96 -117.645 292.011C-117.594 292.062 -117.561 292.129 -117.552 292.201C-117.068 296.798 -115.215 301.145 -112.232 304.677C-109.249 308.208 -105.274 310.763 -100.822 312.009C-96.3696 313.254 -91.646 313.134 -87.2631 311.664C-82.8802 310.193 -79.04 307.44 -76.2404 303.761C-76.1992 303.704 -76.1403 303.663 -76.0731 303.644C-76.0059 303.625 -75.9342 303.629 -75.8693 303.655C-75.8031 303.679 -75.7472 303.726 -75.7105 303.786C-75.6738 303.846 -75.6585 303.917 -75.6672 303.987C-77.1747 317.448 -67.3874 331.947 -52.9116 337.718C-41.0936 342.423 -26.1826 342.21 -9.85453 337.063C9.36593 330.998 27.0222 319.578 41.2009 304.024C55.3795 288.471 65.1266 269.819 69.406 250.144C69.4138 250.103 69.4298 250.063 69.4532 250.028C69.4766 249.993 69.5068 249.963 69.5421 249.94C69.5773 249.917 69.6169 249.901 69.6584 249.893C69.6999 249.886 69.7425 249.887 69.7836 249.896C69.8248 249.905 69.8639 249.922 69.8985 249.946C69.9331 249.97 69.9626 250.001 69.9853 250.037C70.008 250.072 70.0234 250.112 70.0308 250.153C70.0381 250.195 70.0372 250.237 70.028 250.279C65.741 270.087 55.9351 288.823 41.6836 304.457C27.4321 320.092 9.66994 331.584 -9.65653 337.679C-26.1296 342.874 -41.1677 343.093 -53.1401 338.314C-67.4966 332.589 -77.316 318.408 -76.393 304.983C-79.3153 308.474 -83.1809 311.051 -87.528 312.405C-91.8752 313.759 -96.5202 313.832 -100.908 312.618C-105.296 311.403 -109.242 308.95 -112.274 305.553C-115.306 302.157 -117.296 297.959 -118.006 293.461C-119.889 297.467 -123.511 300.549 -128.356 302.223C-135.221 304.594 -143.512 303.774 -149.459 300.183C-157.734 295.141 -160.341 296.565 -160.362 296.581C-160.42 296.611 -160.485 296.623 -160.549 296.617C-160.614 296.61 -160.676 296.586 -160.726 296.545Z" fill="#000207"/>
<path d="M31.9957 156.301C38.9407 144.487 49.9319 135.59 62.9333 131.259C74.4534 127.472 87.8371 127.748 97.9003 134.547C107.964 141.346 113.26 155.467 107.89 166.339" fill="#F3BEDA"/>
<path d="M31.7982 156.544C31.7386 156.495 31.6984 156.427 31.6848 156.352C31.6712 156.276 31.685 156.199 31.7239 156.133C38.7117 144.246 49.7683 135.292 62.8482 130.928C75.6054 126.75 88.7758 127.994 98.0817 134.272C108.845 141.53 113.367 155.977 108.182 166.471C108.163 166.51 108.138 166.544 108.106 166.572C108.075 166.6 108.038 166.622 107.998 166.636C107.958 166.65 107.915 166.656 107.873 166.653C107.831 166.65 107.79 166.64 107.752 166.621C107.675 166.582 107.617 166.515 107.59 166.433C107.563 166.352 107.569 166.263 107.606 166.186C112.654 155.967 108.215 141.889 97.7229 134.806C88.5844 128.636 75.6134 127.419 63.0543 131.575C50.1313 135.888 39.2059 144.732 32.2965 156.473C32.2523 156.547 32.1811 156.6 32.0983 156.621C32.0154 156.642 31.9275 156.63 31.8533 156.588L31.7982 156.544Z" fill="#000207"/>
<path d="M-29.2835 163.38C-22.1882 159.236 -12.2259 160.91 -6.88526 167.139C-3.91209 170.609 -2.39557 175.066 -0.947473 179.404" fill="#F3BEDA"/>
<path d="M-29.4871 163.634C-29.5208 163.615 -29.5513 163.59 -29.5774 163.562C-29.5992 163.526 -29.6136 163.485 -29.6196 163.443C-29.6257 163.401 -29.6234 163.358 -29.6128 163.317C-29.6022 163.276 -29.5836 163.238 -29.5579 163.204C-29.5323 163.17 -29.5002 163.141 -29.4635 163.12C-22.2912 158.931 -12.0545 160.651 -6.6456 166.959C-3.58805 170.529 -2.02888 175.2 -0.650467 179.326C-0.632829 179.367 -0.623922 179.412 -0.624336 179.456C-0.624752 179.501 -0.634476 179.545 -0.652874 179.585C-0.671269 179.626 -0.697932 179.662 -0.731173 179.692C-0.764413 179.722 -0.803503 179.744 -0.845918 179.758C-0.888334 179.772 -0.933156 179.777 -0.977517 179.772C-1.02188 179.767 -1.06479 179.754 -1.10353 179.732C-1.14227 179.71 -1.17599 179.68 -1.2025 179.644C-1.22902 179.608 -1.24775 179.567 -1.25752 179.523C-2.61472 175.463 -4.17378 170.833 -7.14695 167.363C-12.361 161.284 -22.2351 159.622 -29.1557 163.66C-29.2076 163.688 -29.2664 163.7 -29.3252 163.695C-29.3839 163.691 -29.4401 163.669 -29.4871 163.634Z" fill="#000207"/>
<path d="M20.7227 168.768C21.8752 165.112 24.0161 161.847 26.9087 159.331C29.8578 156.91 33.792 155.568 37.5457 156.202C41.2995 156.837 44.7422 159.624 45.6749 163.322" fill="#F3BEDA"/>
<path d="M20.5211 169.014C20.4696 168.973 20.4319 168.917 20.4133 168.854C20.3947 168.79 20.3959 168.723 20.417 168.661C21.5963 164.95 23.7733 161.636 26.7097 159.079C28.1995 157.812 29.9395 156.872 31.8165 156.322C33.6935 155.771 35.6654 155.622 37.6038 155.884C41.618 156.562 45.0694 159.586 45.9879 163.24C46.0089 163.323 45.996 163.411 45.9522 163.484C45.9084 163.557 45.8372 163.61 45.7543 163.631C45.6714 163.652 45.5836 163.639 45.5101 163.596C45.4367 163.552 45.3837 163.481 45.3627 163.398C44.5029 159.979 41.2653 157.15 37.4975 156.512C34.0372 155.931 30.1585 157.08 27.1176 159.576C24.2693 162.052 22.1621 165.269 21.0292 168.869C20.9999 168.949 20.9406 169.014 20.8639 169.051C20.7871 169.088 20.6991 169.094 20.6184 169.066C20.583 169.055 20.55 169.037 20.5211 169.014Z" fill="#000207"/>
<path d="M-1.57978 138.056C-0.554909 136.473 0.824944 135.15 2.45031 134.192C4.07568 133.234 5.90184 132.669 7.78389 132.54C9.66595 132.411 11.5521 132.723 13.2928 133.45C15.0334 134.177 16.5806 135.3 17.8116 136.73" fill="#F3BEDA"/>
<path d="M-1.77218 138.302C-1.83313 138.25 -1.87346 138.178 -1.88582 138.099C-1.89817 138.02 -1.88174 137.939 -1.83949 137.871C-0.787729 136.244 0.629287 134.883 2.29891 133.899C3.96854 132.915 5.84473 132.334 7.77837 132.202C9.71202 132.07 11.6498 132.391 13.4376 133.139C15.2255 133.887 16.8142 135.042 18.0773 136.512C18.1338 136.578 18.1619 136.663 18.1555 136.749C18.1491 136.836 18.1087 136.916 18.0431 136.972C17.9776 137.029 17.8923 137.057 17.806 137.051C17.7197 137.044 17.6395 137.004 17.5831 136.938C16.3853 135.545 14.8791 134.451 13.1843 133.742C11.4894 133.033 9.65255 132.729 7.81966 132.854C5.98677 132.98 4.20837 133.531 2.6258 134.464C1.04322 135.397 -0.299918 136.686 -1.29688 138.229C-1.31944 138.265 -1.34887 138.295 -1.38345 138.319C-1.41802 138.343 -1.45703 138.36 -1.49817 138.368C-1.53931 138.377 -1.58174 138.377 -1.62294 138.369C-1.66415 138.361 -1.70331 138.344 -1.73809 138.321L-1.77218 138.302Z" fill="#000207"/>
<path d="M47.125 139.511C46.5739 137.688 46.4427 135.765 46.7414 133.884C47.04 132.004 47.7607 130.215 48.8493 128.653C49.938 127.091 51.3663 125.795 53.0271 124.864C54.6879 123.933 56.5381 123.39 58.4387 123.276" fill="#F3BEDA"/>
<path d="M46.9491 139.733C46.8974 139.691 46.8592 139.635 46.8395 139.572C46.2941 137.701 46.1699 135.732 46.4757 133.808C46.7814 131.883 47.5097 130.05 48.6081 128.44C49.742 126.853 51.2136 125.536 52.9169 124.586C54.6203 123.635 56.5131 123.074 58.4594 122.942C58.5014 122.937 58.544 122.94 58.5847 122.952C58.6254 122.963 58.6634 122.983 58.6965 123.009C58.7296 123.035 58.7572 123.068 58.7776 123.105C58.7981 123.142 58.811 123.183 58.8156 123.225C58.8205 123.267 58.8171 123.31 58.8056 123.35C58.794 123.391 58.7745 123.429 58.7482 123.462C58.7218 123.495 58.6892 123.523 58.6521 123.543C58.6151 123.564 58.5744 123.576 58.5323 123.581C56.6754 123.703 54.8688 124.236 53.2427 125.14C51.6167 126.045 50.2119 127.3 49.1297 128.814C48.0863 130.344 47.3945 132.086 47.1039 133.915C46.8132 135.744 46.931 137.615 47.4486 139.393C47.468 139.458 47.4663 139.527 47.4436 139.591C47.421 139.655 47.3786 139.71 47.3226 139.749C47.2666 139.787 47.1999 139.807 47.132 139.805C47.0642 139.803 46.9987 139.779 46.9451 139.738L46.9491 139.733Z" fill="#000207"/>
<path d="M-12.073 216.623C-8.65804 220.567 -4.44483 223.951 0.436725 225.834C5.31828 227.718 10.9189 227.987 15.7481 225.972C20.5773 223.957 24.4634 219.513 25.2102 214.341" fill="#F3BEDA"/>
<path d="M-7.2513 221.728C-9.08911 220.255 -10.7865 218.614 -12.3218 216.828C-12.3772 216.764 -12.4051 216.681 -12.3993 216.596C-12.3935 216.512 -12.3546 216.433 -12.2911 216.377C-12.2257 216.322 -12.1414 216.295 -12.0562 216.302C-11.9711 216.308 -11.8919 216.348 -11.8355 216.412C-8.07502 220.746 -3.90677 223.815 0.559897 225.541C5.65489 227.496 11.1448 227.554 15.63 225.683C20.5452 223.622 24.197 219.163 24.8967 214.298C24.9021 214.257 24.9159 214.216 24.9372 214.18C24.9584 214.144 24.9868 214.112 25.0205 214.087C25.0542 214.062 25.0926 214.044 25.1335 214.034C25.1743 214.024 25.2168 214.022 25.2583 214.029C25.3427 214.042 25.4187 214.087 25.47 214.156C25.5212 214.224 25.5437 214.31 25.5326 214.395C24.7825 219.457 21.0102 224.139 15.876 226.28C11.2418 228.204 5.5747 228.153 0.331384 226.137C-2.40681 225.064 -4.96412 223.577 -7.2513 221.728Z" fill="#000207"/>
<path d="M9.79348 205.245C13.3141 209.355 19.2034 211.156 24.5018 210.055C27.1457 209.445 29.616 208.241 31.7253 206.534C33.8347 204.827 35.5277 202.662 36.6759 200.204C38.9269 195.213 39.1552 189.544 37.3127 184.389" fill="#F3BEDA"/>
<path d="M11.44 207.277C10.7528 206.731 10.1195 206.12 9.54871 205.453C9.49224 205.388 9.46412 205.302 9.47053 205.216C9.47695 205.13 9.51737 205.05 9.58291 204.993C9.64846 204.937 9.73376 204.909 9.82004 204.915C9.90632 204.921 9.98652 204.962 10.043 205.027C13.3948 208.938 19.1803 210.828 24.4427 209.731C27.0379 209.134 29.4639 207.957 31.5381 206.287C33.6123 204.617 35.2805 202.498 36.4172 200.09C38.6414 195.176 38.8632 189.589 37.0356 184.514C37.0195 184.473 37.0117 184.43 37.0128 184.387C37.0139 184.343 37.0239 184.3 37.0421 184.261C37.0603 184.221 37.0863 184.186 37.1186 184.157C37.151 184.127 37.1889 184.105 37.2301 184.091C37.2713 184.077 37.3149 184.072 37.3583 184.075C37.4017 184.079 37.4439 184.091 37.4824 184.111C37.5209 184.131 37.5549 184.159 37.5823 184.193C37.6097 184.227 37.6299 184.266 37.6417 184.308C39.5247 189.539 39.2929 195.298 36.9956 200.361C35.8208 202.862 34.0941 205.064 31.9454 206.801C29.7967 208.537 27.2821 209.764 24.5907 210.389C22.3039 210.847 19.945 210.807 17.6753 210.27C15.4056 209.733 13.2787 208.712 11.44 207.277Z" fill="#000207"/>
<g style="mix-blend-mode:multiply">
<g style="mix-blend-mode:multiply">
<path d="M-163.524 249.5C-158.016 257.979 -150.692 265.128 -142.081 270.428C-133.47 275.727 -123.788 279.046 -113.736 280.142C-108.729 280.652 -103.475 280.555 -98.926 278.408C-94.3764 276.26 -90.702 271.64 -90.9378 266.612C-86.9878 275.527 -79.8394 283.447 -70.5395 286.273C-61.2396 289.099 -49.7592 285.806 -44.9759 277.309C-40.1925 268.812 -44.5963 255.998 -54.0897 253.756C-50.1358 252.985 -49.1165 247.203 -51.4944 243.953C-53.8723 240.702 -58.0823 239.467 -62.0219 238.603C-65.9616 237.738 -70.1703 236.914 -73.0465 234.094C-64.4923 239.041 -54.3774 240.55 -44.7518 238.316C-45.076 241.742 -44.2425 245.177 -42.3845 248.073C-40.5266 250.969 -37.7514 253.159 -34.5026 254.292C-31.2538 255.425 -27.7189 255.436 -24.463 254.323C-21.207 253.211 -18.4181 251.039 -16.5418 248.155C-11.1727 240.034 -14.5844 228.959 -19.9746 220.856C-16.8091 222.653 -12.1683 219.866 -12.264 216.227C-9.03601 221.251 -1.88776 223.25 3.50046 220.697C8.88867 218.144 11.835 211.339 10.0196 205.662C23.5614 209.322 39.1999 202.489 45.7156 190.063C57.8901 203.774 69.9284 218.85 73.1681 236.897C76.3527 254.58 70.3385 273.203 59.2169 287.322C48.0953 301.441 32.2725 311.338 15.4512 317.641C3.73871 322.019 -8.87742 324.795 -21.281 323.194C-28.4302 322.298 -35.2755 319.761 -41.2814 315.781C-47.0457 311.877 -54.197 310.891 -61.0181 312.28C-62.6451 312.624 -64.3315 312.567 -65.9317 312.115C-66.9223 311.822 -67.8612 311.377 -68.7145 310.795C-73.9352 307.257 -80.6863 307.22 -86.3452 310C-89.8525 311.771 -93.8459 312.337 -97.7073 311.611C-108.249 309.779 -120.467 297.205 -116.985 287.1C-119.392 298.108 -133.217 303.722 -143.958 300.299C-154.7 296.876 -162.203 286.961 -166.403 276.496C-170.035 267.449 -171.011 259.728 -165 252.077" fill="#F3BEDA"/>
</g>
</g>
<g style="mix-blend-mode:multiply">
<g style="mix-blend-mode:multiply">
<path d="M-45.3306 157.142C-42.3424 156.808 -39.3186 157.244 -36.5467 158.409C-33.7748 159.574 -31.3472 161.429 -29.4948 163.798C-26.3648 162.369 -22.9214 161.766 -19.4921 162.044C-16.0629 162.323 -12.7621 163.475 -9.90383 165.39C-7.04558 167.305 -4.72504 169.919 -3.16311 172.985C-1.60118 176.051 -0.84984 179.465 -0.980605 182.903C3.02182 179.198 10.3454 180.215 13.1889 184.868C13.7785 179.358 14.3404 173.606 12.3483 168.418C10.3561 163.23 5.02201 158.898 -0.40537 160.028C-1.26436 154.137 -2.15768 148.144 -4.76991 142.799C-7.38215 137.454 -12.0666 132.779 -17.9159 131.69C-24.342 130.502 -30.921 133.894 -35.2835 138.761C-39.6459 143.629 -42.1986 149.805 -44.6837 155.855" fill="#F3BEDA"/>
</g>
</g>
<g style="mix-blend-mode:multiply">
<g style="mix-blend-mode:multiply">
<path d="M31.5093 155.002C29.3969 149.08 27.1058 143.671 29.4824 137.83C30.3212 135.745 31.5075 133.708 33.3618 132.447C35.2161 131.186 37.874 130.892 39.6718 132.257C38.3303 124.974 43.8463 117.142 51.1366 115.986C58.4268 114.831 66.1523 120.491 67.1796 127.819C66.0362 124.273 62.2003 121.918 58.4771 122.151C54.7539 122.385 51.3829 124.986 49.8362 128.383C49.1106 130.105 48.7499 131.958 48.7769 133.826C48.8038 135.694 49.2179 137.536 49.9928 139.236C41.592 143.013 37.4101 147.984 32.1255 155.525" fill="#F3BEDA"/>
</g>
</g>
<path d="M11.9901 129.161C11.8128 129.127 11.707 128.879 11.6487 128.447C11.5883 127.848 11.6067 127.243 11.7035 126.648C11.9987 124.633 12.5897 122.671 13.4575 120.828C14.585 118.41 16.06 116.17 17.8357 114.179C21.4069 110.138 26.0906 107.24 31.3006 105.847C33.8793 105.147 36.5473 104.832 39.2182 104.912C41.2538 104.946 43.2729 105.285 45.2083 105.916C45.7829 106.098 46.3318 106.353 46.8412 106.674C47.2063 106.916 47.3881 107.109 47.3286 107.308C47.1295 108.042 43.7153 107.464 39.311 107.926C36.9467 108.15 34.6139 108.632 32.3539 109.362C27.8641 110.805 23.796 113.326 20.5049 116.703C18.8408 118.4 17.3657 120.272 16.1055 122.287C13.7468 126.005 12.7373 129.313 11.9901 129.161Z" fill="#FFD6E5"/>
<path d="M24.4991 169.83C24.1644 169.695 24.0596 169.137 24.1773 168.289C24.3626 167.161 24.7314 166.071 25.2691 165.062C25.9704 163.667 26.936 162.421 28.1124 161.394C29.3624 160.302 30.8546 159.523 32.4654 159.123C33.2794 158.928 34.1175 158.852 34.9533 158.899C35.8227 158.952 36.68 159.13 37.4995 159.425C38.2496 159.702 38.9729 160.047 39.6607 160.455C39.9886 160.651 40.2885 160.84 40.5854 161.043C40.8897 161.261 41.1828 161.494 41.4633 161.742C42.0105 162.189 42.4898 162.714 42.8863 163.299C43.2348 163.807 43.4619 164.388 43.55 164.998C43.6265 165.419 43.5674 165.854 43.3814 166.24C43.1899 166.481 43.0391 166.598 42.8588 166.578C42.4873 166.52 42.2837 166.055 41.8541 165.648C41.2472 165.071 40.549 164.599 39.7879 164.25C39.5463 164.132 39.2867 164.015 39.0181 163.9L38.1421 163.539C37.5729 163.309 36.9887 163.118 36.3936 162.968C35.3861 162.69 34.3248 162.671 33.3082 162.913C32.247 163.18 31.246 163.646 30.3581 164.285C29.3946 164.991 28.523 165.813 27.7635 166.735C26.2711 168.488 25.1837 170.113 24.4991 169.83Z" fill="#FFD6E5"/>
<path d="M40.8952 154.29C40.2408 154.031 40.4038 152.261 41.3477 150.178C42.4262 147.928 43.9426 145.916 45.8083 144.26C47.674 142.604 49.8514 141.336 52.2131 140.532C54.4133 139.825 56.1734 139.898 56.3675 140.56C56.5616 141.222 55.2057 142.093 53.5272 143.215C51.7279 144.386 50.0129 145.682 48.3952 147.094C46.7968 148.53 45.3042 150.08 43.9289 151.731C42.6042 153.315 41.6038 154.583 40.8952 154.29Z" fill="#FFD6E5"/>
</svg>
