<svg width="320" height="362" viewBox="0 0 320 362" fill="none" xmlns="http://www.w3.org/2000/svg">
<path d="M71.8993 109.552C31.1738 95.6957 39.846 96.2958 -2.86704 103.131C-47.3815 110.231 -143.278 123.666 -186.714 112.822C-198.894 109.73 -213.677 109.848 -227.306 105.6C-237.883 102.351 -244.821 99.5773 -252.656 97.0365C-262.83 93.7733 -278.389 80.439 -284.699 78.3475C-303.724 72.2774 -302.258 82.4864 -303.571 88.0653C-292.014 96.3096 -276.509 102.403 -262.249 107.434C-229.954 118.972 -195.09 123.478 -162.679 124.047C-137.717 124.476 -112.393 120.869 -88.0506 126.55C-83.792 127.507 -79.5192 128.865 -76.3955 131.874C-73.2718 134.882 -71.7852 139.96 -74.1697 143.666C-76.7444 147.679 -82.2561 148.276 -87.0822 148.345C-152.34 149.134 -217.689 138.759 -279.484 117.899C-291.183 114.186 -307.434 106.912 -315.687 101.066C-325.181 94.2582 -326.463 89.2736 -338.417 92.6117C-344.493 94.3345 -356.598 99.0862 -355.073 105.269C-354.127 109.26 -348.534 110.974 -344.753 112.652C-232.748 165.343 -58.6791 163.642 71.441 185.115C71.441 185.115 76.1171 183.642 113.323 174.687" fill="#5AC7E5"/>
<path d="M-354.024 109.352C-354.024 109.352 -309.827 127.513 -287.365 134.066C-264.802 140.615 -224.064 149.139 -171.279 156.938C-118.494 164.737 -25.2569 172.922 -13.4489 174.016C-1.6409 175.109 20.8699 177.334 27.9842 179.397" stroke="black" stroke-miterlimit="10" stroke-linecap="round" stroke-linejoin="round"/>
<path d="M406.511 141.833C239.448 153.952 109.478 296.743 113.928 251.722C114.743 243.444 121.759 214.126 122.47 205.751C96.0611 227.102 69.4711 251.878 42.9215 274.944C38.0395 279.139 30.9954 273.352 34.2203 267.806C43.0441 252.708 51.9541 237.205 60.6371 223.822C63.9802 218.775 67.3128 213.427 67.0425 208.608C66.1313 194.154 35.0097 204.505 30.8184 191.173C29.4642 186.995 30.1166 174.096 29.4587 169.693C28.4179 162.99 6.54108 155.914 0.655151 151.594C-19.9007 136.324 -19.7669 120.123 -29.2752 98.629C-34.3071 87.1372 -36.061 71.6068 -20.7768 60.0034C-10.8804 52.5128 2.59454 49.5236 14.8886 47.2801C54.6775 40.2461 93.9803 36.5489 131.695 36.3277" fill="#5AC7E5"/>
<path d="M33.6874 272.653C33.6874 272.653 30.1859 264.628 45.1971 239.555C60.2118 214.582 70.9169 204.347 59.3219 200.731C47.7268 197.116 30.9759 207.061 25.995 194.159C21.0141 181.257 13.4895 181.823 3.3187 178.661C-12.5491 173.687 -68.0196 169.604 -68.0196 169.604C-68.0196 169.604 13.6997 170.65 23.2535 173.432C44.5997 179.722 24.1576 187.685 33.2303 191.087C42.3029 194.49 83.2514 186.107 78.4288 200.561C73.6026 214.915 30.6133 256.767 33.6874 272.653Z" fill="#081B6A" stroke="black" stroke-miterlimit="10" stroke-linecap="round" stroke-linejoin="round"/>
<path d="M96.1772 227.603C96.1772 227.603 120.42 196.169 125.427 201.223C130.433 206.278 121.121 230.346 117.879 241.123C114.637 251.9 117.764 260.743 117.764 260.743C117.764 260.743 112.591 259.517 113.724 240.263C114.857 221.01 123.454 213.766 118.101 213.15C112.748 212.534 96.1772 227.603 96.1772 227.603Z" fill="#081B6A" stroke="black" stroke-miterlimit="10" stroke-linecap="round" stroke-linejoin="round"/>
<path d="M170.122 236.367C170.122 236.367 234.733 188.624 298.949 161.114C363.166 133.604 410.179 151.766 410.179 151.766C410.179 151.766 378.036 138.815 292.72 175.618C250.504 193.702 170.122 236.367 170.122 236.367Z" fill="#081B6A" stroke="black" stroke-miterlimit="10" stroke-linecap="round" stroke-linejoin="round"/>
<path d="M583.04 118.918C624.624 108.601 663.859 111.546 702.997 128.878C727.932 139.971 750.228 156.086 775.066 167.283C812.988 184.357 855.107 189.212 896.414 193.894C889.08 194.152 883.694 201.182 881.323 208.106C879.055 215.127 878.717 222.683 875.836 229.424C871.658 239.328 861.855 246.614 851.133 247.797C856.04 238.571 857.14 226.963 848.388 221.236C839.636 215.508 814.703 213.066 804.308 212.125C748.899 206.933 701.061 202.481 645.753 197.286C641.817 196.921 637.78 196.561 634.297 194.772C630.814 192.983 627.776 189.569 627.839 185.644C627.871 180.814 632.164 177.042 636.618 174.974C643.548 171.813 651.378 171.336 658.978 170.062C666.578 168.789 674.438 166.299 679.259 160.395C684.081 154.492 687.554 141.695 680.052 140.047C650.869 134.033 620.999 145.647 594.411 159.057C567.723 172.47 545.748 182.599 516.706 189.154C496.046 193.804 472.847 192.006 446.707 178.139C429.894 169.174 399.588 142.678 380.762 139.418C361.736 136.164 354.506 136.519 335.254 138.304C316.003 140.088 282.367 176.178 271.658 166.295C312.681 160.022 347.767 122.271 388.762 129.479C412.344 133.578 435.078 142.133 458.74 145.625C499.599 151.832 542.347 146.002 577.07 123.655" fill="#081B6A"/>
<path d="M583.04 118.918C624.624 108.601 663.859 111.546 702.997 128.878C727.932 139.971 750.228 156.086 775.066 167.283C812.988 184.357 855.107 189.212 896.414 193.894C889.08 194.152 883.694 201.182 881.323 208.106C879.055 215.127 878.717 222.683 875.836 229.424C871.658 239.328 861.855 246.614 851.133 247.797C856.04 238.571 857.14 226.963 848.388 221.236C839.636 215.508 814.703 213.066 804.308 212.125C748.899 206.933 701.061 202.481 645.753 197.286C641.817 196.921 637.78 196.561 634.297 194.772C630.814 192.983 627.776 189.569 627.839 185.644C627.871 180.814 632.164 177.042 636.618 174.974C643.548 171.813 651.378 171.336 658.978 170.062C666.578 168.789 674.438 166.299 679.259 160.395C684.081 154.492 687.554 141.695 680.052 140.047C650.869 134.033 620.999 145.647 594.411 159.057C567.723 172.47 545.748 182.599 516.706 189.154C496.046 193.804 472.847 192.006 446.707 178.139C429.894 169.174 399.588 142.678 380.762 139.418C361.736 136.164 354.506 136.519 335.254 138.304C316.003 140.088 282.367 176.178 271.658 166.295C312.681 160.022 347.767 122.271 388.762 129.479C412.344 133.578 435.078 142.133 458.74 145.625C499.599 151.832 542.347 146.002 577.07 123.655" stroke="black" stroke-miterlimit="10" stroke-linecap="round" stroke-linejoin="round"/>
<path d="M337.451 152.106C360.171 145.975 397.063 148.097 413.618 155.461C435.286 165.16 436.971 167.314 454.327 174.549C485.878 187.823 522.151 178.096 554.114 165.906C586.076 153.715 618.951 138.877 653.069 142.203C664.575 143.306 678.386 149.862 677.584 161.358C676.709 173.661 660.851 177.539 648.622 178.774C646.318 179.057 643.918 179.443 641.424 180.034C630.453 182.734 632.128 198.87 643.405 199.177C697.991 200.978 752.472 202.681 807.058 204.482C823.071 205.024 840.305 205.927 852.829 215.947C865.354 225.968 872.201 231.864 858.515 240.292C789.464 276.221 975.789 248.336 1052.48 252.175C1094.8 254.306 1115.8 279.419 1117.34 297.271C1118.73 313.921 1160.18 316.988 1165.6 285.311C1167.95 271.95 1156.87 259.967 1145.35 252.828C1110.6 231.619 1063.76 232.765 1034.11 204.838C1012.79 184.866 1002.87 151.918 975.926 140.796C951.633 130.787 924.5 143.008 899.544 151.331C862.659 163.695 831.548 174.346 795.16 160.84C761.323 148.351 723.941 115.163 689.741 103.792C613.198 78.3207 560.583 152.5 481.116 138.297C445.687 132 440.38 124.139 404.38 124.501C382.46 124.77 373.24 122.881 326.399 138.211C283.338 152.301 264.572 173.584 244.073 188.489C244.076 188.59 271.381 169.823 337.451 152.106Z" fill="#5AC7E5" stroke="black" stroke-miterlimit="10" stroke-linecap="round" stroke-linejoin="round"/>
<path d="M199.453 195.292C199.453 195.292 134.94 254.399 126.233 252.794C117.525 251.19 150.099 213.527 161.168 207.907C172.237 202.286 175.058 208.122 195.576 190.902C216.095 173.682 208.154 188.146 199.453 195.292Z" fill="white" stroke="black" stroke-miterlimit="10" stroke-linecap="round" stroke-linejoin="round"/>
<path d="M148.953 238.115L135.632 234.057C135.632 234.057 148.16 215.61 157.653 210.95C143.891 230.715 174.683 212.83 181.054 208.079C187.526 203.324 197.212 197.385 197.212 197.385C197.212 197.385 162.577 230.795 148.953 238.115Z" fill="#081B6A" stroke="black" stroke-miterlimit="10" stroke-linecap="round" stroke-linejoin="round"/>
<path d="M33.6809 272.654C33.6809 272.654 35.0514 280.15 44.4737 273.481C53.8959 266.812 96.1734 227.601 96.1734 227.601" stroke="black" stroke-miterlimit="10" stroke-linecap="round" stroke-linejoin="round"/>
<path d="M117.656 260.646C117.656 260.646 117.767 266.678 147.802 248.318C167.206 236.57 180.127 229.274 180.127 229.274" stroke="black" stroke-miterlimit="10" stroke-linecap="round" stroke-linejoin="round"/>
</svg>
