<svg width="614" height="617" viewBox="0 0 614 617" fill="none" xmlns="http://www.w3.org/2000/svg">
<path d="M412.388 136.466C405.121 101.362 371.573 73.5367 335.791 72.8021C325.249 72.6266 314.131 74.7229 306.032 81.5015C297.933 88.2801 293.867 100.542 298.775 109.891C285.701 91.0845 260.281 81.8446 238.183 87.8816C216.085 93.9185 198.879 114.774 197.168 137.62C195.456 160.467 209.373 183.652 230.328 192.903C211.001 194.842 200.093 218.826 205.398 237.505C210.703 256.183 226.985 269.601 243.639 279.596C233.702 277.32 222.577 283.583 219.38 293.256C216.184 302.93 221.392 314.602 230.717 318.681C197.238 315.363 165.658 345.503 163.38 379.008C161.102 412.514 184.722 444.9 215.996 457.217C194.09 463.811 179.235 494.688 186.75 516.28C194.265 537.872 206.598 553.048 228.22 560.543C231 558.134 397.357 517.617 397.357 517.617C397.357 517.617 396.047 513.008 408.052 502.624C422.296 490.3 426.59 464.082 411.71 452.277C418.871 453.77 426.314 453.078 433.076 450.29C439.838 447.502 445.606 442.746 449.633 436.64C453.66 430.534 455.759 423.359 455.659 416.046C455.559 408.732 453.263 401.617 449.071 395.624C470.012 405.017 495.998 395.457 510.611 377.741C525.223 360.025 530.14 336.108 530.251 313.152C530.56 248.892 494.266 185.674 438.621 153.568" fill="#F3BEDA"/>
<path d="M397.642 518.064C397.601 518.103 397.553 518.135 397.501 518.159C340.402 532.067 231.702 558.88 228.575 560.968C228.511 561.025 228.432 561.064 228.348 561.08C228.263 561.096 228.176 561.089 228.095 561.06C207.683 554.008 194.432 539.817 186.295 516.464C182.598 505.85 184.098 492.247 190.324 480.106C196.046 468.867 204.835 460.582 214.559 457.191C182.313 443.851 160.682 411.22 162.897 379.007C164.058 361.89 173.112 344.638 187.119 332.822C199.425 322.44 213.927 317.254 228.314 318.001C220.148 313.065 215.894 302.246 218.9 293.096C221.905 283.947 231.752 277.841 241.222 278.697C221.11 266.225 209.225 252.782 204.923 237.642C203.453 232.134 203.177 226.376 204.113 220.753C205.05 215.13 207.177 209.772 210.353 205.038C214.983 198.232 221.386 193.884 228.538 192.656C208.304 182.899 194.973 160.032 196.646 137.596C198.393 114.57 215.793 93.4648 238.049 87.3944C259.093 81.6522 283.223 89.6977 296.922 106.595C294.472 98.0462 297.879 87.6793 305.718 81.1227C314.804 73.5168 327.092 72.1297 335.796 72.3066C371.73 73.0355 405.575 101.179 412.884 136.364C412.91 136.496 412.884 136.632 412.81 136.745C412.736 136.857 412.621 136.935 412.49 136.964C412.361 136.989 412.227 136.962 412.117 136.889C412.007 136.815 411.931 136.702 411.905 136.573C404.699 101.812 371.273 74.0259 335.777 73.305C327.246 73.1336 315.218 74.479 306.351 81.8905C298.914 88.0585 294.241 100.185 299.223 109.664C299.254 109.719 299.274 109.78 299.281 109.843C299.288 109.906 299.283 109.969 299.265 110.03C299.248 110.091 299.219 110.148 299.179 110.197C299.139 110.247 299.091 110.288 299.035 110.319C298.926 110.385 298.796 110.408 298.671 110.381C298.547 110.355 298.437 110.282 298.364 110.178C285.437 91.5738 260.178 82.3948 238.319 88.3566C216.459 94.3185 199.356 115.057 197.672 137.657C195.988 160.256 209.797 183.297 230.532 192.454C230.633 192.499 230.717 192.576 230.77 192.672C230.824 192.769 230.845 192.88 230.83 192.99C230.812 193.1 230.759 193.202 230.677 193.279C230.595 193.355 230.489 193.402 230.378 193.411C222.851 194.168 216.034 198.492 211.216 205.592C208.114 210.205 206.034 215.428 205.116 220.911C204.198 226.393 204.462 232.008 205.891 237.38C210.268 252.795 222.7 266.463 243.904 279.167C244.004 279.231 244.079 279.327 244.117 279.439C244.155 279.552 244.153 279.674 244.112 279.785C244.068 279.897 243.985 279.989 243.879 280.044C243.773 280.1 243.65 280.115 243.533 280.088C233.832 277.859 222.984 283.96 219.859 293.417C216.735 302.875 221.755 314.265 230.921 318.232C231.029 318.283 231.117 318.369 231.169 318.477C231.221 318.584 231.235 318.707 231.207 318.823C231.173 318.937 231.101 319.035 231.002 319.101C230.903 319.167 230.785 319.196 230.667 319.184C215.758 317.691 200.521 322.803 187.76 333.584C173.95 345.209 165.037 362.223 163.876 379.05C161.661 411.263 183.678 443.986 216.181 456.757C216.278 456.794 216.362 456.86 216.419 456.947C216.477 457.033 216.506 457.136 216.503 457.24C216.497 457.343 216.459 457.441 216.395 457.523C216.331 457.604 216.244 457.664 216.146 457.695C206.163 460.753 197.075 469.021 191.198 480.533C185.107 492.463 183.63 505.774 187.215 516.15C195.214 539.115 208.248 553.053 228.175 560.045C235.952 556.512 378.205 521.819 396.812 517.272C396.789 515.76 397.704 510.953 407.724 502.279C415.72 495.364 420.729 483.759 420.466 472.74C420.28 464.339 417.036 457.247 411.344 452.739C411.253 452.672 411.188 452.575 411.161 452.466C411.135 452.356 411.147 452.241 411.197 452.14C411.244 452.037 411.325 451.954 411.425 451.902C411.525 451.85 411.64 451.833 411.751 451.854C418.812 453.325 426.152 452.642 432.82 449.892C439.488 447.143 445.176 442.453 449.147 436.433C453.118 430.412 455.19 423.337 455.093 416.125C454.995 408.914 452.734 401.897 448.602 395.986C448.538 395.898 448.505 395.791 448.508 395.682C448.511 395.573 448.551 395.468 448.621 395.384C448.689 395.297 448.784 395.236 448.892 395.21C448.999 395.185 449.111 395.196 449.212 395.242C468.491 403.893 494.692 396.258 510.161 377.501C522.78 362.185 529.565 339.931 529.696 313.222C529.84 281.779 521.283 250.109 504.93 221.637C488.577 193.164 465.51 169.8 438.318 154.072C438.26 154.04 438.209 153.998 438.168 153.946C438.127 153.895 438.097 153.835 438.079 153.772C438.062 153.709 438.057 153.642 438.065 153.577C438.074 153.512 438.096 153.449 438.129 153.392C438.162 153.335 438.206 153.285 438.258 153.245C438.311 153.206 438.37 153.176 438.434 153.16C438.498 153.143 438.564 153.139 438.629 153.148C438.694 153.157 438.757 153.178 438.814 153.211C466.2 169.015 489.364 192.507 505.803 221.126C522.243 249.745 530.855 281.606 530.705 313.222C530.577 340.169 523.74 362.614 510.938 378.125C495.594 396.726 469.85 404.56 450.344 396.794C454.14 402.799 456.126 409.769 456.067 416.872C456.008 423.975 453.905 430.911 450.011 436.851C446.116 442.792 440.593 447.485 434.102 450.372C427.612 453.258 420.428 454.215 413.408 453.128C418.462 457.834 421.315 464.683 421.495 472.678C421.748 484.005 416.581 495.932 408.412 503.058C396.981 512.95 397.855 517.501 397.869 517.54C397.885 517.64 397.873 517.742 397.832 517.835C397.792 517.928 397.726 518.008 397.642 518.064Z" fill="#000207"/>
<path d="M281.077 164.948C266.833 149.003 258.851 128.437 258.609 107.058C258.471 88.1405 265.255 68.3884 280.148 56.6764C295.042 44.9644 318.544 43.8217 332.138 56.9779" fill="#F3BEDA"/>
<path d="M281.355 165.363C281.255 165.428 281.134 165.456 281.016 165.44C280.897 165.424 280.788 165.366 280.709 165.277C266.377 149.234 258.342 128.544 258.088 107.033C257.957 86.0905 266.078 67.1168 279.838 56.282C295.746 43.7484 319.363 43.9119 332.485 56.6136C332.533 56.6589 332.571 56.7133 332.598 56.7736C332.625 56.8339 332.64 56.899 332.641 56.965C332.643 57.031 332.632 57.0967 332.608 57.1582C332.584 57.2198 332.548 57.276 332.502 57.3236C332.408 57.4187 332.28 57.4729 332.146 57.4746C332.012 57.4762 331.883 57.4251 331.786 57.3324C319.009 44.9661 295.98 44.8549 280.46 57.0693C266.941 67.7069 258.956 86.3977 259.148 107.035C259.4 128.288 267.335 148.732 281.487 164.589C281.575 164.689 281.62 164.82 281.612 164.954C281.605 165.087 281.545 165.212 281.446 165.302L281.355 165.363Z" fill="#000207"/>
<path d="M256.849 308.024C252.016 304.229 248.511 299 246.836 293.088C245.162 287.176 245.404 280.885 247.529 275.12C252 263.718 264.592 256.104 276.768 257.412" fill="#F3BEDA"/>
<path d="M257.127 308.443C257.041 308.499 256.94 308.527 256.838 308.525C256.735 308.523 256.636 308.489 256.553 308.43C251.63 304.571 248.059 299.25 246.353 293.233C244.647 287.215 244.895 280.811 247.06 274.944C251.628 263.344 264.428 255.592 276.818 256.914C276.95 256.928 277.071 256.994 277.155 257.097C277.238 257.2 277.278 257.332 277.264 257.464C277.257 257.53 277.237 257.593 277.206 257.651C277.174 257.709 277.132 257.76 277.081 257.801C276.978 257.885 276.846 257.924 276.714 257.91C270.693 257.289 264.634 258.657 259.464 261.805C254.294 264.952 250.297 269.706 248.083 275.339C245.869 280.972 245.56 287.176 247.205 293.001C248.849 298.826 252.355 303.953 257.187 307.597C257.294 307.676 257.365 307.794 257.385 307.925C257.405 308.056 257.372 308.189 257.293 308.296C257.249 308.357 257.192 308.407 257.127 308.443Z" fill="#000207"/>
<path d="M211.514 480.685C210.721 461.795 223.502 443.173 241.414 437.045C259.327 430.917 280.743 437.888 291.679 453.312" fill="#F3BEDA"/>
<path d="M291.957 453.73C291.85 453.802 291.719 453.829 291.591 453.807C291.464 453.784 291.351 453.713 291.275 453.609C280.519 438.437 259.134 431.529 241.529 437.524C223.924 443.519 211.243 462.075 212.005 480.648C212.008 480.714 211.998 480.78 211.975 480.842C211.953 480.904 211.918 480.961 211.874 481.01C211.829 481.058 211.776 481.098 211.716 481.126C211.656 481.154 211.592 481.17 211.526 481.173C211.46 481.176 211.394 481.166 211.332 481.143C211.27 481.121 211.213 481.086 211.164 481.042C211.115 480.997 211.076 480.943 211.048 480.884C211.02 480.824 211.004 480.759 211.001 480.693C210.217 461.69 223.202 442.726 241.206 436.573C259.21 430.42 281.082 437.496 292.079 453.012C292.117 453.064 292.145 453.124 292.159 453.188C292.174 453.251 292.177 453.317 292.166 453.381C292.155 453.446 292.131 453.507 292.097 453.562C292.062 453.617 292.016 453.665 291.963 453.702L291.957 453.73Z" fill="#000207"/>
<path d="M328.455 502.574C309.218 478.696 310.808 440.612 331.951 418.415C353.094 396.217 391.067 392.796 415.866 410.831" fill="#F3BEDA"/>
<path d="M328.733 502.986C328.628 503.056 328.501 503.084 328.377 503.065C328.252 503.045 328.14 502.98 328.062 502.881C318.687 491.236 313.895 475.955 314.56 459.843C315.225 443.731 321.289 428.897 331.588 418.065C341.886 407.232 356.426 400.483 372.489 399.04C388.552 397.597 404.056 401.639 416.163 410.425C416.265 410.505 416.333 410.622 416.35 410.751C416.368 410.88 416.335 411.011 416.257 411.115C416.18 411.22 416.065 411.291 415.937 411.312C415.808 411.333 415.677 411.304 415.57 411.229C403.682 402.573 388.428 398.582 372.603 400.022C356.779 401.461 342.491 408.103 332.34 418.741C322.188 429.379 316.241 443.991 315.586 459.867C314.932 475.743 319.658 490.817 328.868 502.234C328.909 502.286 328.94 502.345 328.958 502.408C328.976 502.472 328.981 502.538 328.973 502.604C328.966 502.669 328.945 502.732 328.913 502.79C328.881 502.847 328.837 502.898 328.786 502.939L328.733 502.986Z" fill="#000207"/>
<path d="M276.041 412.713C294.413 412.747 312.091 399.873 317.689 382.38C323.287 364.886 316.383 344.137 301.402 333.495" fill="#F3BEDA"/>
<path d="M300.421 405.641C293.214 410.528 284.719 413.166 276.011 413.222C275.879 413.222 275.753 413.17 275.659 413.077C275.566 412.984 275.513 412.858 275.512 412.726C275.513 412.592 275.566 412.465 275.661 412.37C275.755 412.276 275.883 412.222 276.016 412.221C294.293 412.258 311.608 399.651 317.19 382.24C322.771 364.83 316.053 344.522 301.094 333.912C301.04 333.875 300.993 333.826 300.958 333.77C300.923 333.714 300.899 333.652 300.887 333.587C300.876 333.521 300.878 333.455 300.893 333.39C300.908 333.326 300.936 333.265 300.974 333.211C301.051 333.104 301.168 333.033 301.297 333.011C301.427 332.99 301.56 333.021 301.667 333.097C316.921 343.93 323.845 364.727 318.138 382.545C314.994 392.015 308.753 400.151 300.421 405.641Z" fill="#000207"/>
<path d="M380.178 397.789C380.533 389.873 382.715 382.147 386.554 375.216C390.392 368.284 395.783 362.335 402.304 357.835C408.825 353.334 416.299 350.404 424.141 349.273C431.984 348.142 439.981 348.842 447.508 351.318" fill="#F3BEDA"/>
<path d="M380.456 398.21C380.369 398.27 380.264 398.297 380.159 398.288C380.093 398.285 380.029 398.27 379.969 398.242C379.909 398.214 379.855 398.175 379.811 398.127C379.766 398.079 379.732 398.022 379.709 397.96C379.686 397.898 379.676 397.832 379.679 397.767C380.042 389.779 382.247 381.984 386.123 374.991C389.998 367.998 395.439 361.996 402.02 357.454C408.6 352.913 416.142 349.955 424.055 348.812C431.968 347.669 440.039 348.372 447.635 350.866C447.751 350.914 447.844 351.004 447.897 351.118C447.949 351.231 447.957 351.361 447.919 351.48C447.88 351.599 447.799 351.7 447.69 351.762C447.581 351.824 447.453 351.842 447.331 351.814C439.878 349.363 431.959 348.669 424.193 349.788C416.428 350.907 409.027 353.808 402.569 358.264C396.112 362.72 390.773 368.61 386.971 375.473C383.169 382.336 381.008 389.986 380.655 397.824C380.654 397.899 380.635 397.973 380.601 398.04C380.566 398.107 380.516 398.165 380.456 398.21Z" fill="#000207"/>
<path d="M319.327 368.59C331.225 364.421 342.572 358.167 351.372 349.142C360.171 340.116 366.259 328.127 366.849 315.541C367.439 302.954 362.063 289.878 351.865 282.475" fill="#F3BEDA"/>
<path d="M340.423 358.816C333.901 363.095 326.866 366.536 319.484 369.057C319.421 369.079 319.353 369.089 319.286 369.086C319.218 369.083 319.152 369.066 319.09 369.037C319.029 369.008 318.974 368.968 318.929 368.918C318.883 368.867 318.848 368.809 318.826 368.745C318.803 368.681 318.793 368.614 318.796 368.546C318.799 368.479 318.816 368.412 318.845 368.351C318.874 368.29 318.914 368.235 318.965 368.19C319.015 368.144 319.073 368.109 319.137 368.086C332.25 363.503 342.981 356.975 350.991 348.766C360.192 339.315 365.781 327.191 366.333 315.484C366.945 302.426 361.283 289.913 351.557 282.856C351.451 282.774 351.381 282.656 351.36 282.524C351.34 282.393 351.37 282.258 351.446 282.148C351.524 282.042 351.642 281.971 351.773 281.951C351.904 281.931 352.038 281.964 352.144 282.043C362.14 289.305 367.962 302.131 367.306 315.555C366.751 327.493 361.05 339.861 351.685 349.481C348.267 352.978 344.493 356.106 340.423 358.816Z" fill="#000207"/>
<path d="M262.414 259.362C259.637 246.847 266.869 232.844 278.667 227.877C285.238 225.113 292.582 224.983 299.715 224.897" fill="#F3BEDA"/>
<path d="M262.692 259.78C262.648 259.821 262.597 259.854 262.542 259.88C262.478 259.895 262.411 259.897 262.346 259.886C262.28 259.875 262.218 259.851 262.162 259.816C262.106 259.78 262.058 259.734 262.019 259.68C261.981 259.626 261.954 259.565 261.94 259.5C259.133 246.849 266.564 232.461 278.511 227.429C285.271 224.587 292.954 224.496 299.74 224.413C299.81 224.407 299.88 224.415 299.946 224.436C300.012 224.458 300.072 224.494 300.124 224.54C300.176 224.587 300.217 224.644 300.245 224.707C300.273 224.771 300.288 224.84 300.288 224.909C300.289 224.979 300.274 225.048 300.247 225.111C300.219 225.175 300.178 225.232 300.127 225.279C300.075 225.326 300.015 225.362 299.949 225.385C299.883 225.407 299.813 225.415 299.744 225.409C293.065 225.491 285.444 225.602 278.873 228.367C267.358 233.217 260.187 247.095 262.889 259.3C262.905 259.39 262.896 259.483 262.861 259.568C262.826 259.654 262.767 259.727 262.692 259.78Z" fill="#000207"/>
<path d="M294.228 187.63C289.346 184.176 285.514 179.44 283.155 173.945C280.963 168.41 280.842 161.926 283.573 156.652C286.304 151.377 292.084 147.59 298.022 147.966" fill="#F3BEDA"/>
<path d="M294.498 188.048C294.412 188.105 294.311 188.135 294.208 188.132C294.106 188.13 294.006 188.096 293.924 188.035C288.973 184.516 285.086 179.703 282.687 174.123C281.513 171.306 280.946 168.273 281.022 165.222C281.098 162.172 281.816 159.171 283.129 156.416C286.048 150.776 292.183 147.088 298.049 147.464C298.183 147.472 298.307 147.533 298.395 147.633C298.483 147.733 298.528 147.864 298.52 147.998C298.512 148.131 298.451 148.255 298.351 148.343C298.251 148.432 298.12 148.476 297.986 148.468C292.497 148.117 286.753 151.58 284.011 156.873C281.499 161.737 281.359 168.047 283.618 173.753C285.941 179.164 289.716 183.827 294.525 187.225C294.63 187.306 294.698 187.426 294.717 187.557C294.735 187.689 294.701 187.822 294.622 187.929C294.589 187.976 294.546 188.017 294.498 188.048Z" fill="#000207"/>
<path d="M237.992 206.141C236.127 203.864 234.819 201.184 234.17 198.313C233.522 195.443 233.551 192.46 234.256 189.603C234.962 186.745 236.323 184.092 238.232 181.852C240.142 179.613 242.547 177.849 245.257 176.701" fill="#F3BEDA"/>
<path d="M238.253 206.532C238.147 206.598 238.021 206.624 237.898 206.605C237.775 206.585 237.663 206.523 237.582 206.427C235.664 204.09 234.318 201.337 233.651 198.387C232.985 195.438 233.015 192.374 233.74 189.438C234.465 186.503 235.864 183.777 237.828 181.477C239.791 179.177 242.263 177.367 245.049 176.191C245.173 176.138 245.313 176.137 245.438 176.188C245.563 176.238 245.663 176.337 245.716 176.461C245.769 176.585 245.77 176.725 245.719 176.85C245.669 176.976 245.57 177.075 245.446 177.128C242.806 178.244 240.463 179.96 238.602 182.141C236.742 184.321 235.415 186.905 234.729 189.688C234.042 192.47 234.013 195.375 234.646 198.171C235.278 200.966 236.554 203.576 238.372 205.792C238.414 205.842 238.445 205.9 238.464 205.963C238.483 206.026 238.489 206.092 238.482 206.157C238.475 206.222 238.455 206.285 238.424 206.343C238.392 206.4 238.349 206.45 238.297 206.491L238.253 206.532Z" fill="#000207"/>
<path d="M225.584 332.062C225.003 329.603 225.186 327.026 226.109 324.674C227.032 322.322 228.65 320.308 230.748 318.901C232.846 317.494 235.324 316.76 237.85 316.798C240.376 316.837 242.83 317.645 244.884 319.115" fill="#F3BEDA"/>
<path d="M225.862 332.481L225.712 332.581C225.648 332.596 225.581 332.598 225.515 332.587C225.45 332.576 225.388 332.552 225.332 332.517C225.276 332.482 225.227 332.436 225.189 332.381C225.151 332.327 225.124 332.266 225.11 332.201C224.56 329.644 224.777 326.982 225.733 324.547C226.689 322.112 228.341 320.013 230.484 318.513C232.686 317.108 235.252 316.38 237.864 316.421C240.476 316.463 243.018 317.27 245.175 318.744C245.282 318.822 245.355 318.939 245.377 319.07C245.4 319.201 245.37 319.336 245.295 319.445C245.215 319.551 245.098 319.622 244.968 319.644C244.837 319.666 244.703 319.638 244.593 319.565C242.605 318.202 240.259 317.454 237.849 317.415C235.439 317.376 233.07 318.047 231.039 319.345C229.064 320.729 227.54 322.665 226.659 324.911C225.779 327.157 225.579 329.612 226.086 331.97C226.101 332.068 226.088 332.168 226.048 332.258C226.008 332.349 225.944 332.426 225.862 332.481Z" fill="#000207"/>
<path d="M366.994 317.054C372.259 318.177 377.721 317.954 382.877 316.405C388.032 314.856 392.713 312.032 396.487 308.193C400.261 304.355 403.006 299.626 404.467 294.445C405.928 289.264 406.059 283.798 404.847 278.554" fill="#F3BEDA"/>
<path d="M391.983 312.604C388.332 315.04 384.235 316.73 379.929 317.577C375.622 318.424 371.19 318.411 366.889 317.539C366.824 317.526 366.762 317.501 366.707 317.464C366.653 317.428 366.605 317.381 366.569 317.326C366.532 317.271 366.507 317.209 366.494 317.144C366.481 317.08 366.481 317.013 366.495 316.948C366.522 316.819 366.6 316.705 366.71 316.632C366.82 316.558 366.955 316.53 367.085 316.554C372.265 317.667 377.642 317.454 382.717 315.934C387.792 314.415 392.401 311.637 396.116 307.86C399.831 304.083 402.532 299.428 403.968 294.329C405.403 289.229 405.528 283.849 404.329 278.689C404.298 278.558 404.32 278.421 404.39 278.307C404.46 278.193 404.572 278.111 404.702 278.078C404.832 278.053 404.967 278.078 405.079 278.149C405.191 278.219 405.271 278.33 405.305 278.458C406.481 283.788 406.324 289.326 404.847 294.581C403.37 299.836 400.618 304.645 396.836 308.581C395.359 310.083 393.733 311.43 391.983 312.604Z" fill="#000207"/>
<path d="M317.981 352.613C320.072 351.114 321.751 349.11 322.861 346.789C323.971 344.467 324.476 341.903 324.33 339.334C324.183 336.765 323.39 334.275 322.024 332.094C320.658 329.914 318.763 328.114 316.515 326.862" fill="#F3BEDA"/>
<path d="M318.259 353.027C318.149 353.101 318.014 353.127 317.884 353.101C317.754 353.075 317.639 352.999 317.566 352.889C317.492 352.778 317.465 352.643 317.491 352.513C317.517 352.383 317.594 352.269 317.704 352.195C319.726 350.745 321.349 348.807 322.422 346.562C323.495 344.317 323.984 341.837 323.843 339.353C323.701 336.868 322.934 334.46 321.613 332.351C320.292 330.242 318.459 328.501 316.286 327.29C316.169 327.226 316.083 327.118 316.047 326.99C316.01 326.863 316.025 326.726 316.09 326.609C316.154 326.493 316.262 326.407 316.389 326.37C316.517 326.334 316.654 326.349 316.77 326.413C319.1 327.702 321.066 329.56 322.484 331.813C323.902 334.066 324.727 336.642 324.881 339.3C325.035 341.958 324.514 344.612 323.366 347.014C322.218 349.416 320.48 351.489 318.315 353.038L318.259 353.027Z" fill="#000207"/>
<path d="M325.079 424.603C323.453 421.688 322.635 418.392 322.711 415.054C322.787 411.717 323.754 408.461 325.511 405.623C327.269 402.785 329.753 400.469 332.707 398.914C335.661 397.36 338.977 396.623 342.311 396.781" fill="#F3BEDA"/>
<path d="M325.358 425.016C325.241 425.078 325.105 425.093 324.977 425.057C324.85 425.021 324.742 424.936 324.675 424.822C323.005 421.829 322.165 418.443 322.243 415.017C322.321 411.59 323.314 408.246 325.119 405.332C326.924 402.418 329.476 400.04 332.51 398.445C335.543 396.849 338.948 396.093 342.372 396.256C342.438 396.26 342.502 396.276 342.561 396.305C342.62 396.333 342.673 396.373 342.717 396.422C342.761 396.471 342.795 396.528 342.816 396.59C342.838 396.652 342.848 396.717 342.844 396.783C342.842 396.848 342.827 396.912 342.8 396.971C342.773 397.031 342.734 397.084 342.685 397.127C342.637 397.171 342.58 397.204 342.518 397.225C342.456 397.246 342.391 397.254 342.326 397.249C339.079 397.095 335.85 397.813 332.974 399.326C330.098 400.84 327.679 403.095 325.967 405.858C324.255 408.621 323.313 411.791 323.239 415.041C323.164 418.29 323.96 421.5 325.543 424.339C325.607 424.453 325.624 424.588 325.589 424.715C325.554 424.842 325.471 424.95 325.358 425.016Z" fill="#000207"/>
<path d="M216.327 458.235C214.347 456.255 213.042 453.7 212.6 450.934C212.157 448.169 212.599 445.334 213.861 442.835C215.124 440.335 217.144 438.298 219.633 437.013C222.121 435.729 224.952 435.263 227.721 435.681" fill="#F3BEDA"/>
<path d="M216.604 458.651C216.506 458.713 216.39 458.741 216.274 458.728C216.159 458.716 216.051 458.664 215.969 458.582C213.922 456.526 212.575 453.878 212.12 451.013C211.664 448.148 212.123 445.213 213.43 442.623C214.738 440.034 216.829 437.923 219.405 436.589C221.981 435.256 224.912 434.768 227.781 435.196C227.845 435.208 227.906 435.233 227.961 435.268C228.015 435.304 228.062 435.351 228.098 435.405C228.134 435.459 228.159 435.52 228.172 435.584C228.184 435.648 228.183 435.714 228.17 435.778C228.157 435.843 228.132 435.904 228.096 435.959C228.059 436.014 228.012 436.061 227.957 436.098C227.902 436.135 227.84 436.16 227.776 436.173C227.711 436.186 227.644 436.185 227.58 436.172C224.912 435.771 222.187 436.222 219.791 437.462C217.396 438.702 215.453 440.667 214.241 443.076C213.028 445.485 212.608 448.216 213.04 450.879C213.472 453.541 214.733 455.999 216.645 457.902C216.692 457.948 216.729 458.003 216.754 458.064C216.78 458.124 216.793 458.189 216.793 458.255C216.794 458.321 216.781 458.386 216.756 458.446C216.731 458.507 216.695 458.563 216.649 458.609L216.604 458.651Z" fill="#000207"/>
<path d="M263.34 134.471C260.37 134.421 257.45 133.7 254.798 132.361C252.147 131.021 249.833 129.099 248.031 126.737C246.229 124.376 244.985 121.637 244.392 118.726C243.8 115.815 243.874 112.808 244.61 109.93" fill="#F3BEDA"/>
<path d="M263.59 134.85C263.504 134.907 263.403 134.937 263.299 134.936C260.26 134.855 257.276 134.102 254.563 132.731C251.849 131.36 249.472 129.405 247.604 127.007C245.786 124.566 244.531 121.753 243.93 118.769C243.329 115.786 243.397 112.707 244.128 109.752C244.14 109.688 244.166 109.626 244.202 109.571C244.239 109.516 244.286 109.469 244.341 109.432C244.396 109.396 244.457 109.37 244.522 109.357C244.587 109.345 244.653 109.345 244.718 109.358C244.783 109.371 244.845 109.396 244.899 109.433C244.954 109.469 245.002 109.516 245.038 109.571C245.075 109.626 245.1 109.688 245.113 109.752C245.126 109.817 245.126 109.884 245.112 109.949C244.409 112.765 244.34 115.703 244.91 118.55C245.479 121.396 246.674 124.081 248.408 126.41C250.184 128.689 252.443 130.546 255.021 131.849C257.6 133.152 260.435 133.868 263.324 133.946C263.429 133.948 263.532 133.984 263.616 134.048C263.7 134.112 263.762 134.201 263.792 134.303C263.823 134.404 263.82 134.513 263.785 134.612C263.749 134.712 263.683 134.798 263.596 134.858L263.59 134.85Z" fill="#000207"/>
<path d="M349.704 259.153C357.191 255.958 364.224 251.31 369.347 244.955C374.471 238.6 377.538 230.408 376.845 222.274C376.151 214.14 371.4 206.25 364.073 202.677" fill="#F3BEDA"/>
<path d="M359.597 254.416C356.532 256.444 353.287 258.185 349.901 259.615C349.78 259.666 349.643 259.668 349.52 259.619C349.398 259.571 349.299 259.475 349.247 259.354C349.196 259.231 349.196 259.093 349.246 258.969C349.297 258.846 349.393 258.747 349.515 258.694C357.745 255.171 364.289 250.441 368.981 244.627C374.312 237.989 377.014 229.861 376.37 222.306C375.649 214.022 370.765 206.473 363.87 203.117C363.811 203.089 363.758 203.049 363.714 203C363.67 202.951 363.637 202.894 363.616 202.832C363.594 202.77 363.586 202.704 363.59 202.639C363.595 202.574 363.613 202.51 363.642 202.451C363.702 202.332 363.806 202.241 363.932 202.197C364.058 202.154 364.196 202.161 364.316 202.218C371.48 205.743 376.639 213.578 377.374 222.225C378.026 230.026 375.25 238.421 369.758 245.25C366.86 248.807 363.433 251.898 359.597 254.416Z" fill="#000207"/>
<path d="M343.221 221.24C351.004 217.967 356.484 210.076 357.371 201.68C357.724 197.461 357.112 193.218 355.581 189.271C354.05 185.325 351.641 181.778 348.535 178.902C342.193 173.18 333.88 170.141 325.343 170.423" fill="#F3BEDA"/>
<path d="M347.02 219.764C345.881 220.524 344.672 221.174 343.41 221.705C343.286 221.758 343.146 221.759 343.02 221.708C342.895 221.657 342.795 221.559 342.743 221.435C342.69 221.311 342.689 221.171 342.739 221.045C342.79 220.92 342.888 220.82 343.013 220.768C350.418 217.651 355.982 209.956 356.858 201.615C357.208 197.476 356.614 193.31 355.121 189.434C353.628 185.557 351.275 182.069 348.239 179.234C341.998 173.589 333.803 170.598 325.393 170.896C325.326 170.901 325.258 170.892 325.193 170.869C325.129 170.847 325.07 170.812 325.02 170.766C324.97 170.72 324.93 170.664 324.902 170.603C324.874 170.541 324.859 170.474 324.858 170.406C324.857 170.338 324.87 170.271 324.895 170.208C324.921 170.145 324.959 170.088 325.008 170.04C325.056 169.993 325.114 169.956 325.177 169.931C325.24 169.907 325.308 169.895 325.376 169.898C334.044 169.592 342.49 172.679 348.918 178.504C352.073 181.44 354.522 185.054 356.079 189.073C357.636 193.093 358.261 197.413 357.907 201.709C357.499 205.325 356.315 208.81 354.436 211.926C352.557 215.042 350.027 217.715 347.02 219.764Z" fill="#000207"/>
<path d="M226.149 542.711C222.397 535.2 222.64 525.983 226.018 518.329C229.617 510.661 235.698 504.432 243.276 500.649C248.965 497.717 255.501 496.034 261.803 497.153C268.106 498.272 274.038 502.547 276.02 508.631" fill="#F3BEDA"/>
<path d="M226.427 543.127L226.377 543.16C226.318 543.19 226.254 543.208 226.188 543.213C226.123 543.218 226.057 543.21 225.994 543.189C225.932 543.167 225.874 543.134 225.825 543.09C225.776 543.046 225.736 542.993 225.708 542.933C221.981 535.55 221.963 526.267 225.566 518.138C229.199 510.359 235.363 504.043 243.051 500.223C247.584 497.881 254.524 495.364 261.9 496.667C268.829 497.897 274.568 502.53 276.505 508.475C276.527 508.539 276.536 508.608 276.531 508.675C276.527 508.743 276.509 508.81 276.479 508.87C276.448 508.931 276.406 508.986 276.355 509.031C276.304 509.075 276.244 509.109 276.18 509.131C276.116 509.153 276.047 509.162 275.98 509.157C275.912 509.152 275.845 509.135 275.784 509.104C275.724 509.074 275.669 509.032 275.624 508.981C275.58 508.93 275.546 508.87 275.524 508.806C273.706 503.202 268.275 498.832 261.701 497.666C254.592 496.401 247.873 498.855 243.484 501.124C235.997 504.838 229.995 510.987 226.462 518.562C224.733 522.323 223.849 526.418 223.871 530.557C223.893 534.697 224.821 538.782 226.59 542.525C226.633 542.629 226.641 542.745 226.611 542.853C226.581 542.962 226.517 543.058 226.427 543.127Z" fill="#000207"/>
<path d="M315.577 470.263C312.349 468.158 308.576 467.04 304.722 467.046C300.868 467.053 297.099 468.183 293.878 470.3C290.656 472.416 288.122 475.426 286.586 478.961C285.05 482.496 284.579 486.402 285.23 490.201" fill="#F3BEDA"/>
<path d="M315.854 470.683C315.772 470.738 315.675 470.766 315.576 470.766C315.477 470.765 315.381 470.736 315.299 470.681C312.129 468.69 308.461 467.637 304.718 467.642C300.975 467.648 297.31 468.712 294.146 470.712L294.013 470.801C290.952 472.919 288.55 475.854 287.079 479.273C285.609 482.692 285.13 486.455 285.698 490.133C285.716 490.263 285.684 490.395 285.608 490.502C285.532 490.61 285.417 490.683 285.288 490.707C285.223 490.719 285.156 490.718 285.092 490.704C285.027 490.69 284.966 490.664 284.912 490.626C284.858 490.589 284.812 490.541 284.776 490.485C284.741 490.43 284.716 490.368 284.705 490.303C284.11 486.434 284.615 482.476 286.163 478.88C287.711 475.285 290.238 472.197 293.457 469.97L293.574 469.892C296.902 467.788 300.757 466.668 304.694 466.663C308.631 466.658 312.489 467.767 315.823 469.862C315.878 469.898 315.926 469.945 315.964 470C316.001 470.055 316.027 470.117 316.04 470.182C316.054 470.247 316.054 470.314 316.041 470.379C316.028 470.444 316.002 470.506 315.965 470.561C315.936 470.608 315.898 470.65 315.854 470.683Z" fill="#000207"/>
<g style="mix-blend-mode:multiply">
<g style="mix-blend-mode:multiply">
<path d="M326.409 499.814C341.63 495.67 355.738 488.194 367.713 477.925C379.688 467.656 389.23 454.853 395.646 440.443C398.789 433.246 401.147 425.395 400.123 417.614C399.1 409.832 393.986 402.172 386.404 400.128C401.53 398.506 416.701 391.658 425.329 379.188C433.957 366.718 434.532 348.093 424.187 336.94C413.842 325.787 392.709 326.226 384.855 339.262C385.594 333.021 377.489 328.753 371.528 330.737C365.566 332.722 361.726 338.388 358.565 343.829C355.405 349.27 352.175 355.13 346.616 358.06C358.039 347.708 365.099 333.4 366.366 318.035C371.3 320.149 376.8 320.547 381.988 319.166C387.175 317.785 391.75 314.705 394.98 310.418C398.211 306.131 399.911 300.885 399.809 295.518C399.707 290.151 397.809 284.973 394.418 280.812C384.91 268.967 366.833 268.761 352.227 272.91C356.404 269.063 354.474 260.84 349.023 259.25C358.024 256.847 364.399 247.179 363.172 237.958C361.945 228.737 353.239 221.119 343.94 221.112C355.828 202.737 353.124 176.25 337.767 160.651C363.935 149.095 392.068 138.391 420.421 142.174C448.209 145.865 473.011 163.67 488.689 186.917C504.368 210.165 511.535 238.386 512.886 266.378C513.813 285.864 511.927 305.929 503.641 323.593C498.906 333.788 491.876 342.749 483.103 349.776C474.557 356.48 469.685 366.634 468.5 377.43C468.237 380.011 467.349 382.489 465.915 384.651C465.008 385.983 463.899 387.166 462.628 388.156C454.886 394.227 451.615 404.239 453.05 413.97C454.011 420.025 452.95 426.227 450.031 431.618C442.29 446.406 417.789 458.568 404.436 448.582C419.644 457.402 421.399 480.615 411.197 494.942C400.995 509.269 382.692 515.694 365.145 516.949C349.975 518.036 338.039 515.809 329.534 503.234" fill="#F3BEDA"/>
</g>
</g>
<g style="mix-blend-mode:multiply">
<g style="mix-blend-mode:multiply">
<path d="M228.406 435.752C225.63 430.966 224.485 425.407 225.144 419.914C225.803 414.42 228.23 409.29 232.059 405.296C236.071 401.482 241.215 399.076 246.714 398.441C252.213 397.806 257.77 398.976 262.546 401.775C264.282 398.368 267.162 395.681 270.68 394.183C274.199 392.686 278.132 392.474 281.791 393.585C285.45 394.696 288.602 397.058 290.694 400.259C292.786 403.459 293.686 407.294 293.236 411.091C296.329 408.795 300.042 407.482 303.891 407.325C307.74 407.167 311.548 408.172 314.818 410.208C318.089 412.245 320.67 415.218 322.228 418.742C323.785 422.266 324.246 426.177 323.55 429.966C319.336 425.024 311.171 425.329 305.79 428.958C300.409 432.586 297.196 438.616 294.466 444.503C271.073 430.843 239.484 432.913 218.07 449.483C219.542 444.127 222.2 439.171 225.848 434.983" fill="#F3BEDA"/>
</g>
</g>
<g style="mix-blend-mode:multiply">
<g style="mix-blend-mode:multiply">
<path d="M245.502 280.226C246.43 275.627 248.518 271.343 251.569 267.78C254.62 264.217 258.533 261.493 262.933 259.87C262.302 254.539 263.045 249.136 265.092 244.174C267.14 239.212 270.423 234.857 274.629 231.523C278.836 228.189 283.826 225.987 289.124 225.126C294.422 224.266 299.852 224.776 304.898 226.608C301.301 218.897 306.299 208.501 314.566 206.493C306.662 202.993 298.383 199.418 289.727 199.907C281.071 200.396 272.095 206.257 271.189 214.858C262.027 213.328 252.698 211.801 243.513 213.136C234.329 214.471 225.152 219.204 220.748 227.375C215.922 236.356 217.828 247.745 222.981 256.545C228.135 265.344 236.095 272.078 243.898 278.651" fill="#F3BEDA"/>
</g>
</g>
<g style="mix-blend-mode:multiply">
<g style="mix-blend-mode:multiply">
<path d="M278.928 165.058C269.123 165.375 259.996 166.203 252.451 159.89C249.753 157.651 247.291 154.918 246.302 151.563C245.312 148.208 246.141 144.119 249.024 142.098C237.566 140.622 228.557 128.697 230.313 117.316C232.069 105.935 244.158 97.1538 255.533 99.1177C249.72 99.1274 244.396 103.705 242.968 109.347C241.541 114.989 243.801 121.236 248.111 125.152C250.323 127.05 252.904 128.469 255.692 129.318C258.48 130.168 261.414 130.43 264.309 130.089C265.919 144.368 271.311 152.949 279.998 164.391" fill="#F3BEDA"/>
</g>
</g>
<g style="mix-blend-mode:multiply">
<g style="mix-blend-mode:multiply">
<path d="M256.213 356.558C254.268 353.713 253.258 350.334 253.322 346.888C253.386 343.443 254.521 340.104 256.57 337.333C258.619 334.563 261.479 332.499 264.754 331.428C268.03 330.357 271.557 330.333 274.847 331.359C273.846 324.295 280.109 317.72 287.092 316.293C294.075 314.865 301.307 317.431 307.481 321.004C304.709 320.933 301.963 321.561 299.498 322.83C297.033 324.1 294.926 325.969 293.373 328.266C291.82 330.563 290.87 333.214 290.611 335.975C290.352 338.735 290.792 341.517 291.89 344.063C289.541 342.551 286.749 341.879 283.969 342.156C281.188 342.434 278.584 343.644 276.58 345.59C274.575 347.537 273.288 350.104 272.929 352.875C272.57 355.646 273.159 358.456 274.601 360.849C272.527 358.713 269.769 357.371 266.807 357.059C263.846 356.747 260.868 357.484 258.394 359.141" fill="#F3BEDA"/>
</g>
</g>
<g style="mix-blend-mode:multiply">
<g style="mix-blend-mode:multiply">
<path d="M204.394 533.862C203.858 527.712 204.858 521.524 207.304 515.855C209.75 510.187 213.565 505.214 218.407 501.383C223.325 497.649 229.094 495.195 235.195 494.243C241.296 493.29 247.538 493.868 253.361 495.925C255.068 490.108 256.836 484.166 260.349 479.235C263.862 474.304 269.445 470.384 275.503 470.56C282.315 470.749 288.151 476.05 290.968 482.25C293.785 488.449 294.133 495.455 294.282 502.269C297.833 495.089 307.513 492.389 315.043 495.13C322.572 497.87 327.913 504.861 330.617 512.386C333.321 519.912 366.484 516.022 366.908 524.023C365.563 523.719 231.753 556.308 227.714 558.236C217.115 552.267 214.894 553.857 205.752 544.739" fill="#F3BEDA"/>
</g>
</g>
<path d="M194.577 431.513C193.862 432.243 189.356 428.916 184.853 423.036C175.175 410.108 170.33 394.199 171.159 378.071C171.608 370.676 173.446 365.397 174.514 365.61C175.582 365.823 175.372 371.145 175.854 378.062C176.757 393.014 181.182 407.541 188.77 420.457C192.238 426.426 195.425 430.695 194.577 431.513Z" fill="#FFD6E5"/>
<path d="M180.387 356.251C179.435 355.744 180.556 352.002 183.59 347.848C186.94 343.392 191.18 339.681 196.039 336.95C200.899 334.218 206.273 332.526 211.821 331.98C216.96 331.555 220.741 332.554 220.676 333.644C220.61 334.734 217.069 335.355 212.629 336.611C203.058 339.177 194.283 344.102 187.106 350.935C183.728 354.069 181.411 356.83 180.387 356.251Z" fill="#FFD6E5"/>
<path d="M212.546 238.938C212.041 239.118 211.275 238.512 210.584 237.206C209.71 235.436 209.204 233.508 209.096 231.538C208.925 228.982 209.188 226.417 209.873 223.949C210.543 221.488 211.565 219.137 212.908 216.969C214.245 214.844 215.835 212.89 217.643 211.149C219.419 209.443 221.385 207.945 223.501 206.685C227.382 204.394 230.671 203.593 231.196 204.577C231.72 205.562 229.273 207.677 226.302 210.466C224.822 211.851 223.214 213.442 221.759 215.099C220.376 216.674 219.119 218.358 218.002 220.132C216.926 221.88 216.022 223.728 215.302 225.651C214.592 227.596 214.082 229.608 213.781 231.656C213.215 235.437 213.663 238.504 212.546 238.938Z" fill="#FFD6E5"/>
<path d="M231.232 181.736C231.096 181.983 230.678 182.022 230.009 181.903C229.09 181.707 228.2 181.392 227.362 180.965C224.508 179.566 221.876 177.754 219.551 175.587C216.496 172.76 213.871 169.502 211.759 165.916C207.456 158.686 205.381 150.347 205.793 141.943C205.981 137.779 206.784 133.665 208.175 129.735C209.196 126.728 210.66 123.889 212.521 121.315C213.064 120.547 213.704 119.853 214.425 119.25C214.957 118.822 215.331 118.645 215.598 118.827C216.594 119.473 214.109 124.27 212.697 131.033C211.905 134.653 211.509 138.348 211.518 142.053C211.523 149.41 213.33 156.655 216.78 163.153C218.508 166.433 220.587 169.516 222.98 172.348C227.379 177.623 231.814 180.698 231.232 181.736Z" fill="#FFD6E5"/>
<path d="M297.616 182.53C297.256 182.963 296.377 182.852 295.173 182.274C293.585 181.461 292.142 180.394 290.899 179.115C289.161 177.408 287.77 175.38 286.804 173.144C285.777 170.767 285.331 168.179 285.504 165.595C285.601 164.293 285.888 163.012 286.355 161.792C286.849 160.526 287.521 159.337 288.35 158.26C289.119 157.278 289.976 156.368 290.91 155.54C291.357 155.146 291.781 154.791 292.224 154.446C292.693 154.098 293.178 153.774 293.68 153.475C294.605 152.875 295.613 152.413 296.671 152.102C297.592 151.827 298.564 151.766 299.511 151.926C300.174 152.013 300.791 152.307 301.276 152.768C301.542 153.167 301.645 153.447 301.529 153.705C301.266 154.229 300.478 154.31 299.669 154.755C298.523 155.381 297.489 156.194 296.608 157.159C296.317 157.461 296.021 157.791 295.722 158.135L294.768 159.265C294.156 160.001 293.594 160.778 293.086 161.59C292.194 162.955 291.661 164.523 291.536 166.148C291.427 167.852 291.642 169.561 292.17 171.185C292.758 172.952 293.565 174.639 294.572 176.206C296.466 179.258 298.362 181.647 297.616 182.53Z" fill="#FFD6E5"/>
<path d="M282.337 150.767C281.641 151.616 279.089 150.531 276.444 148.137C273.615 145.463 271.348 142.252 269.776 138.691C268.204 135.13 267.358 131.292 267.288 127.4C267.285 123.795 268.232 121.214 269.308 121.241C270.384 121.268 271.032 123.698 271.9 126.726C272.783 129.957 273.891 133.122 275.218 136.198C276.591 139.256 278.182 142.212 279.981 145.042C281.702 147.764 283.11 149.854 282.337 150.767Z" fill="#FFD6E5"/>
<path d="M268.507 312.447C267.52 312.914 264.669 308.769 262.875 302.356C261.838 298.802 261.399 295.101 261.575 291.404C261.689 289.407 262.066 287.433 262.694 285.534C263.631 282.709 265.185 280.128 267.244 277.978C269.302 275.828 271.813 274.163 274.595 273.103C276.562 272.387 278.643 272.033 280.737 272.056C282.687 272.088 284.616 272.465 286.435 273.17C289.282 274.214 291.721 276.142 293.392 278.673C294.558 280.6 294.612 281.995 294.132 282.231C293.652 282.467 292.72 281.647 291.244 280.552C289.386 279.157 287.26 278.162 284.999 277.628C283.636 277.319 282.234 277.217 280.841 277.326C279.405 277.451 277.999 277.809 276.679 278.386C274.749 279.261 273.014 280.512 271.574 282.066C270.134 283.62 269.018 285.445 268.292 287.436C267.778 288.875 267.427 290.368 267.247 291.885C266.926 295.042 266.996 298.226 267.456 301.365C268.215 307.436 269.561 311.972 268.507 312.447Z" fill="#FFD6E5"/>
<path d="M295.941 287.33C295.822 287.427 295.681 287.493 295.531 287.522C295.38 287.551 295.225 287.543 295.079 287.497C294.605 287.378 294.166 287.147 293.799 286.824C292.595 285.774 291.713 284.403 291.256 282.871C290.599 280.814 290.487 278.622 290.931 276.509C291.375 274.396 292.359 272.435 293.788 270.816C295.261 269.237 297.116 268.066 299.175 267.417C301.233 266.767 303.425 266.66 305.537 267.108C307.106 267.416 308.557 268.16 309.724 269.254C310.087 269.584 310.363 269.998 310.529 270.46C310.584 270.604 310.605 270.759 310.591 270.912C310.577 271.066 310.527 271.214 310.446 271.345C310.1 271.817 309.384 271.825 308.452 271.798C307.33 271.714 306.203 271.711 305.08 271.79C303.754 271.875 302.452 272.184 301.228 272.702C300.108 273.192 299.098 273.903 298.259 274.793C297.456 275.72 296.843 276.795 296.453 277.958C296.047 279.244 295.86 280.589 295.898 281.936C295.938 283.065 296.059 284.191 296.258 285.303C296.312 286.229 296.379 286.942 295.941 287.33Z" fill="#FFD6E5"/>
<path d="M220.224 428.469C219.952 428.567 219.633 428.395 219.259 427.996C218.761 427.433 218.355 426.795 218.056 426.105C217.031 423.792 216.446 421.309 216.329 418.782C216.133 415.466 216.527 412.141 217.492 408.963C218.455 405.748 219.975 402.727 221.982 400.037C224.012 397.308 226.57 395.015 229.504 393.295C232.559 391.49 236.08 390.629 239.623 390.819C242.333 390.952 244.932 391.934 247.052 393.626C248.587 394.934 248.993 396.154 248.616 396.526C248.239 396.898 247.196 396.525 245.651 396.101C243.691 395.534 241.642 395.336 239.61 395.518C237.047 395.798 234.593 396.706 232.464 398.16C230.26 399.661 228.324 401.523 226.738 403.667C225.11 405.84 223.802 408.236 222.855 410.781C221.897 413.376 221.28 416.083 221.019 418.837C220.451 424.037 221.336 428.064 220.224 428.469Z" fill="#FFD6E5"/>
<path d="M325.715 478.659C325.454 478.773 325.057 478.485 324.549 477.85C323.853 476.949 323.261 475.973 322.786 474.939C321.16 471.427 320.038 467.703 319.453 463.878C318.626 458.884 318.534 453.796 319.181 448.776C320.424 438.626 324.656 429.074 331.34 421.335C334.62 417.467 338.448 414.1 342.704 411.342C345.939 409.224 349.457 407.576 353.154 406.445C354.241 406.104 355.363 405.887 356.499 405.799C357.308 405.752 357.752 405.876 357.886 406.076C358.264 407.218 352.1 409.746 345.442 415.118C341.844 417.983 338.589 421.253 335.741 424.865C330.058 432.017 326.296 440.502 324.809 449.515C324.047 454.04 323.808 458.638 324.098 463.217C324.559 471.903 326.829 478.167 325.715 478.659Z" fill="#FFD6E5"/>
<path d="M387.987 391.463C386.919 391.25 386.648 388.558 387.558 385.148C388.614 381.481 390.422 378.075 392.868 375.146C395.314 372.217 398.343 369.83 401.763 368.137C404.96 366.639 407.65 366.418 408.064 367.453C408.478 368.487 406.585 370.064 404.306 372.09C401.858 374.217 399.573 376.527 397.472 378.998C395.409 381.501 393.541 384.158 391.886 386.948C390.293 389.551 389.099 391.706 387.987 391.463Z" fill="#FFD6E5"/>
</svg>
