<svg width="320" height="265" viewBox="0 0 320 265" fill="none" xmlns="http://www.w3.org/2000/svg">
<path d="M0 142H121L320 170.654V235H0V142Z" fill="#AD94FF"/>
<path d="M303.991 178.116C273.649 185.644 245.022 183.495 216.466 170.849C198.272 162.755 182.004 150.997 163.881 142.827C136.212 130.369 105.481 126.827 75.3411 123.411C80.6924 123.223 84.6221 118.093 86.3526 113.041C88.0072 107.919 88.2535 102.405 90.3556 97.4871C93.4041 90.2602 100.557 84.944 108.38 84.0814C104.8 90.8132 103.997 99.2822 110.383 103.461C116.769 107.64 134.961 109.422 142.545 110.109C182.974 113.897 217.878 117.146 258.233 120.936C261.105 121.202 264.05 121.465 266.592 122.77C269.133 124.075 271.349 126.566 271.303 129.43C271.281 132.954 268.148 135.707 264.898 137.216C259.842 139.522 254.129 139.87 248.584 140.799C243.038 141.729 237.304 143.545 233.785 147.853C230.267 152.16 227.733 161.498 233.207 162.699C254.5 167.088 276.294 158.614 295.694 148.829C315.166 139.043 331.2 131.652 352.391 126.869C367.464 123.476 384.392 124.789 403.465 134.907C415.732 141.448 437.845 160.78 451.58 163.159C465.462 165.533 470.738 165.274 484.784 163.972C498.831 162.67 523.373 136.337 531.186 143.548C501.255 148.125 475.655 175.67 445.744 170.41C428.537 167.42 411.949 161.178 394.685 158.629C364.873 154.101 333.682 158.355 308.347 174.66" fill="#081B6A"/>
<path d="M303.991 178.116C273.649 185.644 245.022 183.495 216.466 170.849C198.272 162.755 182.004 150.997 163.881 142.827C136.212 130.369 105.481 126.827 75.3411 123.411C80.6924 123.223 84.6221 118.093 86.3526 113.041C88.0072 107.919 88.2534 102.405 90.3556 97.4871C93.4041 90.2602 100.557 84.944 108.38 84.0814C104.8 90.8132 103.997 99.2822 110.383 103.461C116.769 107.64 134.961 109.422 142.545 110.109C182.973 113.897 217.878 117.146 258.233 120.936C261.105 121.202 264.05 121.465 266.592 122.77C269.133 124.075 271.349 126.566 271.303 129.43C271.281 132.954 268.148 135.707 264.898 137.216C259.842 139.522 254.129 139.87 248.584 140.799C243.038 141.729 237.304 143.545 233.785 147.853C230.267 152.16 227.733 161.498 233.207 162.699C254.5 167.088 276.294 158.614 295.694 148.829C315.166 139.043 331.2 131.652 352.391 126.869C367.464 123.476 384.392 124.789 403.465 134.907C415.732 141.448 437.845 160.78 451.58 163.159C465.462 165.533 470.738 165.274 484.784 163.972C498.831 162.67 523.373 136.337 531.186 143.548C501.255 148.125 475.655 175.67 445.744 170.411C428.537 167.42 411.949 161.178 394.685 158.629C364.873 154.101 333.682 158.355 308.347 174.66" stroke="black" stroke-miterlimit="10" stroke-linecap="round" stroke-linejoin="round"/>
<path d="M257.883 192.365C239.051 197.431 196.865 185.411 180.143 175.358C177.442 173.691 174.741 172.025 171.967 170.361C157.936 161.68 143.756 152.931 127.531 150.713C109.389 148.269 91.1827 154.415 74.2561 161.47C57.3295 168.525 49.7871 173.194 31.494 174.792C13.201 176.39 -2.22529 167.685 -11.1551 151.705C-15.3847 144.148 -27.5864 126.962 -34.3853 121.476C-81.5143 83.721 -94.278 90.1889 -101.78 87.6639C-109.206 85.2097 -117.866 83.1658 -116.371 58.8921C-116.371 58.8921 -70.9504 83.5693 -44.6108 89.5414C-18.2685 95.5868 1.89232 97.0056 16.1384 109.716C30.3846 122.426 109.656 128.736 132.51 131.602" fill="#081B6A"/>
<path d="M257.883 192.365C239.051 197.431 196.865 185.411 180.143 175.358C177.442 173.691 174.741 172.025 171.967 170.361C157.936 161.68 143.756 152.931 127.531 150.713C109.389 148.269 91.1827 154.415 74.2561 161.47C57.3295 168.525 49.7871 173.194 31.494 174.792C13.201 176.39 -2.2253 167.685 -11.1551 151.706C-15.3847 144.148 -27.5864 126.962 -34.3853 121.476C-81.5143 83.721 -94.278 90.1889 -101.78 87.6639C-109.206 85.2097 -117.866 83.1658 -116.371 58.8921C-116.371 58.8921 -70.9504 83.5693 -44.6108 89.5414C-18.2685 95.5868 1.89231 97.0056 16.1384 109.716C30.3846 122.426 109.656 128.736 132.51 131.602" stroke="black" stroke-miterlimit="10" stroke-linecap="round" stroke-linejoin="round"/>
<path d="M483.181 153.901C466.604 158.375 439.686 156.827 427.607 151.454C411.797 144.377 410.568 142.806 397.904 137.527C374.883 127.841 348.417 134.938 325.096 143.833C301.775 152.728 277.788 163.554 252.895 161.128C244.499 160.322 234.422 155.539 235.007 147.151C235.646 138.174 247.216 135.345 256.139 134.444C257.82 134.238 259.571 133.956 261.391 133.525C269.395 131.555 268.174 119.781 259.945 119.557C220.118 118.243 180.366 117 140.538 115.687C128.854 115.291 116.28 114.632 107.142 107.321C98.0033 100.009 93.0076 95.7078 102.993 89.5578C153.375 63.3429 17.4257 83.6891 -38.5283 80.888C-69.4099 79.3329 -84.7343 61.0093 -85.8534 47.984C-86.8682 35.8357 -117.113 33.5976 -121.071 56.7103C-122.782 66.459 -114.695 75.2021 -106.291 80.411C-80.9376 95.8861 -46.7639 95.0501 -25.1284 115.427C-9.56888 129.999 -2.33704 154.039 17.3255 162.154C35.0511 169.457 54.848 160.54 73.057 154.467C99.9698 145.446 122.67 137.674 149.219 147.529C173.908 156.642 201.183 180.857 226.137 189.153C281.986 207.738 320.376 153.614 378.357 163.977C404.208 168.572 408.08 174.307 434.347 174.043C450.341 173.847 457.068 175.225 491.245 164.04C522.664 153.759 536.356 138.231 551.313 127.355C551.311 127.282 531.388 140.975 483.181 153.901Z" fill="#AD94FF" stroke="black" stroke-miterlimit="10" stroke-linecap="round" stroke-linejoin="round"/>
<path d="M59.2483 97.8513C51.2838 98.8657 44.3956 99.1815 37.3706 95.6122C36.3236 95.0619 35.2689 94.2916 35.2276 93.1187C35.239 91.3568 37.0562 90.8524 38.5145 90.5809C55.4416 87.7097 72.2954 84.8411 89.2225 81.9698C90.8275 81.6932 92.4325 81.4165 93.9296 82.2445C94.6023 82.5878 95.0654 83.2321 95.2378 83.96C95.6715 85.8531 93.8068 87.0931 92.1465 87.8855C89.9809 88.9159 87.8152 89.9463 85.6444 90.8301C77.8306 94.0411 69.614 96.2386 61.2174 97.4884C60.4894 97.6608 59.7589 97.7599 59.2483 97.8513Z" fill="white" stroke="#000207" stroke-miterlimit="10" stroke-linecap="round" stroke-linejoin="round"/>
<path d="M22.8037 90.4733C25.88 90.2916 28.8546 89.3061 31.4394 87.6737C32.157 87.2081 33.0108 86.4441 32.8333 85.5695C32.6557 84.695 31.6872 84.2887 30.8731 84.0972C25.7659 82.8824 20.1523 83.9608 15.8572 87.0479C15.2129 87.511 14.5056 88.2699 14.8247 88.9926C15.0652 89.5713 15.806 89.7654 16.3976 89.8914C18.3191 90.2641 19.1988 90.2332 21.1858 90.3834L22.8037 90.4733Z" fill="white" stroke="#000207" stroke-miterlimit="10" stroke-linecap="round" stroke-linejoin="round"/>
<path d="M259.584 119.867C219.184 127.308 162.716 137.003 122.94 126.733C115.014 124.663 106.761 121.651 101.614 115.153C96.4705 108.728 96.0204 98.0279 102.597 93.0256" stroke="#000207" stroke-miterlimit="10" stroke-linecap="round" stroke-linejoin="round"/>
<path d="M150.963 149.227C123.848 144.163 95.9271 143.311 68.5982 146.769C54.2033 148.597 37.7764 151.083 26.7304 141.71C16.4407 132.971 14.614 116.521 3.27114 109.14C-3.03886 105.032 -10.9034 104.722 -18.3538 103.663C-42.9196 100.124 -65.9728 87.4304 -82.0511 68.5461" stroke="#000207" stroke-miterlimit="10" stroke-linecap="round" stroke-linejoin="round"/>
<path d="M450.987 173.536C420.997 174.372 406.117 160.363 394.663 151.885C374.239 136.75 344.42 136.185 315.825 147.467" stroke="#000207" stroke-miterlimit="10" stroke-linecap="round" stroke-linejoin="round"/>
<path d="M236.067 152.326C240.595 160.02 253.498 167.933 262.349 169.163C284.7 172.34 311.931 159.858 334.176 155.845C356.421 151.832 378.806 155.962 397.665 168.363" stroke="#000207" stroke-miterlimit="10" stroke-linecap="round" stroke-linejoin="round"/>
</svg>
