<svg width="626" height="625" viewBox="0 0 626 625" fill="none" xmlns="http://www.w3.org/2000/svg">
<path d="M495.833 397.556C529.881 386.336 553.7 349.834 550.351 314.202C549.324 303.708 545.974 292.902 538.317 285.628C530.659 278.355 518.014 275.713 509.285 281.654C526.478 266.522 532.761 240.214 524.244 218.949C515.728 197.683 493.047 182.967 470.154 183.87C447.262 184.774 425.814 201.243 419.012 223.116C414.883 204.136 389.811 196.033 371.859 203.433C353.907 210.833 342.433 228.538 334.401 246.222C335.529 236.091 328.04 225.752 318.065 223.679C308.09 221.606 297.087 228.111 294.098 237.84C293.578 204.201 260.035 176.263 226.488 177.819C192.942 179.374 163.459 206.532 154.787 239.007C145.739 217.995 113.37 206.756 92.7753 216.684C72.1807 226.611 58.5093 240.594 53.5275 262.929C56.2381 265.416 115.454 426.07 115.454 426.07C115.454 426.07 119.883 424.244 131.568 434.986C145.436 447.733 171.972 449.011 182.004 432.882C181.337 440.166 182.873 447.482 186.414 453.882C189.954 460.282 195.336 465.471 201.862 468.775C208.387 472.08 215.754 473.347 223.009 472.414C230.263 471.481 237.07 468.39 242.546 463.541C235.602 485.417 248.061 510.144 267.327 522.641C286.594 535.139 310.915 537.298 333.735 534.791C397.611 527.774 456.28 484.51 481.833 425.567" fill="#F3BEDA"/>
<path d="M115.044 426.405C115 426.368 114.963 426.324 114.934 426.275C94.6076 371.133 55.5781 266.199 53.1474 263.33C53.0836 263.272 53.0364 263.199 53.0107 263.117C52.985 263.035 52.9818 262.947 53.0015 262.864C57.6811 241.78 70.2691 226.998 92.542 216.252C102.666 211.37 116.35 211.309 129.122 216.111C140.941 220.514 150.174 228.301 154.651 237.576C164.228 204.019 194.181 178.809 226.437 177.338C243.573 176.541 261.745 183.57 275.081 196.137C286.798 207.181 293.603 220.997 294.501 235.375C298.474 226.7 308.738 221.24 318.17 223.183C327.602 225.126 334.791 234.213 335.02 243.718C345.118 222.317 357.119 208.976 371.67 202.977C376.974 200.888 382.664 199.957 388.357 200.247C394.05 200.536 399.615 202.039 404.68 204.655C411.97 208.478 417.02 214.345 419.055 221.31C426.442 200.096 447.64 184.244 470.12 183.349C493.196 182.46 516.147 197.341 524.714 218.76C532.818 239.012 527.575 263.902 512.35 279.438C520.564 276.03 531.251 278.233 538.659 285.273C547.251 293.433 550.03 305.483 550.846 314.15C554.218 349.933 530.116 386.766 495.993 398.037C495.865 398.078 495.727 398.068 495.607 398.007C495.487 397.947 495.396 397.842 495.353 397.714C495.313 397.589 495.324 397.453 495.385 397.335C495.445 397.218 495.549 397.129 495.674 397.088C529.387 385.968 553.182 349.592 549.852 314.245C549.05 305.75 546.342 293.954 537.968 285.989C530.993 279.304 518.413 276.043 509.563 282.074C509.512 282.111 509.454 282.137 509.392 282.152C509.33 282.166 509.266 282.168 509.204 282.158C509.142 282.147 509.082 282.124 509.028 282.091C508.975 282.057 508.928 282.013 508.891 281.962C508.813 281.861 508.776 281.734 508.788 281.608C508.799 281.481 508.859 281.363 508.955 281.279C525.964 266.316 532.204 240.175 523.789 219.138C515.374 198.1 492.822 183.472 470.177 184.375C447.533 185.278 426.216 201.624 419.482 223.268C419.449 223.373 419.383 223.465 419.293 223.529C419.203 223.593 419.095 223.627 418.985 223.624C418.873 223.62 418.765 223.578 418.68 223.505C418.595 223.433 418.536 223.333 418.514 223.223C416.904 215.832 411.832 209.552 404.228 205.575C399.292 203.019 393.866 201.549 388.315 201.261C382.763 200.974 377.214 201.876 372.04 203.909C357.225 210.014 345.064 223.923 334.859 246.437C334.807 246.543 334.72 246.629 334.613 246.68C334.506 246.73 334.384 246.742 334.269 246.714C334.153 246.683 334.052 246.611 333.985 246.512C333.917 246.413 333.888 246.292 333.902 246.173C335.01 236.282 327.712 226.2 317.961 224.173C308.209 222.147 297.466 228.433 294.568 237.992C294.531 238.105 294.455 238.202 294.354 238.266C294.253 238.33 294.133 238.357 294.014 238.343C293.898 238.322 293.792 238.261 293.715 238.171C293.638 238.08 293.596 237.966 293.594 237.847C293.378 222.866 286.563 208.311 274.397 196.861C261.274 184.467 243.355 177.552 226.505 178.316C194.249 179.787 164.249 205.391 155.266 239.138C155.241 239.239 155.184 239.329 155.105 239.396C155.026 239.463 154.928 239.504 154.824 239.513C154.721 239.518 154.618 239.492 154.53 239.438C154.442 239.384 154.373 239.304 154.331 239.21C150.155 229.641 140.904 221.554 128.798 217.027C116.251 212.337 102.859 212.386 92.9589 217.131C71.0559 227.695 58.6938 242.233 54.0191 262.827C58.416 270.151 109.097 407.522 115.736 425.49C117.235 425.294 122.115 425.655 131.875 434.621C139.656 441.777 151.757 445.431 162.674 443.914C170.999 442.771 177.675 438.739 181.505 432.571C181.561 432.473 181.65 432.397 181.755 432.358C181.861 432.319 181.977 432.318 182.084 432.356C182.191 432.392 182.283 432.462 182.346 432.556C182.409 432.65 182.439 432.762 182.431 432.874C181.774 440.057 183.289 447.271 186.781 453.582C190.273 459.893 195.58 465.01 202.014 468.269C208.448 471.528 215.713 472.779 222.867 471.86C230.02 470.942 236.733 467.895 242.135 463.116C242.215 463.043 242.318 462.998 242.427 462.989C242.535 462.979 242.644 463.007 242.735 463.067C242.829 463.125 242.901 463.212 242.939 463.316C242.976 463.419 242.978 463.533 242.944 463.637C236.547 483.777 247.118 508.937 267.516 522.167C284.171 532.958 307.053 537.162 333.603 534.248C364.858 530.807 395.346 518.696 421.769 499.204C448.191 479.711 468.774 454.131 481.3 425.324C481.325 425.263 481.361 425.208 481.408 425.161C481.454 425.114 481.51 425.078 481.571 425.053C481.632 425.028 481.697 425.016 481.763 425.017C481.829 425.018 481.894 425.032 481.954 425.059C482.014 425.085 482.069 425.123 482.114 425.171C482.16 425.218 482.196 425.274 482.22 425.335C482.243 425.397 482.255 425.462 482.254 425.528C482.252 425.594 482.238 425.659 482.211 425.719C469.633 454.727 448.934 480.418 422.376 500.013C395.817 519.608 365.145 531.795 333.719 535.251C306.932 538.195 283.854 533.961 266.986 523.01C246.756 509.887 236.039 485.204 241.53 464.94C235.998 469.395 229.3 472.163 222.236 472.914C215.172 473.665 208.042 472.367 201.696 469.174C195.351 465.982 190.058 461.03 186.451 454.911C182.844 448.792 181.074 441.763 181.353 434.665C177.254 440.223 170.776 443.838 162.853 444.929C151.628 446.47 139.19 442.697 131.18 435.394C120.049 425.165 115.627 426.552 115.59 426.57C115.493 426.598 115.39 426.597 115.293 426.567C115.196 426.538 115.109 426.481 115.044 426.405V426.405Z" fill="#000207"/>
<path d="M452.572 270.348C466.789 254.381 486.311 244.106 507.523 241.429C526.302 239.135 546.698 243.623 560.032 257.085C573.365 270.546 577.179 293.765 565.658 308.77" fill="#F3BEDA"/>
<path d="M452.19 270.676C452.114 270.584 452.073 270.468 452.075 270.348C452.077 270.228 452.122 270.113 452.202 270.024C466.506 253.957 486.146 243.616 507.488 240.912C528.279 238.394 548.055 244.3 560.387 256.735C574.653 271.111 577.182 294.592 566.059 309.077C566.019 309.129 565.97 309.174 565.913 309.207C565.856 309.241 565.793 309.263 565.728 309.272C565.662 309.281 565.596 309.277 565.532 309.261C565.468 309.244 565.408 309.215 565.356 309.174C565.25 309.092 565.182 308.971 565.165 308.838C565.148 308.705 565.184 308.571 565.265 308.465C576.094 294.36 573.58 271.469 559.676 257.443C547.567 245.224 528.088 239.421 507.606 241.965C486.521 244.638 467.115 254.852 452.974 270.719C452.884 270.818 452.759 270.878 452.626 270.885C452.493 270.893 452.362 270.848 452.261 270.76L452.19 270.676Z" fill="#000207"/>
<path d="M307.662 262.588C310.881 257.354 315.677 253.276 321.359 250.938C327.042 248.601 333.319 248.125 339.289 249.578C351.127 252.72 360.126 264.362 360.214 276.609" fill="#F3BEDA"/>
<path d="M307.281 262.916C307.216 262.837 307.176 262.74 307.167 262.638C307.158 262.536 307.179 262.434 307.229 262.344C310.502 257.014 315.381 252.859 321.165 250.479C326.949 248.098 333.339 247.614 339.415 249.096C351.459 252.312 360.621 264.145 360.719 276.605C360.72 276.738 360.669 276.866 360.576 276.961C360.483 277.055 360.356 277.109 360.223 277.111C360.157 277.111 360.092 277.099 360.031 277.074C359.97 277.05 359.915 277.013 359.868 276.967C359.773 276.874 359.719 276.748 359.718 276.615C359.648 270.562 357.598 264.699 353.882 259.922C350.166 255.144 344.988 251.715 339.139 250.157C333.29 248.6 327.092 249.001 321.492 251.298C315.892 253.595 311.199 257.663 308.129 262.88C308.063 262.994 307.954 263.079 307.826 263.113C307.698 263.148 307.561 263.13 307.446 263.064C307.381 263.028 307.325 262.977 307.281 262.916Z" fill="#000207"/>
<path d="M130.959 237.231C149.636 234.29 169.593 244.865 177.723 261.962C185.853 279.059 181.369 301.131 167.292 313.753" fill="#F3BEDA"/>
<path d="M166.911 314.077C166.827 313.978 166.785 313.851 166.793 313.722C166.801 313.593 166.858 313.473 166.954 313.385C180.801 300.971 185.225 278.937 177.263 262.13C169.3 245.324 149.42 234.84 131.054 237.714C130.989 237.725 130.923 237.722 130.858 237.707C130.794 237.692 130.734 237.664 130.68 237.625C130.627 237.587 130.581 237.538 130.547 237.482C130.512 237.425 130.489 237.363 130.479 237.298C130.468 237.233 130.471 237.166 130.486 237.102C130.501 237.038 130.529 236.977 130.568 236.924C130.606 236.87 130.655 236.825 130.711 236.79C130.768 236.756 130.83 236.733 130.895 236.722C149.685 233.776 170.005 244.516 178.171 261.701C186.336 278.887 181.799 301.422 167.638 314.116C167.59 314.16 167.534 314.194 167.473 314.216C167.411 314.238 167.346 314.248 167.281 314.245C167.216 314.241 167.152 314.225 167.093 314.196C167.034 314.168 166.982 314.128 166.939 314.079L166.911 314.077Z" fill="#000207"/>
<path d="M122.543 355.902C144.072 334.069 182.089 331.307 206.552 349.782C231.015 368.258 238.743 405.592 223.652 432.286" fill="#F3BEDA"/>
<path d="M122.162 356.226C122.08 356.13 122.038 356.007 122.043 355.881C122.048 355.755 122.1 355.636 122.19 355.547C132.69 344.906 147.326 338.403 163.408 337.228C179.491 336.052 194.919 340.385 206.855 349.382C218.791 358.379 227.154 372.054 230.418 387.848C233.682 403.642 231.435 419.505 224.086 432.535C224.018 432.646 223.909 432.726 223.783 432.758C223.657 432.791 223.523 432.773 223.411 432.708C223.298 432.643 223.214 432.537 223.179 432.412C223.143 432.287 223.157 432.152 223.219 432.038C230.463 419.241 232.69 403.631 229.456 388.073C226.222 372.516 217.995 359.079 206.269 350.206C194.543 341.333 179.348 337.09 163.501 338.25C147.654 339.41 133.217 345.823 122.924 356.275C122.878 356.321 122.822 356.358 122.761 356.383C122.7 356.409 122.635 356.421 122.569 356.421C122.503 356.421 122.438 356.408 122.377 356.382C122.316 356.357 122.261 356.32 122.215 356.273L122.162 356.226Z" fill="#000207"/>
<path d="M205.846 293.589C207.906 311.845 222.711 327.939 240.728 331.507C258.746 335.075 278.573 325.851 287.439 309.754" fill="#F3BEDA"/>
<path d="M215.647 317.007C209.971 310.404 206.382 302.265 205.334 293.62C205.319 293.489 205.356 293.358 205.438 293.254C205.519 293.151 205.639 293.084 205.769 293.068C205.902 293.054 206.035 293.092 206.14 293.175C206.244 293.258 206.312 293.379 206.329 293.511C208.376 311.674 222.874 327.438 240.807 330.999C258.74 334.56 278.15 325.571 286.985 309.499C287.017 309.441 287.059 309.39 287.111 309.348C287.162 309.306 287.222 309.276 287.285 309.257C287.349 309.238 287.416 309.233 287.481 309.24C287.547 309.248 287.611 309.268 287.669 309.3C287.783 309.365 287.868 309.472 287.904 309.599C287.94 309.725 287.924 309.861 287.861 309.976C278.837 326.365 258.965 335.614 240.613 331.976C230.846 329.932 222.052 324.659 215.647 317.007Z" fill="#000207"/>
<path d="M232.537 395.347C240.442 394.797 248.366 396.084 255.69 399.108C263.014 402.131 269.539 406.809 274.753 412.774C279.968 418.74 283.731 425.831 285.748 433.493C287.765 441.156 287.982 449.181 286.38 456.941" fill="#F3BEDA"/>
<path d="M232.156 395.671C232.086 395.592 232.047 395.49 232.044 395.385C232.04 395.319 232.048 395.253 232.068 395.191C232.089 395.128 232.121 395.071 232.165 395.021C232.208 394.971 232.26 394.93 232.319 394.9C232.378 394.871 232.442 394.853 232.507 394.849C240.484 394.299 248.48 395.601 255.869 398.654C263.259 401.708 269.842 406.429 275.104 412.448C280.366 418.468 284.164 425.624 286.202 433.355C288.239 441.087 288.461 449.185 286.849 457.016C286.814 457.136 286.736 457.239 286.629 457.304C286.521 457.369 286.394 457.392 286.271 457.367C286.148 457.343 286.039 457.273 285.965 457.172C285.891 457.071 285.858 456.946 285.872 456.822C287.458 449.138 287.244 441.191 285.247 433.604C283.251 426.016 279.525 418.994 274.362 413.087C269.199 407.179 262.738 402.547 255.487 399.552C248.235 396.558 240.388 395.282 232.562 395.825C232.487 395.832 232.411 395.822 232.341 395.795C232.27 395.769 232.207 395.726 232.156 395.671Z" fill="#000207"/>
<path d="M254.616 331.564C260.114 342.909 267.621 353.47 277.591 361.183C287.561 368.896 300.165 373.578 312.737 372.729C325.309 371.881 337.687 365.05 343.879 354.074" fill="#F3BEDA"/>
<path d="M266.727 351.407C261.733 345.415 257.512 338.818 254.167 331.772C254.137 331.712 254.119 331.646 254.115 331.578C254.11 331.51 254.119 331.443 254.141 331.379C254.163 331.315 254.197 331.255 254.242 331.204C254.286 331.154 254.34 331.112 254.401 331.082C254.462 331.052 254.528 331.034 254.595 331.03C254.663 331.026 254.731 331.035 254.795 331.056C254.859 331.078 254.918 331.112 254.969 331.157C255.02 331.202 255.061 331.256 255.091 331.316C261.139 343.821 268.848 353.739 277.917 360.76C288.354 368.824 301.037 372.994 312.731 372.208C325.773 371.328 337.559 364.277 343.462 353.81C343.53 353.696 343.64 353.612 343.768 353.577C343.897 353.541 344.034 353.556 344.152 353.619C344.267 353.685 344.351 353.793 344.385 353.921C344.42 354.049 344.402 354.186 344.336 354.301C338.261 365.059 326.182 372.305 312.771 373.184C300.848 373.993 287.91 369.739 277.286 361.531C273.422 358.535 269.883 355.141 266.727 351.407Z" fill="#000207"/>
<path d="M356.642 262.57C368.758 258.385 383.494 263.973 389.774 275.128C393.27 281.341 394.236 288.623 395.134 295.7" fill="#F3BEDA"/>
<path d="M356.26 262.896C356.214 262.857 356.175 262.811 356.144 262.759C356.121 262.697 356.112 262.631 356.115 262.564C356.119 262.498 356.135 262.434 356.164 262.374C356.193 262.314 356.233 262.261 356.282 262.217C356.332 262.173 356.39 262.139 356.452 262.118C368.7 257.886 383.842 263.629 390.203 274.925C393.797 281.317 394.763 288.939 395.619 295.672C395.633 295.74 395.634 295.81 395.619 295.878C395.605 295.946 395.577 296.011 395.537 296.067C395.496 296.124 395.444 296.171 395.384 296.207C395.324 296.242 395.258 296.265 395.189 296.273C395.12 296.281 395.05 296.275 394.983 296.254C394.917 296.234 394.855 296.2 394.802 296.154C394.75 296.109 394.707 296.053 394.678 295.99C394.648 295.927 394.632 295.858 394.63 295.789C393.787 289.163 392.808 281.604 389.313 275.391C383.181 264.504 368.576 258.962 356.759 263.037C356.671 263.064 356.578 263.065 356.489 263.04C356.401 263.015 356.321 262.965 356.26 262.896Z" fill="#000207"/>
<path d="M431.532 286.005C434.407 280.761 438.675 276.413 443.866 273.444C449.114 270.635 455.542 269.775 461.094 271.887C466.645 273.999 471.066 279.31 471.37 285.252" fill="#F3BEDA"/>
<path d="M431.144 286.321C431.078 286.242 431.037 286.145 431.028 286.043C431.018 285.941 431.041 285.838 431.092 285.749C434.024 280.43 438.362 276.019 443.633 272.999C446.297 271.512 449.246 270.603 452.285 270.331C455.325 270.059 458.387 270.43 461.274 271.42C467.21 273.678 471.573 279.353 471.869 285.223C471.876 285.357 471.829 285.487 471.74 285.586C471.651 285.685 471.525 285.745 471.392 285.752C471.259 285.758 471.129 285.712 471.029 285.623C470.93 285.533 470.871 285.408 470.864 285.275C470.587 279.782 466.492 274.47 460.92 272.349C455.802 270.408 449.517 270.988 444.106 273.883C438.995 276.807 434.793 281.089 431.965 286.254C431.896 286.367 431.786 286.449 431.657 286.482C431.528 286.515 431.392 286.497 431.277 286.431C431.226 286.403 431.181 286.366 431.144 286.321Z" fill="#000207"/>
<path d="M406.729 232.247C408.778 230.135 411.292 228.529 414.07 227.558C416.848 226.586 419.814 226.276 422.734 226.651C425.653 227.025 428.444 228.075 430.887 229.717C433.33 231.359 435.356 233.547 436.805 236.109" fill="#F3BEDA"/>
<path d="M406.37 232.55C406.292 232.453 406.252 232.33 406.258 232.206C406.263 232.081 406.312 231.962 406.398 231.871C408.502 229.7 411.083 228.049 413.937 227.05C416.791 226.051 419.839 225.732 422.838 226.118C425.837 226.503 428.705 227.583 431.213 229.271C433.722 230.96 435.802 233.21 437.288 235.843C437.355 235.961 437.372 236.1 437.336 236.23C437.3 236.36 437.213 236.47 437.096 236.537C436.979 236.603 436.839 236.62 436.709 236.584C436.579 236.548 436.469 236.462 436.402 236.345C434.993 233.849 433.021 231.716 430.642 230.117C428.264 228.517 425.546 227.494 422.703 227.129C419.86 226.763 416.971 227.066 414.266 228.013C411.561 228.96 409.114 230.525 407.119 232.584C407.074 232.631 407.02 232.669 406.959 232.695C406.899 232.721 406.835 232.735 406.769 232.735C406.703 232.736 406.638 232.723 406.578 232.698C406.517 232.673 406.462 232.636 406.416 232.589L406.37 232.55Z" fill="#000207"/>
<path d="M280.218 234.269C282.594 233.411 285.176 233.299 287.617 233.948C290.059 234.597 292.244 235.975 293.882 237.899C295.519 239.823 296.53 242.201 296.78 244.715C297.03 247.229 296.507 249.759 295.28 251.967" fill="#F3BEDA"/>
<path d="M279.835 234.595L279.719 234.457C279.697 234.395 279.687 234.329 279.691 234.263C279.694 234.197 279.711 234.132 279.739 234.072C279.768 234.012 279.808 233.959 279.858 233.915C279.907 233.871 279.965 233.837 280.028 233.816C282.505 232.978 285.175 232.89 287.703 233.562C290.231 234.234 292.504 235.637 294.239 237.594C295.886 239.622 296.901 242.088 297.158 244.688C297.415 247.288 296.903 249.905 295.684 252.216C295.619 252.332 295.511 252.417 295.383 252.455C295.255 252.492 295.118 252.478 295.001 252.415C294.887 252.348 294.803 252.24 294.766 252.113C294.729 251.986 294.742 251.85 294.802 251.732C295.93 249.601 296.405 247.186 296.169 244.787C295.934 242.388 294.997 240.111 293.476 238.241C291.875 236.436 289.778 235.144 287.447 234.524C285.116 233.905 282.653 233.987 280.368 234.759C280.273 234.785 280.172 234.784 280.078 234.754C279.984 234.725 279.899 234.67 279.835 234.595Z" fill="#000207"/>
<path d="M311.249 373.049C310.734 378.407 311.579 383.809 313.705 388.754C315.832 393.699 319.171 398.028 323.415 401.34C327.659 404.651 332.669 406.839 337.983 407.7C343.296 408.562 348.742 408.068 353.814 406.266" fill="#F3BEDA"/>
<path d="M318.513 397.368C315.677 394.019 313.531 390.141 312.198 385.959C310.866 381.777 310.374 377.373 310.75 373C310.755 372.934 310.773 372.87 310.803 372.811C310.833 372.753 310.875 372.701 310.925 372.658C310.976 372.615 311.034 372.583 311.097 372.563C311.16 372.543 311.226 372.535 311.292 372.541C311.424 372.554 311.545 372.618 311.631 372.719C311.717 372.82 311.76 372.951 311.751 373.083C311.235 378.356 312.06 383.673 314.148 388.542C316.237 393.411 319.521 397.674 323.697 400.934C327.873 404.194 332.805 406.347 338.035 407.192C343.265 408.037 348.624 407.547 353.615 405.767C353.741 405.722 353.879 405.729 354.001 405.785C354.122 405.842 354.217 405.944 354.264 406.069C354.303 406.195 354.294 406.332 354.236 406.451C354.179 406.57 354.078 406.663 353.955 406.711C348.794 408.488 343.274 408.963 337.885 408.094C332.496 407.225 327.404 405.04 323.063 401.731C321.403 400.435 319.878 398.973 318.513 397.368Z" fill="#000207"/>
<path d="M270.331 328.41C272.059 330.317 274.24 331.756 276.673 332.594C279.106 333.432 281.711 333.642 284.247 333.204C286.782 332.766 289.166 331.694 291.177 330.088C293.187 328.482 294.759 326.394 295.747 324.018" fill="#F3BEDA"/>
<path d="M269.949 328.728C269.863 328.627 269.821 328.495 269.832 328.363C269.843 328.231 269.906 328.109 270.007 328.023C270.108 327.937 270.24 327.895 270.372 327.906C270.504 327.917 270.626 327.98 270.712 328.081C272.383 329.925 274.493 331.317 276.846 332.127C279.199 332.937 281.718 333.14 284.171 332.716C286.623 332.292 288.928 331.256 290.872 329.703C292.817 328.15 294.338 326.131 295.293 323.833C295.344 323.71 295.441 323.613 295.564 323.562C295.686 323.511 295.824 323.51 295.947 323.561C296.07 323.612 296.168 323.709 296.219 323.832C296.27 323.954 296.27 324.092 296.219 324.215C295.205 326.676 293.583 328.841 291.506 330.507C289.429 332.173 286.964 333.286 284.341 333.742C281.718 334.198 279.022 333.983 276.505 333.116C273.987 332.249 271.731 330.759 269.944 328.784L269.949 328.728Z" fill="#000207"/>
<path d="M199.623 343.662C202.333 341.714 205.515 340.526 208.839 340.221C212.163 339.916 215.509 340.505 218.528 341.928C221.548 343.35 224.132 345.554 226.014 348.312C227.895 351.069 229.005 354.279 229.228 357.61" fill="#F3BEDA"/>
<path d="M199.241 343.989C199.166 343.881 199.136 343.747 199.157 343.616C199.178 343.485 199.25 343.368 199.356 343.289C202.139 341.288 205.407 340.068 208.82 339.755C212.233 339.442 215.668 340.047 218.769 341.509C221.87 342.97 224.523 345.234 226.454 348.066C228.386 350.898 229.524 354.194 229.753 357.615C229.757 357.68 229.748 357.746 229.726 357.808C229.705 357.87 229.671 357.927 229.627 357.976C229.584 358.025 229.531 358.065 229.472 358.094C229.413 358.123 229.349 358.14 229.283 358.143C229.218 358.149 229.153 358.142 229.091 358.121C229.029 358.101 228.972 358.068 228.923 358.025C228.874 357.982 228.834 357.929 228.806 357.87C228.779 357.811 228.763 357.747 228.761 357.682C228.543 354.439 227.463 351.313 225.631 348.628C223.8 345.943 221.283 343.797 218.343 342.411C215.403 341.025 212.146 340.451 208.91 340.747C205.673 341.044 202.574 342.2 199.935 344.096C199.828 344.173 199.696 344.205 199.566 344.185C199.436 344.165 199.32 344.095 199.241 343.989Z" fill="#000207"/>
<path d="M153.814 239.457C155.556 237.264 157.946 235.677 160.643 234.922C163.34 234.167 166.206 234.283 168.833 235.252C171.461 236.222 173.715 237.996 175.275 240.322C176.834 242.648 177.62 245.407 177.52 248.206" fill="#F3BEDA"/>
<path d="M153.433 239.78C153.36 239.69 153.319 239.577 153.318 239.461C153.318 239.345 153.357 239.232 153.429 239.141C155.238 236.873 157.715 235.233 160.51 234.454C163.304 233.675 166.273 233.796 168.994 234.8C171.716 235.804 174.051 237.64 175.67 240.048C177.288 242.455 178.107 245.312 178.009 248.211C178.004 248.276 177.987 248.339 177.957 248.397C177.928 248.455 177.887 248.507 177.837 248.549C177.787 248.591 177.73 248.623 177.668 248.643C177.605 248.662 177.54 248.669 177.475 248.663C177.409 248.658 177.345 248.64 177.286 248.61C177.228 248.58 177.175 248.538 177.133 248.488C177.09 248.438 177.058 248.379 177.038 248.316C177.018 248.254 177.01 248.187 177.016 248.122C177.111 245.426 176.352 242.769 174.847 240.531C173.342 238.292 171.169 236.586 168.637 235.657C166.105 234.727 163.344 234.62 160.748 235.353C158.152 236.085 155.854 237.619 154.182 239.735C154.141 239.787 154.091 239.83 154.033 239.862C153.976 239.894 153.913 239.915 153.848 239.923C153.783 239.931 153.716 239.925 153.653 239.908C153.59 239.89 153.531 239.86 153.479 239.819L153.433 239.78Z" fill="#000207"/>
<path d="M480.822 249.26C480.532 246.304 480.916 243.32 481.944 240.534C482.973 237.747 484.619 235.229 486.76 233.169C488.9 231.11 491.479 229.561 494.304 228.641C497.128 227.721 500.124 227.452 503.067 227.855" fill="#F3BEDA"/>
<path d="M480.479 249.55C480.413 249.471 480.371 249.374 480.36 249.271C480.094 246.242 480.502 243.192 481.555 240.34C482.608 237.487 484.279 234.903 486.449 232.774C488.667 230.689 491.318 229.122 494.214 228.185C497.109 227.248 500.176 226.964 503.195 227.353C503.26 227.358 503.324 227.377 503.383 227.407C503.442 227.437 503.494 227.478 503.537 227.529C503.58 227.579 503.612 227.637 503.632 227.7C503.652 227.763 503.659 227.829 503.654 227.895C503.648 227.961 503.63 228.025 503.6 228.084C503.57 228.142 503.529 228.195 503.478 228.237C503.428 228.28 503.37 228.312 503.307 228.332C503.244 228.352 503.178 228.36 503.112 228.354C500.233 227.976 497.307 228.242 494.544 229.133C491.781 230.024 489.25 231.517 487.134 233.504C485.072 235.529 483.484 237.984 482.484 240.695C481.483 243.405 481.095 246.304 481.347 249.182C481.357 249.287 481.333 249.393 481.279 249.484C481.225 249.575 481.143 249.647 481.046 249.688C480.948 249.73 480.84 249.74 480.737 249.716C480.634 249.692 480.541 249.637 480.472 249.557L480.479 249.55Z" fill="#000207"/>
<path d="M366.797 349.268C370.824 356.342 376.244 362.799 383.141 367.165C390.039 371.531 398.527 373.644 406.529 372.028C414.531 370.412 421.828 364.792 424.543 357.105" fill="#F3BEDA"/>
<path d="M372.635 358.554C370.271 355.741 368.172 352.715 366.365 349.515C366.3 349.4 366.282 349.264 366.317 349.137C366.351 349.009 366.435 348.901 366.549 348.835C366.666 348.77 366.803 348.755 366.931 348.79C367.06 348.826 367.169 348.911 367.236 349.026C371.673 356.8 377.119 362.763 383.43 366.761C390.632 371.301 399.016 373.058 406.448 371.558C414.595 369.897 421.538 364.185 424.087 356.952C424.108 356.89 424.141 356.833 424.185 356.784C424.228 356.735 424.281 356.695 424.341 356.667C424.4 356.639 424.464 356.623 424.53 356.62C424.595 356.617 424.661 356.627 424.722 356.65C424.847 356.696 424.95 356.788 425.008 356.909C425.065 357.029 425.074 357.167 425.031 357.293C422.345 364.812 415.15 370.83 406.643 372.546C398.966 374.083 390.31 372.282 382.899 367.604C379.035 365.13 375.573 362.078 372.635 358.554Z" fill="#000207"/>
<path d="M403.722 338.505C407.861 345.864 416.326 350.409 424.768 350.333C428.999 350.203 433.145 349.111 436.892 347.141C440.638 345.17 443.887 342.372 446.391 338.959C451.352 332.006 453.423 323.4 452.17 314.951" fill="#F3BEDA"/>
<path d="M405.624 342.116C404.739 341.072 403.955 339.945 403.284 338.751C403.218 338.634 403.201 338.495 403.237 338.365C403.273 338.235 403.359 338.124 403.476 338.058C403.594 337.991 403.733 337.974 403.863 338.01C403.993 338.046 404.103 338.132 404.17 338.25C408.111 345.252 416.39 349.902 424.776 349.822C428.928 349.698 432.999 348.633 436.68 346.708C440.361 344.783 443.558 342.047 446.029 338.708C450.926 331.864 452.963 323.381 451.708 315.06C451.696 314.994 451.697 314.925 451.712 314.859C451.727 314.793 451.755 314.73 451.795 314.675C451.835 314.62 451.885 314.574 451.944 314.539C452.002 314.504 452.067 314.482 452.134 314.473C452.201 314.464 452.27 314.469 452.335 314.487C452.4 314.506 452.461 314.537 452.514 314.58C452.567 314.623 452.61 314.676 452.642 314.736C452.674 314.796 452.693 314.862 452.698 314.929C453.99 323.507 451.885 332.249 446.832 339.299C444.274 342.769 440.963 345.613 437.147 347.618C433.331 349.623 429.111 350.736 424.802 350.874C421.164 350.881 417.566 350.102 414.256 348.591C410.946 347.079 408.002 344.871 405.624 342.116Z" fill="#000207"/>
<path d="M71.0073 258.845C78.0414 254.261 87.2255 253.452 95.2152 255.936C103.243 258.637 110.125 263.968 114.747 271.066C118.309 276.384 120.726 282.685 120.332 289.074C119.939 295.463 116.368 301.844 110.55 304.506" fill="#F3BEDA"/>
<path d="M70.6265 259.168L70.5877 259.123C70.5509 259.068 70.5256 259.006 70.5132 258.942C70.5008 258.877 70.5016 258.81 70.5155 258.746C70.5294 258.681 70.5562 258.62 70.5943 258.567C70.6323 258.513 70.6808 258.467 70.7369 258.432C77.6471 253.888 86.8675 252.812 95.3541 255.465C103.496 258.187 110.473 263.592 115.146 270.794C117.989 275.03 121.281 281.639 120.826 289.115C120.395 296.139 116.446 302.368 110.761 304.971C110.699 305 110.632 305.016 110.564 305.019C110.497 305.023 110.429 305.012 110.365 304.989C110.301 304.966 110.242 304.931 110.192 304.885C110.141 304.839 110.101 304.784 110.072 304.722C110.043 304.661 110.026 304.594 110.023 304.526C110.02 304.458 110.03 304.39 110.053 304.326C110.076 304.262 110.112 304.204 110.158 304.153C110.203 304.103 110.259 304.062 110.32 304.033C115.68 301.588 119.403 295.695 119.812 289.031C120.258 281.824 117.055 275.429 114.3 271.327C109.756 264.312 102.963 259.05 95.0353 256.403C91.1012 255.114 86.9327 254.702 82.8224 255.196C78.7122 255.69 74.7599 257.078 71.2431 259.262C71.1444 259.317 71.0304 259.337 70.9188 259.32C70.8072 259.303 70.7044 259.25 70.6265 259.168Z" fill="#000207"/>
<path d="M153.173 339.426C154.897 335.978 155.578 332.103 155.132 328.275C154.686 324.446 153.133 320.831 150.663 317.872C148.194 314.913 144.914 312.739 141.227 311.616C137.54 310.492 133.606 310.469 129.906 311.549" fill="#F3BEDA"/>
<path d="M152.791 339.751C152.728 339.675 152.688 339.582 152.677 339.484C152.667 339.386 152.685 339.287 152.73 339.199C154.347 335.823 154.975 332.059 154.543 328.34C154.111 324.622 152.636 321.102 150.288 318.187L150.184 318.065C147.732 315.266 144.541 313.214 140.977 312.143C137.413 311.071 133.62 311.025 130.031 312.008C129.904 312.041 129.768 312.025 129.653 311.961C129.538 311.897 129.452 311.791 129.413 311.666C129.394 311.603 129.388 311.537 129.394 311.471C129.401 311.405 129.42 311.342 129.451 311.284C129.482 311.225 129.525 311.174 129.576 311.132C129.627 311.091 129.686 311.06 129.749 311.041C133.525 310.009 137.515 310.06 141.263 311.188C145.012 312.315 148.367 314.475 150.947 317.419L151.038 317.525C153.507 320.592 155.059 324.294 155.513 328.205C155.967 332.116 155.305 336.076 153.603 339.626C153.574 339.685 153.533 339.738 153.482 339.782C153.432 339.825 153.374 339.858 153.311 339.879C153.247 339.899 153.181 339.907 153.115 339.901C153.049 339.896 152.984 339.877 152.925 339.847C152.875 339.824 152.829 339.791 152.791 339.751Z" fill="#000207"/>
<g style="mix-blend-mode:multiply">
<g style="mix-blend-mode:multiply">
<path d="M125.05 353.56C130.902 368.209 139.938 381.373 151.505 392.1C163.072 402.826 176.879 410.846 191.927 415.578C199.435 417.88 207.504 419.327 215.118 417.423C222.732 415.52 229.759 409.566 230.926 401.801C234.261 416.643 242.794 430.935 256.166 438.085C269.538 445.235 288.107 443.683 298.008 432.135C307.91 420.586 305.064 399.64 291.218 393.323C297.503 393.346 300.819 384.808 298.168 379.111C295.517 373.415 289.45 370.246 283.684 367.726C277.918 365.206 271.729 362.665 268.184 357.477C279.771 367.645 294.791 373.028 310.199 372.535C308.662 377.678 308.894 383.188 310.857 388.184C312.82 393.18 316.401 397.374 321.029 400.095C325.656 402.816 331.062 403.907 336.382 403.194C341.702 402.481 346.63 400.005 350.378 396.162C361.061 385.366 359.205 367.382 353.419 353.345C357.717 357.057 365.666 354.201 366.625 348.604C370.038 357.273 380.369 362.504 389.39 360.234C398.411 357.964 404.987 348.447 403.934 339.207C423.544 348.923 449.551 343.218 463.297 326.183C477.761 350.863 491.602 377.592 491.076 406.192C490.576 434.219 475.715 460.889 454.406 479.116C433.097 497.342 405.877 507.679 378.222 512.212C358.968 515.354 338.819 515.768 320.325 509.549C309.657 506.007 299.953 500.045 291.972 492.129C284.338 484.403 273.694 480.721 262.834 480.774C260.24 480.807 257.676 480.208 255.365 479.029C253.938 478.28 252.637 477.313 251.508 476.163C244.594 469.164 234.274 467.055 224.77 469.59C218.865 471.235 212.582 470.888 206.894 468.602C191.32 462.597 176.444 439.642 184.843 425.238C177.814 441.352 154.952 445.742 139.556 437.24C124.159 428.738 115.69 411.286 112.443 393.996C109.634 379.049 110.485 366.937 122.009 357.055" fill="#F3BEDA"/>
</g>
</g>
<g style="mix-blend-mode:multiply">
<g style="mix-blend-mode:multiply">
<path d="M177.526 248.89C181.965 245.587 187.357 243.816 192.89 243.844C198.422 243.873 203.796 245.699 208.2 249.048C212.447 252.599 215.423 257.435 216.681 262.826C217.939 268.217 217.41 273.871 215.174 278.935C218.757 280.272 221.755 282.826 223.643 286.151C225.532 289.476 226.19 293.359 225.504 297.121C224.818 300.883 222.83 304.283 219.888 306.726C216.947 309.17 213.24 310.501 209.416 310.486C212.051 313.298 213.778 316.837 214.373 320.643C214.968 324.449 214.404 328.347 212.754 331.828C211.104 335.309 208.444 338.213 205.121 340.162C201.797 342.11 197.964 343.014 194.121 342.754C198.55 338.005 197.316 329.928 193.098 324.996C188.879 320.064 182.523 317.559 176.363 315.517C187.267 290.72 181.61 259.573 162.707 240.187C168.196 241.039 173.422 243.115 177.999 246.262" fill="#F3BEDA"/>
</g>
</g>
<g style="mix-blend-mode:multiply">
<g style="mix-blend-mode:multiply">
<path d="M333.987 248.153C338.661 248.55 343.156 250.136 347.043 252.761C350.931 255.386 354.082 258.962 356.197 263.15C361.421 261.915 366.874 262.037 372.036 263.505C377.199 264.974 381.9 267.739 385.692 271.538C389.484 275.337 392.241 280.043 393.699 285.209C395.158 290.375 395.27 295.828 394.026 301.049C401.276 296.596 412.174 300.378 415.111 308.361C417.688 300.109 420.295 291.477 418.823 282.934C417.351 274.39 410.505 266.14 401.856 266.22C402.332 256.944 402.786 247.502 400.412 238.529C398.039 229.556 392.291 220.979 383.672 217.535C374.199 213.765 363.101 216.956 354.946 223.079C346.792 229.202 341.009 237.877 335.368 246.379" fill="#F3BEDA"/>
</g>
</g>
<g style="mix-blend-mode:multiply">
<g style="mix-blend-mode:multiply">
<path d="M452.215 268.225C450.781 258.521 448.919 249.548 454.33 241.332C456.247 238.397 458.682 235.639 461.902 234.274C465.123 232.908 469.28 233.266 471.616 235.899C471.776 224.347 482.597 214.038 494.104 214.485C505.611 214.933 515.713 225.942 515.058 237.467C514.386 231.693 509.231 226.925 503.463 226.15C497.695 225.375 491.746 228.332 488.347 233.06C486.714 235.474 485.599 238.201 485.072 241.067C484.546 243.934 484.62 246.879 485.289 249.715C471.286 252.943 463.377 259.278 452.999 269.212" fill="#F3BEDA"/>
</g>
</g>
<g style="mix-blend-mode:multiply">
<g style="mix-blend-mode:multiply">
<path d="M259.373 267.489C261.977 265.233 265.22 263.845 268.65 263.515C272.08 263.186 275.527 263.934 278.513 265.653C281.499 267.373 283.875 269.979 285.312 273.111C286.749 276.243 287.176 279.744 286.532 283.129C293.435 281.33 300.681 286.803 302.895 293.578C305.11 300.352 303.385 307.83 300.539 314.37C300.293 311.608 299.356 308.953 297.814 306.648C296.272 304.343 294.175 302.464 291.716 301.183C289.257 299.902 286.515 299.26 283.743 299.317C280.97 299.375 278.257 300.129 275.853 301.51C277.087 299.004 277.437 296.153 276.844 293.423C276.252 290.692 274.752 288.243 272.59 286.473C270.428 284.704 267.731 283.718 264.937 283.677C262.144 283.636 259.418 284.542 257.205 286.247C259.092 283.943 260.11 281.05 260.082 278.072C260.055 275.094 258.983 272.22 257.055 269.951" fill="#F3BEDA"/>
</g>
</g>
<g style="mix-blend-mode:multiply">
<g style="mix-blend-mode:multiply">
<path d="M77.3186 236.222C83.3682 234.989 89.6294 235.277 95.5401 237.061C101.451 238.845 106.826 242.068 111.184 246.442C115.454 250.902 118.549 256.354 120.191 262.307C121.833 268.259 121.97 274.527 120.59 280.545C126.564 281.578 132.669 282.658 137.969 285.586C143.268 288.514 147.799 293.614 148.315 299.652C148.903 306.441 144.301 312.844 138.463 316.349C132.625 319.854 125.705 320.999 118.952 321.924C126.49 324.633 130.276 333.942 128.412 341.735C126.547 349.527 120.211 355.631 113.043 359.175C105.875 362.719 113.519 395.222 105.619 396.556C105.767 395.185 58.1377 265.962 55.7621 262.169C60.4844 250.958 58.6509 248.934 66.6677 238.811" fill="#F3BEDA"/>
</g>
</g>
<path d="M177.882 214.798C177.076 214.171 179.868 209.314 185.196 204.17C196.937 193.082 212.19 186.455 228.307 185.44C235.705 185.044 241.159 186.268 241.069 187.353C240.98 188.438 235.668 188.837 228.851 190.104C214.099 192.705 200.172 198.758 188.205 207.768C182.67 211.894 178.792 215.547 177.882 214.798Z" fill="#FFD6E5"/>
<path d="M251.033 192.128C251.428 191.124 255.274 191.811 259.747 194.352C264.556 197.172 268.726 200.961 271.993 205.478C275.261 209.995 277.555 215.141 278.729 220.591C279.738 225.648 279.177 229.518 278.086 229.577C276.996 229.635 275.975 226.188 274.22 221.921C270.581 212.704 264.688 204.548 257.081 198.197C253.582 195.198 250.575 193.211 251.033 192.128Z" fill="#FFD6E5"/>
<path d="M371.252 210.703C371.015 210.222 371.531 209.392 372.749 208.556C374.408 207.486 376.266 206.764 378.211 206.432C380.73 205.971 383.309 205.939 385.839 206.339C388.36 206.724 390.812 207.472 393.119 208.558C395.382 209.644 397.505 211.001 399.441 212.599C401.338 214.169 403.05 215.951 404.543 217.91C407.262 221.504 408.432 224.681 407.514 225.314C406.596 225.948 404.216 223.757 401.106 221.124C399.561 219.811 397.798 218.395 395.986 217.139C394.263 215.944 392.448 214.888 390.557 213.98C388.698 213.11 386.759 212.422 384.767 211.926C382.754 211.442 380.696 211.165 378.627 211.099C374.806 210.968 371.81 211.764 371.252 210.703Z" fill="#FFD6E5"/>
<path d="M430.204 222.746C429.943 222.639 429.856 222.228 429.898 221.55C429.988 220.614 430.2 219.694 430.529 218.814C431.593 215.819 433.093 212.997 434.981 210.44C437.441 207.083 440.379 204.104 443.701 201.597C450.394 196.498 458.441 193.485 466.837 192.937C470.996 192.649 475.174 192.978 479.237 193.912C482.342 194.583 485.328 195.714 488.098 197.269C488.922 197.722 489.685 198.278 490.367 198.925C490.852 199.405 491.071 199.757 490.92 200.042C490.392 201.106 485.343 199.184 478.463 198.552C474.777 198.177 471.061 198.206 467.381 198.637C460.072 199.48 453.081 202.101 447.018 206.27C443.956 208.36 441.13 210.777 438.59 213.477C433.851 218.45 431.301 223.206 430.204 222.746Z" fill="#FFD6E5"/>
<path d="M436.985 288.785C436.514 288.477 436.523 287.59 436.961 286.328C437.587 284.659 438.483 283.103 439.612 281.723C441.109 279.801 442.966 278.188 445.078 276.973C447.322 275.682 449.842 274.944 452.429 274.821C453.734 274.769 455.039 274.908 456.304 275.233C457.618 275.58 458.876 276.112 460.041 276.812C461.104 277.465 462.106 278.213 463.035 279.046C463.477 279.445 463.878 279.825 464.271 280.227C464.671 280.652 465.048 281.098 465.402 281.562C466.104 282.413 466.678 283.362 467.107 284.378C467.485 285.261 467.656 286.219 467.606 287.179C467.595 287.847 467.373 288.494 466.971 289.028C466.604 289.338 466.338 289.472 466.068 289.386C465.517 289.185 465.347 288.411 464.813 287.658C464.06 286.591 463.135 285.656 462.076 284.892C461.743 284.637 461.381 284.38 461.005 284.122L459.774 283.303C458.973 282.779 458.137 282.309 457.272 281.898C455.814 281.167 454.196 280.816 452.567 280.877C450.862 280.963 449.189 281.371 447.636 282.08C445.947 282.867 444.363 283.861 442.921 285.04C440.105 287.269 437.947 289.425 436.985 288.785Z" fill="#FFD6E5"/>
<path d="M466.799 269.987C465.876 269.392 466.664 266.733 468.741 263.832C471.075 260.717 474.007 258.099 477.365 256.131C480.723 254.164 484.44 252.885 488.299 252.372C491.881 251.959 494.552 252.605 494.648 253.677C494.743 254.749 492.404 255.67 489.495 256.877C486.385 258.123 483.367 259.585 480.463 261.253C477.58 262.966 474.825 264.884 472.219 266.993C469.711 269.014 467.795 270.651 466.799 269.987Z" fill="#FFD6E5"/>
<path d="M304.599 274.673C304.023 273.746 307.815 270.441 313.983 267.928C317.395 266.493 321.022 265.634 324.715 265.388C326.712 265.274 328.716 265.423 330.674 265.831C333.587 266.439 336.329 267.689 338.7 269.489C341.07 271.289 343.011 273.594 344.38 276.237C345.316 278.11 345.906 280.137 346.121 282.22C346.312 284.161 346.157 286.12 345.664 288.007C344.952 290.955 343.313 293.597 340.99 295.546C339.208 296.924 337.829 297.137 337.539 296.687C337.25 296.238 337.959 295.218 338.878 293.626C340.052 291.621 340.799 289.396 341.071 287.088C341.223 285.699 341.165 284.295 340.897 282.923C340.61 281.511 340.094 280.155 339.37 278.909C338.281 277.092 336.84 275.51 335.132 274.257C333.424 273.003 331.483 272.103 329.423 271.609C327.935 271.262 326.412 271.084 324.883 271.078C321.711 271.118 318.556 271.551 315.489 272.366C309.545 273.812 305.191 275.666 304.599 274.673Z" fill="#FFD6E5"/>
<path d="M332.674 299.073C332.564 298.966 332.483 298.833 332.437 298.687C332.391 298.541 332.381 298.386 332.41 298.235C332.475 297.751 332.654 297.289 332.933 296.887C333.839 295.571 335.1 294.539 336.57 293.91C338.539 293.023 340.704 292.662 342.854 292.862C345.003 293.062 347.065 293.816 348.836 295.051C350.572 296.334 351.947 298.044 352.827 300.015C353.707 301.987 354.062 304.152 353.859 306.301C353.731 307.895 353.158 309.421 352.204 310.705C351.917 311.103 351.537 311.425 351.097 311.642C350.961 311.714 350.809 311.753 350.655 311.756C350.501 311.759 350.348 311.727 350.209 311.661C349.701 311.371 349.61 310.661 349.531 309.732C349.487 308.607 349.361 307.487 349.155 306.38C348.919 305.073 348.464 303.814 347.81 302.658C347.195 301.601 346.374 300.679 345.394 299.946C344.382 299.255 343.243 298.768 342.043 298.513C340.72 298.257 339.363 298.224 338.028 298.415C336.911 298.584 335.807 298.832 334.725 299.157C333.81 299.316 333.11 299.463 332.674 299.073Z" fill="#FFD6E5"/>
<path d="M183.83 239.937C183.702 239.678 183.836 239.341 184.19 238.924C184.693 238.365 185.281 237.889 185.931 237.514C188.113 236.232 190.513 235.367 193.01 234.962C196.283 234.39 199.63 234.402 202.898 234.999C206.202 235.589 209.376 236.754 212.277 238.442C215.22 240.148 217.789 242.428 219.833 245.147C221.974 247.976 223.231 251.376 223.446 254.917C223.622 257.625 222.943 260.319 221.504 262.618C220.379 264.292 219.213 264.834 218.801 264.502C218.389 264.17 218.641 263.091 218.885 261.508C219.226 259.496 219.189 257.438 218.777 255.44C218.206 252.926 217.024 250.591 215.337 248.642C213.594 246.623 211.524 244.912 209.213 243.581C206.869 242.211 204.339 241.185 201.703 240.534C199.016 239.878 196.256 239.574 193.49 239.628C188.259 239.657 184.36 240.995 183.83 239.937Z" fill="#FFD6E5"/>
<path d="M145.99 350.458C145.847 350.212 146.088 349.785 146.66 349.208C147.475 348.414 148.378 347.715 149.351 347.125C152.655 345.109 156.227 343.57 159.96 342.552C164.827 341.162 169.872 340.491 174.933 340.561C185.158 340.639 195.13 343.755 203.581 349.513C207.798 352.33 211.579 355.75 214.804 359.664C217.277 362.636 219.316 365.944 220.86 369.488C221.324 370.528 221.667 371.618 221.883 372.737C222.023 373.536 221.95 373.991 221.767 374.146C220.675 374.652 217.46 368.816 211.365 362.814C208.109 359.566 204.488 356.705 200.575 354.288C192.822 349.457 183.964 346.686 174.84 346.237C170.257 345.995 165.663 346.282 161.146 347.092C152.569 348.54 146.605 351.51 145.99 350.458Z" fill="#FFD6E5"/>
<path d="M239.718 402.382C239.808 401.297 242.452 400.721 245.943 401.236C249.706 401.867 253.297 403.276 256.486 405.372C259.674 407.467 262.391 410.205 264.463 413.41C266.315 416.415 266.841 419.062 265.861 419.591C264.88 420.121 263.098 418.419 260.825 416.387C258.433 414.197 255.878 412.19 253.183 410.384C250.462 408.62 247.608 407.068 244.648 405.741C241.881 404.455 239.603 403.515 239.718 402.382Z" fill="#FFD6E5"/>
</svg>
